<svg xmlns="http://www.w3.org/2000/svg" xmlns:xlink="http://www.w3.org/1999/xlink" viewBox="0 0 1390.96 221.81"><defs><style>.cls-1,.cls-4,.cls-5{fill:none;}.cls-2{clip-path:url(#clip-path);}.cls-3{fill:#fff;}.cls-4,.cls-5{stroke:#5b680e;stroke-linecap:round;stroke-miterlimit:10;}.cls-4{stroke-width:0.6px;}.cls-5{stroke-width:0.49px;}</style><clipPath id="clip-path" transform="translate(-127.66 -3.15)"><rect class="cls-1" width="1545.2" height="475.7"/></clipPath></defs><g id="Layer_2" data-name="Layer 2"><g id="Layer_1-2" data-name="Layer 1"><g class="cls-2"><g id="Layer_2-2" data-name="Layer 2"><g id="BANNER_1" data-name="BANNER 1"><path class="cls-3" d="M501.07,168.72c3-1.3,5.5-.9,8.7-1.1s6.2-.4,9,.3a5.24,5.24,0,0,1,4,3.6,5.06,5.06,0,0,1-1.4,4.5h0a9.21,9.21,0,0,1-4.3,2.4,46.67,46.67,0,0,1-10.5,1.5c-4.2.2-8.3.7-12.5.8a1.27,1.27,0,0,0-.6.1l-.3.3c-3.3,4.4-8.5,5.9-13.9,5a11.8,11.8,0,0,1-5.5-2c-2.6-1.9-3.7-5.1-4.6-8.2a86.77,86.77,0,0,1-11.4.2,12.6,12.6,0,0,1-4.3-.8,5.13,5.13,0,0,1-2.9-3.2,4.38,4.38,0,0,1,.7-3.3,7.77,7.77,0,0,1,4.9-3.2,24.25,24.25,0,0,1,6-.4l5.5.1c2-3.8,3.4-7.5,8.2-8.3,4.1-.7,8.6,1.6,10,5-.7-3.2,2.2-6.5,5.9-7.2a11,11,0,0,1,9.8,3.4,12.49,12.49,0,0,1,2.9,9.1" transform="translate(-127.66 -3.15)"/><path class="cls-3" d="M1225.07,39.72c3-1.3,5.5-.9,8.7-1.1s6.2-.4,9,.3a5.24,5.24,0,0,1,4,3.6,5.06,5.06,0,0,1-1.4,4.5h-.1a9.21,9.21,0,0,1-4.3,2.4,41.48,41.48,0,0,1-10.5,1.4c-4.2.2-8.3.7-12.5.8a1.27,1.27,0,0,0-.6.1l-.3.3c-3.3,4.3-8.6,5.9-13.9,5a11.8,11.8,0,0,1-5.5-2c-2.6-1.9-3.7-5.2-4.6-8.2a108.42,108.42,0,0,1-11.4.2,12.6,12.6,0,0,1-4.3-.8,4.73,4.73,0,0,1-2.8-3.2,4.38,4.38,0,0,1,.7-3.3,7.77,7.77,0,0,1,4.9-3.2,24.25,24.25,0,0,1,6-.4l5.5.1c2-3.8,3.4-7.5,8.2-8.3,4.1-.7,8.6,1.6,10,5-.7-3.2,2.2-6.5,5.9-7.2a11,11,0,0,1,9.8,3.4,12.49,12.49,0,0,1,2.9,9.1" transform="translate(-127.66 -3.15)"/><path class="cls-3" d="M1119.07,180.42c1.6-.7,3-.5,4.8-.6a20.1,20.1,0,0,1,4.9.1,2.85,2.85,0,0,1,2.2,1.9,2.67,2.67,0,0,1-.8,2.5h0a5.92,5.92,0,0,1-2.3,1.3,22.39,22.39,0,0,1-5.7.8c-2.3.1-4.5.4-6.8.5a.37.37,0,0,0-.3.1c-.1,0-.1.1-.2.2a7.64,7.64,0,0,1-7.6,2.7,6.42,6.42,0,0,1-3-1.1c-1.4-1-2-2.8-2.5-4.5a43,43,0,0,1-6.2.1,8.52,8.52,0,0,1-2.3-.4,2.7,2.7,0,0,1-1.6-1.7,2.32,2.32,0,0,1,.4-1.8,4.66,4.66,0,0,1,2.7-1.8,12.22,12.22,0,0,1,3.3-.2l3,.1c1.1-2.1,1.9-4.1,4.4-4.5a5.24,5.24,0,0,1,5.5,2.7c-.4-1.8,1.2-3.5,3.2-3.9a5.83,5.83,0,0,1,5.3,1.9,7,7,0,0,1,1.6,5" transform="translate(-127.66 -3.15)"/><path class="cls-3" d="M458.17,10.72c1.6-.7,3-.5,4.8-.6a20.1,20.1,0,0,1,4.9.1,2.85,2.85,0,0,1,2.2,1.9,2.67,2.67,0,0,1-.8,2.5h0a5.64,5.64,0,0,1-2.4,1.3,22.39,22.39,0,0,1-5.7.8c-2.3.1-4.5.4-6.8.5a.37.37,0,0,0-.3.1c-.1,0-.1.1-.2.2a7.64,7.64,0,0,1-7.6,2.7,6.42,6.42,0,0,1-3-1.1c-1.4-1-2-2.8-2.5-4.5a43,43,0,0,1-6.2.1,10,10,0,0,1-2.4-.4,2.7,2.7,0,0,1-1.6-1.7,2.32,2.32,0,0,1,.4-1.8,4.24,4.24,0,0,1,2.7-1.8,11.5,11.5,0,0,1,3.2-.2l3,.1c1.1-2.1,1.9-4.1,4.4-4.5a5.17,5.17,0,0,1,5.5,2.7c-.4-1.8,1.2-3.5,3.2-3.9a6.11,6.11,0,0,1,5.4,1.9,7,7,0,0,1,1.6,5" transform="translate(-127.66 -3.15)"/><path class="cls-3" d="M205.67,33.22c4.6-2,8.4-1.4,13.4-1.6s9.6-.6,13.9.4c2.8.7,5.5,2.7,6.2,5.5a7.86,7.86,0,0,1-2.1,7l-.1.1a14.49,14.49,0,0,1-6.6,3.7c-5.2,1.7-10.8,2-16.2,2.3-6.4.3-12.8,1.1-19.2,1.3a1.49,1.49,0,0,0-.9.2,1.21,1.21,0,0,0-.5.5c-5.1,6.7-13.2,9-21.5,7.7a18.23,18.23,0,0,1-8.5-3.1c-3.9-2.9-5.6-7.9-7.1-12.6a172.28,172.28,0,0,1-17.6.3,19.33,19.33,0,0,1-6.7-1.2,7.43,7.43,0,0,1-4.4-4.9,7,7,0,0,1,1-5.1,12,12,0,0,1,7.6-5,35.36,35.36,0,0,1,9.2-.6l8.5.1c3-5.8,5.3-11.5,12.6-12.7,6.3-1.1,13.3,2.4,15.4,7.7-1-5,3.4-10,9-11.1a16.55,16.55,0,0,1,15.1,5.3,18.76,18.76,0,0,1,4.4,14" transform="translate(-127.66 -3.15)"/><path class="cls-3" d="M1485,24.42c4.6-2,8.4-1.4,13.4-1.6s9.6-.6,13.9.4c2.8.7,5.5,2.7,6.2,5.5a7.86,7.86,0,0,1-2.1,7l-.1.1a14.49,14.49,0,0,1-6.6,3.7c-5.2,1.7-10.8,2-16.2,2.3-6.4.3-12.8,1.1-19.2,1.3a1.49,1.49,0,0,0-.9.2,1.21,1.21,0,0,0-.5.5c-5.2,6.7-13.2,9-21.5,7.7a18.23,18.23,0,0,1-8.5-3.1c-4-2.9-5.7-7.9-7.1-12.6a172.28,172.28,0,0,1-17.6.3,17.37,17.37,0,0,1-6.7-1.3,7.66,7.66,0,0,1-4.4-4.9,6.75,6.75,0,0,1,1-5,12,12,0,0,1,7.6-5,35.36,35.36,0,0,1,9.2-.6l8.5.2c3-5.8,5.2-11.5,12.6-12.8,6.3-1.1,13.3,2.4,15.4,7.8-1-4.9,3.4-10,9-11.1a16.8,16.8,0,0,1,15.1,5.3,18.76,18.76,0,0,1,4.4,14" transform="translate(-127.66 -3.15)"/><path class="cls-4" d="M194.37,76.52a26.32,26.32,0,0,0-12.8,5" transform="translate(-127.66 -3.15)"/><path class="cls-4" d="M177,85.32a22.84,22.84,0,0,1,2.2-2.2" transform="translate(-127.66 -3.15)"/><path class="cls-5" d="M185.67,216.72c2.5,1.6,5,3.4,7.5,5.1" transform="translate(-127.66 -3.15)"/><path class="cls-5" d="M194.57,223.22a9.51,9.51,0,0,1,2,1.5" transform="translate(-127.66 -3.15)"/><path class="cls-5" d="M1252.67,49.92c2.7,1.4,5.3,2.9,7.9,4.5" transform="translate(-127.66 -3.15)"/><path class="cls-5" d="M508.77,182.42c2.7,1.4,5.3,2.9,7.9,4.5" transform="translate(-127.66 -3.15)"/><path class="cls-5" d="M518.17,188.12a10.71,10.71,0,0,1,2.1,1.3" transform="translate(-127.66 -3.15)"/></g></g></g></g></g></svg>