<svg xmlns="http://www.w3.org/2000/svg" viewBox="0 0 22.82 9.95"><defs><style>.cls-1{fill:#fff;}</style></defs><g id="Layer_2" data-name="Layer 2"><g id="OBJECTS"><path class="cls-1" d="M6.87,4.38A7.13,7.13,0,0,0,4.14,4a9.76,9.76,0,0,0-2.83.09A1.66,1.66,0,0,0,0,5.25,1.55,1.55,0,0,0,.47,6.66l0,0a3.12,3.12,0,0,0,1.35.76,13.09,13.09,0,0,0,3.31.46c1.31.07,2.62.23,3.92.26a.65.65,0,0,1,.19,0l.1.1a4.44,4.44,0,0,0,4.38,1.58,3.82,3.82,0,0,0,1.74-.64,4.84,4.84,0,0,0,1.46-2.57,30.76,30.76,0,0,0,3.59.06,3.65,3.65,0,0,0,1.36-.25,1.5,1.5,0,0,0,.9-1,1.4,1.4,0,0,0-.21-1,2.49,2.49,0,0,0-1.54-1,7,7,0,0,0-1.89-.13l-1.73,0C16.8,2.15,16.35,1,14.86.74a3,3,0,0,0-3.15,1.58A2.15,2.15,0,0,0,9.86.05,3.41,3.41,0,0,0,6.78,1.13,3.9,3.9,0,0,0,5.87,4"/></g></g></svg>