<svg xmlns="http://www.w3.org/2000/svg" viewBox="0 0 30.1 13.13"><defs><style>.cls-1{fill:#fff;}</style></defs><g id="Layer_2" data-name="Layer 2"><g id="OBJECTS"><path class="cls-1" d="M9.07,5.77a9.49,9.49,0,0,0-3.61-.43,12.81,12.81,0,0,0-3.74.11A2.24,2.24,0,0,0,.05,6.92,2.06,2.06,0,0,0,.62,8.79l0,0a4.22,4.22,0,0,0,1.78,1,17.4,17.4,0,0,0,4.38.61c1.72.09,3.45.3,5.16.34a.51.51,0,0,1,.25.05.38.38,0,0,1,.14.14A5.84,5.84,0,0,0,18.13,13a5.16,5.16,0,0,0,2.29-.84A6.44,6.44,0,0,0,22.35,8.8a41.62,41.62,0,0,0,4.74.08,5.16,5.16,0,0,0,1.79-.33,2,2,0,0,0,1.18-1.32,1.85,1.85,0,0,0-.27-1.35,3.29,3.29,0,0,0-2-1.35,9.81,9.81,0,0,0-2.48-.17L23,4.4C22.17,2.84,21.57,1.31,19.6,1a3.9,3.9,0,0,0-4.16,2.08c.28-1.33-.93-2.69-2.43-3A4.5,4.5,0,0,0,8.94,1.49,5.11,5.11,0,0,0,7.75,5.26"/></g></g></svg>