<svg xmlns="http://www.w3.org/2000/svg" viewBox="0 0 42.82 18.67"><defs><style>.cls-1{fill:#fff;}</style></defs><g id="Layer_2" data-name="Layer 2"><g id="OBJECTS"><path class="cls-1" d="M12.9,8.21c-1.77-.76-3.22-.52-5.14-.62a18.58,18.58,0,0,0-5.31.16A3.15,3.15,0,0,0,.07,9.85a3,3,0,0,0,.81,2.66l0,0A6,6,0,0,0,3.45,14a25,25,0,0,0,6.22.86c2.45.13,4.91.44,7.35.49a.89.89,0,0,1,.36.07.91.91,0,0,1,.19.2,8.35,8.35,0,0,0,8.22,2.95,7.26,7.26,0,0,0,3.27-1.19c1.51-1.13,2.16-3,2.73-4.83a63.36,63.36,0,0,0,6.75.12,7.35,7.35,0,0,0,2.55-.48,2.85,2.85,0,0,0,1.68-1.87,2.69,2.69,0,0,0-.39-1.93,4.63,4.63,0,0,0-2.9-1.91A13.46,13.46,0,0,0,36,6.21l-3.25.06c-1.16-2.23-2-4.41-4.82-4.88a5.56,5.56,0,0,0-5.91,3C22.36,2.46,20.65.52,18.51.1a6.38,6.38,0,0,0-5.79,2A7.28,7.28,0,0,0,11,7.48"/></g></g></svg>