<svg xmlns="http://www.w3.org/2000/svg" viewBox="0 0 82.03 35.77"><defs><style>.cls-1{fill:#fff;}</style></defs><g id="Layer_2" data-name="Layer 2"><g id="OBJECTS"><path class="cls-1" d="M24.71,15.73c-3.39-1.45-6.16-1-9.84-1.19s-7-.47-10.17.31a6.06,6.06,0,0,0-4.57,4A5.67,5.67,0,0,0,1.69,24l.05.06a11.54,11.54,0,0,0,4.87,2.74C10.44,28,14.5,28.2,18.52,28.42c4.69.25,9.41.83,14.09.94a1.34,1.34,0,0,1,.68.13,1.27,1.27,0,0,1,.36.37c3.78,4.91,9.67,6.62,15.75,5.65a13.86,13.86,0,0,0,6.26-2.28c2.9-2.15,4.15-5.82,5.24-9.25a118.58,118.58,0,0,0,12.92.23,13.48,13.48,0,0,0,4.89-.92,5.4,5.4,0,0,0,3.22-3.57A5.08,5.08,0,0,0,81.18,16a8.88,8.88,0,0,0-5.54-3.66,26.52,26.52,0,0,0-6.78-.46L62.64,12c-2.23-4.26-3.85-8.43-9.22-9.34-4.65-.78-9.74,1.77-11.34,5.68C42.83,4.71,39.56,1,35.46.2A12.24,12.24,0,0,0,24.37,4.05a14,14,0,0,0-3.26,10.28"/></g></g></svg>