<svg xmlns="http://www.w3.org/2000/svg" viewBox="0 0 749.94 409.21"><defs><style>.cls-1{fill:#fff;}</style></defs><g id="Layer_2" data-name="Layer 2"><g id="OBJECTS"><path class="cls-1" d="M538.12,242.17c-3.4-1.46-6.16-1-9.85-1.2s-7-.46-10.17.31a6.06,6.06,0,0,0-4.56,4,5.63,5.63,0,0,0,1.55,5.09l.06.06a11.45,11.45,0,0,0,4.86,2.74,47.21,47.21,0,0,0,11.91,1.66c4.7.25,9.42.83,14.09.94a1.43,1.43,0,0,1,.68.13,1.45,1.45,0,0,1,.37.37c3.78,4.92,9.66,6.63,15.74,5.66a14,14,0,0,0,6.27-2.28c2.89-2.16,4.14-5.82,5.24-9.26a118.49,118.49,0,0,0,12.92.24,13.91,13.91,0,0,0,4.88-.92,5.39,5.39,0,0,0,3.22-3.58,5.07,5.07,0,0,0-.75-3.7,8.87,8.87,0,0,0-5.54-3.67,26.42,26.42,0,0,0-6.77-.46l-6.23.12c-2.22-4.27-3.85-8.44-9.22-9.34-4.65-.78-9.73,1.76-11.33,5.67.75-3.62-2.53-7.33-6.62-8.14a12.26,12.26,0,0,0-11.1,3.86,14,14,0,0,0-3.26,10.27"/><path class="cls-1" d="M297.4,334.63c-3.4-1.45-6.17-1-9.85-1.19s-7-.47-10.17.31a6.06,6.06,0,0,0-4.57,4,5.67,5.67,0,0,0,1.56,5.1l.06.06a11.45,11.45,0,0,0,4.86,2.74c3.83,1.22,7.89,1.44,11.91,1.66,4.69.25,9.41.83,14.09.94a1.32,1.32,0,0,1,.68.13,1.45,1.45,0,0,1,.37.37c3.77,4.91,9.66,6.62,15.74,5.65a13.82,13.82,0,0,0,6.26-2.28c2.9-2.16,4.15-5.82,5.24-9.25a118.72,118.72,0,0,0,12.93.23,13.47,13.47,0,0,0,4.88-.92,5.4,5.4,0,0,0,3.22-3.57,5.08,5.08,0,0,0-.75-3.71,8.88,8.88,0,0,0-5.54-3.66,26.49,26.49,0,0,0-6.78-.46l-6.22.11c-2.23-4.26-3.85-8.43-9.22-9.34-4.65-.78-9.73,1.77-11.34,5.68.75-3.63-2.52-7.34-6.62-8.14A12.24,12.24,0,0,0,297.05,323a14,14,0,0,0-3.26,10.28"/><path class="cls-1" d="M536,67c-2.53-1.08-4.58-.74-7.32-.88a26.08,26.08,0,0,0-7.55.23,4.49,4.49,0,0,0-3.39,3,4.17,4.17,0,0,0,1.16,3.78l0,0a8.45,8.45,0,0,0,3.61,2,35,35,0,0,0,8.84,1.23c3.49.19,7,.62,10.47.7a1,1,0,0,1,.5.1,1,1,0,0,1,.27.27c2.81,3.65,7.18,4.92,11.7,4.2A10.33,10.33,0,0,0,559,80c2.15-1.6,3.08-4.32,3.89-6.87a87.88,87.88,0,0,0,9.6.17,10.11,10.11,0,0,0,3.62-.68,4,4,0,0,0,2.4-2.66,3.84,3.84,0,0,0-.56-2.75,6.63,6.63,0,0,0-4.11-2.72,19.75,19.75,0,0,0-5-.34l-4.62.08c-1.65-3.17-2.86-6.26-6.85-6.93-3.45-.58-7.23,1.31-8.41,4.21.55-2.69-1.88-5.44-4.92-6a9.08,9.08,0,0,0-8.24,2.86,10.39,10.39,0,0,0-2.42,7.63"/><path class="cls-1" d="M203.74,216.46a9.49,9.49,0,0,0-3.61-.43,13.17,13.17,0,0,0-3.74.11,2.24,2.24,0,0,0-1.67,1.47,2,2,0,0,0,.57,1.87l0,0a4.22,4.22,0,0,0,1.78,1,17.39,17.39,0,0,0,4.37.61c1.73.09,3.46.3,5.17.34a.66.66,0,0,1,.25,0,.47.47,0,0,1,.14.14,5.84,5.84,0,0,0,5.78,2.07,5,5,0,0,0,2.29-.83,6.51,6.51,0,0,0,1.93-3.4,44.06,44.06,0,0,0,4.74.09,5,5,0,0,0,1.79-.34,2,2,0,0,0,1.18-1.31,1.86,1.86,0,0,0-.27-1.36,3.29,3.29,0,0,0-2-1.35,9.8,9.8,0,0,0-2.48-.16l-2.29,0c-.81-1.57-1.41-3.1-3.38-3.43a3.91,3.91,0,0,0-4.16,2.08c.28-1.33-.93-2.69-2.43-3a4.5,4.5,0,0,0-4.07,1.42,5.13,5.13,0,0,0-1.19,3.77"/><path class="cls-1" d="M130.82,403.64a7,7,0,0,0-2.74-.33,9.78,9.78,0,0,0-2.83.08,1.71,1.71,0,0,0-1.27,1.12,1.58,1.58,0,0,0,.43,1.42h0a3.14,3.14,0,0,0,1.35.77,13.69,13.69,0,0,0,3.31.46c1.31.07,2.62.23,3.92.26a.3.3,0,0,1,.19,0,.32.32,0,0,1,.1.1,4.44,4.44,0,0,0,4.38,1.57,4,4,0,0,0,1.75-.63,4.88,4.88,0,0,0,1.45-2.58,33.27,33.27,0,0,0,3.6.07,4,4,0,0,0,1.36-.26,1.51,1.51,0,0,0,.89-1,1.39,1.39,0,0,0-.21-1,2.43,2.43,0,0,0-1.54-1,7.38,7.38,0,0,0-1.88-.13l-1.73,0c-.62-1.18-1.08-2.34-2.57-2.6a3,3,0,0,0-3.15,1.58,2.12,2.12,0,0,0-1.84-2.26,3.39,3.39,0,0,0-3.09,1.07,3.91,3.91,0,0,0-.91,2.86"/><path class="cls-1" d="M369.89,117.65c-1.56-.67-2.82-.46-4.51-.55a16.19,16.19,0,0,0-4.65.14,2.78,2.78,0,0,0-2.09,1.84,2.58,2.58,0,0,0,.71,2.33l0,0a5.25,5.25,0,0,0,2.23,1.25,21.65,21.65,0,0,0,5.45.76c2.15.12,4.31.38,6.45.43a.66.66,0,0,1,.31.06.69.69,0,0,1,.17.17,7.3,7.3,0,0,0,7.2,2.59,6.31,6.31,0,0,0,2.87-1c1.32-1,1.9-2.66,2.4-4.23a55.51,55.51,0,0,0,5.91.11,6.54,6.54,0,0,0,2.24-.42,2.5,2.5,0,0,0,1.47-1.64,2.33,2.33,0,0,0-.34-1.7,4.1,4.1,0,0,0-2.54-1.67,11.91,11.91,0,0,0-3.1-.21l-2.85,0c-1-2-1.76-3.86-4.22-4.27a4.88,4.88,0,0,0-5.19,2.59c.35-1.66-1.15-3.35-3-3.72a5.58,5.58,0,0,0-5.07,1.76,6.36,6.36,0,0,0-1.49,4.7"/><path class="cls-1" d="M723.71,361.87c-1.55-.66-2.82-.46-4.5-.54a15.89,15.89,0,0,0-4.66.14,2.75,2.75,0,0,0-2.09,1.83,2.59,2.59,0,0,0,.71,2.34l0,0a5.23,5.23,0,0,0,2.22,1.26,22.26,22.26,0,0,0,5.46.76c2.14.11,4.3.38,6.44.43a.54.54,0,0,1,.31.06.55.55,0,0,1,.17.17,7.31,7.31,0,0,0,7.21,2.58,6.3,6.3,0,0,0,2.86-1c1.33-1,1.9-2.66,2.4-4.24a53,53,0,0,0,5.91.11,6.27,6.27,0,0,0,2.24-.42,2.45,2.45,0,0,0,1.47-1.64,2.31,2.31,0,0,0-.34-1.69,4.09,4.09,0,0,0-2.53-1.68,12.44,12.44,0,0,0-3.11-.21l-2.84.06c-1-2-1.77-3.87-4.22-4.28a4.88,4.88,0,0,0-5.19,2.6c.34-1.66-1.16-3.36-3-3.73a5.62,5.62,0,0,0-5.08,1.77,6.45,6.45,0,0,0-1.49,4.7"/><path class="cls-1" d="M78.32,67.76c-1.78-.76-3.22-.52-5.14-.62a18.57,18.57,0,0,0-5.31.16,3.15,3.15,0,0,0-2.38,2.1,3,3,0,0,0,.81,2.66l0,0a5.93,5.93,0,0,0,2.54,1.43,25,25,0,0,0,6.21.87c2.45.13,4.92.43,7.36.49a.68.68,0,0,1,.35.06,1,1,0,0,1,.2.2,8.32,8.32,0,0,0,8.21,3,7.22,7.22,0,0,0,3.27-1.19c1.51-1.13,2.17-3,2.74-4.83a60.65,60.65,0,0,0,6.74.12,7.09,7.09,0,0,0,2.55-.48,2.84,2.84,0,0,0,1.69-1.87,2.65,2.65,0,0,0-.4-1.93A4.61,4.61,0,0,0,104.9,66a14,14,0,0,0-3.54-.24l-3.24.06c-1.17-2.23-2-4.41-4.82-4.88a5.54,5.54,0,0,0-5.91,3c.39-1.9-1.32-3.83-3.46-4.26a6.38,6.38,0,0,0-5.79,2A7.29,7.29,0,0,0,76.44,67"/><path class="cls-1" d="M43.93,271.54c-6-2.58-11-1.78-17.5-2.12s-12.52-.83-18.08.55c-3.67.92-7.18,3.48-8.11,7.14-.81,3.19.51,6.65,2.76,9.05l.1.11a20.49,20.49,0,0,0,8.64,4.87c6.81,2.17,14,2.57,21.18,2.95,8.34.44,16.73,1.47,25,1.67a1.84,1.84,0,0,1,1.87.89c6.72,8.74,17.17,11.77,28,10.05,3.94-.61,7.93-1.67,11.13-4.05,5.14-3.84,7.36-10.35,9.31-16.45a212.16,212.16,0,0,0,23,.42A24.55,24.55,0,0,0,139.9,285a9.65,9.65,0,0,0,5.73-6.36,9,9,0,0,0-1.34-6.58c-2.12-3.43-5.92-5.55-9.84-6.51s-8-.89-12-.82l-11.06.21c-4-7.59-6.85-15-16.4-16.6-8.26-1.39-17.29,3.13-20.14,10.08,1.33-6.44-4.49-13-11.77-14.47s-15.12,1.7-19.71,6.85-6.2,11.81-5.8,18.27"/><path class="cls-1" d="M286,24.32c-5.25-2.25-9.52-1.55-15.22-1.85S259.88,21.75,255,23c-3.19.8-6.24,3-7,6.21a8.74,8.74,0,0,0,2.4,7.87l.09.09A17.74,17.74,0,0,0,258,41.36c5.92,1.88,12.21,2.23,18.41,2.56,7.26.39,14.56,1.28,21.78,1.45a2.09,2.09,0,0,1,1.05.21,2.06,2.06,0,0,1,.57.57c5.84,7.59,14.93,10.24,24.33,8.74a21.71,21.71,0,0,0,9.69-3.53c4.47-3.33,6.4-9,8.09-14.3a182.33,182.33,0,0,0,20,.36A21.17,21.17,0,0,0,369.43,36a8.34,8.34,0,0,0,5-5.53,7.85,7.85,0,0,0-1.16-5.72,13.72,13.72,0,0,0-8.56-5.66,40.35,40.35,0,0,0-10.48-.71l-9.61.17c-3.45-6.59-6-13-14.26-14.43-7.18-1.21-15,2.72-17.51,8.77C314,7.29,308.92,1.55,302.59.3a18.92,18.92,0,0,0-17.14,6,21.65,21.65,0,0,0-5,15.89"/></g></g></svg>