<svg xmlns="http://www.w3.org/2000/svg" viewBox="0 0 126.78 55.29"><defs><style>.cls-1{fill:#fff;}</style></defs><g id="Layer_2" data-name="Layer 2"><g id="OBJECTS"><path class="cls-1" d="M38.2,24.32C33,22.07,28.68,22.77,23,22.47S12.1,21.75,7.26,23c-3.19.8-6.24,3-7,6.21A8.74,8.74,0,0,0,2.61,37l.09.09a17.74,17.74,0,0,0,7.51,4.24c5.92,1.88,12.21,2.23,18.41,2.56,7.26.39,14.56,1.28,21.78,1.45a2.09,2.09,0,0,1,1.05.21,2.06,2.06,0,0,1,.57.57C57.86,53.74,67,56.39,76.35,54.89c3.43-.54,6.9-1.46,9.68-3.53,4.48-3.33,6.41-9,8.1-14.3a182.33,182.33,0,0,0,20,.36A21.17,21.17,0,0,0,121.65,36a8.34,8.34,0,0,0,5-5.53,7.85,7.85,0,0,0-1.16-5.72,13.72,13.72,0,0,0-8.56-5.66,40.38,40.38,0,0,0-10.48-.71l-9.61.17c-3.45-6.59-6-13-14.26-14.43-7.19-1.21-15,2.72-17.51,8.77C66.2,7.29,61.14,1.55,54.81.3a18.92,18.92,0,0,0-17.14,6,21.61,21.61,0,0,0-5,15.89"/></g></g></svg>