<svg xmlns="http://www.w3.org/2000/svg" viewBox="0 0 37.54 16.37"><defs><style>.cls-1{fill:#fff;}</style></defs><g id="Layer_2" data-name="Layer 2"><g id="OBJECTS"><path class="cls-1" d="M11.31,7.2c-1.56-.67-2.82-.46-4.51-.55a16.17,16.17,0,0,0-4.65.15A2.75,2.75,0,0,0,.06,8.63,2.58,2.58,0,0,0,.77,11l0,0A5.15,5.15,0,0,0,3,12.24,21.33,21.33,0,0,0,8.47,13c2.15.12,4.31.38,6.45.43a.78.78,0,0,1,.31.06.91.91,0,0,1,.17.17,7.31,7.31,0,0,0,7.21,2.59,6.42,6.42,0,0,0,2.86-1c1.33-1,1.9-2.67,2.4-4.24a55.51,55.51,0,0,0,5.91.11A6.27,6.27,0,0,0,36,10.66,2.45,2.45,0,0,0,37.49,9a2.31,2.31,0,0,0-.34-1.69,4.12,4.12,0,0,0-2.53-1.68,12,12,0,0,0-3.11-.21l-2.84,0c-1-1.95-1.77-3.86-4.23-4.27a4.87,4.87,0,0,0-5.18,2.6c.34-1.66-1.16-3.36-3-3.73a5.64,5.64,0,0,0-5.08,1.76A6.47,6.47,0,0,0,9.66,6.56"/></g></g></svg>