<svg xmlns="http://www.w3.org/2000/svg" viewBox="0 0 60.92 26.57"><defs><style>.cls-1{fill:#fff;}</style></defs><g id="Layer_2" data-name="Layer 2"><g id="OBJECTS"><path class="cls-1" d="M18.35,11.68c-2.52-1.08-4.57-.74-7.31-.88A26.08,26.08,0,0,0,3.49,11,4.49,4.49,0,0,0,.1,14a4.17,4.17,0,0,0,1.16,3.78l0,.05a8.45,8.45,0,0,0,3.61,2,35,35,0,0,0,8.84,1.23c3.49.19,7,.62,10.47.7a1.07,1.07,0,0,1,.5.1,1.15,1.15,0,0,1,.27.27c2.81,3.65,7.18,4.92,11.7,4.2a10.37,10.37,0,0,0,4.65-1.69c2.15-1.6,3.08-4.32,3.89-6.87a87.88,87.88,0,0,0,9.6.17,10.11,10.11,0,0,0,3.62-.68,4,4,0,0,0,2.4-2.66,3.84,3.84,0,0,0-.56-2.75,6.62,6.62,0,0,0-4.12-2.72,19.64,19.64,0,0,0-5-.34l-4.62.08C44.87,5.74,43.66,2.65,39.67,2c-3.45-.58-7.23,1.31-8.42,4.21.56-2.69-1.87-5.44-4.91-6A9.08,9.08,0,0,0,18.1,3a10.34,10.34,0,0,0-2.42,7.63"/></g></g></svg>