<svg xmlns="http://www.w3.org/2000/svg" viewBox="0 0 145.8 63.58"><defs><style>.cls-1{fill:#fff;}</style></defs><g id="Layer_2" data-name="Layer 2"><g id="OBJECTS"><path class="cls-1" d="M43.93,28c-6-2.58-11-1.78-17.5-2.12S13.91,25,8.35,26.4c-3.67.91-7.18,3.47-8.11,7.13-.81,3.19.51,6.65,2.76,9l.1.11a20.49,20.49,0,0,0,8.64,4.87c6.81,2.17,14,2.57,21.18,2.95C41.26,51,49.65,52,58,52.18a1.84,1.84,0,0,1,1.87.89c6.72,8.74,17.17,11.77,28,10,3.94-.61,7.93-1.67,11.13-4,5.14-3.84,7.36-10.35,9.31-16.45a212.16,212.16,0,0,0,23,.42,24.55,24.55,0,0,0,8.68-1.64A9.65,9.65,0,0,0,145.63,35a9,9,0,0,0-1.34-6.58c-2.12-3.43-5.92-5.55-9.84-6.51s-8-.89-12-.82l-11.06.21c-4-7.59-6.85-15-16.4-16.6C86.68,3.35,77.65,7.87,74.8,14.82,76.13,8.38,70.31,1.79,63,.35S47.91,2.05,43.32,7.2,37.12,19,37.52,25.47"/></g></g></svg>