<?xml version="1.0" encoding="utf-8"?>
<!-- Generator: Adobe Illustrator 25.3.1, SVG Export Plug-In . SVG Version: 6.00 Build 0)  -->
<svg version="1.1" id="Layer_1" xmlns="http://www.w3.org/2000/svg" xmlns:xlink="http://www.w3.org/1999/xlink" x="0px" y="0px"
	 viewBox="0 0 1716.3 562.3" style="enable-background:new 0 0 1716.3 562.3;" xml:space="preserve">
<style type="text/css">
	.st0{clip-path:url(#SVGID_2_);}
	.st1{fill:#FFFFFF;}
	.st2{fill:#799110;}
	.st3{fill:url(#SVGID_3_);}
	.st4{fill:#82A11B;}
	.st5{fill:url(#SVGID_4_);}
	.st6{fill:url(#SVGID_5_);}
	.st7{fill:#778E13;}
	.st8{fill:#91B31E;}
	.st9{fill:#1A6652;}
	.st10{fill:#19614F;}
	.st11{clip-path:url(#SVGID_7_);}
	.st12{fill:#108F6E;}
	.st13{fill:#124939;}
	.st14{fill:#FF9E10;}
	.st15{opacity:0.36;fill:#F27E0A;enable-background:new    ;}
	.st16{fill:#F27E0A;}
	.st17{fill:#A8E2D0;}
	.st18{fill:#F36089;}
	.st19{fill:#F7B000;}
	.st20{fill:none;stroke:#CC7E00;stroke-width:1.01;stroke-linecap:round;stroke-miterlimit:10;}
	.st21{fill:#D08E03;}
	.st22{fill:none;stroke:#A56102;stroke-width:0.69;stroke-linecap:round;stroke-miterlimit:10;}
	.st23{fill:#7C991A;}
	.st24{fill:none;stroke:#617410;stroke-width:1.6;stroke-linecap:round;stroke-miterlimit:10;}
	.st25{fill:none;stroke:#CC7E00;stroke-width:1.47;stroke-linecap:round;stroke-miterlimit:10;}
	.st26{fill:none;stroke:#778E13;stroke-width:1.08;stroke-linecap:round;stroke-miterlimit:10;}
	.st27{fill:#7B9719;}
	.st28{fill:none;stroke:#60720F;stroke-width:0.76;stroke-linecap:round;stroke-miterlimit:10;}
	.st29{fill:none;stroke:#778E13;stroke-width:0.91;stroke-linecap:round;stroke-miterlimit:10;}
	.st30{fill:none;stroke:#5B680E;stroke-width:1.03;stroke-linecap:round;stroke-miterlimit:10;}
	.st31{fill:none;stroke:#5B680E;stroke-width:0.67;stroke-linecap:round;stroke-miterlimit:10;}
</style>
<g id="Layer_2_1_">
	<g id="BANNER_2">
		<g>
			<defs>
				<rect id="SVGID_1_" y="-21.5" width="1716.3" height="583.8"/>
			</defs>
			<clipPath id="SVGID_2_">
				<use xlink:href="#SVGID_1_"  style="overflow:visible;"/>
			</clipPath>
			<g class="st0">
				<path class="st1" d="M1635.3,361.3c-38,31.3-36.6,99.6,3.1,129.1c-10.9-8.5-22.6-17.4-36.4-18.4c-16.3-1.2-31.5,9.1-41.9,21.8
					c-10.8,13.1-18,29.5-18.1,46.5c-2.9-16.6-18.8-29.9-35.7-29.7s-32.5,13.8-35.1,30.4c1.5-10-16.3-16.5-23.5-15.6
					c-10.4,1.4-21.3,12.7-25.4,21.7c-2-17.8-16.9-33.3-34.5-36.1c-17.7-2.8-36.6,7.5-43.9,23.8c-23.1-21.8-63.8-20.9-85.9,1.9
					c-14.6-18.5-45.4-21-62.7-5.1c-10.5-34.1-35-66.7-69.7-74.8c-18.8-4.4-39.6,1.2-54.6,13.1c-14.1,11.1-28.4,31-30.9,49
					c-5.2-16-22.6-27.1-39.3-25.2s-31.1,16.7-32.5,33.5c0.3-9.6-7.7-18.1-17.1-20.1c-9.3-2-19.2,1.6-26.6,7.7
					c-7.3,6.1-12.4,14.5-16.5,23.2c4.7-9.7-8.1-29-16.7-32.2c-11.1-4.1-24.2-0.1-32.7,8.1c4.5-10-1.8-22.9-12.1-26.7
					s-22.6,0.8-29.1,9.7c-2.8-16.2-18.2-27-34.4-24.2c-6.4,1.1-12.2,4.2-16.6,9c4.8-5.1-14.8-5-15.9-4.7c-7,2.1-13.3,7.5-14.2,15.1
					c-3.8-7.9-14.6-10.1-22.8-7.1c-8.2,3-14.3,9.8-20.1,16.3c0.8-10.6-11.9-18.4-22.3-16.1c-10.4,2.3-17.6,11.6-22.7,20.4
					c-13.5-10.2-20.1,1.3-29,10c-8.2-21.9-68.2-27.1-63.3-9.8c-7.2-25.7-36.6-42.7-62.4-36.2c2.2-19.6,2.2-41.1-9.1-57.3
					c-11.3-16.2-37.8-22.7-51-8c-9.5-35.6-46.2-59.3-83-62.2c-36.8-2.8-72.9,11.7-104.1,31.3c-58.4,37-103.5,91.7-128.7,156
					c-6.2,15.9-11.1,33.6-5.3,49.7c5,14,17.3,24,29.6,32.3c74.3,50,168.2,62.4,257.5,56.4c89.3-6,176.5-28.7,264.8-43.5
					C930,580,1202,608.7,1468.4,647.7c82.4,12.1,172.8,23.5,243.3-20.8c52.5-33.1,84.7-96.2,80.6-158.2
					C1787.6,398.3,1711.6,298.3,1635.3,361.3z"/>
				<path class="st2" d="M824.1,418c-8.1-1.6-19.5,4.3-21.6,12.3c-0.7,2.7-0.8,5.7-2.2,8.2c-1.2,2.1-3.3,3.5-4.9,5.3
					c-4.1,4.7-4.3,12.2-0.9,17.5c3.6,5.3,9.6,8.3,16,8.1c5.1-0.1,10.1-2.2,15.2-2.3c6.1-0.2,12.8,2.2,18.1-1.1
					c3.6-2.3,5.2-6.7,6-10.8c0.6-3,1-6.4-0.3-9.2c-2.1-4.7-7.8-6.5-11.2-10.3c-2.6-2.9-3.8-6.8-5.6-10.3
					C830.9,421.8,828.1,418.4,824.1,418"/>
				
					<linearGradient id="SVGID_3_" gradientUnits="userSpaceOnUse" x1="642.5416" y1="-16.2269" x2="642.5416" y2="83.7726" gradientTransform="matrix(1 0 0 -1 180.87 528.52)">
					<stop  offset="0" style="stop-color:#4F291A"/>
					<stop  offset="1" style="stop-color:#794E25"/>
				</linearGradient>
				<path class="st3" d="M812.3,452.9c0,0,4.6,12.6,5.4,23.8c0.8,10.7-1.8,66.8-1.8,66.8h13.4c0,0-2.6-50.7-2.1-69.3
					c0.2-8.3,7.4-26.9,7.4-26.9l-2.4-1.5c0,0-3.4,13.8-5.4,16.5c-2.1,2.7-2.7-10.6-2.7-10.6h-1.7c0,0,0.8,11-1.5,12.2
					c-2.3,1.2-6.3-11.4-6.3-11.4L812.3,452.9z"/>
				<path class="st4" d="M818.9,426.5c-6.5,3.9-8.5,12.3-4.6,18.7c0.5,0.9,1.2,1.7,1.9,2.5c1,1,2.2,1.9,3.3,2.8l7.3,5.5
					c1.8,1.6,4,2.7,6.4,3.3c1.2,0.2,2.5,0.1,3.7-0.1c4.7-0.7,9.5-2.9,11.7-7.1c1.5-3,1.5-6.5,1.5-9.8c0-3.1-0.1-6.2-1.3-9.1
					c-1.5-3.2-4.1-5.7-7.3-7.1c-3.2-1.4-6.6-2.2-10-2.3c-3.5-0.4-7,0.1-10.2,1.5"/>
				<path class="st2" d="M920.6,471c-5.9-1.2-14.3,3.2-15.8,9c-0.5,2-0.6,4.2-1.6,6c-0.9,1.5-2.4,2.5-3.5,3.9
					c-2.9,3.7-3.2,8.8-0.7,12.8c2.6,3.9,7,6.1,11.7,5.9c3.8-0.1,7.4-1.6,11.1-1.7c4.5-0.1,9.4,1.6,13.2-0.8c2.6-1.7,3.8-4.9,4.4-7.9
					c0.6-2.2,0.6-4.6-0.2-6.7c-1.5-3.4-5.7-4.8-8.2-7.5c-1.9-2.1-2.8-5-4.1-7.5C925.6,473.7,923.5,471.2,920.6,471"/>
				
					<linearGradient id="SVGID_4_" gradientUnits="userSpaceOnUse" x1="739.1729" y1="-35.1761" x2="739.1729" y2="37.9702" gradientTransform="matrix(1 0 0 -1 180.87 528.52)">
					<stop  offset="0" style="stop-color:#4F291A"/>
					<stop  offset="1" style="stop-color:#794E25"/>
				</linearGradient>
				<path class="st5" d="M911.9,496.5c2,5.6,3.3,11.5,4,17.4c0.6,7.8-1.3,48.9-1.3,48.9h9.8c0,0-1.9-37.1-1.6-50.7
					c0.2-6.1,5.4-19.7,5.4-19.7l-1.8-1.1c0,0-2.5,10.1-4,12.1s-2-7.8-2-7.8h-1.3c0,0,0.6,8-1.2,8.9s-4.7-8.3-4.7-8.3L911.9,496.5z"
					/>
				<path class="st4" d="M916.7,477.2c-4.7,2.8-6.2,9-3.4,13.7c0.4,0.7,0.9,1.3,1.4,1.8c0.8,0.7,1.6,1.4,2.5,2l5.4,4
					c1.3,1.2,2.9,2,4.7,2.4c0.9,0.1,1.8,0.1,2.7,0c3.4-0.5,6.9-2.1,8.5-5.2c1.2-2.2,1.2-4.7,1.1-7.2c0.1-2.3-0.2-4.5-1-6.6
					c-1.1-2.3-3-4.1-5.3-5.2c-2.3-1-4.8-1.6-7.4-1.7c-2.5-0.3-5.1,0.1-7.5,1.1"/>
				<path class="st2" d="M1006.5,499.5c-5-1-12.2,2.7-13.5,7.7c-0.4,1.7-0.5,3.6-1.4,5.1c-0.9,1.2-1.9,2.3-3,3.3
					c-2.5,3.1-2.7,7.5-0.6,10.9c2.2,3.3,6,5.2,10,5c3.2-0.1,6.3-1.4,9.5-1.5c3.8-0.1,8,1.4,11.3-0.7c2.2-1.4,3.2-4.2,3.7-6.7
					c0.5-1.9,0.5-3.9-0.2-5.7c-1.3-2.9-4.8-4.1-7-6.4c-1.6-1.8-2.3-4.2-3.5-6.4C1010.6,501.8,1008.9,499.7,1006.5,499.5"/>
				
					<linearGradient id="SVGID_5_" gradientUnits="userSpaceOnUse" x1="825.1678" y1="-49.8754" x2="825.1678" y2="12.4011" gradientTransform="matrix(1 0 0 -1 180.87 528.52)">
					<stop  offset="0" style="stop-color:#4F291A"/>
					<stop  offset="1" style="stop-color:#794E25"/>
				</linearGradient>
				<path class="st6" d="M999.1,521.2c1.7,4.8,2.8,9.8,3.4,14.8c0.5,6.7-1.1,41.6-1.1,41.6h8.3c0,0-1.6-31.5-1.3-43.2
					c0.1-5.2,4.6-16.7,4.6-16.7l-1.5-0.9c0,0-2.1,8.6-3.4,10.3c-1.3,1.7-1.7-6.6-1.7-6.6h-1.1c0,0,0.5,6.9-1,7.6
					c-1.5,0.8-3.9-7.1-3.9-7.1L999.1,521.2z"/>
				<path class="st4" d="M1003.2,504.8c-4,2.4-5.3,7.6-2.9,11.6c0.3,0.6,0.7,1.1,1.2,1.6c0.6,0.6,1.3,1.2,2.1,1.7l4.6,3.4
					c1.1,1,2.5,1.7,4,2.1c0.8,0.1,1.6,0.1,2.3,0c2.9-0.4,5.9-1.8,7.3-4.4c0.8-1.9,1.1-4,0.9-6.1c0.1-1.9-0.2-3.8-0.8-5.7
					c-0.9-2-2.5-3.5-4.5-4.4c-2-0.9-4.1-1.4-6.2-1.4c-2.2-0.2-4.4,0.1-6.4,0.9"/>
				<path class="st7" d="M977.1,568.1h-20.7c0,0,1.7-8.6,3.7-18l4-5.5l-3.4,2.9c2.3-10.3,4.8-20.7,5.8-20.9
					c1.4-0.4,5.7,18.8,8.4,31.2l-4.9-2.7l5.2,4.3C976.4,564.5,977.1,568.1,977.1,568.1z"/>
				<path class="st7" d="M887.6,532.6h-35.3c0,0,2.9-14.7,6.4-30.7l6.9-9.5l-5.8,4.9c3.9-17.6,8.2-35.3,10-35.7
					c2.4-0.6,9.8,32,14.3,53.3l-8.3-4.6l8.9,7.3C886.3,526.4,887.6,532.6,887.6,532.6z"/>
				<path class="st7" d="M801.1,506H786c0,0,1.2-6.3,2.7-13.1l2.9-4l-2.5,2.1c1.7-7.5,3.5-15.1,4.3-15.3c1-0.3,4.2,13.7,6.1,22.8
					l-3.5-2l3.8,3.1C800.6,503.3,801.1,506,801.1,506z"/>
				<path class="st7" d="M852.3,521.2h-15.2c0,0,1.2-6.3,2.7-13.1l2.9-4l-2.5,2.1c1.7-7.5,3.5-15.1,4.3-15.2
					c1-0.3,4.2,13.7,6.1,22.7l-3.5-2l3.8,3.1C851.7,518.5,852.3,521.2,852.3,521.2z"/>
				<path class="st8" d="M1176.3,646.5H267.8c0,0,161.6-178.7,281.9-199.2c51.5-8.8,271.8,50.9,356.6,81.3
					C1041.4,577,1176.3,646.5,1176.3,646.5z"/>
				<circle class="st9" cx="219.8" cy="354.4" r="322"/>
				<path class="st10" d="M284.6,579.8C125.6,579.8-3.3,450.9-3.3,292c0-103.5,55.5-199,145.4-250.2
					C1.8,76.6-102.2,203.3-102.2,354.4c0,177.8,144.2,322,322,322c146.9,0,270.8-98.4,309.5-232.8
					C476.8,528.3,384.2,579.8,284.6,579.8z"/>
				<g>
					<defs>
						<circle id="SVGID_6_" cx="219.8" cy="354.4" r="322"/>
					</defs>
					<clipPath id="SVGID_7_">
						<use xlink:href="#SVGID_6_"  style="overflow:visible;"/>
					</clipPath>
					<g class="st11">
						<path class="st12" d="M159.1,139.5c4.4,0,9.2,2.1,9.8,4.6c1,3.7,1.8,6.9-2.7,10.5s-4.2,2.9-9.1,3.6c-3.5,0.5-6.9,1.6-9.2,1.6
							c-0.8,0.1-1.5-0.1-2.1-0.6c-1.9-1.5-2.5-7.5-3.3-12s-0.9-4.2,1.4-5.1c0.2-0.1,0.4-0.1,0.6-0.1c0.7,0,1.2,0.6,1.6,1.2
							c0.4,0.7,1.2,1.1,2,1.2c0.4,0,0.8-0.1,1.2-0.2c3.4-1.2,4.4-3.2,4.4-3.3C155.3,139.9,157.2,139.4,159.1,139.5z"/>
						<path class="st12" d="M668.4,377.4c-0.3,0.6-0.6,1.3-0.9,2.3c-1.5,4.2-2.2,6-3.7,6.4c-1.4,0-0.5-2.2-1.7-3.8
							c-1.2-1.5-2.3-7.3-3-10.4c-0.6-3.2-1.6-6.3-2.8-9.2c-1.2-0.7-1.4,1.2-1.8,3.3c-0.3,1.3-0.2,2.7,0.2,4c0.3,1,0.7,2,0.9,3.1
							c0.5,2,0.3,3.1-0.4,3.8c-0.2,0.2-0.4,0.3-0.6,0.5c-0.7-0.3-1.5-0.5-2.3-0.6c-2.8,0.2-2.7-0.6-4.6-1.7
							c-2.3-1.3-0.9-2.4-2.1-2.5c-0.7,0.1-1.4,0.4-1.9,0.8c-0.7,0.4-1.4,0.7-2.2,0.8c-2.8-1.4-2.8-7-4.2-9.3
							c-0.5-1.1-1.6-1.7-2.8-1.6c-3.8,0-4.1,2.5-4,6.8c0,0.5,0,1.1,0.1,1.6c0.4,2.3,1.8,1.5,1.9,3c0,1.4-0.1,2.7-0.4,4.1
							c-0.3,1.8-0.8,3.6-1.3,5.3c-1.2,3.8-4.1,4.2-5.3,8.1c-1.2,3.9-1.9,6.9-4.4,7.1c-0.7,0.1-1.4-0.3-1.5-1c-0.3-1-0.1-2.8,0-5.2
							l0,0c0-0.5,0-1,0-1.6c0.1-5.1-0.7-9.2-1.8-14.7c-0.1-0.7-0.2-1.5-0.3-2.3c-0.4-5.4,0.8-12.4,1.4-13.6c0.7-1.4,4.2-2.2,6.5-4.4
							c0.4-0.4,0.7-0.7,0.9-1.2c1.3-2,0.9-4.2-0.9-6.1c-2.2-2.3-2.6-2.4-3.7-6.3c-1-3.6-0.9-7.3-2.3-7.3c-2.1,0.9-1.4,1.9-0.8,5.4
							c0.1,0.5,0.2,1.1,0.3,1.8c0.3,2.1,0.1,2.7-0.3,2.9c-0.4,0.2-1.5-0.2-2.5,1c-0.4,0.5-1,0.8-1.6,0.8c-1.7,0-3.8-1.9-5.5-4.5
							c-2.3-3.6-1.2-7-3.8-10.7s-11.3-13.3-14.4-13.3c-3.1,0.7-2,2.7-4,3.6s-3,0.5-1,4.8c0.1,0.2,0.2,0.3,0.2,0.5
							c2,4.3,5.8,10.6,8.3,15.7c0.9,1.9,1.5,2.6,1.9,2.6c3.6-1.2,2.6,2.6,3.7,14.9c0.5,4.3,0.7,8.7,0.6,13.1c-0.2,2.7-0.5,5.4-0.9,8
							c-0.9,6.1-3.9,12.6-2.7,16.5c0.1,0.4,0.3,0.9,0.6,1.2c2.5,3.6,3.9,6.5,2.7,9.9c0,0,0,0,0,0.1c-0.7,2.1-1.6,2.8-2.3,2.8
							c-0.5,0-1-0.3-1.3-0.7c-0.3-0.4-0.7-0.6-1.1-0.5c-1,0-2.2,1-1.9,3.3c0.4,3.3-1.9,3.7-4.9,7.3c-3,3.6-1.2,3.4-1.5,7.3
							c-0.1,0.6-0.1,1.2-0.2,1.7c-0.4,2.3-1.1,2.6-2.9,4.2c-0.5,0.6-1.2,1-2,1c-1,0-2-0.7-4-1.2c-3.2-0.7-0.4-2.8-2.3-3.7
							c-3.5,0.2-4.1-0.2-4.8-1.8c-1.5-3.6-1.9-5.8-4.2-5.9c-2.3-0.1-1.9,4-3.7,4.8c-1,0.4-1.5,1.2-1.9,1.2c-0.4,0-0.7-0.5-1.3-2.3
							c-0.1-0.3-0.2-0.7-0.3-1c-0.8-3.6,0.5-7.8,1.5-10.3c0.3-0.9,1.2-1.5,2.2-1.4c0.5,0,1,0.1,1.6,0.1c0.5,0.1,1.1,0.1,1.6,0.1
							c0.4,0,0.9-0.1,1.3-0.2c0.5-0.2,1-0.3,1.5-0.5c0.3,0,0.2,0.3,1.3,0.8c1.7,0.8,1.9,2.3,4.8,2.3c1.7-0.1,2.3-0.1,2.9-0.1
							c5.3-0.1,5.6-0.4,7.6-6.7c0,0,0-0.1,0-0.1c2-6.2,0.2-2.8,0-4.9c-0.1-0.9-0.3-1.6-0.4-2.3c-0.2-1.4-0.2-2.9-0.1-4.4
							c0.3-3.9,0.9-2.2,2.5-4.2c1.7-1.8,2.8-4.2,3.2-6.7c0.5-3,0-3.6,0.3-8.4c0.3-4.8,1.1-4.6,1.9-8.8c0-0.1,0-0.1,0-0.2
							c0.8-4,0.5-5.4-1.1-5.4c-1.9,0.1-1,4.3-3,8.3c-2,4-2.9,2.3-5.6,8.4c-1.4,3.1-2.9,3.9-4.7,3.9c-1.8,0-3.5-0.7-5.8-0.8
							c-0.6,0-1.2,0-1.6,0c-2.9,0-2.4,0.6-4.2,0.7c-2.1,0.1-2.6,2.1-2,6.4c0,0,0,0.1,0,0.1c0.2,1.6,0.2,3.2,0,4.8
							c-0.3,1.8-0.5,3.6-0.6,5.5c-0.2,5.2-0.5,2.3-2.7,6.3c-1.2,2.1-1.8,2.7-2.7,2.7c-0.9,0-1.7-0.4-3.4-0.6c-0.5,0-1-0.2-1.5-0.4
							c-1.3-0.8,0.1-2.6,0-5.4c-0.1-3.4,1.2-3,2.7-7.1c0.1-0.2,0.2-0.5,0.3-0.7c1.8-5-0.8-3.6-2.7-6.2c0,0-0.1-0.1-0.1-0.1
							c-1.7-2.3-0.9-1.4,0.7-7.2c0-0.1,0.1-0.3,0.1-0.5c1.7-6.5-0.4-3.7-2.1-4.9c-1.7-1.2-3-1.5-4-4.9s1.5-3.8-1.2-4.4
							c-2.9,0-3.9,2.8-5.5,7.9c-0.8,2.5-0.5,3.5,0.3,4.1s2.4,1.1,3.7,3.2c2.3,3.9,1.5,1.6,0.3,4.8c0,0.1-0.1,0.2-0.2,0.4
							c-0.4,0.8-0.8,1-1.3,1c-2.2-0.2-2.8,0.1-3.4,1.2c-0.7,1.7-0.8,3.6-0.2,5.4c0.5,2.1,1.4,4.5,2.1,7.6c0.9,3.9,1,4.9,0.4,6.7
							c-0.4,1-0.9,2.3-1.8,4.4c-2.2,6-3,6.9-5.3,9.1c-2.3,2.2-5.6,2.2-7.4,3s-3.4,2-6.3,2c-4.6-0.5-9.1-1.9-13.2-4
							c-0.4-0.3-0.9-0.4-1.4-0.5c-1.6,0-1.1,3.1-1.9,6.1c-1,3.6-1.8,3.8-4.6,4c-0.7,0.1-1.3-0.3-1.6-0.9c-0.7-1.2-0.2-3.7,0.2-6.3
							c0.2-1.5,1-2.8,2.3-3.6c0.6-0.4,1-1,0.9-1.8c0-1.9,1.1-3.2-0.9-3.2c-0.6,0-1.2,0.1-1.7,0.2c-3.4,0.4-5.9,3.5-5.5,7
							c0,0.4,0.1,0.8,0.3,1.2c0.1,0.2,0.1,0.4,0.2,0.6c1,3.3,0.8,7,1.8,13.4c0.1,0.6,0.2,1.2,0.2,1.6c0.2,1,0.1,2-0.3,2.9
							c-0.6,1.1-1.8,1.3-2.6,4.1c-1.4,4.7-2.7,4.8-4.7,6.2c-1.4,0.4-1.6,0.1-1.9-0.3c-0.4-0.4-0.9-0.7-1.5-0.7
							c-3.4,0.6-1.6,1.8-3.7,2.9c-0.5,0.3-1.1,0.4-1.6,0.4c-1.1,0-2.1-0.5-2.7-1.4c-0.1-0.1-0.2-0.3-0.3-0.4c-1-1.4-0.5-2.2,0.8-5.7
							c0,0,0-0.1,0-0.2c1.3-3.7,0-3.6-1.3-8.3c0,0,0,0,0-0.1c-1.3-4.7-0.4-4.7-1.3-6.3c-1.2-0.5-1.8,1.6-2.9,3.2
							c-0.7,0.9-1.3,1.9-1.9,3c-0.8,1.7-1.1,3.7-0.9,5.5c0,0.5,0.1,1.2,0.1,1.7c0.4,4.5,1.1,9,2,13.4c0.9,3.3,0.5,2.2-0.3,3.8
							c0,0.1-0.1,0.2-0.1,0.3c-0.8,2.1-0.6,4.3-1.4,7.9c-0.8,3.6-0.5,2.6-2.5,3.3s-1.3,1.2-2.3,5.2c-0.4,1-0.2,2.1,0.4,3
							c0.7,0.9,1.8,1.2,1.9,2.7c0,1.1-0.3,2.2-0.9,3.1c-0.6,0.9-1.3,1.8-2.3,3.2c-2,3-2.2,1.8-0.6,3c0.4,0.3,0.8,0.7,1.2,1.2
							c1.4,1.8,2.8,3.7,4,5.7c1.6,2.3,1.6,0.7,4.6,2.8c3,2.2,1.9,1.6,2.5,3.8c0.4,1.2,0.3,2.4-0.3,3.5c-0.3,0.7-0.7,1.4-1.2,2.5
							c-0.7,1.7-1.2,2.3-1.7,2.3s-0.9-0.4-1.5-0.9c-1.5-1.2-2.9-2.6-4-4.1c-0.8-1.6-2.1-2.8-3.7-3.4c-2.7-1.2-3.6-4.2-5.1-6.3
							c-0.2-0.3-0.5-0.6-0.6-1c-0.5-1-0.4-1.8-0.2-3.5c0.1-0.6,0.2-1.4,0.3-2.3c0.4-4.1-0.2-1.3-2-5c-1.1-2.8-1.7-5.7-1.9-8.7
							c-0.2-1.9-0.1-3.8,0.1-5.6c0.2-1.3,0.5-2.2,0.7-3.2c0.3-1.5,0.3-3.1,0-4.7c0-0.1,0-0.3-0.1-0.4c0-0.2,0-0.5,0-0.7
							c-0.3-2.5,0.5-2.5-0.1-5.6c-0.6-3.2-1.4-6.4-2.5-9.5c-0.2-0.7-0.6-1.3-1-1.9c-1.4-1.8,2.2-4.6,4.5-4.6c2.3,0,3.7,1.6,4.8,5.3
							c0.7,2.3,1.1,4.7,1.2,7.1c0.8,0.4,1.9-1.4,2.6-3.3c0.3-0.8,0.4-1.5,0.4-2.3c-0.2-1.8-0.6-3.6-1.2-5.3
							c-0.3-1.1-0.4-2.2-0.3-3.3c0.2-3.1,1.3-1.8,2-5.1c0-0.2,0.1-0.4,0.1-0.6c0.7-4.1,1.7-6.2,3.7-13.6c0.3-0.9,0.5-1.8,0.6-2.7
							c1-5.3-0.7-6.9-2.3-7.7c-1.6-0.9-2.6,0.4-3.3-2c-0.1-0.3-0.2-0.7-0.3-1.2c-0.5-2.8,0.9-5.2,1.5-8c0.3-1.4,0.4-2.8,0.1-4.2
							c-0.9-4.9-2-13-3.9-15c-1.9-2-6-2.6-9.3-2.8c-3.4-0.2-1.6,2.1-4.1,4.3c-2.5,2.2-6,2.9-9.8,3.6c-3.8,0.7-1,1.3-3.6,3
							c-0.6,0.4-1.2,0.7-1.9,0.7c-2.2-0.2-2.8,0-3.7,0.5c-2.7,1.7-0.8,6.8-2.3,9.9c-1.4,3-2.1,1-2.9,4.8c-0.3,1.2-0.1,2.5,0.4,3.6
							c0.8,1.4,1.9,2.7,3.2,3.8c1.1,1.2,0.5,2.7-0.1,4.9c-0.4,1.2-0.7,2.5-0.8,3.8c-0.3,4.2-1.4,4.2-4.3,4.5c-2.3,0-3.4-2.6-3.8-5.7
							c-0.1-1-0.2-2.1-0.2-3.1c0-1.2,0.2-2.4,0.7-3.5c0.5-1.2,1.2-1.7,0.6-3.6c-0.3-1-0.5-1.4-0.7-1.4c-0.5,0-1,1.7-2.1,3
							c-0.6,0.7-1,1.2-1.3,1.2c-0.7,0-1.2-1.6-2.5-5.8c-0.4-1.4-0.8-2.7-1-4.1c-0.5-3.1,0.1-4.7,0.2-7.8c0-0.5,0-1,0.1-1.4
							c0.2-3.2,0.4-4.7-1.2-10.4c-0.6-2.3-1.1-3.5-1.3-4.4c-0.5-1.7-0.5-2,0-5.2c0.3-2,0.8-4.1,1.1-6c0.4-2.7,0.4-5-0.7-6.2
							c-0.3-0.4-0.8-0.6-1.3-0.7c-2.6,0.5-3.2,0.3-4-0.6c-2.5-2.7-5-9.1-5.2-14.3c-0.2-5.2-0.2-5.4-2.5-7.3
							c-0.5-0.4-1.1-0.7-1.8-0.7c-0.8,0.1-1.5,0.2-2.2,0.5c-0.9,0.2-1.8,0.4-2.8,0.4c-0.7,0-1.5-0.1-2.2-0.3
							c-2.3-0.6-4.6-1.4-6.7-2.6c-2.5-1.2-2-3.4-3.9-6.9c-1.9-3.6-3.8-3.9-8.3-6.3s-4.7-1.3-8.3-4.6c-3.6-3.4-3.3-6.7-4.5-10.4
							c-0.6-1.9-3.6-2.1-4.3-0.2c-0.9,2.4-0.5,3.2,0.2,4.5c0.6,1.1,1.1,2.2,1.4,3.4c0.8,3,0.2,3.6,0.1,5.4c-0.1,1,0,2.1,0.1,3.1
							c0,0.1,0,0.3,0.1,0.4c0.4,2.7,1.2,3.3,3.2,3.3c1.2,0,2.8-0.2,4.9-0.3c5.5,0,3.6,1.5,7.5,2.5c0.6,0.2,1.2,0.3,1.8,0.3
							c1.3-0.2,1.5,0.2,3,1.8c3.2,3.6,2.3,5.2,4.3,9.3c1.2,2.5,0.7,3.4-0.2,4.4c-0.8,0.7-1.4,1.6-2,2.5c-1.7,3.1-5.7,9.3-9.5,11.1
							c-3.9,1.9-8.2,2.9-12.5,2.9c-5.3,0.1-3.5,3.1-9.3,3.4c-2.2,0-4.5-0.2-6.7-0.7c-1.5-0.4-3-0.7-4.6-0.8c-0.7,0-1.3,0.1-1.9,0.5
							c-2.5,1.6-4.4,2.7-3.5,5.8c0.2,0.8,0.3,1.3,0.4,1.7c0.2,1.2,0.1,1,1.2,1.8c1.1,0.8,4.1,1,6.9,1c1.1,0,2.1,0,3-0.1
							c2.5-0.1,3.6-2.8,4.8-2.8c0.4,0,0.7,0.2,1.1,0.8c1.8,2.5,2.2,1.2,3.4,5.2c0.5,1.3,0.4,2.7-0.3,3.9c-1.1,1.9-3.6,4.1-7.8,8.7
							c-6.6,7.3-4.2,6.7-8.7,8.4c-4.5,1.7-3.5,1-8.2,3s-9.3,9.1-12.9,12.8c-3.6,3.6-4.7,7.3-3.8,11c0,0,0,0,0,0.1
							c0.4,2.1,0.5,4.2,0.4,6.3c0,0.6,0,1.3,0,1.9c-0.1,4.2-0.5,9-0.6,12.2c-0.2,5.6,0,5.6-2.7,10.3c-1.9,3.4-3.1,4.3-5.2,4.3
							c-0.9,0-1.9-0.1-2.8-0.3c-0.4-0.1-0.8-0.1-1.2-0.1c-2.7,0-2.1,2.2-4.5,5.7c-2.7,4-1.6,8.7-2.6,13s-3.6,3.9-5.7,4.2
							c-2.1,0.3-0.3,6.7-2.3,9.1s-4.8,6.4-8,7.9s-2.6,2.8-6.3,4.6c-3,1.5-5,2.9-8.7,2.9c-1,0-1.9-0.1-2.9-0.2
							c-5.7-0.9-5.8-1.3-7.4-3.8c-0.2-0.3-0.3-0.6-0.5-0.9c-0.3-1.2-0.4-2.4-0.1-3.6c0.2-1.4,0.2-2.9,0.1-4.3
							c-0.4-5.4-3.2-11-5-13.6c-1.7-2.6-1.6-10.3-1.7-14c0-3.7-2.1-6.2-4.7-9.6c-2.3-3.1-2.1-4.5-2.5-7.5c0-0.4-0.1-0.7-0.2-1.1
							c-0.6-3.9,1.4-6.7,1.2-9.3c-0.2-2.5,3.6-4.8,5.3-6.5c0.2-0.2,0.3-0.3,0.4-0.5c0.7-0.8,0.8-1.9,0.4-2.8c-0.4-1-1-1.9-1.6-2.7
							c-1.5-2.4-1.3-9.9-1.9-13.3c-0.5-3.4,0-4.3-1.8-6.4c-2.6-3.4-4.9-7-6.8-10.9c-0.1-0.2-0.1-0.4-0.2-0.6c-0.6-2.3,0.5-6,1.2-7.7
							s1.3,0.2,2.1-2.6c0.1-0.1,0.1-0.3,0.1-0.4c0.8-3.3-0.5-7.5-3-7.8c-1.3,0.1-2.6,0.4-3.8,0.9c-1,0.5-2.1,0.8-3.2,0.9
							c-2.6-1.3-2.9-4.4-4.4-8.2c-0.7-1.9-1.5-2.3-2.6-2.3c-0.5,0-1.1,0.1-1.6,0.2c-0.7,0.1-1.4,0.2-2.1,0.2c-0.5,0-1,0-1.4-0.1
							c-0.5-0.1-1.1-0.1-1.6-0.1c-2.4,0-1.2,1.2-2,3.5c-1,2.6-3.1,2.3-5.5,5.1c-0.4,0.6-1.1,1-1.9,1c-1.7,0-3.5-2-6.1-2.3
							c-1.9,0.1-3.8,0.6-5.4,1.6c-1.4,0.9-3,1.4-4.7,1.6c-4.1-1.1-12.3-8.6-14.4-9.9c-2-1.4-3.4-7.6-6.9-11.8c-3.5-4.2-5.1-3-6.2-7
							c-0.7-2-1.2-4.1-1.7-6.2v-0.1c-0.2-1.2-0.2-2.4-0.1-3.6c0.2-2.7,0.5-4.8,0.7-7.2c0.1-1.6,0.1-3.2,0-4.8
							c-0.3-5.1-2.8-9.9-2.8-12.9v-0.1c0.6-3.3,1.6-6.5,2.8-9.6c0.7-2,1.5-4.1,2.3-6.2c2.3-5.8,4.9-11.3,6.7-12.9
							c3.7-3.4,7.4-4.9,8.5-7.4c0.1-0.2,0.2-0.4,0.2-0.7c0.5-2.1-0.5-4.3-0.5-6.4v-0.1c0-0.8,0.2-1.6,0.6-2.3
							c1.7-2.7,4.1-8.2,6.6-8.4c0.8-0.1,1.6,0.1,2.3,0.6c0.7,0.4,1.4,0.6,2.2,0.6c0.7,0,1.5-0.1,2.2-0.3c4.6-1.2,4.6-0.8,14.2-2
							c9.6-1.2,15-9.1,22.3-8.1c1.1,0.1,2.1,0.2,3.2,0.2c1.3,0,2.7-0.2,4-0.5c0.8-0.3,1.6-0.4,2.4-0.5c0.7,0,1.3,0.2,1.9,0.5
							c3.3,1.8,2,0.7,3.2,5.1c0.3,0.8,0.4,1.6,0.4,2.4c0,1.8-1.2,2.2-1.2,5.4c-0.1,0.8,0.1,1.6,0.4,2.3c0.9,1.7,3.1,1.6,6.4,2.3
							c4.4,0.8,4.3-0.4,8.2,4c3.9,4.4,5.7,7.1,9.9,9.3c0.5,0.3,1,0.5,1.6,0.5c2.9,0,4-5.3,5.1-8.3c0.9-2.5,1.5-3.5,4-3.5
							c1.3,0,2.6,0.2,3.9,0.4c6,1,2.2,5.1,4.9,7.1c2.7,1.9,4.9,3.8,11.9,4.2c2.3,0.1,3.5,0.1,4.2,0.1c1.4,0,1.1,0,5.1,1
							c5.4,1.4,12.5-0.5,15.4-6.2c0.8-1.5,1.4-3,1.9-4.7c0.6-2.3,0.2-3.6-0.2-6.1c-0.2-1.7-0.8-2.3-1.6-2.3s-2.3,0.8-4.1,1.5
							c-3.3,0.3-3.5-2.5-4.2-6c-0.1-0.4-0.1-0.8-0.1-1.2c0,0,0-0.1,0-0.1c0.1-3.4,3.5-5.3,4.3-8.2c3.7-2.4,7.6-4.5,11.6-6.3
							c1.6,0,2.8,4.8,7.1,9.2c1.8,1.9,2.9,2.7,3.7,2.7s2.4-3.9,3-7.7c0.4-2.7,0.3-5.3-0.7-6.6c-2.6-3.3-3.4-7.4-9.9-10.3
							c-1.2-0.6-2.5-0.9-3.9-1c-0.8,0-1.5,0.1-2.2,0.4c-0.6,0.3-1.3,0.4-1.9,0.4c-1.1-0.1-2.2-0.5-3.2-1.2c-5.2-3.2-2-4.2-7.1-7.4
							c-0.8-0.6-1.8-0.9-2.8-1c-2.8,0-4.2,3.6-7.4,5.1c-3.4,1.7-3.5,6.9-3.3,11.7c0,0.9,0.1,1.7,0.2,2.5c0.3,5.3,7.1,4.8,9.1,7.6
							c0.5,0.7,0.8,1.5,0.8,2.3c0,0,0,0.1,0,0.1c0,1.9-1.4,3.6-2.7,5.5c-1.9,2.6-9.8,7.5-10.6,4c-1.2-5.2-4.9-9.3-5.4-13
							c-0.5-3.6-1.2-3.9-5.6-4.5c-0.6-0.1-1.3-0.1-1.9-0.2c-2.1,0-1.4,1.2-1.4,4.1c0,0.4,0,0.8,0.1,1.2c0.4,2.8,1.9,3.9,2.2,5.5
							c0,0.1,0,0.2,0,0.3c-0.1,1.6-4.1,4.3-6.5,4.3c-3.2-1.6-7.9-9.9-8.3-14.4c-0.2-1.9-0.2-3.8,0-5.7c0.2-2.7,0.3-5.1-0.5-6.7
							c-1.4-2.7-4.7-2.9-9-5.7c-3-2-3.4,1.2-2,4.4c0.6,1.5,1.6,2.8,2.9,3.9c4.1,3.3,3.8,4.4,4.5,6.3c0.2,0.6,0.3,1.3,0.3,2v0.2
							c-0.2,2.9-1,5.8-2.4,8.3c-2.6,5.3-3.2,7.1-7.1,7.1c-4.3,0-5.4-0.1-7.8-2.7c-2.7-2.9-3.2-4.6-3-7.6l0,0l0.2-0.1
							c1-0.7,1.7-3,2-5.8c0.4-4-0.4-8.8-3.4-10.6c-5.2-3.2-5.7-11.8-8.4-12.8c-3.1-0.1-4.9,5-7,6.3c-1.7,0.2-3.4-0.1-4.9-0.9
							c-1.4-0.7-2.9-1.2-4.4-1.3c-4.3,0.4-1.6,7.8-5.2,13.3c-1.4,2-1.9,2.6-2.3,2.6c-1.2-0.4-8.4,6.7-11,12.3
							c-0.9,2.1-2,2.8-3.2,2.8c-2.2,0-4.9-2.3-7.7-3.4c-4.4-1.8-6.5,0.5-10.7-4.9c-3.3-4.3-5.3-5.5-5.5-8.9c0-1.1,0-2.1,0.2-3.2
							c1-6.2,2-14,6.2-18.6c1.1-1.2,1.9-1.7,2.5-1.7s1.3,0.6,1.9,1.2c0.6,0.6,12.2-1.7,15.5-2.5c0.4-0.1,0.8-0.3,1.2-0.6
							c1.5-1.4,0.2-4.8-1.1-7.3l-0.1-0.3c-1.6-3-6.8-5.3-7.7-6.7c-0.9-1.4-1.3-7-2.2-10.4c-0.9-3.4-7.7-0.7-11.1-0.7
							c-3.9-0.2-5.7-3.3-7-6.8c-0.2-0.4-0.2-0.9-0.2-1.4c0-0.2,0-0.3,0-0.5c0.2-3.9,3.9-10.1,7.2-11.7c3.9-1.8,8.6-7.1,9.8-11.9
							c0.9-3.4,2-6.6,3.5-9.8c0.6-1.5,1.4-2.3,2.3-2.3c1.4,0,10.3,7.5,9.4,15.3c-0.1,0.6-0.1,1.1-0.2,1.5c-0.4,2.5-0.9,2.8-1.5,2.8
							c-1.1,0-1.6,0.2-2,1.6c-0.6,2.6-0.7,5.3-0.5,7.9c0.1,2.3,0.7,4.5,1.6,6.5c2.9,5.2,9.1,6.3,10.1,4c1.8-4.2,7.1-2.3,9.4-7.2
							c1.8-3.8,1.2-4.1,2.9-4.1c3.5,0,4.6,0.1,5.5,0.2c0.9,0.1,1.7,0.2,2.3,0.2c1.4,0.1,2.7-0.4,3.7-1.4c0.1-0.1,0.3-0.3,0.4-0.4
							c1.4-1.8,0-3.5-0.4-7.2c-0.1-0.7-0.1-1.4-0.2-2.3c0-0.6,0-1.2,0-1.8c0.2-2.7,1.2-2,2.7-3.1c0.5-0.3,1-0.8,1.3-1.2
							c0.5-0.8,1.4-1.4,2.3-1.5c1,0.2,1.9,0.6,2.7,1.3c0.5,0.3,1,0.5,1.5,0.7c2.2,0,0.4-2.4-1.9-6.1c-1.2-1.9-2-3-2.8-3
							c-0.8,0-1.9,1.4-3.2,4.6c-1.1,2.6-1.7,3.5-2.5,3.5c-1,0-2.4-1.5-5.5-2.4c-5.4-1.7-5.7-3.2-6.6-6.1c-0.1-0.2-0.1-0.4-0.1-0.6
							c-0.6-3.5,0.7-12.1,2.5-15.4c1.9-3.5,8.8-2.3,14.2-4.2c5.3-1.9,3.4-2.7,11-14.4c7.8-11.9,6.1-7.8,10.8-12
							c3-2.7,14-3.7,23.7-3.7c4.5-0.1,9,0.2,13.4,0.8c8,1.3,3.6,1.8,9.9,8.2s5.4,2.9,13.9,6.1c8.5,3.2,7.7,2.7,10.2,7
							c0.4,0.7,0.7,1.4,0.8,2.2c0.2,2.6-2.7,4.1-5.9,7.4c-0.7,0.8-1.7,1.3-2.7,1.4c-0.8,0-1.6-0.3-2.3-0.7c-0.5-0.3-1.1-0.5-1.7-0.6
							c-0.5,2.7-0.1,4.3,0.9,5.2c1.7,1.6,5.2,1.3,8.2,2.2c5,0.1,6.7-9.1,11.1-14.6c1.8-2.2,2.8-3,3.5-3c1.2,0,1.7,2.2,4.2,3.5
							c4,2.1,2.6,6,7.2,7c0.5,0.1,1,0.2,1.5,0.2c1.5,0,3.1-5.5,3.5-11c0.3-2.7,0.1-5.5-0.5-8.2c-0.3-1-0.6-2-0.7-3.1
							c0-0.2,0-0.4,0-0.6c0.3-1.9,2.7-2.1,7.9-6c7.5-5.6,2.2-1.4,7.2-6.5c1.5-1.5,2.5-2.1,3.4-2.1c2.1,0,3.8,2.9,11.5,3.2
							c7.9,0.2,10.8,4.2,11,7c0.2,0.9-0.1,1.7-0.8,2.3c-1.7,1.2-4.9,3.5-8.1,3.5c-0.7,0-1.4-0.1-2-0.3c-2.2-0.7-4.5-1-6.8-0.9
							c-4,0-8.1,0.9-8.5,3.3c-0.2,1.5-0.2,3,0.2,4.5c0.3,1.6,0.3,3.3,0,4.9c0,0.1,0,0.3-0.1,0.4c-0.6,3.1-1.2,3.9,0.1,4.2
							c0.8,0.2,2.5,0.2,5.4,0.6c7.6,0.8,6.2,0,14,1.6c7.8,1.6,6.2,7.7,11,8.4c0.3,0.1,0.7,0.2,1.1,0.3c2.6-0.7-0.6-5.1-1.7-10.2
							c-0.2-0.9-0.2-1.8-0.1-2.8c0.5-3.5,4.1-4.1,7.1-4.2c3.7,0,3.4,1.9,7,7.9c3.7,6.1,12.1,11.4,14.9,8.7c2-2,3.3-2.9,5-2.9
							s3.9,0.9,7.6,2.7c7.2,3.4,27.3-22.4,35.5-26.2c6.9-3.2,15.3-2.7,22.9-1.2c40.4,7.9,69.7,37.3,96,65
							c17.7,18.7,35.9,37.9,44.3,60.9c6,16.4,6.8,33.9,7.5,51.2c0.7,16.3-2.3,36.8,2.1,52.7c3.1,10.9,10.7,22.6,16.1,33.2
							C669.5,374.6,669.3,375.3,668.4,377.4z"/>
						<path class="st12" d="M109,480.8c-0.8,0.8,2.7,14.4,3,16.8c0.3,2.4-1.6,11-3.2,13.3s-8,1-9,2s-3.4,3.5-3.4,6.4
							c0.3,3.1,0.8,6.2,1.5,9.2c0.4,1.8-1.7,3.6-3.7,7.2c-1.9,3.6-1.4,10.7-2.6,12.3c-0.4,0.6-1.1,0.9-1.8,0.9c-1.5,0-1.9,0-2.2,0.4
							c-0.7,1.1,0.4,6.2,0.1,7.6c-0.3,1.5-1.5,1.3-3.2,1.8c-1.8,0.5-0.7,2.1-1.4,3.2c-0.6,0.9-1.4,1.7-2.3,2.2
							c-0.4,0.2,0,2.3,0.4,4.7c0.4,2.4-1.7,10.2-0.4,11.8c1.3,1.7,2.9,3.1,2.8,5.4c0,3.1,1,6.2,2.7,8.8c1.6,2.1,5.9,1.2,7.7,2.4
							s1.6,1.1-1.7,2.8c-1,0.6-2.2,0.9-3.3,0.9c-1.9,0-3.7-0.9-6-2.7c-0.8-0.7-1.8-1.2-2.8-1.4c-1.7,0.3-2,0.3-2.3,0.1
							c-2.3-0.8-3.4-3.7-7.3-7c-3.9-3.3-3-3.5-3.7-5.1c-0.7-1.6,0.4-6-1.8-8.6c-1.4-1.6-2.7-3.2-4-4.9c-1.7-2.2-1.8-3-3.3-8.2
							s-1.1-7.4-3.4-13.7c-2.3-6.3-2.7-3.7-4.3-7.6c-1.6-3.9-2.7-18.7-4.9-24.1c-2.2-5.4-2.3-7.3-5.6-9.9
							c-3.3-2.6-15.8-6.7-17.1-7.7c-1.3-1.1-4.8-9.1-5.8-11.7c-1.1-2.6-10.5-8.9-11.3-9.4s0.3-3.2-0.1-7.3c-0.4-4.1-2.3-2.8-4.1-3.3
							c-1.8-0.5-1.8-6.6-1.8-10.4s6.1-4.8,6.1-9.9c0.1-2.1-0.3-4.3-1-6.3c-0.3-0.9-0.9-1.7-1.6-2.4c-0.7,0-2,1.1-3.3,2.5
							c-1.5,1.8-3.2,3.4-5,4.9c-0.6,0.4-1.4,0.7-2.1,0.7c-0.4,0-0.8-0.1-1.2-0.1s-0.9-0.1-1.5-0.1c-0.8,0-1.7,0.1-2.5,0.3
							c-3.8,0.9-12.4,8.5-14.3,9c-0.1,0-0.1,0-0.2,0c-1.2-0.3-1.3-5.4-2.5-8.2c-1.2-2.7-3.8-2.9-5.7-3.6c-2.8-0.1-6.9,3-10.4,3.2
							c-4,0-7.2-3.4-9-3.5s-6.4,6.3-8.2,7.6c-1.4,0.9-8.2,2.1-12.8,2.1c-1.3,0.1-2.7-0.1-3.9-0.6c-2-1.1-3.5-6.6-4.7-9.9
							c-0.3-0.9-0.7-1.7-1.2-2.4c-1.6-1.4-6.9-0.5-8.3-1.2s-3.6-3.2-6.4-6.2c-2.8-3-4.4-3.1-5.5-3.1c-1.1,0-0.3,2.1,1.9,4.8
							s7.3,5.6,9.2,7.3c0.3,0.3,0.6,0.6,0.8,1c1.1,2.1,1.1,5.5,0.3,5.5c-4.5-1.2-8.8-3-12.8-5.4c-0.8-0.5-1.5-1.1-2.2-1.7
							c-4.1-3.9-5.7-11.9-9.3-14.8c-0.6-0.6-1.5-0.9-2.3-0.9c-0.8,0.1-1.5,0.3-2.2,0.6c-0.7,0.4-1.5,0.6-2.3,0.6
							c-0.8,0-1.7-0.3-2.3-0.8c-4-2.6-7.6-12.3-9.6-13.8c-2-1.5-1.4-3.6-0.4-12.2s-3.5-26.4-7.6-35.3c-4.1-9-7.6-7.3-13.4-13
							c-5.8-5.7-6.2-11.9-8.2-11.9c-2.2,0.3-12.8,10-19.2,17.4c-6.4,7.4-1.4,10.6-3.8,22.2c-2.3,11.3-3.3,16.3-4.7,23.9
							c-0.4,2.1-1.1,4.2-2.2,6.1c-1.4,2.3-3.1,3.3-4.2,3.3c-1.7-0.7-2.3-2.9-1.8-6.7c0.2-1.4,0.5-2.8,0.8-4.2
							c1.5-6.4,0.5-6.9-3-10.7c-0.7-0.9-1.7-1.5-2.8-1.7c-0.4,0-0.7,0.1-1,0.2c-0.3,0.1-0.6,0.2-0.9,0.2c-0.4,0-0.8-0.2-1.2-0.9
							c-1.8-2.7,0.4-11.8,3-16.6c2.6-4.7,2.8-7,1.6-10.2c-1.2-3.2-2-0.5-3.1-4c-1.1-3.5,3.8-7.9,5.8-10.2c2.1-2.3-1-7.5-1.8-10.4
							c-1.2-4,8.5-23.4,10.2-28.2c4.5-12.7,17.2-20.2,23.3-32.7c15.6-32.2,30.8-65.9,54.6-94.4c11.3-13.6,56.8-56.5,78.5-38.5
							c1.1,1.2,2.5,2.1,4,2.6c4.2,1.1,7-3.4,9.7-6.4c4.1-4.5,15-7.3,21.1-4.1c7,3.6,2.3,8.5,5.8,11.9c1.5,1.4,5.1,1.4,9.4,4.4
							s6.6,3.9,9,6.8c2.4,2.9,6.9,2.2,9.6,5.8s0,3.5-1.4,6.3c-0.5,1.1-1.7,1.8-2.9,1.8c-0.9,0-3,3.8-4.5,7.9c-1,2.5-1.7,5.1-1.8,7.8
							c0.2,4.3,0.1,6.6-3.8,7.7c-3.9,1.1-3.4,0.8-6.9,0.9s-4.1,0-4.9,3.9s-2.2,11-1.4,12.6c0.5,0.8,1.4,1.2,2.3,1.1
							c1.8-0.1,3.6-0.6,5.2-1.5c3.1-1.8,2.3-9,4.8-10.8c0.5-0.4,1.1-0.6,1.7-0.6c1.8,0,3.3,1.9,5,3c2.3,1.4,1.4,3,0.1,6.5
							c-1.3,3.5-3.2,4.7-1.3,7.3c0.5,0.7,1.4,1.1,2.3,1.1c1,0,2-0.2,2.9-0.4c1.1-0.2,2.2-0.4,3.4-0.4c0.8,0,1.6,0.1,2.4,0.4
							c4.1,1.5,0.9,9.2,2.2,13.9c1.2,4.7,4.9,8.5,5.2,14s-0.6,4.8-3.8,8.3c-1.9,2.1-5.8,3.1-9,3.1c-2,0-3.8-0.4-4.5-1.2
							c-1.9-1.9-2.2-1.9-0.7-5.6c1.6-3.7,2.2-7.1,1.1-7.7c-1.4-0.1-3,3.1-5.5,6.7c-1.4,2.3-4,3.6-6.7,3.4c-4.3,0-3.7,3.3-2.4,6.2
							c1.2,2.9,4.8,3.2,7.7,4.7s3.5,2.2,2.8,3.7c-1.5,2.7-3.3,5.3-5.2,7.7c-1.5,2.1-3.3,4-5.3,5.6c-0.8,0.5-1.6,0.8-2.5,0.8
							c-0.4,0-0.8,0-1.2-0.1c-0.4-0.1-0.8-0.1-1.2-0.1c-1.2,0-2.3,0.4-3.9,2.4c-3.5,4.6-6.9,2.7-8.2,5.6c-1.2,2.6-0.9,6.3-2.5,12.4
							c-0.2,0.8-0.5,1.7-0.8,2.6c-2.5,7.6-9,13.1-10.3,15c-1.3,2,1.1,7.6,2.1,10.7c1,3.1,0.1,4-1.9,5.7c-0.2,0.2-0.3,0.4-0.4,0.6
							c-1.7,1.9-3.1,5.8-4.8,9.3c-1.2,3.5-2.2,7-2.8,10.6c-0.9,4.3-1.7,8.3-2,8.8c-0.5,0.9-0.3,1.5,0.9,4.8
							c1.2,3.3,3.2,6.8,2.5,10.9c-0.5,3.1-1.9,4.4-3.9,4.4c-0.6,0-1.2-0.1-1.8-0.3c-2.9-0.9-1.2-2.7-2.6-7.6c-1.2-4-2.4-5-4.5-5
							c-0.6,0-1.1,0.1-1.7,0.1c-3.1,0.4-1.5,3.3-1.8,6.7c-0.3,3.4-1.7,3.6-7.8,3.9s-3.9,1.6-7.4,6.2c-3.6,4.6-3,13.9-2.5,19.4
							c0.5,5.6,3.8,10.5,6.3,14.4c0.7,1.5,2.3,2.4,3.9,2.4c1.6,0,3.5-0.7,5.8-0.9c4.5-0.4,1.8-4.4,2.5-13c0.4-4.2,0.7-5,1.4-5
							c2.2,0.3,2.9,0,3.9-0.6c3.9-2.9,3.5-5.1,5.2-8c1.7-3,4.6-4.5,4.8-7.4c0.2-2.3,2.5-3.3,4.5-3.3c0.5,0,0.9,0.1,1.4,0.2
							c0.7,0.1,1.3,0.2,2,0.2c0.8,0,1.8,0,2.8-0.1c1-0.1,2.2-0.1,3.3-0.1c2.1-0.1,4.2,0.1,6.3,0.5c2.7,0.7,5.6,1,8.4,1
							c1.9,0.1,3.7-0.2,5.5-0.8c1.4-0.6,2.9-1,4.4-1.1c1.2-0.1,2.3,0.4,2.9,1.4c1.2,2.1-1.2,3.2-4.9,4.9c-3.7,1.6-4.9,4.6-8.1,5.1
							s-3,3.6-4.5,6.2c-1,1.7-2.8,2.8-4.8,3c-1.2-0.3-3.3-3.4-2.5-5.8c0.8-2.4,1-5.5-2.3-6.3c-3.1-0.7-5.8-2-9-2
							c-4.2,0.2-1.9,3.4-4.2,5c-2,1.5-3.7,3.3-5,5.4c-1.1,1.6-1.2,7.3-1.4,12c-0.3,4.7,0.3,7.5,1.6,8.3c1.1,0.1,2.8-1,4.7-2
							s3.9-2.1,5.3-2.1c0.4,0,0.7,0.1,1,0.2c2.3,1.6,3.2,9.6,4.6,12.8c0.7,2.2,2.7,3.7,5,3.9c0.9,0.1,1.8,0.2,2.8,0.2
							c4.5,0,9.9-6.8,11.8-8.7S2.4,423,4,421.4c0.8-0.9,2.3-3.1,3.9-5.3l0.1-0.1c0.8-1.1,1.7-2.1,2.6-3c0.5-0.6,1.2-1.1,1.9-1.4
							c1.8-0.7,5.4-0.9,9.7-0.9c2.7,0,5.5,0.1,8.4,0.3c7.4,0.5,7.8,0.7,10.9,2.3c3.1,1.7,9,7.6,10.8,8.2c0.4,0.2,0.8,0.2,1.2,0.2
							c0.7,0,1.4-0.1,2-0.2c0.9-0.2,1.9-0.3,2.8-0.3c0.5,0,1.1,0,1.7,0.1c4.1,0.4,5.3,0.6,9.6,5.6c3.2,3.8,7,9.9,10,13.3
							c0.7,0.9,1.6,1.6,2.5,2.2c3.2,1.7,10.8,2.5,14.6,3.1c3.7,0.7,6.6,3.2,9.1,5.2c0.3,0.3,0.7,0.4,1.1,0.4c0.8,0,1.6-0.7,2.3-1.5
							c0.8-0.7,1.5-1.5,2.3-1.5c3.1,1.5,3.6,5.5,3.7,6.9c0.1,1.5,1.9,10.9,0.5,12.6C114.5,469.3,109.7,480,109,480.8z"/>
						<path class="st12" d="M332.2,77.4c-1.1,0.4-2.1,0.9-3.2,1.3c-7.3,2.8-30.9,0.4-38.2-2.5c-9.2-4-19-6.3-29.1-6.8
							c-13.7-0.8-36.8-3.7-43.6-2.5c-6.8,1.2-16.8-2.1-20.2-2.1c-3.4,0-13.4,4.6-13.7,4.8c-3.4,1.7-5.6,3.9-8.8,7.6
							c-3.2,3.6-10.3,3.6-12.3,6.1c-2,2.5,0.4,15.9-4.1,17.5s-7.2,8.1-11.1,18.5c-2.3,6.1-1.8,7.6-2.6,7.6c-1.5-0.5-3.1-0.9-4.7-1.2
							c-1-0.2-2.1-0.3-3.2-0.3c-4.1,0-4.4,2.1-11.1,3.7c-8.1,2-8,3.8-10.4,10.1c-2.4,6.2-8,8-12.5,8.4c-0.3,0-0.5,0-0.7,0
							c-1.2,0-2.4-0.4-3.3-1.1c-0.9-0.7-1.9-1.1-3-1.1c-0.6,0-1.1,0.1-1.7,0.2c-4.7,1.1-5.8,12.8-8.5,16.8
							c-2.7,4-8.3,17.4-11.2,19.3c-2.3,1.4-4.9,2.1-7.6,2.1c-2.8,0-5.5-1.1-6.5-4.4c-2.1-6.8-7.2-17.7-7.8-23.2s4.1-21.1,4.8-27.1
							c0.7-6-1-8.7-3.2-12.1c-1-1.5-2.8-2.4-4.7-2.2c-12.5,0-22.3,16.8-27.9-3.7c-3.7-13.4,0.1-37.7,11.4-47.3
							c23.6-19.8,55-31.5,87.1-37.5s65.2-6.4,98.1-6.3c47.5,0.1,97.1,1.6,138.9,21.3c4.1,1.9,8.4,4.4,9.2,8.4
							c0.9,4.3-2.9,8.2-6.6,11.2C351.8,67.6,342.3,73.2,332.2,77.4z"/>
					</g>
				</g>
				<rect x="694.5" y="407.3" class="st13" width="64.2" height="7.7"/>
				<polygon class="st14" points="675.4,579.5 777.7,579.5 760.1,411.1 693,411.1 				"/>
				<polygon class="st15" points="707.9,411.1 700.7,579.5 675.4,579.5 693,411.1 				"/>
				<path class="st9" d="M728.5,381.3l35.7,23.2c0.7,0.5,0.9,1.4,0.4,2.1c-0.3,0.4-0.8,0.7-1.3,0.7h-73.7c-0.9,0-1.5-0.7-1.5-1.6
					c0-0.5,0.3-1,0.7-1.3l35.7-23.2C725.8,380.5,727.3,380.5,728.5,381.3z"/>
				<path class="st16" d="M716.4,463.5h20.3v-18.3c0-5.6-4.5-10.1-10.1-10.1c0,0,0,0,0,0l0,0c-5.6,0-10.1,4.5-10.1,10.1c0,0,0,0,0,0
					L716.4,463.5z"/>
				<path class="st16" d="M716.4,508.3h20.3V490c0-5.6-4.5-10.1-10.1-10.1l0,0c-5.6,0-10.1,4.5-10.1,10.1L716.4,508.3z"/>
				
					<rect x="720.2" y="385.4" transform="matrix(0.9337 -0.358 0.358 0.9337 -94.4804 284.9354)" class="st17" width="4.1" height="24.4"/>
				<path class="st1" d="M713.9,390.9l10-3.8c1.4-0.5,2.1-2.1,1.6-3.5l-23.6-67.7c-0.5-1.4-2-2.2-3.5-1.7c0,0-0.1,0-0.1,0l-14.2,5.4
					c-1.4,0.5-2.1,2.1-1.6,3.5c0,0,0,0.1,0,0.1l27.7,66.2C711,390.8,712.5,391.4,713.9,390.9z"/>
				
					<rect x="725.8" y="402.6" transform="matrix(0.9337 -0.358 0.358 0.9337 -95.9544 291.0461)" class="st17" width="24.4" height="4.1"/>
				<path class="st1" d="M744.7,396.3l3.8,10c0.5,1.4,2.1,2.1,3.5,1.6l67.7-23.6c1.4-0.5,2.2-2,1.7-3.5c0,0,0-0.1,0-0.1l-5.5-14.2
					c-0.5-1.4-2.1-2.1-3.5-1.6c0,0-0.1,0-0.1,0l-66.1,27.8C744.8,393.4,744.1,394.9,744.7,396.3z"/>
				
					<rect x="728.9" y="408.2" transform="matrix(0.9337 -0.358 0.358 0.9337 -102.0648 289.5661)" class="st17" width="4.1" height="24.4"/>
				<path class="st1" d="M739.2,427.1l-10,3.8c-1.4,0.5-2.1,2.1-1.6,3.5l23.6,67.7c0.5,1.4,2,2.2,3.5,1.7c0,0,0.1,0,0.1,0l14.2-5.5
					c1.4-0.5,2.1-2.1,1.6-3.5c0,0,0-0.1,0-0.1l-27.8-66.1C742.2,427.3,740.6,426.6,739.2,427.1z"/>
				
					<rect x="703" y="411.3" transform="matrix(0.9337 -0.358 0.358 0.9337 -100.5872 283.4581)" class="st17" width="24.4" height="4.1"/>
				<path class="st1" d="M708.5,421.7l-3.8-10c-0.5-1.4-2.1-2.1-3.5-1.6l-67.7,23.6c-1.4,0.5-2.2,2-1.7,3.5c0,0,0,0.1,0,0.1
					l5.5,14.2c0.5,1.4,2.1,2.1,3.5,1.6c0,0,0.1,0,0.1,0l66.1-27.8C708.3,424.6,709,423.1,708.5,421.7z"/>
				<path class="st1" d="M715.9,409c0,5.9,4.8,10.6,10.6,10.6s10.6-4.8,10.6-10.6c0-5.9-4.8-10.6-10.6-10.6l0,0
					C720.7,398.4,715.9,403.1,715.9,409z"/>
				<path class="st18" d="M719.8,409c0,3.8,3,6.8,6.8,6.8c3.8,0,6.8-3,6.8-6.8s-3-6.8-6.8-6.8S719.8,405.3,719.8,409L719.8,409z"/>
				<rect x="528.8" y="301.6" class="st13" width="105.6" height="12.6"/>
				<polygon class="st14" points="497.5,584.8 665.7,584.8 636.7,307.9 526.5,307.9 				"/>
				<polygon class="st15" points="551,307.9 539.1,584.8 497.5,584.8 526.5,307.9 				"/>
				<path class="st9" d="M584.8,258.9l58.8,38.1c1.2,0.7,1.6,2.2,0.9,3.4c-0.5,0.8-1.3,1.3-2.3,1.2H521c-1.4,0-2.5-1-2.6-2.4
					c0-0.9,0.4-1.8,1.2-2.3l58.8-38.1C580.4,257.6,582.8,257.6,584.8,258.9z"/>
				<path class="st16" d="M564.9,394.1h33.3v-30.1c0-9.2-7.5-16.7-16.7-16.7l0,0c-9.2,0-16.7,7.5-16.7,16.7V394.1z"/>
				<path class="st16" d="M564.9,467.7h33.3v-30.1c0-9.2-7.4-16.7-16.6-16.7c0,0,0,0,0,0l0,0c-9.2,0-16.7,7.5-16.7,16.7c0,0,0,0,0,0
					V467.7z"/>
				
					<rect x="572.5" y="265.1" transform="matrix(0.9581 -0.2864 0.2864 0.9581 -57.5455 176.8452)" class="st17" width="6.7" height="40.1"/>
				<path class="st1" d="M563.1,273.1l16.9-5c2.3-0.7,3.7-3.1,3.1-5.5l-30.2-114c-0.6-2.4-3.1-3.8-5.5-3.2c0,0-0.1,0-0.1,0l-24,7.2
					c-2.4,0.7-3.7,3.2-3,5.6c0,0,0,0.1,0,0.1l37.4,111.9C558.3,272.5,560.7,273.8,563.1,273.1z"/>
				
					<rect x="580.8" y="295.3" transform="matrix(0.9581 -0.2864 0.2864 0.9581 -60.3618 184.5571)" class="st17" width="40.1" height="6.7"/>
				<path class="st1" d="M612.9,285.9l5,16.9c0.7,2.3,3.1,3.7,5.5,3.1l114-30.2c2.4-0.6,3.8-3.1,3.2-5.5c0-0.1,0-0.1,0-0.2l-7.2-24
					c-0.7-2.4-3.2-3.7-5.6-3c0,0-0.1,0-0.1,0l-111.9,37.4C613.4,281.1,612.2,283.5,612.9,285.9z"/>
				
					<rect x="584" y="303.6" transform="matrix(0.9581 -0.2864 0.2864 0.9581 -68.0726 181.7359)" class="st17" width="6.7" height="40.1"/>
				<path class="st1" d="M600.1,335.7l-16.9,5c-2.3,0.7-3.7,3.1-3.1,5.5l30.2,114c0.6,2.4,3.1,3.8,5.5,3.2c0,0,0.1,0,0.1,0l24-7.2
					c2.4-0.7,3.7-3.2,3-5.6c0,0,0-0.1,0-0.1l-37.4-111.9C604.9,336.3,602.4,335,600.1,335.7z"/>
				
					<rect x="542.3" y="306.8" transform="matrix(0.9581 -0.2864 0.2864 0.9581 -65.2527 174.0276)" class="st17" width="40.1" height="6.7"/>
				<path class="st1" d="M550.3,322.9l-5-16.9c-0.7-2.3-3.1-3.7-5.5-3.1l-114,30.2c-2.4,0.6-3.8,3.1-3.2,5.5c0,0.1,0,0.1,0,0.2
					l7.2,24c0.7,2.4,3.2,3.7,5.6,3c0,0,0.1,0,0.1,0l111.9-37.4C549.7,327.7,551,325.2,550.3,322.9z"/>
				
					<ellipse transform="matrix(0.9975 -7.084496e-02 7.084496e-02 0.9975 -20.1052 41.9673)" class="st1" cx="581.6" cy="304.4" rx="17.5" ry="17.5"/>
				<path class="st18" d="M570.4,304.4c0,6.2,5,11.2,11.2,11.2c6.2,0,11.2-5,11.2-11.2c0-6.2-5-11.2-11.2-11.2
					C575.4,293.2,570.4,298.2,570.4,304.4C570.4,304.4,570.4,304.4,570.4,304.4z"/>
				<path class="st19" d="M400.9,552l9.3,4.8c4-4.3,7.8-8.9,11.2-13.8c10-14.1,17.2-29.7,20.6-44.6l-5.7-4.8l6.6,0.3
					c0.5-2.5,0.8-5.1,1-7.6l-12.5-6l12.7-1c-0.1-7.9-1.6-15-4.7-20.9c-3.1-5.9-8.1-10.5-14.2-13.1c-5.2-2.3-11-3.1-16.6-2.3
					c-2.8,0.4-5.5,1-8.2,2c-2.8,1.1-5.5,2.4-8.1,3.9c-10.6,6.4-20.6,17.4-28.8,31.1l7.6,10l-12-2c-1.6,3.2-3.2,6.6-4.7,10.1l6.5,3.3
					l-8.3,1.4c-0.5,1.4-1,2.7-1.5,4.1c-8.6,24.8-8,44.8-5.1,58.5c2.8,13.7,7.8,21.3,7.8,21.3s25.1-0.1,51.5-25.1L400.9,552z"/>
				<line class="st20" x1="358.5" y1="577.9" x2="422.6" y2="456"/>
				<line class="st20" x1="407" y1="485.7" x2="425.3" y2="480.9"/>
				<line class="st20" x1="398.2" y1="502.4" x2="386.8" y2="470.7"/>
				<line class="st20" x1="385.4" y1="526.7" x2="415.8" y2="522.8"/>
				<line class="st20" x1="374" y1="548.4" x2="365.5" y2="517.8"/>
				<path class="st21" d="M38,546.8l3.8-6.2c-2.8-3-5.8-5.8-9-8.3C24,525,13.9,519.5,3,516l-3.5,3.7l0.5-4.5
					c-1.7-0.4-3.5-0.8-5.2-1.1l-4.7,8.3l-0.1-8.8c-5-0.4-10,0.4-14.6,2.3c-4.2,1.8-7.6,5.1-9.7,9.2c-1.8,3.5-2.6,7.4-2.3,11.3
					c0.1,1.9,0.5,3.9,1,5.7c0.6,2,1.4,3.9,2.3,5.7c3.9,7.6,11.1,15,20.2,21.3l7.2-4.8l-2,8.2c2.1,1.3,4.4,2.5,6.7,3.7l2.6-4.3
					l0.6,5.8c0.9,0.4,1.8,0.8,2.8,1.2c16.7,7,30.5,7.5,40.1,6.2s15-4.4,15-4.4s1.1-17.3-15-36.6L38,546.8z"/>
				<line class="st22" x1="53.9" y1="577.3" x2="-27.2" y2="527.5"/>
				<line class="st22" x1="-7.4" y1="539.6" x2="-9.9" y2="526.8"/>
				<line class="st22" x1="3.7" y1="546.5" x2="-18.7" y2="552.8"/>
				<line class="st22" x1="19.9" y1="556.4" x2="18.6" y2="535.2"/>
				<line class="st22" x1="34.3" y1="565.2" x2="12.8" y2="569.7"/>
				<path class="st23" d="M483.6,578.5c20.2-17.1,48.6-14.8,69.8-16.5c17.4-1.4,28-8.7,29.6-14.4c4.5-17.1-15.4-20.6-31.7-18.1
					c-26.6,4.2-60,24.9-60,24.9c2.4-6.8,81.6-37.6,59.7-57.7c-24.2-22.3-80.9,55.6-80.9,55.6c13.6-27.3,85.1-106.9,43.6-111.2
					c-41.5-4.2-67,120.6-67,120.6l-1.6,9.9"/>
				<path class="st24" d="M509.9,453c-33.4,40.7-50.5,103.1-52.3,121.9"/>
				<path class="st24" d="M534.5,505.4c-35,27.1-61.7,47.5-71.7,74.7"/>
				<path class="st24" d="M562.8,543.9c-49.6,11.7-84.7,20.1-91.6,36.4"/>
				<path class="st19" d="M122.4,521.9l13.5-7.3c-1.9-8.4-4.4-16.7-7.4-24.8c-8.8-23.6-21.8-45.2-36.8-61.5l-10.4,2.9l5.8-7.7
					c-2.7-2.7-5.4-5.2-8.3-7.5l-17.5,10.1l9.3-16.2c-9.6-6.4-19.4-10.4-29.1-11.5c-9.6-1.2-19.4,1-27.5,6.3
					C7,409.1,1.2,415.3-2.5,422.7c-1.9,3.7-3.3,7.5-4.3,11.5c-1,4.2-1.7,8.6-1.9,12.9c-1,18.1,4.1,39.2,13.9,60.4l18.3-1l-12.4,12.8
					c2.6,4.7,5.3,9.3,8.3,13.9l9.3-5.1l-5.1,11.2c1.2,1.7,2.5,3.5,3.7,5.2c22.8,30.7,47.4,46.4,66.3,54.3s32.1,8.1,32.1,8.1
					s20.5-30.4,12-82.7L122.4,521.9z"/>
				<line class="st25" x1="118.7" y1="594.4" x2="24.4" y2="416.8"/>
				<line class="st25" x1="47.4" y1="460.1" x2="56.7" y2="434.1"/>
				<line class="st25" x1="60.3" y1="484.4" x2="12.8" y2="472.1"/>
				<line class="st25" x1="79.1" y1="519.9" x2="99.4" y2="479.9"/>
				<line class="st25" x1="95.9" y1="551.4" x2="52" y2="536.5"/>
				<path class="st8" d="M174.5,551.8l11.2,1.7c2.6-5.8,4.8-11.8,6.7-17.9c5.3-17.8,7.2-36.3,5.6-52.5l-7.4-2.9l6.8-2
					c-0.4-2.8-0.9-5.5-1.6-8.1l-14.8-1.8l12.6-5.4c-2.8-8-6.8-14.7-12-19.7c-5.2-4.9-11.9-8-19-8.5c-6.1-0.5-12.3,0.6-17.8,3.3
					c-2.7,1.3-5.3,3-7.6,4.9c-2.5,2-4.8,4.3-6.9,6.8c-8.6,10.2-14.9,24.9-18.6,41.7L123,499l-12.9,2.1c-0.6,3.9-1,7.8-1.3,11.9
					l7.7,1.2l-7.9,4.3c0,1.6-0.1,3.1-0.1,4.7c-0.1,28.3,7.4,48.3,15,61.4s15.3,19,15.3,19s25.5-8.7,43.7-43.4L174.5,551.8z"/>
				<line class="st26" x1="140.2" y1="592.9" x2="163.4" y2="446.5"/>
				<line class="st26" x1="157.7" y1="482.2" x2="174.8" y2="471"/>
				<line class="st26" x1="154.6" y1="502.2" x2="132" y2="473.9"/>
				<line class="st26" x1="149.9" y1="531.4" x2="179.6" y2="516.9"/>
				<line class="st26" x1="145.8" y1="557.4" x2="126.6" y2="529.2"/>
				<path class="st27" d="M246.1,563.1l7.6,2.3c9.2-14.3,14.6-30.6,15.8-47.5l-4.9-2.8l4.9-0.7c0-1.9-0.1-3.9-0.2-5.7l-10-2.8
					l9.3-2.5c-0.9-5.4-3-10.5-6.3-14.9c-3.1-4-7.4-6.7-12.3-7.9c-4.2-1-8.5-0.8-12.6,0.5c-2,0.6-4,1.5-5.8,2.6
					c-1.9,1.2-3.8,2.5-5.5,4c-7,6.2-12.9,15.7-17.2,26.9l7,6.4l-9.2,0.1c-0.8,2.6-1.5,5.3-2.1,8.1l5.2,1.6l-6,2.2
					c-0.2,1.1-0.4,2.1-0.5,3.2c-3,19.6,0.1,34.2,4,44.1c3.9,9.8,8.7,14.7,8.7,14.7s18.6-3.4,34.8-25.5L246.1,563.1z"/>
				<line class="st28" x1="218" y1="587.9" x2="249.3" y2="489"/>
				<line class="st28" x1="241.7" y1="513.1" x2="254.6" y2="507.1"/>
				<line class="st28" x1="237.4" y1="526.7" x2="224.7" y2="504.7"/>
				<line class="st28" x1="231.1" y1="546.4" x2="253.2" y2="539.4"/>
				<line class="st28" x1="225.6" y1="564" x2="215.2" y2="542.4"/>
				<path class="st8" d="M302.4,562.9l7.4,6.1c16.8-11.7,30.4-27.4,39.5-45.7l-4.1-5.3l5.8,1.5c0.9-2.2,1.7-4.3,2.3-6.5l-9.9-7.8
					l11.5,1.6c1.5-6.4,1.5-13.1-0.1-19.5c-1.6-5.8-5.1-10.9-10.1-14.4c-4.2-3-9.1-4.9-14.3-5.3c-2.6-0.2-5.1-0.1-7.7,0.2
					c-2.7,0.4-5.3,1-7.9,1.9c-10.6,3.7-21.6,11.5-31.6,22.1l4.8,10.3l-10.2-4.1c-2.1,2.6-4.1,5.3-6.1,8l5.1,4.2l-7.7-0.3
					c-0.7,1.1-1.4,2.2-2.1,3.4c-12.4,20.4-15.7,38.2-15.8,51c-0.1,12.8,2.8,20.4,2.8,20.4s22.3,4.8,50.6-12.4L302.4,562.9z"/>
				<line class="st29" x1="259.7" y1="577.7" x2="340.2" y2="481.8"/>
				<line class="st29" x1="320.6" y1="505.2" x2="337.8" y2="504.5"/>
				<line class="st29" x1="309.5" y1="518.3" x2="305.6" y2="488"/>
				<line class="st29" x1="293.5" y1="537.4" x2="321.3" y2="539.8"/>
				<line class="st29" x1="279.2" y1="554.5" x2="277.5" y2="525.7"/>
				<path class="st8" d="M404.3,215.9c0.3-2.2,1.1-4.3,2.2-6.2c3.4-6.1,9.1-11.4,14.4-16c-0.4,0.4,0.7,6.6,0.7,7.6
					c0.3,5.4-0.2,10.9-1.6,16.1c-2,6.5-7.6,11.5-13.8,14.1c-0.9,0.4-1.8-7.7-1.9-8.3C403.9,220.8,404,218.3,404.3,215.9z"/>
				<path class="st8" d="M402.2,231.5c-2.9-1.5-6.3-0.9-9.5-1.6c-4-0.8-7.4-3.4-10.1-6.4c-4.9-5.3-8.4-11.8-10-18.9
					c5.6,0.3,11,2.3,16.2,4.4c3,1.1,5.8,2.6,8.3,4.5C402.1,218,404.1,225.1,402.2,231.5z"/>
				<path class="st30" d="M401.2,259.3c1-15.8,5-31.3,11.8-45.7"/>
				<path class="st30" d="M404.5,236.4c-1.8-6.1-5.1-11.5-9.7-15.8"/>
				<path class="st30" d="M414.2,210.7c2.1-5.1,4.1-10.2,5.9-15.4"/>
				<path class="st30" d="M373.5,204.8c4.3,2.6,8.6,5.4,12.7,8.2"/>
				<path class="st30" d="M388.5,215.3c1.3,0.7,2.4,1.5,3.5,2.4"/>
				<path class="st8" d="M254.6,354.5c0-1.4,0.4-2.8,0.9-4.2c1.7-4.2,5-8.1,8.1-11.4c-0.3,0.3,1,4.2,1.1,4.8c0.6,3.5,0.7,7,0.2,10.5
					c-0.8,4.4-4,8.1-7.8,10.2c-0.5,0.3-1.8-4.8-1.9-5.2C254.8,357.7,254.6,356.1,254.6,354.5z"/>
				<path class="st8" d="M254.5,364.8c-2-0.7-4.2-0.1-6.3-0.3c-2.6-0.4-5.1-1.5-7-3.3c-3.6-3-6.4-7-8-11.4c3.7-0.1,7.3,0.5,10.8,1.6
					c2,0.5,3.9,1.2,5.7,2.3C253.5,356.1,255.3,360.4,254.5,364.8z"/>
				<path class="st31" d="M256,382.8c-0.6-10.3,0.7-20.6,4-30.4"/>
				<path class="st31" d="M256.4,367.7c-1.6-3.8-4.2-7-7.5-9.5"/>
				<path class="st31" d="M260.6,350.4c1-3.5,1.9-6.9,2.6-10.4"/>
				<path class="st31" d="M233.9,349.8c3,1.4,6,2.8,8.9,4.3"/>
				<path class="st31" d="M244.4,355.3c0.8,0.3,1.7,0.8,2.4,1.3"/>
				<path class="st8" d="M115.1,86.2c0.4-1.4,1.1-2.6,1.9-3.8c2.8-3.7,6.9-6.6,10.7-9c-0.3,0.2-0.2,4.3-0.2,4.9
					c-0.3,3.5-1.1,7-2.5,10.2c-1.8,4-5.9,6.8-10.2,7.9c-0.6,0.2-0.5-5.1-0.5-5.5C114.4,89.3,114.6,87.7,115.1,86.2z"/>
				<path class="st8" d="M112.3,96.1c-1.7-1.2-4-1.2-6-1.9c-2.4-1-4.5-2.8-5.9-5c-2.7-3.9-4.4-8.4-4.8-13.1c3.6,0.9,7,2.3,10.1,4.3
					c1.8,1,3.5,2.2,5,3.7C113.5,87.4,114.2,92.1,112.3,96.1z"/>
				<path class="st31" d="M109.2,113.9c2-10.1,6-19.7,11.7-28.3"/>
				<path class="st31" d="M113.4,99.4c-0.6-4.1-2.2-7.9-4.8-11.1"/>
				<path class="st31" d="M121.9,83.7c1.8-3.1,3.6-6.2,5.2-9.3"/>
				<path class="st31" d="M96.2,76.3c2.5,2.1,5,4.2,7.5,6.4"/>
				<path class="st31" d="M105,84.4c0.7,0.5,1.4,1.2,2,1.9"/>
			</g>
		</g>
	</g>
</g>
</svg>
