<?xml version="1.0" encoding="utf-8"?>
<!-- Generator: Adobe Illustrator 25.3.1, SVG Export Plug-In . SVG Version: 6.00 Build 0)  -->
<svg version="1.1" id="Layer_1" xmlns="http://www.w3.org/2000/svg" xmlns:xlink="http://www.w3.org/1999/xlink" x="0px" y="0px"
	 viewBox="0 0 925.1 538.5" style="enable-background:new 0 0 925.1 538.5;" xml:space="preserve">
<style type="text/css">
	.st0{fill:#F7B000;}
	.st1{opacity:0.39;fill:#F7B000;enable-background:new    ;}
	.st2{fill:#AFDBB4;}
	.st3{fill:#FFFFFF;}
	.st4{fill:#91B31E;}
	.st5{fill:#F36089;}
	.st6{fill:#5F721F;}
	.st7{fill:none;stroke:#1A1F04;stroke-width:1.2;stroke-linecap:round;stroke-miterlimit:10;}
	.st8{fill:#778E13;}
	.st9{fill:#6A7A0F;}
	.st10{fill:none;stroke:#CC7E00;stroke-width:0.96;stroke-linecap:round;stroke-miterlimit:10;}
	.st11{fill:none;stroke:#CC7E00;stroke-width:0.77;stroke-linecap:round;stroke-miterlimit:10;}
	.st12{fill:#D4DD77;}
	.st13{fill:none;stroke:#778E13;stroke-width:0.96;stroke-linecap:round;stroke-miterlimit:10;}
	.st14{fill:none;stroke:#778E13;stroke-width:0.61;stroke-linecap:round;stroke-miterlimit:10;}
	.st15{fill:#108F6E;}
	.st16{fill:#ED9200;}
	.st17{fill:none;stroke:#778E13;stroke-width:1.6;stroke-linecap:round;stroke-miterlimit:10;}
	.st18{fill:none;stroke:#CC7E00;stroke-width:0.86;stroke-linecap:round;stroke-miterlimit:10;}
	.st19{fill:#1A6652;}
	.st20{fill:#19614F;}
	.st21{clip-path:url(#SVGID_2_);}
	.st22{fill:none;stroke:#778E13;stroke-width:0.48;stroke-linecap:round;stroke-miterlimit:10;}
	.st23{fill:#799110;}
	.st24{fill:url(#SVGID_3_);}
	.st25{fill:#82A11B;}
	.st26{opacity:0.2;}
	.st27{fill:url(#SVGID_4_);}
	.st28{fill:#3BEFFF;}
	.st29{fill:url(#SVGID_5_);}
	.st30{fill:url(#SVGID_6_);}
	.st31{fill:#89A513;}
	.st32{fill:url(#SVGID_7_);}
	.st33{fill:none;stroke:#778E13;stroke-width:1.72;stroke-linecap:round;stroke-miterlimit:10;}
	.st34{fill:none;stroke:#CC7E00;stroke-width:1.86;stroke-linecap:round;stroke-miterlimit:10;}
	.st35{fill:none;stroke:#5B680E;stroke-width:1.07;stroke-linecap:round;stroke-miterlimit:10;}
	.st36{fill:none;stroke:#5B680E;stroke-width:0.65;stroke-linecap:round;stroke-miterlimit:10;}
	.st37{fill:none;stroke:#5B680E;stroke-width:0.37;stroke-linecap:round;stroke-miterlimit:10;}
</style>
<g>
	<g id="Layer_2_1_">
		<g id="OBJECTS">
			<ellipse class="st0" cx="386" cy="359.3" rx="26.4" ry="26.3"/>
			<path class="st1" d="M379.6,384.9c2.1,0.5,4.2,0.8,6.4,0.8c14.5,0.3,26.6-11.3,26.9-25.8S401.6,333.3,387,333
				c14.1,3.6,22.7,17.9,19.1,32c-3,11.7-13.5,19.9-25.5,19.9C380.2,384.9,379.9,384.9,379.6,384.9z"/>
			<path class="st2" d="M946.7,137.1c-1-4.2-2.8-9.1-6.6-10.6c-3.2-1.3-6.5,0.6-8.2,3.4s-2,6.4-2.4,9.8c-2,21.1-4,42.1-5.9,63.2
				c-2.8-27.3-7.7-54.4-14.6-81c-1.6-6.2-7.3-45.3-21.4-30.5c-2,2.1-2.3,5.5-2.5,8.6c-0.3,11.5,1.4,23,5.1,33.9
				C872,101.1,852.5,69,831.7,37.6c-3.1-4.6-7.9-10-12.4-8.1c-4.2,1.7-4,8.2-2.7,13.2c3.9,16.1,11.1,31.1,21.2,44.3
				c-16.1-19.2-33.1-37.5-51.1-55c-4.3-4.2-10-8.6-14.8-6.5c-3.5,1.5-4.9,6.1-4.2,10.3s2.8,8.2,5,12c22,38,49,72.8,80.3,103.5
				c-26.8-12.1-49-33.5-73.4-50.8c-2.8-2-6-4-9.1-3.4c-4.1,0.8-5.8,6.3-4.5,10.9s4.7,8.3,7.9,11.8c27.5,29.6,57.2,57.1,88.9,82.2
				c-12.1-7-35.3-24.2-48.8-22.9c-19.2,1.8-14,20.2-1,32.6c25,24,51.8,46,80.2,65.8l-48.2-17.6c-5.7-2.1-13.1-3.5-15.7,1.7
				c-0.8,1.9-1,4.1-0.4,6.1c1.8,7.8,9.4,12.9,16.1,16.8l40.2,23.5l6.8,4c1.7-0.9,3.5-1.5,5.4-2l84-50.1l-3.5-60.9
				c-0.3-4.5-1.8-10.5-5.9-11.1c-2.9-0.4-4.9,2.3-6.2,4.8c-6.3,12.6-7.1,28-7.8,43c-1.9-19.9-3.7-39.8-5.6-59.7
				C950.9,163,949.7,149.9,946.7,137.1z"/>
			<path class="st2" d="M520.9,509.2c0,0-65.4-72.4-80.1-74.1c-18.8-2.1-54.3,33.6-54.3,33.6s-56.1-54.9-75.5-54.9
				c-36.8-0.1-168.3,164.1-168.3,164.1h378.2V509.2z"/>
			<path class="st2" d="M438.3,441.7c-2.8-3.3-5.8-7.6-4.7-11.6c0.9-3.3,4.3-4.9,7.6-4.6s6.4,2.1,9.3,3.9
				c18.2,10.8,36.4,21.6,54.5,32.5c-20.5-18.3-39.5-38.2-56.8-59.5c-4.1-5-32.3-32.6-12.1-35.3c2.9-0.4,5.8,1.3,8.4,3.1
				c9.5,6.5,17.8,14.7,24.4,24.1c-15.8-34.1-30.2-68.8-43.3-104c-1.9-5.2-3.4-12.3,0.7-14.8c3.9-2.4,9,1.6,12.3,5.6
				c10.6,12.6,18.6,27.3,23.3,43.1c-6-24.3-10.8-48.9-14.3-73.6c-0.8-5.9-1.1-13.1,3.5-15.8c3.3-1.9,7.8-0.3,10.9,2.7
				s5,7.1,6.7,11.1c17.7,40.1,29.9,82.4,36.3,125.8c6-28.7,1.8-59.3,2.2-89.2c0.1-3.4,0.3-7.2,2.6-9.4c3.1-2.9,8.5-0.9,11.5,2.8
				s4,8.7,4.9,13.4c7.7,39.6,12.4,79.8,14,120.2c1.5-13.9,1.3-42.8,10.3-52.9c12.8-14.4,24.6,0.6,27,18.5
				c4.6,34.3,6.6,68.9,5.9,103.5c4.8-16.4,9.5-32.9,14.2-49.3c1.7-5.8,4.9-12.6,10.6-11.6c2,0.5,3.8,1.6,5.2,3.3
				c5.3,6,4.9,15.1,4.1,22.9c-1.6,15.4-3.2,30.8-4.8,46.2c-0.3,2.6-0.5,5.2-0.8,7.8c-1.7,0.9-3.3,1.9-4.8,3.2l-90,38.2L470,503.2
				c-3.5-2.9-7.4-7.6-5.5-11.3c1.4-2.6,4.7-2.6,7.6-2.1c13.9,2.3,26.9,10.8,39.4,19.1L466.5,469
				C456.8,460.4,446.9,451.7,438.3,441.7z"/>
			<path class="st2" d="M604.3,301.4c-2.8-3.3-5.7-7.6-4.7-11.6c0.9-3.3,4.3-4.9,7.6-4.6s6.4,2.1,9.3,3.9
				c18.2,10.8,36.4,21.6,54.5,32.5c-20.5-18.3-39.5-38.2-56.8-59.5c-4.1-5-32.3-32.6-12.1-35.3c2.9-0.4,5.8,1.3,8.4,3.1
				c9.5,6.5,17.8,14.7,24.4,24.1c-15.8-34.1-30.2-68.8-43.3-104c-1.9-5.2-3.4-12.3,0.7-14.8c3.9-2.4,9,1.6,12.3,5.6
				c10.6,12.6,18.6,27.3,23.3,43.1c-6-24.3-10.8-48.9-14.3-73.6c-0.8-5.9-1.1-13.2,3.5-15.8c3.3-1.9,7.8-0.3,10.9,2.7
				s5,7.1,6.7,11.1c17.7,40.1,29.9,82.4,36.3,125.8c6-28.7,1.8-59.3,2.2-89.2c0.1-3.4,0.3-7.2,2.6-9.4c3.1-2.9,8.5-0.9,11.5,2.8
				s4,8.7,4.9,13.4c7.8,39.6,12.4,79.8,14,120.2c1.5-13.9,1.3-42.8,10.3-52.9c12.8-14.4,24.6,0.6,27,18.5
				c4.6,34.3,6.6,68.9,5.9,103.4c4.8-16.4,9.5-32.9,14.2-49.3c1.7-5.8,4.9-12.6,10.6-11.6c2,0.5,3.9,1.6,5.2,3.3
				c5.3,6,4.9,15.1,4.1,22.9l-4.8,46.2l-0.8,7.8c-1.7,0.9-3.3,1.9-4.8,3.2l-90.1,38.2L636,362.9c-3.5-2.9-7.4-7.6-5.5-11.3
				c1.4-2.6,4.7-2.6,7.6-2.1c13.9,2.3,26.9,10.8,39.3,19.1l-45-39.7C622.7,320.1,612.9,311.4,604.3,301.4z"/>
			<path class="st3" d="M131.4,451.9c13,1.8,24,10.7,28.5,23c1.4,4,1.1,9.9-3.1,10.7c-2.6-2.5,0.8-6.6,3.9-8.6
				c7.4-4.6,14.9-9.2,23.1-11.8s17.7-2.9,25.4,1.1s13.2,12.8,11.6,21.3c2-5.9,5-11.8,10.1-15.3s12.8-3.8,17.1,0.6
				c1.8,2.1,3.1,4.6,3.8,7.3c2.3,7.5,3,15.4,2,23.1c-1.2-2.2,0.7-5.2,3.1-5.9s5.1,0.2,7.3,1.5c6.3,3.6,10.8,9.7,12.5,16.8
				c-2.5-4.1,1.7-9.8,6.5-10.2s9.2,2.7,12.5,6.3c4-8.9,16.7-12.4,24.8-6.9c-1.1-8.2,5.5-16.7,13.7-17.8S351,492.8,352,501
				c-3-16.9,18.6-28.9,32.8-22.3c3.9-17.4,28.5-26,42.3-14.7c1.2-7.6,10.6-11.5,18.1-9.8s13.4,7.4,18.9,12.8
				c-0.8-6.8,3.7-13.2,10.4-14.7c5.4,4.1,9.4,9.8,11.3,16.3c9.2-0.5,18.3,2,26,7.1c-0.8-15.1,15-28.8,29.9-25.8
				c-6.9-14.4,7.6-33.7,23.4-31.2c-0.8-14.3,12-27,26.2-29.3s28.7,4.1,39.4,13.6s18.4,22,25.7,34.3c8.5,14.2,17.1,29.5,16.7,46
				c-0.4,14.1-7.4,27.2-14.6,39.4c-10.8,18.1-22.9,36.1-40.4,47.8c-19.1,12.9-42.6,17.1-65.4,20.6
				c-122.4,18.9-246.4,27.3-367.4,53.6C147.7,653,105,662,73.4,640.1c-10.5-7.3-18.7-17.4-26.2-27.7c-12-16.3-23.1-33.2-33.1-50.8
				c-6.4-11.2-12.4-23-13.7-35.8c-3.5-34.5,17.8-74.1,38.7-100c12.4-15.3,26.2-23.6,43.1-33.1c8.2-4.6,15.1-9.3,24.8-6.2
				c10.8,3.4,18.3,13,24.7,21.8c5,7,10,14.4,11.1,22.9S139.6,449.5,131.4,451.9z"/>
			<path class="st4" d="M563.3,486.4l-2.2,0.5c0,0-0.2-0.9-0.7-2.4s-1.2-3.8-2.2-6.4c-2.5-6.4-5.4-12.7-8.8-18.7
				c-3.4-6-7.1-11.8-11.3-17.4c-1.6-2.3-3.2-4.1-4.2-5.4l-1.6-2l1.7-1.4l1.6,2.1c1,1.3,2.6,3.1,4.2,5.5c4.2,5.6,8,11.5,11.4,17.6
				c3.5,6.1,6.5,12.5,9,19c1,2.7,1.8,5,2.2,6.6S563.3,486.4,563.3,486.4z"/>
			<path class="st5" d="M532.4,421.8c3.2,3.7,3.3,8.7,0.3,11.2s-7.9,1.7-10.9-1.6s-3.3-8.2-0.5-11S529.1,418.3,532.4,421.8z"/>
			<path class="st4" d="M531,426.5c-0.6-0.5-1.3-0.9-2-1.3c-1.3-0.7-2.8-1.1-4.3-1.2c0,1.5,0.2,2.9,0.9,4.3c0.3,0.7,0.6,1.5,1,2.1
				c-2.7,0.3-5.2,1.4-7.2,3.2c3,2.3,6.8,3.3,10.5,2.9c1.6-0.2,3.1-0.6,4.6-1.4c1.1-1.2,1.8-2.7,2.3-4.2c0.8-2.7,0.9-6.6-1.8-11.4
				C533,421.4,531.6,423.8,531,426.5z"/>
			<path class="st4" d="M590,197.4L590,197.4c-5.5,2.1-10.2,5.8-13.6,10.6c-3.3,4.8-5,10.4-4.9,16.2c0,0-0.5-1.9-1.2-4.8
				s-1.6-6.7-2.4-10.6s-1.7-7.8-2.3-10.6c-0.3-1.4-0.5-2.7-0.7-3.5l-0.2-1.3c5.6-2.2,10.5-5.9,14.2-10.8c1.7-2.3,3.1-4.8,4-7.4
				c1.1-2.7,1.8-5.6,2.1-8.5l0,0c-5.6,1.6-10.6,4.9-14.5,9.3c-3.5,4.5-5.6,10-6,15.8l-1.5-8.7c-0.3-2.2-0.8-4.3-1-6
				s-0.3-2.7-0.3-2.7c2.6-5.3,3.7-11.3,3.2-17.2c-0.5-6-2.7-11.6-6.3-16.4l0,0c-3.2,5.2-4.7,11.2-4.5,17.3c0.6,6,2.9,11.8,6.9,16.4
				c0,0,0.1,0.6,0.2,1.5s0.3,2.3,0.6,4c0.5,3.3,1.3,7.6,2,12s1.6,8.7,2.3,11.9l1.2,5.3c-2.6-5.3-6.5-9.7-11.4-13
				c-4.9-3.2-10.6-5.1-16.5-5.3l0,0c1.1,3.1,2.7,6,4.6,8.6c1.8,2.4,4,4.5,6.5,6.2c5.1,3.4,11.1,5.1,17.2,5c0,0,0.4,1.9,1,4.9
				s1.7,6.7,2.7,10.6c1.8,7.7,4.1,15.3,4.1,15.3c-1.5-2.6-3.3-4.9-5.4-7c-2-2-4.2-3.8-6.7-5.2c-5.2-2.9-11-4.2-16.9-4l0,0
				c2.9,6.2,7,10.9,12,13.9c5.3,3.1,11.4,4.4,17.5,3.9c0,0,0.5,1.9,1.4,4.8s2,6.6,3.2,10.4l3.3,10.4l1.6,4.7
				c-6.8-10.3-17.2-15.6-29.9-14.5l0,0c2.9,5.5,7.3,10.1,12.8,13.1c5.4,2.8,11.6,3.8,17.7,3c0,0,0.6,1.9,1.6,4.7s2.3,6.6,3.7,10.3
				s2.8,7.4,3.8,10.2l1.8,4.6c-7.2-10-17.9-14.8-30.5-13.1l0,0c7,11.5,18.2,16.8,31.1,14.7l3.1,7.8c1.9,4.7,4.4,10.9,7.1,17.1
				s5.4,12.3,7.5,16.9s3.6,7.6,3.6,7.6l0.7-0.4c0,0-4.2-8.5-8-17.3c-2-4.3-3.8-8.7-5.2-12l-2.3-5.5c5-3.3,9-8,11.5-13.6
				c2.3-5.5,3-11.5,2-17.4l0,0c-10.6,6.6-15.8,17.2-14.1,29.4c0,0-3-7.3-5.9-14.7c-1.5-3.7-2.9-7.4-3.9-10.2l-1.7-4.6
				c10.9-6.9,16.2-17.9,14.8-30.3l0,0c-11,6.1-16.5,16.5-15.4,28.8c0,0-0.7-1.9-1.7-4.6L586,273c-1.3-3.7-2.5-7.5-3.4-10.4l-1.5-4.7
				c5.3-2.9,9.7-7.2,12.6-12.5c2.9-5.2,4.1-11.1,3.7-17l0,0c-5.3,2.5-9.7,6.4-12.8,11.4c-3,5-4.4,10.7-4,16.5c0,0-0.6-1.9-1.5-4.7
				s-1.9-6.7-3-10.5c-2.3-7.6-4.1-15.3-4.1-15.3c5.4-2.6,10-6.7,13.3-11.7C588.4,209.1,590,203.3,590,197.4z"/>
			<path class="st4" d="M783.4,112L783.4,112c5.3-2.5,11.2-3.3,17-2.5c5.7,0.9,11,3.6,15.1,7.7l-2.7-4.2c-1.5-2.6-3.7-5.8-6-9.1
				s-4.5-6.6-6.1-9c-0.8-1.2-1.6-2.2-2.1-2.9s-0.8-1.1-0.8-1.1c-5.5,2.5-11.6,3.5-17.6,2.8c-2.8-0.4-5.5-1.1-8.1-2.3
				c-2.7-1.1-5.3-2.6-7.6-4.4l0,0c5.1-2.9,10.9-4.3,16.7-4c5.7,0.6,11.2,2.9,15.6,6.6l-5.3-7.1c-1.3-1.8-2.6-3.6-3.7-4.8l-1.8-2.1
				c-5.7-1.8-10.7-5.1-14.6-9.6c-4-4.5-6.6-10-7.5-16l0,0c5.9,1.3,11.4,4.3,15.6,8.7c4,4.6,6.5,10.3,7.1,16.3l1,1.2
				c0.6,0.7,1.5,1.8,2.5,3.2c2,2.7,4.6,6.2,7.3,9.7s5.2,7.2,7,9.9l3.1,4.6c-2-5.5-2.5-11.4-1.5-17.2c1.1-5.8,3.7-11.2,7.6-15.6l0,0
				c1.4,2.9,2.5,6,3.1,9.2c0.5,3,0.5,6,0,9c-1,6-3.9,11.6-8.2,15.9l2.8,4.1l5.8,9.2c4.3,6.7,8.2,13.6,8.2,13.6
				c-0.8-2.9-1.3-5.8-1.3-8.8c-0.1-2.8,0.2-5.6,0.9-8.4c1.5-5.7,4.5-10.9,8.8-15l0,0c2.4,6.4,3.1,12.6,1.8,18.3
				c-1.5,5.9-4.7,11.3-9.3,15.3l2.5,4.3c1.5,2.6,3.4,6,5.3,9.5l5.2,9.6l2.3,4.4c-2.8-12,0.6-23.2,10.1-31.6l0,0
				c2,5.9,2.2,12.2,0.7,18.3c-1.7,5.8-5.2,11-10,14.8l2.3,4.4c1.4,2.6,3.2,6.2,4.9,9.8l4.8,9.8l2.1,4.5c-2.3-12.1,1.7-23.2,11.5-31
				l0,0c3.5,13-0.4,24.7-10.8,32.6l3.5,7.6c2,4.6,4.8,10.8,7.4,17s5.2,12.4,7,17.1s3,7.9,3,7.9l-0.8,0.3c0,0-3.3-8.9-7-17.7
				c-1.8-4.4-3.7-8.8-5.1-12.1l-2.4-5.4c-5.9,1.3-12,0.9-17.7-1.1c-5.6-2.1-10.5-5.8-14-10.6l0,0c12.2-3.1,23.4,0.5,31,10.2
				c0,0-3.2-7.2-6.6-14.4c-1.7-3.6-3.4-7.2-4.7-9.8l-2.1-4.5c-12.6,3.1-24.1-0.6-32.2-10.3l0,0c12-3.7,23.3-0.5,31.4,8.8l-2.2-4.4
				c-1.4-2.6-3.2-6.2-5-9.7s-3.7-7-5.1-9.6s-2.4-4.3-2.4-4.3c-5.8,1.8-11.9,2-17.7,0.4c-5.7-1.5-10.9-4.7-14.8-9.1l0,0
				c5.4-2.1,11.4-2.6,17.1-1.4c5.7,1.3,10.8,4.3,14.7,8.6l-2.4-4.3l-5.5-9.4c-3.9-6.9-8.2-13.6-8.2-13.6c-5.6,2.1-11.8,2.6-17.7,1.5
				C793,118.9,787.7,116.1,783.4,112z"/>
			<path class="st6" d="M549.3,400.5c0,0-28.8,0-38.9-22.4s12-36.3,35.5-31.2c0,0-24.7-14.7-37.5-46.1s-0.3-64.6,28.2-69.4
				s50.1,27,51.8,38c0,0,8.7-45,36.8-41.5s25.2,55.5,25.2,55.5L549.3,400.5z"/>
			<line class="st7" x1="622.7" y1="247.7" x2="633.1" y2="303.5"/>
			<line class="st7" x1="534" y1="263.6" x2="591.4" y2="348.7"/>
			<line class="st7" x1="525.4" y1="367.1" x2="560.2" y2="388"/>
			<polyline class="st7" points="559,261.3 555.8,296 520.9,295.2 			"/>
			<polyline class="st7" points="584.8,297.9 577.6,328.2 546.7,328.2 			"/>
			<polyline class="st7" points="637.8,259.9 627.2,273.5 611.1,263 			"/>
			<polyline class="st7" points="540.9,361.4 542.3,377.2 527.3,382.8 			"/>
			<path class="st4" d="M733.5,163.2l-2.2-0.4c0,0,0.2-0.9,0.3-2.5s0.4-4,0.5-6.8c0.2-6.9,0-13.8-0.8-20.6c-0.8-6.9-2-13.7-3.6-20.4
				c-0.6-2.8-1.3-5-1.7-6.6l-0.7-2.5l2.2-0.6c0,0,0.3,0.9,0.7,2.5s1.2,3.9,1.8,6.7c1.7,6.8,2.9,13.7,3.7,20.7c0.8,7,1.1,14,0.8,21
				c-0.1,2.9-0.3,5.3-0.5,6.9S733.5,163.2,733.5,163.2z"/>
			<path class="st5" d="M730.3,91.8c1.5,4.6-0.3,9.3-4.1,10.4s-8-1.5-9.4-5.7c-1.6-4.2,0.1-8.8,3.8-10.3S728.5,87.2,730.3,91.8z"/>
			<path class="st4" d="M727.2,95.5c-0.4-0.7-0.9-1.4-1.4-2c-0.9-1.2-2.1-2.1-3.5-2.8c-0.6,1.3-0.9,2.8-0.9,4.3c0,0.8,0,1.6,0.1,2.4
				c-2.6-0.8-5.3-0.7-7.8,0.2c1.9,3.3,5,5.7,8.6,6.8c1.5,0.5,3.1,0.6,4.7,0.5c1.5-0.7,2.7-1.7,3.8-3c1.8-2.2,3.4-5.7,2.8-11.2
				C730.9,91.6,728.7,93.3,727.2,95.5z"/>
			<path class="st8" d="M613.5,293.3c0,0-5.2-35.5,2.9-67.4s3.5-57.8-12.2-59.1S563.1,221,608.9,296L613.5,293.3z"/>
			<path class="st9" d="M608.7,291.1l1.3-0.5c-0.2-0.4-14.5-39.3-7.6-77.5l-1.4-0.3C594,251.4,608.5,290.7,608.7,291.1z"/>
			<path class="st4" d="M610.1,296.7c0,0-19.1-15.5-40.7-21.9s-35.3-18.2-30.5-27.9s46.3-5.2,74.4,48L610.1,296.7z"/>
			<path class="st8" d="M609.5,293.8l1.1-0.9c-0.2-0.2-18.2-22.6-43.5-32l-0.5,1.4C591.5,271.5,609.3,293.6,609.5,293.8z"/>
			<path class="st4" d="M879,96.8l-1.8,1c0,0-0.4-0.7-1.3-2s-2.1-3-3.8-5c-4-5-8.4-9.6-13.1-13.9c-4.7-4.3-9.7-8.4-14.9-12.1
				c-2.1-1.6-4-2.7-5.2-3.6l-2-1.3l1.1-1.8l2,1.3c1.3,0.9,3.2,2,5.3,3.6c5.3,3.8,10.3,7.9,15.1,12.2c4.8,4.4,9.3,9.1,13.4,14.2
				c1.7,2.1,3,3.9,3.8,5.2S879,96.8,879,96.8z"/>
			<path class="st5" d="M833.3,48.8c3.9,2.3,5.4,6.7,3.5,9.8s-6.5,3.8-10,1.7s-5.3-6.2-3.6-9.5S829.3,46.6,833.3,48.8z"/>
			<path class="st4" d="M833.4,53.2c-0.7-0.3-1.4-0.4-2.2-0.6c-1.4-0.2-2.8-0.2-4.1,0.2c0.4,1.3,1.1,2.5,2,3.5
				c0.5,0.6,0.9,1.1,1.5,1.6c-2.3,1-4.2,2.7-5.4,4.9c3.3,1.1,6.9,1,10.1-0.5c1.4-0.6,2.6-1.4,3.6-2.5c0.6-1.4,0.8-2.9,0.8-4.4
				c0-2.6-1.1-6.1-4.8-9.5C833.7,48.2,833.1,50.7,833.4,53.2z"/>
			<path class="st6" d="M696.3,246.8c0,0-21.1-19.5-13.4-42.8s33.5-18.6,47.3,1.1c0,0-8.2-27.5,3.7-59.3s43.6-47.7,67.9-32
				s18.5,53.7,12.3,63.1c0,0,36.9-27.2,55.2-5.6S850.3,229,850.3,229L696.3,246.8z"/>
			<line class="st7" x1="854" y1="184" x2="823.8" y2="232.1"/>
			<line class="st7" x1="778" y1="135.6" x2="762.5" y2="237.1"/>
			<line class="st7" x1="701.4" y1="206" x2="712.8" y2="244.9"/>
			<polyline class="st7" points="797.9,150.8 772.1,174.2 746.9,150.1 			"/>
			<polyline class="st7" points="792,195.3 766.2,212.7 743.5,191.8 			"/>
			<polyline class="st7" points="856.8,203.2 839.7,206 835,187.4 			"/>
			<polyline class="st7" points="716.7,212.2 707,224.9 692.2,218.8 			"/>
			<path class="st0" d="M702.5,197.2l-7,5.1c-3.8-3-7.4-6.3-10.8-9.9c-9.5-9.8-17-21.2-22.1-33.8l4.1-4.6l-5.3,1c-0.7-2-1.2-4-1.8-6
				l9.4-6.4l-10.5,0.7c-1-5.9-0.5-11.9,1.3-17.6c1.8-5.2,5.3-9.6,10-12.4c4-2.5,8.6-3.8,13.3-3.9c2.3,0,4.6,0.2,6.9,0.7
				c2.4,0.5,4.7,1.3,7,2.2c9.4,4,18.9,11.8,27.2,21.9l-5,9.1l9.6-3.1c1.7,2.4,3.4,5,5,7.6l-4.9,3.5l7,0.2c0.6,1,1.2,2.1,1.7,3.2
				c10,19.2,11.8,35.5,11.2,47s-3.9,18.3-3.9,18.3s-20.5,2.9-44.9-14.3L702.5,197.2z"/>
			<line class="st10" x1="740.2" y1="213.2" x2="673.4" y2="121.7"/>
			<line class="st10" x1="689.7" y1="144" x2="674.2" y2="142.3"/>
			<line class="st10" x1="698.9" y1="156.5" x2="704.3" y2="129.4"/>
			<line class="st10" x1="712.2" y1="174.8" x2="686.9" y2="175.2"/>
			<line class="st10" x1="724.1" y1="191.1" x2="727.3" y2="165.1"/>
			<path class="st0" d="M562.8,334.9l-2.1,6.6c-14.8-0.5-29.3-4.8-42-12.4l0.4-4.9l-2.9,3.2c-1.4-1-2.7-2-4-3l3-8.6l-6.4,5.5
				c-3.4-3.3-6-7.4-7.5-12c-1.3-4.2-1.1-8.7,0.5-12.7c1.4-3.5,3.7-6.6,6.7-8.8c1.5-1.1,3.1-2.1,4.8-2.9c1.8-0.8,3.7-1.5,5.6-1.9
				c7.9-1.9,17.7-1.4,28,1.1l1.1,8.2l4.7-6.6c2.3,0.7,4.6,1.6,6.9,2.5l-1.5,4.5l4.5-3.2c0.9,0.4,1.8,0.8,2.6,1.2
				c15.6,7.6,24.6,17.2,29.6,24.9s6.3,13.6,6.3,13.6s-11.8,11.6-35.8,12.2L562.8,334.9z"/>
			<line class="st11" x1="594.7" y1="327.2" x2="508" y2="300.2"/>
			<line class="st11" x1="529.1" y1="306.8" x2="518.3" y2="313.1"/>
			<line class="st11" x1="541" y1="310.5" x2="531.5" y2="290.4"/>
			<line class="st11" x1="558.3" y1="315.9" x2="542.2" y2="328.2"/>
			<line class="st11" x1="573.7" y1="320.7" x2="563.4" y2="302.5"/>
			<path class="st12" d="M793.7,251.4c0,0-15.5-16.9-7.8-35s27.9-12.6,37.6,4c0,0-4.7-22.4,6.9-47s37.9-35.1,56.2-20.9
				s11.2,44,5.6,51c0,0,31.2-19.1,44.3-0.8s-19.1,44.8-19.1,44.8L793.7,251.4z"/>
			<line class="st13" x1="923.4" y1="212" x2="896.1" y2="248.2"/>
			<line class="st13" x1="866.1" y1="168.4" x2="847" y2="248.1"/>
			<line class="st13" x1="800.5" y1="219.3" x2="807" y2="251"/>
			<polyline class="st13" points="880.9,181.8 858.8,198.7 840.4,177.8 			"/>
			<polyline class="st13" points="873.3,216.9 851.6,229 834.9,210.8 			"/>
			<polyline class="st13" points="924.3,227.4 910.6,228.5 908.1,213.4 			"/>
			<polyline class="st13" points="812.2,225.3 803.6,234.7 792.3,228.9 			"/>
			<path class="st4" d="M820.6,201.8l-3.6-4.1c1.6-2.6,3.5-5.1,5.4-7.4c5.5-6.6,12.1-12.1,19.7-16.2l3.1,2.2l-1-3.3
				c1.2-0.6,2.4-1.1,3.7-1.5l4.7,5.5l-1.2-6.5c3.6-1,7.4-1.2,11.1-0.4c3.4,0.7,6.4,2.7,8.5,5.4c1.8,2.3,3,5.1,3.4,8
				c0.2,1.4,0.2,2.9,0.1,4.4c-0.2,1.5-0.5,3.1-0.9,4.6c-1.8,6.2-6,12.6-11.8,18.6l-6-2.5l2.6,5.8c-1.4,1.2-2.9,2.5-4.4,3.7l-2.5-2.8
				l0.4,4.4c-0.6,0.4-1.2,0.9-1.9,1.3c-11.3,7.6-21.4,9.9-28.7,10.3c-4,0.3-8,0-11.8-1.1c0,0-3.3-12.6,5.8-29.1L820.6,201.8z"/>
			<line class="st14" x1="813.2" y1="226.6" x2="866" y2="178.3"/>
			<line class="st14" x1="853.1" y1="190" x2="853.1" y2="180.2"/>
			<line class="st14" x1="845.9" y1="196.7" x2="863.3" y2="198.2"/>
			<line class="st14" x1="835.4" y1="206.3" x2="833.3" y2="190.5"/>
			<line class="st14" x1="826" y1="214.9" x2="842.5" y2="215.1"/>
			<path class="st4" d="M675.3,211.4l-1.6,5.2c-11.7-0.3-23.1-3.5-33.2-9.4l0.3-3.8l-2.3,2.6c-1.1-0.8-2.2-1.5-3.2-2.4l2.3-6.8
				l-5,4.4c-2.7-2.6-4.8-5.8-6.1-9.3c-1.1-3.3-1-6.8,0.3-10c1.1-2.8,2.8-5.2,5.2-7c1.1-0.9,2.4-1.7,3.7-2.3c1.4-0.7,2.9-1.2,4.4-1.6
				c6.2-1.6,14-1.3,22,0.6l0.9,6.4l3.6-5.2c1.8,0.6,3.6,1.2,5.4,1.9l-1.1,3.5l3.6-2.6c0.7,0.3,1.4,0.6,2.1,0.9
				c12.4,5.8,19.5,13.4,23.6,19.4c2.3,3.2,4,6.8,5.1,10.6c0,0-9.2,9.3-28,10L675.3,211.4z"/>
			<line class="st14" x1="700.4" y1="205.1" x2="631.8" y2="184.6"/>
			<line class="st14" x1="648.5" y1="189.6" x2="640.1" y2="194.6"/>
			<line class="st14" x1="657.9" y1="192.4" x2="650.3" y2="176.6"/>
			<line class="st14" x1="671.6" y1="196.4" x2="659" y2="206.3"/>
			<line class="st14" x1="683.8" y1="200.1" x2="675.5" y2="185.8"/>
			<path class="st4" d="M893.5,239.7c-2.4,0-4.7-0.8-6.6-2.3c-2.8-2.4-3-5.7-4.3-7s0.8-0.8,4.5,0.8S894.5,238.4,893.5,239.7z"/>
			<path class="st4" d="M888.8,226c1.2-0.8,2.1-2,2.5-3.4c0.6-2.1-0.4-3.9-0.2-5s-0.7-0.1-2,1.9S887.9,225.6,888.8,226z"/>
			<path class="st8" d="M885.1,214.4c0.2,0.9,0.4,1.8,0.6,2.8c0.5,2.1,1,4.2,1.7,6.3c2.1,7.1,4.7,14,7.8,20.7
				c1.1,2.4,2.3,4.8,3.5,7.2c1.3,2.7,2.8,5.3,4.4,7.7c0.1,0.1,0.2,0.2,0.4,0.1c0.1-0.1,0.2-0.2,0.1-0.4l0,0c-1-2.4-2.4-4.6-3.6-6.9
				s-2.2-4.4-3.2-6.6c-1.8-3.9-3.5-7.8-5-11.8c-2-5.2-3.7-10.6-5.2-16c-0.3-1.1-0.5-2.2-0.9-3.3c-0.1-0.2-0.3-0.2-0.4-0.2
				C885.1,214.1,885,214.2,885.1,214.4L885.1,214.4z"/>
			<path class="st15" d="M876.4,203.8c0,0,0.9,13,9.2,11.6c0,0-0.2-4.6-2.6-7.3s-3.9-3.2-5.4-5.7
				C876.5,200.4,876.2,201.6,876.4,203.8z"/>
			<path class="st15" d="M885.6,215.3c0,0-2.8-5.5,0-10.1c3.2-5.2,2.2-6.1,2.8-6.2C890,198.8,893.4,212.9,885.6,215.3z"/>
			<path class="st15" d="M880.7,208.2c0,0,0.6-7.9,1.4-8.8c0.6-0.6,3.7,3.7,4.8,6.5s-0.5,6.7-2.1,6.7S880.7,208.2,880.7,208.2z"/>
			<path class="st16" d="M885.4,202.7c0.2,0.3,0.2,0.8-0.2,1c-0.3,0.2-0.8,0.1-1-0.2c-0.2-0.3-0.1-0.8,0.2-1
				C884.8,202.3,885.2,202.4,885.4,202.7z"/>
			<path class="st16" d="M880.9,202.5c0.2,0.3,0.2,0.8-0.1,1c-0.3,0.2-0.8,0.2-1-0.1c-0.2-0.3-0.2-0.8,0.1-1c0,0,0,0,0,0
				C880.2,202.1,880.7,202.2,880.9,202.5z"/>
			<path class="st16" d="M884.9,199.9c0.2,0.3,0.2,0.8-0.2,1c-0.3,0.2-0.8,0.1-1-0.2c-0.2-0.3-0.1-0.8,0.2-1
				C884.2,199.5,884.6,199.6,884.9,199.9z"/>
			<path class="st16" d="M880.5,201.1c0.1,0.2,0.1,0.4-0.1,0.6c0,0,0,0,0,0c-0.2,0.1-0.4,0.1-0.6-0.1c0,0,0,0,0,0
				c-0.1-0.2-0.1-0.4,0.1-0.6C880.1,200.9,880.4,201,880.5,201.1z"/>
			<path class="st16" d="M886.4,201.3c0.1,0.2,0.1,0.5-0.1,0.6c-0.2,0.1-0.5,0.1-0.6-0.1c-0.1-0.2-0.1-0.4,0.1-0.5
				C886,201.1,886.3,201.1,886.4,201.3z"/>
			<path class="st4" d="M901.4,166.8c-12.8-18.8-36.8-23.3-54-29.5c-14.1-5.1-21.2-13.6-21.2-18.7c0.1-15.2,17.5-13.5,30.3-7.7
				c21.1,9.5,44,34.2,44,34.2c-0.4-6.2-59-49.6-36.3-61.3c25.2-13,54.3,64.3,54.3,64.3c-5.1-25.6-46.1-107.8-10.8-101.8
				s28,115,28,115l-0.9,8.5"/>
			<path class="st17" d="M908.2,57.1c18.4,41.2,18.3,96.7,15.5,112.7"/>
			<path class="st17" d="M875.9,94.8c22.8,30.4,40.3,53.3,42.3,78"/>
			<path class="st17" d="M843.7,120.2c38.4,20.9,65.5,35.9,67.5,50.9"/>
			<path class="st0" d="M903,71.7l-4.8,6.1c-4-1.7-7.9-3.6-11.7-5.8c-10.5-6-19.8-14-27.4-23.6l2.4-4.9l-4.3,2.2
				c-1.1-1.6-2.1-3.1-3-4.7l6.5-7.8l-8.8,3.2c-2.3-4.8-3.4-10.1-3.2-15.4c0.3-4.9,2.2-9.5,5.5-13.1c2.8-3.1,6.4-5.4,10.4-6.6
				c2-0.6,4-1,6.1-1.1c2.2-0.1,4.4-0.1,6.6,0.2c9,1.1,19.1,5.4,28.8,12.1l-2.1,9l7.5-5c2.1,1.7,4.2,3.4,6.2,5.3l-3.3,4.2l6-1.6
				c0.8,0.8,1.5,1.5,2.2,2.3c13.3,14,18.9,27.5,21.2,37.6s1.2,16.5,1.2,16.5s-16.8,7.6-42.1-1.2L903,71.7z"/>
			<line class="st18" x1="939.3" y1="76.1" x2="859.3" y2="14.1"/>
			<line class="st18" x1="878.8" y1="29.2" x2="865.1" y2="31.6"/>
			<line class="st18" x1="889.8" y1="37.7" x2="887.8" y2="13.1"/>
			<line class="st18" x1="905.8" y1="50.1" x2="884.2" y2="56.7"/>
			<line class="st18" x1="920" y1="61.1" x2="916.3" y2="38"/>
			<ellipse class="st19" cx="753" cy="410.2" rx="211.6" ry="211.8"/>
			<path class="st20" d="M795.6,558.5c-104.5,0-189.2-84.8-189.2-189.4c0-68,36.4-130.9,95.5-164.6
				c-94.4,23.6-160.6,108.3-160.5,205.6c0,117,94.7,211.8,211.6,211.8c96.5,0,178-64.7,203.4-153.1
				C921.9,524.6,861.1,558.5,795.6,558.5z"/>
			<g>
				<defs>
					<ellipse id="SVGID_1_" cx="753" cy="410.2" rx="211.6" ry="211.8"/>
				</defs>
				<clipPath id="SVGID_2_">
					<use xlink:href="#SVGID_1_"  style="overflow:visible;"/>
				</clipPath>
				<g class="st21">
					<path class="st15" d="M718,252.4c2.2,0,4.6,1.1,4.9,2.4c0.5,1.9,0.9,3.6-1.3,5.4s-2.1,1.5-4.5,1.9c-1.5,0.4-3,0.7-4.6,0.9
						c-0.4,0-0.8-0.1-1.1-0.3c-0.9-0.8-1.2-3.9-1.7-6.3s-0.5-2.2,0.7-2.6c0.1,0,0.2-0.1,0.3-0.1c0.4,0,0.6,0.3,0.8,0.6
						c0.2,0.4,0.6,0.6,1,0.6c0.2,0,0.4,0,0.6-0.1c0.9-0.3,1.7-0.9,2.2-1.7C716.1,252.6,717.1,252.3,718,252.4z"/>
					<path class="st15" d="M973,376.3c-0.1,0.3-0.3,0.7-0.5,1.2c-0.8,2.2-1.1,3.1-1.9,3.3c-0.7,0-0.3-1.2-0.8-2s-1.1-3.8-1.5-5.5
						c-0.3-1.6-0.8-3.3-1.4-4.8c-0.6-0.4-0.7,0.6-0.9,1.7c-0.2,0.7-0.1,1.4,0.1,2.1c0.1,0.5,0.3,1,0.5,1.6c0.3,1,0.1,1.6-0.2,2
						c-0.1,0.1-0.2,0.2-0.3,0.2c-0.4-0.2-0.8-0.3-1.2-0.3c-1.4,0.1-1.4-0.3-2.3-0.9c-1.2-0.7-0.5-1.2-1.1-1.3
						c-0.4,0.1-0.7,0.2-1,0.4c-0.3,0.2-0.7,0.4-1.1,0.4c-1.4-0.7-1.4-3.7-2.1-4.9c-0.2-0.5-0.8-0.9-1.4-0.9c-1.9,0-2,1.3-2,3.5
						c0,0.3,0,0.6,0.1,0.8c0.2,1.2,0.9,0.8,0.9,1.6c0,0.7,0,1.4-0.2,2.1c-0.2,0.9-0.4,1.9-0.7,2.8c-0.6,2-2.1,2.2-2.7,4.2
						s-0.9,3.6-2.2,3.7c-0.4,0-0.7-0.2-0.8-0.5c-0.1-0.9-0.1-1.8,0-2.7l0,0c0-0.2,0-0.5,0-0.8c0-2.6-0.3-5.1-0.9-7.6
						c-0.1-0.4-0.1-0.8-0.1-1.2c-0.1-2.4,0.1-4.8,0.7-7.1c0.3-0.7,2.1-1.1,3.2-2.3c0.2-0.2,0.3-0.4,0.5-0.6c0.6-1,0.5-2.4-0.4-3.2
						c-1-0.9-1.6-2-1.8-3.3c-0.5-1.9-0.4-3.8-1.2-3.8c-1,0.5-0.7,1-0.4,2.8c0,0.3,0.1,0.6,0.1,0.9c0.1,1.1,0,1.4-0.2,1.5
						s-0.8-0.1-1.2,0.5c-0.2,0.3-0.5,0.4-0.8,0.4c-0.8,0-1.9-1-2.7-2.4c-1.2-1.9-0.6-3.7-1.9-5.6s-5.7-6.9-7.2-6.9
						c-1.6,0.4-1,1.4-2,1.9s-1.5,0.2-0.5,2.5c0,0.1,0.1,0.2,0.1,0.3c1,2.2,2.9,5.5,4.1,8.2c0.5,1,0.7,1.3,0.9,1.3
						c1.8-0.6,1.3,1.3,1.8,7.8c0.2,2.3,0.3,4.5,0.3,6.8c-0.1,1.4-0.2,2.8-0.5,4.2c-0.5,3.2-2,6.5-1.3,8.6c0.1,0.2,0.2,0.4,0.3,0.6
						c1.3,1.9,1.9,3.4,1.3,5.1l0,0c-0.4,1.1-0.8,1.5-1.2,1.5c-0.3,0-0.5-0.2-0.6-0.4c-0.1-0.2-0.3-0.3-0.5-0.3
						c-0.5,0-1.1,0.5-0.9,1.7c0.2,1.7-0.9,1.9-2.5,3.8s-0.6,1.8-0.8,3.8c0,0.3-0.1,0.6-0.1,0.9c-0.2,1.2-0.5,1.3-1.4,2.2
						c-0.2,0.3-0.6,0.5-1,0.5c-0.7-0.2-1.3-0.4-2-0.6c-1.6-0.4-0.2-1.5-1.2-1.9c-1.8,0.1-2.1-0.1-2.4-1c-0.8-1.9-0.9-3-2.1-3.1
						s-1,2.1-1.9,2.5c-0.5,0.2-0.7,0.6-1,0.6s-0.4-0.3-0.7-1.2c0-0.2-0.1-0.4-0.1-0.5c-0.2-1.8,0-3.7,0.7-5.4
						c0.1-0.5,0.6-0.8,1.1-0.7c0.3,0,0.5,0,0.8,0.1c0.3,0.1,0.5,0.1,0.8,0.1c0.2,0,0.4,0,0.7-0.1c0.2-0.1,0.5-0.2,0.8-0.2
						c0.1,0,0.1,0.1,0.6,0.4c0.8,0.4,1,1.2,2.4,1.2c0.8,0,1.2,0,1.5,0c2.7,0,2.8-0.2,3.8-3.5l0,0c1-3.2,0.1-1.5,0-2.5
						c0-0.5-0.1-0.8-0.2-1.2c-0.1-0.8-0.1-1.5,0-2.3c0.2-2,0.5-1.1,1.3-2.2c0.9-1,1.4-2.2,1.6-3.5c0.2-1.6,0-1.9,0.2-4.4
						s0.5-2.4,1-4.6c0,0,0-0.1,0-0.1c0.4-2.1,0.3-2.8-0.5-2.8c-1,0-0.5,2.2-1.5,4.3s-1.5,1.2-2.8,4.4c-0.7,1.6-1.5,2-2.4,2
						s-1.8-0.4-2.9-0.4h-0.8c-1.5,0-1.2,0.3-2.1,0.4s-1.3,1.1-1,3.3v0.1c0.1,0.8,0.1,1.7,0,2.5c-0.2,0.9-0.2,1.9-0.3,2.9
						c-0.1,2.7-0.2,1.2-1.4,3.3c-0.6,1.1-0.9,1.4-1.4,1.4s-0.8-0.2-1.7-0.3c-0.3,0-0.5-0.1-0.8-0.2c-0.7-0.4,0.1-1.3,0-2.8
						c-0.1-1.8,0.6-1.5,1.4-3.7c0-0.1,0.1-0.2,0.1-0.4c0.9-2.6-0.4-1.9-1.3-3.2c0,0,0,0,0-0.1c-0.9-1.2-0.5-0.8,0.3-3.8l0.1-0.2
						c0.8-3.4-0.2-1.9-1-2.6c-1-0.5-1.7-1.4-2-2.5c-0.5-1.8,0.8-2-0.6-2.3c-1.5,0-2,1.5-2.7,4.1c-0.4,1.3-0.2,1.8,0.1,2.1
						c0.8,0.4,1.4,1,1.9,1.7c1.2,2.1,0.8,0.8,0.1,2.5c0,0.1,0,0.1-0.1,0.2c-0.2,0.4-0.4,0.5-0.7,0.5c-1.1-0.1-1.4,0-1.7,0.6
						c-0.4,0.9-0.4,1.9-0.1,2.8c0.2,1.1,0.7,2.4,1,4c0.4,2,0.5,2.5,0.2,3.5c-0.2,0.5-0.5,1.2-0.9,2.3c-1.1,3.1-1.5,3.6-2.7,4.7
						s-2.8,1.1-3.7,1.6c-1,0.6-2,0.9-3.2,1c-2.3-0.3-4.6-1-6.6-2.1c-0.2-0.1-0.4-0.2-0.7-0.2c-0.8,0-0.5,1.6-1,3.2
						c-0.5,1.9-0.9,2-2.3,2.1c-0.3,0-0.7-0.1-0.8-0.4c-0.3-0.6-0.1-1.9,0.1-3.3c0.1-0.8,0.5-1.5,1.2-1.9c0.3-0.2,0.5-0.6,0.5-0.9
						c0-1,0.5-1.7-0.4-1.7c-0.3,0-0.6,0-0.9,0.1c-1.8,0.3-3,1.9-2.7,3.7c0,0.2,0.1,0.4,0.1,0.5c0,0.1,0.1,0.2,0.1,0.3
						c0.5,1.7,0.4,3.7,0.9,7c0,0.3,0.1,0.6,0.1,0.8c0.1,0.5,0,1-0.1,1.5c-0.3,0.6-0.9,0.7-1.3,2.1c-0.7,2.5-1.3,2.5-2.4,3.2
						c-0.7,0.2-0.8,0-1-0.1c-0.2-0.2-0.5-0.4-0.8-0.4c-1.7,0.3-0.8,1-1.8,1.5c-0.2,0.1-0.5,0.2-0.8,0.2c-0.5,0-1-0.3-1.4-0.7
						c-0.1-0.1-0.1-0.1-0.2-0.2c-0.5-0.7-0.2-1.1,0.4-3c0,0,0-0.1,0-0.1c0.7-1.9,0-1.9-0.7-4.3l0,0c-0.6-2.4-0.2-2.4-0.6-3.2
						c-0.6-0.3-0.9,0.8-1.5,1.6c-0.3,0.5-0.7,1-1,1.5c-0.4,0.9-0.6,1.9-0.4,2.9c0,0.3,0,0.6,0.1,0.9c0.2,2.4,0.5,4.7,1,7
						c0.4,1.7,0.2,1.1-0.1,2c0,0.1-0.1,0.1-0.1,0.2c-0.4,1.1-0.3,2.2-0.7,4.1s-0.2,1.4-1.3,1.7s-0.7,0.6-1.1,2.7
						c-0.2,0.5-0.1,1.1,0.2,1.6c0.3,0.5,0.9,0.6,0.9,1.4c0,0.6-0.1,1.1-0.5,1.6c-0.3,0.5-0.7,0.9-1.2,1.7c-1,1.6-1.1,0.9-0.3,1.5
						c0.2,0.2,0.4,0.4,0.6,0.6c0.7,0.9,1.4,1.9,2,2.9c0.8,1.2,0.8,0.4,2.3,1.5s0.9,0.9,1.3,2c0.2,0.6,0.2,1.3-0.2,1.9
						c-0.2,0.3-0.3,0.7-0.6,1.3c-0.4,0.9-0.6,1.2-0.8,1.2s-0.4-0.2-0.8-0.5c-0.8-0.6-1.4-1.3-2-2.1c-0.4-0.8-1-1.4-1.9-1.8
						c-1.3-0.6-1.8-2.2-2.6-3.3c-0.1-0.2-0.2-0.3-0.3-0.5c-0.2-0.6-0.3-1.2-0.1-1.8c0-0.3,0.1-0.7,0.1-1.2c0.2-2.1-0.1-0.7-1-2.6
						c-0.6-1.4-0.9-3-1-4.5c-0.1-1-0.1-2,0-2.9c0.1-0.7,0.2-1.1,0.3-1.6c0.2-0.8,0.2-1.6,0-2.4c0-0.1,0-0.1,0-0.2c0-0.1,0-0.2,0-0.3
						c-0.1-1.3,0.2-1.3-0.1-2.9c-0.3-1.7-0.7-3.3-1.2-5c-0.1-0.4-0.3-0.7-0.5-1c-0.7-0.9,1.1-2.4,2.2-2.4s1.8,0.8,2.4,2.8
						c0.3,1.2,0.5,2.5,0.6,3.7c0.4,0.2,1-0.8,1.3-1.8c0.1-0.4,0.2-0.8,0.2-1.2c-0.1-0.9-0.3-1.9-0.6-2.8c-0.1-0.6-0.2-1.1-0.2-1.7
						c0.1-1.6,0.7-0.9,1-2.7c0-0.1,0-0.2,0.1-0.3c0.3-2.1,0.8-3.2,1.9-7.1c0.1-0.5,0.2-0.9,0.3-1.4c0.5-2.8-0.3-3.6-1.2-4
						s-1.3,0.2-1.6-1c0-0.2-0.1-0.4-0.1-0.6c-0.2-1.4,0.4-2.7,0.7-4.2c0.2-0.7,0.2-1.4,0.1-2.2c-0.5-2.5-1-6.8-2-7.8s-3-1.4-4.7-1.5
						s-0.8,1.1-2,2.2s-3,1.5-4.9,1.9s-0.5,0.7-1.8,1.6c-0.3,0.2-0.6,0.4-1,0.4c-1.1-0.1-1.4,0-1.8,0.3c-1.3,0.9-0.4,3.5-1.1,5.1
						s-1,0.5-1.5,2.5c-0.1,0.6-0.1,1.3,0.2,1.9c0.4,0.8,1,1.4,1.6,2c0.5,0.6,0.3,1.4,0,2.5c-0.2,0.7-0.3,1.3-0.4,2
						c-0.2,2.2-0.7,2.2-2.2,2.4c-1.1,0-1.7-1.3-1.9-3c-0.1-0.5-0.1-1.1-0.1-1.6c0-0.6,0.1-1.3,0.3-1.8c0.4-0.5,0.5-1.2,0.3-1.9
						c-0.1-0.5-0.2-0.7-0.4-0.7s-0.5,0.9-1,1.6c-0.3,0.4-0.5,0.6-0.7,0.6c-0.3,0-0.6-0.9-1.2-3c-0.2-0.7-0.4-1.4-0.5-2.1
						c-0.1-1.4-0.1-2.7,0.1-4.1c0-0.3,0-0.5,0-0.8c0.2-1.8,0-3.7-0.6-5.4c-0.3-1.2-0.5-1.8-0.7-2.3c-0.3-0.9-0.2-1,0-2.7
						c0.2-1.1,0.4-2.1,0.5-3.1c0.2-1.4,0.2-2.6-0.3-3.2c-0.2-0.2-0.4-0.3-0.6-0.4c-1.3,0.3-1.6,0.1-2-0.3c-1.6-2.2-2.5-4.8-2.6-7.5
						c-0.1-2.7-0.1-2.8-1.3-3.8c-0.2-0.2-0.6-0.3-0.9-0.4c-0.4,0-0.8,0.1-1.1,0.2c-0.4,0.1-0.9,0.2-1.4,0.2c-0.4,0-0.7-0.1-1.1-0.2
						c-1.2-0.3-2.3-0.8-3.4-1.4c-1.3-0.6-1-1.8-2-3.6s-1.9-2-4.2-3.3s-2.3-0.7-4.1-2.4s-1.7-3.5-2.3-5.4c-0.2-0.6-0.8-0.9-1.4-0.7
						c-0.3,0.1-0.6,0.3-0.7,0.6c-0.4,0.7-0.3,1.6,0.1,2.4c0.3,0.6,0.6,1.1,0.7,1.8c0.2,0.9,0.2,1.9,0,2.8c0,0.5,0,1.1,0.1,1.6
						c0,0.1,0,0.1,0,0.2c0.2,1.4,0.6,1.7,1.6,1.7c0.6,0,1.4-0.1,2.5-0.2c2.8,0,1.8,0.8,3.8,1.3c0.3,0.1,0.6,0.2,0.9,0.2
						c0.7-0.1,0.8,0.1,1.5,1c1.6,1.9,1.2,2.7,2.2,4.9c0.6,1.3,0.3,1.8-0.1,2.3c-0.4,0.4-0.7,0.8-1,1.3c-0.8,1.6-2.8,4.9-4.8,5.8
						c-1.9,1-4.1,1.5-6.3,1.5c-2.7,0-1.7,1.6-4.7,1.8c-1.1,0-2.3-0.1-3.3-0.4c-0.7-0.2-1.5-0.4-2.3-0.4c-0.3,0-0.7,0.1-1,0.2
						c-1.2,0.8-2.2,1.4-1.8,3c0.1,0.4,0.2,0.7,0.2,0.9c0.1,0.6,0,0.5,0.6,1c1.1,0.4,2.3,0.6,3.5,0.5c0.5,0,1.1,0,1.5,0
						c1.2-0.1,1.8-1.4,2.4-1.4c0.2,0,0.3,0.1,0.6,0.4c0.9,1.3,1.1,0.6,1.7,2.7c0.2,0.7,0.2,1.4-0.2,2c-0.5,1-1.8,2.1-3.9,4.5
						c-3.3,3.8-2.1,3.5-4.4,4.4s-1.8,0.5-4.1,1.6s-4.7,4.8-6.5,6.6s-2.4,3.8-1.9,5.8l0,0c0.2,1.1,0.3,2.2,0.2,3.3c0,0.3,0,0.7,0,1
						c0,2.2-0.2,4.7-0.3,6.3c-0.1,2.9,0,2.9-1.4,5.4c-1,1.8-1.6,2.2-2.6,2.2c-0.5,0-1-0.1-1.4-0.2c-0.2,0-0.4,0-0.6,0
						c-1.3,0-1,1.1-2.2,3c-1.3,2.1-0.8,4.5-1.3,6.8s-1.8,2-2.9,2.2s-0.2,3.5-1.1,4.7s-2.4,3.3-4,4.1s-1.3,1.4-3.2,2.4
						c-1.5,0.8-2.5,1.5-4.4,1.5c-0.5,0-1,0-1.4-0.1c-2.8-0.5-2.9-0.7-3.7-2c-0.1-0.2-0.2-0.3-0.2-0.5c-0.1-0.6-0.1-1.3,0-1.9
						c0.1-0.7,0.1-1.5,0-2.2c-0.3-2.5-1.1-4.9-2.5-7.1c-0.9-1.4-0.8-5.4-0.8-7.3s-1-3.2-2.3-5c-1.2-1.6-1.1-2.3-1.3-3.9
						c0-0.2,0-0.4-0.1-0.6c-0.3-2,0.7-3.5,0.6-4.9s1.8-2.5,2.6-3.4l0.2-0.3c0.3-0.4,0.4-1,0.2-1.5c-0.2-0.5-0.5-1-0.8-1.4
						c-0.8-1.3-0.7-5.2-0.9-6.9s0-2.2-0.9-3.3c-1.3-1.8-2.5-3.7-3.4-5.7c0-0.1-0.1-0.2-0.1-0.3c-0.1-1.4,0.1-2.7,0.6-4
						c0.3-0.9,0.7,0.1,1-1.3c0-0.1,0.1-0.1,0.1-0.2c0.4-1.7-0.3-3.9-1.5-4c-0.7,0-1.3,0.2-1.9,0.5c-0.5,0.2-1.1,0.4-1.6,0.5
						c-1.3-0.7-1.5-2.3-2.2-4.3c-0.4-1-0.7-1.2-1.3-1.2c-0.3,0-0.5,0-0.8,0.1c-0.4,0.1-0.7,0.1-1.1,0.1c-0.2,0-0.5,0-0.7,0
						c-0.3,0-0.5-0.1-0.8-0.1c-1.2,0-0.6,0.6-1,1.8c-0.5,1.4-1.6,1.2-2.7,2.7c-0.2,0.3-0.6,0.5-1,0.5c-0.8,0-1.7-1-3.1-1.2
						c-1,0-1.9,0.3-2.7,0.8c-0.7,0.4-1.5,0.7-2.3,0.8c-2-0.6-6.2-4.5-7.2-5.2s-1.7-4-3.4-6.1s-2.5-1.6-3.1-3.6
						c-0.4-1.4-0.7-2.2-0.9-3.2l0,0c-0.1-0.6-0.1-1.2,0-1.9c0.1-1.4,0.3-2.5,0.3-3.8c0.1-0.8,0.1-1.7,0-2.5
						c-0.1-2.7-1.4-5.2-1.4-6.7l0,0c0.3-1.7,0.8-3.4,1.4-5c0.3-1,0.8-2.1,1.2-3.2c1.2-3,2.5-5.9,3.4-6.7c1.8-1.8,3.7-2.6,4.3-3.8
						c0.1-0.1,0.1-0.2,0.1-0.4c0.2-1.1-0.2-2.2-0.2-3.3V325c0-0.4,0.1-0.9,0.3-1.2c0.8-1.4,2.1-4.2,3.3-4.4c0.4,0,0.8,0.1,1.1,0.3
						c0.3,0.2,0.7,0.3,1.1,0.3c0.4,0,0.7-0.1,1.1-0.2c2.3-0.6,2.3-0.4,7.1-1.1s7.5-4.7,11.2-4.2c0.5,0.1,1.1,0.1,1.6,0.1
						c0.7,0,1.3-0.1,2-0.3c0.4-0.1,0.8-0.2,1.2-0.3c0.4,0,0.7,0.1,1,0.3c1.7,0.9,1,0.4,1.6,2.6c0.1,0.4,0.2,0.8,0.2,1.3
						c0,1-0.6,1.1-0.6,2.8c0,0.4,0,0.8,0.2,1.2c0.4,0.9,1.5,0.8,3.2,1.2c2.2,0.4,2.2-0.2,4.1,2.1s2.9,3.7,4.9,4.9
						c0.2,0.2,0.5,0.2,0.8,0.2c1.5,0,2-2.8,2.6-4.3c0.5-1.3,0.7-1.8,2-1.8c0.7,0,1.3,0.1,2,0.2c3,0.5,1.1,2.7,2.4,3.7
						c1.7,1.4,3.8,2.2,6,2.2c1.2,0.1,1.8,0.1,2.1,0.1c0.9,0,1.7,0.2,2.5,0.5c3,0.8,6.2-0.5,7.7-3.2c0.4-0.8,0.7-1.6,0.9-2.4
						c0.2-1,0.2-2.1-0.1-3.2c-0.1-0.9-0.4-1.2-0.8-1.2c-0.7,0.2-1.4,0.4-2.1,0.8c-1.7,0.2-1.8-1.3-2.1-3.1c0-0.2,0-0.4,0-0.6
						c0,0,0-0.1,0-0.1c0-1.8,1.8-2.7,2.2-4.3c1.8-1.2,3.8-2.3,5.8-3.3c0.8,0,1.4,2.5,3.6,4.8c0.9,1,1.5,1.4,1.9,1.4s1.2-2,1.5-4
						c0.3-1.2,0.2-2.4-0.4-3.5c-1.3-1.7-1.7-3.8-5-5.4c-0.6-0.3-1.3-0.5-1.9-0.5c-0.4,0-0.8,0.1-1.1,0.2c-0.3,0.1-0.7,0.2-1,0.2
						c-0.6,0-1.1-0.2-1.6-0.6c-2.6-1.7-1-2.2-3.5-3.9c-0.4-0.3-0.9-0.5-1.4-0.5c-1.4,0-2.1,1.9-3.7,2.7s-1.8,3.6-1.7,6.1
						c0,0.4,0,0.9,0.1,1.3c0.2,2.8,3.5,2.5,4.5,4c0.2,0.3,0.4,0.8,0.4,1.2c0,0,0,0,0,0.1c-0.2,1.1-0.6,2-1.4,2.8
						c-0.9,1.4-4.9,3.9-5.3,2.1c-0.6-2.7-2.4-4.9-2.7-6.8s-0.6-2-2.8-2.3c-0.3,0-0.7-0.1-1-0.1c-1.1,0-0.7,0.6-0.7,2.1
						c0,0.2,0,0.4,0,0.6c0.2,1.5,0.9,2,1.1,2.9c0,0,0,0.1,0,0.1c-0.1,0.9-2,2.2-3.3,2.2c-1.6-0.8-3.9-5.2-4.2-7.5c-0.1-1-0.1-2,0-3
						c0.2-1.2,0.1-2.4-0.3-3.5c-0.7-1.4-2.3-1.5-4.5-3c-1.5-1-1.7,0.6-1,2.3c0.3,0.8,0.8,1.4,1.4,2c2,1.7,1.9,2.3,2.2,3.3
						c0.1,0.3,0.2,0.7,0.2,1v0.1c-0.1,1.5-0.5,3-1.2,4.3c-1.3,2.8-1.6,3.7-3.6,3.7s-2.7-0.1-3.9-1.4c-1.1-1-1.7-2.5-1.5-4l0,0
						l0.1-0.1c0.6-0.9,1-1.9,1-3c0.2-2.1-0.2-4.6-1.7-5.5c-2.6-1.6-2.9-6.1-4.2-6.7c-1.5-0.1-2.5,2.6-3.5,3.3
						c-0.9,0.1-1.7,0-2.5-0.5c-0.7-0.4-1.4-0.6-2.2-0.7c-2.1,0.2-0.8,4.1-2.6,6.9c-0.7,1.1-0.9,1.3-1.2,1.3
						c-0.6-0.2-4.2,3.5-5.5,6.4c-0.4,1.1-1,1.4-1.6,1.4c-1.1,0-2.4-1.2-3.8-1.8c-2.2-0.9-3.3,0.3-5.3-2.5c-1.7-2.3-2.6-2.9-2.7-4.6
						c0-0.6,0-1.1,0.1-1.7c0.5-3.2,1-7.3,3.1-9.7c0.5-0.6,1-0.9,1.3-0.9s0.7,0.3,1,0.6s6.1-0.9,7.8-1.3c0.2,0,0.4-0.2,0.6-0.3
						c0.8-0.7,0.1-2.5-0.5-3.8c0-0.1,0-0.1-0.1-0.1c-0.8-1.6-3.4-2.8-3.9-3.5s-0.7-3.7-1.1-5.4s-3.8-0.4-5.6-0.4
						c-1.9-0.1-2.8-1.7-3.5-3.5c-0.1-0.2-0.1-0.5-0.1-0.7c0-0.1,0-0.2,0-0.3c0.1-2,2-5.3,3.6-6.1c2.4-1.4,4.1-3.6,4.9-6.2
						c0.4-1.7,1-3.4,1.7-5.1c0.3-0.8,0.7-1.2,1.2-1.2c0.7,0,5.2,3.9,4.7,8c0,0.3-0.1,0.6-0.1,0.8c-0.2,1.3-0.5,1.5-0.7,1.5
						c-0.5,0-0.8,0.1-1,0.8c-0.3,1.4-0.4,2.7-0.2,4.1c0.1,1.2,0.3,2.3,0.8,3.4c1.5,2.7,4.6,3.3,5,2.1c0.9-2.2,3.5-1.2,4.7-3.8
						c0.9-2,0.6-2.1,1.4-2.1c1.8,0,2.3,0,2.7,0.1s0.8,0.1,1.2,0.1c0.7,0,1.4-0.2,1.9-0.7c0.1-0.1,0.1-0.1,0.2-0.2
						c0.7-0.9,0-1.8-0.2-3.8c0-0.4-0.1-0.8-0.1-1.2c0-0.3,0-0.7,0-1c0.1-1.4,0.6-1,1.3-1.6c0.3-0.2,0.5-0.4,0.7-0.6
						c0.5-0.6,0.8-0.8,1.2-0.8c0.5,0.1,1,0.3,1.4,0.7c0.2,0.2,0.5,0.3,0.8,0.3c1.1,0,0.2-1.3-0.9-3.2c-0.6-1-1-1.6-1.4-1.6
						s-0.9,0.7-1.6,2.4c-0.5,1.4-0.8,1.8-1.3,1.8s-1.2-0.8-2.7-1.3c-2.7-0.9-2.9-1.7-3.3-3.2c0-0.1-0.1-0.2-0.1-0.3
						c-0.2-2.7,0.3-5.5,1.2-8c0.9-1.9,4.4-1.2,7.1-2.2s1.7-1.4,5.5-7.5s3.1-4.1,5.4-6.3c1.5-1.4,7-1.9,11.9-1.9
						c2.2,0,4.5,0.1,6.7,0.4c4,0.7,1.8,0.9,5,4.3s2.7,1.5,6.9,3.2s3.9,1.4,5.1,3.6c0.2,0.3,0.3,0.7,0.4,1.1c0.1,1.4-1.4,2.1-3,3.9
						c-0.3,0.4-0.8,0.7-1.4,0.7c-0.4,0-0.8-0.1-1.2-0.4c-0.3-0.2-0.6-0.3-0.9-0.3c-0.3,1.4,0,2.2,0.5,2.7c0.9,0.8,2.6,0.7,4.1,1.1
						c2.5,0.1,3.3-4.7,5.5-7.6c0.9-1.2,1.4-1.6,1.7-1.6c0.6,0,0.8,1.1,2.1,1.8c2,1.1,1.3,3.2,3.6,3.7c0.2,0.1,0.5,0.1,0.7,0.1
						c0.8,0,1.5-2.9,1.8-5.7c0.1-1.4,0-2.9-0.3-4.2c-0.2-0.5-0.3-1.1-0.3-1.6c0-0.1,0-0.2,0-0.3c0.2-1,1.3-1.1,4-3.1
						c3.8-2.9,1.1-0.7,3.6-3.4c0.8-0.8,1.2-1.1,1.7-1.1c1,0,1.9,1.5,5.8,1.6s5.4,2.2,5.5,3.7c0.1,0.4-0.1,0.9-0.4,1.2
						c-0.8,0.6-2.5,1.8-4,1.8c-0.3,0-0.7-0.1-1-0.2c-1.1-0.3-2.3-0.5-3.4-0.5c-2,0-4.1,0.4-4.2,1.7c-0.1,0.8-0.1,1.6,0.1,2.3
						c0.1,0.8,0.1,1.7,0,2.5v0.2c-0.3,1.6-0.6,2,0,2.2c0.4,0.1,1.2,0.1,2.7,0.3c3.8,0.4,3.1,0,7,0.9s3.1,4,5.5,4.4
						c0.2,0,0.3,0,0.5-0.1c1.3-0.4-0.3-2.7-0.8-5.3c-0.1-0.5-0.1-1-0.1-1.4c0.2-1.8,2-2.1,3.6-2.2c1.8,0,1.7,1,3.5,4.1
						s6.1,6,7.5,4.5c1-1.1,1.7-1.5,2.5-1.5s2,0.5,3.8,1.4c3.6,1.8,13.7-11.7,17.8-13.7c3.4-1.7,7.6-1.4,11.5-0.6
						c20.2,4.1,34.9,19.4,48,33.8c9,9.6,18.1,19.6,22.3,31.6c3,8.6,3.4,17.7,3.8,26.7c0.3,8.5-1.2,19.2,1.1,27.5
						c1.5,5.7,5.4,11.8,8.1,17.3C973.5,374.3,973.5,375.4,973,376.3z"/>
					<path class="st15" d="M692.9,430.2c-0.4,0.4,1.4,7.5,1.5,8.8c-0.1,2.4-0.6,4.8-1.6,6.9c-0.8,1.2-4,0.5-4.5,1
						c-1,0.8-1.6,2-1.7,3.3c0.1,1.6,0.4,3.2,0.8,4.8c0.2,0.9-0.9,1.9-1.8,3.8s-0.7,5.6-1.3,6.4c-0.2,0.3-0.5,0.5-0.9,0.4
						c-0.8,0-1,0-1.1,0.2c-0.3,0.6,0.2,3.2,0.1,4s-0.8,0.7-1.6,1s-0.4,1.1-0.7,1.7c-0.3,0.5-0.7,0.9-1.2,1.1c-0.2,0.1,0,1.2,0.2,2.5
						s-0.9,5.3-0.2,6.1s1.5,1.6,1.4,2.8c0,1.6,0.5,3.2,1.4,4.6c0.8,1.1,3,0.6,3.9,1.3s0.8,0.6-0.9,1.5c-0.5,0.3-1.1,0.5-1.7,0.5
						c-1.1-0.1-2.2-0.6-3-1.4c-0.8-0.6-1.2-0.7-1.4-0.7c-0.8,0.2-1,0.1-1.2,0.1c-1.1-0.4-1.7-2-3.7-3.7s-1.5-1.8-1.8-2.6
						s0.2-3.1-0.9-4.5c-0.7-0.8-1.4-1.6-2-2.5c-0.9-1.1-0.9-1.5-1.7-4.2s-0.5-3.9-1.7-7.1s-1.4-1.9-2.2-3.9s-1.3-9.7-2.5-12.6
						s-1.2-3.8-2.8-5.1s-7.9-3.5-8.6-4s-2.4-4.7-2.9-6.1s-5.3-4.6-5.7-4.9s0.2-1.7-0.1-3.8s-1.2-1.5-2-1.8s-0.9-3.5-0.9-5.4
						s3-2.5,3-5.1c0-1.1-0.1-2.2-0.5-3.3c-0.2-0.5-0.4-0.9-0.8-1.3c-0.4,0-1,0.6-1.7,1.3c-0.7,0.9-1.6,1.8-2.5,2.6
						c-0.3,0.2-0.7,0.3-1.1,0.3c-0.2,0-0.4,0-0.6,0c-0.2,0-0.5-0.1-0.7-0.1c-0.4,0-0.8,0.1-1.2,0.2c-1.9,0.5-6.2,4.4-7.2,4.7h-0.1
						c-0.6-0.2-0.7-2.8-1.3-4.3s-1.9-1.5-2.8-1.9c-1.4-0.1-3.5,1.6-5.2,1.7c-2,0-3.6-1.8-4.5-1.8s-3.2,3.3-4.1,4
						c-0.7,0.5-4.1,1.1-6.4,1.1c-0.7,0.1-1.4,0-2-0.3c-1-0.5-1.7-3.4-2.4-5.2c-0.1-0.5-0.3-0.9-0.6-1.2c-0.8-0.8-3.5-0.3-4.1-0.6
						c-1.2-0.9-2.3-2-3.2-3.2c-1.4-1.6-2.2-1.6-2.8-1.6s-0.2,1.1,0.9,2.5s3.7,2.9,4.6,3.8c0.2,0.2,0.3,0.3,0.4,0.5
						c0.5,1.1,0.5,2.9,0.2,2.9c-2.3-0.6-4.4-1.6-6.4-2.9c-0.4-0.3-0.8-0.6-1.1-0.9c-2-2-2.9-6.2-4.7-7.7c-0.3-0.3-0.7-0.5-1.2-0.5
						c-0.4,0-0.8,0.2-1.1,0.3c-0.3,0.2-0.7,0.3-1.1,0.3c-0.4,0-0.8-0.2-1.1-0.4c-2-1.4-3.8-6.4-4.8-7.2s-0.7-1.9-0.2-6.4
						s-1.8-13.7-3.8-18.4s-3.8-3.8-6.7-6.8s-3.1-6.2-4.1-6.2s-6.4,5.2-9.6,9s-0.7,5.5-1.9,11.6s-1.6,8.5-2.4,12.4
						c-0.2,1.1-0.6,2.2-1.1,3.2c-0.7,1.2-1.5,1.7-2.1,1.7c-0.8-0.4-1.1-1.5-0.9-3.5c0.1-0.7,0.2-1.5,0.4-2.2
						c0.8-3.3,0.2-3.6-1.5-5.6c-0.6-0.7-1-0.9-1.4-0.9c-0.2,0-0.4,0.1-0.5,0.1c-0.1,0.1-0.3,0.1-0.4,0.1c-0.2,0-0.4-0.1-0.6-0.5
						c-0.9-1.4,0.2-6.2,1.5-8.6s1.4-3.7,0.8-5.3s-1-0.2-1.6-2.1s1.9-4.1,2.9-5.3s-0.5-3.9-0.9-5.4c-0.6-2.1,4.2-12.2,5.1-14.7
						c2.2-6.6,8.6-10.5,11.6-17c7.8-16.8,15.4-34.3,27.3-49.2c5.7-7.1,28.4-29.4,39.3-20.1c0.6,0.6,1.2,1.1,2,1.4
						c2.1,0.5,3.5-1.8,4.8-3.3c2-2.3,7.5-3.8,10.6-2.1c3.5,1.9,1.1,4.4,2.9,6.2c0.8,0.8,2.5,0.7,4.7,2.3s3.3,2,4.5,3.6
						s3.5,1.1,4.8,3s0,1.8-0.7,3.3c-0.2,0.6-0.8,1-1.5,0.9c-0.5,0-1.5,2-2.2,4.1c-0.5,1.3-0.8,2.6-0.9,4c0.1,2.2,0.1,3.5-1.9,4
						c-1.1,0.4-2.3,0.5-3.4,0.5c-1.8,0-2.1,0-2.5,2s-1.1,5.7-0.7,6.6c0.3,0.4,0.7,0.6,1.2,0.5c0.9,0,1.8-0.3,2.6-0.8
						c1.5-0.9,1.1-4.7,2.4-5.6c0.2-0.2,0.5-0.3,0.9-0.3c0.9,0,1.6,1,2.5,1.5c1.1,0.8,0.7,1.6,0.1,3.4s-1.6,2.4-0.7,3.8
						c0.3,0.4,0.7,0.6,1.2,0.5c0.5,0,1-0.1,1.5-0.2c0.6-0.1,1.1-0.2,1.7-0.2c0.4,0,0.8,0.1,1.2,0.2c2.1,0.8,0.5,4.8,1.1,7.3
						s2.5,4.4,2.6,7.3s-0.3,2.5-1.9,4.3c-1.2,1.1-2.8,1.7-4.5,1.6c-0.8,0.1-1.6-0.1-2.3-0.6c-1-1-1.1-1-0.3-2.9s1.1-3.7,0.6-4
						c-0.7,0-1.5,1.6-2.7,3.5c-0.7,1.2-2,1.9-3.4,1.7c-2.2,0-1.8,1.7-1.2,3.2s2.4,1.7,3.9,2.5s1.8,1.2,1.4,2c-0.8,1.4-1.6,2.7-2.6,4
						c-0.7,1.1-1.6,2.1-2.7,2.9c-0.4,0.3-0.8,0.4-1.3,0.4c-0.2,0-0.4,0-0.6,0c-0.2,0-0.4,0-0.6,0c-0.6,0-1.2,0.2-1.9,1.3
						c-1.8,2.4-3.4,1.4-4.1,2.9c-0.6,1.3-0.4,3.3-1.2,6.4c-0.1,0.4-0.2,0.9-0.4,1.3c-1.3,4-4.5,6.8-5.2,7.8s0.5,4,1,5.6s0,2.1-0.9,3
						c-0.1,0.1-0.2,0.2-0.2,0.3c-0.9,1-1.6,3-2.4,4.9c-0.6,1.8-1.1,3.6-1.4,5.5c-0.5,2.2-0.8,4.3-1,4.6c-0.2,0.5-0.1,0.8,0.5,2.5
						s1.6,3.5,1.3,5.7c-0.2,1.6-1,2.3-1.9,2.3c-0.3,0-0.6-0.1-0.9-0.2c-1.5-0.5-0.6-1.4-1.3-4c-0.6-2.1-1.2-2.6-2.3-2.6
						c-0.3,0-0.6,0-0.8,0.1c-1.6,0.2-0.8,1.7-0.9,3.5s-0.8,1.9-3.9,2s-1.9,0.9-3.7,3.2s-1.5,7.2-1.3,10.1s1.9,5.4,3.2,7.5
						c0.4,0.8,1.1,1.3,2,1.3c0.8,0,1.8-0.3,2.9-0.5c2.3-0.2,0.9-2.3,1.3-6.8c0.2-2.2,0.4-2.6,0.7-2.6c1.1,0.1,1.5,0,1.9-0.3
						c2-1.5,1.8-2.6,2.6-4.2s2.3-2.4,2.4-3.9c0.2-1.1,1.2-1.8,2.2-1.7c0.2,0,0.5,0,0.7,0.1c0.3,0.1,0.7,0.1,1,0.1c0.4,0,0.9,0,1.4,0
						s1.1,0,1.7,0c1,0,2.1,0.1,3.1,0.3c1.4,0.3,2.8,0.5,4.2,0.5c0.9,0,1.9-0.1,2.8-0.4c0.7-0.3,1.4-0.5,2.2-0.5
						c0.6-0.1,1.2,0.2,1.5,0.8c0.6,1.1-0.6,1.7-2.5,2.5s-2.4,2.4-4.1,2.7s-1.5,1.9-2.2,3.2c-0.5,0.9-1.4,1.5-2.4,1.6
						c-1-0.6-1.5-1.8-1.2-3c0.4-1.2,0.5-2.9-1.1-3.3s-2.9-1-4.5-1c-2.1,0.1-1,1.8-2.1,2.6c-1,0.8-1.8,1.7-2.5,2.8
						c-0.6,0.8-0.6,3.8-0.7,6.2s0.2,3.9,0.8,4.3c0.9-0.2,1.7-0.5,2.4-1c0.8-0.6,1.7-0.9,2.7-1.1c0.2,0,0.4,0,0.5,0.1
						c1.2,0.9,1.6,5,2.3,6.7c0.4,1.1,1.3,1.9,2.5,2c0.5,0.1,0.9,0.1,1.4,0.1c2.3,0,4.9-3.5,5.9-4.5s0.2-4.5,1-5.4
						c0.4-0.5,1.2-1.6,2-2.8v-0.1c0.4-0.6,0.8-1.1,1.3-1.6c0.3-0.3,0.6-0.6,1-0.7c1.6-0.4,3.2-0.6,4.9-0.5c1.3,0,2.8,0,4.2,0.1
						c3.7,0.3,3.9,0.3,5.5,1.2s4.5,3.9,5.4,4.3c0.2,0.1,0.4,0.1,0.6,0.1c0.3,0,0.7-0.1,1-0.1c0.5-0.1,0.9-0.1,1.4-0.1
						c0.3,0,0.6,0,0.8,0.1c2.1,0.2,2.7,0.3,4.8,2.9c1.6,2,3.5,5.1,5,6.9c0.4,0.5,0.8,0.8,1.3,1.2c1.6,0.9,5.4,1.3,7.3,1.6
						s3.3,1.6,4.5,2.7c0.1,0.1,0.3,0.2,0.5,0.2c0.4,0,0.8-0.4,1.2-0.8s0.7-0.8,1.1-0.8c1.5,0.8,1.8,2.9,1.9,3.6s1,5.7,0.3,6.6
						S693.3,429.8,692.9,430.2z"/>
					<path class="st15" d="M804.7,220c-0.5,0.2-1.1,0.5-1.6,0.7c-3.7,1.5-15.5,0.2-19.1-1.3c-4.6-2.1-9.5-3.3-14.5-3.6
						c-6.9-0.4-18.4-1.9-21.8-1.3s-8.4-1.1-10.1-1.1s-6.7,2.4-6.9,2.5c-1.7,1-3.2,2.3-4.4,3.9c-1.6,1.9-5.2,1.9-6.2,3.2
						s0.2,8.3-2,9.1s-3.6,4.2-5.5,9.6c-1.2,3.2-0.9,4-1.3,4c-0.8-0.3-1.5-0.5-2.3-0.6c-0.5-0.1-1-0.2-1.6-0.2c-2,0-2.2,1.1-5.6,1.9
						c-4,1-4,2-5.2,5.2s-4,4.2-6.3,4.4h-0.4c-0.6,0-1.2-0.2-1.7-0.6c-0.4-0.4-1-0.6-1.5-0.6c-0.3,0-0.6,0-0.8,0.1
						c-2.4,0.6-2.9,6.7-4.3,8.8s-4.2,9.1-5.6,10c-1.2,0.7-2.5,1.1-3.8,1.1c-1.5,0.1-2.9-0.8-3.2-2.3c-1-3.6-3.6-9.2-3.9-12.1
						s2-11,2.4-14.1c0.3-2.2-0.2-4.5-1.6-6.3c-0.5-0.8-1.4-1.2-2.3-1.1c-6.3,0-11.2,8.8-14-1.9c-1.8-7,0-19.6,5.7-24.6
						c11.8-10.3,27.5-16.4,43.6-19.5s32.7-3.3,49.1-3.3c23.8,0,48.6,0.9,69.5,11.1c2,1,4.2,2.3,4.6,4.4c0.4,2.2-1.4,4.3-3.3,5.8
						C814.5,214.9,809.8,217.8,804.7,220z"/>
				</g>
			</g>
			<path class="st12" d="M663.7,483c0,0-1.4-11.3,6.8-16.4s14.9,2.9,14.1,12.4c3.6-7.2,9.2-13.1,16.2-17.1
				c11.7-6.6,25.4-3.4,28.8,7.5s-8,21-12.3,22.3c0,0,18.1,1.1,18.2,12.3c0.1,11.2-20.5,12.7-20.5,12.7L663.7,483z"/>
			<line class="st22" x1="727.6" y1="504" x2="706.2" y2="510.9"/>
			<line class="st22" x1="716.8" y1="470" x2="686.2" y2="496.9"/>
			<line class="st22" x1="675.6" y1="471.9" x2="669.2" y2="486.6"/>
			<polyline class="st22" points="719,479.7 705.2,480.2 703.7,466.5 			"/>
			<polyline class="st22" points="705.9,491.7 693.6,490.4 692,478.3 			"/>
			<polyline class="st22" points="723.5,510.5 717.6,507.1 720.9,500.2 			"/>
			<polyline class="st22" points="678.7,477.7 672.5,479.1 669.6,473.5 			"/>
			<path class="st8" d="M326.2,530.3H345c0,0-1.5-7.8-3.4-16.3l-3.6-5l3.1,2.6c-2.1-9.3-4.4-18.7-5.3-18.9c-1.3-0.3-5.2,17-7.6,28.2
				l4.4-2.4l-4.7,3.9C326.9,527,326.2,530.3,326.2,530.3z"/>
			<path class="st8" d="M302.6,536.3h13.9c0,0-1.1-5.8-2.5-12.1l-2.7-3.7l2.3,1.9c-1.5-6.9-3.2-13.8-3.9-14
				c-0.9-0.2-3.8,12.6-5.6,20.9l3.3-1.8l-3.5,2.9C303.1,533.9,302.6,536.3,302.6,536.3z"/>
			<path class="st8" d="M495.5,505.4h13.9c0,0-1.1-5.8-2.5-12.1l-2.7-3.7l2.3,1.9c-1.5-6.9-3.2-13.8-3.9-14
				c-0.9-0.2-3.8,12.6-5.6,20.9l3.3-1.8l-3.5,2.9C496,503,495.5,505.4,495.5,505.4z"/>
			<path class="st8" d="M430.2,463.7h13.9c0,0-1.1-5.8-2.5-12.1l-2.7-3.7l2.3,1.9c-1.5-6.9-3.2-13.8-3.9-14
				c-1-0.2-3.8,12.6-5.6,20.9l3.3-1.8l-3.5,2.9C430.7,461.2,430.2,463.7,430.2,463.7z"/>
			<path class="st8" d="M511.6,496h28c0,0-2.3-11.6-5-24.3l-5.4-7.5l4.6,3.9c-3.1-13.9-6.5-27.9-7.9-28.2
				c-1.9-0.5-7.7,25.3-11.3,42.1l6.6-3.6l-7,5.8C512.6,491.1,511.6,496,511.6,496z"/>
			<path class="st23" d="M349.2,473.4c4.9-0.9,11.7,2.6,13,7.4c0.4,1.6,0.5,3.4,1.3,4.9c0.7,1.2,2,2.1,2.9,3.2
				c2.4,3,2.6,7.2,0.6,10.5c-2.1,3.2-5.8,5-9.6,4.8c-3.1-0.1-6-1.3-9.1-1.4c-3.7-0.1-7.7,1.3-10.8-0.7c-2.1-1.4-3.1-4-3.6-6.5
				c-0.5-1.8-0.5-3.7,0.2-5.5c1.3-2.8,4.6-3.9,6.7-6.2c1.6-1.7,2.3-4.1,3.4-6.1S346.9,473.6,349.2,473.4"/>
			
				<linearGradient id="SVGID_3_" gradientUnits="userSpaceOnUse" x1="688.6989" y1="103.5933" x2="688.6989" y2="165.4033" gradientTransform="matrix(-0.88 0 0 -0.97 955.65 650.66)">
				<stop  offset="0" style="stop-color:#4F291A"/>
				<stop  offset="1" style="stop-color:#794E25"/>
			</linearGradient>
			<path class="st24" d="M356.3,494.3c-1.6,4.6-2.7,9.4-3.3,14.2c-0.5,6.4,1.1,40,1.1,40h-8c0,0,1.6-30.4,1.3-41.5
				c-0.1-5-4.4-16.1-4.4-16.1l1.5-0.9c0,0,2,8.3,3.2,9.9s1.6-6.4,1.6-6.4h1c0,0-0.5,6.6,0.9,7.3s3.8-6.8,3.8-6.8L356.3,494.3z"/>
			<path class="st25" d="M352.3,478.5c3.9,2.3,5.1,7.3,2.8,11.2c-0.3,0.5-0.7,1-1.2,1.5c-0.6,0.6-1.3,1.2-2,1.7l-4.4,3.3
				c-1.1,1-2.4,1.6-3.8,2c-0.7,0.1-1.5,0.1-2.2,0c-2.8-0.4-5.7-1.7-7-4.2c-0.8-1.9-1.1-3.9-0.9-5.9c-0.1-1.8,0.2-3.7,0.8-5.4
				c0.9-1.9,2.4-3.4,4.4-4.2c1.9-0.8,3.9-1.3,6-1.4c2.1-0.2,4.2,0.1,6.1,0.9"/>
			<path class="st4" d="M465.4,538.5h279.2c0,0-91.3-99.8-128.2-114.3c-15.8-6.2-41.9,9.4-68,30.9
				C506.9,489.3,465.4,538.5,465.4,538.5z"/>
			<g class="st26">
				
					<linearGradient id="SVGID_4_" gradientUnits="userSpaceOnUse" x1="347.7794" y1="117.4694" x2="359.5294" y2="251.7594" gradientTransform="matrix(-0.88 0 0 -0.97 955.65 650.66)">
					<stop  offset="1.000000e-02" style="stop-color:#008B17"/>
					<stop  offset="0.36" style="stop-color:#30A313"/>
					<stop  offset="1" style="stop-color:#85CC0D"/>
				</linearGradient>
				<path class="st27" d="M548.3,455.1c1.8,0.6,3.7,0.9,5.7,0.9c8.2-0.1,15.6-4.9,21.9-10.2c3.4-2.8,7.2-6,11.6-5.8
					c4.1,0.2,7.5,3.1,10.7,5.7c6.8,5.3,14.5,9.1,22.8,11.2c4.8,1.3,9.8,1.9,14.3,4c7.8,3.7,13.2,11.2,17.2,18.8s7.3,15.8,12.8,22.5
					c5.6,6.8,13.1,11.7,21.5,14c6.2,1.7,12.8,2,18.7,4.5c8.2,3.4,14.1,10.5,19.5,17.7h19.4c0,0-91.3-99.8-128.2-114.3
					C600.5,418,574.4,433.6,548.3,455.1z"/>
			</g>
			<path class="st28" d="M658.3,453.6c0,0,9,16.8-6.2,32c-11.7,11.7-42.7,7.1-56.1,12.8s-11.1,20.4-22.4,27.6
				c-16.1,10.3-19.8,3-29.5,12.1h-68.3c0,0,8.2-12.8,29.7-19.2s34.2,2.3,54.4-11.9s15.6-24.9,35.2-28.4s47.3,3.7,55-6
				c10.4-12.9-1.5-27.1-1.5-27.1S655.5,451.2,658.3,453.6z"/>
			<path class="st23" d="M472.2,369.4c11.1-2.2,26.8,5.9,29.7,16.8c1,3.8,1,7.8,3,11.2c1.7,2.8,4.5,4.8,6.7,7.2
				c5.6,6.5,5.9,16.7,1.3,23.9s-13.3,11.3-21.9,11.1c-7-0.2-13.8-3-20.9-3.2c-8.4-0.2-17.7,3-24.8-1.5c-4.9-3.1-7.1-9.1-8.3-14.8
				c-0.9-4.2-1.4-8.7,0.4-12.6c2.9-6.4,10.6-8.9,15.3-14.1c3.6-4,5.2-9.3,7.7-14S466.8,369.9,472.2,369.4"/>
			
				<linearGradient id="SVGID_5_" gradientUnits="userSpaceOnUse" x1="548.267" y1="110.2533" x2="548.267" y2="251.5933" gradientTransform="matrix(-0.88 0 0 -0.97 955.65 650.66)">
				<stop  offset="0" style="stop-color:#4F291A"/>
				<stop  offset="1" style="stop-color:#794E25"/>
			</linearGradient>
			<path class="st29" d="M488.4,417.1c0,0-6.3,17.2-7.4,32.5c-1.1,14.7,2.4,91.4,2.4,91.4h-18.3c0,0,3.6-69.4,2.9-94.9
				c-0.3-11.4-10.1-36.8-10.1-36.8l3.3-2c0,0,4.6,18.9,7.4,22.6s3.7-14.5,3.7-14.5h2.4c0,0-1.1,15,2.1,16.7s8.7-15.5,8.7-15.5
				L488.4,417.1z"/>
			<path class="st25" d="M479.4,381.1c8.8,5.3,11.7,16.8,6.4,25.6c-0.7,1.2-1.6,2.4-2.7,3.4c-1.4,1.4-3,2.6-4.6,3.8l-10,7.5
				c-2.7,2-5.5,4-8.7,4.5c-1.7,0.2-3.3,0.2-5-0.1c-6.4-0.9-13-3.9-16-9.7c-2.1-4.1-2.1-8.9-2-13.4c0.1-4.2,0.2-8.5,1.8-12.4
				c2-4.3,5.6-7.8,9.9-9.7c4.3-1.9,9-3,13.8-3.1c4.8-0.3,9.7,0,14,2.1"/>
			<path class="st23" d="M383,411.6c9.4-1.8,22.8,5,25.2,14.3c0.9,3.2,0.9,6.7,2.6,9.5c1.4,2.4,3.8,4,5.7,6.2
				c4.8,5.5,5,14.2,1.1,20.3s-11.4,9.6-18.6,9.4c-6-0.2-11.8-2.6-17.8-2.7c-7.2-0.2-15,2.6-21.1-1.3c-4.2-2.7-6-7.8-7-12.6
				c-0.8-3.6-1.2-7.4,0.3-10.7c2.5-5.4,9-7.6,13-12c3-3.4,4.4-7.9,6.5-12S378.5,412.1,383,411.6"/>
			
				<linearGradient id="SVGID_6_" gradientUnits="userSpaceOnUse" x1="649.8352" y1="93.3833" x2="649.8352" y2="213.5833" gradientTransform="matrix(-0.88 0 0 -0.97 955.65 650.66)">
				<stop  offset="0" style="stop-color:#4F291A"/>
				<stop  offset="1" style="stop-color:#794E25"/>
			</linearGradient>
			<path class="st30" d="M396.8,452.2c0,0-5.4,14.6-6.3,27.7c-0.9,12.5,2.1,77.8,2.1,77.8h-15.6c0,0,3.1-59,2.5-80.7
				c-0.3-9.7-8.6-31.3-8.6-31.3l2.8-1.7c0,0,3.9,16.1,6.3,19.2s3.1-12.4,3.1-12.4h2c0,0-1,12.8,1.8,14.2s7.4-13.2,7.4-13.2
				L396.8,452.2z"/>
			<path class="st25" d="M389.1,421.6c7.5,4.5,9.9,14.2,5.4,21.8c-0.6,1.1-1.4,2.1-2.3,2.9c-1.2,1.2-2.5,2.3-3.9,3.2l-8.6,6.3
				c-2.3,1.7-4.6,3.4-7.4,3.9c-1.4,0.2-2.9,0.2-4.3-0.1c-5.4-0.8-11.1-3.4-13.6-8.2c-1.8-3.5-1.8-7.5-1.7-11.4
				c0.1-3.6,0.1-7.3,1.6-10.5c1.7-3.7,4.7-6.6,8.5-8.2c3.7-1.6,7.7-2.5,11.7-2.7c4.1-0.2,8.3,0,11.9,1.8"/>
			<path class="st31" d="M337.1,538.5h194.2c0,0-63.5-69.4-89.2-79.5c-11-4.3-29.1,6.5-47.3,21.5C366,504.3,337.1,538.5,337.1,538.5
				z"/>
			<g class="st26">
				
					<linearGradient id="SVGID_7_" gradientUnits="userSpaceOnUse" x1="557.2493" y1="116.936" x2="565.4292" y2="210.336" gradientTransform="matrix(-0.88 0 0 -0.97 955.65 650.66)">
					<stop  offset="1.000000e-02" style="stop-color:#008B17"/>
					<stop  offset="0.36" style="stop-color:#30A313"/>
					<stop  offset="1" style="stop-color:#85CC0D"/>
				</linearGradient>
				<path class="st32" d="M394.8,480.5c1.3,0.4,2.6,0.6,4,0.6c5.7-0.1,10.8-3.4,15.2-7.1c2.4-2,5-4.2,8.1-4.1c2.9,0.1,5.2,2.2,7.4,4
					c4.7,3.7,10.1,6.3,15.9,7.8c3.4,0.9,6.8,1.3,10,2.8c5.5,2.5,9.2,7.8,12,13.1s5.1,11,8.9,15.7c3.9,4.7,9.1,8.1,15,9.8
					c4.3,1.2,8.9,1.4,13,3.1c5.7,2.4,9.8,7.3,13.5,12.3h13.5c0,0-63.5-69.4-89.2-79.5C431.1,454.7,412.9,465.5,394.8,480.5z"/>
			</g>
			<path class="st28" d="M388.8,485.7c0,0-3.5,7.5,4.8,15.1s14,4.2,30.9,10.9c16.9,6.8,7.2,14.3,23.9,17.4s27.5-0.7,33.7,9.5h-59.9
				c0,0-7.9-0.4-11.7-9.9s-4-14.7-12.9-17.7s-15.3-10.1-13.3-21.3C385.6,488.1,387.1,486.8,388.8,485.7z"/>
			<path class="st0" d="M826.1,559.6l22.8-5.4c0,0-7.3-86.5-24-101.2S783.5,450.5,826.1,559.6z"/>
			<path class="st0" d="M856.3,552.5l20.4-4.8c0,0,24.8-14.7,32.7-38s-13-27.5-24.9-15.5S856.3,552.5,856.3,552.5z"/>
			<path class="st4" d="M848.9,554.2l12.5-3c0,0,22.7-36.2,18-72.5s-30.2-18.1-35.3,15.9s-0.3,60.7-0.3,60.7L848.9,554.2z"/>
			<path class="st0" d="M818.7,561.4l-20.4,4.8c0,0-28.7-2-46.3-19.3s-0.7-30.5,15.3-25S818.7,561.4,818.7,561.4z"/>
			<path class="st4" d="M826.1,559.6l-12.5,3c0,0-36.6-22.3-48.7-56.7s18.9-29.7,38.8-1.6s27.5,54.1,27.5,54.1L826.1,559.6z"/>
			<path class="st33" d="M867.1,470.1c-5.2,40.8-18.3,91.9-18.3,91.9"/>
			<path class="st34" d="M897.5,504.4c-10.1,19.5-22.4,37.8-36.5,54.6"/>
			<path class="st33" d="M772,492.6c22.9,34.1,57.6,73.9,57.6,73.9"/>
			<path class="st34" d="M760.2,536.9c17.8,12.9,37,23.8,57.2,32.5"/>
			<line class="st34" x1="814.8" y1="459.7" x2="837.8" y2="556.9"/>
			<path class="st4" d="M754.7,318.6c-0.5-1.9-1.3-3.7-2.5-5.3c-3.6-5.1-9-9.2-14-12.7c0.4,0.3,0.1,6,0.2,6.8
				c0.3,4.8,1.3,9.6,3,14.1c2.4,5.6,7.7,9.5,13.3,11.1c0.8,0.2,0.8-7,0.8-7.6C755.5,322.9,755.2,320.7,754.7,318.6z"/>
			<path class="st4" d="M758.1,332.3c2.3-1.6,5.4-1.5,8-2.3c3.4-1.1,6-3.8,8.1-6.7c3.7-5.2,6.1-11.4,6.7-17.8
				c-4.8,0.9-9.2,3.1-13.5,5.5c-2.5,1.3-4.7,2.9-6.7,4.9C756.8,320.4,755.7,326.8,758.1,332.3z"/>
			<path class="st35" d="M761.8,356.8c-2.4-13.9-7.4-27.2-14.8-39.3"/>
			<path class="st35" d="M756.6,336.8c0.9-5.5,3.2-10.7,6.7-15"/>
			<path class="st35" d="M745.7,315.1c-2.3-4.3-4.6-8.6-6.7-13.1"/>
			<path class="st35" d="M780.1,305.7c-3.5,2.8-6.8,5.6-10.1,8.6"/>
			<path class="st35" d="M768.2,316.5c-1,0.7-1.9,1.6-2.7,2.5"/>
			<path class="st4" d="M637.9,216.1c-0.3-1.1-0.8-2.2-1.5-3.2c-2.2-3.1-5.5-5.6-8.5-7.7c0.2,0.2,0,3.6,0.1,4.1
				c0.2,2.9,0.8,5.8,1.8,8.6c1.6,3.3,4.5,5.8,8.1,6.8c0.5,0.1,0.5-4.2,0.5-4.6C638.4,218.7,638.2,217.4,637.9,216.1z"/>
			<path class="st4" d="M640,224.4c1.4-1,3.3-0.9,4.9-1.4c2-0.8,3.7-2.2,4.9-4.1c2.3-3.2,3.7-6.9,4.1-10.8c-2.9,0.7-5.7,1.8-8.2,3.4
				c-1.5,0.8-2.9,1.8-4.1,2.9C639.2,217.2,638.6,221.1,640,224.4z"/>
			<path class="st36" d="M642.2,239.3c-1.5-8.5-4.5-16.6-9-23.9"/>
			<path class="st36" d="M639,227.2c0.5-3.4,2-6.5,4.1-9.1"/>
			<path class="st36" d="M632.4,214c-1.4-2.6-2.8-5.3-4-8"/>
			<path class="st36" d="M653.3,208.3c-2.1,1.7-4.2,3.4-6.2,5.2"/>
			<path class="st36" d="M646.1,214.8c-0.6,0.4-1.2,1-1.7,1.5"/>
			<path class="st4" d="M832.5,260c-0.3-1.1-0.8-2.2-1.5-3.2c-2.2-3.1-5.5-5.6-8.5-7.7c0.2,0.2,0,3.6,0.1,4.1
				c0.2,2.9,0.8,5.8,1.8,8.6c1.6,3.3,4.5,5.8,8.1,6.8c0.5,0.1,0.5-4.2,0.5-4.6C833,262.6,832.9,261.3,832.5,260z"/>
			<path class="st4" d="M834.6,268.3c1.4-1,3.3-0.9,4.9-1.4c2-0.8,3.7-2.2,4.9-4.1c2.3-3.2,3.7-6.9,4.1-10.8
				c-2.9,0.7-5.7,1.8-8.2,3.4c-1.5,0.8-2.9,1.8-4.1,3C833.8,261,833.2,264.9,834.6,268.3z"/>
			<path class="st36" d="M836.8,283.2c-1.5-8.5-4.5-16.6-9-23.9"/>
			<path class="st36" d="M833.7,271c0.5-3.4,2-6.5,4.1-9.1"/>
			<path class="st36" d="M827.1,257.8c-1.4-2.6-2.8-5.3-4-8"/>
			<path class="st36" d="M848,252.1c-2.1,1.7-4.2,3.4-6.2,5.2"/>
			<path class="st36" d="M840.8,258.7c-0.6,0.4-1.2,1-1.7,1.5"/>
			<path class="st4" d="M653.3,409.2c-0.3-1.1-0.8-2.2-1.5-3.2c-2.2-3.1-5.5-5.6-8.5-7.7c0.2,0.2,0,3.6,0.1,4.1
				c0.2,2.9,0.8,5.8,1.8,8.6c1.6,3.3,4.5,5.8,8.1,6.8c0.5,0.1,0.5-4.2,0.5-4.6C653.8,411.8,653.7,410.5,653.3,409.2z"/>
			<path class="st4" d="M655.4,417.5c1.4-1,3.3-0.9,4.9-1.4c2-0.8,3.7-2.2,4.9-4.1c2.3-3.2,3.7-6.9,4.1-10.8
				c-2.9,0.7-5.7,1.8-8.2,3.4c-1.5,0.8-2.9,1.8-4.1,3C654.6,410.2,654,414.1,655.4,417.5z"/>
			<path class="st36" d="M657.6,432.4c-1.5-8.5-4.5-16.6-9-23.9"/>
			<path class="st36" d="M654.5,420.2c0.5-3.4,2-6.5,4.1-9.1"/>
			<path class="st36" d="M647.9,407c-1.4-2.6-2.8-5.3-4-8"/>
			<path class="st36" d="M668.8,401.3c-2.1,1.7-4.2,3.4-6.2,5.2"/>
			<path class="st36" d="M661.5,407.9c-0.6,0.4-1.2,0.9-1.7,1.5"/>
			<path class="st4" d="M860.8,320.2c-0.2-0.7-0.5-1.3-0.8-1.8c-1.3-1.7-3-3.2-4.8-4.4c0.1,0.8,0.1,1.6,0,2.4c0.1,1.7,0.4,3.3,1,4.9
				c0.9,1.9,2.6,3.3,4.6,3.9c0.3,0.1,0.3-2.4,0.3-2.6C861,321.6,860.9,320.9,860.8,320.2z"/>
			<path class="st4" d="M862,324.9c0.8-0.6,1.8-0.5,2.8-0.8c1.2-0.5,2.1-1.3,2.8-2.3c1.3-1.8,2.1-3.9,2.3-6.2
				c-1.7,0.4-3.2,1-4.7,1.9c-0.9,0.4-1.6,1-2.3,1.7C861.5,320.8,861.2,323,862,324.9z"/>
			<path class="st37" d="M863.2,333.4c-0.8-4.8-2.6-9.4-5.1-13.6"/>
			<path class="st37" d="M861.4,326.5c0.3-1.9,1.1-3.7,2.3-5.2"/>
			<path class="st37" d="M857.7,318.9c-0.8-1.5-1.6-3-2.3-4.5"/>
			<path class="st37" d="M869.6,315.7c-1.2,1-2.4,2-3.5,3"/>
			<path class="st37" d="M865.5,319.4c-0.4,0.2-0.7,0.5-1,0.9"/>
		</g>
	</g>
</g>
</svg>
