<?xml version="1.0" encoding="utf-8"?>
<!-- Generator: Adobe Illustrator 25.3.1, SVG Export Plug-In . SVG Version: 6.00 Build 0)  -->
<svg version="1.1" id="Layer_1" xmlns="http://www.w3.org/2000/svg" xmlns:xlink="http://www.w3.org/1999/xlink" x="0px" y="0px"
	 viewBox="0 0 925.1 538.5" style="enable-background:new 0 0 925.1 538.5;" xml:space="preserve">
<style type="text/css">
	.st0{clip-path:url(#SVGID_2_);}
	.st1{fill:#F7B000;}
	.st2{opacity:0.39;fill:#F7B000;enable-background:new    ;}
	.st3{fill:#AFDBB4;}
	.st4{fill:#FFFFFF;}
	.st5{fill:#91B31E;}
	.st6{fill:#F36089;}
	.st7{fill:#5F721F;}
	.st8{fill:none;stroke:#1A1F04;stroke-width:1.2;stroke-linecap:round;stroke-miterlimit:10;}
	.st9{fill:#778E13;}
	.st10{fill:#6A7A0F;}
	.st11{fill:none;stroke:#CC7E00;stroke-width:0.96;stroke-linecap:round;stroke-miterlimit:10;}
	.st12{fill:none;stroke:#CC7E00;stroke-width:0.77;stroke-linecap:round;stroke-miterlimit:10;}
	.st13{fill:#D4DD77;}
	.st14{fill:none;stroke:#778E13;stroke-width:0.96;stroke-linecap:round;stroke-miterlimit:10;}
	.st15{fill:none;stroke:#778E13;stroke-width:0.61;stroke-linecap:round;stroke-miterlimit:10;}
	.st16{fill:#108F6E;}
	.st17{fill:#ED9200;}
	.st18{fill:none;stroke:#778E13;stroke-width:1.6;stroke-linecap:round;stroke-miterlimit:10;}
	.st19{fill:none;stroke:#CC7E00;stroke-width:0.86;stroke-linecap:round;stroke-miterlimit:10;}
	.st20{fill:#1A6652;}
	.st21{fill:#19614F;}
	.st22{clip-path:url(#SVGID_4_);}
	.st23{fill:none;stroke:#778E13;stroke-width:0.48;stroke-linecap:round;stroke-miterlimit:10;}
	.st24{fill:#799110;}
	.st25{fill:url(#SVGID_5_);}
	.st26{fill:#82A11B;}
	.st27{opacity:0.2;}
	.st28{fill:url(#SVGID_6_);}
	.st29{fill:#3BEFFF;}
	.st30{fill:url(#SVGID_7_);}
	.st31{fill:url(#SVGID_8_);}
	.st32{fill:#89A513;}
	.st33{fill:url(#SVGID_9_);}
	.st34{fill:none;stroke:#778E13;stroke-width:1.72;stroke-linecap:round;stroke-miterlimit:10;}
	.st35{fill:none;stroke:#CC7E00;stroke-width:1.86;stroke-linecap:round;stroke-miterlimit:10;}
	.st36{fill:none;stroke:#5B680E;stroke-width:1.07;stroke-linecap:round;stroke-miterlimit:10;}
	.st37{fill:none;stroke:#5B680E;stroke-width:0.65;stroke-linecap:round;stroke-miterlimit:10;}
	.st38{fill:none;stroke:#5B680E;stroke-width:0.37;stroke-linecap:round;stroke-miterlimit:10;}
	.st39{clip-path:url(#SVGID_2_);fill:none;}
</style>
<defs>
	<rect id="SVGID_1_" y="1.3" width="925.1" height="538.5"/>
</defs>
<clipPath id="SVGID_2_">
	<use xlink:href="#SVGID_1_"  style="overflow:visible;"/>
</clipPath>
<g class="st0">
	<g id="Layer_2_1_">
		<g id="OBJECTS">
			<ellipse class="st1" cx="390.9" cy="360.6" rx="26.4" ry="26.3"/>
			<path class="st2" d="M384.5,386.2c2.1,0.5,4.2,0.8,6.4,0.8c14.5,0.3,26.6-11.3,26.9-25.8s-11.3-26.6-25.8-26.9
				c14.1,3.6,22.7,17.9,19.1,32c-3,11.7-13.5,19.9-25.5,19.9C385.2,386.2,384.8,386.2,384.5,386.2z"/>
			<path class="st3" d="M951.6,138.4c-1-4.2-2.8-9.1-6.6-10.6c-3.2-1.3-6.5,0.6-8.2,3.4s-2,6.4-2.4,9.8c-2,21.1-4,42.1-5.9,63.2
				c-2.8-27.3-7.7-54.4-14.6-81c-1.6-6.2-7.3-45.3-21.4-30.5c-2,2.1-2.3,5.5-2.5,8.6c-0.3,11.5,1.4,23,5.1,33.9
				c-18.3-32.8-37.8-64.9-58.6-96.3c-3.1-4.6-7.9-10-12.4-8.2c-4.2,1.7-4,8.2-2.7,13.2c3.9,16.1,11.1,31.1,21.2,44.3
				c-16.1-19.2-33.1-37.5-51.1-55c-4.3-4.2-10-8.6-14.8-6.5c-3.5,1.5-4.9,6.1-4.2,10.3s2.8,8.2,5,12c22,38,49,72.8,80.3,103.5
				c-26.8-12.1-49-33.5-73.4-50.8c-2.8-2-6-4-9.1-3.4c-4.1,0.8-5.8,6.3-4.5,10.9s4.7,8.3,7.9,11.8c27.5,29.6,57.2,57.1,88.9,82.2
				c-12.1-7-35.3-24.2-48.8-22.9c-19.2,1.8-14,20.2-1,32.6c25,24,51.8,46,80.2,65.8l-48.2-17.6c-5.7-2.1-13.1-3.5-15.7,1.7
				c-0.8,1.9-1,4.1-0.4,6.1c1.8,7.8,9.4,12.9,16.1,16.8l40.2,23.5l6.8,4c1.7-0.9,3.5-1.5,5.4-2l84-50.1l-3.5-60.9
				c-0.3-4.5-1.8-10.5-5.9-11.1c-2.9-0.4-4.9,2.3-6.2,4.8c-6.3,12.6-7.1,28-7.8,43c-1.9-19.9-3.7-39.8-5.6-59.7
				C955.8,164.3,954.6,151.2,951.6,138.4z"/>
			<path class="st3" d="M525.8,510.5c0,0-65.4-72.4-80.1-74.1c-18.8-2.1-54.3,33.6-54.3,33.6s-56.1-54.9-75.5-54.9
				c-36.8-0.1-168.3,164.1-168.3,164.1h378.2V510.5z"/>
			<path class="st3" d="M443.2,443c-2.8-3.3-5.8-7.6-4.7-11.6c0.9-3.3,4.3-4.9,7.6-4.6s6.4,2.1,9.3,3.9
				c18.2,10.8,36.4,21.6,54.5,32.5c-20.5-18.3-39.5-38.2-56.8-59.5c-4.1-5-32.3-32.6-12.1-35.3c2.9-0.4,5.8,1.3,8.4,3.1
				c9.5,6.5,17.8,14.7,24.4,24.1c-15.8-34.1-30.2-68.8-43.3-104c-1.9-5.2-3.4-12.3,0.7-14.8c3.9-2.4,9,1.6,12.3,5.6
				c10.6,12.6,18.6,27.3,23.3,43.1c-6-24.3-10.8-48.9-14.3-73.6c-0.8-5.9-1.1-13.1,3.5-15.8c3.3-1.9,7.8-0.3,10.9,2.7
				s5,7.1,6.7,11.1c17.7,40.1,29.9,82.4,36.3,125.8c6-28.7,1.8-59.3,2.2-89.2c0.1-3.4,0.3-7.2,2.6-9.4c3.1-2.9,8.5-0.9,11.5,2.8
				s4,8.7,4.9,13.4c7.7,39.6,12.4,79.8,14,120.2c1.5-13.9,1.3-42.8,10.3-52.9c12.8-14.4,24.6,0.6,27,18.5
				c4.6,34.3,6.6,68.9,5.9,103.5c4.8-16.4,9.5-32.9,14.2-49.3c1.7-5.8,4.9-12.6,10.6-11.6c2,0.5,3.8,1.6,5.2,3.3
				c5.3,6,4.9,15.1,4.1,22.9c-1.6,15.4-3.2,30.8-4.8,46.2c-0.3,2.6-0.5,5.2-0.8,7.8c-1.7,0.9-3.3,1.9-4.8,3.2l-90,38.2l-47.2-38.8
				c-3.5-2.9-7.4-7.6-5.5-11.3c1.4-2.6,4.7-2.6,7.6-2.1c13.9,2.3,26.9,10.8,39.3,19.1l-44.9-39.8C461.7,461.7,451.9,453,443.2,443z"
				/>
			<path class="st3" d="M609.2,302.7c-2.8-3.3-5.7-7.6-4.7-11.6c0.9-3.3,4.3-4.9,7.6-4.6s6.4,2.1,9.3,3.9
				c18.2,10.8,36.4,21.6,54.5,32.5c-20.5-18.3-39.5-38.2-56.8-59.5c-4.1-5-32.3-32.6-12.1-35.3c2.9-0.4,5.8,1.3,8.4,3.1
				c9.5,6.5,17.8,14.7,24.4,24.1c-15.8-34.1-30.2-68.8-43.3-104c-1.9-5.2-3.4-12.3,0.7-14.8c3.9-2.4,9,1.6,12.3,5.6
				c10.6,12.6,18.6,27.3,23.3,43.1c-6-24.3-10.8-48.9-14.3-73.6c-0.8-5.9-1.1-13.2,3.5-15.8c3.3-1.9,7.8-0.3,10.9,2.7
				s5,7.1,6.7,11.1c17.7,40.1,29.9,82.4,36.3,125.8c6-28.7,1.8-59.3,2.2-89.2c0.1-3.4,0.3-7.2,2.6-9.4c3.1-2.9,8.5-0.9,11.5,2.8
				s4,8.7,4.9,13.4c7.8,39.6,12.4,79.8,14,120.2c1.5-13.9,1.3-42.8,10.3-52.9c12.8-14.4,24.6,0.6,27,18.5
				c4.6,34.3,6.6,68.9,5.9,103.4c4.8-16.4,9.5-32.9,14.2-49.3c1.7-5.8,4.9-12.6,10.6-11.6c2,0.5,3.9,1.6,5.2,3.3
				c5.3,6,4.9,15.1,4.1,22.9l-4.8,46.2l-0.8,7.8c-1.7,0.9-3.3,1.9-4.8,3.2l-90.1,38.2l-47.1-38.8c-3.5-2.9-7.4-7.6-5.5-11.3
				c1.4-2.6,4.7-2.6,7.6-2.1c13.9,2.3,26.9,10.8,39.3,19.1l-45-39.7C627.6,321.4,617.8,312.7,609.2,302.7z"/>
			<path class="st4" d="M136.3,453.2c13,1.8,24,10.7,28.5,23c1.4,4,1.1,9.9-3.1,10.7c-2.6-2.5,0.8-6.6,3.9-8.6
				c7.4-4.6,14.9-9.2,23.1-11.8s17.7-2.9,25.4,1.1s13.2,12.8,11.6,21.3c2-5.9,5-11.8,10.1-15.3s12.8-3.8,17.1,0.6
				c1.8,2.1,3.1,4.6,3.8,7.3c2.3,7.5,3,15.4,2,23.1c-1.2-2.2,0.7-5.2,3.1-5.9s5.1,0.2,7.3,1.5c6.3,3.6,10.8,9.7,12.5,16.8
				c-2.5-4.1,1.7-9.8,6.5-10.2s9.2,2.7,12.5,6.3c4-8.9,16.7-12.4,24.8-6.9c-1.1-8.2,5.5-16.7,13.7-17.8s16.7,5.5,17.7,13.7
				c-3-16.9,18.6-28.9,32.8-22.3c3.9-17.4,28.5-26,42.3-14.7c1.2-7.6,10.6-11.5,18.1-9.8s13.4,7.4,18.9,12.8
				c-0.8-6.8,3.7-13.2,10.4-14.7c5.4,4.1,9.4,9.8,11.3,16.3c9.2-0.5,18.3,2,26,7.1c-0.8-15.1,15-28.8,29.9-25.8
				c-6.9-14.4,7.6-33.7,23.4-31.2c-0.8-14.3,12-27,26.2-29.3s28.7,4.1,39.4,13.6s18.4,22,25.7,34.3c8.5,14.2,17.1,29.5,16.7,46
				c-0.4,14.1-7.4,27.2-14.6,39.4c-10.8,18.1-22.9,36.1-40.4,47.8c-19.1,12.9-42.6,17.1-65.4,20.6
				c-122.3,18.9-246.4,27.3-367.4,53.6c-37.6,8.1-80.3,17.1-111.9-4.8c-10.5-7.3-18.6-17.4-26.2-27.7C40,597.4,29,580.5,19,562.9
				c-6.4-11.2-12.4-23-13.7-35.8C1.8,492.5,23.1,453,44,427.1c12.4-15.3,26.2-23.6,43.1-33.1c8.2-4.6,15.1-9.3,24.8-6.2
				c10.8,3.4,18.3,13,24.7,21.8c5,7,10,14.4,11.1,22.9S144.5,450.7,136.3,453.2z"/>
			<path class="st5" d="M568.2,487.7l-2.2,0.5c0,0-0.2-0.9-0.7-2.4s-1.2-3.8-2.2-6.4c-2.5-6.4-5.4-12.7-8.8-18.7
				c-3.4-6-7.1-11.8-11.3-17.4c-1.6-2.3-3.2-4.1-4.2-5.4l-1.6-2l1.7-1.4l1.6,2.1c1,1.3,2.6,3.1,4.2,5.5c4.2,5.6,8,11.5,11.4,17.6
				c3.5,6.1,6.5,12.5,9,19c1,2.7,1.8,5,2.2,6.6S568.2,487.7,568.2,487.7z"/>
			<path class="st6" d="M537.4,423.1c3.2,3.7,3.3,8.7,0.3,11.2s-7.9,1.7-10.9-1.6s-3.3-8.2-0.5-11S534,419.6,537.4,423.1z"/>
			<path class="st5" d="M535.9,427.7c-0.6-0.5-1.3-0.9-2-1.3c-1.3-0.7-2.8-1.1-4.3-1.2c0,1.5,0.2,2.9,0.9,4.3c0.3,0.7,0.6,1.5,1,2.1
				c-2.7,0.3-5.2,1.4-7.2,3.2c3,2.3,6.8,3.3,10.5,2.9c1.6-0.2,3.1-0.6,4.6-1.4c1.1-1.2,1.8-2.7,2.3-4.2c0.8-2.7,0.9-6.6-1.8-11.4
				C537.9,422.7,536.5,425.1,535.9,427.7z"/>
			<path class="st5" d="M594.9,198.7L594.9,198.7c-5.5,2.1-10.2,5.8-13.6,10.6c-3.3,4.8-5,10.4-4.9,16.2c0,0-0.5-1.9-1.2-4.8
				s-1.6-6.7-2.4-10.6s-1.7-7.8-2.3-10.6c-0.3-1.4-0.5-2.7-0.7-3.5l-0.2-1.3c5.6-2.2,10.5-5.9,14.2-10.8c1.7-2.3,3.1-4.8,4-7.4
				c1.1-2.7,1.8-5.6,2.1-8.5l0,0c-5.6,1.6-10.6,4.9-14.5,9.3c-3.5,4.5-5.6,10-6,15.8l-1.5-8.7c-0.3-2.2-0.8-4.3-1-6
				s-0.3-2.7-0.3-2.7c2.6-5.3,3.7-11.3,3.2-17.2c-0.5-6-2.7-11.6-6.3-16.4l0,0c-3.2,5.2-4.7,11.2-4.5,17.3c0.6,6,2.9,11.8,6.9,16.4
				c0,0,0.1,0.6,0.2,1.5s0.3,2.3,0.6,4c0.5,3.3,1.3,7.6,2,12s1.6,8.7,2.3,11.9l1.2,5.3c-2.6-5.3-6.5-9.7-11.4-13
				c-4.9-3.2-10.6-5.1-16.5-5.3l0,0c1.1,3.1,2.7,6,4.6,8.6c1.8,2.4,4,4.5,6.5,6.2c5.1,3.4,11.1,5.1,17.2,5c0,0,0.4,1.9,1,4.9
				s1.7,6.7,2.7,10.6c1.8,7.7,4.1,15.3,4.1,15.3c-1.5-2.6-3.3-4.9-5.4-7c-2-2-4.2-3.8-6.7-5.2c-5.2-2.9-11-4.2-16.9-4l0,0
				c2.9,6.2,7,10.9,12,13.9c5.3,3.1,11.4,4.4,17.5,3.9c0,0,0.5,1.9,1.4,4.8s2,6.6,3.2,10.4l3.3,10.4l1.6,4.7
				c-6.8-10.3-17.2-15.6-29.9-14.5l0,0c2.9,5.5,7.3,10.1,12.8,13.1c5.4,2.8,11.6,3.8,17.7,3c0,0,0.6,1.9,1.6,4.7s2.3,6.6,3.7,10.3
				s2.8,7.4,3.8,10.2l1.8,4.6c-7.2-10-17.9-14.8-30.5-13.1l0,0c7,11.5,18.2,16.8,31.1,14.7l3.1,7.8c1.9,4.7,4.4,10.9,7.1,17.1
				s5.4,12.3,7.5,16.9s3.6,7.6,3.6,7.6l0.7-0.4c0,0-4.2-8.5-8-17.3c-2-4.3-3.8-8.7-5.2-12l-2.3-5.5c5-3.3,9-8,11.5-13.6
				c2.3-5.5,3-11.5,2-17.4l0,0c-10.6,6.6-15.8,17.2-14.1,29.4c0,0-3-7.3-5.9-14.7c-1.5-3.7-2.9-7.4-3.9-10.2l-1.7-4.6
				c10.9-6.9,16.2-17.9,14.8-30.3l0,0c-11,6.1-16.5,16.5-15.4,28.8c0,0-0.7-1.9-1.7-4.6l-3.5-10.3c-1.3-3.7-2.5-7.5-3.4-10.4
				l-1.5-4.7c5.3-2.9,9.7-7.2,12.6-12.5c2.9-5.2,4.1-11.1,3.7-17l0,0c-5.3,2.5-9.7,6.4-12.8,11.4c-3,5-4.4,10.7-4,16.5
				c0,0-0.6-1.9-1.5-4.7s-1.9-6.7-3-10.5c-2.3-7.6-4.1-15.3-4.1-15.3c5.4-2.6,10-6.7,13.3-11.7C593.3,210.4,594.9,204.6,594.9,198.7
				z"/>
			<path class="st5" d="M788.3,113.3L788.3,113.3c5.3-2.5,11.2-3.3,17-2.5c5.7,0.9,11,3.6,15.1,7.7l-2.7-4.2c-1.5-2.6-3.7-5.8-6-9.1
				s-4.5-6.6-6.1-9c-0.8-1.2-1.6-2.2-2.1-2.9s-0.8-1.1-0.8-1.1c-5.5,2.5-11.6,3.5-17.6,2.8c-2.8-0.4-5.5-1.1-8.1-2.3
				c-2.7-1.1-5.3-2.6-7.6-4.4l0,0c5.1-2.9,10.9-4.3,16.7-4c5.7,0.6,11.2,2.9,15.6,6.6l-5.3-7.1c-1.3-1.8-2.6-3.6-3.7-4.8l-1.8-2.1
				c-5.7-1.8-10.7-5.1-14.6-9.6c-4-4.5-6.6-10-7.5-16l0,0c5.9,1.3,11.4,4.3,15.6,8.7c4,4.6,6.5,10.3,7.1,16.3l1,1.2
				c0.6,0.7,1.5,1.8,2.5,3.2c2,2.7,4.6,6.2,7.3,9.7s5.2,7.2,7,9.9l3.1,4.6c-2-5.5-2.5-11.4-1.5-17.2c1.1-5.8,3.7-11.2,7.6-15.6l0,0
				c1.4,2.9,2.5,6,3.1,9.2c0.5,3,0.5,6,0,9c-1,6-3.9,11.6-8.2,15.9l2.8,4.1l5.8,9.2c4.3,6.7,8.2,13.6,8.2,13.6
				c-0.8-2.9-1.3-5.8-1.3-8.8c-0.1-2.8,0.2-5.6,0.9-8.4c1.5-5.7,4.5-10.9,8.8-15l0,0c2.4,6.4,3.1,12.6,1.8,18.3
				c-1.5,5.9-4.7,11.3-9.3,15.3l2.5,4.3c1.5,2.6,3.4,6,5.3,9.5l5.2,9.6l2.3,4.4c-2.8-12,0.6-23.2,10.1-31.6l0,0
				c2,5.9,2.2,12.2,0.7,18.3c-1.7,5.8-5.2,11-10,14.8l2.3,4.4c1.4,2.6,3.2,6.2,4.9,9.8l4.8,9.8l2.1,4.5c-2.3-12.1,1.7-23.2,11.5-31
				l0,0c3.5,13-0.4,24.7-10.8,32.6l3.5,7.6c2,4.6,4.8,10.8,7.4,17s5.2,12.4,7,17.1s3,7.9,3,7.9l-0.8,0.3c0,0-3.3-8.9-7-17.7
				c-1.8-4.4-3.7-8.8-5.1-12.1l-2.4-5.4c-5.9,1.3-12,0.9-17.7-1.1c-5.6-2.1-10.5-5.8-14-10.6l0,0c12.2-3.1,23.4,0.5,31,10.2
				c0,0-3.2-7.2-6.6-14.4c-1.7-3.6-3.4-7.2-4.7-9.8l-2.1-4.5c-12.6,3.1-24.1-0.6-32.2-10.3l0,0c12-3.7,23.3-0.5,31.4,8.8l-2.2-4.4
				c-1.4-2.6-3.2-6.2-5-9.7s-3.7-7-5.1-9.6s-2.4-4.3-2.4-4.3c-5.8,1.8-11.9,2-17.7,0.4c-5.7-1.5-10.9-4.7-14.8-9.1l0,0
				c5.4-2.1,11.4-2.6,17.1-1.4c5.7,1.3,10.8,4.3,14.7,8.6l-2.4-4.3l-5.5-9.4c-3.9-6.9-8.2-13.6-8.2-13.6c-5.6,2.1-11.8,2.6-17.7,1.5
				C797.9,120.2,792.6,117.4,788.3,113.3z"/>
			<path class="st7" d="M554.2,401.8c0,0-28.8,0-38.9-22.4c-10.2-22.4,12-36.3,35.5-31.2c0,0-24.7-14.7-37.5-46.1
				c-12.8-31.4-0.3-64.6,28.2-69.4s50.1,27,51.8,38c0,0,8.7-45,36.8-41.5s25.2,55.5,25.2,55.5L554.2,401.8z"/>
			<line class="st8" x1="627.6" y1="249" x2="638" y2="304.8"/>
			<line class="st8" x1="538.9" y1="264.9" x2="596.3" y2="350"/>
			<line class="st8" x1="530.3" y1="368.4" x2="565.1" y2="389.3"/>
			<polyline class="st8" points="563.9,262.6 560.8,297.2 525.8,296.5 			"/>
			<polyline class="st8" points="589.7,299.2 582.5,329.5 551.6,329.5 			"/>
			<polyline class="st8" points="642.7,261.2 632.1,274.8 616,264.3 			"/>
			<polyline class="st8" points="545.8,362.7 547.2,378.5 532.2,384.1 			"/>
			<path class="st5" d="M738.5,164.5l-2.2-0.4c0,0,0.2-0.9,0.3-2.5s0.4-4,0.5-6.8c0.2-6.9,0-13.8-0.8-20.6c-0.8-6.9-2-13.7-3.6-20.4
				c-0.6-2.8-1.3-5-1.7-6.6l-0.7-2.5l2.2-0.6c0,0,0.3,0.9,0.7,2.5s1.2,3.9,1.8,6.7c1.7,6.8,2.9,13.7,3.7,20.7c0.8,7,1.1,14,0.8,21
				c-0.1,2.9-0.3,5.3-0.5,6.9S738.5,164.5,738.5,164.5z"/>
			<path class="st6" d="M735.2,93.1c1.5,4.6-0.3,9.3-4.1,10.4s-8-1.5-9.4-5.7c-1.6-4.2,0.1-8.8,3.8-10.3S733.5,88.5,735.2,93.1z"/>
			<path class="st5" d="M732.1,96.8c-0.4-0.7-0.9-1.4-1.4-2c-0.9-1.2-2.1-2.1-3.5-2.8c-0.6,1.3-0.9,2.8-0.9,4.3c0,0.8,0,1.6,0.1,2.4
				c-2.6-0.8-5.3-0.7-7.8,0.2c1.9,3.3,5,5.7,8.6,6.8c1.5,0.5,3.1,0.6,4.7,0.5c1.5-0.7,2.7-1.7,3.8-3c1.8-2.2,3.4-5.7,2.8-11.2
				C735.8,92.9,733.6,94.5,732.1,96.8z"/>
			<path class="st9" d="M618.5,294.6c0,0-5.2-35.5,2.9-67.4s3.5-57.8-12.2-59.1s-41.1,54.1,4.7,129.1L618.5,294.6z"/>
			<path class="st10" d="M613.6,292.4l1.3-0.5c-0.2-0.4-14.5-39.3-7.6-77.5l-1.4-0.3C598.9,252.7,613.4,292,613.6,292.4z"/>
			<path class="st5" d="M615,298c0,0-19.1-15.5-40.7-21.9s-35.3-18.2-30.5-27.9s46.3-5.2,74.4,48L615,298z"/>
			<path class="st9" d="M614.4,295.1l1.1-0.9c-0.2-0.2-18.2-22.6-43.5-32l-0.5,1.4C596.4,272.8,614.2,294.9,614.4,295.1z"/>
			<path class="st5" d="M883.9,98l-1.8,1c0,0-0.4-0.7-1.3-2s-2.1-3-3.8-5c-4-5-8.4-9.6-13.1-13.9c-4.7-4.3-9.7-8.4-14.9-12.1
				c-2.1-1.6-4-2.7-5.2-3.6l-2-1.3l1.1-1.8l2,1.3c1.3,0.9,3.2,2,5.3,3.6c5.3,3.8,10.3,7.9,15.1,12.2c4.8,4.4,9.3,9.1,13.4,14.2
				c1.7,2.1,3,3.9,3.8,5.2S883.9,98,883.9,98z"/>
			<path class="st6" d="M838.3,50.1c3.9,2.3,5.4,6.7,3.5,9.8s-6.5,3.8-10,1.7s-5.3-6.2-3.6-9.5S834.3,47.9,838.3,50.1z"/>
			<path class="st5" d="M838.3,54.5c-0.7-0.3-1.4-0.4-2.2-0.6c-1.4-0.2-2.8-0.2-4.1,0.2c0.4,1.3,1.1,2.5,2,3.5
				c0.5,0.6,0.9,1.1,1.5,1.6c-2.3,1-4.2,2.7-5.4,4.9c3.3,1.1,6.9,1,10.1-0.5c1.4-0.6,2.6-1.4,3.6-2.5c0.6-1.4,0.8-2.9,0.8-4.4
				c0-2.6-1.1-6.1-4.8-9.5C838.6,49.5,838.1,52,838.3,54.5z"/>
			<path class="st7" d="M701.3,248c0,0-21.1-19.5-13.4-42.8s33.5-18.6,47.3,1.1c0,0-8.2-27.5,3.7-59.3s43.6-47.7,67.9-32
				s18.5,53.7,12.3,63.1c0,0,36.9-27.2,55.2-5.6s-19.1,57.9-19.1,57.9L701.3,248z"/>
			<line class="st8" x1="858.9" y1="185.3" x2="828.7" y2="233.4"/>
			<line class="st8" x1="782.9" y1="136.9" x2="767.4" y2="238.4"/>
			<line class="st8" x1="706.3" y1="207.3" x2="717.8" y2="246.1"/>
			<polyline class="st8" points="802.8,152.1 777,175.5 751.8,151.3 			"/>
			<polyline class="st8" points="797,196.6 771.1,214 748.4,193.1 			"/>
			<polyline class="st8" points="861.7,204.4 844.7,207.3 840,188.7 			"/>
			<polyline class="st8" points="721.6,213.5 711.9,226.1 697.1,220.1 			"/>
			<path class="st1" d="M707.4,198.5l-7,5.1c-3.8-3-7.4-6.3-10.8-9.9c-9.5-9.8-17-21.2-22.1-33.8l4.1-4.6l-5.3,1c-0.7-2-1.2-4-1.8-6
				l9.4-6.4l-10.5,0.7c-1-5.9-0.5-11.9,1.3-17.6c1.8-5.2,5.3-9.6,10-12.4c4-2.5,8.6-3.8,13.3-3.9c2.3,0,4.6,0.2,6.9,0.7
				c2.4,0.5,4.7,1.3,7,2.2c9.4,4,18.9,11.8,27.2,21.9l-5,9.1l9.6-3.1c1.7,2.4,3.4,5,5,7.6l-4.9,3.5l7,0.2c0.6,1,1.2,2.1,1.7,3.2
				c10,19.2,11.8,35.5,11.2,47s-3.9,18.3-3.9,18.3s-20.5,2.9-44.9-14.3L707.4,198.5z"/>
			<line class="st11" x1="745.2" y1="214.5" x2="678.3" y2="122.9"/>
			<line class="st11" x1="694.6" y1="145.3" x2="679.1" y2="143.6"/>
			<line class="st11" x1="703.8" y1="157.8" x2="709.3" y2="130.7"/>
			<line class="st11" x1="717.1" y1="176.1" x2="691.8" y2="176.5"/>
			<line class="st11" x1="729" y1="192.3" x2="732.3" y2="166.4"/>
			<path class="st1" d="M567.7,336.2l-2.1,6.6c-14.8-0.5-29.3-4.8-42-12.4l0.4-4.9l-2.9,3.2c-1.4-1-2.7-2-4-3l3-8.6l-6.4,5.5
				c-3.4-3.3-6-7.4-7.5-12c-1.3-4.2-1.1-8.7,0.5-12.7c1.4-3.5,3.7-6.6,6.7-8.8c1.5-1.1,3.1-2.1,4.8-2.9c1.8-0.8,3.7-1.5,5.6-1.9
				c7.9-1.9,17.7-1.4,28,1.1l1.1,8.2l4.7-6.6c2.3,0.7,4.6,1.6,6.9,2.5l-1.5,4.5l4.5-3.2c0.9,0.4,1.8,0.8,2.6,1.2
				c15.6,7.6,24.6,17.2,29.6,24.9s6.3,13.6,6.3,13.6s-11.8,11.6-35.8,12.2L567.7,336.2z"/>
			<line class="st12" x1="599.6" y1="328.5" x2="512.9" y2="301.5"/>
			<line class="st12" x1="534" y1="308.1" x2="523.2" y2="314.4"/>
			<line class="st12" x1="545.9" y1="311.8" x2="536.5" y2="291.7"/>
			<line class="st12" x1="563.2" y1="317.2" x2="547.2" y2="329.5"/>
			<line class="st12" x1="578.6" y1="322" x2="568.3" y2="303.7"/>
			<path class="st13" d="M798.6,252.7c0,0-15.5-16.9-7.8-35s27.9-12.6,37.6,4c0,0-4.7-22.4,6.9-47s37.9-35.1,56.2-20.9
				s11.2,44,5.6,51c0,0,31.2-19.1,44.3-0.8s-19.1,44.8-19.1,44.8L798.6,252.7z"/>
			<line class="st14" x1="928.3" y1="213.3" x2="901.1" y2="249.5"/>
			<line class="st14" x1="871" y1="169.7" x2="851.9" y2="249.4"/>
			<line class="st14" x1="805.4" y1="220.6" x2="811.9" y2="252.3"/>
			<polyline class="st14" points="885.9,183.1 863.8,200 845.3,179.1 			"/>
			<polyline class="st14" points="878.2,218.1 856.5,230.2 839.8,212.1 			"/>
			<polyline class="st14" points="929.3,228.7 915.5,229.8 913,214.7 			"/>
			<polyline class="st14" points="817.1,226.6 808.5,236 797.2,230.2 			"/>
			<path class="st5" d="M825.5,203.1l-3.6-4.1c1.6-2.6,3.5-5.1,5.4-7.4c5.5-6.6,12.1-12.1,19.7-16.2l3.1,2.2l-1-3.3
				c1.2-0.6,2.4-1.1,3.7-1.5l4.7,5.5l-1.2-6.5c3.6-1,7.4-1.2,11.1-0.4c3.4,0.7,6.4,2.7,8.5,5.4c1.8,2.3,3,5.1,3.4,8
				c0.2,1.4,0.2,2.9,0.1,4.4c-0.2,1.5-0.5,3.1-0.9,4.6c-1.8,6.2-6,12.6-11.8,18.6l-6-2.5l2.6,5.8c-1.4,1.2-2.9,2.5-4.4,3.7l-2.5-2.8
				l0.4,4.4c-0.6,0.4-1.2,0.9-1.9,1.3c-11.3,7.6-21.4,9.9-28.7,10.3c-4,0.3-8,0-11.8-1.1c0,0-3.3-12.6,5.8-29.1L825.5,203.1z"/>
			<line class="st15" x1="818.1" y1="227.9" x2="870.9" y2="179.6"/>
			<line class="st15" x1="858.1" y1="191.3" x2="858" y2="181.5"/>
			<line class="st15" x1="850.8" y1="197.9" x2="868.2" y2="199.5"/>
			<line class="st15" x1="840.3" y1="207.6" x2="838.2" y2="191.8"/>
			<line class="st15" x1="830.9" y1="216.2" x2="847.4" y2="216.4"/>
			<path class="st5" d="M680.2,212.7l-1.6,5.2c-11.7-0.3-23.1-3.5-33.2-9.4l0.3-3.8l-2.3,2.6c-1.1-0.8-2.2-1.5-3.2-2.4l2.3-6.8
				l-5,4.4c-2.7-2.6-4.8-5.8-6.1-9.3c-1.1-3.3-1-6.8,0.3-10c1.1-2.8,2.8-5.2,5.2-7c1.1-0.9,2.4-1.7,3.7-2.3c1.4-0.7,2.9-1.2,4.4-1.6
				c6.2-1.6,14-1.3,22,0.6l0.9,6.4l3.6-5.2c1.8,0.6,3.6,1.2,5.4,1.9l-1.1,3.5l3.6-2.6c0.7,0.3,1.4,0.6,2.1,0.9
				c12.4,5.8,19.5,13.4,23.6,19.4c2.3,3.2,4,6.8,5.1,10.6c0,0-9.2,9.3-28,10L680.2,212.7z"/>
			<line class="st15" x1="705.3" y1="206.3" x2="636.7" y2="185.8"/>
			<line class="st15" x1="653.4" y1="190.8" x2="645" y2="195.9"/>
			<line class="st15" x1="662.8" y1="193.6" x2="655.2" y2="177.9"/>
			<line class="st15" x1="676.5" y1="197.7" x2="664" y2="207.6"/>
			<line class="st15" x1="688.7" y1="201.4" x2="680.4" y2="187.1"/>
			<path class="st5" d="M898.4,241c-2.4,0-4.7-0.8-6.6-2.3c-2.8-2.4-3-5.7-4.3-7s0.8-0.8,4.5,0.8S899.4,239.7,898.4,241z"/>
			<path class="st5" d="M893.8,227.3c1.2-0.8,2.1-2,2.5-3.4c0.6-2.1-0.4-3.9-0.2-5s-0.7-0.1-2,1.9S892.8,226.9,893.8,227.3z"/>
			<path class="st9" d="M890,215.6c0.2,0.9,0.4,1.8,0.6,2.8c0.5,2.1,1,4.2,1.7,6.3c2.1,7.1,4.7,14,7.8,20.7c1.1,2.4,2.3,4.8,3.5,7.2
				c1.3,2.7,2.8,5.3,4.4,7.7c0.1,0.1,0.2,0.2,0.4,0.1c0.1-0.1,0.2-0.2,0.1-0.4l0,0c-1-2.4-2.4-4.6-3.6-6.9s-2.2-4.4-3.2-6.6
				c-1.8-3.9-3.5-7.8-5-11.8c-2-5.2-3.7-10.6-5.2-16c-0.3-1.1-0.5-2.2-0.9-3.3c-0.1-0.2-0.3-0.2-0.4-0.2
				C890,215.4,890,215.5,890,215.6L890,215.6z"/>
			<path class="st16" d="M881.3,205.1c0,0,0.9,13,9.2,11.6c0,0-0.2-4.6-2.6-7.3s-3.9-3.2-5.4-5.7
				C881.4,201.6,881.1,202.9,881.3,205.1z"/>
			<path class="st16" d="M890.5,216.6c0,0-2.8-5.5,0-10.1c3.2-5.2,2.2-6.1,2.8-6.2C894.9,200.1,898.3,214.2,890.5,216.6z"/>
			<path class="st16" d="M885.6,209.5c0,0,0.6-7.9,1.4-8.8c0.6-0.6,3.7,3.7,4.8,6.5s-0.5,6.7-2.1,6.7S885.6,209.5,885.6,209.5z"/>
			<path class="st17" d="M890.3,204c0.2,0.3,0.2,0.8-0.2,1c-0.3,0.2-0.8,0.1-1-0.2c-0.2-0.3-0.1-0.8,0.2-1
				C889.7,203.6,890.1,203.7,890.3,204z"/>
			<path class="st17" d="M885.8,203.8c0.2,0.3,0.2,0.8-0.1,1c-0.3,0.2-0.8,0.2-1-0.1c-0.2-0.3-0.2-0.8,0.1-1c0,0,0,0,0,0
				C885.1,203.4,885.6,203.4,885.8,203.8z"/>
			<path class="st17" d="M889.8,201.2c0.2,0.3,0.2,0.8-0.2,1c-0.3,0.2-0.8,0.1-1-0.2c-0.2-0.3-0.1-0.8,0.2-1
				C889.1,200.8,889.5,200.9,889.8,201.2z"/>
			<path class="st17" d="M885.5,202.4c0.1,0.2,0.1,0.4-0.1,0.6c0,0,0,0,0,0c-0.2,0.1-0.4,0.1-0.6-0.1c0,0,0,0,0,0
				c-0.1-0.2-0.1-0.4,0.1-0.6C885.1,202.2,885.3,202.2,885.5,202.4z"/>
			<path class="st17" d="M891.3,202.6c0.1,0.2,0.1,0.5-0.1,0.6c-0.2,0.1-0.5,0.1-0.6-0.1c-0.1-0.2-0.1-0.4,0.1-0.5
				C890.9,202.4,891.2,202.4,891.3,202.6z"/>
			<path class="st5" d="M906.3,168.1c-12.8-18.8-36.8-23.3-54-29.5c-14.1-5.1-21.2-13.6-21.2-18.7c0.1-15.2,17.5-13.5,30.3-7.7
				c21.1,9.5,44,34.2,44,34.2c-0.4-6.2-59-49.6-36.3-61.3c25.2-13,54.3,64.3,54.3,64.3c-5.1-25.6-46.1-107.8-10.8-101.8
				s28,115,28,115l-0.9,8.5"/>
			<path class="st18" d="M913.1,58.4c18.4,41.2,18.3,96.7,15.5,112.7"/>
			<path class="st18" d="M880.8,96.1c22.8,30.4,40.3,53.3,42.3,78"/>
			<path class="st18" d="M848.6,121.5c38.4,20.9,65.5,35.9,67.5,50.9"/>
			<path class="st1" d="M907.9,73l-4.8,6.1c-4-1.7-7.9-3.6-11.7-5.8c-10.5-6-19.8-14-27.4-23.6l2.4-4.9l-4.3,2.2
				c-1.1-1.6-2.1-3.1-3-4.7l6.5-7.8l-8.8,3.2c-2.3-4.8-3.4-10.1-3.2-15.4c0.3-4.9,2.2-9.5,5.5-13.1c2.8-3.1,6.4-5.4,10.4-6.6
				c2-0.6,4-1,6.1-1.1c2.2-0.1,4.4-0.1,6.6,0.2c9,1.1,19.1,5.4,28.8,12.1l-2.1,9l7.5-5c2.1,1.7,4.2,3.4,6.2,5.3l-3.3,4.2l6-1.6
				c0.8,0.8,1.5,1.5,2.2,2.3c13.3,14,18.9,27.5,21.2,37.6s1.2,16.5,1.2,16.5s-16.8,7.6-42.1-1.2L907.9,73z"/>
			<line class="st19" x1="944.3" y1="77.4" x2="864.2" y2="15.4"/>
			<line class="st19" x1="883.7" y1="30.5" x2="870" y2="32.8"/>
			<line class="st19" x1="894.7" y1="39" x2="892.7" y2="14.3"/>
			<line class="st19" x1="910.7" y1="51.3" x2="889.1" y2="58"/>
			<line class="st19" x1="924.9" y1="62.4" x2="921.3" y2="39.3"/>
			<ellipse class="st20" cx="757.9" cy="411.4" rx="211.6" ry="211.8"/>
			<path class="st21" d="M800.5,559.8c-104.5,0-189.2-84.8-189.2-189.4c0-68,36.4-130.9,95.5-164.6
				c-94.4,23.6-160.6,108.3-160.5,205.6c0,117,94.7,211.8,211.6,211.8c96.5,0,178-64.7,203.4-153.1
				C926.8,525.9,866,559.8,800.5,559.8z"/>
			<g>
				<defs>
					<path id="SVGID_3_" d="M927.6,538c-38.6,51.7-100.2,85.2-169.7,85.2c-116.9,0-211.6-94.8-211.6-211.8S641,199.6,757.9,199.6
						s211.6,94.8,211.6,211.8C969.5,458.9,953.9,502.7,927.6,538"/>
				</defs>
				<clipPath id="SVGID_4_">
					<use xlink:href="#SVGID_3_"  style="overflow:visible;"/>
				</clipPath>
				<g class="st22">
					<path class="st16" d="M722.9,253.6c2.2,0,4.6,1.1,4.9,2.4c0.5,1.9,0.9,3.6-1.3,5.5s-2.1,1.5-4.5,1.9c-1.5,0.4-3,0.7-4.6,0.9
						c-0.4,0-0.8-0.1-1.1-0.3c-0.9-0.8-1.2-3.9-1.7-6.3s-0.5-2.2,0.7-2.6c0.1,0,0.2-0.1,0.3-0.1c0.4,0,0.6,0.3,0.8,0.6
						c0.2,0.4,0.6,0.6,1,0.6c0.2,0,0.4,0,0.6-0.1c0.9-0.3,1.7-0.9,2.2-1.7C721,253.9,722,253.6,722.9,253.6z"/>
					<path class="st16" d="M977.9,377.6c-0.1,0.3-0.3,0.7-0.5,1.2c-0.8,2.2-1.1,3.1-1.9,3.3c-0.7,0-0.3-1.2-0.8-2s-1.1-3.8-1.5-5.5
						c-0.3-1.6-0.8-3.3-1.4-4.8c-0.6-0.4-0.7,0.6-0.9,1.7c-0.2,0.7-0.1,1.4,0.1,2.1c0.1,0.5,0.3,1,0.5,1.6c0.3,1,0.1,1.6-0.2,2
						c-0.1,0.1-0.2,0.2-0.3,0.2c-0.4-0.2-0.8-0.3-1.2-0.3c-1.4,0.1-1.4-0.3-2.3-0.9c-1.2-0.7-0.5-1.2-1.1-1.3
						c-0.4,0.1-0.7,0.2-1,0.4c-0.3,0.2-0.7,0.4-1.1,0.4c-1.4-0.7-1.4-3.7-2.1-4.9c-0.2-0.5-0.8-0.9-1.4-0.9c-1.9,0-2,1.3-2,3.5
						c0,0.3,0,0.6,0.1,0.8c0.2,1.2,0.9,0.8,0.9,1.6c0,0.7,0,1.4-0.2,2.1c-0.2,0.9-0.4,1.9-0.7,2.8c-0.6,2-2.1,2.2-2.7,4.2
						s-0.9,3.6-2.2,3.7c-0.4,0-0.7-0.2-0.8-0.5c-0.1-0.9-0.1-1.8,0-2.7l0,0c0-0.2,0-0.5,0-0.8c0-2.6-0.3-5.1-0.9-7.6
						c-0.1-0.4-0.1-0.8-0.1-1.2c-0.1-2.4,0.1-4.8,0.7-7.1c0.3-0.7,2.1-1.1,3.2-2.3c0.2-0.2,0.3-0.4,0.5-0.6c0.6-1,0.5-2.4-0.4-3.2
						c-1-0.9-1.6-2-1.8-3.3c-0.5-1.9-0.4-3.8-1.2-3.8c-1,0.5-0.7,1-0.4,2.8c0,0.3,0.1,0.6,0.1,0.9c0.1,1.1,0,1.4-0.2,1.5
						s-0.8-0.1-1.2,0.5c-0.2,0.3-0.5,0.4-0.8,0.4c-0.8,0-1.9-1-2.7-2.4c-1.2-1.9-0.6-3.7-1.9-5.6s-5.7-6.9-7.2-6.9
						c-1.6,0.4-1,1.4-2,1.9s-1.5,0.2-0.5,2.5c0,0.1,0.1,0.2,0.1,0.3c1,2.2,2.9,5.5,4.1,8.2c0.5,1,0.7,1.3,0.9,1.3
						c1.8-0.6,1.3,1.3,1.8,7.8c0.2,2.3,0.3,4.5,0.3,6.8c-0.1,1.4-0.2,2.8-0.5,4.2c-0.5,3.2-2,6.5-1.3,8.6c0.1,0.2,0.2,0.4,0.3,0.6
						c1.3,1.9,1.9,3.4,1.3,5.1l0,0c-0.4,1.1-0.8,1.5-1.2,1.5c-0.3,0-0.5-0.2-0.6-0.4c-0.1-0.2-0.3-0.3-0.5-0.3
						c-0.5,0-1.1,0.5-0.9,1.7c0.2,1.7-0.9,1.9-2.5,3.8s-0.6,1.8-0.8,3.8c0,0.3-0.1,0.6-0.1,0.9c-0.2,1.2-0.5,1.3-1.4,2.2
						c-0.2,0.3-0.6,0.5-1,0.5c-0.7-0.2-1.3-0.4-2-0.6c-1.6-0.4-0.2-1.5-1.2-1.9c-1.8,0.1-2.1-0.1-2.4-1c-0.8-1.9-0.9-3-2.1-3.1
						s-1,2.1-1.9,2.5c-0.5,0.2-0.7,0.6-1,0.6s-0.4-0.3-0.7-1.2c0-0.2-0.1-0.4-0.1-0.5c-0.2-1.8,0-3.7,0.7-5.4
						c0.1-0.5,0.6-0.8,1.1-0.7c0.3,0,0.5,0,0.8,0.1c0.3,0.1,0.5,0.1,0.8,0.1c0.2,0,0.4,0,0.7-0.1c0.2-0.1,0.5-0.2,0.8-0.2
						c0.1,0,0.1,0.1,0.6,0.4c0.8,0.4,1,1.2,2.4,1.2c0.8,0,1.2,0,1.5,0c2.7,0,2.8-0.2,3.8-3.5l0,0c1-3.2,0.1-1.5,0-2.5
						c0-0.5-0.1-0.8-0.2-1.2c-0.1-0.8-0.1-1.5,0-2.3c0.2-2,0.5-1.1,1.3-2.2c0.9-1,1.4-2.2,1.6-3.5c0.2-1.6,0-1.9,0.2-4.4
						s0.5-2.4,1-4.6c0,0,0-0.1,0-0.1c0.4-2.1,0.3-2.8-0.5-2.8c-1,0-0.5,2.2-1.5,4.3s-1.5,1.2-2.8,4.4c-0.7,1.6-1.5,2-2.4,2
						s-1.8-0.4-2.9-0.4h-0.8c-1.5,0-1.2,0.3-2.1,0.4s-1.3,1.1-1,3.3v0.1c0.1,0.8,0.1,1.7,0,2.5c-0.2,0.9-0.2,1.9-0.3,2.9
						c-0.1,2.7-0.2,1.2-1.4,3.3c-0.6,1.1-0.9,1.4-1.4,1.4s-0.8-0.2-1.7-0.3c-0.3,0-0.5-0.1-0.8-0.2c-0.7-0.4,0.1-1.3,0-2.8
						c-0.1-1.8,0.6-1.5,1.4-3.7c0-0.1,0.1-0.2,0.1-0.4c0.9-2.6-0.4-1.9-1.3-3.2c0,0,0,0,0-0.1c-0.9-1.2-0.5-0.8,0.3-3.8l0.1-0.2
						c0.8-3.4-0.2-1.9-1-2.6c-1-0.5-1.7-1.4-2-2.5c-0.5-1.8,0.8-2-0.6-2.3c-1.5,0-2,1.5-2.7,4.1c-0.4,1.3-0.2,1.8,0.1,2.1
						c0.8,0.4,1.4,1,1.9,1.7c1.2,2.1,0.8,0.8,0.1,2.5c0,0.1,0,0.1-0.1,0.2c-0.2,0.4-0.4,0.5-0.7,0.5c-1.1-0.1-1.4,0-1.7,0.6
						c-0.4,0.9-0.4,1.9-0.1,2.8c0.2,1.1,0.7,2.4,1,4c0.4,2,0.5,2.5,0.2,3.5c-0.2,0.5-0.5,1.2-0.9,2.3c-1.1,3.1-1.5,3.6-2.7,4.7
						s-2.8,1.1-3.7,1.6c-1,0.6-2,0.9-3.2,1c-2.3-0.3-4.6-1-6.6-2.1c-0.2-0.1-0.4-0.2-0.7-0.2c-0.8,0-0.5,1.6-1,3.2
						c-0.5,1.9-0.9,2-2.3,2.1c-0.3,0-0.7-0.1-0.8-0.4c-0.3-0.6-0.1-1.9,0.1-3.3c0.1-0.8,0.5-1.5,1.2-1.9c0.3-0.2,0.5-0.6,0.5-0.9
						c0-1,0.5-1.7-0.4-1.7c-0.3,0-0.6,0-0.9,0.1c-1.8,0.3-3,1.9-2.7,3.7c0,0.2,0.1,0.4,0.1,0.5c0,0.1,0.1,0.2,0.1,0.3
						c0.5,1.7,0.4,3.7,0.9,7c0,0.3,0.1,0.6,0.1,0.8c0.1,0.5,0,1-0.1,1.5c-0.3,0.6-0.9,0.7-1.3,2.1c-0.7,2.5-1.3,2.5-2.4,3.2
						c-0.7,0.2-0.8,0-1-0.1c-0.2-0.2-0.5-0.4-0.8-0.4c-1.7,0.3-0.8,1-1.8,1.5c-0.2,0.1-0.5,0.2-0.8,0.2c-0.5,0-1-0.3-1.4-0.7
						c-0.1-0.1-0.1-0.1-0.2-0.2c-0.5-0.7-0.2-1.1,0.4-3c0,0,0-0.1,0-0.1c0.7-1.9,0-1.9-0.7-4.3l0,0c-0.6-2.4-0.2-2.4-0.6-3.2
						c-0.6-0.3-0.9,0.8-1.5,1.6c-0.3,0.5-0.7,1-1,1.5c-0.4,0.9-0.6,1.9-0.4,2.9c0,0.3,0,0.6,0.1,0.9c0.2,2.4,0.5,4.7,1,7
						c0.4,1.7,0.2,1.1-0.1,2c0,0.1-0.1,0.1-0.1,0.2c-0.4,1.1-0.3,2.2-0.7,4.1s-0.2,1.4-1.3,1.7s-0.7,0.6-1.1,2.7
						c-0.2,0.5-0.1,1.1,0.2,1.6c0.3,0.5,0.9,0.6,0.9,1.4c0,0.6-0.1,1.1-0.5,1.6c-0.3,0.5-0.7,0.9-1.2,1.7c-1,1.6-1.1,0.9-0.3,1.5
						c0.2,0.2,0.4,0.4,0.6,0.6c0.7,0.9,1.4,1.9,2,2.9c0.8,1.2,0.8,0.4,2.3,1.5s0.9,0.9,1.3,2c0.2,0.6,0.2,1.3-0.2,1.9
						c-0.2,0.3-0.3,0.7-0.6,1.3c-0.4,0.9-0.6,1.2-0.8,1.2s-0.4-0.2-0.8-0.5c-0.8-0.6-1.4-1.3-2-2.1c-0.4-0.8-1-1.4-1.9-1.8
						c-1.3-0.6-1.8-2.2-2.6-3.3c-0.1-0.2-0.2-0.3-0.3-0.5c-0.2-0.6-0.3-1.2-0.1-1.8c0-0.3,0.1-0.7,0.1-1.2c0.2-2.1-0.1-0.7-1-2.6
						c-0.6-1.4-0.9-3-1-4.5c-0.1-1-0.1-2,0-2.9c0.1-0.7,0.2-1.1,0.3-1.6c0.2-0.8,0.2-1.6,0-2.4c0-0.1,0-0.1,0-0.2c0-0.1,0-0.2,0-0.3
						c-0.1-1.3,0.2-1.3-0.1-2.9c-0.3-1.7-0.7-3.3-1.2-5c-0.1-0.4-0.3-0.7-0.5-1c-0.7-0.9,1.1-2.4,2.2-2.4s1.8,0.8,2.4,2.8
						c0.3,1.2,0.5,2.5,0.6,3.7c0.4,0.2,1-0.8,1.3-1.8c0.1-0.4,0.2-0.8,0.2-1.2c-0.1-0.9-0.3-1.9-0.6-2.8c-0.1-0.6-0.2-1.1-0.2-1.7
						c0.1-1.6,0.7-0.9,1-2.7c0-0.1,0-0.2,0.1-0.3c0.3-2.1,0.8-3.2,1.9-7.1c0.1-0.5,0.2-0.9,0.3-1.4c0.5-2.8-0.3-3.6-1.2-4
						s-1.3,0.2-1.6-1c0-0.2-0.1-0.4-0.1-0.6c-0.2-1.4,0.4-2.7,0.7-4.2c0.2-0.7,0.2-1.4,0.1-2.2c-0.5-2.5-1-6.8-2-7.8s-3-1.4-4.7-1.5
						s-0.8,1.1-2,2.2s-3,1.5-4.9,1.9s-0.5,0.7-1.8,1.6c-0.3,0.2-0.6,0.4-1,0.4c-1.1-0.1-1.4,0-1.8,0.3c-1.3,0.9-0.4,3.5-1.1,5.1
						s-1,0.5-1.5,2.5c-0.1,0.6-0.1,1.3,0.2,1.9c0.4,0.8,1,1.4,1.6,2c0.5,0.6,0.3,1.4,0,2.5c-0.2,0.7-0.3,1.3-0.4,2
						c-0.2,2.2-0.7,2.2-2.2,2.4c-1.1,0-1.7-1.3-1.9-3c-0.1-0.5-0.1-1.1-0.1-1.6c0-0.6,0.1-1.3,0.3-1.8c0.4-0.5,0.5-1.2,0.3-1.9
						c-0.1-0.5-0.2-0.7-0.4-0.7s-0.5,0.9-1,1.6c-0.3,0.4-0.5,0.6-0.7,0.6c-0.3,0-0.6-0.9-1.2-3c-0.2-0.7-0.4-1.4-0.5-2.1
						c-0.1-1.4-0.1-2.7,0.1-4.1c0-0.3,0-0.5,0-0.8c0.2-1.8,0-3.7-0.6-5.4c-0.3-1.2-0.5-1.8-0.7-2.3c-0.3-0.9-0.2-1,0-2.7
						c0.2-1.1,0.4-2.1,0.5-3.1c0.2-1.4,0.2-2.6-0.3-3.2c-0.2-0.2-0.4-0.3-0.6-0.4c-1.3,0.3-1.6,0.1-2-0.3c-1.6-2.2-2.5-4.8-2.6-7.5
						c-0.1-2.7-0.1-2.8-1.3-3.8c-0.2-0.2-0.6-0.3-0.9-0.4c-0.4,0-0.8,0.1-1.1,0.2c-0.4,0.1-0.9,0.2-1.4,0.2c-0.4,0-0.7-0.1-1.1-0.2
						c-1.2-0.3-2.3-0.8-3.4-1.4c-1.3-0.6-1-1.8-2-3.6s-1.9-2-4.2-3.3s-2.3-0.7-4.1-2.4s-1.7-3.5-2.3-5.4c-0.2-0.6-0.8-0.9-1.4-0.7
						c-0.3,0.1-0.6,0.3-0.7,0.6c-0.4,0.7-0.3,1.6,0.1,2.4c0.3,0.6,0.6,1.1,0.7,1.8c0.2,0.9,0.2,1.9,0,2.8c0,0.5,0,1.1,0.1,1.6
						c0,0.1,0,0.1,0,0.2c0.2,1.4,0.6,1.7,1.6,1.7c0.6,0,1.4-0.1,2.5-0.2c2.8,0,1.8,0.8,3.8,1.3c0.3,0.1,0.6,0.2,0.9,0.2
						c0.7-0.1,0.8,0.1,1.5,1c1.6,1.9,1.2,2.7,2.2,4.9c0.6,1.3,0.3,1.8-0.1,2.3c-0.4,0.4-0.7,0.8-1,1.3c-0.8,1.6-2.8,4.9-4.8,5.8
						c-1.9,1-4.1,1.5-6.3,1.5c-2.7,0-1.7,1.6-4.7,1.8c-1.1,0-2.3-0.1-3.3-0.4c-0.7-0.2-1.5-0.4-2.3-0.4c-0.3,0-0.7,0.1-1,0.2
						c-1.2,0.8-2.2,1.4-1.8,3c0.1,0.4,0.2,0.7,0.2,0.9c0.1,0.6,0,0.5,0.6,1c1.1,0.4,2.3,0.6,3.5,0.5c0.5,0,1.1,0,1.5,0
						c1.2-0.1,1.8-1.4,2.4-1.4c0.2,0,0.3,0.1,0.6,0.4c0.9,1.3,1.1,0.6,1.7,2.7c0.2,0.7,0.2,1.4-0.2,2c-0.5,1-1.8,2.1-3.9,4.5
						c-3.3,3.8-2.1,3.5-4.4,4.4s-1.8,0.5-4.1,1.6s-4.7,4.8-6.5,6.6s-2.4,3.8-1.9,5.8l0,0c0.2,1.1,0.3,2.2,0.2,3.3c0,0.3,0,0.7,0,1
						c0,2.2-0.2,4.7-0.3,6.3c-0.1,2.9,0,2.9-1.4,5.4c-1,1.8-1.6,2.2-2.6,2.2c-0.5,0-1-0.1-1.4-0.2c-0.2,0-0.4,0-0.6,0
						c-1.3,0-1,1.1-2.2,3c-1.3,2.1-0.8,4.5-1.3,6.8s-1.8,2-2.9,2.2s-0.2,3.5-1.1,4.7s-2.4,3.3-4,4.1s-1.3,1.4-3.2,2.4
						c-1.5,0.8-2.5,1.5-4.4,1.5c-0.5,0-1,0-1.4-0.1c-2.8-0.5-2.9-0.7-3.7-2c-0.1-0.2-0.2-0.3-0.2-0.5c-0.1-0.6-0.1-1.3,0-1.9
						c0.1-0.7,0.1-1.5,0-2.2c-0.3-2.5-1.1-4.9-2.5-7.1c-0.9-1.4-0.8-5.4-0.8-7.3s-1-3.2-2.3-5c-1.2-1.6-1.1-2.3-1.3-3.9
						c0-0.2,0-0.4-0.1-0.6c-0.3-2,0.7-3.5,0.6-4.9s1.8-2.5,2.6-3.4l0.2-0.3c0.3-0.4,0.4-1,0.2-1.5c-0.2-0.5-0.5-1-0.8-1.4
						c-0.8-1.3-0.7-5.2-0.9-6.9s0-2.2-0.9-3.3c-1.3-1.8-2.5-3.7-3.4-5.7c0-0.1-0.1-0.2-0.1-0.3c-0.1-1.4,0.1-2.7,0.6-4
						c0.3-0.9,0.7,0.1,1-1.3c0-0.1,0.1-0.1,0.1-0.2c0.4-1.7-0.3-3.9-1.5-4c-0.7,0-1.3,0.2-1.9,0.5c-0.5,0.2-1.1,0.4-1.6,0.5
						c-1.3-0.7-1.5-2.3-2.2-4.3c-0.4-1-0.7-1.2-1.3-1.2c-0.3,0-0.5,0-0.8,0.1c-0.4,0.1-0.7,0.1-1.1,0.1c-0.2,0-0.5,0-0.7,0
						c-0.3,0-0.5-0.1-0.8-0.1c-1.2,0-0.6,0.6-1,1.8c-0.5,1.4-1.6,1.2-2.7,2.7c-0.2,0.3-0.6,0.5-1,0.5c-0.8,0-1.7-1-3.1-1.2
						c-1,0-1.9,0.3-2.7,0.8c-0.7,0.4-1.5,0.7-2.3,0.8c-2-0.6-6.2-4.5-7.2-5.2s-1.7-4-3.4-6.1s-2.5-1.6-3.1-3.6
						c-0.4-1.4-0.7-2.2-0.9-3.2l0,0c-0.1-0.6-0.1-1.2,0-1.9c0.1-1.4,0.3-2.5,0.3-3.8c0.1-0.8,0.1-1.7,0-2.5
						c-0.1-2.7-1.4-5.2-1.4-6.7l0,0c0.3-1.7,0.8-3.4,1.4-5c0.3-1,0.8-2.1,1.2-3.2c1.2-3,2.5-5.9,3.4-6.7c1.8-1.8,3.7-2.6,4.3-3.8
						c0.1-0.1,0.1-0.2,0.1-0.4c0.2-1.1-0.2-2.2-0.2-3.3v-0.1c0-0.4,0.1-0.9,0.3-1.2c0.8-1.4,2.1-4.2,3.3-4.4c0.4,0,0.8,0.1,1.1,0.3
						c0.3,0.2,0.7,0.3,1.1,0.3c0.4,0,0.7-0.1,1.1-0.2c2.3-0.6,2.3-0.4,7.1-1.1s7.5-4.7,11.2-4.2c0.5,0.1,1.1,0.1,1.6,0.1
						c0.7,0,1.3-0.1,2-0.3c0.4-0.1,0.8-0.2,1.2-0.3c0.4,0,0.7,0.1,1,0.3c1.7,0.9,1,0.4,1.6,2.6c0.1,0.4,0.2,0.8,0.2,1.3
						c0,1-0.6,1.1-0.6,2.8c0,0.4,0,0.8,0.2,1.2c0.4,0.9,1.5,0.8,3.2,1.2c2.2,0.4,2.2-0.2,4.1,2.1s2.9,3.7,4.9,4.9
						c0.2,0.2,0.5,0.2,0.8,0.2c1.5,0,2-2.8,2.6-4.3c0.5-1.3,0.7-1.8,2-1.8c0.7,0,1.3,0.1,2,0.2c3,0.5,1.1,2.7,2.4,3.7
						c1.7,1.4,3.8,2.2,6,2.2c1.2,0.1,1.8,0.1,2.1,0.1c0.9,0,1.7,0.2,2.5,0.5c3,0.8,6.2-0.5,7.7-3.2c0.4-0.8,0.7-1.6,0.9-2.4
						c0.2-1,0.2-2.1-0.1-3.2c-0.1-0.9-0.4-1.2-0.8-1.2c-0.7,0.2-1.4,0.4-2.1,0.8c-1.7,0.2-1.8-1.3-2.1-3.1c0-0.2,0-0.4,0-0.6
						c0,0,0-0.1,0-0.1c0-1.8,1.8-2.7,2.2-4.3c1.8-1.2,3.8-2.3,5.8-3.3c0.8,0,1.4,2.5,3.6,4.8c0.9,1,1.5,1.4,1.9,1.4s1.2-2,1.5-4
						c0.3-1.2,0.2-2.4-0.4-3.5c-1.3-1.7-1.7-3.8-5-5.4c-0.6-0.3-1.3-0.5-1.9-0.5c-0.4,0-0.8,0.1-1.1,0.2c-0.3,0.1-0.7,0.2-1,0.2
						c-0.6,0-1.1-0.2-1.6-0.6c-2.6-1.7-1-2.2-3.5-3.9c-0.4-0.3-0.9-0.5-1.4-0.5c-1.4,0-2.1,1.9-3.7,2.7s-1.8,3.6-1.7,6.1
						c0,0.4,0,0.9,0.1,1.3c0.2,2.8,3.5,2.5,4.5,4c0.2,0.3,0.4,0.8,0.4,1.2c0,0,0,0,0,0.1c-0.2,1.1-0.6,2-1.4,2.8
						c-0.9,1.4-4.9,3.9-5.3,2.1c-0.6-2.7-2.4-4.9-2.7-6.8s-0.6-2-2.8-2.3c-0.3,0-0.7-0.1-1-0.1c-1.1,0-0.7,0.6-0.7,2.1
						c0,0.2,0,0.4,0,0.6c0.2,1.5,0.9,2,1.1,2.9c0,0,0,0.1,0,0.1c-0.1,0.9-2,2.2-3.3,2.2c-1.6-0.8-3.9-5.2-4.2-7.5c-0.1-1-0.1-2,0-3
						c0.2-1.2,0.1-2.4-0.3-3.5c-0.7-1.4-2.3-1.5-4.5-3c-1.5-1-1.7,0.6-1,2.3c0.3,0.8,0.8,1.4,1.4,2c2,1.7,1.9,2.3,2.2,3.3
						c0.1,0.3,0.2,0.7,0.2,1v0.1c-0.1,1.5-0.5,3-1.2,4.3c-1.3,2.8-1.6,3.7-3.6,3.7s-2.7-0.1-3.9-1.4c-1.1-1-1.7-2.5-1.5-4l0,0
						l0.1-0.1c0.6-0.9,1-1.9,1-3c0.2-2.1-0.2-4.6-1.7-5.5c-2.6-1.6-2.9-6.1-4.2-6.7c-1.5-0.1-2.5,2.6-3.5,3.3
						c-0.9,0.1-1.7,0-2.5-0.5c-0.7-0.4-1.4-0.6-2.2-0.7c-2.1,0.2-0.8,4.1-2.6,6.9c-0.7,1.1-0.9,1.3-1.2,1.3
						c-0.6-0.2-4.2,3.5-5.5,6.4c-0.4,1.1-1,1.4-1.6,1.4c-1.1,0-2.4-1.2-3.8-1.8c-2.2-0.9-3.3,0.3-5.3-2.5c-1.7-2.3-2.6-2.9-2.7-4.6
						c0-0.6,0-1.1,0.1-1.7c0.5-3.2,1-7.3,3.1-9.7c0.5-0.6,1-0.9,1.3-0.9s0.7,0.3,1,0.6s6.1-0.9,7.8-1.3c0.2,0,0.4-0.2,0.6-0.3
						c0.8-0.7,0.1-2.5-0.5-3.8c0-0.1,0-0.1-0.1-0.1c-0.8-1.6-3.4-2.8-3.9-3.5s-0.7-3.7-1.1-5.4s-3.8-0.4-5.6-0.4
						c-1.9-0.1-2.8-1.7-3.5-3.5c-0.1-0.2-0.1-0.5-0.1-0.7c0-0.1,0-0.2,0-0.3c0.1-2,2-5.3,3.6-6.1c2.4-1.4,4.1-3.6,4.9-6.2
						c0.4-1.7,1-3.4,1.7-5.1c0.3-0.8,0.7-1.2,1.2-1.2c0.7,0,5.2,3.9,4.7,8c0,0.3-0.1,0.6-0.1,0.8c-0.2,1.3-0.5,1.5-0.7,1.5
						c-0.5,0-0.8,0.1-1,0.8c-0.3,1.4-0.4,2.7-0.2,4.1c0.1,1.2,0.3,2.3,0.8,3.4c1.5,2.7,4.6,3.3,5,2.1c0.9-2.2,3.5-1.2,4.7-3.8
						c0.9-2,0.6-2.1,1.4-2.1c1.8,0,2.3,0,2.7,0.1s0.8,0.1,1.2,0.1c0.7,0,1.4-0.2,1.9-0.7c0.1-0.1,0.1-0.1,0.2-0.2
						c0.7-0.9,0-1.8-0.2-3.8c0-0.4-0.1-0.8-0.1-1.2c0-0.3,0-0.7,0-1c0.1-1.4,0.6-1,1.3-1.6c0.3-0.2,0.5-0.4,0.7-0.6
						c0.5-0.6,0.8-0.8,1.2-0.8c0.5,0.1,1,0.3,1.4,0.7c0.2,0.2,0.5,0.3,0.8,0.3c1.1,0,0.2-1.3-0.9-3.2c-0.6-1-1-1.6-1.4-1.6
						s-0.9,0.7-1.6,2.4c-0.5,1.4-0.8,1.8-1.3,1.8s-1.2-0.8-2.7-1.3c-2.7-0.9-2.9-1.7-3.3-3.2c0-0.1-0.1-0.2-0.1-0.3
						c-0.2-2.7,0.3-5.5,1.2-8c0.9-1.9,4.4-1.2,7.1-2.2s1.7-1.4,5.5-7.5s3.1-4.1,5.4-6.3c1.5-1.4,7-1.9,11.9-1.9
						c2.2,0,4.5,0.1,6.7,0.4c4,0.7,1.8,0.9,5,4.3s2.7,1.5,6.9,3.2s3.9,1.4,5.1,3.6c0.2,0.3,0.3,0.7,0.4,1.1c0.1,1.4-1.4,2.1-3,3.9
						c-0.3,0.4-0.8,0.7-1.4,0.7c-0.4,0-0.8-0.1-1.2-0.4c-0.3-0.2-0.6-0.3-0.9-0.3c-0.3,1.4,0,2.2,0.5,2.7c0.9,0.8,2.6,0.7,4.1,1.1
						c2.5,0.1,3.3-4.7,5.5-7.6c0.9-1.2,1.4-1.6,1.7-1.6c0.6,0,0.8,1.1,2.1,1.8c2,1.1,1.3,3.2,3.6,3.7c0.2,0.1,0.5,0.1,0.7,0.1
						c0.8,0,1.5-2.9,1.8-5.7c0.1-1.4,0-2.9-0.3-4.2c-0.2-0.5-0.3-1.1-0.3-1.6c0-0.1,0-0.2,0-0.3c0.2-1,1.3-1.1,4-3.1
						c3.8-2.9,1.1-0.7,3.6-3.4c0.8-0.8,1.2-1.1,1.7-1.1c1,0,1.9,1.5,5.8,1.6s5.4,2.2,5.5,3.7c0.1,0.4-0.1,0.9-0.4,1.2
						c-0.8,0.6-2.5,1.8-4,1.8c-0.3,0-0.7-0.1-1-0.2c-1.1-0.3-2.3-0.5-3.4-0.5c-2,0-4.1,0.4-4.2,1.7c-0.1,0.8-0.1,1.6,0.1,2.3
						c0.1,0.8,0.1,1.7,0,2.5v0.2c-0.3,1.6-0.6,2,0,2.2c0.4,0.1,1.2,0.1,2.7,0.3c3.8,0.4,3.1,0,7,0.9s3.1,4,5.5,4.4
						c0.2,0,0.3,0,0.5-0.1c1.3-0.4-0.3-2.7-0.8-5.3c-0.1-0.5-0.1-1-0.1-1.4c0.2-1.8,2-2.1,3.6-2.2c1.8,0,1.7,1,3.5,4.1
						s6.1,6,7.5,4.5c1-1.1,1.7-1.5,2.5-1.5s2,0.5,3.8,1.4c3.6,1.8,13.7-11.7,17.8-13.7c3.4-1.7,7.6-1.4,11.5-0.6
						c20.2,4.1,34.9,19.4,48,33.8c9,9.6,18.1,19.6,22.3,31.6c3,8.6,3.4,17.7,3.8,26.7c0.3,8.5-1.2,19.2,1.1,27.5
						c1.5,5.7,5.4,11.8,8.1,17.3C978.4,375.6,978.4,376.7,977.9,377.6z"/>
					<path class="st16" d="M697.9,431.5c-0.4,0.4,1.4,7.5,1.5,8.8c-0.1,2.4-0.6,4.8-1.6,6.9c-0.8,1.2-4,0.5-4.5,1
						c-1,0.8-1.6,2-1.7,3.3c0.1,1.6,0.4,3.2,0.8,4.8c0.2,0.9-0.9,1.9-1.8,3.8s-0.7,5.6-1.3,6.4c-0.2,0.3-0.5,0.5-0.9,0.4
						c-0.8,0-1,0-1.1,0.2c-0.3,0.6,0.2,3.2,0.1,4s-0.8,0.7-1.6,1s-0.4,1.1-0.7,1.7c-0.3,0.5-0.7,0.9-1.2,1.1c-0.2,0.1,0,1.2,0.2,2.5
						s-0.9,5.3-0.2,6.1s1.5,1.6,1.4,2.8c0,1.6,0.5,3.2,1.4,4.6c0.8,1.1,3,0.6,3.9,1.3s0.8,0.6-0.9,1.5c-0.5,0.3-1.1,0.5-1.7,0.5
						c-1.1-0.1-2.2-0.6-3-1.4c-0.8-0.6-1.2-0.7-1.4-0.7c-0.8,0.2-1,0.1-1.2,0.1c-1.1-0.4-1.7-2-3.7-3.7s-1.5-1.8-1.8-2.6
						s0.2-3.1-0.9-4.5c-0.7-0.8-1.4-1.6-2-2.5c-0.9-1.1-0.9-1.5-1.7-4.2s-0.5-3.9-1.7-7.1s-1.4-1.9-2.2-3.9s-1.3-9.7-2.5-12.6
						s-1.2-3.8-2.8-5.1s-7.9-3.5-8.6-4s-2.4-4.7-2.9-6.1s-5.3-4.6-5.7-4.9s0.2-1.7-0.1-3.8s-1.2-1.5-2-1.8s-0.9-3.5-0.9-5.4
						s3-2.5,3-5.1c0-1.1-0.1-2.2-0.5-3.3c-0.2-0.5-0.4-0.9-0.8-1.3c-0.4,0-1,0.6-1.7,1.3c-0.7,0.9-1.6,1.8-2.5,2.6
						c-0.3,0.2-0.7,0.3-1.1,0.3c-0.2,0-0.4,0-0.6,0c-0.2,0-0.5-0.1-0.7-0.1c-0.4,0-0.8,0.1-1.2,0.2c-1.9,0.5-6.2,4.4-7.2,4.7h-0.1
						c-0.6-0.2-0.7-2.8-1.3-4.3s-1.9-1.5-2.8-1.9c-1.4-0.1-3.5,1.6-5.2,1.7c-2,0-3.6-1.8-4.5-1.8s-3.2,3.3-4.1,4
						c-0.7,0.5-4.1,1.1-6.4,1.1c-0.7,0.1-1.4,0-2-0.3c-1-0.5-1.7-3.4-2.4-5.2c-0.1-0.5-0.3-0.9-0.6-1.2c-0.8-0.8-3.5-0.3-4.1-0.6
						c-1.2-0.9-2.3-2-3.2-3.2c-1.4-1.6-2.2-1.6-2.8-1.6s-0.2,1.1,0.9,2.5s3.7,2.9,4.6,3.8c0.2,0.2,0.3,0.3,0.4,0.5
						c0.5,1.1,0.5,2.9,0.2,2.9c-2.3-0.6-4.4-1.6-6.4-2.9c-0.4-0.3-0.8-0.6-1.1-0.9c-2-2-2.9-6.2-4.7-7.7c-0.3-0.3-0.7-0.5-1.2-0.5
						c-0.4,0-0.8,0.2-1.1,0.3c-0.3,0.2-0.7,0.3-1.1,0.3c-0.4,0-0.8-0.2-1.1-0.4c-2-1.4-3.8-6.4-4.8-7.2s-0.7-1.9-0.2-6.4
						s-1.8-13.7-3.8-18.4s-3.8-3.8-6.7-6.8s-3.1-6.2-4.1-6.2s-6.4,5.2-9.6,9s-0.7,5.5-1.9,11.6s-1.6,8.5-2.4,12.4
						c-0.2,1.1-0.6,2.2-1.1,3.2c-0.7,1.2-1.5,1.7-2.1,1.7c-0.8-0.4-1.1-1.5-0.9-3.5c0.1-0.7,0.2-1.5,0.4-2.2
						c0.8-3.3,0.2-3.6-1.5-5.6c-0.6-0.7-1-0.9-1.4-0.9c-0.2,0-0.4,0.1-0.5,0.1c-0.1,0.1-0.3,0.1-0.4,0.1c-0.2,0-0.4-0.1-0.6-0.5
						c-0.9-1.4,0.2-6.2,1.5-8.6s1.4-3.7,0.8-5.3s-1-0.2-1.6-2.1s1.9-4.1,2.9-5.3s-0.5-3.9-0.9-5.4c-0.6-2.1,4.2-12.2,5.1-14.7
						c2.2-6.6,8.6-10.5,11.6-17c7.8-16.8,15.4-34.3,27.3-49.2c5.7-7.1,28.4-29.4,39.3-20.1c0.6,0.6,1.2,1.1,2,1.4
						c2.1,0.5,3.5-1.8,4.8-3.3c2-2.3,7.5-3.8,10.6-2.1c3.5,1.9,1.1,4.4,2.9,6.2c0.8,0.8,2.5,0.7,4.7,2.3s3.3,2,4.5,3.6
						s3.5,1.1,4.8,3s0,1.8-0.7,3.3c-0.2,0.6-0.8,1-1.5,0.9c-0.5,0-1.5,2-2.2,4.1c-0.5,1.3-0.8,2.6-0.9,4c0.1,2.2,0.1,3.5-1.9,4
						c-1.1,0.4-2.3,0.5-3.4,0.5c-1.8,0-2.1,0-2.5,2s-1.1,5.7-0.7,6.6c0.3,0.4,0.7,0.6,1.2,0.5c0.9,0,1.8-0.3,2.6-0.8
						c1.5-0.9,1.1-4.7,2.4-5.6c0.2-0.2,0.5-0.3,0.9-0.3c0.9,0,1.6,1,2.5,1.5c1.1,0.8,0.7,1.6,0.1,3.4s-1.6,2.4-0.7,3.8
						c0.3,0.4,0.7,0.6,1.2,0.5c0.5,0,1-0.1,1.5-0.2c0.6-0.1,1.1-0.2,1.7-0.2c0.4,0,0.8,0.1,1.2,0.2c2.1,0.8,0.5,4.8,1.1,7.3
						s2.5,4.4,2.6,7.3s-0.3,2.5-1.9,4.3c-1.2,1.1-2.8,1.7-4.5,1.6c-0.8,0.1-1.6-0.1-2.3-0.6c-1-1-1.1-1-0.3-2.9s1.1-3.7,0.6-4
						c-0.7,0-1.5,1.6-2.7,3.5c-0.7,1.2-2,1.9-3.4,1.7c-2.2,0-1.8,1.7-1.2,3.2s2.4,1.7,3.9,2.5s1.8,1.2,1.4,2c-0.8,1.4-1.6,2.7-2.6,4
						c-0.7,1.1-1.6,2.1-2.7,2.9c-0.4,0.3-0.8,0.4-1.3,0.4c-0.2,0-0.4,0-0.6,0c-0.2,0-0.4,0-0.6,0c-0.6,0-1.2,0.2-1.9,1.3
						c-1.8,2.4-3.4,1.4-4.1,2.9c-0.6,1.3-0.4,3.3-1.2,6.4c-0.1,0.4-0.2,0.9-0.4,1.3c-1.3,4-4.5,6.8-5.2,7.8s0.5,4,1,5.6s0,2.1-0.9,3
						c-0.1,0.1-0.2,0.2-0.2,0.3c-0.9,1-1.6,3-2.4,4.9c-0.6,1.8-1.1,3.6-1.4,5.5c-0.5,2.2-0.8,4.3-1,4.6c-0.2,0.5-0.1,0.8,0.5,2.5
						s1.6,3.5,1.3,5.7c-0.2,1.6-1,2.3-1.9,2.3c-0.3,0-0.6-0.1-0.9-0.2c-1.5-0.5-0.6-1.4-1.3-4c-0.6-2.1-1.2-2.6-2.3-2.6
						c-0.3,0-0.6,0-0.8,0.1c-1.6,0.2-0.8,1.7-0.9,3.5s-0.8,1.9-3.9,2s-1.9,0.9-3.7,3.2s-1.5,7.2-1.3,10.1s1.9,5.4,3.2,7.5
						c0.4,0.8,1.1,1.3,2,1.3c0.8,0,1.8-0.3,2.9-0.5c2.3-0.2,0.9-2.3,1.3-6.8c0.2-2.2,0.4-2.6,0.7-2.6c1.1,0.1,1.5,0,1.9-0.3
						c2-1.5,1.8-2.6,2.6-4.2s2.3-2.4,2.4-3.9c0.2-1.1,1.2-1.8,2.2-1.7c0.2,0,0.5,0,0.7,0.1c0.3,0.1,0.7,0.1,1,0.1c0.4,0,0.9,0,1.4,0
						s1.1,0,1.7,0c1,0,2.1,0.1,3.1,0.3c1.4,0.3,2.8,0.5,4.2,0.5c0.9,0,1.9-0.1,2.8-0.4c0.7-0.3,1.4-0.5,2.2-0.5
						c0.6-0.1,1.2,0.2,1.5,0.8c0.6,1.1-0.6,1.7-2.5,2.5s-2.4,2.4-4.1,2.7s-1.5,1.9-2.2,3.2c-0.5,0.9-1.4,1.5-2.4,1.6
						c-1-0.6-1.5-1.8-1.2-3c0.4-1.2,0.5-2.9-1.1-3.3s-2.9-1-4.5-1c-2.1,0.1-1,1.8-2.1,2.6c-1,0.8-1.8,1.7-2.5,2.8
						c-0.6,0.8-0.6,3.8-0.7,6.2s0.2,3.9,0.8,4.3c0.9-0.2,1.7-0.5,2.4-1c0.8-0.6,1.7-0.9,2.7-1.1c0.2,0,0.4,0,0.5,0.1
						c1.2,0.9,1.6,5,2.3,6.7c0.4,1.1,1.3,1.9,2.5,2c0.5,0.1,0.9,0.1,1.4,0.1c2.3,0,4.9-3.5,5.9-4.5s0.2-4.5,1-5.4
						c0.4-0.5,1.2-1.6,2-2.8v-0.1c0.4-0.6,0.8-1.1,1.3-1.6c0.3-0.3,0.6-0.6,1-0.7c1.6-0.4,3.2-0.6,4.9-0.5c1.3,0,2.8,0,4.2,0.1
						c3.7,0.3,3.9,0.3,5.5,1.2s4.5,3.9,5.4,4.3c0.2,0.1,0.4,0.1,0.6,0.1c0.3,0,0.7-0.1,1-0.1c0.5-0.1,0.9-0.1,1.4-0.1
						c0.3,0,0.6,0,0.8,0.1c2.1,0.2,2.7,0.3,4.8,2.9c1.6,2,3.5,5.1,5,6.9c0.4,0.5,0.8,0.8,1.3,1.2c1.6,0.9,5.4,1.3,7.3,1.6
						s3.3,1.6,4.5,2.7c0.1,0.1,0.3,0.2,0.5,0.2c0.4,0,0.8-0.4,1.2-0.8s0.7-0.8,1.1-0.8c1.5,0.8,1.8,2.9,1.9,3.6s1,5.7,0.3,6.6
						S698.3,431.1,697.9,431.5z"/>
					<path class="st16" d="M809.6,221.3c-0.5,0.2-1.1,0.5-1.6,0.7c-3.7,1.5-15.5,0.2-19.1-1.3c-4.6-2.1-9.5-3.3-14.5-3.6
						c-6.9-0.4-18.4-1.9-21.8-1.3s-8.4-1.1-10.1-1.1s-6.7,2.4-6.9,2.5c-1.7,1-3.2,2.3-4.4,3.9c-1.6,1.9-5.2,1.9-6.2,3.2
						s0.2,8.3-2,9.1s-3.6,4.2-5.5,9.6c-1.2,3.2-0.9,4-1.3,4c-0.8-0.3-1.5-0.5-2.3-0.6c-0.5-0.1-1-0.2-1.6-0.2c-2,0-2.2,1.1-5.6,1.9
						c-4,1-4,2-5.2,5.2s-4,4.2-6.3,4.4h-0.4c-0.6,0-1.2-0.2-1.7-0.6c-0.4-0.4-1-0.6-1.5-0.6c-0.3,0-0.6,0-0.8,0.1
						c-2.4,0.6-2.9,6.7-4.3,8.8s-4.2,9.1-5.6,10c-1.2,0.7-2.5,1.1-3.8,1.1c-1.5,0.1-2.9-0.8-3.2-2.3c-1-3.6-3.6-9.2-3.9-12.1
						s2-11,2.4-14.1c0.3-2.2-0.2-4.5-1.6-6.3c-0.5-0.8-1.4-1.2-2.3-1.1c-6.3,0-11.2,8.8-14-1.9c-1.8-7,0-19.6,5.7-24.6
						c11.8-10.3,27.5-16.4,43.6-19.5s32.7-3.3,49.1-3.3c23.8,0,48.6,0.9,69.5,11.1c2,1,4.2,2.3,4.6,4.4c0.4,2.2-1.4,4.3-3.3,5.8
						C819.4,216.1,814.7,219.1,809.6,221.3z"/>
				</g>
			</g>
			<path class="st13" d="M668.6,484.3c0,0-1.4-11.3,6.8-16.4s14.9,2.9,14.1,12.4c3.6-7.2,9.2-13.1,16.2-17.1
				c11.7-6.6,25.4-3.4,28.8,7.5s-8,21-12.3,22.3c0,0,18.1,1.1,18.2,12.3c0.1,11.2-20.5,12.7-20.5,12.7L668.6,484.3z"/>
			<line class="st23" x1="732.5" y1="505.3" x2="711.1" y2="512.2"/>
			<line class="st23" x1="721.7" y1="471.3" x2="691.2" y2="498.2"/>
			<line class="st23" x1="680.5" y1="473.2" x2="674.1" y2="487.9"/>
			<polyline class="st23" points="723.9,481 710.1,481.5 708.6,467.8 			"/>
			<polyline class="st23" points="710.8,493 698.5,491.7 696.9,479.6 			"/>
			<polyline class="st23" points="728.5,511.8 722.5,508.4 725.9,501.5 			"/>
			<polyline class="st23" points="683.6,479 677.4,480.3 674.5,474.7 			"/>
			<path class="st9" d="M331.1,531.6h18.8c0,0-1.5-7.8-3.4-16.3l-3.6-5l3.1,2.6c-2.1-9.3-4.4-18.7-5.3-18.9
				c-1.3-0.3-5.2,17-7.6,28.2l4.4-2.4l-4.7,3.9C331.8,528.3,331.1,531.6,331.1,531.6z"/>
			<path class="st9" d="M307.5,537.6h13.9c0,0-1.1-5.8-2.5-12.1l-2.7-3.7l2.3,1.9c-1.5-6.9-3.2-13.8-3.9-14
				c-0.9-0.2-3.8,12.6-5.6,20.9l3.3-1.8l-3.5,2.9C308,535.2,307.5,537.6,307.5,537.6z"/>
			<path class="st9" d="M500.4,506.7h13.9c0,0-1.1-5.8-2.5-12.1l-2.7-3.7l2.3,1.9c-1.5-6.9-3.2-13.8-3.9-14
				c-0.9-0.2-3.8,12.6-5.6,20.9l3.3-1.8l-3.5,2.9C500.9,504.3,500.4,506.7,500.4,506.7z"/>
			<path class="st9" d="M435.1,465H449c0,0-1.1-5.8-2.5-12.1l-2.7-3.7l2.3,1.9c-1.5-6.9-3.2-13.8-3.9-14c-1-0.2-3.8,12.6-5.6,20.9
				l3.3-1.8l-3.5,2.9C435.6,462.5,435.1,465,435.1,465z"/>
			<path class="st9" d="M516.5,497.3h28c0,0-2.3-11.6-5-24.3l-5.4-7.5l4.6,3.9c-3.1-13.9-6.5-27.9-7.9-28.2
				c-1.9-0.5-7.7,25.3-11.3,42.1l6.6-3.6l-7,5.8C517.5,492.4,516.5,497.3,516.5,497.3z"/>
			<path class="st24" d="M354.1,474.7c4.9-0.9,11.7,2.6,13,7.4c0.4,1.6,0.5,3.4,1.3,4.9c0.7,1.2,2,2.1,2.9,3.2
				c2.4,3,2.6,7.2,0.6,10.5c-2.1,3.2-5.8,5-9.6,4.8c-3.1-0.1-6-1.3-9.1-1.4c-3.7-0.1-7.7,1.3-10.8-0.7c-2.1-1.4-3.1-4-3.6-6.5
				c-0.5-1.8-0.5-3.7,0.2-5.5c1.3-2.8,4.6-3.9,6.7-6.2c1.6-1.7,2.3-4.1,3.4-6.1S351.8,474.9,354.1,474.7"/>
			
				<linearGradient id="SVGID_5_" gradientUnits="userSpaceOnUse" x1="683.1141" y1="102.2694" x2="683.1141" y2="164.0794" gradientTransform="matrix(-0.88 0 0 -0.97 955.65 650.66)">
				<stop  offset="0" style="stop-color:#4F291A"/>
				<stop  offset="1" style="stop-color:#794E25"/>
			</linearGradient>
			<path class="st25" d="M361.2,495.6c-1.6,4.6-2.7,9.4-3.3,14.2c-0.5,6.4,1.1,40,1.1,40h-8c0,0,1.6-30.4,1.3-41.5
				c-0.1-5-4.4-16.1-4.4-16.1l1.5-0.9c0,0,2,8.3,3.2,9.9s1.6-6.4,1.6-6.4h1c0,0-0.5,6.6,0.9,7.3s3.8-6.8,3.8-6.8L361.2,495.6z"/>
			<path class="st26" d="M357.2,479.8c3.9,2.3,5.1,7.3,2.8,11.2c-0.3,0.5-0.7,1-1.2,1.5c-0.6,0.6-1.3,1.2-2,1.7l-4.4,3.3
				c-1.1,1-2.4,1.6-3.8,2c-0.7,0.1-1.5,0.1-2.2,0c-2.8-0.4-5.7-1.7-7-4.2c-0.8-1.9-1.1-3.9-0.9-5.9c-0.1-1.8,0.2-3.7,0.8-5.4
				c0.9-1.9,2.4-3.4,4.4-4.2c1.9-0.8,3.9-1.3,6-1.4c2.1-0.2,4.2,0.1,6.1,0.9"/>
			<path class="st5" d="M470.3,539.8h279.2c0,0-91.3-99.8-128.2-114.3c-15.8-6.2-41.9,9.4-68,30.9
				C511.8,490.6,470.3,539.8,470.3,539.8z"/>
			<g class="st27">
				
					<linearGradient id="SVGID_6_" gradientUnits="userSpaceOnUse" x1="342.1945" y1="116.1455" x2="353.9445" y2="250.4355" gradientTransform="matrix(-0.88 0 0 -0.97 955.65 650.66)">
					<stop  offset="1.000000e-02" style="stop-color:#008B17"/>
					<stop  offset="0.36" style="stop-color:#30A313"/>
					<stop  offset="1" style="stop-color:#85CC0D"/>
				</linearGradient>
				<path class="st28" d="M553.3,456.4c1.8,0.6,3.7,0.9,5.7,0.9c8.2-0.1,15.6-4.9,21.9-10.2c3.4-2.8,7.2-6,11.6-5.8
					c4.1,0.2,7.5,3.1,10.7,5.7c6.8,5.3,14.5,9.1,22.8,11.2c4.8,1.3,9.8,1.9,14.3,4c7.8,3.7,13.2,11.2,17.2,18.8s7.3,15.8,12.8,22.5
					c5.6,6.8,13.1,11.7,21.5,14c6.2,1.7,12.8,2,18.7,4.5c8.2,3.4,14.1,10.5,19.5,17.7h19.4c0,0-91.3-99.8-128.2-114.3
					C605.4,419.3,579.3,434.9,553.3,456.4z"/>
			</g>
			<path class="st29" d="M663.2,454.9c0,0,9,16.8-6.2,32c-11.7,11.7-42.7,7.1-56.1,12.8s-11.1,20.4-22.4,27.6
				c-16.1,10.3-19.8,3-29.5,12.1h-68.3c0,0,8.2-12.8,29.7-19.2c21.5-6.4,34.2,2.3,54.4-11.9s15.6-24.9,35.2-28.4s47.3,3.7,55-6
				c10.4-12.9-1.5-27.1-1.5-27.1S660.4,452.4,663.2,454.9z"/>
			<path class="st24" d="M477.1,370.6c11.1-2.2,26.8,5.9,29.7,16.8c1,3.8,1,7.8,3,11.2c1.7,2.8,4.5,4.8,6.7,7.2
				c5.6,6.5,5.9,16.7,1.3,23.9s-13.3,11.3-21.9,11.1c-7-0.2-13.8-3-20.9-3.2c-8.4-0.2-17.7,3-24.8-1.5c-4.9-3.1-7.1-9.1-8.3-14.8
				c-0.9-4.2-1.4-8.7,0.4-12.6c2.9-6.4,10.6-8.9,15.3-14.1c3.6-4,5.2-9.3,7.7-14S471.7,371.2,477.1,370.6"/>
			
				<linearGradient id="SVGID_7_" gradientUnits="userSpaceOnUse" x1="542.6822" y1="108.9294" x2="542.6822" y2="250.2694" gradientTransform="matrix(-0.88 0 0 -0.97 955.65 650.66)">
				<stop  offset="0" style="stop-color:#4F291A"/>
				<stop  offset="1" style="stop-color:#794E25"/>
			</linearGradient>
			<path class="st30" d="M493.3,418.4c0,0-6.3,17.2-7.4,32.5c-1.1,14.7,2.4,91.4,2.4,91.4H470c0,0,3.6-69.4,2.9-94.9
				c-0.3-11.4-10.1-36.8-10.1-36.8l3.3-2c0,0,4.6,18.9,7.4,22.6s3.7-14.5,3.7-14.5h2.4c0,0-1.1,15,2.1,16.7s8.7-15.5,8.7-15.5
				L493.3,418.4z"/>
			<path class="st26" d="M484.3,382.3c8.8,5.3,11.7,16.8,6.4,25.6c-0.7,1.2-1.6,2.4-2.7,3.4c-1.4,1.4-3,2.6-4.6,3.8l-10,7.5
				c-2.7,2-5.5,4-8.7,4.5c-1.7,0.2-3.3,0.2-5-0.1c-6.4-0.9-13-3.9-16-9.7c-2.1-4.1-2.1-8.9-2-13.4c0.1-4.2,0.2-8.5,1.8-12.4
				c2-4.3,5.6-7.8,9.9-9.7c4.3-1.9,9-3,13.8-3.1c4.8-0.3,9.7,0,14,2.1"/>
			<path class="st24" d="M387.9,412.9c9.4-1.8,22.8,5,25.2,14.3c0.9,3.2,0.9,6.7,2.6,9.5c1.4,2.4,3.8,4,5.7,6.2
				c4.8,5.5,5,14.2,1.1,20.3s-11.4,9.6-18.6,9.4c-6-0.2-11.8-2.6-17.8-2.7c-7.2-0.2-15,2.6-21.1-1.3c-4.2-2.7-6-7.8-7-12.6
				c-0.8-3.6-1.2-7.4,0.3-10.7c2.5-5.4,9-7.6,13-12c3-3.4,4.4-7.9,6.5-12S383.4,413.4,387.9,412.9"/>
			
				<linearGradient id="SVGID_8_" gradientUnits="userSpaceOnUse" x1="644.2504" y1="92.0594" x2="644.2504" y2="212.2594" gradientTransform="matrix(-0.88 0 0 -0.97 955.65 650.66)">
				<stop  offset="0" style="stop-color:#4F291A"/>
				<stop  offset="1" style="stop-color:#794E25"/>
			</linearGradient>
			<path class="st31" d="M401.7,453.5c0,0-5.4,14.6-6.3,27.7c-0.9,12.5,2.1,77.8,2.1,77.8h-15.6c0,0,3.1-59,2.5-80.7
				c-0.3-9.7-8.6-31.3-8.6-31.3l2.8-1.7c0,0,3.9,16.1,6.3,19.2s3.1-12.4,3.1-12.4h2c0,0-1,12.8,1.8,14.2s7.4-13.2,7.4-13.2
				L401.7,453.5z"/>
			<path class="st26" d="M394,422.9c7.5,4.5,9.9,14.2,5.4,21.8c-0.6,1.1-1.4,2.1-2.3,2.9c-1.2,1.2-2.5,2.3-3.9,3.2l-8.6,6.3
				c-2.3,1.7-4.6,3.4-7.4,3.9c-1.4,0.2-2.9,0.2-4.3-0.1c-5.4-0.8-11.1-3.4-13.6-8.2c-1.8-3.5-1.8-7.5-1.7-11.4
				c0.1-3.6,0.1-7.3,1.6-10.5c1.7-3.7,4.7-6.6,8.5-8.2c3.7-1.6,7.7-2.5,11.7-2.7c4.1-0.2,8.3,0,11.9,1.8"/>
			<path class="st32" d="M342,539.8h194.2c0,0-63.5-69.4-89.2-79.5c-11-4.3-29.1,6.5-47.3,21.5C370.9,505.6,342,539.8,342,539.8z"/>
			<g class="st27">
				
					<linearGradient id="SVGID_9_" gradientUnits="userSpaceOnUse" x1="551.6644" y1="115.6121" x2="559.8444" y2="209.0121" gradientTransform="matrix(-0.88 0 0 -0.97 955.65 650.66)">
					<stop  offset="1.000000e-02" style="stop-color:#008B17"/>
					<stop  offset="0.36" style="stop-color:#30A313"/>
					<stop  offset="1" style="stop-color:#85CC0D"/>
				</linearGradient>
				<path class="st33" d="M399.7,481.8c1.3,0.4,2.6,0.6,4,0.6c5.7-0.1,10.8-3.4,15.2-7.1c2.4-2,5-4.2,8.1-4.1c2.9,0.1,5.2,2.2,7.4,4
					c4.7,3.7,10.1,6.3,15.9,7.8c3.4,0.9,6.8,1.3,10,2.8c5.5,2.5,9.2,7.8,12,13.1s5.1,11,8.9,15.7c3.9,4.7,9.1,8.1,15,9.8
					c4.3,1.2,8.9,1.4,13,3.1c5.7,2.4,9.8,7.3,13.5,12.3h13.5c0,0-63.5-69.4-89.2-79.5C436,456,417.9,466.8,399.7,481.8z"/>
			</g>
			<path class="st29" d="M393.7,486.9c0,0-3.5,7.5,4.8,15.1s14,4.2,30.9,10.9c16.9,6.8,7.2,14.3,23.9,17.4s27.5-0.7,33.7,9.5h-59.9
				c0,0-7.9-0.4-11.7-9.9s-4-14.7-12.9-17.7s-15.3-10.1-13.3-21.3C390.5,489.4,392,488,393.7,486.9z"/>
			<path class="st1" d="M831,560.9l22.8-5.4c0,0-7.3-86.5-24-101.2S788.4,451.8,831,560.9z"/>
			<path class="st1" d="M861.2,553.8l20.4-4.8c0,0,24.8-14.7,32.7-38s-13-27.5-24.9-15.5S861.2,553.8,861.2,553.8z"/>
			<path class="st5" d="M853.8,555.5l12.5-3c0,0,22.7-36.2,18-72.5S854.2,462,849,496s-0.3,60.7-0.3,60.7L853.8,555.5z"/>
			<path class="st1" d="M823.6,562.7l-20.4,4.8c0,0-28.7-2-46.3-19.3s-0.7-30.5,15.3-25S823.6,562.7,823.6,562.7z"/>
			<path class="st5" d="M831,560.9l-12.5,3c0,0-36.6-22.3-48.7-56.7s18.9-29.7,38.8-1.6s27.5,54.1,27.5,54.1L831,560.9z"/>
			<path class="st34" d="M872,471.4c-5.2,40.8-18.3,91.9-18.3,91.9"/>
			<path class="st35" d="M902.5,505.7c-10.1,19.5-22.4,37.8-36.5,54.6"/>
			<path class="st34" d="M776.9,493.9c22.9,34.1,57.6,73.9,57.6,73.9"/>
			<path class="st35" d="M765.1,538.2c17.8,12.9,37,23.8,57.2,32.5"/>
			<line class="st35" x1="819.7" y1="461" x2="842.7" y2="558.2"/>
			<path class="st5" d="M759.6,319.9c-0.5-1.9-1.3-3.7-2.5-5.3c-3.6-5.1-9-9.2-14-12.7c0.4,0.3,0.1,6,0.2,6.8
				c0.3,4.8,1.3,9.6,3,14.1c2.4,5.6,7.7,9.5,13.3,11.1c0.8,0.2,0.8-7,0.8-7.6C760.4,324.2,760.1,322,759.6,319.9z"/>
			<path class="st5" d="M763,333.6c2.3-1.6,5.4-1.5,8-2.3c3.4-1.1,6-3.8,8.1-6.7c3.7-5.2,6.1-11.4,6.7-17.8
				c-4.8,0.9-9.2,3.1-13.5,5.5c-2.5,1.3-4.7,2.9-6.7,4.9C761.7,321.7,760.7,328.1,763,333.6z"/>
			<path class="st36" d="M766.7,358.1c-2.4-13.9-7.4-27.2-14.8-39.3"/>
			<path class="st36" d="M761.5,338.1c0.9-5.5,3.2-10.7,6.7-15"/>
			<path class="st36" d="M750.6,316.4c-2.3-4.3-4.6-8.6-6.7-13.1"/>
			<path class="st36" d="M785,307c-3.5,2.8-6.8,5.6-10.1,8.6"/>
			<path class="st36" d="M773.1,317.8c-1,0.7-1.9,1.6-2.7,2.5"/>
			<path class="st5" d="M642.8,217.4c-0.3-1.1-0.8-2.2-1.5-3.2c-2.2-3.1-5.5-5.6-8.5-7.7c0.2,0.2,0,3.6,0.1,4.1
				c0.2,2.9,0.8,5.8,1.8,8.6c1.6,3.3,4.5,5.8,8.1,6.8c0.5,0.1,0.5-4.2,0.5-4.6C643.3,220,643.1,218.7,642.8,217.4z"/>
			<path class="st5" d="M644.9,225.7c1.4-1,3.3-0.9,4.9-1.4c2-0.8,3.7-2.2,4.9-4.1c2.3-3.2,3.7-6.9,4.1-10.8
				c-2.9,0.7-5.7,1.8-8.2,3.4c-1.5,0.8-2.9,1.8-4.1,2.9C644.1,218.5,643.5,222.4,644.9,225.7z"/>
			<path class="st37" d="M647.1,240.6c-1.5-8.5-4.5-16.6-9-23.9"/>
			<path class="st37" d="M643.9,228.5c0.5-3.4,2-6.5,4.1-9.1"/>
			<path class="st37" d="M637.3,215.3c-1.4-2.6-2.8-5.3-4-8"/>
			<path class="st37" d="M658.3,209.6c-2.1,1.7-4.2,3.4-6.2,5.2"/>
			<path class="st37" d="M651,216.1c-0.6,0.4-1.2,1-1.7,1.5"/>
			<path class="st5" d="M837.5,261.3c-0.3-1.1-0.8-2.2-1.5-3.2c-2.2-3.1-5.5-5.6-8.5-7.7c0.2,0.2,0,3.6,0.1,4.1
				c0.2,2.9,0.8,5.8,1.8,8.6c1.6,3.3,4.5,5.8,8.1,6.8c0.5,0.1,0.5-4.2,0.5-4.6C838,263.9,837.8,262.6,837.5,261.3z"/>
			<path class="st5" d="M839.5,269.6c1.4-1,3.3-0.9,4.9-1.4c2-0.8,3.7-2.2,4.9-4.1c2.3-3.2,3.7-6.9,4.1-10.8
				c-2.9,0.7-5.7,1.8-8.2,3.4c-1.5,0.8-2.9,1.8-4.1,3C838.7,262.3,838.1,266.2,839.5,269.6z"/>
			<path class="st37" d="M841.8,284.5c-1.5-8.5-4.5-16.6-9-23.9"/>
			<path class="st37" d="M838.6,272.3c0.5-3.4,2-6.5,4.1-9.1"/>
			<path class="st37" d="M832,259.1c-1.4-2.6-2.8-5.3-4-8"/>
			<path class="st37" d="M852.9,253.4c-2.1,1.7-4.2,3.4-6.2,5.2"/>
			<path class="st37" d="M845.7,259.9c-0.6,0.4-1.2,1-1.7,1.5"/>
			<path class="st5" d="M658.3,410.5c-0.3-1.1-0.8-2.2-1.5-3.2c-2.2-3.1-5.5-5.6-8.5-7.7c0.2,0.2,0,3.6,0.1,4.1
				c0.2,2.9,0.8,5.8,1.8,8.6c1.6,3.3,4.5,5.8,8.1,6.8c0.5,0.1,0.5-4.2,0.5-4.6C658.7,413.1,658.6,411.8,658.3,410.5z"/>
			<path class="st5" d="M660.3,418.8c1.4-1,3.3-0.9,4.9-1.4c2-0.8,3.7-2.2,4.9-4.1c2.3-3.2,3.7-6.9,4.1-10.8
				c-2.9,0.7-5.7,1.8-8.2,3.4c-1.5,0.8-2.9,1.8-4.1,3C659.5,411.5,658.9,415.4,660.3,418.8z"/>
			<path class="st37" d="M662.6,433.7c-1.5-8.5-4.5-16.6-9-23.9"/>
			<path class="st37" d="M659.4,421.5c0.5-3.4,2-6.5,4.1-9.1"/>
			<path class="st37" d="M652.8,408.3c-1.4-2.6-2.8-5.3-4-8"/>
			<path class="st37" d="M673.7,402.6c-2.1,1.7-4.2,3.4-6.2,5.2"/>
			<path class="st37" d="M666.5,409.2c-0.6,0.4-1.2,0.9-1.7,1.5"/>
			<path class="st5" d="M865.7,321.4c-0.2-0.7-0.5-1.3-0.8-1.8c-1.3-1.7-3-3.2-4.8-4.4c0.1,0.8,0.1,1.6,0,2.4c0.1,1.7,0.4,3.3,1,4.9
				c0.9,1.9,2.6,3.3,4.6,3.9c0.3,0.1,0.3-2.4,0.3-2.6C865.9,322.9,865.9,322.2,865.7,321.4z"/>
			<path class="st5" d="M866.9,326.2c0.8-0.6,1.8-0.5,2.8-0.8c1.2-0.5,2.1-1.3,2.8-2.3c1.3-1.8,2.1-3.9,2.3-6.2
				c-1.7,0.4-3.2,1-4.7,1.9c-0.9,0.4-1.6,1-2.3,1.7C866.5,322,866.1,324.3,866.9,326.2z"/>
			<path class="st38" d="M868.1,334.7c-0.8-4.8-2.6-9.4-5.1-13.6"/>
			<path class="st38" d="M866.4,327.7c0.3-1.9,1.1-3.7,2.3-5.2"/>
			<path class="st38" d="M862.6,320.2c-0.8-1.5-1.6-3-2.3-4.5"/>
			<path class="st38" d="M874.5,317c-1.2,1-2.4,2-3.5,3"/>
			<path class="st38" d="M870.4,320.7c-0.4,0.2-0.7,0.5-1,0.9"/>
		</g>
	</g>
</g>
<rect x="468" y="604.9" class="st39" width="925.1" height="536.3"/>
</svg>
