<svg xmlns="http://www.w3.org/2000/svg" xmlns:xlink="http://www.w3.org/1999/xlink" viewBox="0 0 800.78 510.78"><defs><style>.cls-1,.cls-27,.cls-8{fill:none;}.cls-2{isolation:isolate;}.cls-3,.cls-4{fill:#b9efe8;}.cls-12,.cls-25,.cls-26,.cls-27,.cls-4,.cls-6{mix-blend-mode:multiply;}.cls-4{opacity:0.7;}.cls-19,.cls-5{fill:#fff;}.cls-15,.cls-5{mix-blend-mode:screen;}.cls-7{fill:#b7ede6;}.cls-8{stroke:#b7ede6;}.cls-27,.cls-8{stroke-miterlimit:10;}.cls-9{clip-path:url(#clip-path);}.cls-10,.cls-12{fill:#279f95;}.cls-11{fill:#014d4b;}.cls-12{opacity:0.5;}.cls-13,.cls-26{fill:#a3c74f;}.cls-14{fill:#5c1309;}.cls-16{fill:#a35140;}.cls-17{fill:#8e2618;}.cls-18{fill:#c66858;}.cls-20{fill:#134452;}.cls-21{fill:#972b1e;}.cls-22{fill:#6b9e18;}.cls-23{fill:#c86858;}.cls-24{fill:#a5c94f;}.cls-25{opacity:0.4;}.cls-27{stroke:#a5c94f;}</style><clipPath id="clip-path" transform="translate(12.65 0.01)"><rect class="cls-1" y="-0.01" width="750" height="500"/></clipPath></defs><g class="cls-2"><g id="BACKGROUND"><rect class="cls-3" x="12.65" width="750" height="500"/></g><g id="OBJECTS"><path class="cls-4" d="M750,180.73V500H0V242.41c23.39-6.71,49.21-7.5,73.22-3.61,19.56,3.17,38.46,8.84,57.11,15.51l.43.16c9.48,3.41,18.9,7.08,28.31,10.81,17.15,6.82,34.25,13.84,51.62,19.91,128.86,45.05,276,35.06,397.55-27C656.08,233.81,701,201.43,750,180.73Z" transform="translate(12.65 0.01)"/><path class="cls-5" d="M546.16,170.42h193.5l-1.86-2.36a9,9,0,0,0-8.17-15.58c0-.27-.16-5.27-4.27-7.62a8.62,8.62,0,0,0-5.87-.88,23.86,23.86,0,1,0-44.57-17,20,20,0,0,0-32,8c-15.06-8.86-32.6-8.94-44.5-.16A35.37,35.37,0,0,0,586,153a14.23,14.23,0,0,0-17.51-2.71,14,14,0,0,0-6.41,13.57Z" transform="translate(12.65 0.01)"/><path class="cls-5" d="M209.54,216.55H16l1.87-2.36a9.33,9.33,0,0,1-1.6-11.84,9.23,9.23,0,0,1,9.76-3.74c0-.27.16-5.27,4.28-7.62a8.56,8.56,0,0,1,5.87-.88,23.86,23.86,0,1,1,44.57-17,20,20,0,0,1,32,8c15.06-8.86,32.6-8.94,44.5-.16,7.88,5.82,11.11,13.92,12.41,18.1a14.21,14.21,0,0,1,17.5-2.71,14,14,0,0,1,6.42,13.57Z" transform="translate(12.65 0.01)"/><g class="cls-6"><g class="cls-6"><rect class="cls-7" x="539.71" y="216.83" width="9.68" height="0.66" transform="translate(143.65 632.69) rotate(-66.88)"/><rect class="cls-7" x="535.45" y="213.62" width="9.68" height="0.66" transform="translate(-0.93 389.78) rotate(-39.22)"/><rect class="cls-7" x="533.16" y="208.8" width="9.68" height="0.66" transform="translate(-18.4 112.4) rotate(-11.59)"/><rect class="cls-7" x="537.88" y="198.96" width="0.66" height="9.68" transform="translate(205.46 664.13) rotate(-73.86)"/><rect class="cls-7" x="540.55" y="194.34" width="0.66" height="9.68" transform="translate(35.27 451.42) rotate(-46.17)"/><rect class="cls-7" x="545.06" y="191.48" width="0.66" height="9.68" transform="translate(-21.45 182.93) rotate(-18.47)"/><rect class="cls-7" x="545.87" y="195.56" width="9.68" height="0.66" transform="translate(281.7 708.07) rotate(-80.77)"/><polygon class="cls-7" points="565.63 202.06 565.1 201.66 570.91 193.92 571.44 194.32 565.63 202.06"/><rect class="cls-7" x="554.16" y="201.79" width="9.68" height="0.66" transform="translate(-19.99 259.49) rotate(-25.42)"/><rect class="cls-7" x="559.73" y="202.51" width="0.66" height="9.68" transform="translate(343.13 758.67) rotate(-87.71)"/><rect class="cls-7" x="558.25" y="207.63" width="0.66" height="9.68" transform="translate(108.04 590.11) rotate(-60.02)"/><rect class="cls-7" x="554.55" y="211.48" width="0.66" height="9.68" transform="translate(-17.04 330.19) rotate(-32.32)"/><rect class="cls-7" x="549.49" y="213.17" width="0.66" height="9.68" transform="translate(-3.14 45.07) rotate(-4.63)"/></g><g class="cls-6"><rect class="cls-7" x="35.87" y="313.99" width="9.68" height="0.66" transform="translate(-251.69 228.33) rotate(-66.88)"/><rect class="cls-7" x="31.6" y="310.78" width="9.68" height="0.66" transform="translate(-175.86 93.14) rotate(-39.22)"/><rect class="cls-7" x="29.31" y="305.96" width="9.68" height="0.66" transform="translate(-48.22 13.12) rotate(-11.6)"/><rect class="cls-7" x="34.04" y="296.12" width="0.66" height="9.68" transform="translate(-251.63 250.3) rotate(-73.86)"/><rect class="cls-7" x="36.7" y="291.5" width="0.66" height="9.68" transform="translate(-189.73 117.83) rotate(-46.17)"/><rect class="cls-7" x="41.21" y="288.64" width="0.66" height="9.68" transform="translate(-78.2 28.29) rotate(-18.47)"/><rect class="cls-7" x="42.02" y="292.72" width="9.68" height="0.66" transform="translate(-237.26 292.32) rotate(-80.77)"/><polygon class="cls-7" points="61.78 299.22 61.26 298.82 67.07 291.08 67.6 291.48 61.78 299.22"/><rect class="cls-7" x="50.31" y="298.95" width="9.68" height="0.66" transform="translate(-110.46 52.64) rotate(-25.42)"/><rect class="cls-7" x="55.89" y="299.67" width="0.66" height="9.68" transform="translate(-237.64 348.5) rotate(-87.71)"/><rect class="cls-7" x="54.41" y="304.79" width="0.66" height="9.68" transform="translate(-228.16 202.3) rotate(-60.02)"/><rect class="cls-7" x="50.71" y="308.64" width="0.66" height="9.68" transform="translate(-147.04 75.86) rotate(-32.32)"/><rect class="cls-7" x="45.65" y="310.34" width="0.66" height="9.68" transform="matrix(1, -0.08, 0.08, 1, -12.62, 4.74)"/></g><g class="cls-6"><rect class="cls-7" x="565.11" y="402.65" width="9.68" height="0.66" transform="translate(-11.82 768.9) rotate(-66.88)"/><rect class="cls-7" x="560.84" y="399.45" width="9.68" height="0.66" transform="translate(-112.7 447.69) rotate(-39.22)"/><rect class="cls-7" x="558.55" y="394.63" width="9.68" height="0.66" transform="matrix(0.98, -0.2, 0.2, 0.98, -55.28, 121.41)"/><rect class="cls-7" x="563.27" y="384.78" width="0.66" height="9.68" transform="translate(45.3 822.68) rotate(-73.86)"/><rect class="cls-7" x="565.94" y="380.16" width="0.66" height="9.68" transform="translate(-90.97 526.87) rotate(-46.17)"/><rect class="cls-7" x="570.45" y="377.31" width="0.66" height="9.68" transform="translate(-79.02 200.55) rotate(-18.47)"/><rect class="cls-7" x="571.26" y="381.39" width="9.68" height="0.66" transform="translate(119.61 889.16) rotate(-80.77)"/><polygon class="cls-7" points="591.02 387.88 590.49 387.48 596.31 379.74 596.83 380.14 591.02 387.88"/><rect class="cls-7" x="579.55" y="387.61" width="9.68" height="0.66" transform="translate(-97.27 288.28) rotate(-25.41)"/><polygon class="cls-7" points="602.93 393.7 593.26 393.31 593.29 392.65 602.96 393.04 602.93 393.7"/><rect class="cls-7" x="583.64" y="393.46" width="0.66" height="9.68" transform="translate(-40.22 705.05) rotate(-60.01)"/><rect class="cls-7" x="579.95" y="397.31" width="0.66" height="9.68" transform="translate(-112.45 372.56) rotate(-32.32)"/><rect class="cls-7" x="574.88" y="399" width="0.66" height="9.68" transform="matrix(1, -0.08, 0.08, 1, -18.05, 47.72)"/></g><g class="cls-6"><rect class="cls-7" x="218.26" y="238.21" width="17.7" height="1.21" transform="translate(-69.02 353.97) rotate(-66.89)"/><rect class="cls-7" x="210.46" y="232.35" width="17.7" height="1.21" transform="translate(-85.24 191.16) rotate(-39.22)"/><rect class="cls-7" x="206.27" y="223.53" width="17.7" height="1.21" transform="translate(-27.97 47.77) rotate(-11.58)"/><rect class="cls-7" x="214.91" y="205.53" width="1.21" height="17.7" transform="translate(-37.68 361.8) rotate(-73.86)"/><rect class="cls-7" x="219.79" y="197.08" width="1.21" height="17.7" transform="translate(-68.14 222.3) rotate(-46.17)"/><rect class="cls-7" x="228.04" y="191.86" width="1.21" height="17.7" transform="translate(-39.16 82.79) rotate(-18.47)"/><rect class="cls-7" x="229.52" y="199.32" width="17.7" height="1.21" transform="translate(15.48 403.17) rotate(-80.78)"/><polygon class="cls-7" points="255.17 211.19 254.21 210.46 264.83 196.31 265.8 197.04 255.17 211.19"/><rect class="cls-7" x="244.67" y="210.7" width="17.7" height="1.21" transform="translate(-53.49 129.22) rotate(-25.41)"/><rect class="cls-7" x="254.88" y="212.02" width="1.21" height="17.7" transform="translate(37.22 467.31) rotate(-87.71)"/><rect class="cls-7" x="252.16" y="221.39" width="1.21" height="17.7" transform="translate(-60.33 334.11) rotate(-60.01)"/><rect class="cls-7" x="245.4" y="228.43" width="1.21" height="17.7" transform="translate(-76.1 168.3) rotate(-32.32)"/><rect class="cls-7" x="236.14" y="231.53" width="1.21" height="17.7" transform="translate(-5.97 19.89) rotate(-4.63)"/></g><path class="cls-8" d="M431.58,477.46a7.14,7.14,0,1,1-7.14-7.14A7.14,7.14,0,0,1,431.58,477.46Z" transform="translate(12.65 0.01)"/><path class="cls-8" d="M458.13,301.6a7.14,7.14,0,1,1-7.14-7.13A7.14,7.14,0,0,1,458.13,301.6Z" transform="translate(12.65 0.01)"/><circle class="cls-8" cx="248.84" cy="286.5" r="7.14"/></g><rect class="cls-1" x="13.8" width="750" height="500"/><g class="cls-9"><path class="cls-10" d="M750,449.6V500H0V433.48c26.21-13.5,59.62-25.42,98.52-35.22a863,863,0,0,1,85.4-16.71q18.21-2.7,37.32-4.82c1.73-.21,3.47-.39,5.21-.58h.05c2.17-.23,4.34-.47,6.53-.68q12.18-1.23,24.69-2.24,10.45-.84,21.12-1.51h0q16.65-1.07,33.72-1.67l2.49-.1,5.9-.19h0c2.06-.07,4.12-.12,6.19-.17h0q17-.43,34.4-.44,8.67,0,17.26.11h0q20.44.25,40.37,1.13c3.45.14,6.87.3,10.29.49,72.69,3.72,139.22,13.34,194.66,27.26q19,4.77,36.15,10.18h0l5.11,1.63C700.51,421.4,729.28,434.8,750,449.6Z" transform="translate(12.65 0.01)"/><path class="cls-11" d="M640.62,407.6l0,0v0l0,0Z" transform="translate(12.65 0.01)"/><path class="cls-11" d="M651.05,445.92c-1.76-2.66-3.82-5.12-6.41-6.44a2.84,2.84,0,0,1-1.76-2.07c.35-1.18,1.85-1.68.81-3.77-1.21-2.45-.63-3.61.49-4.57l3.12,1.53c2-3.7-.58-9.25-.81-13.49-2.2-3.33-5-6.11-5.91-9.53-1.18-.86-2.38-1.66-3.56-2.56-2.57-1.94-4.13-2.28-5.87-1.16-2.23-2.59-4.78-1.8-7.32-3.59.11-.76.26-1.44.36-2.13-55.44-13.92-122-23.54-194.66-27.26.08.35.15.67.24,1.13l-6-1c0,.49,0,.83,0,1.17-2,.24-3.53-.19-4.25-1.38a2.44,2.44,0,0,0-.33-.43q-19.9-.87-40.37-1.13h0a2.21,2.21,0,0,0-.4.41c-1.24,1.61-3.64,2.58-6,3.5-2.59,1-5.51,1.73-8.64,2.69a17.82,17.82,0,0,0,.33,4.46c.77,2.37,3.6,3,6.65,1.52a11,11,0,0,1,1.85-.93,19.63,19.63,0,0,1,2.69-.52c.87,1.42,1.58,2.63,2.34,3.87s1.48,2.32,2.34,3.68l6.85-2.36c0-.3,0-.65,0-1,.08-1.59.17-3.05,2.88-3.61.71-.15,1.1-1,1.72-1.62-1.48-.59-2.62-1.07-3.74-1.51-.39-2.08.65-3.37,3.32-4.2,1.77-.55,3.45-1,4-2.58.59-1.74,4.89-1.71,7.26-.05-2.33,1.17-4.7,2.4-7,3.59.68,1.34,1.27,2.51,1.81,3.64a7.28,7.28,0,0,0,5.69.84,32.89,32.89,0,0,1,3.62-.57,13.59,13.59,0,0,1,7.9.89c-3.23.43-5.86,1.28-9,1-1.23-.13-2.55.33-4.47.64,1.27,1,2.06,1.62,3.05,2.42-.26.61-.56,1.34-1,2.35l-4.06-1.91c-4.33,1.08-1,3.48-1.48,5.15l-3.79,1.78a6.59,6.59,0,0,0-5.7-.63l-5.19,1.71c-3.11-1.44-3.09-1.43-7.6-.66l-2.94-2.14c1-.3,1.51-.46,2.45-.72-.71-.4-1.22-.66-1.3-.7.2-1.3.36-2.34.54-3.53-1.61.47-2.88.82-4.12,1.17-1.58,2.12,1.38,4,.44,6.24-3.11.64-6.65.41-9.26,2.26l-1.55,2.47L353.6,398a17.56,17.56,0,0,1-3.25,3c-1.56,1.33-3.19.39-4.78.43-.54,2.47-.83,2.68-3.62,1.92-1.56-.43-2.61.21-4.49.83,1.87.73,3.14,1.19,4.38,1.72,1.86.79,3.79,3.56,3.43,5s-.84,2.86-1.23,4.33a2.16,2.16,0,0,1-2.61,1.75c-3.19-.38-6.39-.72-9.54-1.15a12.74,12.74,0,0,0-1.83-.14,10.81,10.81,0,0,0-5.58,1.48c-.17,1.85-.84,3.83-.36,5.51.71,2.47-1.78,3.76-2.15,4.92.41,2.38.7,4.05,1,6,.81,0,1.68-.07,2.5,0,2.28.1,4.3.77,4.4,4-2.35.8-3.06,2.89-4.37,4.54-.92,1.17-1.62,2.83-2.85,3.43-4,2-5.13,5.38-6.1,9-1,3.86-3.09,6.84-7.31,8.16a7.14,7.14,0,0,0-3.4,2.29,61.22,61.22,0,0,0-10.15,19.28c-.1.29-.18.58-.27.88,1.3,1.54,1.24,3.64,0,5.89a3.31,3.31,0,0,0,0,2.44,10.76,10.76,0,0,1,.18,6.49H456.06c-.1-.27-.18-.56-.26-.84a8.34,8.34,0,0,0-1.43-3.55,10.89,10.89,0,0,1-.9-1.05,16.66,16.66,0,0,1-2.82-7.29,2.56,2.56,0,0,0,0-.27,8.48,8.48,0,0,0-1.88-4.22c-2-2-3.89-3.78-3.38-6.85a1.57,1.57,0,0,0,0-.16c.08-.42-.47-1-.76-1.47-1.31-2.23-2.59-4.47-4-6.65-1.5-2.41-3.19-4.72-4.58-7.16a26.54,26.54,0,0,1-1.52-3.33c-.3-.76-.62-1.58-1-2.48,2,1.14,2.69,3,3.66,4.46a4.11,4.11,0,0,0,2.66,2l.06,0c.31-.45.54-.76.54-.78,1.4,1.13,3.54,2,4.1,3.46,1.28,3.28,5.51,4.83,5.38,8.88,0,.4,1,1,1.61,1.29a6.35,6.35,0,0,1,4,6.51c-.19,2.94,1.41,4.51,3.27,6.56,3.16,3.47,5.59,7.62,8.27,11.54a2.1,2.1,0,0,1,.16,1.26c0,.05,0,.09,0,.14h27.17a7.86,7.86,0,0,1,3.92-1.83c2.73-.58,4.54-2.39,6.25-4.06,1.51-1.47,3.61-2.88,3.45-5.79,0-.7,1.66-1.39,2.69-2.2.21-.69.45-1.73.82-2.71,1.05-2.85,1-3.41-1.37-5.47a7.37,7.37,0,0,0-2.85-1.72c-2.44-.57-3.8-2.28-5-4.31-.45-.8-.91-1.57-1.51-2.6-3,3.17-5.32,7-11.48,5.62-1.75-.74.46-3.75-1.32-5.58l-2.08,3.13a40.79,40.79,0,0,0-1.44-4.13c-.63-1.36-1.15-3.05-2.24-3.87a10.11,10.11,0,0,1-1.75-1.7,37.19,37.19,0,0,1-3.19-5.27,2.89,2.89,0,0,1,2.56-1.9c1.19-.05,2.48.48,3.64.4a27.42,27.42,0,0,1,1.67,2.69c1.67,3.57,4.54,5.61,8.06,7.16,3.27,1.45,6.26,2.56,8.76-.68.61.68,1.2,1.06,1.31,1.51.52,2,1.71,2.87,3.7,3.54,2.29.76,4.52.7,6.69,1.12a25.71,25.71,0,0,0,7.79,0c3.42-.31,6.72-.38,9.69,3.17,1.95,2.33,4.39,5,8.32,4.51-.84,1.41-1.37,2.29-1.88,3.16,4.4,4.37,5.34,4.49,7.82.67.33,1.38.59,2.38.77,3.38.31,1.65.49,3.31.83,4.95a56.69,56.69,0,0,0,2.7,8.85H570.4c.73-.81,1.44-1.61,2.11-2.47,1.56-1.95,2.66-4.41,4.27-6.21s3.2-3.16,4-5.66a2.75,2.75,0,0,1,2.36-1.65c1.75.27,2.92-.77,4.23-1.45,2.42-1.28,2.44-1.3,3.91,1.25,1,1.79,1.89,3.86,3.21,5.25s1.9,3.62,2.95,5.33c.91,1.49,1.18,3.53,1.55,5.61.1.57.21,1.15.34,1.72a5.77,5.77,0,0,0,2.67-.05,5.41,5.41,0,0,0,1.67-1.67c.2-.26.4-.52.61-.76.16.26.33.51.48.76h20.43c-3.51-4.08-4-8.15-1.42-12,2.15-3.25,3.73-3,5.64.95.08.15.29.19.12.09,1.21-1.09,2.23-2.06,3.28-2.95.85-.73,1.73-1.38,2.82-2.23,0,.06.26.26.42.2a17,17,0,0,1,2.22-.87c3.65-.54,4.71-4.69,6.08-8.1.89-2.22,1.1-5,1.55-7.55.21-1.13.29-2.32.44-3.54L644.07,462c.81-2.76.58-3.58-1.09-5.61-1-1.18-1.88-2.53-2.83-3.94a9.05,9.05,0,0,0-3.39-3.14c-.45-.24-.89-.59-1.49-1,.27-2.65,1-4.64,3.2-5.17-1.63-.77-3-1.4-4.34-2-1.07,1.82-1,1.78-2.9,0a4.55,4.55,0,0,0-1.89-1.15c-1.59-.3-2.24-1.35-2.61-3.15,2.95.65,1.95-2.85,3.46-4,.63.32,1.4.7,2.3,1.17.09,1,.17,1.74.23,2.44l1.69,1.33c.83-2.3,3.11-1,5.21-.91.64,1.64,1.23,3.13,1.78,4.55a4.58,4.58,0,0,0,.68.32c2.67.51,2.6.51,4.15,3.8.91,1.93,2,3.79,3.12,5.8.49-.23,1-.47,1.44-.66C652.76,449.94,652.94,448.76,651.05,445.92Zm-217.63,5.77c-1.5-.18-3.37-1.05-4.44-.51a8.34,8.34,0,0,1-3.3.9,18.75,18.75,0,0,1-6.05-1c-1.32-.36-2.82-.07-4.07-.59-3.08-1.49-6.08-3.16-9.26-4.38-2-.76-4.83,1.32-5.4,3.58-.2.78.08,1.71-.22,2.42-.38.94-1,2.15-1.78,2.44a3.37,3.37,0,0,1-3-.73c-1.44-2-3.19-2.44-5.53-2.43a3.79,3.79,0,0,1-2.62-1.71,5.29,5.29,0,0,0-4.53-2.7,6.8,6.8,0,0,1-6.17-3.55c-.26-.46-.6-.88-.95-1.38l-2.86,2.39c-2-2.39.9-3.27,1.3-4.83-.4-2.18-.83-4.41-1.16-6.18-3.48,0-6.37,0-9.25.05a3.84,3.84,0,0,0-1.64.32,11.08,11.08,0,0,1-9.28.93c-1.09-.37-3,.43-4.23,1.12a32.11,32.11,0,0,1-12.44,3.82c-2.75.27-5,0-6.56-2.14,1.46-2.53,4.08-3,6.75-3.13a10.61,10.61,0,0,0,8.52-4.52c.28-.41.81-.87.76-1.26-.52-4.23,2.31-6,6.44-7,2-.49,2.38-1.43,2.28-4.35a5.75,5.75,0,0,1,5.71-1c1.86.75,3.16.25,4.93-.43s3-2.47,5.49-1.92c2.28.49,2.32,2.32,3.52,3.43,2.18,2,4.18,4.26,7.7,5.08a9.37,9.37,0,0,1,5.78,4.38c1.13,1.8.69,3.13-1.51,3.72a66.21,66.21,0,0,1-6.69,1.16c1.49,1.66,3.5,2.33,6,2.84-.1-3.09,3.67-3.76,4.55-6.57-.84-1.12-2.18-2.64.4-4l2.79,1.48c.1-.25.29-.53.23-.58a11,11,0,0,0-2.59-1.75c-5.15-1.84-8.62-5.29-12.06-8.59-1.74-1.67-1.18-3,1.27-4,1.19.69,2.33,1.37,3.49,2,.32.17.91.22,1,.44,1.62,3.06,5.48,3.86,8.35,5.71,1.9,1.22,3.71,2.19,3.91,4.69.12,1.48,1.41,3.12,2.67,4.33s2.63,2.46,5,2.25c1.22-.09,2.56.59,4.3.39a19.5,19.5,0,0,1-2.75-2.39,17.47,17.47,0,0,1-1.57-3.44l3.52.6c.87-1.76,2.2-2.89,5-1.58.91.43,2.4.13,3.53-.09a27.62,27.62,0,0,0,3.54-1.26L417.09,419c1.72-4.8,3.71-8.81,7.47-10.82,1.57.6,3.18,1.24,4.23,1.65.93,1.43,1.63,2.56,2.54,4,2.41-.72,4.47-1.32,6.76-2,4.35,2,8.94,4.22,14.06,6.7.24.63.65,1.76,1.1,3a11.15,11.15,0,0,1-9.94,1.43c-2.21-.61-4.39-1.33-6.6-1.92-2.56-.68-5.19-.88-7.34.44a6.61,6.61,0,0,1-5.81.76c-.78.89-1.48,1.7-2.15,2.49-2.3.21-4.54.44-6.78.66,1.49,1.54,2.35,2.64,2.6,4.48.44,3.33,3.88,5.66,7.85,5.9.53,0,1.28,0,1.54-.32,1.56-1.74,3.1-1.12,4.63.18,1.69,1.46,3.21,1.13,4.93.28a38.16,38.16,0,0,1,4.9-1.73l.15-.06a18.8,18.8,0,0,1,.71,3.62c.43,4.52-.91,8.66-2.81,12.82a2.52,2.52,0,0,1-.9,1.1C437,452.44,435,451.89,433.42,451.69Z" transform="translate(12.65 0.01)"/><path class="cls-11" d="M666.8,414.6l-1.35-1.3c-1.66-1.68-3.36-3.33-5.1-5l5.11,1.63a7.55,7.55,0,0,0,.17.95C665.89,411.88,666.26,412.88,666.8,414.6Z" transform="translate(12.65 0.01)"/><path class="cls-11" d="M221,378.15c0-.49.18-1,.2-1.42,1.73-.21,3.47-.39,5.21-.58l1.6,2.12c-2.08.91-3.65,1-4.25,0C223.33,377.38,222.37,377.64,221,378.15Z" transform="translate(12.65 0.01)"/><path class="cls-11" d="M226.5,376.15c2.17-.23,4.34-.47,6.53-.68a7.7,7.7,0,0,1-1.88,1.34C229.47,377.57,228.79,376.09,226.5,376.15Z" transform="translate(12.65 0.01)"/><path class="cls-11" d="M234.55,395.34a10.46,10.46,0,0,1-5.32,4.07,41.05,41.05,0,0,0-5,2.61c-.23,1.4.07,2.08,1.33,2,1.76-.07,1.63,1.05,1.36,2.29-.21,1-.44,1.92-.62,2.9-.23,1.32-1.07,1.83-2.61,1.84,0-.52,0-1.1,0-2-2.86-.08-5.83-.14-8.89-.19.71-2.67,3.68-3.49,5.15-5.46-2.71-1.43-6.19.54-9.35,1.15-.17.51-.29.92-.44,1.41-2.43,1.32-2.34-1.11-4.23-1.16-4.5,2.26-9.64,3.63-14,7.69,4.67-1.84,9.32-5.27,14.08-5,.45,0,.7.49,1.48,1.07-1.69.71-2.87,1.19-3.73,1.57.09,1,.18,2,.29,3.14a4.76,4.76,0,0,1,2.07.2c.32.19-.07,1.2-.15,1.94,2.12.86,4-1.14,6.69-3.05-.76,1.41-1,2.28-1.46,2.63a11.05,11.05,0,0,1-3.15,1.53,30.43,30.43,0,0,0-9.88,4.21c-.34.25-.85.17-1.54.29,1.1-3.12,4.53-2.69,6-5-1.71-1.1-3.79,0-5.84,1-1.71.83-3.42,1.65-5.12,2.49-2.17,1.09-4.36,2.11-6.47,3.35-1.85,1.09-2.26,2.07-2.27,4.78-5.33-.16-10.17,1.89-14.44,7.77-.2-1-.3-1.53-.44-2.26-1,2.12-1.27,4.27-3.47,6l.7-3.87c-2.18,2-2.47,4-3.09,6-.56,1.78-2,3.36-3.68,5.34-2.94,1.73-7,3-9.56,6.61-.46.66-1.35.83-2,1.38-2.41,2.12-4.27,4.63-4.25,8.36,0,1.76.06,3.51.23,5.25a15,15,0,0,1-2.16,9.27c-1-3.67-3.05-6-2.21-10a3.47,3.47,0,0,0-2.78-4.44c-1.9-.32-3.74-.76-5.59-1a35.85,35.85,0,0,0-3.91-.09c-.33,1.79-.56,3.11-.86,4.79a19.78,19.78,0,0,1-2.41-.75c-4.34-1.83-8.18.74-11.67,4a8.16,8.16,0,0,0-2.26,6.51,9.14,9.14,0,0,1-.49,2.67c-.37,1.41-.92,2.74-1.2,4.16-.79,4-1,7.91.81,11.4a12.2,12.2,0,0,1,.46,3.17c1.71-.48,1.71-.49,2.93,1.12a13.43,13.43,0,0,1,3.45-1.33,4.44,4.44,0,0,0,3.26-2c1.17-1.47,1.13-3.08,1.23-4.81a3.17,3.17,0,0,1,.35-.81c2.26-.55,4.65-1.12,7.42-1.75a12.62,12.62,0,0,1-.91,2.09,9.68,9.68,0,0,0-2,4.6c-.23,1.43-.69,2.74-2.31,2.19a10,10,0,0,1,.25,2.9H97.64c-.18-.09-.36-.16-.54-.23a4.39,4.39,0,0,1-2.7-2.71,6.49,6.49,0,0,1-.46-4.36,10.27,10.27,0,0,0-.92-7.8,18.73,18.73,0,0,1-2.89-8.39,7.25,7.25,0,0,0-1.42-3.77c-1.23-1.52-1.24-3.77-1.34-6.06s-.11-2.25-1-3.65c-1.18.8-1.36,2.42-1.12,4a50,50,0,0,0,1.46,7.25A26.39,26.39,0,0,1,88,481.76c0,1,.16,2,.28,3.33-.93-.35-1.39-1.48-1.56-2.7a21.46,21.46,0,0,0-3-8.21,7,7,0,0,0,.54-4.42c-.28-2.18-.54-4.38-.69-6.61-.2-2.85-.76-5.14-1.9-6.3-.79-.8-.78-2.21-.56-3.92.29-2.16.51-4.31.87-6.46a17.28,17.28,0,0,1,1-3.88c1.31-3,2.78-5.94,4.37-8.81,1-1.86,2.32-3.54,3.48-5.35s2.16-3.49,3.33-5.33c.37.16.71.33,1.15.55,1.42-1.37,2.38-2.8,2.27-4.79-.07-1.29.07-2.7.11-4.18l1.49-.65c.47-2.15-1.3-1-2-1.73,0-.37.19-1.12,0-1.48-.65-1.27-.38-2.44,1-4.06a18.49,18.49,0,0,0,1.74-3.49l-2.68.37c.1-.44.2-.92.34-1.41a26.08,26.08,0,0,0,1-4,863,863,0,0,1,85.4-16.71,39.77,39.77,0,0,0-9.78,5.2c-1.45,1.13-3.14,5-2.43,5.76a3.27,3.27,0,0,0,2,.56c2.33.24,5.64,1.55,6.41,2.67l4.45-.16c-1.06,1.84-3.39,3.12-3.53,4.95,0,.19-1.17.73-1.91,1.19.4,1.37.78,2.61,1.17,3.87,4.34-2.49,6.53-5.79,8.88-9.25,1.06-.44,2.31-.91,3.55-1.49a48,48,0,0,0,5.1-2.49c2.73-1.63,3.41-2.91,3.06-5,.15-.18.27-.43.45-.53A34.24,34.24,0,0,0,209,381a4.92,4.92,0,0,1,4.69-1.58,11.77,11.77,0,0,0,3.24-.32c.77-.1,1.55-.26,2.46-.43l.5,2.35,2.72.21c-1.26,1.16-2.5,2.34-3.81,3.6l1.59,1.36c3.82-.3,6.74-3,10.16-4.38,0,1.53.1,2.94.17,4.4-.26,1.66-3.41,3.59-1.61,5.39,1.79.06,3.85.07,3.66,2.41C232.73,394.59,233.86,394.85,234.55,395.34Z" transform="translate(12.65 0.01)"/><path class="cls-11" d="M257.72,373.23q10.45-.84,21.12-1.51a5.78,5.78,0,0,0-1.41,1,5.73,5.73,0,0,1-2.33,1.29c-3.41.81-5.17,2.89-7.61,4.53-1,.67-2,1.73-3.21,1.44-1-.22-1.43-1.07-2.42-1.87a12.63,12.63,0,0,1-2.36.11c-.71-.07-1.58-.29-1.66-.68a10.16,10.16,0,0,1-.15-4.18A1.22,1.22,0,0,0,257.72,373.23Z" transform="translate(12.65 0.01)"/><path class="cls-11" d="M351.47,398l-12.24.77c.56-1.94,3.72-.78,4.67-2.54l-5,0c2.34-1.21,2.3-3.82,5.44-4.32l-1.37-2.6-2.47-.11c.37-.74.7-1.4,1.23-2.44l-2.49.93c0-1,1.22-1.79.62-2.87-.27-.48,1.27-1.71,2.24-2.41a9.17,9.17,0,0,1,2.74-.43c-.52.76-.81,1.2-1.21,1.8l2,.08,2.24.11-2.56,2.21c1.48,2.47,5.36,3.81,5,7.09l4.15.31a17.27,17.27,0,0,0-2.15,2.12A9.79,9.79,0,0,0,351.47,398Z" transform="translate(12.65 0.01)"/><path class="cls-11" d="M665.11,452.4c0,1,0,1.94,0,2.87-1.36-.53-1.32-1.92-1.74-2.86-2.61-1.67-3.58,1.48-6,.62.48-3.47,2.22-4.38,5.36-2.41-.24-2.17,0-3.61,1-4.58.84-.81.2-3.87-.88-5.76-.62-1.08-1.26-2.16-2.32-3.93a43.55,43.55,0,0,1,4.26,3,5,5,0,0,1,1.31,2.25,35.8,35.8,0,0,0,3,8.58c.3.64.89,2.39-.59.82-.15,1.21-1,1.34-1.68,1.62C666.43,452.78,665.78,452.49,665.11,452.4Z" transform="translate(12.65 0.01)"/><path class="cls-11" d="M329.14,370.6c-.12.24-.24.47-.35.71a98.5,98.5,0,0,1-10,2.13c-1.92.23-3.9-.58-5.68-1.08-.29-.08-1.61-.6-.37-1.43.21-.12,0-.5-.22-.88l2.49-.1.61.62c1.78-.25,3.55-.56,5.29-.81h0c1.6-.23,3.19-.42,4.76-.52a2.66,2.66,0,0,1,1.43.35h0C327.85,369.89,328.49,370.33,329.14,370.6Z" transform="translate(12.65 0.01)"/><path class="cls-11" d="M653.07,500h-3.23c-.1-1.24-.14-2.56-.26-4l2.66,1.29A14.23,14.23,0,0,1,653.07,500Z" transform="translate(12.65 0.01)"/><path class="cls-11" d="M335.57,394.47c-2.74.07-5.21,2.22-8.83,1.8a11.51,11.51,0,0,1,1.34-1.63,5.69,5.69,0,0,1,1.09-.68l-.62-2.85,4.37-.62-.21-1.23c.94-.7,4.29-1,4.94-.33.26.24.42.89.24,1C336,391.1,336.58,392.84,335.57,394.47Z" transform="translate(12.65 0.01)"/><path class="cls-11" d="M151.88,490c-1.53.28-2.49.51-3.44.61s-2,.08-3.08.12l.57-1.6c-2.35-2.39-4.64-4.73-7.74-5-1.36-2.66-3-.8-4.59.19-.58-1.24,0-1.61.67-1.89,3.75-1.53,7.11-.11,10.36,2C146.83,485.86,148.91,487.67,151.88,490Z" transform="translate(12.65 0.01)"/><path class="cls-11" d="M658.27,432.81c-.94-5.19-.95-5.22-2.69-7.73,1.79.34,3,2.29,4.4,3.34s3,.88,4.33,3c-.41.76-.8,1.51-1.29,2.45C661.55,433.16,659.61,431.5,658.27,432.81Z" transform="translate(12.65 0.01)"/><path class="cls-11" d="M154.32,491a8.6,8.6,0,0,1,9.23,3.56c-2.3.48-4.6-.32-6.3,1.81l-2-1.35C154.92,493.54,154.62,492.24,154.32,491Z" transform="translate(12.65 0.01)"/><path class="cls-11" d="M640.62,407.6,639.16,405l.16-.26c1.85,1.69,3.65,3.43,5.47,5.1s3.65,3.27,5.3,4.8c0,1,0,1.83-.06,2.69-3.08-3.28-5.52-7.49-9.46-9.83Z" transform="translate(12.65 0.01)"/><path class="cls-11" d="M660,460.15c-.86.37-1.54-.09-1.62-1.18-.14-1.76-.5-3.14-1.76-4,.4-1.73,1.41-.34,2.11.18C660.44,456.39,659.94,458.37,660,460.15Z" transform="translate(12.65 0.01)"/><path class="cls-11" d="M630.93,491.16c.1.22.2.33.2.43,0,1.24-.09,2.49-.15,3.77-1,.77-2,1-2.89-.19a2.56,2.56,0,0,1-.23-1.79C628.46,491.7,629.47,490.8,630.93,491.16Z" transform="translate(12.65 0.01)"/><path class="cls-11" d="M648.62,485.32c-1.86-4.4-1.86-6.42,0-8A27.17,27.17,0,0,1,648.62,485.32Z" transform="translate(12.65 0.01)"/><path class="cls-11" d="M651.75,418.89c1.14,1.06,2.26,2.12,3.41,3.21l-1.53.72c-.65-1.09-1.38-2.28-2.11-3.48Z" transform="translate(12.65 0.01)"/><path class="cls-11" d="M661,456.65c-1-2.75.7-2.26.76-3.56C662.45,454.3,662.74,454.22,661,456.65Z" transform="translate(12.65 0.01)"/><path class="cls-11" d="M370.76,422.3c.3,1.88.51,3.15.74,4.6l-2.85,1.25c-.23-1.6-.42-2.95-.62-4.34Z" transform="translate(12.65 0.01)"/><path class="cls-11" d="M407.17,432l-.93,2.11c-2.1.25-3.49-.34-4.18-2.73Z" transform="translate(12.65 0.01)"/><path class="cls-12" d="M528.92,425.7a.29.29,0,0,0,0-.16.21.21,0,0,0-.23,0c-1-.69-2.2-1.32-2.91-1h0s-1.31.19-3,.38l0-.05a.24.24,0,1,0-.35-.33,5.07,5.07,0,0,0-.35.46l-1,.11,0-.05a.24.24,0,0,0,0-.34.25.25,0,0,0-.35,0,4,4,0,0,0-.33.45l-.87.07a1.71,1.71,0,0,0,.11-.14.24.24,0,1,0-.35-.33,4,4,0,0,0-.4.52c-2.18.16-4.09.2-4.3-.2l-.46.26c-4.51-.19-8.11-.37-10.41-.48a129.38,129.38,0,0,0-16.15,0c-6.12.39-7.65,1-8.46,2.16a4.52,4.52,0,0,0-.48,3.3,22.69,22.69,0,0,0-4.48-1.24c-1.82-.16-6.12-.55-7.93,1.94-.38.52-.87,1.46-.71,4.42.05.73.13,1.61.29,2.6a24.84,24.84,0,0,0,.94,3.91,28,28,0,0,0,1.34,3.37l8.37,20.41.64,1.57-14.41-10s0-.08,0-.11a3,3,0,0,0-1.06-2.05,30.09,30.09,0,0,1-.89-6.34.71.71,0,0,0-1.21-.49,5.24,5.24,0,0,0-1.44,4.18,21.65,21.65,0,0,1-4.32-4.6c-.24-.36-.51-.76-1-.73a1.2,1.2,0,0,0-1.05,1.08,4.73,4.73,0,0,0,.89,3.29.25.25,0,0,0-.3,0,.25.25,0,0,0-.07.2c-.54-.42-1-.83-1.48-1.22A1.58,1.58,0,0,0,450,450a1,1,0,0,0-.94.9,2.68,2.68,0,0,0,.35,1.38,13.79,13.79,0,0,0,1.76,2.64l-.05,0a.25.25,0,0,0-.36,0s0,.05,0,.09c-.72-.48-1.44-.89-2-1.2-.86-.48-2.25-.71-2.52.35a1.29,1.29,0,0,0,.37,1.2c.77.78,1.57,1.53,2.4,2.26a44.9,44.9,0,0,0,7.19,5.2c.35.2,1.07.12,1.4.35.28-.07.53-.15.79-.24l.35.26,2.92,2.18,2.92,2.18c.34.24.67.5,1,.75l5.61,12.11c.12.88.25,1.71.4,2.51l-.76.68.08,0a1.71,1.71,0,0,1-.33.17,2.25,2.25,0,0,0-.66.38,46.45,46.45,0,0,0-6.94,10,1.27,1.27,0,0,0,0,1.25c.57.95,1.82.3,2.51-.42.43-.45,1-1.06,1.54-1.72,0,0,0,.06.06.07a.25.25,0,0,0,.34-.09,13.68,13.68,0,0,0-.85,3,2.38,2.38,0,0,0,.07,1.4,1,1,0,0,0,1.16.59,1.39,1.39,0,0,0,.64-.67c.29-.48.67-1,1.05-1.59a.3.3,0,0,0,.12.17.27.27,0,0,0,.3-.09,4.78,4.78,0,0,0,.13,3.41,1.19,1.19,0,0,0,1.32.72c.49-.14.63-.59.75-1a22.23,22.23,0,0,1,2.75-5.65,1,1,0,0,0,0,.1,5.18,5.18,0,0,0,1.48,2.62,5.54,5.54,0,0,0,1.11.81l0,0c2.35,2,4.35,1.5,4.35,1.5a17.4,17.4,0,0,0,4.24,1.38l.24,0,0,1.27h.09l0,1.29a22.28,22.28,0,0,0-2.46-.48,4.63,4.63,0,0,0-4.14,1.68l-.37.5a17.28,17.28,0,0,0-2.54,6h26.8c0-.08-.07-.14-.1-.22a3.21,3.21,0,0,0-1.84-1.59c-.06-1.81-.13-3.73-.15-5h.15c.25,0,.47,0,.69,0a8.8,8.8,0,0,0,6.09-2.69,8.61,8.61,0,0,0,2.3-6.08,13.84,13.84,0,0,0,.27-2.59l-2-22.72-.62-7.08c0-.26-.05-.52-.07-.79-.14-2-.34-4-.56-6.08-.09-.82-.19-1.62-.29-2.43l0,0h0c-.74-6.19-1.72-12.06-2.86-17.55l-1.69.19H503c1.07-.3,2.12-.58,3.2-.9l2.32-.72.1.12-.14,0,.77,1,2.85,3.63.57.72.65.78,17-13.34A7.56,7.56,0,0,0,528.92,425.7Zm-45.53,14.69c-.29,1.66-.57,3.33-.86,5v-1.11c0,.31,0,.6-.09.9-.44-1.12-.88-2.25-1.31-3.38Z" transform="translate(12.65 0.01)"/><path class="cls-12" d="M368.42,487.65c-.1,1.25-.95,2.09-2.3,2.8a4,4,0,0,1-.58.62c2.83,0,2.81,2,0,2.36-.54,2.47-3.77,2.91-8.37,3.82l0,.12-.47,0a55.19,55.19,0,0,0-5.51,1.37c2.64,1,1.94,2.92,1.94,2.92a74.35,74.35,0,0,1-18.77-6l-1.62.31-8.6,3.63-16.27,10.64h-76.7a155.39,155.39,0,0,1,6.92-25.72l-.24,0s-4.2-33.14,8.92-39.81A84.91,84.91,0,0,1,258.59,440l-17-7.21-1,1.2-6.75,8.61h0l-1.34,1.7L231,446.12l-30.31-23.8-1.35-1.07-2.26-1.78-6.3-5a17.3,17.3,0,0,1,3.28-2.83.42.42,0,0,1,.07-.36.52.52,0,0,1,.6-.12c2.14-1.48,4.7-2.83,6.42-2.46a4.21,4.21,0,0,1,.42.12l2.39.32c1.24.17,2.89.38,4.75.59l-.11-.13a.55.55,0,0,1-.11-.62.38.38,0,0,1,.13-.19.57.57,0,0,1,.81,0,9.32,9.32,0,0,1,.88,1.11l2.2.24-.08-.12a.57.57,0,0,1,.83-.79,11,11,0,0,1,.85,1.06l2,.19c-.09-.11-.18-.23-.28-.33a.57.57,0,0,1,0-.81.58.58,0,0,1,.82,0,8.22,8.22,0,0,1,1,1.24c4.34.33,8.22.43,9.64-.12a.94.94,0,0,0,.53-.37l2.07,1.18c1,.61,2.1,1.2,3.15,1.8l84.2-3.31s18.83,1,26.8,7.86a9.76,9.76,0,0,1,3.11,4.41c1.69,5.22-2.88,10.8-8.11,15.18a76.48,76.48,0,0,1-12,8.11l-3.91,1.92c1.25.76,2.47,1.52,3.64,2.27a140.76,140.76,0,0,1-13.07,8.5,142.38,142.38,0,0,1-19.5,9.28q-2.68,11.83-5.39,23.69l-1.46-.18-1.05,7.78L306.33,493l12.22-3.46c14.52-7.49,22-8.58,26.18-7.92,1.95.31,4.43,1.2,8.29.76a71.44,71.44,0,0,0,9-.64c2.67-.46,3.66,1,1.86,2,3.59-.45,6.17-.72,4.22,1.54C370.94,485,371.17,486.9,368.42,487.65Z" transform="translate(12.65 0.01)"/><path class="cls-13" d="M377.24,263.72a31.65,31.65,0,0,1,57.22,26.68c16.81,3.13,28,18.06,26.67,32.47-1.49,16.79-19.66,30.76-39.43,26.29-.39.93-5.07,11.57-16.63,13.92a23.45,23.45,0,0,1-23.58-9.67,4.81,4.81,0,0,1-3.38,3.45,5,5,0,0,1-4-.74c-5.85,9.32-18,11-24.74,5.41-5.46-4.48-7.14-13.37-3.1-20.88-11.16-2.94-19.19-12.18-20.1-22.81-1.06-12.5,8.28-20.79,9.28-21.64a11.39,11.39,0,0,1,3.09-12.38c4-3.42,9.07-2.38,9.67-2.25a19.77,19.77,0,0,1,9.66-17.46C367.23,258.6,376.72,263.45,377.24,263.72Z" transform="translate(12.65 0.01)"/><g class="cls-6"><path class="cls-13" d="M461.13,322.87c-1.5,16.79-19.66,30.76-39.43,26.29-.4.93-5.08,11.57-16.63,13.91a23.42,23.42,0,0,1-23.57-9.66,4.86,4.86,0,0,1-3.4,3.45,4.93,4.93,0,0,1-4-.74c-5.85,9.32-18,11-24.74,5.41-4.59-3.77-6.51-10.65-4.59-17.21a14.42,14.42,0,0,0,4.59,7.07c6.77,5.58,18.89,3.92,24.74-5.41a4.73,4.73,0,0,0,7.35-2.7A23.42,23.42,0,0,0,405.07,353c11.55-2.35,16.23-13,16.63-13.93,18.66,4.24,35.9-8,39-23.51A26,26,0,0,1,461.13,322.87Z" transform="translate(12.65 0.01)"/></g><path class="cls-14" d="M391.49,287.24l2.71-5.67q.89,23,1.76,45.94,7.38-12,14.74-24l1.62,1.62-14.67,32.62s-1.48,6.41,1.72,5.92,18.73-13.8,18.73-13.8l9.11-10.1v4.93l-12.07,15L401.34,352l3.33,62.48a12.72,12.72,0,0,1-16.9,1.74q.63-34.83,1.25-69.64l-28.33-28.08v-3l27.6,22.17-.81-26.14-15-23.38,3,1.27,13.93,17.32c.21-.81.42-1.62.62-2.43Q390.79,295.8,391.49,287.24Z" transform="translate(12.65 0.01)"/><g class="cls-15"><path class="cls-13" d="M344.08,323.62a5.22,5.22,0,1,1-5.22-5.22A5.22,5.22,0,0,1,344.08,323.62Z" transform="translate(12.65 0.01)"/></g><g class="cls-15"><path class="cls-13" d="M423.45,270.77a5.77,5.77,0,1,1-5.77-5.78A5.77,5.77,0,0,1,423.45,270.77Z" transform="translate(12.65 0.01)"/></g><g class="cls-15"><path class="cls-13" d="M425.27,284.91a3.34,3.34,0,1,1-3.34-3.34A3.33,3.33,0,0,1,425.27,284.91Z" transform="translate(12.65 0.01)"/></g><g class="cls-6"><path class="cls-13" d="M418.79,316.22a8.75,8.75,0,0,1,13.75-7.88,9.13,9.13,0,0,1,3.32-5.08,9,9,0,0,1,6.68-1.91l-.16,1.09a8.16,8.16,0,0,0-8.9,7l-.11,1.06-.8-.7a7.65,7.65,0,0,0-12.68,6.36Z" transform="translate(12.65 0.01)"/></g><g class="cls-6"><path class="cls-13" d="M373.6,279.85a4.76,4.76,0,0,0-3.21-3.65,3.83,3.83,0,0,0-4,1.82l-.56.86-.41-.95A6.5,6.5,0,0,0,361,274a5.48,5.48,0,0,0-5.17,1.86l-.82-.73a6.58,6.58,0,0,1,6.21-2.21,7.42,7.42,0,0,1,4.77,3.77,4.81,4.81,0,0,1,4.65-1.56,5.84,5.84,0,0,1,4,4.48Z" transform="translate(12.65 0.01)"/></g><path class="cls-16" d="M349.48,422.5h88.95a19.5,19.5,0,0,0-8-7.63,20.25,20.25,0,0,0-15.65-.77c-5.41-8.57-15-13.22-24.43-11.83-10.88,1.61-16.42,10.55-17.18,11.83a22.4,22.4,0,0,0-11.46,0A22.77,22.77,0,0,0,349.48,422.5Z" transform="translate(12.65 0.01)"/><path class="cls-13" d="M374.13,257.45a12.87,12.87,0,0,1-4.75-6.67,13.54,13.54,0,0,1,1.91-11.1S381.34,246.08,374.13,257.45Z" transform="translate(12.65 0.01)"/><path class="cls-13" d="M338.64,296.45a12.89,12.89,0,0,1-8,1.83,13.54,13.54,0,0,1-9.51-6S330.91,285.42,338.64,296.45Z" transform="translate(12.65 0.01)"/><path class="cls-13" d="M465.55,301.07a13,13,0,0,1-3.94,7.18,13.61,13.61,0,0,1-10.83,3.1S452.17,299.51,465.55,301.07Z" transform="translate(12.65 0.01)"/><path class="cls-17" d="M257.86,401l-29,12.35L223,427.39H325.6c6.61-2.75,10.57-9.24,9.85-15.46-.89-7.78-9-14.16-18.27-12.76Z" transform="translate(12.65 0.01)"/><path class="cls-17" d="M358.47,360.43a75.67,75.67,0,0,0-9-.64c-3.86-.43-6.34.45-8.3.76-4.29.68-12.09-.48-27.51-8.6l6.89-9.36,13.65,5.76a77.36,77.36,0,0,1,19.38-3.55s.45,1.95-2.3,2.65c7.26,3.31,13.29,3.55,13.59,7.08,2.75.74,2.51,2.69-.29,2.34,1.94,2.26-.64,2-4.23,1.53C362.12,359.48,361.14,360.9,358.47,360.43Z" transform="translate(12.65 0.01)"/><path class="cls-17" d="M348.92,356.43s10.6,1.23,11.4,2" transform="translate(12.65 0.01)"/><path class="cls-17" d="M364.55,356.87s-11.41-3.57-15.2-3.76" transform="translate(12.65 0.01)"/><path class="cls-17" d="M364.84,354.53s-10.19-4.65-15.9-4.06" transform="translate(12.65 0.01)"/><path class="cls-17" d="M282,293.25l11.91,31.92,26.65,17.42L313.63,352l-28.1-14L264.3,299.45Z" transform="translate(12.65 0.01)"/><path class="cls-18" d="M356.38,355.41c-3.1-.14-5.05.17-6.85.14-2.94-.06-3,.7-10.12,2.13-2.24.45-4.06.74-5.17.91q-3.9-1.06-8-2.37-3.69-1.19-7.12-2.41l2.28-9.05,9.34,1.77a74.43,74.43,0,0,1,8-3.22,76,76,0,0,1,10.8-2.78s.69,1.89-1.94,2.93c7.62,2.35,13.63,1.83,14.37,5.29,2.83.38,2.84,2.35,0,2.35,2.21,2-.37,2-4,2.06C359.88,354,359.09,355.54,356.38,355.41Z" transform="translate(12.65 0.01)"/><g class="cls-6"><path class="cls-18" d="M357.8,353.39c-.53-.38-6.27-.52-11.39-.45v-.55c1.79,0,10.81-.11,11.72.55Z" transform="translate(12.65 0.01)"/></g><g class="cls-6"><path class="cls-18" d="M361.9,351.37c-.11,0-11.77-2.07-15.47-1.78l-.05-.55c3.78-.31,15.14,1.71,15.62,1.79Z" transform="translate(12.65 0.01)"/></g><g class="cls-6"><path class="cls-18" d="M361.86,349c-.1,0-10.69-3.28-16.13-2l-.13-.53c5.6-1.32,16,1.87,16.42,2Z" transform="translate(12.65 0.01)"/></g><path class="cls-19" d="M289,239.67c-.27.56-.53,1.12-.8,1.69a14.68,14.68,0,0,1-8.81-3.36,30.69,30.69,0,0,1,3.07.16A28.47,28.47,0,0,1,289,239.67Z" transform="translate(12.65 0.01)"/><path class="cls-18" d="M290.14,236.87a26.73,26.73,0,0,0-.82,4c-1.42.07-8.64-2.66-8.58-2.09-.44.54.82,2.78,2.67,4.21,1.62,1.24,2.88,1.24,3.51,2.62a2.68,2.68,0,0,1-2.78,3.82s-1.55,11.42-11,2.62c-.55-.44-1.12-.88-1.73-1.32-.46-.33-.92-.65-1.37-.95a125.55,125.55,0,0,0-7.93,10.08l-.82,1.16c-1.73,2.51-3.28,5-4.67,7.3a20.36,20.36,0,0,1-12.22-6.44,19.1,19.1,0,0,1-3.48-5.82c2.41-3.37,4.83-6.82,7.25-10.32s4.77-7,7.07-10.41c-2.2-1.51-3.83-2.11-5.65-4.76-4.34-6.91-.59-24.86,10.38-29.16,8.86-3.47,18.67-1.53,24.69,4.81,0,0,7.46,10.61,6.76,13.37a33.21,33.21,0,0,1-2.07,5.54l5.64,7.69S295,236.86,290.14,236.87Z" transform="translate(12.65 0.01)"/><path class="cls-20" d="M291.77,216.73a29.3,29.3,0,0,1-20-.2,15.12,15.12,0,0,1-8.67,13.17,27.07,27.07,0,0,0-3,1.37,4.55,4.55,0,0,0-1.89,2.82,2.15,2.15,0,0,1-2,1.55,4.7,4.7,0,0,1-2.57-.76,13.63,13.63,0,0,1-6.1-9,23.49,23.49,0,0,1,.65-11.07,25.37,25.37,0,0,1,6.19-11.37,21.79,21.79,0,0,1,14.8-6.08,28.07,28.07,0,0,1,15.58,4.36c4.39,2.6,5.71,4.93,6.15,5.79a13.56,13.56,0,0,1,1.36,5.58A13,13,0,0,1,291.77,216.73Z" transform="translate(12.65 0.01)"/><path class="cls-20" d="M285.51,219.2a9.58,9.58,0,0,0-3.18.24,9.71,9.71,0,0,0-4.2,2.28l6-.84,4.89.91.81-1.76Z" transform="translate(12.65 0.01)"/><g class="cls-6"><path class="cls-18" d="M273.13,252.05c-.55-.44-1.12-.88-1.73-1.32-.46-.33-.92-.65-1.37-.95a125.55,125.55,0,0,0-7.93,10.08l-.82,1.16c-.67-1.7-1.31-3.54-1.88-5.51a63.34,63.34,0,0,1-2.43-19.7l0-.37v-.1l4.64-11.8,4.23,9-1.26,7.56Z" transform="translate(12.65 0.01)"/></g><path class="cls-20" d="M278.1,239.64c-1.32,2.06.62,5.8,2.76,7.79a9.2,9.2,0,0,0,3.31,2h0s-1.55,11.42-11,2.62c-.83-.82-1.66-1.66-2.49-2.53a113.62,113.62,0,0,1-7.85-9.14l3-7.89-.63-1.32,1.33-5.39,8.16,13.4,1.61-1.73a21.46,21.46,0,0,1,9.06-1.93c3.14,0,4.24.81,4.81,1.35a24.43,24.43,0,0,0-.6,2.54,16.36,16.36,0,0,0-2.37-.68C285.35,238.34,279.7,237.13,278.1,239.64Z" transform="translate(12.65 0.01)"/><path class="cls-18" d="M257.87,229.14c-.12,3.29,1.72,6,4.1,6.12s4.41-2.51,4.53-5.81-1.72-6-4.1-6.11S258,225.85,257.87,229.14Z" transform="translate(12.65 0.01)"/><g class="cls-6"><path class="cls-18" d="M262.73,230.09a1.07,1.07,0,0,0-.24-.31,3.7,3.7,0,0,0-.61-.42,2.07,2.07,0,0,0-1.42-.2.27.27,0,0,1-.32-.2.32.32,0,0,1,.14-.38,1.81,1.81,0,0,1,1-.14,2.72,2.72,0,0,1,.92.32,1.79,1.79,0,0,1,.42.34,5.94,5.94,0,0,0-.23-.75,9.27,9.27,0,0,0-.64-1.35.21.21,0,0,1,.34-.25,4.07,4.07,0,0,1,1,1.45,5.63,5.63,0,0,1,.4,1.76,3.12,3.12,0,0,1-.19,1.45c-.18.41-.56.87-1.06.8a.35.35,0,0,1,0-.67c.57-.21.65-.88.61-1.45Z" transform="translate(12.65 0.01)"/></g><path class="cls-21" d="M287.94,235.17a.09.09,0,0,0,.09,0,1.1,1.1,0,0,1,1-.21,1.07,1.07,0,0,1,.77.6.11.11,0,0,0,.14.06.11.11,0,0,0,.05-.14,1.37,1.37,0,0,0-2.05-.46.11.11,0,0,0,0,.15Z" transform="translate(12.65 0.01)"/><path class="cls-21" d="M289.32,241.15h0a46.5,46.5,0,0,1-10.14-3.08.27.27,0,0,1-.14-.36.27.27,0,0,1,.36-.14,46.07,46.07,0,0,0,10,3,.28.28,0,0,1,0,.55Z" transform="translate(12.65 0.01)"/><path class="cls-20" d="M284.94,227.14c.6-.95.77-1.93.38-2.18s-1.2.32-1.81,1.27-.78,1.93-.38,2.18S284.33,228.09,284.94,227.14Z" transform="translate(12.65 0.01)"/><g class="cls-15"><path class="cls-19" d="M244,244.07l26.21,11.44-.39,4.32a81.48,81.48,0,0,0-11.28-4.74c-.77-.26-2.62-.87-5-1.52a90.05,90.05,0,0,0-12.95-2.46Z" transform="translate(12.65 0.01)"/></g><g class="cls-15"><path class="cls-19" d="M235.14,359.52l49.32-2.58q-1.71-12.74-3.43-25.47l1.65-27.83-2.27-32.72L269.8,259.83s-16-14.47-29.27-8.72L228.39,274a153.19,153.19,0,0,0,6.75,85.57Z" transform="translate(12.65 0.01)"/></g><g class="cls-6"><path class="cls-22" d="M269.64,260.2a137.74,137.74,0,0,0-29.17-8.69l.13-.81A137.4,137.4,0,0,1,270,259.45Z" transform="translate(12.65 0.01)"/></g><path class="cls-18" d="M279.42,342.59l39.7,11.22,2.28-9.05-33.54-20.24-14.73-42.25c-5.49-6.66-14.83-8.11-21.29-3.89-5.27,3.43-7.93,10.17-6.54,16.85Z" transform="translate(12.65 0.01)"/><g class="cls-15"><path class="cls-19" d="M256.77,315.86l22.65-15.56L270.19,272s-30.57-12.5-29.55,21.61Z" transform="translate(12.65 0.01)"/></g><g class="cls-6"><rect class="cls-22" x="249.7" y="285.53" width="0.82" height="31.43" transform="translate(-103.45 162.73) rotate(-29.58)"/></g><path class="cls-18" d="M323.39,396.77s23.67,12.41,20.16,23.29-29.92,12.27-29.92,12.27l-96.42-3.79,20-14L254.72,411l23.63-2.17L251.8,398.67l34.13-20.35Z" transform="translate(12.65 0.01)"/><g class="cls-6"><path class="cls-18" d="M300.49,409.78c-9.75-4.12-21.86-.46-22-.43l-.32-1c.51-.16,12.6-3.82,22.73.46Z" transform="translate(12.65 0.01)"/></g><path class="cls-22" d="M234.22,357.69s-4.19,33.14,8.92,39.81,39.43,11.78,39.43,11.78a118.31,118.31,0,0,0,40.55-16.7,140.22,140.22,0,0,0-32.56-17.77l-5.39-23.71Z" transform="translate(12.65 0.01)"/><g class="cls-6"><rect class="cls-22" x="233.54" y="359.51" width="52.76" height="1.1" transform="translate(-30.64 35.62) rotate(-7.24)"/></g><g class="cls-6"><path class="cls-22" d="M284.5,382.6l-1-.49a21,21,0,0,1,4.58-6.53,19.74,19.74,0,0,1-20.4-15.4l1.06-.25a19.18,19.18,0,0,0,6.1,10.13,19.82,19.82,0,0,0,15.49,4.22l.17,0,.12,1.09h-.08C290.22,375.44,287.69,376.22,284.5,382.6Z" transform="translate(12.65 0.01)"/></g><path class="cls-18" d="M233.08,423.76,208.87,427s-5.19-.22,6.57-9a176.06,176.06,0,0,1,18.72-12.64l7.92,9.51Z" transform="translate(12.65 0.01)"/><path class="cls-22" d="M228.94,397.91l8.11,10.3,1.82,2.25a21.37,21.37,0,0,0-5,1.64,22.76,22.76,0,0,0-9.58,8.8l10,5.37-10,5.73C223,429.72,198,433.31,198,433.31h0c-3.38,1.46-11.24-5.77-10.79-5.65l40.22-31.59Z" transform="translate(12.65 0.01)"/><g class="cls-6"><path class="cls-22" d="M207.47,425.49a.61.61,0,0,0-.22.51,8.55,8.55,0,0,1-2.26,6.53.57.57,0,1,0,.84.78,9.73,9.73,0,0,0,2.57-7.41.59.59,0,0,0-.62-.53A.65.65,0,0,0,207.47,425.49Z" transform="translate(12.65 0.01)"/><path class="cls-22" d="M211.3,425.05a.58.58,0,0,0-.22.51,8.59,8.59,0,0,1-2.26,6.53.57.57,0,1,0,.83.79,9.73,9.73,0,0,0,2.57-7.42.57.57,0,0,0-.62-.53A.62.62,0,0,0,211.3,425.05Z" transform="translate(12.65 0.01)"/><path class="cls-22" d="M214.73,424.93a.55.55,0,0,0-.22.5,8.56,8.56,0,0,1-2.27,6.53.58.58,0,0,0,0,.81.57.57,0,0,0,.81,0,9.71,9.71,0,0,0,2.57-7.42.56.56,0,0,0-.62-.52A.51.51,0,0,0,214.73,424.93Z" transform="translate(12.65 0.01)"/><path class="cls-22" d="M229.45,399.63,190.74,430a.52.52,0,1,0,.62.79l38.71-30.41a.52.52,0,1,0-.62-.79Z" transform="translate(12.65 0.01)"/></g><path class="cls-18" d="M458.11,398.93l8.2-6.11,12.94-27.95,7.88,7.13-9.2,21.89-15.54,10.74Z" transform="translate(12.65 0.01)"/><path class="cls-10" d="M482.63,362.52s-7.87-2.2-10.71,18.19l9.94,4.56Z" transform="translate(12.65 0.01)"/><path class="cls-17" d="M468.92,415.88a26.05,26.05,0,0,0-2.58,9.88c-.16,2.95.33,3.9.71,4.41,1.81,2.49,6.11,2.11,7.94,1.94,0,0,3-.26,11.55-4.08h0l-1.21-6.56-3.47-2.15Z" transform="translate(12.65 0.01)"/><path class="cls-18" d="M487.08,363.26l15.3-4.16c-.05-.57.34-11.28.34-11.28l-4.17,1.53-11.21,4.11-.21,8.1Z" transform="translate(12.65 0.01)"/><path class="cls-17" d="M487.13,361.56a10.57,10.57,0,0,0,3.49-.15,10.3,10.3,0,0,0,7.93-12.06l-11.21,4.11Z" transform="translate(12.65 0.01)"/><path class="cls-18" d="M510.91,340.08c-2.32,3.62-5.85,5.81-9,8.75-.49.46-1,.88-1.55,1.3-1.6,1.25-2.86,2.86-4.42,4.12A22.49,22.49,0,0,1,484.75,359a4.61,4.61,0,0,1-4.15-1.68c-2-2.57-3-6-3.48-9.24a3.29,3.29,0,0,1-2-.34,2,2,0,0,1-.4-3.24,34.92,34.92,0,0,1,2.87-2.43,19.31,19.31,0,0,1-2.11-9.79c.37-7.21,5.66-12.81,12.45-15.28a20.44,20.44,0,0,1,20.26,4,15.51,15.51,0,0,1,5.11,9A15,15,0,0,1,510.91,340.08Z" transform="translate(12.65 0.01)"/><path class="cls-20" d="M475.94,334.82a8,8,0,0,0,2.73,1.31,8.79,8.79,0,0,0,6.9-.95,14.31,14.31,0,0,0,8,5.72,3.64,3.64,0,0,0,2.09.11,1.79,1.79,0,0,0,.92-.7c-.32,1.66-.44,4,.65,4.79,1.31.93,2.87,1.64,3.71,3a7.25,7.25,0,0,1,.57,4.81,3.34,3.34,0,0,0,2.9-1.8,3.31,3.31,0,0,0-.27-3.4,9,9,0,0,0,6.76-1.49c1.93-1.37,2.89-4,3.73-6.25a17.45,17.45,0,0,0-1.26-14.43,18.13,18.13,0,0,0-3-4.13,20,20,0,0,0-1.67-1.51,23.59,23.59,0,0,0-16.75-4.81C484.27,315.77,463.79,325.85,475.94,334.82Z" transform="translate(12.65 0.01)"/><path class="cls-18" d="M494.08,343.75a6.46,6.46,0,0,1,0-4.42c.51-1.33,1.94-3.55,4-3.52a4.27,4.27,0,0,1,3,1.85c.09.11,2.15,2.7,1.18,5.52-.88,2.55-3.88,4.25-7.12,3.67C494.82,345.82,494.45,344.78,494.08,343.75Z" transform="translate(12.65 0.01)"/><g class="cls-6"><path class="cls-17" d="M499.88,339.53a2.61,2.61,0,0,0-2.64.27,2.47,2.47,0,0,0-.92,2.42,2.6,2.6,0,0,0,.72,1.38.37.37,0,0,0,.5,0,.35.35,0,0,0-.05-.49,1.91,1.91,0,0,1-.33-2.11.21.21,0,0,0,.11,0l.31,0,.15,0h0l.06,0a1.69,1.69,0,0,1,.27.13l.13.07,0,0,.06,0,.22.19.06.05,0,0a.39.39,0,0,1,.08.1,2.07,2.07,0,0,1,.17.24l0,.06v0a1,1,0,0,1,.07.15.35.35,0,0,0,.66-.24,2.69,2.69,0,0,0-2-1.64,1.9,1.9,0,0,1,1.91-.18A.35.35,0,0,0,499.88,339.53Z" transform="translate(12.65 0.01)"/></g><g class="cls-6"><path class="cls-23" d="M480.15,351.24a6.35,6.35,0,0,1-1-.08l.09-.54a5.31,5.31,0,0,0,5-1.91l.43.35a6,6,0,0,1-2.71,1.88A5.83,5.83,0,0,1,480.15,351.24Z" transform="translate(12.65 0.01)"/></g><g class="cls-6"><path class="cls-23" d="M476.7,347.49l-.34-.43a1.7,1.7,0,0,1,1.8-.15l-.26.48A1.13,1.13,0,0,0,476.7,347.49Z" transform="translate(12.65 0.01)"/></g><path class="cls-24" d="M477.93,393.89l31.35,4.93L511.9,369a13.24,13.24,0,0,0-.26-2.59c-.57-3.08-2.43-7.91-8.41-8.77a10.69,10.69,0,0,0-4.41.88c-.44.2-.74.38-.91.47a21.25,21.25,0,0,1-3.71,1.51c-2.75.88-4,0-7.33.62a17.42,17.42,0,0,0-4.24,1.37Z" transform="translate(12.65 0.01)"/><path class="cls-18" d="M487.13,361.56c.84,3,2.34,3.83,2.85,4.07,3.11,1.45,8.59-1.31,12.42-7.85a1.93,1.93,0,0,0-.55-.57c-1.48-1-4,.74-5.77,1.58a15.32,15.32,0,0,1-9,1Z" transform="translate(12.65 0.01)"/><g class="cls-15"><path class="cls-20" d="M478.67,336.13a8.79,8.79,0,0,0,6.9-.95,14.33,14.33,0,0,0,4.11,4,6.44,6.44,0,0,0,2-.76,6.81,6.81,0,0,0,3.15-6.58,7.46,7.46,0,0,0,11.4-6,10.38,10.38,0,0,0,7.16-.29,18.13,18.13,0,0,0-3-4.13,20,20,0,0,0-1.67-1.51,8.85,8.85,0,0,1-8.13.34,5.68,5.68,0,0,1-7.74,6.87,9,9,0,0,1-13.84,4.8A5.81,5.81,0,0,1,478.67,336.13Z" transform="translate(12.65 0.01)"/></g><g class="cls-25"><path class="cls-18" d="M484.42,346.07c.33.33,1.47-1.08,4-1.54,2.23-.41,3.55.27,3.71-.13.24-.57-2-2.95-4.4-2.53S484,345.63,484.42,346.07Z" transform="translate(12.65 0.01)"/></g><path class="cls-20" d="M481.63,342.37c.55,1.14,1.38,1.87,1.85,1.64s.4-1.33-.15-2.47-1.39-1.87-1.86-1.64S481.07,341.24,481.63,342.37Z" transform="translate(12.65 0.01)"/><path class="cls-20" d="M478.87,338a.7.7,0,0,0-.32.78.72.72,0,0,0,.66.54,9,9,0,0,1,1.62-.69,9.15,9.15,0,0,1,2.67-.39S482.09,336.88,478.87,338Z" transform="translate(12.65 0.01)"/><path class="cls-18" d="M478.21,371.2a30.21,30.21,0,0,1,1-6.33.71.71,0,0,0-1-.83,5.22,5.22,0,0,0-2.62,3.56,22.06,22.06,0,0,1-2.76-5.67c-.12-.41-.25-.87-.76-1a1.18,1.18,0,0,0-1.31.72c-1.06,2.33.23,4.86,1.72,6.82-.9-1.49-2.42-3.45-3.32-4.93a1.44,1.44,0,0,0-.64-.67,1,1,0,0,0-1.16.59,2.5,2.5,0,0,0-.07,1.41,13.33,13.33,0,0,0,2.75,6.21,25.21,25.21,0,0,0-3.84-5c-.69-.72-1.94-1.36-2.51-.41a1.29,1.29,0,0,0,0,1.25,46.14,46.14,0,0,0,6.94,10c.27.3,1,.43,1.23.75a7.47,7.47,0,0,0,5-1.33C478.39,375.26,479.31,372.71,478.21,371.2Z" transform="translate(12.65 0.01)"/><path class="cls-17" d="M470.23,365.16a.25.25,0,0,1,.14-.19.25.25,0,0,1,.33.12,19.39,19.39,0,0,0,1.93,3.27.25.25,0,0,1-.4.29,19.3,19.3,0,0,1-2-3.35A.22.22,0,0,1,470.23,365.16Z" transform="translate(12.65 0.01)"/><path class="cls-17" d="M467.7,367.94a.28.28,0,0,1,.12-.18.26.26,0,0,1,.34.09c.6,1,1.25,2,1.93,3a.26.26,0,0,1-.06.35.24.24,0,0,1-.34-.06,34.73,34.73,0,0,1-2-3A.41.41,0,0,1,467.7,367.94Z" transform="translate(12.65 0.01)"/><polygon class="cls-18" points="489.06 374.29 503.32 381.53 511.03 364.93 521.9 372.12 504.57 395.54 484.21 377.52 489.06 374.29"/><path class="cls-10" d="M493.65,374.57l15.41,4.49,2.58-12.62a8.53,8.53,0,0,0-8.41-8.77c-.21,0-.44,0-.68,0a4.28,4.28,0,0,0-4.06,4h0Z" transform="translate(12.65 0.01)"/><path class="cls-18" d="M484.88,421c-.42.49-7.62,9.17-4.93,13.16.8,1.19,2.34,1.77,8.45,2.17a131.51,131.51,0,0,0,16.16,0c2.5-.13,6.54-.33,11.66-.53-1.13-2.51-2.25-5-3.37-7.52q-2.89-.94-5.91-1.83C499.3,424.14,491.92,422.38,484.88,421Z" transform="translate(12.65 0.01)"/><g class="cls-15"><path class="cls-19" d="M477.93,393.89l-9,22,12.94,3.44,1.41-3.61c.32,1.86.64,3.71,1,5.57a105.36,105.36,0,0,0,19.58,4.23l1.69.19c1.3-6.21,2.39-12.89,3.15-20q.38-3.49.62-6.87Z" transform="translate(12.65 0.01)"/></g><path class="cls-10" d="M509,401.13c-7.09-.64-31.57-5.35-31.81-5.39l.1-.54c.25.05,24.69,4.74,31.76,5.39Z" transform="translate(12.65 0.01)"/><polygon class="cls-10" points="495.65 416.87 495.38 414.14 494.85 413.38 495.71 404.49 496.26 404.55 495.41 413.23 495.92 414.01 496.2 416.82 495.65 416.87"/><path class="cls-18" d="M462.44,406a30.09,30.09,0,0,0-.89,6.34.71.71,0,0,1-1.21.5,5.2,5.2,0,0,1-1.44-4.18,22.1,22.1,0,0,0-4.32,4.59c-.24.36-.51.76-1,.73a1.16,1.16,0,0,1-1-1.07c-.33-2.54,1.65-4.57,3.67-6-1.3,1.15-3.34,2.57-4.64,3.72a1.53,1.53,0,0,1-.81.45,1,1,0,0,1-.93-.91,2.4,2.4,0,0,1,.35-1.37,13.28,13.28,0,0,1,4.47-5.11,25.37,25.37,0,0,1-5.14,3.6c-.87.48-2.26.72-2.53-.35a1.29,1.29,0,0,1,.37-1.19,45.93,45.93,0,0,1,9.59-7.46c.35-.21,1.07-.12,1.4-.36a7.53,7.53,0,0,1,4.37,2.76C463.82,402.19,463.94,404.89,462.44,406Z" transform="translate(12.65 0.01)"/><path class="cls-17" d="M453,409.4a.24.24,0,0,0,.08.22.24.24,0,0,0,.35,0,19.79,19.79,0,0,1,2.81-2.54.24.24,0,0,0,.05-.35.24.24,0,0,0-.34,0,20.29,20.29,0,0,0-2.89,2.61A.31.31,0,0,0,453,409.4Z" transform="translate(12.65 0.01)"/><path class="cls-17" d="M451.44,406a.27.27,0,0,0,.06.21.24.24,0,0,0,.35,0c.87-.8,1.79-1.57,2.72-2.27a.24.24,0,0,0,.05-.34.25.25,0,0,0-.35-.05,34.89,34.89,0,0,0-2.75,2.3A.23.23,0,0,0,451.44,406Z" transform="translate(12.65 0.01)"/><path class="cls-10" d="M508.07,408.43a7.49,7.49,0,0,1-5.85-2.21c-2.24-2.48-1.8-6.1-1.78-6.26l.54.07s-.42,3.53,1.65,5.82c1.26,1.41,3.22,2.08,5.75,2v.54Z" transform="translate(12.65 0.01)"/><path class="cls-18" d="M511.67,432.59,521.89,434s2.19-.09-2.77-3.81a73.33,73.33,0,0,0-7.91-5.34l-3.34,4Z" transform="translate(12.65 0.01)"/><g class="cls-15"><path class="cls-19" d="M513.42,421.67,510,426l-.77.94a9.44,9.44,0,0,1,2.11.7,9.7,9.7,0,0,1,4.05,3.71l-4.21,2.27,4.24,2.42c.51-1,11.08.55,11.08.55h0c1.43.61,4.75-2.44,4.56-2.39l-17-13.34Z" transform="translate(12.65 0.01)"/></g><g class="cls-6"><path class="cls-22" d="M522.48,433.32a.25.25,0,0,1,.1.21,3.63,3.63,0,0,0,.95,2.76.24.24,0,1,1-.35.33,4.1,4.1,0,0,1-1.09-3.13.25.25,0,0,1,.27-.22A.18.18,0,0,1,522.48,433.32Z" transform="translate(12.65 0.01)"/><path class="cls-22" d="M520.87,433.14a.22.22,0,0,1,.09.21,3.6,3.6,0,0,0,1,2.76.25.25,0,0,1,0,.34.25.25,0,0,1-.35,0,4.1,4.1,0,0,1-1.08-3.13.23.23,0,0,1,.26-.22A.21.21,0,0,1,520.87,433.14Z" transform="translate(12.65 0.01)"/><path class="cls-22" d="M519.42,433.08a.24.24,0,0,1,.09.21,3.64,3.64,0,0,0,1,2.76.24.24,0,0,1,0,.34.23.23,0,0,1-.34,0,4.09,4.09,0,0,1-1.09-3.13.24.24,0,0,1,.26-.22A.25.25,0,0,1,519.42,433.08Z" transform="translate(12.65 0.01)"/><path class="cls-22" d="M513.21,422.4l16.34,12.84a.26.26,0,0,1,.09.34.25.25,0,0,1-.35,0l-16.35-12.84a.27.27,0,0,1-.09-.35A.26.26,0,0,1,513.21,422.4Z" transform="translate(12.65 0.01)"/></g><path class="cls-19" d="M549.56,274a27.21,27.21,0,0,0-21.68,43.65,18.72,18.72,0,0,1-2.62,2.53,19.53,19.53,0,0,1-7.11,3.56,28.38,28.38,0,0,0,17.66,1.91q.62-.14,1.2-.3A27.21,27.21,0,1,0,549.56,274Z" transform="translate(12.65 0.01)"/><path class="cls-13" d="M566.39,305.45h-8l-2-3.48a1.06,1.06,0,0,1-.11-.76,1,1,0,0,1,.45-.61L561,298h0a1,1,0,0,1,.76-.11,1,1,0,0,1,.61.45l3.66,6.3a3.5,3.5,0,0,1,.34.8Zm-.06,2.11h-11v-2.14h0a.54.54,0,0,0-.38-.52.56.56,0,0,0-.62.17l-4,4.85a1.84,1.84,0,0,0,0,2.34l4,4.84a.57.57,0,0,0,.63.17.56.56,0,0,0,.37-.53v-2.15h5a3.59,3.59,0,0,0,1.75-.48,3.45,3.45,0,0,0,1.28-1.29l2.65-4.64a3.37,3.37,0,0,0,.28-.61Zm-19.23,7a1,1,0,0,0,.71-.31,1,1,0,0,0,.28-.72l-.09-5h0a1.09,1.09,0,0,0-.3-.7,1,1,0,0,0-.7-.28h-4l-4,6.93a3.56,3.56,0,0,0,.86.11Zm-13-6.38,2.69,4.63h0a3.36,3.36,0,0,0,.39.54l5.49-9.52,1.86,1.07h0a.58.58,0,0,0,.64-.06.56.56,0,0,0,.17-.63l-2.22-5.86a1.84,1.84,0,0,0-.81-1,1.91,1.91,0,0,0-1.24-.22l-6.18,1a.56.56,0,0,0-.46.46.56.56,0,0,0,.28.59l1.85,1.06-2.47,4.33a3.55,3.55,0,0,0-.47,1.77,3.5,3.5,0,0,0,.48,1.76ZM544.43,287l-3.62,6.3a1,1,0,0,0-.09.77,1,1,0,0,0,.47.6l4.41,2.44a1,1,0,0,0,1.33-.37l2-3.5-4-6.92a3.29,3.29,0,0,0-.52.69Zm6.22,9.95,6.18,1h0a1.82,1.82,0,0,0,2-1.18l2.19-5.87h0a.57.57,0,0,0-.17-.63.56.56,0,0,0-.64-.05l-1.86,1.07-2.51-4.34a3.6,3.6,0,0,0-1.29-1.28,3.43,3.43,0,0,0-1.76-.46h-5.35a4.93,4.93,0,0,0-.66.07l5.49,9.51-1.85,1.08h0a.57.57,0,0,0-.28.59.59.59,0,0,0,.48.46Z" transform="translate(12.65 0.01)"/><path class="cls-26" d="M564.29,307.56A19.77,19.77,0,0,1,551.86,312c-.58,0-1.15,0-1.72-.08a1.43,1.43,0,0,0,.23.37l4,4.84a.57.57,0,0,0,.63.17.54.54,0,0,0,.37-.53v-2.15l5,0a3.48,3.48,0,0,0,3-1.76l2.65-4.64a4.27,4.27,0,0,0,.29-.61Zm-16.24,4a19.74,19.74,0,0,1-6.1-2.31l-3,5.16a3.56,3.56,0,0,0,.86.11h7.27a1,1,0,0,0,1-1Zm-12.94-8.74-1,1.8a3.49,3.49,0,0,0-.47,1.76,3.56,3.56,0,0,0,.48,1.77l2.69,4.62a4.11,4.11,0,0,0,.39.54l3-5.22A21.36,21.36,0,0,1,535.11,302.86Z" transform="translate(12.65 0.01)"/><path class="cls-24" d="M63.39,383.52s10.88,28.6-41.7,55.63A18.36,18.36,0,0,0,15.06,445C10,452.23.59,468.13,4.54,482.07c0,0-17-63.11,21.14-85.38a71.49,71.49,0,0,1,11.74-6.8A72.26,72.26,0,0,1,63.39,383.52Z" transform="translate(12.65 0.01)"/><path class="cls-11" d="M25.68,396.69s31.61-14.52,63.06,11.36c0,0,.8-36.73-25.35-24.53C63.39,383.52,43,378.43,25.68,396.69Z" transform="translate(12.65 0.01)"/><path class="cls-27" d="M2.88,474.24s-1.22-40.1,36.79-81.11" transform="translate(12.65 0.01)"/><path class="cls-27" d="M62.37,400.87s-20-1.3-35.68,8.21c0,0-3-8.6-7-8.21" transform="translate(12.65 0.01)"/><path class="cls-27" d="M54.59,414.36S30,414,19.11,420.92c0,0-2.52-8.78-9.65-7.88" transform="translate(12.65 0.01)"/><path class="cls-27" d="M32,433.38s-11.3-3.72-19.69,1.2c0,0-3.15-6.51-9-5.69" transform="translate(12.65 0.01)"/><path class="cls-24" d="M781.23,423.53s-73,3.2-45.13,81.49C736.1,505,810,495.87,781.23,423.53Z" transform="translate(12.65 0.01)"/><path class="cls-27" d="M781.23,423.53s-18,51.87-45.13,81.49" transform="translate(12.65 0.01)"/><polyline class="cls-27" points="779.44 426.09 786.8 441.38 799.18 439.08"/><path class="cls-27" d="M754.51,430.27S765,442,767.64,455.64c0,0,15.93-5.52,20.23-2.89" transform="translate(12.65 0.01)"/><path class="cls-27" d="M744.64,437.77s12.9,5.84,15.88,31.73c0,0,19.57-10,26.14-4.11" transform="translate(12.65 0.01)"/><path class="cls-27" d="M737.35,446s13.88,13.33,15.32,36.88c0,0,21.71-10.38,29.29-5.42" transform="translate(12.65 0.01)"/><path class="cls-27" d="M731.84,457.72s11.61,11.66,12.65,37.09c0,0,18.93-7.73,27.83-5.75" transform="translate(12.65 0.01)"/><path class="cls-24" d="M96.22,466.43s-60.57-63-108.86,23.94C-12.64,490.37,54.05,549.5,96.22,466.43Z" transform="translate(12.65 0.01)"/><path class="cls-27" d="M96.22,466.43S35.38,491.27-12.64,490.37" transform="translate(12.65 0.01)"/><polyline class="cls-27" points="95.16 455.49 87.26 474.19 99.11 483.49"/><path class="cls-27" d="M69,447.78s-2.29,18.66-12.4,31.85c0,0,17.57,9.93,18.6,15.88" transform="translate(12.65 0.01)"/><path class="cls-27" d="M54.5,444.84s5,16.2-15.93,39.36c0,0,24.45,9.66,24.37,20.22" transform="translate(12.65 0.01)"/><path class="cls-27" d="M41.35,444.8s-1,23-21,42.93c0,0,26.5,11.28,28,22" transform="translate(12.65 0.01)"/><path class="cls-27" d="M26.46,449.14s-1.28,19.64-23.3,40.69c0,0,21.92,10.88,27.18,20.44" transform="translate(12.65 0.01)"/><path class="cls-24" d="M735.61,500.48A40.06,40.06,0,0,1,717.77,504c-7.63-.17-15.32-2.31-22.84-5.71a72.25,72.25,0,0,1-11.13-9.69c-20.95-22-55.66-51-56.33-51.53h0c1.29-.52,2.56-1,3.82-1.48l.08,0C723.65,401.35,735.61,500.48,735.61,500.48Z" transform="translate(12.65 0.01)"/><path class="cls-27" d="M735.61,500.48s-54.92-66.27-108.12-63.4" transform="translate(12.65 0.01)"/><path class="cls-27" d="M667.69,472.75s26.18-3.77,41.72,1.53c0,0-3.58-18.42,4.35-24.64" transform="translate(12.65 0.01)"/><path class="cls-27" d="M683.8,488.63s29.25-5.75,37.86-3c0,0-.81-13,2-21.32" transform="translate(12.65 0.01)"/><polyline class="cls-27" points="709.04 498.2 743.57 494.96 744.23 483.06"/><path class="cls-27" d="M700.58,437.94s-3.43,7.17-6.09,23.71l-38.93-.08" transform="translate(12.65 0.01)"/><path class="cls-27" d="M685.17,430.06l-4,23.36s-25.11-7-36.76-1.8" transform="translate(12.65 0.01)"/><path class="cls-27" d="M667.58,428.39l-2.05,16.8s-17.38-4-29-.49" transform="translate(12.65 0.01)"/><polyline class="cls-27" points="664.57 429.83 663.99 440.01 642.94 439.48"/><path class="cls-11" d="M719.37,504.46s-9.51,4.19-24.44-6.14a72.25,72.25,0,0,1-11.13-9.69c-20.95-22-55.66-51-56.33-51.53h0a27,27,0,0,1,3.82-1.48l.08,0c11.23-3.52,43.9-7.91,63.32,50.57a38.14,38.14,0,0,0,13.68,10.92c13.15,6.07,27.1,2.46,27.22,3.41C735.67,500.94,732.54,502,719.37,504.46Z" transform="translate(12.65 0.01)"/></g></g></g></svg>