<svg xmlns="http://www.w3.org/2000/svg" viewBox="0 0 911.16 387.86"><defs><style>.cls-1{fill:#91b31e;}.cls-2,.cls-3,.cls-4,.cls-5{fill:none;stroke:#5b680e;stroke-linecap:round;stroke-miterlimit:10;}.cls-2{stroke-width:0.49px;}.cls-3{stroke-width:0.81px;}.cls-4{stroke-width:0.31px;}.cls-5{stroke-width:0.76px;}</style></defs><g id="Layer_2" data-name="Layer 2"><g id="BANNER_2" data-name="BANNER 2"><path class="cls-1" d="M19,11.26c-1.18,1.53-1.22,3.64-1.91,5.44A11.7,11.7,0,0,1,12.24,22,24.9,24.9,0,0,1,.06,26a30.88,30.88,0,0,1,4.28-9.09,18.08,18.08,0,0,1,3.53-4.42A10.26,10.26,0,0,1,19,11.26Z"/><path class="cls-2" d="M22.07,10.39a21,21,0,0,0-10.34,4.06"/><path class="cls-2" d="M.25,25.38q3-3.42,6.16-6.65"/><path class="cls-2" d="M8,17.59a11.16,11.16,0,0,1,1.79-1.78"/><path class="cls-1" d="M263,28.25c-1.83.6-3,2.33-4.63,3.43a11.71,11.71,0,0,1-7,1.69,24.75,24.75,0,0,1-12.3-3.55,30.87,30.87,0,0,1,8.64-5.13,17.93,17.93,0,0,1,5.4-1.68A10.24,10.24,0,0,1,263,28.25Z"/><path class="cls-2" d="M266.08,29.26a21.15,21.15,0,0,0-10.85-2.44"/><path class="cls-2" d="M239.6,29.44c2.92-.76,5.87-1.45,8.84-2.05"/><path class="cls-2" d="M250.36,27.32a11,11,0,0,1,2.48-.47"/><path class="cls-1" d="M775.31,15.83c-3.18-.35-6.18,1.43-9.33,2-4,.73-8.05-.49-11.67-2.22A41.2,41.2,0,0,1,738.2,1.84C743.49.11,749.17,0,754.73,0A30.57,30.57,0,0,1,764,1.18,17,17,0,0,1,775.31,15.83Z"/><path class="cls-3" d="M779.22,19.44A35,35,0,0,0,764.54,8.35"/><path class="cls-3" d="M739.18,1.6c4.93.84,9.85,1.83,14.73,2.95"/><path class="cls-3" d="M756.85,5.77a18.44,18.44,0,0,1,4.07,1"/><path class="cls-1" d="M909,67c-1,.67-1.44,1.91-2.22,2.84A7.25,7.25,0,0,1,902.87,72a15.61,15.61,0,0,1-8-.1,19.24,19.24,0,0,1,4.35-4.52,11.41,11.41,0,0,1,3-1.91A6.42,6.42,0,0,1,909,67Z"/><path class="cls-4" d="M911,67.06a13.16,13.16,0,0,0-6.93.33"/><path class="cls-4" d="M895.09,71.56c1.64-.94,3.3-1.85,5-2.7"/><path class="cls-4" d="M901.22,68.5a7.49,7.49,0,0,1,1.42-.7"/><path class="cls-1" d="M900,378.47c-2.77,1.16-4.43,4-6.76,5.88-2.93,2.39-6.82,3.23-10.58,3.45a38.63,38.63,0,0,1-19.47-4c3.57-3.81,8.15-6.51,12.75-9a28.6,28.6,0,0,1,8.17-3.25A15.94,15.94,0,0,1,900,378.47Z"/><path class="cls-5" d="M904.82,379.67a32.75,32.75,0,0,0-17.08-2.47"/><path class="cls-5" d="M863.86,383.13q6.64-2.31,13.43-4.24"/><path class="cls-5" d="M880.26,378.56a17.63,17.63,0,0,1,3.78-1"/></g></g></svg>