<?xml version="1.0" encoding="utf-8"?>
<!-- Generator: Adobe Illustrator 25.3.1, SVG Export Plug-In . SVG Version: 6.00 Build 0)  -->
<svg version="1.1" id="Layer_1" xmlns="http://www.w3.org/2000/svg" xmlns:xlink="http://www.w3.org/1999/xlink" x="0px" y="0px"
	 viewBox="0 0 1545.2 472.3" style="enable-background:new 0 0 1545.2 472.3;" xml:space="preserve">
<style type="text/css">
	.st0{clip-path:url(#SVGID_2_);}
	.st1{fill:#778D27;}
	.st2{fill:none;stroke:#303A08;stroke-width:0.9;stroke-linecap:round;stroke-miterlimit:10;}
	.st3{fill:#799110;}
	.st4{fill:url(#SVGID_3_);}
	.st5{fill:#82A11B;}
	.st6{fill:url(#SVGID_4_);}
	.st7{fill:url(#SVGID_5_);}
	.st8{fill:#155643;}
	.st9{fill:#104939;}
	.st10{clip-path:url(#SVGID_7_);}
	.st11{fill:#108F6E;}
	.st12{fill:#778E13;}
	.st13{fill:url(#SVGID_8_);}
	.st14{fill:#FFFFFF;stroke:#D0F7EB;stroke-miterlimit:10;}
	.st15{fill:#91B31E;}
	.st16{fill:#FFFFFF;}
	.st17{fill:url(#SVGID_9_);}
	.st18{fill:url(#SVGID_10_);}
	.st19{fill:url(#SVGID_11_);}
	.st20{fill:#FF9E10;}
	.st21{fill:#F27E0A;}
	.st22{fill:url(#SVGID_12_);}
	.st23{fill:#606060;stroke:#FF9E10;stroke-width:5.57;stroke-miterlimit:10;}
	.st24{fill:none;stroke:#FF9E10;stroke-width:4.89;stroke-miterlimit:10;}
	.st25{fill:#606060;}
	.st26{fill:#124939;}
	.st27{opacity:0.36;fill:#F27E0A;enable-background:new    ;}
	.st28{fill:#1A6652;}
	.st29{fill:#A8E2D0;}
	.st30{fill:#F36089;}
	.st31{fill:#3BEFFF;}
	.st32{fill:none;stroke:#1A6652;stroke-width:3.46;stroke-miterlimit:10;}
	.st33{fill:#12513F;}
	.st34{fill:url(#SVGID_13_);}
	.st35{opacity:0.64;fill:#BCE2BE;enable-background:new    ;}
	.st36{fill:url(#SVGID_14_);}
	.st37{opacity:0.4;fill:#312B66;enable-background:new    ;}
	.st38{fill:#AED6AE;}
	.st39{fill:#FDA280;}
	.st40{fill:#100909;}
	.st41{fill:#5C2A9A;}
	.st42{fill:#00A2AC;}
	.st43{fill:#E87A58;}
	.st44{fill:#37C2AE;}
	.st45{fill:none;stroke:#BA6E00;stroke-width:1.42;stroke-linecap:round;stroke-miterlimit:10;}
	.st46{fill:none;stroke:#007777;stroke-width:1.42;stroke-linecap:round;stroke-miterlimit:10;}
	.st47{fill:none;stroke:#E87A58;stroke-width:1.36;stroke-linecap:round;stroke-miterlimit:10;}
	.st48{fill:none;stroke:#B22651;stroke-width:1.36;stroke-linecap:round;stroke-miterlimit:10;}
	.st49{opacity:0.79;fill:#9AE5E5;enable-background:new    ;}
	.st50{fill:none;stroke:#007777;stroke-width:1.66;stroke-linecap:round;stroke-miterlimit:10;}
	.st51{fill:#00787D;}
	.st52{fill:none;stroke:#005B59;stroke-width:1.66;stroke-linecap:round;stroke-miterlimit:10;}
	.st53{fill:none;stroke:#E87A58;stroke-width:1.58;stroke-linecap:round;stroke-miterlimit:10;}
	.st54{fill:#D08E03;}
	.st55{fill:none;stroke:#A56102;stroke-width:0.69;stroke-linecap:round;stroke-miterlimit:10;}
	.st56{fill:#F7B000;}
	.st57{fill:none;stroke:#CC7E00;stroke-width:1.47;stroke-linecap:round;stroke-miterlimit:10;}
	.st58{fill:none;stroke:#778E13;stroke-width:1.08;stroke-linecap:round;stroke-miterlimit:10;}
	.st59{fill:#7B9719;}
	.st60{fill:none;stroke:#60720F;stroke-width:0.76;stroke-linecap:round;stroke-miterlimit:10;}
	.st61{fill:none;stroke:#60720F;stroke-width:0.55;stroke-linecap:round;stroke-miterlimit:10;}
	.st62{fill:none;stroke:#778E13;stroke-width:0.91;stroke-linecap:round;stroke-miterlimit:10;}
	.st63{fill:none;stroke:#CC7E00;stroke-width:1.26;stroke-linecap:round;stroke-miterlimit:10;}
	.st64{fill:none;stroke:#5B680E;stroke-width:1.08;stroke-linecap:round;stroke-miterlimit:10;}
	.st65{fill:none;stroke:#5B680E;stroke-width:1.29;stroke-linecap:round;stroke-miterlimit:10;}
	.st66{fill:none;stroke:#5B680E;stroke-width:0.76;stroke-linecap:round;stroke-miterlimit:10;}
	.st67{fill:none;stroke:#5B680E;stroke-width:0.64;stroke-linecap:round;stroke-miterlimit:10;}
	.st68{fill:none;stroke:#5B680E;stroke-width:0.53;stroke-linecap:round;stroke-miterlimit:10;}
	.st69{fill:none;stroke:#5B680E;stroke-width:0.6;stroke-linecap:round;stroke-miterlimit:10;}
	.st70{fill:none;stroke:#5B680E;stroke-width:0.49;stroke-linecap:round;stroke-miterlimit:10;}
	.st71{fill:none;stroke:#5B680E;stroke-width:0.22;stroke-linecap:round;stroke-miterlimit:10;}
	.st72{fill:none;stroke:#778E13;stroke-width:0.9;stroke-linecap:round;stroke-miterlimit:10;}
	.st73{fill:none;stroke:#CC7E00;stroke-width:0.83;stroke-linecap:round;stroke-miterlimit:10;}
	.st74{fill:none;stroke:#778E13;stroke-width:0.61;stroke-linecap:round;stroke-miterlimit:10;}
</style>
<g>
	<defs>
		<rect id="SVGID_1_" width="1545.2" height="475.7"/>
	</defs>
	<clipPath id="SVGID_2_">
		<use xlink:href="#SVGID_1_"  style="overflow:visible;"/>
	</clipPath>
	<g class="st0">
		<g id="Layer_2_1_">
			<g id="BANNER_1">
				<path class="st1" d="M1471,478.9c0,0,14.2-16,6.7-32.8s-26.2-11.3-35,4.4c2-15-0.5-30.2-7.2-43.7
					c-11.2-22.7-35.8-32.1-52.7-18.6s-9.7,41.2-4.4,47.7c0,0-29.4-17.4-41.3,0s18.5,41.5,18.5,41.5L1471,478.9z"/>
				<line class="st2" x1="1349.6" y1="444.2" x2="1375.5" y2="477.6"/>
				<line class="st2" x1="1402.2" y1="402.7" x2="1421.3" y2="476.7"/>
				<line class="st2" x1="1464.2" y1="449.1" x2="1458.7" y2="478.8"/>
				<polyline class="st2" points="1388.6,415.4 1409.5,430.8 1426.3,411 				"/>
				<polyline class="st2" points="1396.3,448 1416.7,458.9 1432,441.7 				"/>
				<polyline class="st2" points="1348.9,458.6 1361.8,459.4 1363.8,445.3 				"/>
				<polyline class="st2" points="1453.4,454.9 1461.5,463.5 1472,457.9 				"/>
				<path class="st1" d="M1268.6,492.5c0,0,14.2-16,6.7-32.8s-26.2-11.3-34.9,4.4c2-15-0.5-30.2-7.2-43.7
					c-11.2-22.7-35.8-32.1-52.7-18.6s-9.7,41.2-4.4,47.7c0,0-29.4-17.4-41.3,0s18.5,41.5,18.5,41.5L1268.6,492.5z"/>
				<line class="st2" x1="1147.2" y1="457.8" x2="1173.1" y2="491.2"/>
				<line class="st2" x1="1199.8" y1="416.3" x2="1218.9" y2="490.3"/>
				<line class="st2" x1="1261.8" y1="462.7" x2="1256.3" y2="492.4"/>
				<polyline class="st2" points="1186.2,429 1207.1,444.4 1223.9,424.6 				"/>
				<polyline class="st2" points="1193.9,461.5 1214.3,472.5 1229.6,455.3 				"/>
				<polyline class="st2" points="1146.5,472.2 1159.4,473 1161.5,458.9 				"/>
				<polyline class="st2" points="1251,468.5 1259.1,477.1 1269.6,471.5 				"/>
				<path class="st3" d="M711.3,146c-7.3-1.4-17.6,3.9-19.5,11.1c-0.7,2.5-0.7,5.1-2,7.4c-1.1,1.9-3,3.1-4.4,4.8
					c-3.7,4.2-3.8,11-0.8,15.7c3.2,4.8,8.7,7.5,14.4,7.3c4.6-0.1,9.1-2,13.7-2.1c5.5-0.2,11.6,2,16.3-1c3.2-2.1,4.7-6,5.4-9.8
					c0.6-2.8,0.9-5.7-0.3-8.3c-1.9-4.2-7-5.9-10.1-9.3c-2.4-2.6-3.4-6.1-5-9.2S714.9,146.3,711.3,146"/>
				
					<linearGradient id="SVGID_3_" gradientUnits="userSpaceOnUse" x1="710.7" y1="324.12" x2="710.7" y2="234.09" gradientTransform="matrix(1 0 0 1 0 -64)">
					<stop  offset="0" style="stop-color:#4F291A"/>
					<stop  offset="1" style="stop-color:#794E25"/>
				</linearGradient>
				<path class="st4" d="M700.7,177.4c0,0,4.1,11.3,4.9,21.4c0.7,9.7-1.6,60.1-1.6,60.1h12c0,0-2.4-45.7-1.9-62.4
					c0.2-7.5,6.6-24.2,6.6-24.2l-2.2-1.3c0,0-3,12.4-4.9,14.9s-2.4-9.6-2.4-9.6h-1.6c0,0,0.7,9.9-1.4,11s-5.7-10.2-5.7-10.2
					L700.7,177.4z"/>
				<path class="st5" d="M706.6,153.7c-5.8,3.5-7.7,11-4.2,16.9c0.5,0.8,1.1,1.6,1.7,2.3c0.9,0.9,1.9,1.7,3,2.5l6.6,4.9
					c1.7,1.3,3.6,2.6,5.7,3c1.1,0.1,2.2,0.1,3.3-0.1c4.2-0.6,8.5-2.6,10.5-6.4c1.4-2.7,1.4-5.8,1.3-8.8c0-2.8-0.1-5.6-1.2-8.1
					c-1.3-2.8-3.7-5.1-6.5-6.4c-2.8-1.3-5.9-2-9-2.1c-3.1-0.4-6.3,0.1-9.2,1.4"/>
				<path class="st3" d="M1016.4,192.6c-7.3-1.4-17.6,3.9-19.5,11.1c-0.7,2.5-0.7,5.1-2,7.4c-1.1,1.9-3,3.1-4.4,4.8
					c-3.7,4.2-3.8,11-0.8,15.7c3.2,4.7,8.7,7.5,14.4,7.3c4.6-0.1,9.1-2,13.7-2.1c5.5-0.2,11.6,2,16.3-1c3.2-2.1,4.7-6,5.4-9.8
					c0.6-2.8,0.9-5.7-0.3-8.3c-1.9-4.2-7-5.9-10.1-9.3c-2.4-2.6-3.4-6.1-5-9.2S1019.9,192.9,1016.4,192.6"/>
				
					<linearGradient id="SVGID_4_" gradientUnits="userSpaceOnUse" x1="1015.75" y1="370.75" x2="1015.75" y2="280.72" gradientTransform="matrix(1 0 0 1 0 -64)">
					<stop  offset="0" style="stop-color:#4F291A"/>
					<stop  offset="1" style="stop-color:#794E25"/>
				</linearGradient>
				<path class="st6" d="M1005.7,224c0,0,4.1,11.3,4.9,21.4c0.7,9.7-1.6,60.1-1.6,60.1h12c0,0-2.4-45.7-1.9-62.4
					c0.2-7.5,6.7-24.2,6.7-24.2l-2.2-1.3c0,0-3,12.4-4.9,14.9s-2.4-9.6-2.4-9.6h-1.5c0,0,0.7,9.9-1.4,11s-5.7-10.2-5.7-10.2
					L1005.7,224z"/>
				<path class="st5" d="M1011.7,200.3c-5.8,3.5-7.7,11-4.2,16.9c0.5,0.8,1.1,1.6,1.7,2.3c0.9,0.9,1.9,1.7,3,2.5l6.6,4.9
					c1.8,1.3,3.6,2.6,5.7,3c1.1,0.1,2.2,0.1,3.3-0.1c4.2-0.6,8.6-2.6,10.5-6.4c1.4-2.7,1.4-5.8,1.3-8.8c0-2.8-0.1-5.6-1.2-8.2
					c-1.3-2.8-3.7-5.1-6.5-6.4c-2.8-1.3-5.9-2-9-2.1c-3.1-0.4-6.3,0.1-9.2,1.4"/>
				<path class="st3" d="M539.8,237c-3.5-0.7-8.4,1.9-9.3,5.3c-0.2,1.2-0.5,2.4-1,3.5c-0.6,0.8-1.3,1.6-2.1,2.3
					c-1.7,2.2-1.9,5.2-0.4,7.5c1.5,2.3,4.1,3.6,6.9,3.5c2.2-0.1,4.3-1,6.5-1c2.7-0.1,5.6,1,7.8-0.5c1.5-1,2.2-2.9,2.6-4.7
					c0.4-1.3,0.3-2.7-0.1-4c-0.9-2-3.3-2.8-4.8-4.4c-1.1-1.2-1.6-2.9-2.4-4.4S541.5,237.1,539.8,237"/>
				
					<linearGradient id="SVGID_5_" gradientUnits="userSpaceOnUse" x1="539.5" y1="355.59" x2="539.5" y2="312.54" gradientTransform="matrix(1 0 0 1 0 -64)">
					<stop  offset="0" style="stop-color:#4F291A"/>
					<stop  offset="1" style="stop-color:#794E25"/>
				</linearGradient>
				<path class="st7" d="M534.7,252c1.2,3.3,2,6.7,2.3,10.2c0.3,4.6-0.8,28.8-0.8,28.8h5.8c0,0-1.1-21.8-0.9-29.8
					c0.1-3.6,3.2-11.6,3.2-11.6l-1-0.6c0,0-1.5,5.9-2.3,7.1s-1.2-4.6-1.2-4.6H539c0,0,0.3,4.7-0.7,5.3s-2.7-4.9-2.7-4.9L534.7,252z"
					/>
				<path class="st5" d="M537.6,240.7c-2.8,1.7-3.7,5.3-2,8.1c0.2,0.4,0.5,0.8,0.8,1.1c0.4,0.4,0.9,0.8,1.4,1.2l3.2,2.3
					c0.8,0.7,1.7,1.2,2.7,1.4c0.5,0.1,1.1,0.1,1.6,0c2-0.3,4.1-1.2,5-3.1c0.6-1.3,0.8-2.8,0.6-4.2c0.1-1.3-0.1-2.6-0.6-3.9
					c-0.7-1.3-1.8-2.4-3.1-3c-1.4-0.6-2.8-0.9-4.3-1c-1.5-0.2-3,0-4.4,0.6"/>
				<ellipse class="st8" cx="792.8" cy="606.5" rx="415.7" ry="406.9"/>
				<path class="st9" d="M876.5,891.3c-205.2,0-371.6-162.8-371.6-363.7c0-135.4,75.6-253.5,187.7-316.1
					c-181.1,43.9-315.4,204.1-315.4,395c0,224.7,186.1,406.9,415.7,406.9c189.6,0,349.6-124.3,399.5-294.2
					C1126.8,822.5,1009.9,891.3,876.5,891.3z"/>
				<g>
					<g>
						<defs>
							<path id="SVGID_6_" d="M792.8,1013.4c-229.6,0-415.7-182.2-415.7-406.9s186.1-406.9,415.7-406.9s415.7,182.2,415.7,406.9
								S1022.4,1013.4,792.8,1013.4"/>
						</defs>
						<clipPath id="SVGID_7_">
							<use xlink:href="#SVGID_6_"  style="overflow:visible;"/>
						</clipPath>
						<g class="st10">
							<path class="st11" d="M714.5,334.9c5.7,0,11.8,2.6,12.7,5.8c1.3,4.6,2.3,8.7-3.4,13.2s-5.5,3.7-11.7,4.6
								c-4.5,0.7-8.8,2.1-11.8,2.1c-1,0.1-1.9-0.2-2.7-0.7c-2.4-1.9-3.2-9.5-4.3-15.2s-1.2-5.3,1.8-6.4c0.2-0.1,0.5-0.2,0.8-0.2
								c0.9,0,1.5,0.8,2.1,1.6c0.5,0.9,1.5,1.5,2.5,1.5c0.5,0,1-0.1,1.5-0.3c4.4-1.5,5.7-4,5.7-4.1
								C709.6,335.5,712,334.8,714.5,334.9z"/>
							<path class="st11" d="M1313.4,672.4c-0.4,0.7-0.9,1.6-1.4,2.7c-2.3,5-3.4,7.3-5.3,7.5c-1.8-0.2-0.5-2.9-1.8-5
								s-2.2-9.5-2.8-13.6s-1.7-9.6-2.8-12c-1.4-1-1.9,1.3-2.7,3.8c-0.5,1.7-0.6,3.4-0.1,5.1c0.2,1.3,0.7,2.6,0.9,4
								c0.5,2.6,0,4-0.8,4.7c-0.2,0.2-0.5,0.4-0.8,0.5c-0.9-0.5-2-0.9-3-1.1c-3.6-0.1-3.4-1.2-5.8-2.8c-2.9-2-0.9-3.1-2.5-3.4
								c-0.9,0-1.8,0.3-2.6,0.7c-0.9,0.5-1.9,0.7-2.9,0.7c-3.5-2.1-2.9-9.3-4.5-12.3c-0.6-1.4-1.9-2.4-3.4-2.5
								c-4.9-0.5-5.4,2.6-5.8,8c-0.1,0.7-0.1,1.3,0,2c0.3,3,2.2,2.2,2.1,4c-0.1,1.7-0.4,3.4-0.9,5c-0.6,2.2-1.3,4.4-2.2,6.5
								c-1.8,4.6-5.7,4.7-7.6,9.4s-3,8.4-6.4,8.3c-0.9,0-1.7-0.6-1.9-1.5c-0.3-1.3,0.1-3.5,0.5-6.5v-0.1c0.1-0.6,0.2-1.3,0.2-2
								c0.6-6.4-0.1-11.7-0.9-18.7c-0.1-1-0.2-1.9-0.2-2.9c0-6.9,2.2-15.5,3-16.9c1-1.6,5.6-2.2,8.7-4.7c0.5-0.4,0.9-0.8,1.3-1.3
								c1.8-2.3,1.6-5.1-0.6-7.8c-2.6-3.3-3.2-3.4-4.2-8.5c-0.9-4.6-0.5-9.3-2.3-9.5c-2.8,0.9-2,2.2-1.5,6.7
								c0.1,0.7,0.2,1.4,0.2,2.3c0.2,2.7-0.1,3.5-0.7,3.7c-0.7,0.2-2-0.5-3.3,0.9c-0.5,0.6-1.3,0.9-2.2,0.8
								c-2.1-0.2-4.7-2.9-6.6-6.5c-2.6-4.8-1-9-3.9-14c-2.9-4.8-13.3-18.3-17.3-18.7c-4.1,0.5-2.9,3.1-5.4,4s-3.9,0.2-1.8,5.9
								c0.1,0.2,0.2,0.4,0.2,0.7c2.2,5.7,6.5,14.2,9.2,20.9c1,2.6,1.7,3.4,2.2,3.5c4.8-1,3.1,3.6,3.4,19.3c0.2,8.2,0,12.8-0.4,16.5
								c-0.5,3.4-1.1,6.7-1.9,10c-1.7,7.6-6.2,15.2-5,20.4c0.1,0.6,0.4,1.1,0.7,1.6c2.9,4.9,4.4,8.7,2.5,12.8c0,0,0,0,0,0.1
								c-1.2,2.5-2.3,3.3-3.2,3.2c-0.7-0.1-1.2-0.5-1.6-1.1c-0.3-0.5-0.8-0.8-1.4-0.8c-1.3-0.1-2.9,0.9-2.7,3.9
								c0.2,4.2-2.7,4.4-7,8.5s-1.8,4.1-2.6,8.9c-0.1,0.8-0.3,1.5-0.4,2.1c-0.7,2.8-1.6,3.1-4.1,4.9c-0.7,0.7-1.7,1-2.7,1
								c-1.3-0.1-2.5-1.2-5-2c-4-1.3-0.3-3.6-2.8-5c-4.5-0.3-5.3-0.8-6-3c-1.6-4.8-1.9-7.6-4.8-8s-2.8,4.8-5.2,5.5
								c-1.3,0.4-2,1.2-2.6,1.1s-0.9-0.8-1.5-3.1c-0.1-0.4-0.2-0.9-0.3-1.3c-0.6-4.7,1.4-9.8,2.8-12.7c0.5-1.2,1.8-1.8,3-1.4
								c0.7,0.1,1.3,0.2,2,0.4s1.4,0.3,2.1,0.4c0.6,0.1,1.1,0,1.7-0.1c0.7-0.2,1.3-0.3,2-0.4c0.4,0,0.3,0.4,1.6,1.2
								c2.1,1.2,2.2,3.2,5.9,3.6c2.1,0.1,3.1,0.2,3.8,0.3c6.8,0.7,7.2,0.3,10.4-7.3v-0.1c3.2-7.5,0.5-3.6,0.4-6.2c0-1.2-0.2-2-0.3-3
								c-0.1-1.8,0-3.7,0.3-5.5c0.8-4.9,1.4-2.6,3.6-4.9c2.4-2.1,4-4.8,4.7-7.9c0.9-3.7,0.3-4.6,1.2-10.5s1.8-5.7,3.3-10.9l0.1-0.3
								c1.3-4.9,1.2-6.7-0.9-6.9c-2.5-0.2-1.7,5.3-4.7,10s-3.9,2.6-8,9.8c-2.1,3.7-4.1,4.5-6.4,4.2c-2.1-0.2-4.5-1.3-7.4-1.8
								c-0.8-0.1-1.4-0.2-2-0.2c-3.8-0.4-3.1,0.4-5.5,0.3c-2.7-0.2-3.5,2.3-3.1,7.7c0,0,0,0.1,0,0.2c0.1,2,0,4-0.5,6
								c-0.6,2.2-1,4.5-1.2,6.8c-0.7,6.5-0.8,3-4.1,7.6c-1.7,2.5-2.6,3.1-3.7,3s-2.2-0.8-4.3-1.2c-0.7-0.1-1.3-0.4-1.9-0.7
								c-1.6-1.2,0.4-3.2,0.5-6.8c0.1-4.2,1.7-3.5,4.2-8.6c0.1-0.3,0.3-0.6,0.4-0.9c2.7-6-0.7-4.7-2.9-8.1c0-0.1-0.1-0.1-0.1-0.2
								c-2-3.2-1-2,1.5-9c0.1-0.2,0.1-0.4,0.2-0.6c2.8-7.9-0.1-4.7-2.3-6.5s-3.7-2.3-4.8-6.7s2.3-4.6-1.2-5.7
								c-3.7-0.5-5.3,3-7.8,9.1c-1.2,3.1-0.9,4.3,0,5.2c1.1,1,3,1.7,4.5,4.6c2.7,5.3,1.8,2.2,0,6.1c-0.1,0.2-0.2,0.3-0.2,0.4
								c-0.3,0.7-1,1.1-1.8,1c-2.8-0.6-3.7-0.3-4.5,1.1c-1.2,2-1.2,4.1-0.8,6.7s1.4,5.9,2,9.9c0.7,5.1,0.8,6.3-0.2,8.4
								c-0.6,1.2-1.4,2.7-2.7,5.4c-3.4,7.3-4.5,8.2-7.6,10.7s-7.3,2-9.8,2.7s-4.5,2-8.3,1.6c-5.1-0.8-12.5-4.2-16.6-6.9
								c-0.5-0.4-1.1-0.7-1.7-0.8c-2.1-0.2-1.7,3.8-3,7.5c-1.6,4.4-2.7,4.5-6.3,4.4c-0.9,0-1.6-0.5-2-1.3c-0.8-1.7,0.1-4.6,0.8-7.9
								c0.3-1.8,1.6-3.4,3.3-4.2c0.8-0.4,1.3-1.2,1.4-2.1c0.1-2.5,1.7-3.9-0.8-4.2c-0.7-0.1-1.5-0.1-2.2,0c-4.2,0-7.6,3.3-7.7,7.5
								c0,0.7,0.1,1.4,0.3,2c0.1,0.2,0.1,0.5,0.2,0.8c0.9,4.2,0.4,9,1.1,17.1c0.1,0.8,0.1,1.5,0.1,2.1c0.1,1.2-0.1,2.5-0.6,3.6
								c-0.8,1.3-2.4,1.4-3.7,4.8c-2.2,5.7-3.9,5.7-6.7,7.1c-1.8,0.3-2.1-0.1-2.5-0.6c-0.4-0.6-1.1-1-1.9-1.1
								c-4.5,0.2-2.2,2.1-5,3.2c-0.7,0.3-1.4,0.4-2.2,0.3c-1.4-0.2-2.6-1-3.4-2.2c-0.1-0.2-0.3-0.4-0.4-0.6
								c-1.1-1.8-0.4-2.8,1.5-7.1c0-0.1,0.1-0.2,0.1-0.2c2-4.5,0.3-4.5-1-10.7c0,0,0,0,0-0.1c-1.2-6.1-0.1-5.9-1-8
								c-1.4-0.8-2.5,1.7-4,3.5c-1,1.1-1.9,2.3-2.7,3.5c-1.2,2.1-1.7,4.5-1.6,6.8c0,0.7,0,1.4,0,2.2c0.1,5.8,0.5,11.5,1.4,17.2
								c0.8,4.3,0.4,2.8-0.7,4.7c-0.1,0.1-0.1,0.3-0.2,0.4c-1.2,2.6-1.1,5.3-2.5,9.7s-0.8,3.2-3.6,3.8s-1.8,1.4-3.4,6.3
								c-0.6,1.9-0.3,3,0.2,3.8c0.8,1.2,2.3,1.8,2.1,3.7c0,1.4-0.5,2.7-1.4,3.8c-0.8,1-1.9,2-3.3,3.8c-2.9,3.5-3,1.9-1,3.6
								c0.5,0.5,1,1,1.4,1.6c1.7,2.5,3.2,5,4.6,7.7c1.9,3.2,2,1.1,5.6,4.2s2.2,2.3,2.9,5.1c0.5,1.5,0.2,3.1-0.7,4.4
								c-0.4,0.8-1,1.7-1.7,3c-1.1,2.1-1.7,2.7-2.3,2.6s-1.1-0.7-1.9-1.4c-1.8-1.7-3.4-3.6-4.8-5.7c-0.9-1.5-1.1-2.9-4.5-4.8
								s-4.2-5.8-6-8.6c-0.3-0.4-0.5-0.9-0.7-1.3c-0.6-1.4-0.4-2.3,0.1-4.4c0.2-0.8,0.4-1.7,0.6-2.8c0.9-5-0.2-1.6-2.1-6.6
								c-1.1-2.9-1.6-7.2-1.6-11.2c-0.1-2.4,0.2-4.7,0.7-7.1c0.4-1.6,0.8-2.7,1.2-3.9c0.6-1.9,0.7-3.9,0.5-5.8c0-0.2,0-0.3,0-0.5
								c0-0.3,0-0.5,0-0.8c-0.1-3.2,0.9-3.1,0.3-7.1c-0.5-4.2-1.3-8.3-2.3-12.3c-0.2-0.9-0.6-1.7-1.1-2.5c-1.7-2.4,3.3-5.4,6.2-5.1
								s4.6,2.5,5.7,7.4c0.7,3,1,6.1,0.9,9.1c1,0.6,2.6-1.5,3.6-3.8c0.4-0.9,0.7-1.9,0.8-2.9c0.1-2.2-0.6-4.4-1-6.8
								c-0.3-1.4-0.3-2.8-0.1-4.2c0.6-3.8,1.8-2.1,3-6.2c0.1-0.2,0.2-0.5,0.2-0.8c1.3-5.1,2.7-7.5,6.1-16.6c0.4-1.1,0.8-2.2,1.1-3.4
								c1.7-6.5-0.3-8.7-2.3-10s-3.4,0.1-4-3c-0.1-0.4-0.2-1-0.2-1.6c-0.4-3.5,1.6-6.4,2.6-9.9c0.5-1.7,0.7-3.5,0.6-5.2
								c-0.7-6.2-1.4-16.7-3.6-19.4s-7.4-4.1-11.8-4.8c-4.2-0.5-2.2,2.4-5.6,4.9s-8,2.8-12.9,3.2s-1.5,1.5-4.9,3.3
								c-0.8,0.5-1.7,0.7-2.6,0.6c-2.8-0.6-3.7-0.5-4.8,0.1c-3.6,1.8-1.7,8.5-3.8,12.1s-2.8,1-4.1,5.6c-0.5,1.5-0.4,3.1,0.2,4.6
								c0.8,2.1,2.5,3.7,3.8,5.2s0.4,3.5-0.5,6.1c-0.6,1.5-1.1,3.1-1.3,4.7c-0.8,5.3-2.2,5-6,5.1c-2.9-0.3-4.1-3.7-4.3-7.8
								c-0.1-1.3,0-2.7,0.1-4c0.1-1.5,0.5-3,1.2-4.3c0.8-1.4,1.6-2,1.1-4.4c-0.3-1.3-0.5-1.9-0.8-1.9c-0.6-0.1-1.4,2-3,3.5
								c-0.8,0.8-1.3,1.3-1.8,1.2c-0.9-0.1-1.3-2.2-2.6-7.6c-0.4-1.8-0.7-3.5-0.9-5.3c-0.3-4,0.6-5.9,1-9.8c0.1-0.7,0.2-1.3,0.2-1.8
								c0.5-4,0.9-5.8-0.5-13.2c-0.6-2.9-1-4.6-1.3-5.7c-0.5-2.2-0.5-2.6,0.5-6.5c0.6-2.5,1.4-5.1,1.9-7.4c0.8-3.3,1-6.2-0.3-7.9
								c-0.4-0.5-0.9-0.9-1.6-1c-3.4,0.3-4.2-0.1-5-1.3c-2.9-3.7-5.6-12.2-5.4-18.8s0.2-6.9-2.6-9.6c-0.6-0.6-1.4-1-2.2-1.1
								c-1,0-1.9,0.1-2.9,0.3c-1.2,0.2-2.4,0.2-3.6,0.1c-1-0.1-1.9-0.3-2.8-0.7c-5.7-2.2-5.2-2.4-8.4-4.2s-2.3-4.5-4.4-9.3
								s-4.5-5.5-10.2-9s-5.8-2.2-10.2-7s-3.8-8.9-5-13.7c-0.6-2.5-4.5-3.2-5.5-0.9c-1.3,2.9-0.9,4-0.1,5.7c0.7,1.4,1.2,2.9,1.5,4.5
								c0.7,3.8,0,4.5-0.4,6.8c-0.2,1.3-0.2,2.7-0.1,4c0,0.2,0,0.3,0,0.5c0.3,3.4,1.3,4.3,3.8,4.6c1.5,0.2,3.6,0.1,6.3,0.3
								c7.1,0.7,4.5,2.4,9.5,4.2c0.7,0.3,1.5,0.5,2.3,0.6c1.7-0.1,2,0.4,3.7,2.7c3.8,5,2.6,6.9,4.7,12.4c1.3,3.4,0.6,4.4-0.7,5.5
								c-1.1,0.8-2,1.8-2.8,2.8c-2.5,3.7-8.1,11-13.2,12.6c-5.2,1.8-10.8,2.5-16.3,1.9c-6.9-0.7-4.8,3.4-12.4,2.9
								c-2.9-0.3-5.8-0.9-8.5-1.9c-1.9-0.7-3.8-1.3-5.8-1.7c-0.8-0.1-1.7,0-2.5,0.3c-3.3,1.7-5.9,2.7-5.1,6.8c0.2,1,0.3,1.7,0.3,2.2
								c0.2,1.5,0,1.3,1.4,2.5s5.2,1.8,8.8,2.2c1.4,0.2,2.8,0.2,3.9,0.3c3.2,0.2,4.9-3,6.5-2.8c0.5,0,0.9,0.4,1.4,1.2
								c2,3.5,2.8,1.7,3.9,7.1c0.5,1.7,0.2,3.5-0.8,4.9c-1.5,2.3-5.1,4.7-10.8,9.8c-9.2,8.3-6,7.8-12,9.3s-4.6,0.8-10.8,2.6
								s-12.8,10.2-17.8,14.2s-6.8,8.5-5.8,13.4c0,0,0,0,0,0.1c0.3,2.7,0.3,5.3,0,8c-0.1,0.8-0.1,1.6-0.2,2.4
								c-0.5,5.3-1.4,11.3-1.8,15.2c-0.8,7-0.6,7-4.5,12.6c-2.8,4-4.4,5-7.1,4.7c-1.2-0.2-2.4-0.4-3.6-0.8c-0.5-0.1-1-0.2-1.5-0.3
								c-3.4-0.4-2.9,2.5-6.3,6.6c-3.8,4.6-2.9,10.8-4.6,16s-5,4.3-7.8,4.5s-1,8.4-3.8,11.1s-6.8,7.4-11.1,8.8s-3.6,3.1-8.5,4.9
								c-3.9,1.5-6.7,3-11.5,2.5c-1.2-0.1-2.5-0.4-3.7-0.7c-7.2-1.9-7.4-2.4-9.1-5.8c-0.2-0.4-0.4-0.8-0.5-1.2
								c-0.5-1.5-0.1-2.7,0.2-4.5s0.5-3.6,0.5-5.4c0-6.8-3.1-14.3-5.1-17.8s-1.2-13.2-0.9-17.9s-2.1-8.1-5.1-12.8
								c-2.8-4.2-2.3-5.9-2.5-9.7c0-0.5,0-0.9-0.1-1.4c-0.4-5,2.5-8.2,2.4-11.6c0-3.2,5-5.6,7.4-7.5c0.2-0.2,0.4-0.4,0.6-0.6
								c0.9-0.9,1.2-2.3,0.8-3.5c-0.5-1.3-1.1-2.5-1.8-3.7c-1.8-3.3-0.8-12.7-1.2-17s0.3-5.4-1.7-8.3c-1.9-2.7-6.6-11.1-7.8-14.7
								c-0.1-0.3-0.2-0.5-0.2-0.8c-0.6-3,1.3-7.5,2.2-9.5s1.7,0.4,2.9-3c0.1-0.2,0.2-0.3,0.2-0.5c1.4-4,0-9.6-3.1-10.2
								c-1.7-0.1-3.3,0.1-4.9,0.6c-1.4,0.5-2.8,0.7-4.2,0.7c-3.2-2-3.3-5.9-4.9-11c-0.8-2.5-1.7-3.1-3.1-3.2c-0.7,0-1.4,0-2.1,0
								c-0.9,0-1.8,0-2.7-0.1c-0.6-0.1-1.2-0.2-1.8-0.3c-0.9-0.2-1.6-0.3-2.1-0.4c-3.2-0.3-1.6,1.4-2.9,4.1
								c-1.5,3.1-4.2,2.5-7.5,5.7c-0.6,0.7-1.6,1.1-2.5,1c-2.2-0.2-4.3-3-7.7-3.8c-2.4-0.2-4.9,0.3-7.1,1.2
								c-2.2,0.8-4.3,1.6-6.1,1.4c-5.1-1.9-15.1-12.5-17.6-14.5s-3.7-10-7.8-15.8s-6.3-4.5-7.3-9.7c-0.7-3.4-1.4-5.5-1.6-8v0.1
								c-0.1-1.5,0-3,0.2-4.5c0.5-3.4,1.1-5.9,1.5-9c0.3-2,0.4-4,0.5-6.1c0.1-6.5-2.8-12.9-2.5-16.7v-0.1c0.2-1.5,2-6.2,4.5-11.7
								c1.1-2.4,2.3-4.9,3.6-7.4c3.5-7,7.4-13.5,9.8-15.3c5-3.7,10-5.1,11.6-8.1c0.2-0.3,0.3-0.5,0.4-0.8c0.8-2.5-0.2-5.5,0-8.1V478
								c0.1-1,0.4-2,1-2.9c2.4-3.2,6-9.6,9.3-9.6c1,0,2,0.4,2.9,1c0.8,0.6,1.8,0.9,2.8,1c0.9,0.1,1.9,0.1,2.8-0.1
								c6-0.8,6-0.4,18.4-0.6s20.1-9.3,29.4-7c1.4,0.3,2.7,0.6,4.1,0.7c1.7,0.2,3.5,0.2,5.2-0.1c1-0.2,2.1-0.3,3.2-0.3
								c0.9,0.1,1.7,0.4,2.4,0.9c4.1,2.7,2.5,1.2,3.7,6.8c0.3,1,0.4,2.1,0.3,3.1c-0.2,2.3-1.7,2.6-2.1,6.6c-0.2,1-0.1,2,0.3,3
								c0.9,2.2,3.8,2.4,8.1,3.8c5.6,1.6,5.6,0.1,10.1,6.2s6.7,9.7,11.8,13.2c0.6,0.4,1.3,0.7,2,0.8c3.8,0.4,5.7-6.1,7.4-9.7
								c1.4-3,2.2-4.2,5.5-3.8c1.7,0.2,3.4,0.5,5,1c7.7,2,2.4,6.8,5.6,9.6s6,5.5,14.9,7c3,0.5,4.5,0.6,5.4,0.7
								c1.8,0.2,1.4,0.2,6.4,2c6.8,2.5,16.1,1.2,20.4-5.6c1.2-1.7,2.1-3.6,2.8-5.6c0.9-2.8,0.5-4.5,0.3-7.6c-0.2-2.2-0.8-3-1.9-3.1
								c-1.3-0.1-3.1,0.7-5.5,1.4c-4.3,0-4.2-3.6-4.8-8.2c0-0.5,0-1,0-1.4c0-0.1,0-0.1,0-0.2c0.4-4.3,5-6.1,6.3-9.8
								c2.1-1.5,14.8-6.3,15.4-6.3c2.1,0.2,3.2,6.4,8.3,12.6c2.2,2.6,3.5,3.8,4.5,3.9c1.2,0.1,3.5-4.5,4.5-9.3
								c0.7-3.3,0.9-6.6-0.3-8.5c-3-4.5-3.7-9.7-11.8-14.3c-1.5-0.9-3.1-1.5-4.9-1.8c-1-0.1-1.9,0-2.9,0.2c-0.8,0.2-1.7,0.3-2.5,0.3
								c-1.5-0.3-2.9-0.9-4-1.9c-6.4-4.8-2.2-5.6-8.5-10.3c-1-0.9-2.2-1.4-3.6-1.6c-3.7-0.4-5.7,3.9-9.9,5.4
								c-4.6,1.6-5.2,8.2-5.3,14.3c0,1.1,0,2.1,0,3.2c0,6.7,8.7,7,11,10.9c0.6,0.9,0.8,1.9,0.8,3v0.1c-0.2,2.3-2.1,4.3-4,6.5
								c-2.6,3-13.3,8.1-14,3.6c-1-6.7-5.4-12.5-5.8-17.1s-1.2-5.1-6.8-6.4c-0.8-0.2-1.6-0.4-2.5-0.5c-2.8-0.3-2,1.2-2.2,5
								c0,0.5,0,1,0,1.5c0.2,3.5,2,5.2,2.3,7.3c0,0.1,0,0.2,0,0.3c-0.3,2-5.7,4.8-8.8,4.5c-4-2.5-9.2-13.6-9.4-19.3
								c0-2.4,0.2-4.8,0.6-7.2c0.5-3.3,0.8-6.4-0.1-8.5c-1.6-3.6-5.7-4.3-11-8.5c-3.7-2.9-4.5,1-3,5.3c0.7,2,1.8,3.8,3.3,5.3
								c4.9,4.7,4.5,6.1,5.2,8.5c0.2,0.8,0.3,1.7,0.2,2.6v0.2c-0.2,2.5-1.2,5.8-3.9,10.1c-3.8,6.4-4.7,8.5-9.8,7.9
								c-5.5-0.6-7-0.9-9.8-4.5c-3.2-4-3.6-6.2-3.2-10l0,0l0.3-0.1c1.3-0.8,2.5-3.6,3.1-7c0.8-5,0.3-11.1-3.4-13.8
								c-6.4-4.7-6.3-15.6-9.7-17.4c-3.9-0.6-6.7,5.5-9.5,6.9c-2.2,0.1-4.4-0.6-6.3-1.8c-1.7-1.1-3.6-1.9-5.6-2.2
								c-5.5-0.1-2.7,9.6-7.9,16c-1.9,2.4-2.6,3-3.3,2.9c-1.5-0.7-11.5,7.2-15.2,14c-1.3,2.5-2.8,3.2-4.4,3c-2.8-0.3-6-3.5-9.5-5.3
								c-5.5-2.9-8.5-0.3-13.3-7.7c-3.9-5.9-6.3-7.7-6.2-12c0.1-1.4,0.3-2.7,0.6-4c1.9-7.7,3.9-17.4,9.7-22.5
								c1.5-1.4,2.6-1.8,3.4-1.7s1.6,0.9,2.4,1.7s15.8-0.5,20.1-1c0.6,0,1.1-0.2,1.5-0.6c2.1-1.5,0.7-5.9-0.7-9.3
								c0-0.1-0.1-0.2-0.2-0.4c-1.7-4-8.3-7.7-9.3-9.5s-1-9-1.9-13.4s-9.8-1.9-14.2-2.4c-4.9-0.8-7-5-8.4-9.6
								c-0.2-0.6-0.2-1.2-0.2-1.8c0-0.2,0-0.4,0.1-0.6c0.6-4.9,5.9-12.2,10.3-13.6c5.2-1.8,11.8-7.7,13.7-13.6
								c1.4-4.1,3.2-8.1,5.4-11.8c1-1.9,2-2.8,3.3-2.6c1.8,0.2,12.5,10.9,10.7,20.6c-0.1,0.7-0.3,1.4-0.4,1.9
								c-0.8,3.1-1.4,3.4-2.2,3.3c-1.4-0.2-2,0-2.8,1.7c-1,3.2-1.4,6.5-1.3,9.9c-0.1,2.9,0.4,5.7,1.5,8.4c3.3,6.9,11.1,9.3,12.6,6.5
								c2.7-5.1,9.3-1.8,12.7-7.7c2.7-4.5,1.9-5,4.1-4.8c4.5,0.5,5.9,0.7,7,1s2.1,0.4,3,0.5c1.7,0.3,3.5-0.1,4.9-1.2
								c0.2-0.2,0.4-0.3,0.6-0.5c1.9-2,0.4-4.4,0.1-9.1c0-1,0-1.9,0-2.9c0-0.8,0.1-1.5,0.2-2.3c0.5-3.3,1.6-2.3,3.7-3.5
								c0.7-0.4,1.3-0.8,1.8-1.4c1.3-1.3,2.3-1.7,3.2-1.6c1.2,0.1,2.2,1.1,3.4,2c0.6,0.4,1.2,0.8,1.9,1c2.8,0.4,0.7-3-1.8-8
								c-1.3-2.5-2.3-4.1-3.3-4.2s-2.5,1.5-4.5,5.4c-3.9,7.6-10.7,0.5-14.7-4.4c-5.6-6.9-8.1-12.4-5.8-22.2l4.3-19.1
								c0.1-1,0.5-2,1.1-2.9c0.7-0.7,1.6-1.2,2.6-1.4c10.5-3.2,20-8.8,27.9-16.4c3.5-3.4,7.3-7.4,11.8-7.3s8,4.1,12.1,5.9
								c7.5,3.2,15.9,0.6,23.6,3.3c6.5,2.3,13.5,2.6,20.3,4.4c10.1,2.7,4.5,2.7,12,11.8c7.5,8.9,6.6,4.5,17.3,9.7s9.7,4.5,12.4,10.2
								c0.5,0.9,0.7,1.9,0.8,2.9c0.1,3.3-3.9,4.7-8.3,8.5c-1,0.9-2.3,1.4-3.7,1.3c-1-0.2-2-0.6-2.9-1.2c-0.7-0.5-1.4-0.8-2.2-1
								c-0.9,3.4-0.5,5.4,0.7,6.7c2.1,2.2,6.5,2.4,10.3,3.9c6.4,0.9,9.4-10.5,15.6-16.9c2.5-2.6,3.8-3.4,4.7-3.3c1.5,0.2,2,3,5.1,5
								c5,3.2,2.8,8,8.7,9.9c0.6,0.2,1.3,0.4,1.9,0.5c1.9,0.2,4.4-6.5,5.5-13.4c0.6-3.4,0.6-6.9,0.1-10.3c-0.4-1.3-0.6-2.6-0.6-4
								c0-0.3,0-0.5,0.1-0.8c0.5-2.4,3.6-2.2,10.7-6.4c10.2-6,3-1.4,9.9-7.2c2.1-1.7,3.4-2.3,4.5-2.1c2.7,0.3,4.6,4.2,14.5,5.6
								c10.1,1.4,13.5,6.9,13.5,10.5c0.2,1.1-0.3,2.2-1.2,2.9c-2.3,1.2-6.6,3.7-10.7,3.2c-0.9-0.1-1.7-0.3-2.5-0.7
								c-2.8-1.1-5.7-1.9-8.7-2.1c-5.2-0.6-10.5-0.1-11.2,3c-0.4,1.9-0.5,3.8-0.2,5.6c0.2,2,0.1,4.1-0.5,6.1c0,0.2-0.1,0.3-0.1,0.5
								c-1,3.9-1.9,4.7-0.3,5.3c1.1,0.4,3.2,0.6,6.9,1.5c9.7,2.1,8,0.9,17.8,4s7.2,10.6,13.4,12.1c0.4,0,0.9,0,1.3,0
								c3.5-0.5-0.3-6.5-1.2-13.1c-0.2-1.2-0.2-2.3,0.1-3.5c1-4.4,5.6-4.6,9.6-4.3c4.7,0.5,4.2,2.9,8.3,10.9
								c4.2,8.2,14.5,16.1,18.3,13c2.8-2.2,4.5-3.2,6.7-3s4.9,1.7,9.5,4.4c8.9,5.2,37.2-24.4,48-28c9.1-3.1,19.9-1.2,29.5,1.8
								c51.2,15.7,86.2,56.7,117.5,95.3c21.1,26,42.6,52.8,51.4,83c6.3,21.5,5.6,43.7,5,65.5c-0.6,20.7-6.3,46-2,66.6
								c2.9,14.1,11.7,30,17.7,44.1C1315.1,669,1314.7,669.8,1313.4,672.4z"/>
							<path class="st11" d="M649.8,766.3c-1,1,3.5,18.2,3.9,21.2s-2.1,13.9-4.2,16.8s-10.3,1.3-11.6,2.5s-4.4,4.4-4.3,8
								s1.5,9.4,2,11.7s-2.3,4.6-4.8,9.1s-1.8,13.5-3.3,15.6c-0.5,0.7-1.4,1.1-2.3,1.1c-2-0.1-2.5,0-2.8,0.5
								c-0.9,1.4,0.6,7.8,0.2,9.7s-2,1.7-4.2,2.3s-1,2.6-1.8,4.1c-0.8,1.2-1.8,2.1-3.1,2.8c-0.5,0.2,0,3,0.5,6s-2.2,12.8-0.5,14.9
								s3.8,4,3.6,6.8c0.1,4,1.3,7.8,3.5,11.1c2.1,2.7,7.7,1.4,10,3.1s2.1,1.4-2.2,3.5c-1.3,0.7-2.8,1.1-4.3,1.2
								c-2.4,0-4.7-1.2-7.8-3.4c-2-1.4-3-1.8-3.7-1.8c-2.2,0.4-2.5,0.3-3,0.2c-2.9-1-4.3-4.7-9.4-8.9s-3.8-4.4-4.8-6.4
								s0.5-7.6-2.4-10.8c-1.8-1.9-3.5-4-5.1-6.1c-2.2-2.8-2.3-3.7-4.2-10.3s-1.4-9.3-4.3-17.3s-3.5-4.7-5.6-9.5s-3.5-23.6-6.3-30.5
								s-3.1-9.2-7.2-12.5s-20.4-8.4-22.1-9.8s-6.2-11.5-7.6-14.7S517,765.2,516,764.6s0.4-4-0.1-9.2s-3-3.7-5.3-4.3
								s-2.5-8.4-2.4-13.1s7.9-6,7.9-12.5c0.1-2.7-0.4-5.4-1.3-8c-0.4-1.1-1.1-2.2-2-3c-0.9,0-2.5,1.4-4.3,3.2
								c-2.3,2.3-4.8,5.3-6.4,6.2c-0.8,0.5-1.8,0.8-2.7,0.8c-0.5,0-1-0.1-1.5-0.1s-1.2-0.1-1.9-0.1c-1.1,0-2.1,0.1-3.2,0.4
								c-4.9,1.1-16,10.7-18.4,11.4c-0.1,0-0.1,0-0.2,0c-1.6-0.4-1.7-6.9-3.3-10.3s-4.9-3.6-7.3-4.6c-3.6-0.1-8.9,3.9-13.5,4
								c-5.1,0-9.4-4.3-11.6-4.4s-8.3,8-10.7,9.6c-1.8,1.2-10.5,2.6-16.5,2.6c-1.7,0.1-3.4-0.1-5-0.7c-2.6-1.3-4.5-8.3-6.1-12.6
								c-0.3-1.1-0.9-2.1-1.6-3c-2-1.8-8.9-0.7-10.7-1.5s-4.7-4.1-8.3-7.9s-5.6-3.9-7.1-4s-0.4,2.6,2.4,6s9.4,7.1,11.8,9.2
								c0.4,0.4,0.7,0.8,1,1.3c1.4,2.6,1.4,7,0.4,7c-5.8-1.5-11.4-3.8-16.6-6.9c-1-0.6-1.9-1.3-2.8-2.2c-5.3-5-7.4-15-12.1-18.7
								c-0.8-0.7-1.9-1.2-3-1.2c-1,0.1-2,0.4-2.9,0.8c-0.9,0.5-1.9,0.7-2.9,0.8c-1.1,0-2.1-0.4-3-1c-5.2-3.3-9.8-15.5-12.4-17.4
								s-1.9-4.6-0.5-15.4s-4.6-33.3-9.8-44.7s-9.8-9.2-17.3-16.5s-8-15-10.5-15c-2.8,0.4-16.5,12.6-24.8,22s-1.8,13.5-4.9,28
								c-3.1,14.3-4.2,20.7-6.1,30.2c-0.5,2.7-1.4,5.3-2.9,7.7c-1.8,2.9-4,4.2-5.4,4.2c-2.2-0.9-2.9-3.7-2.3-8.4
								c0.2-1.8,0.6-3.5,1-5.3c2-8.1,0.6-8.7-3.9-13.5c-1.6-1.7-2.7-2.1-3.6-2.1c-0.5,0-0.9,0.1-1.3,0.3c-0.4,0.1-0.7,0.2-1.1,0.3
								c-0.5,0-1-0.3-1.6-1.2c-2.3-3.3,0.6-14.9,3.9-20.9s3.6-8.9,2-12.9s-2.6-0.6-4-5s4.9-10,7.6-12.8s-1.2-9.5-2.4-13.1
								c-1.6-5.1,11-29.5,13.2-35.7c5.8-16.1,22.1-25.5,30-41.4c20.2-40.6,39.8-83.2,70.5-119.2c14.7-17.2,73.3-71.4,101.4-48.7
								c1.6,1.3,3.1,2.8,5.2,3.3c5.4,1.3,9-4.3,12.5-8.1c5.3-5.7,19.4-9.2,27.2-5.2c9,4.6,2.9,10.7,7.6,15c1.9,1.8,6.5,1.7,12.1,5.5
								s8.5,5,11.6,8.6s8.9,2.8,12.5,7.3s0,4.4-1.8,8c-0.7,1.5-2.2,2.3-3.8,2.2c-1.2,0-3.8,4.9-5.8,10c-1.4,3.7-2.4,7.5-2.3,9.8
								c0.2,5.5,0.2,8.4-4.9,9.8s-4.4,1-8.8,1.1s-5.4,0.1-6.5,4.9s-2.8,13.9-1.8,16c0.4,0.9,1.6,1.3,3.1,1.3c2.4-0.1,4.7-0.8,6.7-2
								c3.9-2.2,2.9-11.3,6.2-13.6c0.6-0.5,1.4-0.7,2.2-0.8c2.3,0,4.2,2.4,6.5,3.7c2.9,1.8,1.8,3.8,0.2,8.2s-4.2,5.8-1.7,9.2
								c0.7,0.9,1.9,1.4,3.1,1.3c1.3,0,2.5-0.2,3.8-0.5c1.4-0.3,2.9-0.5,4.3-0.5c1.1,0,2.1,0.1,3.1,0.5c5.3,1.9,1.2,11.7,2.8,17.6
								s6.3,10.7,6.7,17.8s-0.8,6.1-4.9,10.5c-2.5,2.6-7.5,3.9-11.6,3.9c-2.6,0-4.8-0.5-5.8-1.5c-2.5-2.4-2.8-2.5-0.8-7.1
								s2.9-8.9,1.4-9.8c-1.8-0.1-3.9,3.9-7.1,8.5c-2.7,3.9-5.9,4.2-8.7,4.2c-5.6,0-4.7,4.2-3.1,7.9s6.2,4,10,6s4.6,2.8,3.7,4.7
								c-2,3.4-4.2,6.7-6.8,9.8c-2.4,3-5,5.8-6.9,7c-1,0.6-2.1,1-3.3,1c-0.5,0-1,0-1.5-0.1s-1-0.1-1.4-0.1c-1.5,0-3,0.5-5,3.1
								c-4.5,5.8-8.9,3.3-10.6,7c-1.6,3.2-1.1,7.9-3.2,15.6c-0.3,1-0.6,2.1-1,3.2c-3.3,9.6-11.5,16.5-13.3,19s1.4,9.6,2.7,13.5
								s0.1,5.1-2.4,7.3c-0.2,0.2-0.4,0.4-0.6,0.6c-2.2,2.4-4,7.4-6.2,11.8c-1.1,2.4-2.5,8.1-3.6,13.4c-1.2,5.5-2.2,10.5-2.5,11.1
								c-0.7,1.2-0.4,2,1.1,6.1s4.1,8.6,3.3,13.8c-0.6,4-2.5,5.6-5,5.6c-0.8,0-1.6-0.2-2.4-0.4c-3.8-1.1-1.5-3.3-3.3-9.6
								c-1.5-5.1-3.1-6.3-5.9-6.3c-0.7,0-1.4,0.1-2.1,0.2c-4.1,0.5-2,4.2-2.3,8.5s-2.1,4.6-10,4.9s-5,2.1-9.6,7.9
								s-3.9,17.5-3.2,24.6s4.9,13.2,8.1,18.2c1.5,2.4,3.2,3,5.1,3c2.1,0,4.5-0.8,7.6-1.2c5.9-0.5,2.3-5.6,3.2-16.5
								c0.5-5.3,0.9-6.3,1.9-6.3c2.8,0.3,3.8,0.1,5-0.8c5.1-3.6,4.5-6.4,6.7-10.1s5.9-5.7,6.2-9.4c0.3-3,3.3-4.2,5.8-4.2
								c0.6,0,1.2,0.1,1.8,0.2c0.9,0.2,1.7,0.3,2.6,0.2c1,0,2.3,0,3.6-0.1s2.8-0.1,4.3-0.1c2.7-0.1,5.4,0.2,8,0.7
								c3.5,0.9,7.2,1.3,10.8,1.3c2.4,0.1,4.8-0.2,7.1-1c1.8-0.8,3.7-1.2,5.6-1.3c1.5-0.2,3,0.5,3.8,1.8c1.5,2.7-1.6,4.1-6.3,6.2
								s-6.2,5.8-10.5,6.5s-3.9,4.6-5.8,7.8c-1.3,2.2-3.6,3.6-6.2,3.8c-1.6-0.4-4.2-4.3-3.2-7.3s1.3-7-3-8c-4-0.9-7.5-2.5-11.6-2.5
								c-5.4,0.2-2.5,4.2-5.4,6.2c-2.5,1.9-4.7,4.2-6.4,6.8c-1.4,2-1.6,9.2-1.9,15.2s0.4,9.5,2.1,10.4c1.4,0.1,3.6-1.2,6.1-2.5
								s5.1-2.6,6.9-2.6c0.5,0,0.9,0.1,1.3,0.3c3.1,2.1,4.2,12.2,5.9,16.2c1,2.8,3.5,4.7,6.5,4.9c1.2,0.2,2.4,0.2,3.6,0.2
								c5.8,0,12.7-8.6,15.2-10.9c2.5-2.3,0.5-11,2.7-13.1c1.1-1.1,3-4,5.1-6.7l0.1-0.2c1-1.4,2.1-2.6,3.4-3.8
								c0.7-0.7,1.5-1.3,2.5-1.8c2.3-0.8,7-1.2,12.5-1.2c3.4,0,7.2,0.1,10.8,0.3c9.5,0.7,10,0.8,14,3s11.6,9.5,13.9,10.4
								c0.5,0.2,1.1,0.3,1.6,0.3c0.9,0,1.7-0.1,2.6-0.3c1.2-0.2,2.4-0.3,3.7-0.3c0.7,0,1.4,0,2.2,0.1c5.3,0.5,6.9,0.8,12.3,7.1
								c4.1,4.8,9,12.5,12.9,16.8c0.9,1.1,2,2.1,3.2,2.8c4.2,2.2,14,3.1,18.8,3.9s8.5,4,11.7,6.5c0.4,0.3,0.9,0.5,1.4,0.5
								c1.1,0,2-0.9,3-1.9s1.9-1.9,3-1.9c4,2,4.7,6.9,4.8,8.8s2.4,13.8,0.7,15.9S650.8,765.3,649.8,766.3z"/>
							<path class="st11" d="M937.9,256.5c-1.4,0.6-2.8,1.1-4.1,1.6c-9.4,3.6-40,0.5-49.3-3.2c-11.9-5-24.6-7.9-37.5-8.6
								c-17.7-1.1-47.5-4.7-56.3-3.1s-21.7-2.7-26.1-2.6s-17.3,5.8-17.7,6c-4.4,2.2-7.3,5-11.4,9.6c-4.1,4.6-13.3,4.5-15.9,7.7
								s0.5,20.1-5.3,22.1s-9.3,10.2-14.3,23.4c-3,7.7-2.4,9.6-3.4,9.6c-0.7,0-2.1-0.9-6-1.5c-1.3-0.2-2.7-0.4-4.1-0.4
								c-5.3,0-5.7,2.6-14.3,4.7c-10.5,2.5-10.3,4.8-13.4,12.7s-10.3,10-16.1,10.6c-0.3,0-0.6,0-0.9,0c-1.5,0-3-0.5-4.2-1.4
								c-1.1-0.9-2.5-1.3-3.9-1.4c-0.7,0-1.5,0.1-2.2,0.2c-6.1,1.4-7.5,16.2-11,21.2s-10.8,22-14.4,24.4c-3,1.7-6.4,2.6-9.8,2.7
								c-3.6,0-7.1-1.3-8.3-5.5c-2.7-8.6-9.3-22.4-10-29.4s5.2-26.7,6.2-34.3s-1.3-11-4.1-15.3c-1.3-2.1-3.5-2.8-6-2.8
								c-16.2,0-28.8,21.2-36.1-4.7c-4.7-17,0.1-47.6,14.8-59.7c30.4-25.1,70.9-39.9,112.4-47.3s84.2-8.1,126.6-8
								c61.4,0.1,125.4,2.1,179.3,26.9c5.2,2.4,10.8,5.6,11.9,10.6c1.1,5.4-3.7,10.4-8.5,14.1C963.2,244.1,950.9,251.1,937.9,256.5z
								"/>
						</g>
					</g>
				</g>
				<path class="st12" d="M140.3,474.1H91c0,0,4-35.1,8.9-73.4l9.6-22.6l-8.2,11.7c5.4-42,11.4-84.2,13.9-85.3
					c3.3-1.5,13.6,76.5,19.9,127.2l-11.6-11l12.4,17.5C138.6,459.2,140.3,474.1,140.3,474.1z"/>
				<path class="st3" d="M176.6,51.3c-22.7-4.4-54.9,12.1-60.8,34.5c-2,7.7-2.2,16.1-6.2,22.9c-3.4,5.8-9.2,9.8-13.7,14.9
					c-11.5,13.3-12,34.2-2.6,49s27.3,23.2,44.9,22.7c14.4-0.4,28.3-6.2,42.8-6.6c17.2-0.5,36.2,6.2,50.7-3.1
					c10.1-6.4,14.5-18.8,17-30.4c1.8-8.6,2.8-17.9-0.8-25.8c-5.9-13.1-21.8-18.3-31.4-29c-7.4-8.1-10.7-19-15.7-28.8
					S187.5,52.3,176.6,51.3"/>
				
					<linearGradient id="SVGID_8_" gradientUnits="userSpaceOnUse" x1="174.5" y1="558.05" x2="174.5" y2="189.55" gradientTransform="matrix(1 0 0 1 0 -64)">
					<stop  offset="0" style="stop-color:#4F291A"/>
					<stop  offset="1" style="stop-color:#794E25"/>
				</linearGradient>
				<path class="st13" d="M143.3,149.3c0,0,12.9,35.3,15.2,66.7c2.2,30.1-5,273.2-5,273.2H191c0,0-7.4-228-6-280.3
					c0.6-23.4,20.7-75.5,20.7-75.5l-6.8-4.1c0,0-9.4,38.8-15.2,46.3s-7.6-29.8-7.6-29.8h-4.9c0,0,2.3,30.9-4.3,34.3
					s-17.8-31.9-17.8-31.9L143.3,149.3z"/>
				<path class="st5" d="M161.9,75.3c-18.1,10.9-24,34.5-13.1,52.6c1.5,2.5,3.3,4.9,5.4,7c2.9,2.8,6.1,5.4,9.4,7.8l20.6,15.3
					c5.4,4,11.2,8.2,17.9,9.3c3.4,0.5,6.9,0.4,10.3-0.2c13.1-1.9,26.6-8.1,32.7-19.9c4.3-8.4,4.2-18.2,4.1-27.6
					c-0.1-8.6-0.3-17.5-3.8-25.4c-3.9-8.9-11.6-15.8-20.4-19.9s-18.5-5.8-28.2-6.5s-20-0.1-28.7,4.3"/>
				<path class="st14" d="M1544.6,488.3l-126.6,5.2c0,0,16.6-161.8,20.4-239.1c0.1-2.1,0.2-4.2,0.3-6.3c0.1-1.4,0.1-2.8,0.2-4.2
					c0.1-2.1,0.1-4.2,0.2-6.3c0-1.4,0-2.8,0-4.2c0-2.1,0-4.2,0-6.3c0-1.8,0-3.6-0.1-5.3l62.4-2.6c0.1,1.7,0.2,3.5,0.4,5.3
					c0.2,2.1,0.3,4.1,0.5,6.2c0.1,1.4,0.2,2.8,0.4,4.1c0.2,2,0.4,4.1,0.7,6.3c0.2,1.4,0.3,2.8,0.5,4.1c0.2,2,0.5,4.1,0.8,6.2
					C1514.8,328.4,1544.6,488.3,1544.6,488.3z"/>
				<path class="st15" d="M1502.8,219.4l-65.3,2.6c-2.7,0.1-5-2-5.1-4.7l0,0c-0.1-2.7,2-5,4.7-5.1l0,0l65.3-2.7c2.7-0.1,5,2,5.1,4.7
					l0,0l0,0C1507.7,216.9,1505.6,219.2,1502.8,219.4C1502.9,219.3,1502.8,219.3,1502.8,219.4z"/>
				<circle class="st15" cx="1473.5" cy="304.7" r="23"/>
				<polygon class="st16" points="1475.3,287.7 1463.5,307.7 1471.1,307.4 1467.3,322.3 1481,301.2 1473.1,301.6 				"/>
				
					<linearGradient id="SVGID_9_" gradientUnits="userSpaceOnUse" x1="1424.952" y1="767.9663" x2="1366.452" y2="767.9663" gradientTransform="matrix(0.9992 -4.117812e-02 4.117812e-02 0.9992 40.0727 -480.6555)">
					<stop  offset="0" style="stop-color:#C4DCE6"/>
					<stop  offset="1" style="stop-color:#FFFFFF"/>
				</linearGradient>
				<path class="st17" d="M1502.3,230.9l-63.2,2.6c0-2.1,0-4.2,0-6.3l62.7-2.6C1501.9,226.7,1502.1,228.8,1502.3,230.9z"/>
				
					<linearGradient id="SVGID_10_" gradientUnits="userSpaceOnUse" x1="1425.472" y1="778.4544" x2="1365.7621" y2="778.4544" gradientTransform="matrix(0.9992 -4.117812e-02 4.117812e-02 0.9992 40.0727 -480.6555)">
					<stop  offset="0" style="stop-color:#C4DCE6"/>
					<stop  offset="1" style="stop-color:#FFFFFF"/>
				</linearGradient>
				<path class="st18" d="M1503.3,241.3l-64.5,2.7c0.1-2.1,0.1-4.2,0.2-6.3l63.7-2.6C1502.9,237.1,1503.1,239.2,1503.3,241.3z"/>
				
					<linearGradient id="SVGID_11_" gradientUnits="userSpaceOnUse" x1="1426.1421" y1="788.8383" x2="1364.8621" y2="788.8383" gradientTransform="matrix(0.9992 -4.117812e-02 4.117812e-02 0.9992 40.0727 -480.6555)">
					<stop  offset="0" style="stop-color:#C4DCE6"/>
					<stop  offset="1" style="stop-color:#FFFFFF"/>
				</linearGradient>
				<path class="st19" d="M1504.6,251.7l-66.2,2.7c0.1-2.1,0.2-4.2,0.3-6.3l65.2-2.7C1504.1,247.5,1504.3,249.6,1504.6,251.7z"/>
				<path class="st16" d="M279.1,437h51.4c2.4,0,4.4,2,4.4,4.4v31.9l0,0h-60.5l0,0v-31.8C274.6,439,276.6,437,279.1,437z"/>
				<path class="st20" d="M304.8,452.5L304.8,452.5c-1.6,0-2.9-1.3-2.9-2.9v-12.7c0-1.6,1.3-2.9,2.9-2.9l0,0c1.6,0,2.9,1.3,2.9,2.9
					v12.7C307.7,451.2,306.4,452.5,304.8,452.5z"/>
				<path class="st20" d="M294,452.5L294,452.5c-1.6,0-2.9-1.3-2.9-2.9v-12.7c0-1.6,1.3-2.9,2.9-2.9l0,0c1.6,0,2.9,1.3,2.9,2.9v12.7
					C296.9,451.2,295.6,452.5,294,452.5z"/>
				<path class="st20" d="M315,452.5L315,452.5c-1.6,0-2.9-1.3-2.9-2.9v-12.7c0-1.6,1.3-2.9,2.9-2.9l0,0c1.6,0,2.9,1.3,2.9,2.9v12.7
					C317.9,451.2,316.6,452.5,315,452.5z"/>
				<path class="st21" d="M298.4,457.4h12.7c1.3,0,2.4,1.1,2.4,2.4v14.3l0,0H296l0,0v-14.3C296,458.4,297.1,457.4,298.4,457.4
					L298.4,457.4z"/>
				<polygon class="st16" points="198.9,343.3 255.4,400.4 255.4,478.8 198.9,479.1 142.4,478.8 142.4,400.4 				"/>
				
					<linearGradient id="SVGID_12_" gradientUnits="userSpaceOnUse" x1="-7040.1597" y1="541.09" x2="-7040.1597" y2="406.33" gradientTransform="matrix(-1 0 0 1 -6961.7598 -64)">
					<stop  offset="0" style="stop-color:#C4DCE6"/>
					<stop  offset="1" style="stop-color:#FFFFFF"/>
				</linearGradient>
				<polygon class="st22" points="70.9,343.3 142.4,400.4 142.4,478.8 70.9,479.1 14.4,478.8 14.4,400.4 				"/>
				<polygon class="st23" points="206.7,340.9 145.4,402.8 6.7,402.8 67.9,340.9 				"/>
				<line class="st24" x1="171.9" y1="340.9" x2="111.6" y2="402.5"/>
				<line class="st24" x1="137.1" y1="340.9" x2="76.3" y2="403.1"/>
				<line class="st24" x1="102.5" y1="340.9" x2="42.2" y2="402.5"/>
				<line class="st24" x1="186" y1="360.6" x2="47.8" y2="360.6"/>
				<line class="st24" x1="168.5" y1="379.5" x2="30" y2="379.5"/>
				<polygon class="st25" points="212,339.1 274,402.8 257.6,402.8 203.5,348 				"/>
				<path class="st25" d="M182.7,479.1h36.4v-45.6c0-10.1-8.2-18.2-18.2-18.2l0,0l0,0c-10.1,0-18.2,8.2-18.2,18.2L182.7,479.1
					L182.7,479.1z"/>
				<rect x="1348.4" y="118.9" class="st26" width="80.3" height="9.6"/>
				<polygon class="st20" points="1324.6,490.9 1452.5,490.9 1430.5,123.7 1346.6,123.7 				"/>
				<polygon class="st27" points="1365.2,123.7 1356.2,490.9 1324.6,490.9 1346.6,123.7 				"/>
				<path class="st28" d="M1391,86.4l44.7,29c0.9,0.6,1.2,1.7,0.6,2.6c-0.3,0.5-0.9,0.9-1.6,0.9h-92.1c-1.1,0-1.9-0.9-1.9-1.9
					c0-0.6,0.3-1.2,0.9-1.6l44.7-29C1387.7,85.5,1389.6,85.5,1391,86.4z"/>
				<path class="st21" d="M1375.9,189.3h25.3v-22.9c0-7-5.7-12.7-12.7-12.7l0,0l0,0c-7,0-12.7,5.7-12.7,12.7L1375.9,189.3z"/>
				<path class="st21" d="M1375.9,245.2h25.3v-22.9c0-7-5.7-12.7-12.7-12.7l0,0l0,0c-7,0-12.7,5.7-12.7,12.7L1375.9,245.2z"/>
				
					<rect x="1381.6" y="91.1" transform="matrix(0.9581 -0.2864 0.2864 0.9581 27.5111 400.8784)" class="st29" width="5.1" height="30.5"/>
				<path class="st16" d="M1374.5,97.3l12.8-3.8c1.8-0.5,2.8-2.4,2.3-4.2l-23-86.7c-0.5-1.8-2.4-2.9-4.2-2.4h-0.1l-18.2,5.5
					c-1.8,0.5-2.8,2.4-2.3,4.3v0.1l28.4,85.1C1370.8,96.8,1372.7,97.8,1374.5,97.3z"/>
				
					<rect x="1388" y="114" transform="matrix(0.9581 -0.2864 0.2864 0.9581 25.3913 406.7683)" class="st29" width="30.5" height="5.1"/>
				<path class="st16" d="M1412.3,107l3.8,12.8c0.5,1.8,2.4,2.8,4.2,2.3l86.7-23c1.8-0.5,2.9-2.4,2.4-4.2v-0.1l-5.5-18.3
					c-0.5-1.8-2.5-2.8-4.3-2.3h-0.1l-85.1,28.4C1412.7,103.3,1411.8,105.2,1412.3,107z"/>
				
					<rect x="1390.4" y="120.4" transform="matrix(0.9581 -0.2864 0.2864 0.9581 19.4916 404.623)" class="st29" width="5.1" height="30.5"/>
				<path class="st16" d="M1402.6,144.8l-12.8,3.8c-1.8,0.5-2.8,2.4-2.3,4.1l23,86.8c0.5,1.8,2.4,2.9,4.2,2.4h0.1l18.2-5.5
					c1.8-0.5,2.8-2.4,2.3-4.3V232l-28.4-85.1C1406.3,145.3,1404.4,144.3,1402.6,144.8z"/>
				
					<rect x="1358.6" y="122.8" transform="matrix(0.9581 -0.2864 0.2864 0.9581 21.638 398.7214)" class="st29" width="30.5" height="5.1"/>
				<path class="st16" d="M1364.8,135.1l-3.8-12.8c-0.5-1.8-2.4-2.8-4.2-2.3l-86.8,23c-1.8,0.5-2.9,2.3-2.4,4.1v0.1l5.4,18.2
					c0.5,1.8,2.4,2.8,4.2,2.3h0.1l85.1-28.4C1364.3,138.8,1365.3,136.9,1364.8,135.1z"/>
				<path class="st16" d="M1375.3,121.1c0,7.3,6,13.3,13.3,13.3s13.3-6,13.3-13.3s-6-13.3-13.3-13.3
					C1381.2,107.8,1375.3,113.7,1375.3,121.1L1375.3,121.1z"/>
				<path class="st30" d="M1380.1,121.1c0,4.7,3.8,8.5,8.5,8.5s8.5-3.8,8.5-8.5s-3.8-8.5-8.5-8.5S1380.1,116.4,1380.1,121.1z"/>
				<polygon class="st31" points="1315.7,469.8 1158.7,467.2 1179.7,375.8 1336.6,378.3 				"/>
				<path class="st28" d="M1357.2,471.8l-18.5-95.1l0,0l-160.4-2.6l-21.7,94.8l160.3,2.6l19.9-86.8l17.1,87.8L1357.2,471.8z
					 M1314.4,468.1l-153.6-2.5l20.2-88.2l153.6,2.5L1314.4,468.1z"/>
				<line class="st32" x1="1211.2" y1="375.9" x2="1190.1" y2="468.1"/>
				<line class="st32" x1="1242.6" y1="376.4" x2="1221.4" y2="468.6"/>
				<line class="st32" x1="1273.9" y1="376.9" x2="1252.8" y2="469.1"/>
				<line class="st32" x1="1305.3" y1="377.5" x2="1284.2" y2="469.6"/>
				<line class="st32" x1="1173.4" y1="398.8" x2="1330.4" y2="401.4"/>
				<line class="st32" x1="1169.1" y1="422" x2="1326.1" y2="424.5"/>
				<line class="st32" x1="1163.8" y1="445.1" x2="1320.8" y2="447.6"/>
				<polygon class="st33" points="1336.9,384.6 1354,472.4 1317,471.4 				"/>
				
					<linearGradient id="SVGID_13_" gradientUnits="userSpaceOnUse" x1="1276.2571" y1="298.249" x2="1276.2571" y2="392.5391" gradientTransform="matrix(1 2.000000e-02 -2.000000e-02 1 -21.77 57.87)">
					<stop  offset="0" style="stop-color:#A4E9F1"/>
					<stop  offset="0.47" style="stop-color:#A1F3D4"/>
					<stop  offset="1" style="stop-color:#9EFFAE"/>
				</linearGradient>
				<polygon class="st34" points="1181,377.4 1160.8,465.6 1334.6,379.9 				"/>
				<path class="st35" d="M330.7,272.2c-11.9-35.8-50.5-55.2-86.3-43.4s-55.2,50.5-43.4,86.3c5.3,15.9,16.1,29.3,30.6,37.6l0,0
					c0,0,30.5,19,34.8,31.9l26.7-8.8l26.7-8.8c-4.3-13,8.9-46.4,8.9-46.4l0,0C335.3,305.3,336,288,330.7,272.2z"/>
				<path class="st15" d="M298.1,300.4c-2.5-2.4-9.5-10.2-5.6-25.5c0.9-3.3,1.4-6.7,1.4-10.1c0-0.5,0.4-0.8,0.8-0.8
					c0.1,0,0.3,0,0.4,0.1c9.1,5,13.7,18.1,10.9,26.3C304.8,294.1,300.8,298.2,298.1,300.4"/>
				<path class="st15" d="M206.1,289.7c-1.3,1.1,4.9,3,8.5,5.5c4.3,2.9,7.4,7,9.9,10c4.2,5.2,8.1,11,14.1,14.1
					c8.8,4.6,19.7,2.1,29.4,4.5C265,281.8,214.6,285.3,206.1,289.7z"/>
				<path class="st15" d="M283.1,285.1c1-0.5,0.4,3.5,0.9,6.2c0.6,2.9,1.7,5.6,3.1,8.2c1.8,3.7,4.1,7.5,4.3,11.6
					c0.3,6.2-4,11.7-5.1,17.8C263.3,316.3,278.4,288.8,283.1,285.1z"/>
				<path class="st12" d="M299.9,277.7c2.8,10.9,0.9,24.3-3.7,34.2c-3.3,7.1-7.3,13.2-8.8,21.1c-0.1,0.8-0.2,1.6-0.4,2.3
					c-0.9,7.5,0.2,15.1,3,22.1c1.6,4.3,3.1,8.6,4.4,13l-5.3,1.8c-4.6-15.7-11.4-30.6-21.7-43.7c-12.2-15.5-28.1-27.7-46.3-35.4
					c-3.3-1.4-2.7-2,0.8-1.2c13.9,3.5,35.6,17.1,48.2,32.8c4.5,5.5,8.5,11.5,11.8,17.8c-0.1-8.6,2.7-17.5,6.9-25.2
					c6-11,12.5-26.4,10.1-39.5C298.8,275.3,299.3,275.4,299.9,277.7z"/>
				<path class="st25" d="M276,381.5c1.4-2.7,3.1-5.3,5.1-7.6c3.4-4.1,6.2-6.2,10.4-7.5c3.4-1.1,5-1.9,10.3-0.3
					c3.4,1,6.7,2.2,9.9,3.6L276,381.5z"/>
				<path class="st20" d="M323.8,375.3l-55.7,18.5c-2.4,0.8-5-0.5-5.8-2.9l0,0c-0.8-2.4,0.5-5,2.9-5.8l55.7-18.5
					c2.4-0.8,5,0.5,5.8,2.9l0,0C327.5,371.9,326.2,374.5,323.8,375.3z"/>
				<path class="st25" d="M322.6,375.7l6.3,19c5.1,14.7-2.6,30.7-17.3,35.8c-14.7,5.1-30.7-2.6-35.8-17.3c-0.1-0.3-0.2-0.6-0.3-0.9
					l-6.3-19L322.6,375.7z"/>
				
					<linearGradient id="SVGID_14_" gradientUnits="userSpaceOnUse" x1="697.5992" y1="1632.41" x2="645.1091" y2="1607.0901" gradientTransform="matrix(0.9493 -0.3145 0.3145 0.9493 -856.6915 -940.9363)">
					<stop  offset="0" style="stop-color:#C4DCE6"/>
					<stop  offset="1" style="stop-color:#FFFFFF"/>
				</linearGradient>
				<polygon class="st36" points="269.2,393.4 322.6,375.7 323.9,379.4 270.5,397.1 				"/>
				
					<rect x="270.1" y="389.9" transform="matrix(0.9493 -0.3145 0.3145 0.9493 -107.9653 113.6436)" class="st20" width="56.2" height="3"/>
				
					<rect x="270.6" y="397.6" transform="matrix(0.9507 -0.3102 0.3102 0.9507 -109.0667 112.3383)" class="st37" width="56.2" height="3"/>
				
					<rect x="274.1" y="402.1" transform="matrix(0.9493 -0.3145 0.3145 0.9493 -111.6 115.5267)" class="st30" width="56.2" height="3"/>
				<path class="st1" d="M369.6,507.6c0,0,14.2-16,6.7-32.8s-26.2-11.3-35,4.4c2-15-0.5-30.2-7.2-43.7
					c-11.2-22.7-35.8-32.1-52.7-18.6s-9.7,41.2-4.4,47.7c0,0-29.4-17.4-41.3,0s18.5,41.5,18.5,41.5L369.6,507.6z"/>
				<line class="st2" x1="248.1" y1="472.9" x2="274.1" y2="506.2"/>
				<line class="st2" x1="300.8" y1="431.3" x2="319.9" y2="505.4"/>
				<line class="st2" x1="362.7" y1="477.7" x2="357.2" y2="507.4"/>
				<polyline class="st2" points="287.2,444.1 308,459.5 324.9,439.7 				"/>
				<polyline class="st2" points="294.8,476.6 315.3,487.6 330.5,470.3 				"/>
				<polyline class="st2" points="247.5,487.3 260.3,488.1 262.4,474 				"/>
				<polyline class="st2" points="351.9,483.5 360,492.1 370.5,486.5 				"/>
				<ellipse class="st38" cx="1234.8" cy="506.4" rx="109.3" ry="16.7"/>
				<path class="st39" d="M1117.2,263.5c-1.9,0.5-3.8,0.7-5.4,1.8c-0.6,0.4-1.2,1.1-1,1.8s1,0.9,1.7,0.9c1.3,0,2.7-0.2,4-0.5
					c1.9-0.2,3.8-0.1,5.6-0.5c1.9-0.2,3.6-1.3,4.6-3c0.2-0.4,0.3-0.7,0.3-1.1c0-0.9-0.4-1.7-1.1-2.2c-0.7-0.4-1.9,0.3-2.6,0.5
					C1121.3,262.1,1119.3,262.9,1117.2,263.5z"/>
				<path class="st39" d="M1319.1,333c-0.2-0.8-0.3-1.5-0.5-2.3c-0.3-1.6-0.7-3.3-0.9-5s-0.4-3.2-0.6-4.9v-0.6
					c-0.4,0-0.9-0.1-1.3-0.1c-0.2,0-0.4,0-0.6-0.1c0,0.1,0,0.2,0.1,0.2c0.3,1.2,0.6,2.5,0.9,3.8s0.6,2.5,0.8,3.8
					c0.1,0.6,0.3,1.2,0.4,1.8c0.1,0.6,0.2,1.1,0.4,1.6c0.1,0.1,0.1,0.2,0.1,0.4c0.2,0.9-0.4,1.7-1.2,1.9c-0.1,0-0.2,0-0.4,0h-0.1
					c-0.7-0.1-1.4-0.6-1.5-1.3c-0.4-1.2-0.6-2.4-0.8-3.7c-0.2-1.3-0.5-2.6-0.6-4c-0.3-2.3-0.4-4.5-1.6-6.5l-0.2-0.1l0,0
					c-0.2,0.5-0.3,1-0.3,1.5c-0.1,1.4,0.1,2.7,0,4c0,0.6-0.4,1.1-1,1.2h-0.3c-0.3,0.1-0.6,0.1-0.8-0.1c-0.3-0.1-0.6-0.3-0.8-0.6
					c-0.4-0.6-0.5-1.3-0.4-2c0.1-1.2,0.1-2.4,0.2-3.6c-0.2-5.5,0.4-11,1.8-16.3c0.8-2.9,0.3-5.8,3.1-6.9c2-0.8,3.7-0.8,5.2,1
					c0.9,1.2,1.6,2.6,2,4c1.1,2.9,3.3,5.6,4,8.6c0.2,0.6,0.5,1.2,0.7,1.8c0.8,1.9,1.4,3.9,2,5.9s1,4,1.2,6c0.1,1,0.2,2,0.3,3
					c0.2,1.1,0.1,2.2-0.1,3.3c-0.3,0.7-1.1,1.1-1.8,0.9c-0.4-0.2-0.8-0.5-0.9-1c-0.1-1-0.2-2-0.1-3c0-0.9-0.1-1.9-0.2-2.8
					c-0.2-1.8-0.5-3.5-0.9-5.3c-0.3,0.4-0.7,0.8-1.1,1.2c0.1,0.2,0.1,0.4,0.2,0.6c0.4,1.4,0.6,2.8,0.8,4.3c0.2,1.4,0.4,2.9,0.6,4.3
					c0.1,0.7,0.2,1.4,0.2,2.1c0.1,1,0.3,1.8-0.5,2.6c-0.6,0.6-1.6,0.5-2.2-0.1c-0.3-0.3-0.5-0.8-0.4-1.2c0-0.1,0-0.2,0.1-0.3l0,0
					c0-0.2,0-0.4,0-0.5l-0.1-1l-0.2-1.8c-0.2-1.3-0.3-2.5-0.4-3.8s-0.3-2.5-0.3-3.8c-0.5,0.2-1.1,0.3-1.7,0.3c0.3,1.4,0.7,2.8,1,4.2
					s0.6,2.9,0.9,4.4s0.5,2.7,0.8,4c0.1,0.1,0.2,0.3,0.2,0.4c0.1,0.4,0,0.8-0.2,1.2c-0.3,0.5-1,0.7-1.6,0.5
					C1319.4,334.7,1319.3,333.9,1319.1,333z"/>
				<path class="st39" d="M1189.9,494.6c-0.1,0.4-0.3,0.8-0.6,1.1c-0.4,0.3-0.9,0.5-1.4,0.6c-4.5,0.9-9,1.7-13.5,2.2
					c1.8-13.5,0.6-27.2,2.6-40.6c0.4-3.6,1.4-7.1,3.1-10.3c1.8-3.3,5-5.7,8.6-6.6c3.8-0.8,8.1,0.7,9.9,3.9c1.2,2.2,1,4.7,0.8,7.1
					C1197.7,466.5,1194.6,480.8,1189.9,494.6z"/>
				<path class="st40" d="M1191.1,494.4c-2.2,0.4-4.5,0.5-6.7,0.4c-3.4,0-6.8-0.7-9.9-2c-1.1,0.6-2.3,1.8-3.6,2.3l-13,5.2
					c-3.3,1.2-6.4,2.7-9.4,4.6c-0.7,0.4-1.3,1-1.6,1.8c-0.9,3.3,7.9,2.3,9.7,2.3c4.7,0,9.4-0.5,14.2-0.5c4,0,8,0.1,12-0.1
					c2.4-0.1,6.1,0.9,7.9-0.8c1.4-1.4,1.3-4.1,0.9-5.8C1191.1,499.3,1191,496.9,1191.1,494.4z"/>
				<path class="st39" d="M1255.7,496.2c0,0.4,0.1,0.8,0.4,1.1c0.4,0.3,0.8,0.5,1.3,0.5c4.3,0.9,8.6,1.5,13.1,2
					c1.3,0.1,1.9-45.4,1.4-49.3c-0.2-1.9-0.6-3.7-1.2-5.5c-0.3-0.8-0.8-1.5-1.4-2c-0.7-0.5-1.6-0.9-2.5-0.9
					c-2.5-0.2-4.9,0.6-6.8,2.2c-1.8,1.5-3.3,3.4-4.3,5.6c-3.8,7.2-4.9,15.4-3.1,23.3C1254.4,480.7,1254.8,488.4,1255.7,496.2z"/>
				<path class="st20" d="M1274.7,348.9c-0.2-4.8-0.3-9.6-0.5-14.4c-0.7-11.4-2-22.7-4-33.9c-1.4-9-3.9-17.7-7.4-26.1
					c-2.7-6.4-5.7-12.7-9.9-18.2s-9.9-10.1-16.6-11.9c-6.5-1.8-11.6,0-17.3,2.8c-5,2.5-9.9,3.8-12.3,9.6c-1.9,4.7,0.9,2.1-1.4,6.6
					c-6.5,12.9-9.8,33.1-11.7,47.2c-2.3,16.7-4.7,33.5-7.1,50.2c-4.7,31.8-9.7,77.5-15,109.1c3.5,0.8,7.1,1.4,10.7,1.8
					c7,0.7,14,1.4,21,1.9c3.6,0.2,7.5-0.2,11.1,0.5c4,0.7,6.5,1.3,6.6-4.4c0.3-18.1,2.3-36.2,2.3-54.3c0.2-5.5,0.5-24.9,1.2-30.4
					c1.3-9.6,2.8-18.6,3.1-28.4c0.3-8.9,0.9-18.6,3.2-27.2c2.4,22.2,4.6,58.5,6,80.7c0.8,11.4,1.3,22.7,1.7,34.1
					c0.3,9.4,2.2,19.7,1.8,28.9c7.2,1.2,15.8,0.1,23.2-0.4c9.8-0.6,19.6-2.6,29.4-3.6c0.5-0.1-5-41.2-6.2-44.6
					c-1-2.9-2.5-5.7-3.2-8.7c-0.9-3.5-0.8-21.1-0.9-24.7C1282,376.6,1275.4,363.4,1274.7,348.9z"/>
				<path class="st40" d="M1253.4,506.9v0.1c0,0.4,0.2,0.7,0.5,1c0.2,0.1,0.5,0.2,0.8,0.2c10.5,0.4,20.9,0.8,31.5,1.1
					c2.4,0.1,12.4,0.1,13.1-3.1c0.1-0.8-0.3-1.5-0.9-2c-0.7-0.5-1.4-0.8-2.2-1.1c-4.8-1.7-10.2-2.7-14.7-4.8c-1.7-0.8-3.3-1.9-5-2.7
					c-0.9-0.4-4.6-3.1-5.5-3c-5.2,1.1-11.1,1.9-16.4,1C1253,497.8,1252.6,502.4,1253.4,506.9z"/>
				<path d="M1259.4,175.8c-0.3-1.6-1-3.1-2-4.4l-3.2-4.6c-1.9-2.9-4.1-5.6-6.7-7.9c-2.7-2.2-6.1-3.7-9.5-3.4
					c-3,0.3-5.7,2.1-8.3,3.7c-0.7-0.5-1.5-0.9-2.3-1.1c-3.2-1.2-6.6-1.3-9.8-0.1l-0.8,0.3c-1.9,0.6-3.6,1.7-5,3.1
					c-0.7,0.7-1.3,1.6-1.8,2.5c-1.4,3.9-1.7,8.8,0.5,12.1c1.4,2,3.8,3.1,5.9,4.4c1.4,0.9,3,1.3,4.3,2.3c1.1,1,2.3,1.8,3.6,2.6
					c2.2,0.8,4.7,0.8,6.9-0.1c0.8-0.5,1.6-1.2,2.1-2c2-2.8,3-6.2,2.9-9.6c0.6-4.5-0.9-9-4-12.2c1.7-0.4,3.5-0.2,5,0.6
					c2.5,1.4,3.9,4.1,5.1,6.8c2.4,5.2,4.8,10.4,7.3,15.6c0.1,0.3,0.3,0.5,0.5,0.7c0.5,0.2,1,0.1,1.4-0.1c1.2-0.6,2.4-1.3,3.6-2
					C1257.3,181.1,1259.6,178.7,1259.4,175.8z"/>
				<path class="st41" d="M1219.4,194c0,0.1,0,0.3,0,0.4c-0.1,0-0.2,0-0.3-0.1L1219.4,194z"/>
				<path class="st42" d="M1263.4,269.8c-18.4,2.4-59.2,1.4-65.4,0.3c1.1,0.2,0.9-28.6,0.6-31.9c-0.8-10.3-1.9-20.9,1.2-30.9
					c1.8-5.9,5.3-10.8,11.4-12.3c7.6-1.8,15.7-3.6,23.6-3.3c14,0.6,16.7,12.8,19.6,24C1257.9,229.3,1262.8,265.6,1263.4,269.8z"/>
				<path class="st39" d="M1217.7,190.6c0-0.4,0-0.9-0.1-1.3c0-0.7-0.3-1.4-0.7-1.9c-0.6-0.5-1.3-0.9-2-1.1
					c-2.4-1.1-3.2-3.5-3.9-5.8c-0.8-2.6-1-5.2-0.7-7.9c0.3-2.9,0.1-7.3,2.3-9.4c1.8-1.8,5.7-1.2,8.3-0.5c1.4,0.4,2.8,1.1,3.8,2.2
					c1.3,1.1,3.1,3,3.6,4.6c0.3,1.2,0.7,2.4,0.9,3.6c0.8,3.1,0.2,6.3,0.6,9.4c0.4,2.9,1,5.7,2,8.5c0.2,0.5,0.6,0.9,1.1,1.1l-2.4,4.8
					c-1.2,2.4-2.8,5.3-5.2,6.5s-4.8,0-6.1-2.1C1217.4,198.1,1217.9,194.2,1217.7,190.6z"/>
				<path d="M1213.1,160.3c1.6-1.5,3.8-2.2,5.9-1.9c2.7,0.5,4.5,2.1,6.9,3.5c0.9,0.5,2.8,1,3.3,1.9s1.6,0.4,2.3,1.2
					c1.3,1.5,2.7,2.8,2.6,5c-0.1,1.1-0.4,2.1-1.1,2.9c-0.8,1.2-2,2-3.4,2.5c-0.9,0.2-1.1-0.4-1.6-1c-1.3-1.4-2.3-3-2.9-4.8
					c-0.1-0.4-0.3-0.8-0.5-1.2c-0.1-0.1-0.2-0.3-0.4-0.3s-0.3,0.2-0.4,0.3c-0.6,0.6-2.2,0.3-3,0.3l-3.7-0.1c-0.6,0-7.2-0.1-7.2-0.2
					c-0.3-2.6,0.4-5.2,2.1-7.2C1212.4,160.9,1212.7,160.6,1213.1,160.3z"/>
				<path class="st39" d="M1231.3,176.1c-0.5,0.9-1.4,1.6-2.4,1.8c-2.8,0.7-5.1-2.3-4.2-4.9c0.4-1.2,1.4-2,2.6-2.2
					c2.5-0.3,5,1.8,4.4,4.4C1231.6,175.5,1231.5,175.8,1231.3,176.1z"/>
				<path class="st16" d="M1212.3,178.3l6.9,0.8C1218.9,180.6,1214.1,183.9,1212.3,178.3z"/>
				<path class="st43" d="M1216.1,186.5c1.4,0.1,2.8-0.1,4.1-0.4c-0.4,0.7-0.7,1.4-1.1,2.1c-0.6,0.8-1,1.7-1.4,2.6
					c-0.1-0.6,0-1.4-0.2-2c-0.2-1.2-1.1-2.2-2.3-2.4h-0.1C1215.4,186.4,1215.8,186.5,1216.1,186.5z"/>
				<path class="st44" d="M1233.8,161.2c-1.2-1.1-2.5-2.1-3.8-3.1c-0.2-0.1-0.6-0.1-0.7,0.1c-0.2,0.2-0.2,0.5,0,0.8
					c1.1,1.2,2.2,2.3,3.4,3.3c0.3,0.3,0.8,0.3,1.1,0S1234.1,161.5,1233.8,161.2z"/>
				<path class="st30" d="M1081.4,323.9c1.4,0.6,3-0.1,3.6-1.5c0-0.1,0.1-0.2,0.1-0.3c0.9-3,4.2-4.7,7.1-5.5c3.8-1,7.7-0.5,11.6-0.7
					c3.9,0,7.8-0.9,11.3-2.5c2.2-1.1,4.1-2.7,5.5-4.8c4.2,1.7,7.2,2.9,7.3,2.9c0.6,0,9.2-26,9.2-26l-2.3-0.7c0-0.3,0.1-0.7,0.1-1
					c0.3-2.3,0.3-4.6,0-6.9c-1.2-7.9-9.2-11.9-16.6-11.8c-6.9,0.1-11.8,3-14.7,10.3c-1.1-0.3-2.2-0.6-3.3-0.9l-8.7,22.2
					c0,0,11.4,4.7,21.5,8.8c-3.4,4-10.5,3.5-15.4,4.8h-0.1h-0.1c-3.8,0.3-7.4,0.8-10.8,2.6c-3,1.5-5.3,4-6.6,7
					c-0.7,1.3-0.3,3,1.1,3.8C1081.2,323.8,1081.3,323.9,1081.4,323.9z M1108,276.8l0.2-0.6c2.3-8,11.8-6.7,18.3-3.8
					c0.7,0.3,1.4,0.7,2,1.3c0.5,0.7,0.9,1.4,1.2,2.2c0.7,2.4,0.9,5,0.3,7.5C1123.6,281.5,1114.4,278.7,1108,276.8z"/>
				<path class="st39" d="M1136.9,257.3c-3,0.8-5.9,1.7-8.9,2.5c-2.6,0.6-5.1,1.7-7.3,3.2c-0.1,0.1-0.1,0.1-0.2,0.1
					s-0.2-0.1-0.3-0.1c-0.4-0.2-0.8,0.1-1.1,0.4c-0.7,0.7-1.4,1.4-2,2.2c-0.6,0.7-1.1,1.5-1.4,2.3c-0.3,0.9-0.5,2.3,0.2,3
					s1.7,0.3,2.4,0c-0.2,0.7,0.3,1.5,1,1.7s1.5,0.1,2.2-0.4c0,1,0.6,1.8,1.4,2.2c0.9,0.3,1.9,0.2,2.8-0.2c-0.4,1.2,0.2,2.5,1.4,2.9
					c0.3,0.1,0.7,0.1,1,0.1c2.5-0.2,4.9-2.8,6.8-4.3c2.5-2.1,5.5-3.6,8.7-4.4c3.6-1.1,7.1-2.4,10.6-3.9c0.8-0.3,1.6-0.7,2.4-1.2
					c2.2-1.9,2.9-5,1.6-7.6c-0.3-0.7-0.7-1.3-1.2-1.7s-1.1-0.7-1.8-0.9c-2.4-0.7-4.9,0.1-7.2,0.8
					C1144.3,255.1,1140.6,256.3,1136.9,257.3z"/>
				<path class="st42" d="M1204.2,244c3.4-10.7,3.2-22.3,6.8-33c1.1-2.7,1.8-5.5,2.3-8.4c0.1-1.2,0-2.5-0.2-3.7
					c0-1.4,0.3-2.8,1.1-3.9c-0.7-0.1-1.4-0.2-2.1-0.1c-1.7,0.3-7,1.8-9.4,3.4c-2.7,1.6-5.2,3.5-7.4,5.6c-3.8,3.7-4.3,9.3-5.9,14.2
					c-3.3,10,1.3,18.5-8.3,23.7c-9.2,5.1-27.6,9.1-37.9,10.9c2.2,7.1,2.7,15.3,4.9,22.3c9.6-2.1,21.3-3.6,30.5-7.1
					c8.7-3.3,21.7-6.7,25.3-15.8C1204.2,251.1,1203.9,245,1204.2,244z"/>
				<path class="st30" d="M1090.4,288.5c0-2.8,0.9-5.6,2.6-7.9c1.5-1.7,3.3-3.2,5.3-4.3c0.4-0.3,1-0.5,1.5-0.5
					c0.4,0.1,0.7,0.3,1,0.6c1.6,1.7,1.4,4.4,0.8,6.7c-0.9,3.6-2.7,10.9-6,13.2C1091,299.2,1090.3,291.1,1090.4,288.5z"/>
				<path d="M1091.8,282.4c-0.5-0.4-1.1-0.5-1.6-0.1c-0.5,0.3-0.7,0.9-0.6,1.5c0.1,0.3,0.2,0.6,0.5,0.8c0.1,0.1,0.2,0.1,0.3,0.1
					c0,0,0,0,0.1,0.1s0.3,0.1,0.5,0.1c0.5-0.2,0.9-0.5,1.1-0.9C1092.3,283.5,1092.2,282.8,1091.8,282.4z"/>
				<path class="st42" d="M1326.5,298.3c-14-50.2-30.5-76.7-47.2-89.7c-13.3-10.4-29.1-16.2-45-16.6l7.6,39.4
					c3.4,1.9,6.8-1.8,10.5-0.9c11.2,2.7,18.1,10.5,25.1,20.9c10.1,15.2,16.9,31.2,24.7,56.2C1303.5,306.4,1321.3,305.2,1326.5,298.3
					z"/>
				<line class="st45" x1="1229.4" y1="303.1" x2="1230.6" y2="329.5"/>
				<path class="st45" d="M1246.7,370.8c6.1,3.7,16.7,3,16.7,3"/>
				<path class="st45" d="M1194.2,373.8c6.7,1.8,13.4-1.5,13.4-1.5"/>
				<path class="st46" d="M1201.2,211.2c-3.3,16-1.9,44.5-1.9,44.5"/>
				<path class="st46" d="M1257.7,232.3c-5.4-1.8-12.4-6.6-12.4-6.6"/>
				<path class="st46" d="M1298.7,241c0.2,3.1-0.5,6.1-2.1,8.8"/>
				<path class="st47" d="M1120.4,263.5c4.3-1.9,6.1,0.5,6.1,0.5s2.3-1,3.4,0.2s0.2,3,0,3.4c0,0,0,0.1,0,0c0.4-0.2,2.1-1,3.1,0
					s-0.2,3-0.5,3.5 M1132.5,271.2c0.5-0.3,2.1-1.3,2.6,0.5c0.7,2.2-3.9,3.2-3.9,3.2"/>
				<path class="st47" d="M1229.9,173c-3-0.5-2.8,1.4-2.8,1.4"/>
				<path class="st46" d="M1214.2,194.9c2.5,17.8,17.4,17.3,22.9-2.7"/>
				<line class="st48" x1="1099.8" y1="275.7" x2="1092.2" y2="295.3"/>
				<path class="st49" d="M1076.5,325c0,0-27.6,14.3-32.8,40.2l25.4,8.1c0,0,3.6-32.9,12.6-44.9
					C1080.6,326.5,1078.6,325.3,1076.5,325z"/>
				<path class="st16" d="M1074.9,329.1l-0.2-0.3l0.7-0.5l0.2,0.3L1074.9,329.1z"/>
				<path class="st16" d="M1058,347.5l-0.3-0.2c0.1-0.1,0.1-0.2,0.2-0.3l0.3,0.2L1058,347.5z M1059,345.8l-0.3-0.2
					c0.3-0.5,0.6-0.9,0.9-1.4l0.3,0.2C1059.6,344.9,1059.3,345.3,1059,345.8z M1060.9,343.1l-0.3-0.2l1-1.3l0.3,0.2
					C1061.5,342.2,1061.2,342.6,1060.9,343.1L1060.9,343.1z M1062.9,340.5l-0.3-0.3c0.3-0.4,0.7-0.9,1.1-1.3l0.3,0.3
					C1063.6,339.6,1063.3,340,1062.9,340.5L1062.9,340.5z M1065,338l-0.3-0.3c0.4-0.4,0.8-0.8,1.1-1.2l0.3,0.3
					C1065.8,337.2,1065.4,337.6,1065,338L1065,338z M1067.3,335.6l-0.3-0.3c0.4-0.4,0.8-0.8,1.2-1.1l0.3,0.3
					C1068.2,334.8,1067.8,335.2,1067.3,335.6L1067.3,335.6z M1069.7,333.3l-0.3-0.3l1.2-1.1l0.3,0.3L1069.7,333.3z M1072.2,331.2
					l-0.2-0.3c0.5-0.4,0.9-0.7,1.3-1l0.2,0.3L1072.2,331.2z"/>
				<path class="st16" d="M1057.1,349l-0.3-0.2l0.4-0.7l0.3,0.2C1057.4,348.5,1057.3,348.7,1057.1,349z"/>
				<path class="st16" d="M1077.3,330.9l-0.3-0.2l0.4-0.7l0.3,0.2C1077.7,330.2,1077.6,330.4,1077.3,330.9z"/>
				<path class="st16" d="M1069.4,349.1c0.2-0.5,0.3-1.1,0.5-1.6l0.4,0.1c-0.2,0.5-0.3,1-0.5,1.6L1069.4,349.1z M1070.7,346.1
					l-0.4-0.1l0.5-1.6l0.4,0.1C1071.1,345,1070.9,345.5,1070.7,346.1L1070.7,346.1z M1071.8,343l-0.4-0.1c0.2-0.5,0.4-1,0.6-1.5
					l0.4,0.1C1072.2,341.9,1072,342.5,1071.8,343L1071.8,343z M1073.1,339.9l-0.4-0.2l0.7-1.5l0.4,0.2
					C1073.5,338.9,1073.3,339.4,1073.1,339.9L1073.1,339.9z M1074.4,336.9l-0.4-0.2l0.7-1.5l0.4,0.2L1074.4,336.9z M1075.8,333.9
					l-0.4-0.2c0.3-0.5,0.5-1,0.8-1.5l0.3,0.2C1076.3,332.9,1076.1,333.4,1075.8,333.9L1075.8,333.9z"/>
				<path class="st16" d="M1068.5,352.6l0.2-0.8l0.4,0.1c-0.1,0.3-0.1,0.5-0.2,0.8L1068.5,352.6z"/>
				<path class="st16" d="M1060.8,355.9c0.1-0.3,0.1-0.5,0.2-0.8l0.4,0.1c-0.1,0.3-0.1,0.5-0.2,0.8L1060.8,355.9z M1061.4,353.6
					c0.1-0.2,0.1-0.4,0.2-0.6s0.2-0.6,0.3-0.9l0.4,0.1c-0.1,0.3-0.2,0.6-0.3,0.9c-0.1,0.2-0.1,0.4-0.2,0.6L1061.4,353.6z
					 M1062.8,350.8l-0.4-0.1c0.2-0.5,0.4-1,0.6-1.5l0.4,0.2C1063.2,349.8,1063,350.3,1062.8,350.8L1062.8,350.8z M1064,347.8
					l-0.4-0.2c0.2-0.5,0.4-1,0.7-1.4l0.3,0.2C1064.5,346.9,1064.2,347.4,1064,347.8L1064,347.8z M1065.4,345l-0.3-0.2
					c0.2-0.5,0.5-1,0.8-1.4l0.3,0.2C1065.9,344.1,1065.7,344.5,1065.4,345z M1067,342.2l-0.3-0.2c0.3-0.5,0.6-0.9,0.8-1.4l0.3,0.2
					C1067.5,341.3,1067.2,341.8,1067,342.2L1067,342.2z M1068.6,339.6l-0.3-0.2c0.3-0.5,0.6-0.9,0.9-1.3l0.3,0.2
					C1069.2,338.7,1068.9,339.1,1068.6,339.6L1068.6,339.6z M1070.4,337l-0.3-0.2c0.3-0.4,0.6-0.9,1-1.3l0.3,0.2
					C1071.1,336.1,1070.8,336.5,1070.4,337L1070.4,337z M1072.4,334.5l-0.3-0.2c0.4-0.5,0.7-0.9,1-1.2l0.3,0.2
					C1073.1,333.6,1072.7,334,1072.4,334.5L1072.4,334.5z M1074.4,332.1l-0.3-0.3c0.7-0.7,1.1-1.1,1.1-1.1l0.3,0.3
					C1075.5,330.9,1075.1,331.3,1074.4,332.1L1074.4,332.1z"/>
				<ellipse class="st38" cx="377.2" cy="539.6" rx="120.4" ry="18.4"/>
				<path d="M385.8,166.7c-4.2-5.5-11-6.5-16.8-3.9c0-0.1,0-0.2,0-0.2c0.3-1.6,0.2-3.2-0.4-4.8c-1.2-3-4.1-5-7.4-4.9
					c-1,0-1.9,0.3-2.8,0.6c0.5-1.3,0.6-2.8,0.3-4.2c-0.7-2.6-2.2-5.4-5-5.9c-2.5-0.4-5.1,0.7-6.5,2.8c-1.4,2.4-1.5,5.4-0.3,7.9
					c0.6,1.3,1.7,2.4,3,2.9c1.4,0.4,2.9,0.2,4.2-0.5c0,0.1-0.1,0.2-0.1,0.3c-2.4,3.1-3.2,7.3-0.5,10.5c1.3,1.4,3,2.2,4.9,2.4
					c0.4,0,0.7,0.1,1.1,0.1c-0.7,2.2-0.9,4.5-0.6,6.7c0.4,3.6,1.5,7.2,4.2,9.7c1.1,1,2.4,1.8,3.8,2.3c1,0.7,2.1,1.4,3.2,2
					c2.3,1.4,4.3,2,6.1,0c1.7-1.8,3.6-3.6,5.6-5.1c2-1.8,4.2-3.5,5.5-5.8C389.9,175.7,388.7,170.5,385.8,166.7z"/>
				<path class="st39" d="M388.5,452.2c1.8,22.8,3.1,47.1,6.5,68.2c1.2,7.4,3.9,13.5,11.4,13.8c4.2-27.6,8.5-54.8,11.6-82.1
					L388.5,452.2z"/>
				<path class="st39" d="M309.8,442.1c-2.2,10.9-4.4,21.8-6.3,32.7c-2,11.3-2.6,25.5-4.4,36.8c-0.6,3.6-0.8,4.9,4.2,6.1
					c4.6,1.1,6,1.3,7.7-1.8c11.9-22.2,20-48.7,28.3-72.3c0.2-0.5,0.3-1,0.5-1.4L309.8,442.1z"/>
				<path class="st42" d="M426.1,344.5c-1.1-15.2-3.8-30.1-6.9-45.5c-1.3-7.2-3.2-14.4-5.6-21.3c-2-5.4-4.8-10.8-9.2-14.5
					c-3.7-3-8.9-5-14.4-5.8c-7.8-1.2-16.2-0.2-22,2.7c-6.6,3.4-11.8,9-16.2,15.1c-20.3,28.5-23.7,65.9-33.6,98.4
					c-11.3,37.2-19.4,75.3-24.1,113.9c-0.5,3.9,29.2,10.8,32.7,11.5c4.4,0.8,12,3.2,16.1,3c5.1-0.3,5.2-1.8,7-7.6
					c7.2-23.5,7.2-48.5,11.6-72.5c2.8-14.9,7.5-29.3,10.3-44.1c1.8-9.2,3.5-18.4,5.1-27.7c1.2-6.6,1.9-13.3,3.2-19.8
					c0.2-1,0.6-6.1,2-4.3c0.5,0.7,0.3,2.6,0.2,3.5c-0.1,2.2-0.4,4.4-0.6,6.6c-0.4,3.5-0.4,7-0.6,10.5c-0.5,7.9-1.1,15.7-1.7,23.5
					c-0.8,9.9-2.4,19.9-2.7,29.8l-3.3,97.3l32.6,2.1c1.9,0.1,22.1,0.3,22.2-1.6c1.4-23.6,2.9-47.3,2-70.9
					c-0.8-21.8-3.6-43.5-3.6-65.4C426.7,355.7,426.5,350.1,426.1,344.5z"/>
				<path class="st50" d="M332,398.4c8.4,3,23.5-2.9,23.5-2.9"/>
				<path class="st50" d="M394.4,404.3c8.4,2.9,23.5-3,23.5-3"/>
				<path class="st39" d="M434.6,242.3c4.2,11.2,7,23.1,12.6,33.8c2.5,4.8,5.3,9,9.4,12.5c3.7,3.1,8.5,4.9,12,8.2
					c6.3,5.9,13.8,22.2,1.3,25c-2.8,0.5-5.7,0.5-8.5,0c-19.4-3-31.5-26.3-40.4-41.9c-7.7-13.9-14.2-28.5-19.2-43.6
					c-1.7-4.8-3.2-9.9-2.4-15s4.4-10,9.5-10.7C422,208.8,431.1,233,434.6,242.3z"/>
				<path class="st41" d="M381,200.4c0,0.2,0,0.3,0,0.5c0.1,0,0.2-0.1,0.3-0.1L381,200.4z"/>
				<path class="st15" d="M456.8,116.2c-0.3-0.7-1.1-1-1.8-0.7h-0.1c-2.5,1.5-4.8,3.3-7,5.3c-2.2,1.9-4,4.1-5.3,6.7
					c-1.1,2.4-1.6,5-1.6,7.7c-0.1,2.9,0.3,5.8,1,8.6c0,0.2,0.1,0.3,0.3,0.4c0,1,0.7,1.9,1.8,1.6c5.6-1.7,10.1-5.8,12.4-11.2
					C459,128.7,459.1,122.1,456.8,116.2z"/>
				<path d="M446.4,139.6c-2.5,4.3-5.1,8.6-7.5,13.1c-1.9,3.5-3.7,7.1-5.3,10.8c-0.9-3.8-1.7-7.5-2.6-11.2c0-0.1,0-0.3-0.1-0.4
					l-0.6-2.5c-1.3-5.3-2.7-10.5-4-15.8c0-0.3-0.3-0.6-0.6-0.5c-0.3,0-0.6,0.3-0.5,0.6c0,0.1,0,0.1,0,0.2c1.1,5.2,2.1,10.4,3.2,15.6
					l-1.8-1.4c-1.5-1.2-3-2.4-4.5-3.5s-3-2.2-4.4-3.3l-2.3-1.7c-0.7-0.5-1.5-1.3-2.4-1.4c-0.4,0-0.7,0.4-0.7,0.8
					c0,0.1,0,0.2,0.1,0.4c0.5,0.7,1.2,1.3,2,1.7l2.2,1.6c1.5,1.1,3.1,2.2,4.6,3.4s2.9,2.2,4.4,3.4c1.1,0.9,2.2,1.8,3.3,2.6
					c0.7,3.3,1.4,6.6,2.1,9.9c2.1,9.3,4.2,18.6,6.3,27.9l12.7,55.8l3.5,15.4c2.2,9.6,2.7,19.7,6.4,29c0.2,0.6,0.5,1.2,1,1.6
					c0.4,0.4,1,0.3,1.4-0.1l0.1-0.1c0.2-0.3,0.2-0.7,0.1-1c-2.5-9.4-4.2-19-6.2-28.1c-1.1-4.7-2.1-9.3-3.2-13.9l-6.4-27.9
					c-4.1-18-8.2-36-12.3-53.9c1-2.1,1.9-4.2,2.9-6.3c1.1-2.3,2.1-4.5,3.2-6.8c2.2-4.5,4.4-9,6.8-13.3
					C447.5,139.6,446.7,139,446.4,139.6z"/>
				<path class="st15" d="M421.5,122.2c-0.8-4.6-3.3-8.7-7-11.5c-0.5-0.3-1.1-0.2-1.4,0.3c-3.1,4-4.5,9-4.1,14
					c0.2,2.3,1,4.5,2.2,6.4c1.1,1.8,2.8,3.9,4.8,4.5c0.1,0,0.3,0,0.4-0.1c0.5,0.5,1.3,0.4,1.8-0.1l0.1-0.1
					C421,131.8,422.2,127,421.5,122.2z"/>
				<path class="st15" d="M440.4,140.8c-0.6-1.9-1.7-3.7-3.3-5c-0.5-0.5-1.5-1.4-2.2-1.3c-1.1,0.1-0.8,1.5-0.8,2.2
					c-0.1,2.2,0.3,4.4,1.2,6.4c1,1.7,2.1,3.2,3.5,4.6c2.5,2.9,2.4-2.2,2.3-3.7C440.9,143,440.7,141.9,440.4,140.8z"/>
				<path class="st15" d="M468.6,148.1c-5.4-1.9-11.2-2.1-16.6-0.5c-4.4,1.4-9.3,5.1-10.5,9.9l0,0l0,0c0,0.2-0.1,0.3-0.1,0.5
					c-0.3,1.5,1.5,2.6,2.7,2.1c0.7,0.2,1.4,0.3,1.9,0.4c2.8,0.7,5.6,0.9,8.4,0.4c5.9-1.2,10.5-5.5,14.8-9.4c0.8-0.7,0.9-2,0.2-2.8
					C469.2,148.4,468.9,148.2,468.6,148.1z"/>
				<path d="M440.7,147.9c-0.3-1.1-0.6-2.1-1-3.1s-0.7-2.1-1.1-3.1c-0.3-1-0.7-2-1.2-3c-0.1-0.1-0.2-0.1-0.3-0.1
					c-0.1,0-0.1,0.1-0.1,0.2c0.2,1,0.5,2,0.9,3c0.3,1,0.6,2,0.9,3c0.7,1.9,1.3,3.8,1.6,5.8c0,0.1,0.1,0.2,0.3,0.2
					c0.1,0,0.2-0.1,0.2-0.2C441.1,149.7,441,148.8,440.7,147.9z"/>
				<path d="M460.6,150.6c-2.2,0.9-4.4,1.7-6.7,2.4c-2.2,0.6-4.4,1.3-6.5,2.1c-4.3,1.9-7.9,5-12.1,7c-0.2,0.1-0.2,0.4-0.1,0.6
					c0.1,0.1,0.3,0.2,0.5,0.2c2.2-0.8,4.3-1.8,6.3-3c2-1.3,4-2.4,6.1-3.4c2.2-0.8,4.4-1.5,6.6-2.1c2.3-0.5,4.5-1.3,6.5-2.3
					c0.4-0.2,0.6-0.6,0.4-1C461.5,150.6,461,150.5,460.6,150.6z"/>
				<path d="M415.3,124.8c0-0.4-0.7-0.3-0.6,0.1c0.3,3,0.7,5.9,1.1,8.8c0.5,2.9,1.2,5.8,2,8.7c0.2,0.7,1.3,0.5,1.1-0.3
					C417.3,136.5,416.1,130.6,415.3,124.8z"/>
				<path class="st51" d="M346,275.5c3.3,0.5,6.6,1,9.9,1.3c7.3,0.6,14.5,0.6,21.9,0.7c5.1,0,10.2,0.3,15.3,0.3
					c8.1,0,13,1.4,20.3-2.3c2.6-1.3-3.2-28.8-3.3-30.6c-0.1-1.2,2.9-1.8,4-2.3c6.2-2.8,12.6-5.3,19.1-7.3
					c-2.5-5.6-5.1-11.1-7.6-16.7c-2.8-6.1-5.3-12.6-12-14.5c-7.5-2.2-15.2-3.5-23-4c-8.4-0.4-18.2-0.9-26.4,0.8
					c-15.6,3.4-16,16.9-16.5,29.9c-0.2,4.7-0.3,9.3-0.5,14c-0.2,6.6-0.4,13.2-0.5,19.8C346.6,265.4,346.7,272.3,346,275.5z"/>
				<line class="st52" x1="408.3" y1="237.6" x2="410.1" y2="244.9"/>
				<path class="st39" d="M382.3,196.5c-0.1-0.5-0.1-1-0.1-1.5c-0.1-0.7,0-1.5,0.4-2.2c0.5-0.6,1.2-1.1,1.9-1.5
					c2.3-1.6,2.8-4.4,3.1-6.9c0.3-2.9,0.1-5.8-0.8-8.6c-0.9-3-1.5-7.8-4.2-9.7c-2.3-1.5-6.4-0.2-9,1c-1.5,0.7-2.7,1.7-3.7,3
					c-1.1,1.5-2.8,3.8-3,5.6c-0.1,1.3-0.3,2.7-0.4,4c-0.5,6.7,0.1,13.4,0.5,20.1c0.2,3.2,4.1,7.3,7,8.4c2.1,0.8,4.4,0.6,6.4-0.4
					C384.8,205.4,382.7,200.4,382.3,196.5z"/>
				<path d="M381.5,162.6c-0.4-0.3-0.8-0.5-1.2-0.6c-0.8-0.3-1.6-0.4-2.4-0.5c-2.5-0.2-3.7,0.3-5.7,1.5s-4.3,1.3-6.1,2.8
					c-1,0.8-1.7,1.8-2.1,2.9c-0.3,1.1-0.7,2.1-1.2,3.1c-1.1,1.9-2.3,3.5-1.8,5.9c0.3,1.1,0.9,2.1,1.8,2.9c1.1,1.1,2.5,1.8,4.1,2
					c1,0,1.1-0.6,1.5-1.3c0.4-0.8,1.2-1.3,2-1.5s1.7-0.4,2.1-1.1c0.2-0.4,0.2-0.9,0.2-1.3c0-1.1-0.4-2.6,0.4-3.6
					c0.8-0.8,1.8-1.3,2.9-1.4c3.2-0.7,13.1,0.2,9.5-6c-0.6-1-1.4-1.9-2.3-2.6C382.5,163.3,382,162.9,381.5,162.6z"/>
				<path class="st39" d="M372,181.9c-0.2-0.8-0.5-1.5-1-2.1s-1.2-1-2-1.2c-0.7-0.1-1.3,0.1-1.9,0.4c-2.1,0.9-3.1,3.3-2.3,5.4
					c0.1,0.1,0.1,0.3,0.2,0.4c0.5,0.8,1.4,1.4,2.3,1.6c0.7,0.1,1.5,0.1,2.2,0"/>
				<path class="st16" d="M385.3,182.1l-7.3,2.2C378.7,185.9,384.4,188.5,385.3,182.1z"/>
				<path class="st43" d="M383.3,191.6c-1.5,0.3-3,0.4-4.5,0.3c0.6,0.7,1,1.4,1.6,2.1c0.7,0.6,1.3,1.4,1.9,2.2c0-0.6-0.1-1.2,0-1.9
					c0-0.5,0.1-1.1,0.3-1.6c0.4-0.6,1-1.2,1.7-1.4h0.1C384,191.4,383.6,191.5,383.3,191.6z"/>
				<path class="st39" d="M443.2,182.9c0.1-0.1,0.2-0.3,0.3-0.4c0.3-0.5,0.4-1,0.5-1.5c0-0.3-0.1-0.7-0.2-1
					c-0.2-0.4-0.4-0.8-0.6-1.2c0.1-0.5,0.1-1.1,0.1-1.6c0-0.4,0-0.7-0.2-1.1c-0.1-0.1-0.2-0.2-0.2-0.3s-0.1-0.1-0.1-0.2
					c-0.4-0.6-1.3-0.8-1.7-1.4s0-1.6-0.9-2c-0.4-0.2-0.9-0.2-1.4-0.2c-1.4,0-2.7-0.5-4.1-0.5c-0.7,0-1.4,0.1-2.1,0.3
					c-6.3,1.7-10.6,6.9-14.5,11.9c-3.5,4.5-6.4,9.5-9.4,14.3c-3.3,5.3-6.5,11.3-11.1,15.7c-3.2,3.1-7.4,5.4-12,5.5
					c-3.9,0.1-7.7-1.4-11.2-2.9c-7.2-3-12.7-5.5-19.2,1c-2.5,2.6-4,6.1-4,9.7c-0.1,4.7,1.9,9.2,5.4,12.2c3.9,3.2,9.2,4.2,14.2,4.9
					c10.5,1.5,21.9,2.3,31.3-2.8c4.8-2.6,8.8-6.7,12.1-11c2.4-3.3,4.8-7.2,5.5-8.4c1.7-3,3.2-6.1,4.3-9.4c1.2-3.8,2.7-7.5,4.2-11.2
					c0.8-1.9,1.6-3.8,2.4-5.7c0.5-1.4,1-2.8,1.6-4.2c0.1-0.2,0.2-0.4,0.4-0.5c0.2-0.2,0.4-0.3,0.7-0.4c1.2-0.4,2.6-0.1,3.8-0.4
					c1-0.3,2-0.8,2.9-1.4c1.2-0.6,2.3-1.4,3.3-2.3C444,185.3,444.6,183.6,443.2,182.9z"/>
				<path class="st51" d="M362.1,201.4c-16.7,3.2-26,15.2-22.6,29.4c2.1,8.8,8.9,12.9,16.8,17.5c0.7,0.4,10.5-14.6,11.6-16.4
					c0.7-1.1,10.4-17.9,10.4-17.9s-2.8-0.9-4.2-1.6c-3.6-1.6-6.2-4.1-9.4-6.4"/>
				<path class="st52" d="M347.4,243.8c3,2.2,6.2,4,9.7,5.4l3.8-5.9"/>
				<line class="st52" x1="368.3" y1="210.4" x2="376.8" y2="216.8"/>
				<path d="M336.7,536.9l-0.2-0.2c-4.2-4.5-10.2-6.4-15-10.2c-3.6-2.8-6.7-6.3-8.1-10.5c-0.1-0.5-0.3-1-0.7-1.5
					c-0.1-0.1-0.3-0.3-0.5-0.4c-2.7,0.6-5.5,0.2-7.8-1.3c-2.1-1.1-4.1-3-6.4-3.7c-0.6,1.2-0.2,2.2-0.5,3.4c-0.5,1.5-1.3,2.9-2.2,4.2
					c-1.9,3.3-3.7,6.7-5.4,10c-0.5,0.5-0.5,1.2,0,1.7c0.2,0.2,0.4,0.3,0.7,0.3c8.6,3.6,17.2,7.2,26.1,10c4.5,1.5,9.1,2.7,13.7,3.6
					c2.7,0.5,10,1.2,7.3-4.3C337.5,537.8,337.1,537.3,336.7,536.9z"/>
				<path d="M439,532.8l-0.2-0.1c-5.4-2.8-11.8-2.7-17.6-4.7c-4.3-1.5-8.4-3.7-11.1-7.2c-0.3-0.4-0.7-0.8-1.1-1.1
					c-0.2-0.1-0.4-0.2-0.6-0.2c-2.3,1.5-5.1,2-7.8,1.4c-2.4-0.4-4.9-1.5-7.3-1.3c-0.1,1.3,0.6,2.2,0.7,3.4c0,1.6-0.2,3.1-0.7,4.7
					c-0.7,3.8-1.3,7.5-1.8,11.3c-0.1,0.5,0,1,0.2,1.4c0.3,0.2,0.7,0.4,1.1,0.3c9.3,0.5,18.6,1,28,0.8c4.7-0.1,9.4-0.5,14.1-1.1
					c2.7-0.4,9.8-2.2,5.4-6.4C440,533.4,439.5,533.1,439,532.8z"/>
				<path class="st30" d="M462.3,265.9h0.1c0.4-0.2,0.8-0.2,1.2,0c0.3,0.2,0.5,0.6,0.5,0.9c0.2,1.2,0.2,2.4-0.2,3.5
					c-0.1,0.7-0.3,1.4-0.5,2c-0.7,2.4,5,5.4,6.7,6.5c3,1.9,6.1,3.6,8.9,5.8c0.8,0.6,1.5,1.3,2.1,2c0.4,0.6,0.7,1.3,1.2,1.9
					c0.5,0.5,0.9,1,1.3,1.5c0.4,0.7,0.6,1.6,0.6,2.4c0.5,3.7,1,7.5-0.1,11c-0.4,1.3-0.9,2.5-1.5,3.8c-0.3,0.7-0.7,1.4-1.1,2
					c-0.5,0.5-1.1,1-1.7,1.4c-3.5,2.3-7.2,4.8-11.3,5.7c-2.2,0.5-4.4,0.7-6.7,0.5c-1.8-0.1-4.4-0.2-6-1c-1.8-0.9-3.6-1.6-5.5-2.1
					c-0.6-0.1-1.3-0.3-1.9-0.5c-2-0.8-3.6-2.3-4.5-4.2c-0.9-1.9-1.4-4-1.3-6.1c0-4.5,1.6-8.8,3.7-12.7s4.6-7.6,6.8-11.5
					c1-1.8-3.6-5.1-4.2-6.9c-0.4-1-0.3-2.2,0.4-3.1c1.1-1,2.7-0.9,3.7,0.1c0.1-0.9,0.5-1.8,1-2.6c0.6-0.8,1.4-1.3,2.4-1.4
					c3.6-0.3,3.2,4.7,3.2,7c0.1-0.9,0.4-1.7,0.7-2.5C460.6,268.2,461.2,266.4,462.3,265.9z"/>
				<path class="st39" d="M457.2,306.8c0.2-0.4,0.5-0.7,0.8-1c0.7-0.9,1.8-1.4,3-1.3c0.2-1.5,1.1-2.9,2.3-3.9c1.3-0.9,3-1,4.4-0.3
					c0.9-1.6,3.4-1.6,4.8-0.4c1.2,1.4,1.8,3.2,1.6,5c1-0.2,2,0.3,2.5,1.2c1.5,2.4,0.8,5.5,0.2,8.1c-0.4,1.9-1.1,3.9-2.6,5.1
					s-3.8,1.2-5.8,1.1c-3-0.2-6.1-0.5-9.1-1C452.9,318.5,454.5,311,457.2,306.8z"/>
				<path class="st50" d="M388.8,300c-2.5,15.9-6.6,25.8-6.6,25.8"/>
				<path class="st53" d="M371.1,183.9c-1-3.4-3.6-2.2-3.6-2.2"/>
				<path class="st53" d="M436.8,175.3c2.4-0.6,3.5-0.9,3.5-0.9"/>
				<path class="st53" d="M437.1,179.8c1.8-0.3,3.6-0.6,5.4-0.7"/>
				<path class="st53" d="M438.9,184.3c1.3-0.2,2.5-0.6,3.6-1.1"/>
				<path class="st53" d="M435.1,173.7c1.5,4,2.7,8,3.5,12.2"/>
				<path class="st53" d="M461,310c1.1-4.7,0.6-4.2,0.6-4.2"/>
				<path class="st53" d="M467.1,307.9c0.8-2.3,1.2-4.8,1.2-7.2"/>
				<path class="st53" d="M473.2,311c0.8-1.8,1.1-3.8,0.8-5.8"/>
				<path class="st54" d="M492.9,474.8l3.4-5.2c-8.9-9.9-20.1-17.5-32.6-21.9l-3.1,3.1l0.5-3.9c-1.4-0.4-2.9-0.7-4.4-1l-4.2,7
					l0.1-7.6c-4.3-0.5-8.6,0.1-12.6,1.6c-3.6,1.5-6.7,4.2-8.5,7.6c-1.6,3-2.4,6.3-2.3,9.7c0.1,1.7,0.3,3.3,0.8,4.9
					c0.5,1.7,1.1,3.4,1.9,5c3.2,6.6,9.1,13.1,16.8,18.7l6.3-4l-1.9,7c1.8,1.1,3.7,2.3,5.7,3.3l2.3-3.6l0.4,5
					c0.8,0.4,1.5,0.7,2.3,1.1c14.2,6.4,25.9,7.1,34.2,6.2s13-3.5,13-3.5s1.3-14.8-12-31.7L492.9,474.8z"/>
				<line class="st55" x1="505.8" y1="501.3" x2="437.5" y2="456.8"/>
				<line class="st55" x1="454.1" y1="467.6" x2="452.3" y2="456.6"/>
				<line class="st55" x1="463.5" y1="473.7" x2="444.2" y2="478.7"/>
				<line class="st55" x1="477.1" y1="482.6" x2="476.5" y2="464.4"/>
				<line class="st55" x1="489.3" y1="490.5" x2="470.8" y2="493.8"/>
				<path class="st54" d="M1053.3,482.8l3.9,4.9c12.2-5.2,23-13.5,31.2-23.9l-1.9-3.9l3.5,1.7c0.9-1.3,1.7-2.5,2.4-3.8l-5.3-6.2
					l7.1,2.5c1.8-3.9,2.7-8.2,2.5-12.4c-0.2-3.9-1.8-7.6-4.5-10.5c-2.3-2.5-5.2-4.3-8.4-5.3c-1.6-0.5-3.2-0.8-4.9-0.9
					c-1.8-0.1-3.6,0-5.3,0.2c-7.3,0.9-15.3,4.5-23,9.9l1.7,7.2l-6-4c-1.7,1.4-3.3,2.8-4.9,4.3l2.7,3.3l-4.9-1.2
					c-0.6,0.6-1.2,1.2-1.8,1.9c-10.6,11.4-15,22.3-16.8,30.4s-0.9,13.4-0.9,13.4s13.6,6,33.9-1.2L1053.3,482.8z"/>
				<line class="st55" x1="1024.2" y1="486.6" x2="1088.1" y2="436"/>
				<line class="st55" x1="1072.5" y1="448.3" x2="1083.6" y2="450.2"/>
				<line class="st55" x1="1063.8" y1="455.3" x2="1065.2" y2="435.4"/>
				<line class="st55" x1="1051" y1="465.4" x2="1068.4" y2="470.5"/>
				<line class="st55" x1="1039.6" y1="474.3" x2="1042.4" y2="455.7"/>
				<path class="st56" d="M595.2,480l11.8-6c-1.4-7.3-3.4-14.4-5.8-21.4c-7-20.4-17.6-39.2-30.1-53.5l-9,2.3l5.1-6.5
					c-2.2-2.3-4.5-4.5-6.9-6.6l-15.2,8.2l8.3-13.7c-8.1-5.7-16.3-9.4-24.7-10.5c-8.2-1.2-16.6,0.5-23.7,4.8
					c-6.1,3.6-11.2,8.8-14.5,15.1c-1.7,3.1-3,6.4-3.9,9.8c-1,3.6-1.6,7.3-1.9,11.1c-1.2,15.4,2.6,33.6,10.5,52l15.7-0.4L500,475.4
					c2.1,4,4.3,8.1,6.8,12.1l8.1-4.1l-4.6,9.5c1,1.5,2,3,3.1,4.5c18.9,26.9,39.6,40.8,55.6,48s27.3,7.7,27.3,7.7
					s18.3-25.5,12.2-70.5L595.2,480z"/>
				<line class="st57" x1="590.4" y1="542" x2="513.7" y2="387.8"/>
				<line class="st57" x1="532.4" y1="425.4" x2="540.9" y2="403.3"/>
				<line class="st57" x1="542.9" y1="446.5" x2="502.5" y2="434.9"/>
				<line class="st57" x1="558.2" y1="477.2" x2="576.5" y2="443.5"/>
				<line class="st57" x1="571.8" y1="504.6" x2="534.6" y2="490.9"/>
				<path class="st15" d="M713,479.8l9.5,1.7c2.4-4.9,4.4-10,6.1-15.2c5-15.1,7-30.9,6-44.9l-6.3-2.6l5.9-1.5
					c-0.3-2.4-0.7-4.7-1.2-6.9l-12.6-1.9l10.9-4.4c-2.2-6.9-5.5-12.8-9.8-17.1c-4.3-4.4-10-7.1-16.1-7.7c-5.2-0.6-10.5,0.3-15.3,2.5
					c-2.4,1.1-4.6,2.4-6.7,4c-2.2,1.7-4.2,3.6-6,5.7c-7.6,8.5-13.3,21-16.8,35.3l9.4,6.7l-11.2,1.5c-0.6,3.3-1,6.7-1.3,10.1l6.6,1.1
					l-7,3.5c-0.1,1.3-0.2,2.7-0.2,4c-0.8,24.2,5.2,41.6,11.5,52.9c6.3,11.3,12.7,16.6,12.7,16.6s22.1-6.9,38.4-36.1L713,479.8z"/>
				<line class="st58" x1="682.7" y1="514.2" x2="705.9" y2="389.4"/>
				<line class="st58" x1="700.3" y1="419.8" x2="715.1" y2="410.6"/>
				<line class="st58" x1="697.1" y1="436.9" x2="678.4" y2="412.1"/>
				<line class="st58" x1="692.5" y1="461.8" x2="718.2" y2="450"/>
				<line class="st58" x1="688.3" y1="484" x2="672.5" y2="459.3"/>
				<path class="st59" d="M767.6,485.8l5.9,3.4c10.3-10.2,17.9-22.9,22-36.8l-3.5-3.2l4.2,0.4c0.4-1.6,0.7-3.2,0.9-4.8l-7.9-4.2
					l8.2-0.3c0.3-4.7-0.6-9.3-2.5-13.6c-1.8-3.9-4.9-7-8.8-8.9c-3.3-1.6-7-2.3-10.7-2c-1.8,0.2-3.6,0.5-5.3,1.1
					c-1.8,0.6-3.6,1.4-5.3,2.3c-7,3.9-13.7,10.7-19.4,19.3l4.7,6.6l-7.7-1.6c-1.2,2-2.2,4.2-3.3,6.4l4.1,2.3l-5.4,0.7
					c-0.4,0.9-0.7,1.7-1.1,2.6c-6.2,15.8-6.3,28.6-4.8,37.6s4.5,14,4.5,14s16.2,0.6,33.8-14.8L767.6,485.8z"/>
				<line class="st60" x1="739.6" y1="501.4" x2="784.1" y2="424.5"/>
				<line class="st60" x1="773.3" y1="443.2" x2="785.2" y2="440.6"/>
				<line class="st60" x1="767.2" y1="453.8" x2="760.7" y2="433"/>
				<line class="st60" x1="758.3" y1="469.1" x2="778" y2="467.4"/>
				<line class="st60" x1="750.4" y1="482.7" x2="745.7" y2="462.8"/>
				<path class="st59" d="M1121.3,483l3.4,3.6c2.4-1.3,4.8-2.8,7-4.4c6.3-4.5,11.7-10.2,15.8-16.7l-1.8-3l2.9,1.1
					c0.6-1.1,1.1-2.1,1.6-3.2l-4.6-4.5l5.8,1.5c1.1-3.2,1.5-6.6,1-10c-0.5-3.1-2-5.9-4.3-8c-2-1.8-4.4-3-7-3.5
					c-1.3-0.3-2.6-0.4-3.9-0.3c-1.4,0-2.8,0.2-4.2,0.5c-5.7,1.2-11.8,4.6-17.5,9.5l1.9,5.6l-5-2.7c-1.2,1.2-2.4,2.5-3.6,3.8l2.4,2.4
					l-3.9-0.6c-0.4,0.5-0.9,1.1-1.3,1.6c-7.5,9.8-10.3,18.7-11.1,25.2c-0.5,3.5-0.4,7.1,0.3,10.6c0,0,11.2,3.7,26.6-3.4L1121.3,483z
					"/>
				<line class="st61" x1="1098.5" y1="488.1" x2="1145.3" y2="443.6"/>
				<line class="st61" x1="1133.9" y1="454.5" x2="1142.8" y2="455.1"/>
				<line class="st61" x1="1127.5" y1="460.5" x2="1127.2" y2="444.8"/>
				<line class="st61" x1="1118.2" y1="469.4" x2="1132.3" y2="472.3"/>
				<line class="st61" x1="1109.8" y1="477.3" x2="1110.7" y2="462.5"/>
				<path class="st15" d="M863.6,495.8l6.2,5.4c14.6-9.6,26.6-22.7,34.9-38.2l-3.4-4.6l4.9,1.5c0.8-1.8,1.6-3.7,2.2-5.5l-8.3-6.9
					l9.8,1.6c1.4-5.5,1.5-11.2,0.3-16.7c-1.2-5-4.2-9.5-8.3-12.6c-3.5-2.7-7.7-4.4-12.1-4.9c-2.2-0.2-4.4-0.2-6.6,0
					c-2.3,0.3-4.6,0.8-6.8,1.5c-9.2,2.9-18.8,9.4-27.6,18.2l3.9,9l-8.7-3.8c-1.8,2.1-3.7,4.4-5.4,6.8l4.3,3.7l-6.6-0.5
					c-0.6,0.9-1.3,1.9-1.9,2.8c-11.1,17.2-14.3,32.4-14.7,43.3s2,17.6,2,17.6s19,4.6,43.6-9.5L863.6,495.8z"/>
				<line class="st62" x1="826.6" y1="507.5" x2="897.7" y2="427.2"/>
				<line class="st62" x1="880.4" y1="446.8" x2="895.2" y2="446.5"/>
				<line class="st62" x1="870.7" y1="457.8" x2="867.9" y2="431.7"/>
				<line class="st62" x1="856.5" y1="473.8" x2="880.2" y2="476.5"/>
				<line class="st62" x1="843.9" y1="488" x2="843.1" y2="463.3"/>
				<path class="st56" d="M1000.6,475.4l9.6,6c4.7-4.3,9.1-8.9,13.2-13.8c11.9-14.2,20.9-30.4,25.8-46l-5.7-5.6l7,0.9
					c0.7-2.7,1.3-5.3,1.7-8l-12.8-7.5h13.8c0.6-8.5-0.4-16.2-3.3-22.8c-2.8-6.6-7.8-12-14.1-15.3c-5.4-2.9-11.5-4.2-17.6-3.9
					c-3,0.2-6,0.6-8.9,1.5c-3.1,0.9-6.1,2.1-9,3.5c-11.9,6-23.5,17-33.5,31l7.3,11.3l-12.7-3.2c-2,3.3-4,6.8-5.8,10.4l6.6,4.1
					l-9,0.8c-0.7,1.4-1.3,2.8-2,4.3c-11.2,25.8-12.2,47.2-10.3,62.2s6.6,23.5,6.6,23.5s26.9,2,57.2-22.6L1000.6,475.4z"/>
				<line class="st63" x1="952.9" y1="499.5" x2="1031.9" y2="374.3"/>
				<line class="st63" x1="1012.7" y1="404.8" x2="1032.7" y2="401.3"/>
				<line class="st63" x1="1001.8" y1="422" x2="992.3" y2="387.1"/>
				<line class="st63" x1="986.1" y1="447" x2="1019" y2="445.3"/>
				<line class="st63" x1="972" y1="469.2" x2="965.5" y2="435.7"/>
				<path class="st15" d="M821.3,319.9c1.6-3.2,3.9-7.5,7-9.4c3.3-2.1,8.1-2.4,11.1,0.3c2.1,2.1,3.1,5,2.7,7.9
					c-0.8,7.8-6.3,14.2-11.6,19.7c-2.8,2.9-5.8,5.6-8.6,8.5c-0.3,0.3-0.7,0.7-1.1,1.2c-1,1.1-2.7,1.3-3.9,0.3
					c-0.6-0.5-0.9-1.3-0.9-2.1c0-4.4,0.4-8.7,1.1-13c0.7-4.5,2.1-8.8,4.1-12.9L821.3,319.9z"/>
				<path class="st15" d="M801.7,316.5c-4.3-0.5-8.3,4.5-6.8,8.6c1,2.7,3.8,5,5.9,6.8c3.6,3.2,7.2,6.2,10,10c0.7,0.9,2.1,1.1,3,0.4
					c0.6-0.4,0.9-1.1,0.8-1.8c0-0.8-0.1-1.7-0.2-2.5c-0.7-4.6-2.1-9.1-4.1-13.4C808.7,321.1,806,317.1,801.7,316.5z"/>
				<path class="st64" d="M815.6,363.8c0.4-13.8,4.7-27.3,12.4-38.8"/>
				<path class="st64" d="M808.9,331.4c5,9.3,5.8,21.1,7.1,31.7"/>
				<path class="st64" d="M830.1,322.3l5-6.5"/>
				<path class="st64" d="M826.2,339.2l2.8-3.3"/>
				<path class="st64" d="M832.7,332.7c2.4-3.1,4.2-6.6,5.3-10.4"/>
				<path class="st64" d="M800.1,319.7c2,1.5,3.7,3.5,5,5.6l1.3,2"/>
				<path class="st15" d="M876.4,172.6c1.9-3.9,4.7-9,8.3-11.2c4-2.5,9.8-2.9,13.3,0.3c2.5,2.5,3.7,6,3.2,9.6
					c-1,9.4-7.6,17.1-13.9,23.6c-3.4,3.5-6.9,6.8-10.3,10.2c-0.4,0.4-0.8,0.9-1.3,1.4c-1.2,1.4-3.3,1.5-4.7,0.3
					c-0.7-0.6-1.1-1.6-1.1-2.5c0-5.2,0.5-10.5,1.3-15.7c0.9-5.4,2.5-10.6,4.9-15.5C876.3,172.9,876.3,172.8,876.4,172.6z"/>
				<path class="st15" d="M852.9,168.6c-5.2-0.6-10,5.4-8.2,10.3c1.2,3.2,4.6,6,7.1,8.2c4.3,3.9,8.6,7.5,12,11.9
					c0.9,1.1,2.5,1.4,3.6,0.5c0.7-0.5,1.1-1.3,1-2.2c0-1-0.1-2-0.3-3c-0.8-5.6-2.5-11-4.9-16.1C861.2,174,858,169.2,852.9,168.6z"/>
				<path class="st65" d="M869.6,225.3c0.5-16.6,5.7-32.8,14.9-46.6"/>
				<path class="st65" d="M861.5,186.4c6,11.2,7,25.4,8.5,38"/>
				<path class="st65" d="M886.9,175.5l6-7.8"/>
				<path class="st65" d="M882.3,195.8l3.3-4"/>
				<path class="st65" d="M890.1,188.1c2.9-3.7,5-8,6.3-12.5"/>
				<path class="st65" d="M850.9,172.4c2.5,1.7,4.3,4.3,6,6.8l1.6,2.4"/>
				<path class="st15" d="M1135.8,400.9c1.1-2.3,2.8-5.3,4.9-6.6c2.4-1.5,5.7-1.7,7.8,0.2c1.5,1.5,2.2,3.5,1.9,5.6
					c-0.6,5.5-4.5,10-8.2,13.9c-2,2-4.1,4-6,6c-0.2,0.2-0.5,0.5-0.8,0.9c-0.8,0.8-2.1,0.8-2.8,0c-0.3-0.3-0.5-0.8-0.6-1.3
					c0-3.1,0.3-6.2,0.8-9.2c0.5-3.2,1.5-6.2,2.9-9.1L1135.8,400.9z"/>
				<path class="st15" d="M1122,398.5c-3.1-0.4-5.9,3.2-4.8,6.1c0.7,1.9,2.7,3.5,4.2,4.8c2.6,2.1,4.9,4.4,7.1,7
					c0.5,0.7,1.5,0.8,2.1,0.3c0.4-0.3,0.6-0.8,0.6-1.3c0-0.6-0.1-1.2-0.2-1.8c-0.5-3.3-1.5-6.5-2.9-9.4
					C1126.9,401.7,1125,398.9,1122,398.5z"/>
				<path class="st66" d="M1131.8,431.8c0.3-9.8,3.3-19.3,8.8-27.4"/>
				<path class="st66" d="M1127.1,409c3.5,6.6,4.1,14.9,5,22.4"/>
				<path class="st66" d="M1142,402.6l3.5-4.5"/>
				<path class="st66" d="M1139.3,414.5l2-2.4"/>
				<path class="st66" d="M1143.9,409.9c1.7-2.2,2.9-4.7,3.7-7.3"/>
				<path class="st66" d="M1120.8,400.7c1.4,1.1,2.6,2.4,3.5,4l1,1.4"/>
				<path class="st15" d="M618.3,240.1c0.2-2.9,0.9-5.7,2.2-8.3c3.8-8.4,10.7-16,17.2-22.4c-0.5,0.5,1.6,8.6,1.8,9.8
					c0.8,6.8,1.1,14.5-0.4,21.2c-1.9,8.7-8.8,15.9-16.6,20c-1.1,0.5-3.2-9.8-3.3-10.7C618.4,246.5,618.1,243.3,618.3,240.1z"/>
				<path class="st15" d="M617.2,260.8c-3.9-1.7-8.4-0.5-12.6-1c-5.3-0.6-10-3.7-14-7.3c-7-6.4-12.3-14.6-15.2-23.7
					c7.4-0.2,14.7,1.8,21.7,4c4,1.2,8,2.6,11.4,5C615.7,243.1,619.1,252.1,617.2,260.8z"/>
				<path class="st64" d="M620.8,280.2c-0.5-20.8,1.2-24.6,8.6-44"/>
				<path class="st64" d="M620.8,266.9c-3-7.7-7.9-14.5-14.4-19.7"/>
				<path class="st64" d="M630.7,232.3c2.2-6.9,4.3-13.8,6.1-20.8"/>
				<path class="st64" d="M576.8,228.9c6,3,11.8,6.1,17.6,9.4"/>
				<path class="st64" d="M597.6,241c1.7,0.8,3.3,1.7,4.8,2.8"/>
				<path class="st64" d="M588.9,246.7l6.1,5.5"/>
				<path class="st64" d="M597.8,254c2.5,2.2,5.7,3.5,9.1,3.5"/>
				<path class="st64" d="M627.5,254.2c2.3-1.9,4.2-4.2,5.7-6.7"/>
				<path class="st64" d="M635.2,245.1c1.2-2.2,1.9-4.6,2.1-7.1"/>
				<path class="st64" d="M638.1,232.7l0.2-5.7"/>
				<path class="st15" d="M446.5,395.9c0.1-1.7,0.6-3.4,1.3-5c2.3-5,6.4-9.5,10.2-13.4c-0.3,0.3,1,5.1,1,5.9
					c0.6,4.2,0.5,8.5-0.2,12.7c-1.1,5.2-5.2,9.5-9.9,11.9c-0.6,0.3-1.9-5.9-2-6.4C446.5,399.8,446.4,397.8,446.5,395.9z"/>
				<path class="st15" d="M445.8,408.3c-2.3-1-5-0.3-7.5-0.6c-3.2-0.4-6-2.2-8.3-4.4c-4.2-3.8-7.3-8.7-9.1-14.1
					c4.4-0.1,8.8,1.1,13,2.4c2.4,0.6,4.7,1.7,6.8,3C444.9,397.8,446.9,403.1,445.8,408.3z"/>
				<path class="st67" d="M448,419.9c-0.3-12.4,0.7-14.7,5.2-26.3"/>
				<path class="st67" d="M448,412c-1.8-4.6-4.7-8.7-8.6-11.8"/>
				<path class="st67" d="M453.9,391.3c1.3-4.1,2.6-8.2,3.7-12.4"/>
				<path class="st67" d="M421.7,389.2c3.5,1.8,7,3.7,10.5,5.6"/>
				<path class="st67" d="M434.1,396.5c1,0.5,2,1,2.9,1.7"/>
				<path class="st67" d="M428.9,399.9l3.6,3.3"/>
				<path class="st67" d="M434.2,404.2c1.5,1.3,3.4,2.1,5.4,2.1"/>
				<path class="st67" d="M452,404.4c1.4-1.1,2.5-2.5,3.4-4"/>
				<path class="st67" d="M456.5,398.9c0.7-1.3,1.1-2.7,1.3-4.2"/>
				<path class="st67" d="M458.3,391.5c0-1.1,0.1-2.3,0.1-3.4"/>
				<path class="st15" d="M936.5,372.6c0.4-1.4,1-2.7,1.9-3.8c2.7-3.7,6.8-6.6,10.5-9.1c-0.3,0.2-0.1,4.3-0.1,4.9
					c-0.2,3.5-1,7-2.3,10.2c-1.8,4-5.8,6.8-10,8c-0.6,0.2-0.6-5.1-0.5-5.5C935.9,375.8,936.1,374.2,936.5,372.6z"/>
				<path class="st15" d="M933.9,382.6c-1.7-1.2-4-1.1-6-1.8c-2.5-1-4.6-2.7-6-4.9c-2.8-3.8-4.5-8.3-5-13c3.6,0.8,7,2.2,10.1,4.1
					c1.8,0.9,3.5,2.1,5,3.6C935,373.8,935.7,378.5,933.9,382.6z"/>
				<path class="st68" d="M933.7,392.3c1.8-10.1,3-11.7,8.5-20.4"/>
				<path class="st68" d="M935,385.9c-0.6-4-2.4-7.8-5-11"/>
				<path class="st68" d="M943.2,370.1c1.8-3.1,3.4-6.2,5-9.5"/>
				<path class="st68" d="M917.5,363.1c2.6,2,5.1,4.1,7.6,6.3"/>
				<path class="st68" d="M926.4,371c0.7,0.5,1.4,1.1,2,1.8"/>
				<path class="st68" d="M921.6,372.9l2.4,3.3"/>
				<path class="st68" d="M925.2,377.3c1,1.3,2.4,2.2,4,2.6"/>
				<path class="st68" d="M939.5,380.4c1.3-0.7,2.4-1.6,3.4-2.7"/>
				<path class="st68" d="M944.2,376.7c0.8-0.9,1.4-2,1.7-3.2"/>
				<path class="st68" d="M946.8,371c0.2-0.9,0.5-1.8,0.7-2.8"/>
				<path class="st16" d="M493.3,168.8c3-1.3,5.5-0.9,8.7-1.1s6.2-0.4,9,0.3c1.9,0.4,3.4,1.7,4,3.6c0.3,1.6-0.2,3.3-1.4,4.5l0,0
					c-1.2,1.2-2.7,2-4.3,2.4c-3.4,0.9-7,1.4-10.5,1.5c-4.2,0.2-8.3,0.7-12.5,0.8c-0.2,0-0.4,0-0.6,0.1c-0.1,0.1-0.2,0.2-0.3,0.3
					c-3.3,4.4-8.5,5.9-13.9,5c-2-0.2-3.9-0.9-5.5-2c-2.6-1.9-3.7-5.1-4.6-8.2c-3.8,0.3-7.6,0.4-11.4,0.2c-1.5,0-2.9-0.3-4.3-0.8
					c-1.4-0.6-2.4-1.7-2.9-3.2c-0.2-1.1,0-2.3,0.7-3.3c1.2-1.7,2.9-2.8,4.9-3.2s4-0.5,6-0.4l5.5,0.1c2-3.8,3.4-7.5,8.2-8.3
					c4.1-0.7,8.6,1.6,10,5c-0.7-3.2,2.2-6.5,5.9-7.2c3.6-0.6,7.3,0.7,9.8,3.4c2.1,2.5,3.2,5.8,2.9,9.1"/>
				<path class="st16" d="M1217.3,39.8c3-1.3,5.5-0.9,8.7-1.1s6.2-0.4,9,0.3c1.9,0.4,3.4,1.7,4,3.6c0.3,1.6-0.2,3.3-1.4,4.5h-0.1
					c-1.2,1.2-2.7,2-4.3,2.4c-3.4,0.9-7,1.4-10.5,1.4c-4.2,0.2-8.3,0.7-12.5,0.8c-0.2,0-0.4,0-0.6,0.1c-0.1,0.1-0.2,0.2-0.3,0.3
					c-3.3,4.3-8.6,5.9-13.9,5c-2-0.2-3.9-0.9-5.5-2c-2.6-1.9-3.7-5.2-4.6-8.2c-3.8,0.3-7.6,0.3-11.4,0.2c-1.5,0-2.9-0.3-4.3-0.8
					c-1.4-0.6-2.4-1.7-2.8-3.2c-0.2-1.1,0-2.3,0.7-3.3c1.2-1.7,2.9-2.8,4.9-3.2s4-0.5,6-0.4l5.5,0.1c2-3.8,3.4-7.5,8.2-8.3
					c4.1-0.7,8.6,1.6,10,5c-0.7-3.2,2.2-6.5,5.9-7.2c3.6-0.6,7.3,0.7,9.8,3.4c2.1,2.5,3.2,5.8,2.9,9.1"/>
				<path class="st16" d="M1111.3,180.5c1.6-0.7,3-0.5,4.8-0.6c1.6-0.2,3.3-0.1,4.9,0.1c1,0.2,1.9,0.9,2.2,1.9
					c0.2,0.9-0.1,1.8-0.8,2.5l0,0c-0.7,0.6-1.5,1.1-2.3,1.3c-1.9,0.5-3.8,0.8-5.7,0.8c-2.3,0.1-4.5,0.4-6.8,0.5
					c-0.1,0-0.2,0-0.3,0.1c-0.1,0-0.1,0.1-0.2,0.2c-1.8,2.3-4.8,3.3-7.6,2.7c-1.1-0.1-2.1-0.5-3-1.1c-1.4-1-2-2.8-2.5-4.5
					c-2.1,0.2-4.2,0.2-6.2,0.1c-0.8,0-1.6-0.2-2.3-0.4c-0.8-0.3-1.3-0.9-1.6-1.7c-0.1-0.6,0-1.3,0.4-1.8c0.6-0.9,1.6-1.5,2.7-1.8
					c1.1-0.2,2.2-0.3,3.3-0.2l3,0.1c1.1-2.1,1.9-4.1,4.4-4.5c2.2-0.4,4.4,0.7,5.5,2.7c-0.4-1.8,1.2-3.5,3.2-3.9c2-0.3,4,0.4,5.3,1.9
					c1.2,1.4,1.7,3.2,1.6,5"/>
				<path class="st16" d="M450.4,10.8c1.6-0.7,3-0.5,4.8-0.6c1.6-0.2,3.3-0.1,4.9,0.1c1,0.2,1.9,0.9,2.2,1.9
					c0.2,0.9-0.1,1.8-0.8,2.5l0,0c-0.7,0.6-1.5,1.1-2.4,1.3c-1.9,0.5-3.8,0.8-5.7,0.8c-2.3,0.1-4.5,0.4-6.8,0.5
					c-0.1,0-0.2,0-0.3,0.1c-0.1,0-0.1,0.1-0.2,0.2c-1.8,2.3-4.8,3.3-7.6,2.7c-1.1-0.1-2.1-0.5-3-1.1c-1.4-1-2-2.8-2.5-4.5
					c-2.1,0.2-4.2,0.2-6.2,0.1c-0.8,0-1.6-0.2-2.4-0.4c-0.8-0.3-1.3-0.9-1.6-1.7c-0.1-0.6,0-1.3,0.4-1.8c0.6-0.9,1.6-1.6,2.7-1.8
					s2.1-0.3,3.2-0.2l3,0.1c1.1-2.1,1.9-4.1,4.4-4.5c2.2-0.4,4.5,0.7,5.5,2.7c-0.4-1.8,1.2-3.5,3.2-3.9c2-0.3,4,0.4,5.4,1.9
					c1.2,1.4,1.7,3.2,1.6,5"/>
				<path class="st16" d="M197.9,33.3c4.6-2,8.4-1.4,13.4-1.6s9.6-0.6,13.9,0.4c2.8,0.7,5.5,2.7,6.2,5.5c0.5,2.5-0.3,5.2-2.1,7
					l-0.1,0.1c-1.9,1.8-4.1,3.1-6.6,3.7c-5.2,1.7-10.8,2-16.2,2.3c-6.4,0.3-12.8,1.1-19.2,1.3c-0.3,0-0.6,0-0.9,0.2
					c-0.2,0.1-0.4,0.3-0.5,0.5c-5.1,6.7-13.2,9-21.5,7.7c-3.1-0.3-6-1.4-8.5-3.1c-3.9-2.9-5.6-7.9-7.1-12.6
					c-5.9,0.4-11.7,0.5-17.6,0.3c-2.3,0-4.5-0.4-6.7-1.2c-2.1-0.8-3.8-2.7-4.4-4.9c-0.3-1.8,0-3.6,1-5.1c1.8-2.6,4.5-4.4,7.6-5
					c3-0.6,6.1-0.8,9.2-0.6l8.5,0.1c3-5.8,5.3-11.5,12.6-12.7c6.3-1.1,13.3,2.4,15.4,7.7c-1-5,3.4-10,9-11.1
					c5.6-0.9,11.3,1,15.1,5.3c3.3,3.9,4.9,8.9,4.4,14"/>
				<path class="st16" d="M1477.2,24.5c4.6-2,8.4-1.4,13.4-1.6s9.6-0.6,13.9,0.4c2.8,0.7,5.5,2.7,6.2,5.5c0.5,2.5-0.3,5.2-2.1,7
					l-0.1,0.1c-1.9,1.8-4.1,3.1-6.6,3.7c-5.2,1.7-10.8,2-16.2,2.3c-6.4,0.3-12.8,1.1-19.2,1.3c-0.3,0-0.6,0-0.9,0.2
					c-0.2,0.1-0.4,0.3-0.5,0.5c-5.2,6.7-13.2,9-21.5,7.7c-3.1-0.3-6-1.4-8.5-3.1c-4-2.9-5.7-7.9-7.1-12.6
					c-5.9,0.4-11.7,0.5-17.6,0.3c-2.3,0-4.5-0.4-6.7-1.3c-2.1-0.9-3.8-2.7-4.4-4.9c-0.3-1.7,0-3.6,1-5c1.8-2.6,4.5-4.4,7.6-5
					c3-0.6,6.1-0.8,9.2-0.6l8.5,0.2c3-5.8,5.2-11.5,12.6-12.8c6.3-1.1,13.3,2.4,15.4,7.8c-1-4.9,3.4-10,9-11.1
					c5.6-0.9,11.3,1.1,15.1,5.3c3.3,3.9,4.9,8.9,4.4,14"/>
				<path class="st15" d="M182.8,77.6c-1.5,1.9-1.5,4.5-2.4,6.7c-1.1,2.8-3.4,4.9-6,6.5c-4.5,2.9-9.7,4.6-15,4.9
					c1-4,3.1-7.7,5.3-11.2c1.2-2,2.6-3.9,4.4-5.4C173,75.9,178.4,75.4,182.8,77.6z"/>
				<path class="st69" d="M186.6,76.6c-4.6,0.5-9,2.2-12.8,5"/>
				<path class="st69" d="M159.7,95c2.5-2.8,5-5.5,7.6-8.2"/>
				<path class="st69" d="M169.2,85.4c0.7-0.8,1.4-1.5,2.2-2.2"/>
				<path class="st15" d="M194.6,233.3c-1.7-0.9-3.8-0.7-5.7-1.1c-2.4-0.7-4.4-2.1-5.9-4c-2.9-3.3-4.8-7.2-5.7-11.5
					c3.3,0.4,6.6,1.4,9.6,2.9c1.8,0.7,3.4,1.7,4.9,2.9C194.8,225.2,195.9,229.4,194.6,233.3z"/>
				<path class="st70" d="M195.9,236.2c-0.9-3.6-2.9-7-5.5-9.6"/>
				<path class="st70" d="M177.9,216.8c2.5,1.6,5,3.4,7.5,5.1"/>
				<path class="st70" d="M186.8,223.3c0.7,0.4,1.4,0.9,2,1.5"/>
				<path class="st15" d="M1079.9,214.7c-1.7,0.9-2.7,2.8-4.1,4.1c-1.9,1.6-4.2,2.5-6.6,2.7c-4.3,0.6-8.7,0-12.7-1.7
					c2.2-2.5,4.9-4.7,7.8-6.4c1.6-1.1,3.3-1.9,5.1-2.5C1073.3,210,1077.4,211.5,1079.9,214.7z"/>
				<path class="st70" d="M1083.1,215.2c-3.6-1.2-7.4-1.5-11.1-0.8"/>
				<path class="st70" d="M1056.9,219.4c2.8-1.2,5.6-2.3,8.4-3.4"/>
				<path class="st70" d="M1067.2,215.7c0.8-0.4,1.6-0.7,2.4-0.8"/>
				<path class="st15" d="M1263,64.9c-1.8-0.8-3.8-0.3-5.7-0.6c-2.4-0.5-4.6-1.7-6.3-3.5c-3.1-3-5.4-6.8-6.7-10.9
					c3.4,0.1,6.7,0.8,9.8,2c1.8,0.5,3.5,1.4,5.1,2.4C1262.5,56.9,1263.9,61,1263,64.9z"/>
				<path class="st70" d="M1264.6,67.7c-1.3-3.6-3.5-6.7-6.3-9.1"/>
				<path class="st70" d="M1244.9,50c2.7,1.4,5.3,2.9,7.9,4.5"/>
				<path class="st70" d="M1254.3,55.7c0.8,0.4,1.5,0.8,2.2,1.3"/>
				<path class="st15" d="M519.1,197.5c-1.8-0.8-3.8-0.3-5.7-0.6c-2.4-0.5-4.6-1.7-6.3-3.5c-3.1-3-5.4-6.8-6.7-10.9
					c3.4,0.1,6.7,0.8,9.8,2.1c1.8,0.5,3.5,1.4,5.1,2.4C518.6,189.4,520.1,193.5,519.1,197.5z"/>
				<path class="st70" d="M520.7,200.3c-1.3-3.6-3.5-6.7-6.3-9.1"/>
				<path class="st70" d="M501,182.5c2.7,1.4,5.3,2.9,7.9,4.5"/>
				<path class="st70" d="M510.4,188.2c0.8,0.4,1.5,0.8,2.1,1.3"/>
				<path class="st15" d="M1358.8,125.2c-0.8,0.2-1.4,1-2.2,1.5c-1,0.5-2.1,0.8-3.2,0.6c-2-0.1-3.9-0.8-5.5-1.8
					c1.2-0.9,2.6-1.7,4-2.2c0.8-0.3,1.6-0.6,2.5-0.7C1356.3,122.5,1358,123.5,1358.8,125.2z"/>
				<path class="st71" d="M1360.2,125.7c-1.5-0.9-3.2-1.3-4.9-1.3"/>
				<path class="st71" d="M1348.2,125.3c1.3-0.3,2.7-0.6,4-0.8"/>
				<path class="st71" d="M1353.1,124.5c0.4-0.1,0.7-0.1,1.1-0.2"/>
				<path class="st59" d="M1418.2,457.7l-10.8-1.6c-0.8-6.1-1.1-12.2-1-18.4c0.2-17.9,3.8-35.4,10-49.9l7.7-0.5l-5.7-3.8
					c1.2-2.4,2.4-4.8,3.7-7l14.1,2.5l-10.1-8.6c4.9-6.6,10.5-11.6,16.7-14.6c6.2-3.1,13.2-3.9,19.9-2.4c5.8,1.3,11.1,4.1,15.4,8.2
					c2.1,2,4,4.3,5.6,6.7c1.7,2.6,3.2,5.3,4.3,8.2c5,11.8,6.6,27.2,5.1,43.7l-12.5,3.7l11.3,5.6c-0.6,3.7-1.3,7.5-2.2,11.3l-7.4-1.2
					l6.1,6.3c-0.4,1.5-0.8,2.9-1.3,4.4c-8,26-20.7,42.3-31.4,52.1s-19.6,13.1-19.6,13.1s-21-15.4-27.8-52.5L1418.2,457.7z"/>
				<line class="st60" x1="1437.9" y1="505.3" x2="1458.6" y2="364.1"/>
				<line class="st60" x1="1453.6" y1="398.5" x2="1441.2" y2="383.3"/>
				<line class="st60" x1="1450.7" y1="417.9" x2="1479.6" y2="398.3"/>
				<line class="st60" x1="1446.6" y1="446" x2="1423.5" y2="424.2"/>
				<line class="st60" x1="1442.9" y1="471.1" x2="1468.7" y2="450.7"/>
				<path class="st15" d="M1459.9,484.8l-6-5.3c7.6-15.4,18.9-28.7,32.9-38.6l5,2.8l-2-4.6c1.7-1,3.4-2,5.1-2.8l7.7,7.2l-2.8-9.4
					c5.1-2.1,10.7-2.9,16.2-2.4c5,0.6,9.7,2.9,13.3,6.5c3.1,3.1,5.2,7,6.2,11.2c0.5,2.1,0.8,4.2,0.8,6.4c0,2.3-0.2,4.6-0.6,6.8
					c-1.7,9.3-6.8,19.5-14.3,29.1l-9.2-2.7l4.8,8c-1.9,2.1-3.8,4.1-5.9,6.1l-4.1-3.7l1.3,6.3c-0.8,0.7-1.7,1.5-2.5,2.2
					c-15.4,12.9-29.8,17.9-40.3,19.7s-17.3,0.2-17.3,0.2s-6.8-17.9,3.8-43.6L1459.9,484.8z"/>
				<line class="st72" x1="1453.1" y1="522.1" x2="1522.5" y2="443"/>
				<line class="st72" x1="1505.6" y1="462.3" x2="1503.9" y2="448"/>
				<line class="st72" x1="1496.1" y1="473.2" x2="1521.7" y2="472.6"/>
				<line class="st72" x1="1482.2" y1="488.9" x2="1476.7" y2="466.1"/>
				<line class="st72" x1="1469.9" y1="503" x2="1494" y2="500.7"/>
				<path class="st56" d="M182.6,453.4l7.3-1.4c0.3-4.2,0.3-8.4,0.1-12.5c-0.6-11.7-3.4-23.1-8.3-33.7l-5.2-0.1l3.8-2.8
					c-0.8-1.6-1.8-3.1-2.8-4.6l-9.5,2.2l6.6-6.2c-3.1-4-7.2-7.3-11.8-9.5c-4.3-1.9-9.1-2.3-13.6-1c-3.9,1-7.4,3.1-10.2,6
					c-1.4,1.4-2.6,3-3.6,4.7c-1.1,1.8-2,3.7-2.7,5.7c-3,8.2-3.6,18.7-2.1,29.9l8.6,2.1l-7.6,4.2c0.5,2.5,1.1,5.1,1.9,7.6l5-1l-4,4.5
					c0.3,1,0.6,2,1,2.9c6.2,17.5,15.4,28.2,23,34.5s13.7,8.3,13.7,8.3s13.8-11.1,17.3-36.6L182.6,453.4z"/>
				<line class="st73" x1="170.6" y1="486.5" x2="152.1" y2="390.9"/>
				<line class="st73" x1="156.6" y1="414.2" x2="164.6" y2="403.5"/>
				<line class="st73" x1="159.1" y1="427.3" x2="138.9" y2="414.8"/>
				<line class="st73" x1="162.8" y1="446.4" x2="177.9" y2="430.7"/>
				<line class="st73" x1="166.1" y1="463.4" x2="147.9" y2="450.2"/>
				<path class="st15" d="M154.9,473.2l3.9-3.8c-1.5-2.7-3.2-5.3-5-7.8c-5-7-11.3-12.9-18.6-17.6l-3.2,2l1.2-3.2
					c-1.2-0.6-2.4-1.2-3.6-1.8l-5,5.2l1.6-6.5c-3.6-1.2-7.4-1.6-11.1-1.1c-3.4,0.5-6.5,2.3-8.8,4.9c-2,2.2-3.3,4.9-3.9,7.8
					c-0.3,1.4-0.4,2.9-0.3,4.4c0.1,1.6,0.3,3.1,0.6,4.6c1.4,6.3,5.2,13,10.7,19.4l6.2-2.1l-3,5.6c1.3,1.4,2.7,2.7,4.2,4l2.7-2.6
					l-0.7,4.4c0.6,0.5,1.2,1,1.8,1.4c10.9,8.3,20.8,11.3,28.1,12.2c3.9,0.6,7.9,0.4,11.8-0.4c0,0,4.1-12.4-3.9-29.6L154.9,473.2z"/>
				<line class="st74" x1="160.7" y1="498.4" x2="111" y2="446.6"/>
				<line class="st74" x1="123.1" y1="459.3" x2="123.8" y2="449.4"/>
				<line class="st74" x1="129.9" y1="466.4" x2="112.4" y2="466.8"/>
				<line class="st74" x1="139.9" y1="476.7" x2="142.9" y2="461"/>
				<line class="st74" x1="148.7" y1="485.9" x2="132.1" y2="485.1"/>
			</g>
		</g>
	</g>
</g>
</svg>
