<?xml version="1.0" encoding="utf-8"?>
<!-- Generator: Adobe Illustrator 25.3.1, SVG Export Plug-In . SVG Version: 6.00 Build 0)  -->
<svg version="1.1" id="Layer_1" xmlns="http://www.w3.org/2000/svg" xmlns:xlink="http://www.w3.org/1999/xlink" x="0px" y="0px"
	 viewBox="0 0 379.8 380.6" style="enable-background:new 0 0 379.8 380.6;" xml:space="preserve">
<style type="text/css">
	.st0{clip-path:url(#SVGID_2_);}
	.st1{fill:#2E592C;}
	.st2{fill:#468045;}
	.st3{fill:#5C8F3E;}
	.st4{fill:#86AE49;}
	.st5{fill:#B4D875;}
	.st6{clip-path:url(#SVGID_4_);}
	.st7{fill:#F7F7F7;}
</style>
<g>
	<g id="Layer_2_1_">
		<g id="OBJECTS">
			<g>
				<defs>
					<circle id="SVGID_1_" cx="190" cy="190.8" r="190"/>
				</defs>
				<clipPath id="SVGID_2_">
					<use xlink:href="#SVGID_1_"  style="overflow:visible;"/>
				</clipPath>
				<g class="st0">
					<rect x="-60" y="-59.2" class="st1" width="500" height="500"/>
					
						<image style="overflow:visible;opacity:0.4;enable-background:new    ;" width="465" height="305" xlink:href="5366137D.png"  transform="matrix(1 0 0 1 -47.28 131.1567)">
					</image>
					<path class="st2" d="M381.2,239.4c-4.1-3.3-9.7-3.9-15-4c-14.3-0.4-29,1-42.2,6.5c-18.1,7.6-32.4,22.2-50,30.8
						c-2.5,1.2-5.1,2.3-7.9,1.9s-5.1-2.4-7.2-4.3l-80.4-72.8c-18.3-16.6-38.5-34-63.1-35.8c-27.7-2-52.2,16.1-74.8,32.3
						c-18.5,13.2-37.6,25.7-57.2,37.4l12.6,167.2c16,2.7,32.2,4.2,48.5,4.5c22.9,0.4,45.9-1.5,68.8-1c23.9,0.5,47.8,3.8,71.7,3.2
						c19.1-0.5,38.1-3.4,56.9-6.3l113.6-17.4c8.1-1.2,17.2-3,22-9.7c4.3-5.9,3.9-13.9,3.5-21.2c-1.5-28.2,0.1-56.6,4.7-84.5
						C387.4,256.8,388.6,245.4,381.2,239.4z"/>
					
						<image style="overflow:visible;opacity:0.4;enable-background:new    ;" width="505" height="491" xlink:href="5366137F.png"  transform="matrix(1 0 0 1 -53.28 -55.8433)">
					</image>
					<path class="st3" d="M-23-25.2v430h444v-430H-23z M170.6,256.1c-2.6-2.9-4.1-6.6-4.4-10.4l-0.6,0.2c0-0.1,0-0.3,0-0.4
						c0.8,0,1.5-0.6,1.7-1.4c0-0.1,0-0.2,0-0.3c0.6,0.3,1.3,0.5,2,0.5c-0.5,0.3-0.7,0.9-0.4,1.3c0,0.1,0.1,0.2,0.2,0.3
						c0.5,0.4,1.2,0.5,1.8,0.3L170.6,256.1z M166.8,253.4c-1.5-1.1-2.8-2.4-3.9-3.9c0.6-0.3,1.1-0.7,1.6-1.2
						C165.2,250.1,166,251.8,166.8,253.4L166.8,253.4z M176.2,280.8v-0.2l0.4,0.2L176.2,280.8z M333.4,264.5c-4.6,2-8.5,5.6-10.8,10
						l0.2,0.2c-1.4,0.2-2.9,0.4-4.3,0.5c-8.2,0.7-16.2-2.1-24.1-4c-19.1-4.5-39.1-3.6-58.3,0c-5.2,1-10.4,2.2-15.6,3.2
						c-9.4,1.9-19,3.5-28.6,4.6c-3.4,0.4-10.9,2.6-14.1,1.4c-2.9-1.1-1.6-7.6-1.4-10.9c0-1.2,0.2-2.5,0.6-3.7
						c0.9-1.9,2.5-3.5,4.5-4.3c2.1-1.1,3.8,0.6,6.2,0c1.7-0.5,3.2-2.2,2.5-3.8c2.9,0.9,6-0.7,6.9-3.6c0,0,0-0.1,0-0.1
						c0.4-1.5-0.3-3.5-1.8-3.8c1.4,0.1,2.8-0.6,3.5-1.9c0.6-1.3,0.7-2.8,0.3-4.1c-0.2-1.1-0.8-2.1-1.6-2.9c-0.8-0.8-2-1.1-3.1-0.8
						c1-1.8,0.3-4-1.5-5c-0.7-0.4-1.4-0.5-2.2-0.4c0.6-1.5,0.3-3.2-0.8-4.5c-0.3-0.9-1.1-1.6-2-1.8c0.5-0.2,0.8-0.7,0.9-1.2
						c0.1-1-0.4-2-1.3-2.5c-0.9-0.5-2-0.7-3-0.5c-1.7,0.1-3.7,0.8-4,2.5c-1.9-2-5.1-2.1-7.1-0.2c-0.6,0.6-1.1,1.3-1.4,2.2
						c0-1.1-1.7-1.3-2.7-0.7c-1.9,1.3-2.5,3.9-1.5,5.9c-1-0.6-2.3-0.3-3,0.6c-0.4,0-0.8,0.2-1,0.5c0.2-0.8-0.2-1.6-0.9-1.9
						c-0.7-0.3-1.5-0.3-2.2-0.1c-0.8,0.1-1.5,0.4-2.1,0.9c-0.6,0.5-0.8,1.4-0.4,2.1c-1.4-0.4-2.8-0.5-4.2-0.1
						c-1.4,0.5-2.4,2.1-1.8,3.4c-0.6-0.4-1.4-0.2-1.9,0.3c-0.7,0.6-0.7,1.6-0.2,2.3c-1.2,0.1-2.1,1.2-1.9,2.4
						c0.1,0.9,0.8,1.7,1.7,1.9c-0.4-0.1,0,1.7,0.1,1.9c0.5,0.5,1.2,0.6,1.9,0.3c0.4,3.3,3.2,2.6,3.8,2.2c0.3,0.9,1.2,1.4,2.2,1.2
						c0.3-0.1,0.6-0.3,0.8-0.6c2.1,0.1,3.9,1.6,5.6,3l4.1,3.5c0.3,0.2,0.5,0.5,0.7,0.8c0.1,0.4,0.2,0.7,0.2,1.1l0.3,11.6
						c0.1,3,0.1,6.1,0.1,9.1l-21.4-0.3c0.7-1.3,0.8-2.8,0.4-4.2c-0.4-1.1-1.8-2-2.8-1.2c0.8-0.7,0.9-2,0.2-2.8
						c-0.7-0.8-2-0.9-2.8-0.2c-0.2,0.2-0.4,0.4-0.5,0.6c0.6-1.5-0.2-3.1-1.6-3.7c-0.2-0.1-0.4-0.1-0.6-0.2c-1.8-0.1-3.4,1.2-3.7,2.9
						c0.3-1.1-0.3-2.2-1.4-2.6c-1.1-0.3-2.2,0-3,0.8c-0.7,0.8-1.2,1.8-1.3,2.9c-0.8-1.4-2.7-1.9-4.1-1.1c-1.2,0.7-1.8,2.2-1.4,3.5
						c-1.1,0-2.1,0.7-2.6,1.7c-0.3,1-0.5,2-0.6,3.1l-0.5-0.1c-9-1.9-17.6-3.4-26.4-6.5c-9.2-3.3-18.2-7.2-27.6-10.1
						c-1.2-0.4-2.5-0.7-3.8-0.9c0,0,0-0.1,0-0.1c-0.4-2.4-2.2-4.7-4.6-4.8c0.5-1.6,0.7-3.3,0.5-5c-0.1-1.7-1.2-3.3-2.8-4
						c-0.6-0.1-1.3-0.1-1.9,0c-0.7-0.1-1.5-0.1-2.2,0c-0.7-0.7,0.1-1.9,0.1-2.8c0.1-1.1-0.2-2.3-0.7-3.3c-0.1-0.2-2-2.4-2.2-2.1
						c2.2-4.8,4.4-9.8,4-15s-4.6-10.7-9.9-10.3c2.7-7.2,2.5-2.4-0.4-9.5c-0.9-2.2-2.1-4.4-2.2-6.8s0.9-4.6,1.5-6.8
						c1-4.4,0.5-8.9-1.6-12.9c6.8-7.8,6.7-20.6-0.2-28.3c5.8-4.6,6.2-14.6,0.7-19.5c6.2,0.9,11.9-3.4,12.8-9.6
						c0.5-3.3-0.5-6.6-2.8-9.1c5.3,0.9,10.6-1.8,13.1-6.6c0,0,0,0,0-0.1c1.9-0.4,3.7-1.2,5.2-2.4c1.9-1.4,3.5-4.3,1.8-6
						c3.3,1,7.1,1.1,10.1-0.6s5-5.5,3.9-8.8c1.7,0.7,4.3,1.2,5.3,2.7c2.2,0.3,5,0.4,6.6-2c1.4-2.2,1-5.1-1-6.8
						c5,0.8,10.1-4.2,9.3-9.2c6.8,5.4,18.5,2,21.4-6.2c11,3.7,23.1,0.8,31.1-7.6c4.7,7.3,17.9,5.6,20.6-2.6c0.6,4.2,4.5,7.1,8.7,6.5
						c3.4-0.5,6.1-3.2,6.5-6.7c7.3,3.8,15-1.9,17.9-8.5c1.9,0.8,25.9,6.9,24-1c2.5,10.7,17,16.3,26,10c0.4,5,4.6,9,9.3,10.8
						s9.9,1.6,14.9,1.5c-4.9,4.6-3.6,13.2,0.9,18.2s11.2,7.3,17.6,9.5c3.6,24,9.3,19,29.5,32.5c-9.8,6.1-15.8,16.7-15.9,28.3
						c0,6.8,2.1,13.4,4.4,19.8c0.6,1.8,1.3,3.7,0.9,5.5c-0.5,2.4-2.5,4-4.1,5.9c-4.1,5-5.1,11.8-2.6,17.8c2.5,5.8,8.4,4,9,8.4
						c0.7,4.5,4,8.1,8.5,9.2c-4.1,0.3-6.8,5.1-6.2,9.2s3.5,7.5,6.7,10.2C328.4,247,326.9,259.1,333.4,264.5z M176.7,250.8
						c0.1,0.9,0.7,2,1.5,1.9c-0.9,0.6-1.1,1.8-0.5,2.6c0.4,0.6,1.2,1,1.9,0.8c0,1.3-1.2,2-3.4,4.3c0,0,0.3-4.5,0.3-5.7
						S176.6,252.1,176.7,250.8C176.6,250.3,176.7,250.4,176.7,250.8z M181.2,250.9c1,0.1,2-0.4,2.6-1.3l-0.2,2.3
						C182.9,251.4,182.1,251,181.2,250.9L181.2,250.9z"/>
					
						<image style="overflow:visible;opacity:0.4;enable-background:new    ;" width="506" height="491" xlink:href="5366137A.png"  transform="matrix(1 0 0 1 -59.28 -55.8433)">
					</image>
					<path class="st4" d="M-29-25.2v430h445v-430H-29z M158.7,313.8c1.4-1.1,2.3-2.7,2.5-4.4l11.2-1.2l2.5,5.2v2.4
						c-5.3-0.4-10.6-0.8-15.8-1.2L158.7,313.8z M158,314.4L158,314.4z M282.4,255.3c-2.2-6.1-8.8-9.1-11.8-14.8
						c-0.9-1.6-1.4-3.4-1.6-5.2l0,0c1.7,0.4,3.5-0.3,4.5-1.8c-0.9,3.7,1.3,7.5,4.9,8.5c-1,1.3-0.7,3.1,0.6,4.1
						c1,0.8,2.3,0.8,3.4,0.1c0.4,1.1,1.3,2,2.5,2.3C283.8,250.8,283,253,282.4,255.3L282.4,255.3z M292,246.3c1.8,1,3.9,1,5.8,0.2
						c1.8-0.9,3.4-2.2,4.5-3.8c-0.7,1,0.4,2.3,1.6,2.6s2.4-0.2,3.6-0.1c-0.6,0.5-1,1.3-0.9,2.1c-2.7,1.2-4.7,2.5-7.7,3.6
						s-7.5,2.7-10.1,4.7c0.4-2.1,0.7-4.2,0.9-6.4c0.8,0,1.5-0.3,2.1-0.7C292.2,247.9,292.4,247,292,246.3L292,246.3z M307.9,250
						c0.9,0.7,2,1.3,3.1,1.7c-1.1,0-2.1,0.6-2.6,1.6c-1.8-0.1-3.6-0.4-5.3-0.8C304.5,251.2,306.1,250.4,307.9,250L307.9,250z
						 M358.3,251.1c-10.9,2.8-14.1,19.9-5,26.5c-7.7-1.2-15.7,5.8-15.4,13.7c-5,0.6-8.5,6.7-6.4,11.3c-12.6,4.2-25.4,7.6-38.4,10.2
						c-0.5-16.6-0.3-37.3,0.5-52.4c0-0.5,0.1-1,0.3-1.4c0.4-0.5,0.8-0.8,1.4-1c2.8-1.3,5.8-2.7,8.8-2.2c1.3,0.2,2.8,0.6,4.3,0.7
						l0.2,0.2c-1.2,0.5-2.2,1.4-2.7,2.7c-0.5,1.3-0.1,2.7,1,3.5c1.1,0.7,2.5,0.3,3.1-0.7c0.1-0.1,0.1-0.2,0.1-0.3
						c3.1,1.8,6.6,2.7,10.2,2.4c1,0,2-0.4,2.7-1c0.7-0.7,0.8-1.8,0.1-2.5c0,0-0.1-0.1-0.1-0.1c1.9,1.5,4.5,1.4,6.3-0.1
						c1.7-1.7,1.8-4.4,0.1-6.1c0,0,0,0,0,0c1.4,0.5,2.8,0.6,4.2,0.3c1.4-0.4,2.5-1.5,2.8-3c0.1-0.7-0.2-1.5-0.7-2.1
						c-0.5-0.4-1-0.8-1.6-1c0,0-0.2-1.2-0.4-1.8c-0.2-0.7-0.6-1.3-1.1-1.8c-0.4-0.4-0.9-0.6-1.4-0.9c-0.8-0.3-1.6-0.4-2.4-0.4
						c-0.7,0-2.3,1-2.8,0.7c-0.3-0.2-0.5-1.1-0.7-1.5c-0.3-0.4-0.6-0.8-1-1.1l-0.2-0.1c1.2-1.3,1.2-3.3-0.1-4.5
						c-0.1-0.1-0.1-0.1-0.2-0.2c0.2-0.2,2.3-3.5-0.1-5.9c-1.6-1.6-3.8-2.2-6-2.8c2.4,0.4,4.3-2.4,3.9-4.8s-2.3-4.2-4.3-5.5
						c-1.8-1.2-3.8-2.1-5.9-2.8c1-1.1,1.2-2.7,0.5-4c-0.7-1.3-1.6-2.4-2.7-3.2c-1.5-1.5-3.3-2.5-5.3-3.2c-2-0.5-4.4,0-5.5,1.8
						c-0.3-2.1-1.8-3.8-3.9-4.4c-2-0.5-4.2-0.3-6.1,0.4c-2.7,0.9-5.4,2.8-5.8,5.6c-1.6-1.9-4.6-2.1-6.9-1.1s-4,3-5.6,4.9
						c-1.8-3.6-6.1-5.1-9.7-3.4c-2.2,1.1-3.7,3.2-4,5.7l-2.1,26.5c0.8,1.6,2.5,2.5,4.2,2.3c2-0.2,3.1-1.9,4-3.5l9.5,9.6
						c0.9,0.8,1.7,1.7,2.3,2.7c0.9,1.5,1.5,3.2,1.8,4.9c3.7,17,0.6,41.4-3.3,59.1c-12.2,1.6-24.4,2.5-36.7,2.6
						c-17.5,0.2-35-1-52.5-2.4l0.6-5l4.5-4.9l0.5-8l0.8-1.2l2.4-3.7l0.1-0.2l2.7,3.4l0,0c0,0.1,0,0.1,0.1,0.2c0.4,0.9,2.3,0.9,4.2,0
						c1.6-0.8,2.6-1.9,2.7-2.8l0,0c0-0.3-0.1-0.6-0.3-0.8l-4.8-11.1c1.6-0.4,2.8-1.6,3.3-3.2c-1.5-0.2-3,0.3-4.1,1.3l-0.4-0.9l3.2-2
						l-2.6-4.7l0.4,3.3l-3.3,1.9c-0.1,0-0.2,0.1-0.3,0.1l-7.8,3l0,0l-3.5,1.5l-2.4-2.3l2.2,4.8l-2.2,0.9l0,0c-0.4,0-0.7,0-1.1,0.1
						l-9.8,1.1l-10.2-2.1c-1.9-0.4-3.8-0.3-5.6,0.2l-1.5,0.4c-0.8,0.2-1.5,0.5-2.2,0.9c-2.8-1.2-6-0.7-8.3,1.3
						c-2.2,2-3.7,4.6-4.4,7.4c-0.1,0.4-0.2,0.8-0.3,1.2c-0.3,1.2-0.7,2.3-1.1,3.4c-0.2,0-0.3,0-0.5,0c-1.3,0-1.9,1.3-1.9,2.5
						c0,1,0,2,0,2.9c0.1,0.4,0.1,0.9,0,1.3c1.3-1,2.8-1.5,3.8-2.8c0.5-0.6,0.7-1.5,0.5-2.2c-0.2-0.4-0.4-0.8-0.8-1
						c0.5-1.2,0.9-2.4,1.2-3.6c0.1-0.4,0.2-0.8,0.3-1.2c0.6-2.6,2-5,3.9-6.8c1.7-1.5,3.9-2,6.1-1.5c-3.9,2.8-5.7,7.6-4.6,12.3l2,8.5
						l-0.4,5.5l-1.2-0.1c-15.1-0.9-30.3-0.8-45.4,0.4c-6,0.5-17.2,4.6-22.8,3.3c-1.4-0.3-11.7-9.1-13-6.5
						c3.9-7.6-3.2-18.1-11.7-17.4c2.1-2.9,0.8-7.3-1.9-9.7s-6.4-3.3-9.9-4.1c0.4-5.5,0.8-11.2-1.1-16.4s-6.8-9.7-12.3-9.4
						c3.2-3.1,2.6-8.4,0.8-12.6s-4.5-7.9-4.8-12.4c-0.2-3.7,1.2-7.3,0.9-10.9s-3.8-7.6-7.1-6.2c2.6-6.5,0-13.8-6-17.4
						c6.3-2.9,8.8-11.9,4.9-17.6C28.8,160.3,32.5,137,35.5,115c6.6-3.1,13.1-6.6,17.7-12.2s6.7-13.7,3.5-20.2
						c8.6-1.4,14.7-11.2,12.1-19.5c7.6,0.8,15.3-5.2,16.4-12.8c20.6,0.9,34.4-24.8,55-25.7c7.6-0.3,14.8,2.9,22.1,4.4s16.2,1,21-4.8
						c6.6,0.7,13.1-2.1,17-7.5c4.6,13,23.4,18.2,34,9.4C234.3,33,240,38.8,247,38.9c5.2,0,10-3.1,12-7.9c3.7,3.9,9.8,4.2,13.8,0.6
						c4.1,4.3,10.3,5.8,15.9,3.8c-4.8,6.3-5.2,14.9-1,21.6c4.5,6.5,12.6,9.5,20.3,7.5c9.2,17.6,14,37.1,14.2,57
						c0,1.3-0.1,2.8-1.2,3.4l-0.2,0.1c15.5,20.8,29.2,42.8,41.1,65.8c-13.6,11.4-13.3,35.6,0.7,46.6
						C356.2,237.3,353,247.5,358.3,251.1L358.3,251.1z M264.5,232.9c0.4,0.3,0.7,0.5,1.1,0.8c0.4,2,1,3.9,1.6,5.8
						c-1.2-0.3-2.3-1.1-3.1-2.1l-0.5-0.6C264.3,235.1,264.9,233.2,264.5,232.9L264.5,232.9z"/>
					
						<image style="overflow:visible;opacity:0.4;enable-background:new    ;" width="373" height="186" xlink:href="5366137B.png"  transform="matrix(1 0 0 1 4.72 233.1567)">
					</image>
					<path class="st5" d="M340.6,304.6c0-1,0-1.9-0.1-2.9c-0.1-2.8-0.3-5.5-0.7-8.3c-0.3-2.8-0.9-5.6-1.6-8.3
						c-0.5,1.8-0.9,3.7-1.2,5.6l-0.2-0.6c-1.6-3.9-3.9-7.6-6.6-10.9c1.3,4,2.6,8,3.6,11.9s1.9,7.9,2.5,11.9c0.4,2.5,0.7,5,1,7.6
						c-2.6,0-5.1,0.6-7.5,1.6c0-0.4,0-0.7,0-1.1c-0.1-3.2-0.2-6.5-0.4-9.8s-0.3-6.6-0.8-10c-1.2,3.2-2,6.5-2.4,9.8
						c-0.4,3.3-0.6,6.7-0.5,10c0,1.1,0.1,2.1,0.2,3.2c-0.5,0.4-1,0.8-1.4,1.2c0-0.7,0-1.4-0.1-2.1c-0.1-3.3-0.2-6.6-0.4-10
						s-0.4-6.7-0.9-10.1c-1.1,3.2-1.9,6.6-2.2,10c-0.4,3.4-0.5,6.8-0.4,10.2c0,1.7,0.2,3.4,0.4,5.1l-1.2,0.3
						c0.5-3.8,0.8-7.6,0.9-11.5c0.2-5.4,0-10.8-0.5-16.1c-0.5-5.3-1.4-10.6-2.8-15.8c-0.2,5.4-0.3,10.7-0.4,16s-0.2,10.6-0.4,15.9
						c-0.1,4.1-0.3,8.3-0.5,12.4l-1.4,0.3c0-1.4,0-2.9-0.1-4.3c-0.3-5.2-0.9-10.5-2-15.6c-1-5.1-2.5-10.2-4.4-15.1
						c0.3,5.2,0.8,10.4,1.3,15.5s0.9,10.2,1.1,15.3c0.1,1.8,0.1,3.7,0.1,5.5l-3,0.2c-0.1-0.9-0.2-1.7-0.2-2.6
						c-0.4-3.3-0.7-6.5-1.3-9.9c-1,3.2-1.6,6.6-1.8,10c-0.1,1.1-0.1,2.2-0.1,3.4c-1.6,0.3-3.2,0.9-4.7,1.6c-0.1-0.3-0.1-0.6-0.2-1
						c-0.7-3.3-1.8-6.5-3.2-9.6c-0.1,3.4,0,6.7,0.1,10c0,1.1,0.1,2.3,0.2,3.4c-1.9,3-1.4,7.1-0.9,10.8c-1.2-0.4-2.4-0.6-3.6-0.5
						c0.2-2.4,0.4-4.7,0.6-7.1c0.4-4.6,0.9-9.1,1.2-13.8c-1.9,4.3-3.3,8.7-4.3,13.3c-0.6,2.8-1.1,5.5-1.4,8.3
						c-0.4,0.1-0.7,0.3-1,0.4c-0.4-4-0.7-8-1-11.9c-0.4-5.2-0.6-10.5-0.8-15.7c-0.2-5.2-0.3-10.5-0.5-15.9
						c-1.4,5.2-2.3,10.5-2.7,15.8c-0.8,10-0.2,20,1.8,29.8c-1.6,1.4-2.7,3.1-3.4,5.1c-0.1-0.6-0.3-1.3-0.4-1.9
						c-1-4.3-2.4-8.4-4.2-12.4c-1.8-4-3.8-7.8-6.2-11.5c0.9,4.3,2.1,8.4,3.3,12.5s2.3,8.2,3.3,12.3c0.2,0.8,0.3,1.5,0.5,2.3
						c-2.2,0.7-4,2.5-4.7,4.7c-2.5-0.4-5-0.8-7.5-1c0,0,0,0,0,0c-0.1-0.7-0.3-1.4-0.5-2c0.1-1.1,0.1-2.2,0.1-3.3
						c0.2-5.3,0-10.7-0.6-16c-0.5-5.3-1.6-10.5-3.1-15.7c-0.1,5.3,0,10.6,0,15.8c0,2.8,0,5.6-0.1,8.3c-1.6-3.7-3.7-7.2-6.2-10.3
						c1.1,4.1,2.4,8,3.4,12c1,3.5,1.8,7,2.6,10.5l-0.3,0.3c-6.6-0.3-13.1-0.1-19.7,0.5c2.2-2.7,1.8-6.7-1-8.9
						c-2.2-1.7-5.2-1.9-7.5-0.4c-3.8-4.4-8.4-8-13.6-10.5l-14.6-7l0,0c0.1-0.3,0.1-0.5,0.1-0.8c3.2-0.5,6.5-1.2,9.6-2.1
						c8.6-2.4,15.3-5.5,14.9-6.9s-7.7-0.5-16.3,1.9c-3.1,0.9-6.2,1.9-9.3,3.1c-0.2-0.3-0.4-0.5-0.6-0.8c3.4-1.2,6.7-2.6,9.9-4.2
						c8-4,14-8.3,13.3-9.6s-7.6,0.9-15.6,5c-3.9,1.9-7.6,4.1-11.1,6.7c-0.4-0.1-0.8-0.2-1.2-0.2c-5.3-0.4-10.1,3.6-11.8,8.5
						c-0.3,0.8-0.4,1.6-0.4,2.4c0.2,4,4,4.5,7.1,4.2l2.8,10.2l-6.6-0.8l-1.6,1.1c-0.7,0.5-0.9,1.5-0.5,2.2c0.4,0.6,1,0.8,1.7,0.7
						c-0.1,0.9,0.5,1.6,1.4,1.7c0.6,0.1,1.1-0.2,1.5-0.7l0.6-0.8l6.7,1.6l1.1,1.2l0,0l3.7,5.2l-6.9,1.2c-2.3,0.4-4.2,1.9-5.2,4.1
						l-0.1,0.3c-19.3,2.7-39.4,3.5-57.4-2.9c-0.4-2.1-1.1-4.1-2-6c-0.5,1.6-0.8,3.2-0.9,4.9c-1.6-0.6-3.2-1.4-4.8-2.1l-2.6-1.3
						c0-0.5,0-1,0-1.4c-0.1-4.3-0.6-8.6-1.3-12.8c-0.7-4.2-1.9-8.4-3.4-12.4c0,4.3,0.2,8.6,0.3,12.8l0.4,11.9
						c-2.6-1.3-5.3-2.4-8.1-3.2c0-1,0-2.1,0-3.1c-0.1-3.6-0.3-7.2-0.7-10.8c0.3-1.3,0.7-2.6,1.1-3.9c1.7-5.2,4.2-10.1,7.6-14.4
						c-4.1,3-7.5,7-9.7,11.6c0-0.1,0-0.2,0-0.3c-0.9-5.9-2.2-11.7-3.8-17.5c0,6,0.4,11.9,0.7,17.8c0.1,2.3,0.2,4.5,0.3,6.7
						c-1.2,3.8-2,7.6-2.5,11.6c-0.1,0.5-0.1,1.1-0.2,1.6c-1.4,0.2-2.7,0.5-4,1.1c-0.1-0.3-0.3-0.7-0.4-1c0.3-2.8,0.6-5.6,1-8.4
						c0.5-3.5,1-6.9,1.5-10.6c-1.8,2.9-3.3,5.9-4.3,9.2c0-1.4,0-2.8,0-4.2c0.1-4.6,0.4-9.2,0.8-14c-1.9,4.4-3.2,9-3.9,13.7
						c-0.5,3.2-0.7,6.4-0.7,9.6c-0.8-0.2-1.6-0.4-2.3-0.4c-0.1-0.7-0.1-1.4-0.2-2c-0.5-4.3-1.3-8.6-2.3-12.8c-1-4.3-2.3-8.4-4-12.5
						c0.1,4.4,0.5,8.7,0.8,13c0.2,2.2,0.5,4.4,0.7,6.6c-0.7-1.9-1.8-3.7-3.1-5.2c-2.7-3-7.1-4.6-10.8-3.5c0-3.2,0.1-6.5,0.2-9.7
						c0.2-5.4,0.7-10.8,1.2-16.2s1.3-10.8,2.1-16.3c-2.3,5.1-4,10.4-5.2,15.8c-1.2,5.4-1.9,11-2.2,16.5c-0.1,2.5-0.1,5,0,7.5
						c-0.7-0.9-1.5-1.6-2.5-2.2c0.2-5.5,0.2-10.9,0.2-16.4c0-2.4-0.1-4.9-0.2-7.3c0.3-4.6,1.3-9.2,3.1-13.4
						c-1.4,1.6-2.6,3.4-3.5,5.4c-0.1-0.9-0.1-1.8-0.2-2.8c-0.4-6-1.1-12-2.1-18c-0.6,6.1-0.8,12.1-1,18.1
						c-0.1,5.3-0.1,10.6-0.1,15.9c-0.2,1.3-0.3,2.6-0.4,3.9c-0.2,2.6-0.4,5.2-0.6,7.8c-0.1,1.7-0.2,3.5-0.2,5.2
						c-0.7-0.1-1.4-0.2-2.1-0.4c-0.2-2.2-0.4-4.4-0.8-6.6c-0.9-5.9-2.2-11.8-4-17.5c2.2-4.8,4.5-9.6,6.6-14.6
						c-2.9,3.4-5.5,7-7.9,10.8c-1.5-4.4-2.9-8.6-2.9-13.3c-0.8,2.9-0.9,6-0.5,9c0.3,2.6,0.9,5.1,1.4,7.6c-2.8,4.8-5.1,10-6.9,15.3
						c-0.4,1.2-0.7,2.4-1,3.6c-0.6,0.2-1.1,0.4-1.6,0.6c-0.1-1.8-0.1-3.6-0.1-5.4c0-3.7,0.3-7.4,0.5-11.1s0.2-7.5,0.4-11.2
						c0.1-3.7,0.7-7.4,1.8-11c-1.3,1.5-2.4,3.1-3.2,4.9c-0.8,1.8-1.4,3.7-1.8,5.6c-0.1,0.4-0.2,0.9-0.2,1.3
						c-0.1-2.7-0.4-5.3-0.9-7.9c-0.6-3.3-1.6-6.5-3-9.5c-0.2,3.4-0.2,6.6-0.1,9.9l0.1,9.6l0.2,9.6c0.1,3.2,0.2,6.5,0.5,9.9
						c0.9-2.2,1.6-4.5,2.1-6.8c0,2.3,0.2,4.6,0.5,6.9c0.3,2.1,0.8,4.2,1.5,6.3c-1.3,1.1-2.2,2.7-2.6,4.4c-1.2,5,1,10.4,4.3,15.4
						c0.4,3,1.1,5.9,2.2,8.7c-0.1-2-0.2-4-0.2-6c2.7,3.4,5.6,6.6,8.7,9.6c18.9,18.5,42.6,31.3,68.4,37c17,3.7,34.4,4.3,51.8,4.8
						c19.6,0.6,39.2,1.2,58.8,0.6c9.9-0.4,20-1,29.5-3.8c10.7-3.1,20.5-8.7,30.2-14.3c0.3,0.5,0.6,0.9,1,1.4
						c-0.2-0.6-0.4-1.1-0.5-1.7l0.6-0.4l26.2-15.3c4.5-2.6,9-5.2,12.5-9c8.3-8.8,9.7-21.7,10.8-33.7c-0.2,0-0.4-0.1-0.6-0.1
						C341,308.9,340.8,306.7,340.6,304.6z M47.4,311.2c0.2-0.6,0.4-1.3,0.6-1.9c1.2-3.7,2.7-7.4,4.2-11.1c0.8,4.4,1.6,8.7,2.2,13.1
						c0.2,1.2,0.3,2.5,0.5,3.7C52.6,313.3,50.6,311.5,47.4,311.2z"/>
					<path class="st5" d="M346.7,275.6c-0.7-4.1-1.9-8.2-3.5-12l0.4,12.3c0.1,4,0.1,8.1,0.1,12.1s-0.2,8-0.5,12.1s-0.6,8.1-0.9,12.3
						c1.8-3.8,3.2-7.8,4-11.9C348,292.3,348.1,283.8,346.7,275.6L346.7,275.6z"/>
					<g>
						<defs>
							<rect id="SVGID_3_" x="-60" y="-59.2" width="500" height="500"/>
						</defs>
						<clipPath id="SVGID_4_">
							<use xlink:href="#SVGID_3_"  style="overflow:visible;"/>
						</clipPath>
						<g class="st6">
							
								<image style="overflow:visible;opacity:0.6;enable-background:new    ;" width="650" height="561" xlink:href="53661385.png"  transform="matrix(1 0 0 1 -110.28 -89.8433)">
							</image>
							<path class="st7" d="M276.6,253.2c-0.2,0.6,0,1.7-0.3,2.1c-0.9,1.1-2.7,3.8-4,4.6c-1.7,1.2-3.8,1-3.8,4.4
								c0,1.1,0.9,2.8,0.9,3.6c0,0.1-1.1,3.1-1.1,3.1c-0.5,0.4-0.9,0.8-1.2,1.4c0,1,0,2.2,0.7,2.8c0.1,0.5-0.1,0.8-0.1,1.7
								c0,1.8,1.3,3.8,2.7,3.8c3.5,0,4-4.6,5.1-7.8c1.3-4,2.6-7.4,2.6-12.5c0.3,0.1,0.7,0.2,1,0.3v-1
								C278.4,258,278.6,253.5,276.6,253.2z"/>
							<path class="st7" d="M327.2,214.8c0,1,0.6,1.9,1.5,1.9c1.1,0,1.8-1.6,1.8-2.8c0-2.2-1.7-3.1-2.5-4.7
								C328,211.3,327.2,212.8,327.2,214.8z"/>
							<path class="st7" d="M370.2,239c0-0.6-0.1-1.3-0.2-1.9v-3c-0.2-0.5-0.4-0.9-0.7-1.3c-0.6-0.8-1.3-1.2-1.3-2.6
								c-0.6,0-1.1-0.2-1.1-1.1l0.2-0.7c-0.1-0.3-0.3-0.6-0.5-0.5h-0.5c0-0.1,0.1-0.3,0.1-0.4c0-1-1-1.4-1.9-1.7
								c-1.6-0.6-2.3-1.5-3.4-2.8c-0.6-0.7-1-1.5-1.9-1.9c-0.2-0.1-0.5,0-0.6-0.4c-0.6-1.3-1.4-2.6-2.1-3.8h-1.9c0,0-0.6,0.5-1.2,1
								H353v0.1c0.2,0.7,1.1,2.6,1.5,2.8s1.1,0,1.3,0.6c0.4,0.8,0.5,1.2,0.9,2.1s1.7,0.7,2.1,2.3c0.1,0.8,0.4,1.7,0.8,2.4
								c0.2,0.1,0.9,0.2,0.9,0.4s0,0.6,0.2,0.6c0.4,0.5,0.8,1.1,1,1.7c0.5,1.5,1.3,3,2.3,4.2c1,1.2,2.1,1.8,3.2,3.1
								c0.1,0.1,1.1,1.9,1.4,1.9S370.2,239.8,370.2,239z"/>
							<path class="st7" d="M446.2,240.4c0-1.2,1.2-1,1.2-2.4c0-0.4-0.2-1-0.5-1c-0.8,0-0.5,1.5-1.3,2c-0.5,0.3-1.4,0.2-2.3,0.6
								c0,0-0.5,0.3-0.6,0.2H441c0.1,0.8,1,0.7,1.5,1.2l0,0l0.1,0.1l-0.1-0.1c0.2,0.2,0.5,0.4,0.9,0.5
								C444.6,241.5,445.1,240.8,446.2,240.4z"/>
							<path class="st7" d="M447.7,235.4c-0.5-0.9-1.3-1.6-2.3-2c0.2,0.6,0.6,0.5,1,0.8c0.8,0.6,0.6,1.3,1.4,1.7
								c-0.1,0.7-0.1,1.2,0.6,1.3c0.1,0.1,0.2,0,0.3,0c0-0.2,0-0.3,0-0.5C448.8,235.9,448.2,236,447.7,235.4z"/>
							<path class="st7" d="M451.2,239.1c-0.1,0.7,0.1,1.4,0.8,1.5v0.6c0,0.2,0.2,0.5,0.4,0.5s0.4-0.4,0.4-0.6
								C452.3,240.4,451.8,239.7,451.2,239.1z"/>
							<path class="st7" d="M462.7,248.4c0,0.4,0.4,1.4,0.9,1.4c-0.1-0.1,0-0.3,0-0.4C463.6,248.9,463.1,248.8,462.7,248.4z"/>
							<path class="st7" d="M460.1,247.3c0,0.8,0.9,1.1,1.6,1.1c0.1,0,0.2-0.1,0.3-0.1C461.6,247.6,460.9,247.2,460.1,247.3z"/>
							<path class="st7" d="M460.4,244.6c0.1,0.5,1.1,2.2,1.7,2.2C461.8,245.9,461.2,245.1,460.4,244.6z"/>
							<path class="st7" d="M457.1,242.5l-0.1,0.2h-0.1c0,0.8,1.3,1.3,1.8,1.3c0.2,0,0.3-0.1,0.5-0.1
								C458.8,243.3,457.6,242.9,457.1,242.5z"/>
							<path class="st7" d="M454.6,241c0,0.1-0.2,0.1-0.3,0.1l0.9,0.7h0.5C455.4,241.2,455,241.3,454.6,241z"/>
							<path class="st7" d="M454.3,241.2c0.1,0.1,0.2,0.1,0.3,0.2l0,0L454.3,241.2z"/>
							<path class="st7" d="M482.6,315c-0.2,0-0.4-0.1-0.4-0.3c-0.3,0.1-0.6,0.6-1,0.6s-0.3-0.5-0.3-1c-0.2,0-0.4-0.2-0.4-0.7
								c-0.8,0.5-1.3,1.3-1.4,2.3c0,0.1-0.1,0.3-0.1,0.4c-0.5,0-0.8,0.3-1,0.8c0,0.2-0.1,0.5-0.1,0.7c-0.3,0.6-0.7,1.2-1.1,1.7
								c-1,0.6-1.9,2.3-3.2,2.3c-0.4,0-0.7,0.4-0.9,0.9c-0.6,1-2.3,2-2.3,3.8c0,0.1,0.1,0.3,0.3,0.3c0,0.4,2.2,1.4,2.6,1.4
								s1,0.4,1.3,0.4c0.6,0,1.7-1,2.2-1.7c0,0,1.6-4,1.8-4.9c0.5,0,1.9-0.4,2.1-0.4c0.1-0.8-0.2-1.1,0-2.1c0.9,0,2.1-2.6,2.3-3.5
								C482.8,315.9,482.6,315.5,482.6,315z"/>
							<path class="st7" d="M489.6,306.6c-0.9,0-0.9,0.7-2,0.7c-1.4,0-2.1-1-2.1-2.5h-0.3c-0.3-0.3-0.5,0-0.5,1h-0.4
								c-0.3-1-1-2.5-1-2.8s0.2-0.3,0.2-0.5c-0.4-0.2-0.4-0.7-0.7-1.1c-0.6-0.7-1.6-0.8-2.2-1.9c0.4,1.7,1.1,4,2.5,4.2
								c-0.1,0.2-0.1,0.5-0.2,0.7c0,0.6,0.5,0.8,1,1.3l0,0c-0.3,0.4-0.1,0.9-0.1,1.4c0.1,1-0.2,1.9-0.7,2.7
								c-0.3,0.4-0.8,0.4-0.8,1.1c0,1.2,2.1,0.7,2.1,2.1c0,0.8-0.7,1.2-0.7,2c0,0.5,0.3,0.9,0.8,0.9c0,0,0.1,0,0.1,0
								c1.2,0,1.6-1.4,2.1-2.4c0.1-0.2,0.8-0.9,0.8-1.4c0-0.2-0.2-0.5-0.2-0.7c0-0.5,0.6-0.8,1.2-0.9c0.1,0,0.1-0.2,0.2-0.2l0.2,0.4
								c0.6-1,0.3-2.5,1.2-3.5C490,306.8,489.8,306.6,489.6,306.6z"/>
							<path class="st7" d="M490,264.4v-0.8c-0.3-0.1-0.6-0.3-0.7-0.6c-0.5,0.2-1.3,0.4-1.3,1.3c0,0.3,0.8,0.4,1.2,0.4
								S489.6,264.8,490,264.4z"/>
							<path class="st7" d="M490.2,261.9c0,0.2,0.2,0.6,0.4,0.6c0.6,0,0.8-0.7,1.4-0.9V261C491.6,261,490.2,261,490.2,261.9z"/>
							<path class="st7" d="M378.8,188.8c0-0.4-0.4-1-0.7-1c-0.8,0-2.7,1.7-3.2,1.7c-0.3,0,0,0.6,0,1c0,0.9,0.4,1.4,1.3,1.4
								S378.8,189.8,378.8,188.8z"/>
							<path class="st7" d="M370.6,232.4c0.1,0.2,0.3,1,0.4,1s0.4,0.4,0.8,0.4h0.4c-0.1-0.2-0.1-0.5-0.1-0.7c-0.8,0-1.2-1.3-1.5-2.4
								c-0.4,0.1-1.2,0.6-1.2,0.9C369.4,232.2,370.4,231.8,370.6,232.4z"/>
							<path class="st7" d="M374,234.9c0.4,0,0.6-0.4,0.6-0.8c-0.2-0.1-0.4-0.4-0.5-0.4h-0.6c-0.1,0,0,0.3,0,0.4
								C373.6,234.4,373.7,234.9,374,234.9z"/>
							<path class="st7" d="M360,230.8h-1v-0.1c0.1,0.7,0.4,1.3,0.9,1.7C359.9,231.6,359.7,231.2,360,230.8L360,230.8z"/>
							<path class="st7" d="M357.1,226.6l-0.3,0.1h0.1c0,0.4,0.8,1.5,1,1.5C358.4,228.3,357.5,226.9,357.1,226.6z"/>
							<path class="st7" d="M443.2,130.5c0.5,0,0.9-1,1-1.4c-0.1,0-0.8,0-0.9,0.4c0,0.2,0.1,0.6,0,0.6S443.1,130.5,443.2,130.5z"/>
							<path class="st7" d="M290.5,57.7L290.5,57.7l0.2,0.3L290.5,57.7z"/>
							<path class="st7" d="M497.2,65.9c-4.6-3.2-10.6-6.6-17.4-6.6c-1.9,0-3.1,0.5-2.9,1.4c1.8,6.7-2.7-0.1-3.8,0l-13.3-0.3
								c-0.8-3.6-2.7-4.9-6.6-4.9c-2.1,0-5.4,1-6.7-0.3s-1.2-2.8-2.9-3.5c-1.2-0.5-2.4-0.9-3.6-1.2v-9.4c0.7,0.3,1.5,0.5,2.4,0.5
								c0.9,0,2.6-0.3,2.6-1c0-0.4-0.2-0.7-0.6-0.7c-0.1,0-2.5-0.3-4.4-0.7v-98.4H-60V57.1c-0.7-0.3-1-1-1.8-1c-1,0-1.6,1.5-2.5,1.9
								c-0.9,0.4-1.3-0.1-2.1,0.1c-3.1,1.4-5.7,3.7-7.4,6.6H-77c-0.1,0.2-0.9,2-0.9,2c0,0.5,2.4,1,3.1,1.5s1.3,2.5,1.7,2.8
								c1.7,1,2.9,1.1,3.5,3.3c-0.7,0.2-0.8,0-1.6,0c-1.2,0-2.2,0.6-2.2-1.6h-0.8c-1.4,1.1-3.9,2.1-5.4,3.1c0.3,0.7,1,1.2,1.8,1.1
								c-0.1,0.2-0.2,0.5-0.2,0.7c0,0.6,0.7,0.9,0.8,2h3.1c0.9-0.2,1.3,0.5,2.5,0.5s1.6-1.2,2.6-1.2c0.3,0,0.6,0,0.9,0v1.1
								c-0.4-0.2-0.9-0.2-1.3,0.1c0.1,0.2,1,1.2,1,1.7c0,0.9-3.9,2.8-4.5,2.8c-1.2,0-4.3,1.7-4.3,3.8c0,1.1,1.8,1.5,2.3,3
								c-0.3,0-0.6,0.2-0.9,0.2c0.4,0.6,3.1,3.2,3.9,3.2c0.2,0,0.7-1.2,1.2-1.2s0.5,0.8,0.6,1v1.4c-0.2,0.6,0.1,1.7,0.4,1.7
								s0.5-0.6,0.9-0.1h0.7c-0.1-0.5,0-1,0-1.5c0.8,0.8,1.7,1.5,2.8,2c0.1-0.4,0.2-0.9,0.4-1.3c0.6,0.2,0.9,0.6,1.6,0.6
								c0.8-0.1,1.5-0.4,2.2-0.8h0.9c-1.4,1-1.4,3.1-2.7,4.2c-1.3,1-3.6,2.3-4.6,3.8c-0.7,1-1.8,0.3-2.8,1c-0.6,0.4-1.2,1.8-1.8,2.3
								c-1,0.7-2.1,0.1-2.8,1.5c2.4,0.8,3.6-2.1,5.7-2.5c1.7-0.3,3.8-1,4.6-2.1s2.9-1.8,3.8-3.1c0.3-0.5,0.6-0.9,0.9-1.3v340.3h500
								V318.5c0.4-0.9,0.7-1.8,0.7-2.8c0-0.8-0.5-1.2-0.6-2.1H440v-1.1c0.1,0.2,0.3,0.3,0.5,0.4c0.1-0.4,0.2-0.8,0.2-1.2
								c-0.2,0-0.4,0-0.6,0v-4.1c1.2-0.6,2.2-1.6,3-2.7v0.5c0-2.6,1.3-4.8,1.8-6.6c0.6-2.3,1.7-3.1,2.8-5.1c0.3-0.6,0.1-0.9,0.4-1.5
								v-1.5c0.6-1.4,1-2.8,1.2-4.3c0-2.1-0.6-5.8-1.5-7.3l0.1-0.2c-1.1-1.3-3.3-2.5-3.3-5.3c-0.8,0-1.7,0-1.9-0.9
								c-0.1-1.1-0.4-2.2-1-3.1c-0.4-0.5-0.9-0.8-1.5-1.1v-20.3c0.4,0.3,0.8,0.4,1.3,0.5h1.5c0.3,0.4,0.7,0.7,1.1,1h0.3
								c0.2-0.4,0.4-0.9,0.8-1.2c-0.2-0.1-1,0.1-1.1-0.3s-0.2-0.7-0.6-0.8s-0.6,0.2-0.7-0.1s-0.3-0.8-0.5-0.8c-0.5,0-1-0.3-1.3-0.7
								c-0.4-0.8-0.4-1.2-0.8-1.8V132.4c0.3-0.4,0.6-0.8,1-0.8v-0.5c0.1,0.1-0.1,0-0.5,0c-0.2,0-0.4,0.1-0.5,0.3V93.1
								c0.9-0.1,1.7-0.1,2.2-0.1c2.4,0,3.5,1.4,4.9,1.8h3.2c0.9-5,2.7-7.7,6.7-7.7c1.2-0.2,2.3-0.2,3.5,0c-1,0.9-1.4,6.9,4.9-2.4
								c0.6-0.1,3.7,1.4-0.9,4.9c-1.6,1.2-3,0.6-4,2.4c-1.2,2.1-2.3,4.7-4.1,5.9c-1.5,1-3.5,2.6-3.5,5.6c0,2.6,0.7,11,2.3,12.5
								c1.2-2.1,2-5.9,4.4-6.6c-0.3-1.9,2.3-2.3,2.3-3.8c0-2.3,2-2.9,2-4.2c0-0.8-0.5-1.7,0-3.1c4.7-12,9-5.6,10.7-5.6
								c5.1,0,8.8-7.9,13.3-8c8.6-0.2,1.7-4.1,1.7-5.2c0-3,3.4-2.5,4-4.2c0.3-0.7-0.3-2.4,0.9-2.4c3.6,0,6.6,5.9,9.3,5.9
								c1.2,0,1.4-2.6,2-3.5c1-1.4,1.9-1.2,3.5-1.9C507.2,70.1,500.5,68.2,497.2,65.9z M372.4,183.3c-0.2-0.4-0.4-0.9-0.3-1.4
								c-0.6-0.1-1.3-0.3-1.8-0.6c0.6,0.3,1.2,0.6,1.9,0.6C372,182.4,372.1,182.9,372.4,183.3z M361.9,184.3c-0.9,0-1.5-0.9-1.7-1.9
								C360.4,183.4,361,184.3,361.9,184.3c0.4,0,0.6-0.1,0.9-0.1l0,0c-0.2,0.3-0.3,0.6-0.5,0.8c0.2-0.2,0.3-0.5,0.5-0.8
								C362.5,184.2,362.3,184.3,361.9,184.3L361.9,184.3z M359.9,202.6c0.1,0.5,0.3,1.1,0.3,1.6c0,0.1-0.1,0.3-0.2,0.4
								c0.1-0.1,0.1-0.2,0.2-0.4C360.2,203.7,360.1,203.1,359.9,202.6L359.9,202.6z M359.1,114.1c0.5,0,0.9,0.1,1.4,0.2
								C360,114.2,359.6,114.2,359.1,114.1L359.1,114.1z M359.8,205c-0.3,0.9-0.5,1.5-0.8,2.1C359.2,206.5,359.4,205.8,359.8,205
								L359.8,205z M363.3,184.8c-0.1-0.2-0.2-0.4-0.1-0.6C363.2,184.4,363.2,184.6,363.3,184.8L363.3,184.8z M358,198.3
								c0,0.8,0.6,1.1,1,1.6C358.6,199.4,358,199.1,358,198.3z M358.9,207.1c-0.1,0.2-0.1,0.4-0.2,0.7l0,0
								C358.7,207.5,358.8,207.3,358.9,207.1L358.9,207.1z M354.8,119.3c-2.4,0-4.9-2.1-6.4-2.1c-0.6,0-1.2,0.6-1.6,1
								c0.4-0.5,1-0.9,1.6-1C350,117.3,352.4,119.3,354.8,119.3c1.8,0,2.3-1.6,2.8-3C357.1,117.8,356.5,119.3,354.8,119.3
								L354.8,119.3z M358.9,173.6c0,2.8-1.5,2.9-1.5,5.4C357.4,176.4,358.9,176.3,358.9,173.6L358.9,173.6z M357.5,189.2
								c-0.3,0.7-0.5,1.4-0.5,2.2C357,190.7,357.2,189.9,357.5,189.2L357.5,189.2z M358.1,193.2c0.4,1,0.5,2,0.5,3.1
								c-0.1,0.5-0.3,1-0.6,1.5l0,0c0.3-0.4,0.5-0.9,0.6-1.4C358.6,195.3,358.5,194.3,358.1,193.2c-0.3-0.4-0.8-0.5-1-1.1
								C357.4,192.7,357.9,192.8,358.1,193.2L358.1,193.2z M358,197.8L358,197.8c0,0.1,0,0.2,0,0.2C358,197.9,358,197.8,358,197.8z
								 M337.4,123.6c-0.9,1,0.9,4.8-3.8,4.2c-0.7-0.1-1.2,0.6-1.7,1.4c0.5-0.8,0.9-1.5,1.7-1.4
								C338.3,128.4,336.5,124.5,337.4,123.6c2.3-2.4,5.8-2.5,8.7-4.5c0.1-0.1,0.3-0.2,0.4-0.3c-0.1,0.1-0.2,0.2-0.4,0.3
								C343.3,121,339.7,121.1,337.4,123.6L337.4,123.6z M341.9,170.9c-0.4,0-0.5,0.3-1-0.1h-2.4c-1.3,0.4-1.9-0.6-2.7-1.3
								c0.9,0.7,1.4,1.7,2.7,2.3h2.4C341.4,171.1,341.6,170.8,341.9,170.9L341.9,170.9z M326.5,153.5c0.9,0.3,1.6,1,1.9,1.9
								C328.1,154.5,327.4,153.8,326.5,153.5L326.5,153.5z M327.5,164.9c-0.1-0.1-0.3-0.2-0.5-0.3c-0.2-0.1-0.8,0-0.9-0.4
								c0.1,0.4,0.7,0.3,0.9,0.4C327.2,164.7,327.3,164.7,327.5,164.9L327.5,164.9z M319.8,143.3c-0.9,0-2.1,3.1-2.3,4.5l0.4,0.1
								c-0.1-0.1-0.3-0.1-0.4-0.1C317.7,146.4,318.9,143.3,319.8,143.3c5.3,0,9-3.3,9-11.1c0.8-0.2,1.5-0.6,2-1.2
								c-0.5,0.6-1.2,1.1-2,1.2C328.7,139.9,325.1,143.3,319.8,143.3L319.8,143.3z M320.8,151.8c0.2,0.1,0.3,0.2,0.4,0.4
								C321.1,152,321,151.8,320.8,151.8c-0.9-0.3-1.4,0-1.4-1.2c-0.6-0.2-1.2-0.2-1.9-0.2c0.6,0,1.3,0,1.9,0.2l0.1-0.3l-0.1,0.3
								C319.4,151.8,319.9,151.4,320.8,151.8L320.8,151.8z M317.5,150.8c-0.5,0-0.9,0.2-1.3,0.5C316.5,151,317,150.8,317.5,150.8
								L317.5,150.8z M320,52l1.5,1.4C320.7,53.9,320.3,53.1,320,52z M40,122.5v0.8l0,0V122.5z M31.1,170.8
								c-0.6-1.5-1.5-2.8-3.2-2.8l0,0C29.6,168,30.5,169.3,31.1,170.8z M23.3,166.6c-1-2-2.1-2.3-4.1-2.9
								C21.2,164.3,22.3,164.6,23.3,166.6z M13.3,164.2l-6.2-2.4l0,0L13.3,164.2z M87.2,30.4c0,0.5-0.3,1-0.7,1.4h-1.3
								C85.8,31.3,86.5,30.8,87.2,30.4z M-60.5,58.3c0.1-0.3,0.3-0.6,0.5-0.9v0.8C-60.2,58.3-60.3,58.4-60.5,58.3z M0,190.6
								c0-10,0.8-20.1,2.4-30c0.5,0.7,0.8,1.4,1.1,2.1H4v2.2c0.3,1.1,0.8,2.1,1.4,3.1c0.3,0.8,0.3,2.6,0.9,3.1c1.1,1,2,2.2,2.7,3.5
								c0.5,0.8-0.8,0.6-1.1,0.6c0.6,1,1.8,0.8,2.5,1.7c0.6,0.6,1,1.4,1.6,2.1v1.7c0.2,0.3,0.2,0.3,0.6,0.6c0.6,0.4,1.1,2,2.1,2
								c0.2,0.5,0.5,1,0.9,1.4c0.2,0,0.4-0.6,0.4-1c0-0.5-0.6-1.6-1.1-1.1c-1-0.8-1.3-2.5-1.8-4c-0.4-1.4-1.5-2.1-1.9-3.6
								c-0.1-1-0.5-1.9-1.1-2.7c-0.5-0.7-1.3-0.7-1.6-1.6c-0.6-1-0.9-2.1-1-3.3c0-0.3,0-0.6,0.1-0.8c0.7,0.8,1.6,0.8,2.5,1.3
								c0.4,0.2,0.3,1.7,0.8,2.3s0.3,1.7,0.8,2.3s1.1,1.4,1.9,2.3c0.2-0.2,0.1-0.1,0.6,0c0,1.6,1.7,1.7,2.2,2.9
								c0.3,0.7-0.1,1.4,0.3,1.9s1.4,0.9,2,1.6c1.2,1.4,3.1,3.3,3.7,5.7c0.1,0.4,0.5,0.6,0.5,1.5s-0.5,1.1-0.5,1.8s0.3,1.3,0.8,1.3
								c0.2,0.8,1.9,1.3,2.5,2.1c0.2,0.2,0.4,0.3,0.6,0.4c0.7,0.4,1.1,0.3,1.8,0.6s0.9,1.2,1.7,1.5s1-0.2,1.6,0.1s2.4,1.9,3.1,1.9
								c0.4-0.1,0.9,0,1.3,0.1c0.2,0.1,0.7,0.6,1.1,0.6c0.9,0,1.1-1.3,2.1-1.3c0.5,0,0.9,0.2,1.2,0.5h0.3c1.5,0.8,1.7,2.3,3.4,3.3
								c1.1,0.6,1.9,0.3,2.9,0.9c0.7,0.4,1.2,1.1,2.3,1.1c0.4,0,0.7-0.3,1-0.3h3.3c0.3,1.6,1.2,2.2,2.1,3.3c0.3,0.3,0.6,0.7,0.7,1.1
								c0.3,1-0.3,1.9,0.5,2.6h0.5c-0.1-0.2-0.1-0.4,0-0.6c0.7,0.5,1.4,1.1,2,1.8c0.2,0.5,0.2,1.2,1,1.4c0,0.1,0.2,0.4,0.3,0.4
								c0.4,0,1.2-0.4,1.6,0.1s1,1.8,1.8,1.8c0.4,0,0.7-0.3,0.8-1c-0.1-0.1-0.4-0.3-0.4-0.6s1.5-1.7,1.9-1.7c0.6,0,0.8,0.9,1.3,1.2
								c-0.1,0.3-0.3,0.4-0.3,0.7s0.5,0.4,0.6,0.5s0.1,0,0.1-0.1c-0.1,0.1-0.1,0.3-0.1,0.4c0,1.2,1,1,1,2.4c0,0.7-0.3,0.9-0.3,1.7
								c0,0.5,0.3,0.9,0.3,1.5v0.3l-0.2,0.5c0.1,0.3,0.3,0.5,0.5,0.7c-0.3,1.8-1.7,1.3-2.3,2.8c-0.4,1.1-0.8,2.9-2.2,2.9
								c0.2,2.9-1.1,2.7-1.1,4.2c0,0.9,0.1,2.3,0.9,2.3c0.4,0,0.3-0.3,0.8,0.1c-0.2,1.1-1.2,1.3-1.7,2.3c-0.4,0.6-0.6,1.3-0.6,2
								c0.1,1.2,0.6,2.3,1.3,3.3c0.2,0.3,0.7,0.1,0.8,0.5c0.1,0.7,0.3,1.3,0.6,1.9c0.2,0.2,0.5,0.1,0.7,0.5c0.5,1.2,0.9,2.4,1.2,3.7
								c0.4,1.5,1.4,2.7,1.9,4.3c0.2,0.9,1,1.5,1,2.5c0,0.8-0.2,1.5,0.2,2.1c0.8,1.2,1.9,2.1,3.2,2.7c0.7,0.2,1.3,0.7,1.7,1.3
								c0.6,0.7,1.2,0.6,2,1.1c1.1,0.7,2,1.9,2.3,3.2c0.2,0.7,0.4,4.7,0.4,5.3c0,1.1-0.5,2.9-0.5,3.8v6.2l1,2.4v0.6
								c0,0-1.7,4.1-1.7,6.7c0,1.1-0.3,3.3-0.3,3.3v5.2c-0.1,1.5-0.4,3-0.7,4.4c-0.1,0.3-0.3,0.2-0.5,0.5c-0.3,0.5-0.4,1.5-0.6,1.9
								c-0.8,1.3-1.2,2.7-1.3,4.2c0,0.5,0.1,2.4,0.3,2.4c0.2,0.2,0.3,0.5,0.3,0.8c0,0.2-0.2,0.4-0.6,0.4c-0.3,1-0.5,2.1-0.6,3.1
								c0,0.8,0.3,2.4,0.8,2.4s0.5-0.5,0.9-0.8c0.2-0.1,0.3,0,0,0v1l-1.4,10.3c-0.9,0-0.5-1.3-1.5-1.3c-0.3,0-0.5,1.1-0.5,1.1H74
								v0.4c-0.4,0.8,0.3,1.9,0.3,2.4c0,1.1-1.3,1.6-1.3,2.8s0.9,3.6,1,5.1v1c-0.1,0.2-0.1,0.4,0,0.6C27.3,305.1-0.1,249.5,0,190.6z
								 M190,380.6c-35.6,0.1-70.5-9.9-100.7-28.9c0.3,0,0.5,0.1,0.7-0.2c-1.6-0.9-3.1-1.5-4.4-3.1c-0.8-0.9-0.7-4.1-1.7-4.8
								c-0.3-0.1-0.9-0.9-0.9-1.6c-0.1-1.1,0.3-2.2,1-3.1c0.5-0.6,1.4-0.2,1.9-1.2s0.2-1.8,0.6-2.4c0.8-1,2.3-1.2,2.3-3.1
								c0-2.1-2.6-1.2-2.6-3.9c0-1.1,0.7-2.1,1.7-2.4c0.4-0.1,1.4-0.1,1.6-0.9c0.3-1.7,0.3-3,1.4-4.2c-0.4-0.1-0.7-0.6-0.6-1
								c0.6,0,0.8,0.6,1.5,0.6c0.3-0.2,0.5-0.5,0.6-0.9c0-0.3-0.3-0.4-0.5-0.7c-0.2,0.1-0.5,0.5-0.8,0.5c-0.5,0-1.2-1.8-1.2-2.8
								c0-0.4,0.2-0.8,0.6-0.8c1.2,0,1.4,1,2.6,1c0.4,0,1.1-0.8,1.1-0.8v-0.2c0.4-1-0.2-3.2,0.6-4.1c0.5-0.6,2.5,0.1,3.5-0.2
								c1.4-0.6,2.7-0.2,3.7-1.4c0.6-0.7,1.1-1.4,1.6-2.2c0.3-0.6,0.4-1.3,0.3-1.9c0-0.8-1-0.8-1.1-1.6c-0.1-0.8-0.3-1.5-0.7-2.2
								c-0.2-0.2-1.1-0.6-1.1-1.2c0-0.2,0.3-0.4,0.5-0.4c0.9,0,1.7,0.9,2.5,0.9c0.4,0,1.8,0.8,2.7,0.8c2.8,0,3.2-3.6,4.4-5.8
								c1-1.9,2.2-2.1,3.3-4c0.5-0.9,0.4-1.4,0.8-2.4v0.5c0,0,0.6-2.6,2-3.3v-3.3c-0.2-1.3-0.3-2.3,0.4-3.2c0.5-0.5,1.2-0.5,1.7-1.5
								c1-1.9,2.5-1,3.9-2.6c0.2-0.2,0.2-0.6,0.6-0.8c0.9-0.4,1.9-0.5,2.8-0.4c1.1-0.1,2.1-0.8,2.5-1.8c0.1-0.3,0.1-1.1,0.3-1.5
								c0.9-1.4,1.1-2.1,2-3.7c0.2-0.8,0.3-1.6,0.3-2.4c0.1-0.6,0.4-1.1,0.8-1.6c0.1-0.3,0.2-0.5,0.3-0.8c0-0.9,0.4-2.1,0.4-3.3
								c0-1.7-0.9-3.9,0-4.9c0.6-0.7,1.2-0.8,1.8-1.9c0.4-0.6,0.6-0.8,1-1.4c1.6-2.8,3.9-4.2,3.9-9.3c0-1.5-0.3-2.9-1.4-3.3
								c-0.8-0.3-1.3,0.1-2.1-0.1c-1.3-0.8-2.4-2-3.2-3.3c-0.9-0.5-1.8-0.9-2.7-1.1l-2.2,0.4c-1.2,0-1.4-1.1-2.6-1.1
								c-0.5,0-0.8,0.5-1.3,0.7h-0.4c0-0.6,0-1.1-0.1-1.7c-0.1-0.6-0.6-0.4-1.1-0.8c-0.8-0.6-2.8-1.9-3.9-1.9s-1.6,1.4-2.2,2.6
								c-0.2,0.3-0.4,0.8-0.6,0.8s-0.3-1.1-0.3-1.1h-1.8c-0.1-0.6-0.4-1.2-1-1.6c-0.3-0.1-0.8-0.1-0.8-0.7c0-2,1.7-2.7,2.6-4.1
								c0-0.7-0.7-0.7-1-1.4c-0.5-1.2-0.8-2.5-1-3.7c-1-0.3-2.2-2.5-3.1-2.5H109v-0.3c-0.7-0.1-1.3-0.4-1.9-0.7h-1.5
								c-1.6-0.3-4-0.1-4.4-1.9c-0.3,0-0.7-0.1-0.9-0.4c-0.7-1.6-1.2-1.4-2.3-2.6h-1.6c-0.2-0.8,0-1.8-0.8-2.1s-2.1-0.5-2.5-1.4
								v-0.7c0.3,0.1,0.6,0.1,0.9-0.1c-0.5-0.1-1.1-0.2-1.6-0.2c-0.2,0.1-1.4,0.1-1.5,0.4c-0.3,0.9-0.9,0.9-1.8,1
								c-0.5,0-1.2-0.1-1.2-0.8h-3.2c-0.5-0.2-0.8-0.7-0.7-1.3c-0.9-0.2-2.2-0.6-2.4-1.7H81c0.5,0.1,0.9,0.5,1.1,1h-1.4
								c-0.5,0.5-1.4,0.3-1.4,1.4c0,0.8,0.7,1.3,0.7,2.2c0,0.3-0.3,1.1-0.6,1.1c-0.6,0-1-1.3-1-2.1c0-0.6,0.3-1.8,0.5-2.8
								c0.2,0,0.6-0.3,0.6-0.8c0-0.1-0.2-0.8-0.5-0.8c-0.8,0-0.9,1-1.7,1.3c-1.4,0.6-2.4,0.8-3.8,1.4c-0.8,0.2-1.4,0.8-1.6,1.6
								c-0.1,0.6-0.2,1.5-0.5,1.7s-0.9,0.5-0.9,1.2c-0.1,0-0.3,0.2-0.5,0.3v0.3c-0.2,0.1,0,0.1-0.5,0c-0.1,0.2-0.3,0.3-0.4,0.5
								c0.1-0.2,0.3-0.4,0.4-0.5c-0.9-0.8-1.6-2.2-3.3-2.2c-1.4,0-2.1,1.4-3.6,1.4c-1,0-1-1.3-1.6-1.7c-1.1-0.8-2-1.7-2.9-2.7v-4.2
								l1-3.1v-1c-1-0.3-1.4-1.5-2.8-1.5c-2,0-3.6,0.4-5.5,0.4c-0.4,0-0.7-0.3-0.7-0.7c0,0,0,0,0,0v0.1c0.3-0.4,1-0.7,1-1.4v-3.4h1
								l0,0c0.2-0.7,0.4-1.5,0.4-2.3c0-1.3,1.6-3.5,1.6-3.5v-0.7c-0.4,0-0.9,0-1.3-0.1c-0.4-0.2-0.8-0.2-1.2-0.2
								c-1.6,0-3.5,0.7-3.5,2.7c0,1.1-1,2-1.2,2.8c-0.1,0.3-0.3,1.1-0.8,1.1c-0.2,0-0.5-0.4-1.1-0.4c-1.2,0-2.1,1-3.2,1
								c-0.5,0-0.5-0.6-1-0.8c-1.5-0.6-1.5-1.8-2.6-3c-0.5-0.6-1-1.3-1.4-2c-0.2-0.6,0.1-1-0.2-1.7c-0.1-0.3-0.6-0.9-0.5-1.4v-3.9
								c0.3-0.9,0.5-1.8,0.6-2.8c0-0.4-0.1-0.7-0.2-1.1v-0.2h0.2c0-0.2-0.3-0.5-0.3-0.7c0-2.1,0.8-3.9,2-4.5
								c0.6-0.3,1.1,0.2,1.5-0.4c0.7-0.8,1.5-2.6,3.2-2.6c0.6,0,1,0.7,1.6,0.7c0.3,0,0.5-0.6,0.9-0.6c1.2,0,2.5,2.3,4.1,1.4
								c-0.7-0.6-0.2-1.2-0.1-2.2c-0.3,0.2-0.2,0.2-0.8,0c1-0.4,2.2-0.3,3.1-0.6c0,0.2,0.2,0.6,0.4,0.6c0.5,0,0.6-0.6,1.4-0.6
								c1.4,0,2,1.6,3,1.6c0.5,0,0.8-0.9,1.3-0.9c2.5,0,1.8,4.2,2.8,6.4c0.5,0.9,1.1,1.7,1.7,2.5c0.3,0.6,0.3,1.7,1.2,1.7
								s1.3-1.3,1.3-2.7c-0.1-0.9-0.3-1.9-0.7-2.8v-0.1c0-2.3-1.7-3-1.7-5.3c0-5.2,3.6-6.5,6.3-8.4l-0.2-0.1c0.3-0.4,0.3-0.6,1-0.9
								c0.5-0.1,0.8-0.7,1.5-0.9c0.3-0.1,0.5-0.5,0.7-0.8l-0.7-0.5v-0.4c0,0,0.4,0.1,0.6-0.7c-0.4,0-0.7-0.3-0.8-0.6
								c0.5-0.1,0.9-0.4,1.2-0.9v-0.6H71c-0.3-0.5,0-0.5,0-1.2s-0.3-2-0.3-2.4c0-0.3,0-0.6,0.1-0.9c0.2,0.9,0.6,1.6,1.2,2.3v0.8
								c-0.5,0.1-0.3,0.4-0.2,0.4c0.6-0.9,1-1.8,1.3-2.9c0-0.6-0.4-0.8-0.5-1.3l0.3-0.3c0.1,0.1,0.2,0.6,0.4,0.6
								c0.4,0,1.5-2.4,1.6-3c0,0-0.5-0.5-0.5-0.8c0-0.2,0.1-0.4,0.3-0.5c0.2,0,0.3,0.1,0.5,0.1c0.7,0.1,1.5-0.1,2.2-0.3
								c-0.4-0.3-1.4,0.6-1.4,0.6h0.3c1.1-0.9,2.9-0.5,3.9-1.5c0.2,0.3,1.1,0,1.8-0.2v-0.5c0,0-0.5,0.5-0.6,0.5
								c-0.3,0-0.5-0.9-0.5-1.2c-0.2-0.1-0.2-0.4-0.2-0.6c0-2.6,1.8-3.4,2.7-4.5c0.5-0.4,0.6,0,1.2,0c0.8,0,1.4-0.5,1.7-1.2
								c-0.1-0.2-0.2-0.3-0.2-0.5v-0.2v-1c0.1,0.1,0.4,0,0.6,0c0.3,0,1.8,0.3,2.3-0.1s0.5-1.3,1.4-1.4c0,0.9,0,1,0.8,1
								c-1.3,0.1-3.3,1.2-3.3,2.7c0,0.6,0.8,1.7,1.1,1.7s1.5-1.8,2.6-2.2c0.3-0.1,4.2-1.8,4.2-2.4c0-0.7-1.5-0.8-1.8-0.8
								c-1.6,0-4.2-1.9-4.2-3.6c0-0.4,0.4-0.9,0.6-1.6c-0.3,0-0.9-0.2-1.4-0.2c0.3-0.5,2.4-0.9,2.4-2.2s-1.8-1-2.9-1
								c-2.5,0-3.6,2.1-5.3,2.4c0.7-1.8,1.9-1.2,3.2-2.7c0.8-0.9,0.2-1.6,1.4-2c2.2-0.8,3.4-0.3,5.6-0.3c2.8,0,4.4,1.1,6.1-1.5
								c0.8-1.3,5.4-1.6,5.4-3.7c0-1.2-0.4-2.3-1-3.3c-0.5,0,0.2-0.7-0.5-1v-1.2c-1.6,1.1-3.4,1.7-5.3,2c-0.2,0-0.4-0.1-0.6-0.3
								c1.1-0.7,4.2-1.2,4.6-2.5c0-0.3-0.4-0.4-0.5-0.8c-1.3,0.2-4.2-0.5-4.2-2.8v-0.2c-1.3,0-2-1-2.8-1.7c0.5-0.2,0.8-0.7,0.9-1.2
								c0-0.7-0.5-1.2-0.4-1.9c-0.5-0.2-2.4-1.6-1.9-2.9c0.6-1.6-1.8-1.9-2-3.8c-0.2,0-0.8-0.6-1-0.9c-0.4,0.3-1.3,1-1.3,1.9
								s-1.8,3.6-3.3,3.6c-1,0-1.2-1.5-1.9-1.5c-1,0-1.4-3.4-1.6-4.8c-0.2-1.9-3.3-0.6-3.3-3.1c-1.6-0.3-2-2.6-3.6-2.6
								c-0.8,0-0.8,0.7-1.6,0.7c-1.7,0-2.7-1.2-4.3-1.2c-0.9-0.1-1.7,0.6-1.7,1.5c0,0.1,0,0.2,0,0.2c0,0.7,2,1.7,0.2,3.1
								c-0.7,0.6,1.1,2.1,1.2,3.1c0.2,2-1.4,2.6-2.2,2.9c1.3,2.7,3.3,3.6,3.3,8.2c0,1.2-3.4,4.4-4.6,4.7c2,1.2,1.2,5,2,6.2
								c-0.2,0.4-1,0.9-1,1.7c-0.7,0-1.2,1.4-1.7,0.8c-1.4-1.4-3.5-3.5-3.5-5.6c0-2.2,0.3-4-1.3-5.2h-3.8c-2.1-1.7-4.5-3.1-7.1-4.2
								c-0.5-0.2-1.8-1.4-2.6-1.4s-1.3,1-2.1,1c0-1.7-0.9-5.5-2.2-5.5c-0.6,0-0.9,0.6-1.4,0.7c0.2-0.8,0-1.1,0-3.1
								c-0.1-2.2,0.6-4.3,2-6c0.5-0.6,1.4-3.2,1.9-3.5c1-0.4,2.7,0.3,2.7-1.4c0-1-2.2-1.1-3-1.7c0.5,0.2-1.2-1.2,3.5,0.5
								c1.2,0.4,0.5-1.5,1.2-1.5H50c1.4,0,2.1-1.7,3-2.6V77c-1.9-0.6-3.9-0.2-4.7-2.2h1c0.7,0.6,1.5,1.6,2.6,1.6
								c0.9,0,2.6-1.4,2.6-2.3c0-0.3-0.9-1.5-0.4-1.5c1.3,0,1.7,1.4,2.5,1.4c0.5,0,0.8-0.5,1.9-0.5c-0.3-0.4,0-1.6,0.7-0.3
								c0.4,0.7,3.3-2.3,3.3-3.2c0-0.6-1.3-1.3-1.3-1.7s-0.8-1.6,1-2.6c0.2-0.6,0-0.5,0-1.7c-1.8,0-1.4-1.7-3.7-1.7
								c-0.5-0.1-0.9-0.5-1.4-0.5c-0.8,0-1.4,0.6-1.4,1.4c0,0.9,0.9,1.2,0.9,1.8s-1.3,0.7-1.6,1.4c-0.5,1.2-0.3,2.1-1.1,3.3
								c-1.3,2-3-1.2-3-2s1-0.7,1-1.7c-0.4-1-1.2-1.8-2.1-2.4c-1.7,0-0.5,2.9-2.3,2.9c0-0.3,0-0.5,0-0.8c1.7-2,3.5-4,5.3-5.9h1.1
								c0.3,0.5,1.2,1.3,1.7,1.3c2.5,0,6.7-0.2,8.4,0c-0.1,0.5-0.3,1.5,0.4,1.5c1,0,1.9-2.5,2.6-2.5s3.6,3,4.1,3.6
								c-0.3,0.1-1.3,0.2-1.3,0.8c0,0.1,0.2,0.8,0.4,0.8c0.7,0,1-0.8,1.8-0.8c1.2,0,4.7,3.2,4.7,4.9c0,0.9-1.2,2.4-1.7,3
								s-1.4-0.1-1.4,1c0,0.5,0.7,1.2,1,1.4c-0.7,0.5-1.6,0.8-2.5,0.9h-2.8c-0.9,0-2.5,1.3-2.5,2c0,1,2,2.1,2.7,2.1s1.1-1.1,1.9-1.1
								c0.6,0,0.4,0.5,1.1,0.5s0.9-0.6,1.2-1.1c1.8,1.3,2.8,2.7,4.9,3.8c-1.1,2.4,2.7,2.3,4.2,3.4s2.8,0.7,4.6,1.7
								c0.2,0.1,0.3,0.9,0.6,0.9s0.6-0.4,0.6-0.9c0-2.1-3.5-3.7-4.6-5.2h0.4c0.6,1,4.4,2.7,5.4,2.8c0.4-0.9,0.7-1.8,0.9-2.8
								c0-0.8-1-1.1-1-1.6c-0.1-0.5-0.1-0.9,0-1.4h-1c0,0-0.5-0.2-1.6-0.7c-0.6-0.6-1.1-1.4-1.3-2.3H85v-1.3c0,0.2,1,0,1,0v-0.8
								c-0.5,0.1-1,0.1-1.5-0.1c0,0,0.8-0.8,1.2-0.8c2.8,0,2.9,4.7,5.8,4.7c0.6,0,0.8-1.2,0.8-1.9c1.1,0,1.3-0.6,1.3-0.8
								c0-0.3,0-0.6,0-0.9c0.8,0,1.7-0.3,1.7-1.2c0-1.1-0.5-1.6-1.6-1.6c-0.4,0-0.7-0.1-1-0.3c-0.5-1.3-0.8-0.3-2-0.3
								c-0.9,0-1.2-1.2-1.3-2.4c-1.2-0.1-2.8-0.8-2.9-2.4c-0.6,0-1.2-0.2-1.6-0.6c0.5-1,1-1,1.9-1.6c-0.1-0.4-0.5-0.6-0.9-0.6
								c-0.6,0-1.2,0-1.7-0.1c0.5-0.8,1.2-0.8,2-1c-0.3-1-0.8-1.7-1.6-1.8H84v-1.1c-2.1-0.2-3-1.3-4.5-1.9c0.2-1.2-1.9-2-1.9-2l0,0
								c-1.8,0-2.2-2.3-3.4-3.3c-0.7-0.6-3.1-1-4.2-1S68.7,52,67.7,52c-0.5,0-0.7-0.7-1.3-0.7S65.7,52,65.3,52s0-1.1,0-1.3
								c0-0.6-0.1-1.2-0.3-1.8l0.5-0.5c0.2,0.1,0.4,0.3,0.6,0.4c-0.4,1.1,0.6,1.5,1.7,1.5c0.9,0,1.4-0.7,2-0.7s1,0.5,1.7,0.5
								c0.5,0,0.8-0.5,1-1.1c-1-0.6-2.3-2.1-3.8-2.1c-0.4,0-0.8-0.1-1.2-0.2c5-4.3,10.2-8.4,15.6-12.2c0.5,0.3,0.9,0.6,1.4,0.8
								c-0.2,0.6-0.6,0.7-1.1,1.1c0.9,1,2.3,1.6,3.7,1.6c0.4,0,0.4,0.2,0.7-0.2c-0.2-0.1-0.4-0.3-0.6-0.5c0.3-0.2,0.7-0.3,1.1-0.3
								c0.7,0,1.2,0.5,1.7,0.5c0.7,0,1.1-0.9,1.8-0.9h1.7c6.2,0,10.1,5.8,11.7,11.5v1c0.5,0.1,1.4,0.1,1.4,1.1
								c0,1.5-1.2,1.4-1.2,2.9c0,1,0.5,1.1,1.5,1.1c0.7,0,0.9-1.1,1.4-1.1c1.8,0,2.3,3.1,4,3.8c0,0.4,0,1-0.6,1c-1.3,0-2.2-1-3.3-1
								c-0.5,0-0.4-0.3-1,0c0.2,1.9,4.3,2.2,6,2.9c-0.5,1.9-1.3,2.5-1.7,4.5c-0.8-0.4-0.8-0.3-1.6,0.1v1.1l-2,3.8v1.6
								c0.3-0.3,0.8-0.3,1.1,0c0,0,0,0,0,0c-0.2,0.7-0.6,1-0.6,1.7c0,1.9,1.6,2.6,1.9,3.9c0.1,0.8,0.3,1.5,0.6,2.3
								c1,0.6,1.3-1.1,2.1,0.2c-0.4,0.5-0.9,0.4-0.9,1.3c0,2,2.2,5.1,3.3,6.2c0.2,0.1,0.1,1.1,0.4,1.4c0.9,0.8,1.5,0.3,1.9,1.9
								c0.7-0.1,1.6-0.9,2.4-0.9c1.4,0,1.3,3.1,2.8,3.1c0.3,0,0.5-0.4,1.2-0.5c0.1,0.4,0.3,0.7,0.7,0.7c1.6,0,0.9-3.6,2.2-4.3
								c-0.1-0.8,0-2.6,0-3.8c0-2,2.7-1.2,2.7-3.6c0-0.8-0.7-1.1-0.7-1.6s0.2-0.6,0.4-0.8c0-0.2-0.1-0.5-0.1-0.7
								c0-2.3,3.1-1.7,4.3-3.1c0.5-0.6,0.3-1.3,1.2-1.7v1.8h0.9c1.2-1,3.2-0.7,4.4-2.1c0.9-1,1-2.4,2.1-3.5l1.5-1.3
								c0-0.6,0.6-0.8,1.2-1.2h2.8c2.2-1.1,4-0.9,6.1-1.7c1.7-0.6,2.3-2.6,4.2-3.3c0.9-0.2,1.8-0.7,2.5-1.3
								c-1.2-0.5-6.5-0.2-6.5-2.3c0.3-0.1,1.3-0.3,1.3-0.9s-0.6-0.8-0.6-1.7c0.3,0.2,0.6,0,0.9,0c2.4,0,1.8,3.5,4.6,3.5
								c0.6,0,1.6-0.1,1.6-0.8c0-4-3.8-5.2-5.9-7.7v-1.6c0.2,0,0.5,0,0.8,0c0.4,1.3,2.1,3.1,3.2,3.1c0.7,0,0.9-1.1,0.9-2
								c0-1.9-2.6-1.2-3.2-3.1h0.9c0.5,0.6,1.1,1.2,1.7,1.6c0.5-1.5,2.8-0.6,3.2-2.6c-0.4-0.2-0.6-0.6-0.6-1c1.2-0.1,2.2-0.8,2.6-2
								c-0.7-0.3-2.3-0.2-2.3-1.4c0-0.9,0.9-0.9,1.9-0.9c-0.3-0.4,0-1,0-1.5c0-1-0.9-1.5-0.9-3c-0.8,0-1.9,0-1.9-1.2
								c0.1-0.6,0.6-1,1.2-1c1.1,0,4.1,0.6,4.1-1c0-1.6-2.3-1.3-2.5-2.4c0.4,0,0.7-0.2,1-0.4c-0.6-0.7-1.4-1.2-2.3-1.3
								c-0.6,0-1.1,0.4-1.7,0c0.4-0.7,0.3-2.4,1-3c1.1-1,2.3-1.5,2.3-2.9c0-0.3,0-0.7,0-1c1.1-0.4,2.6-0.6,2.6-1.8
								c0-0.7,0.4,0.1,0-0.9c1.1-0.3,2.6-0.3,2.6-2.2c-0.5,0.4-0.5,0.4-1.2,0c2.6,0,3.8-2,5.8-2.8c0.4-0.1,1.4-0.8,1.4-1.6
								s-2.7-2.5-3.5-2.5c-0.6,0-1,0.1-1.2,0.9h-3.4c-0.6,0.7-1.3,1.3-2.1,1.8c-0.2,0.1-1.3-0.8-1.3-0.8H160
								c-0.9,0.8-3.9,5.4-5.4,5.9c0.2-0.7,3.9-5.4,3.9-6.1c0-1-0.4-2.1-1.5-2.1c-1.9,0-5.4,4-6.8,4c-0.5,0,2.1-2.9,2.2-3.5
								c-1-0.5-10.8,0.9-11.8,0l12.8-0.8c1.6-0.7,5.5-0.4,5.8-2.8c-1.5-0.4-3.5,0.1-5.1-0.7c-1.1-0.5-2.1-1.3-3.2-2
								c52-10.5,106.1,1,149.2,31.9c-0.6,0.3-1.3,0.5-2,0.5c-0.7,0-1-0.8-1.7-0.8c-1.1,0-1.1,0.8-1.9,0.8c-2.1,0-3.8,3.3-5.2,3.3
								c-0.9,0-1.5,0.5-2.3,0.5c-0.4,0-0.6,0.4-0.6,0.7s0.4,0.7,0.4,1.2c0,2-3,3-3,4.2c0,0.6,0.8,0.7,0.9,1.5
								c-0.9,0.3-2.8,0.8-2.8,2v1c0,1.2-1.7,1.1-1.7,2.8c0,0.8,1,1.4,1,1.4c0.6,0,1.2,0,1.8,0c1,0.3,0.5,1.5,0.9,2.4
								c0.1,0.3,1,0,1.5,0c0.2,0,0.3,0.4,0.4,0.5h5.6c-0.1-0.1-0.1-0.2-0.2-0.3c-1.3-1.4-3.2-2-3.2-4.5c0-4.4,4-9.1,7-10
								c1-0.3,1.3-1.9,2.8-1.9c0.7,0,0.9-1.4,1.3-1.6c1.8-1.1,3.2-0.6,5.1-1.6c5.4,4,10.6,8.2,15.5,12.8c-0.6,1.1-1.5,2-2.5,2.5
								c0.5,2,3,4,1.2,6.2c-1.2,1.6,2.4,6.7,0.5,6.7c-2.5,0-3.1-10.5-3.1-12.6c0-2.4,3.2-3.3-1.8-4.5c-2.5-0.6-7.3,4.3-7.3,6.9
								c0,2.6,0.9,5,2.6,6.9c3.2,6-4.5-0.7-7.4-1.6c-8-2.5-5.4,0.8-5.4,1.2c-0.3,5.3-2.2,1-3.2,1c-1.8,0-5.5,2.9-8.2,1.4
								c-1.3-4.1-10.1,5.2-12.3,5.2c-0.7,0-1.7-0.6-1.5-1.4c0.9-2.8-0.4-8.9-2.9,0.3c-0.2,0.6,0.9,0.8,0.9,2.1c0,2.4-3,0.8-4.7,1.4
								s-0.8,7.2-7.5,3.8v2.8c-3.3-0.3-2.9-4.6-4.1-6.6c2.1-0.2,4.3,0.1,6.3,0.7c3.2,1,9.8-3.8-0.2-7.6c-2.9-1.1-9.2-4.9-11.1-4.9
								c-0.2,0-0.2-0.3-1.6-0.1c-0.2,0-1.4-0.2-1.9-0.3c0-0.4-0.4-0.5-1-1c1.4-0.6,1.8,0,2.3-1.7c-0.6-0.4-1.3-0.8-2-1.1
								c-0.5,0-0.7,0.5-0.9,1c-0.6-0.1-0.5-0.7-0.6-1.6c-0.8,0.5-1.6,1.2-2.2,1.9c0-0.4-0.1-0.9-0.3-1.2c-1,0.6-1.3,2.2-2.5,2.1
								c0.2-1,1.2-1.2,1.2-2.2s-2.2,0.8-3.1,0.8c-0.5,0-0.9-0.5-1.2-1c-0.2,0.4-1.2,0.7-1.2,1c0,0.5,0.4,0.6,0.9,0.8
								c-1.1,0.7-2.1,0.3-2.8,2v-0.8c-1.1,0.1-1.3,1.6-2,1.8v-0.8c-0.9,0.2-1.9,0.1-2.4,0.8l0.4,0.6c-0.4,0.3-0.7,0.1-1.1,0.1
								c-0.6,0-1,0.6-1.3,1.1c0.3-0.1,0.6,0,0.9,0.1c-0.1,0.1-0.8,1.7-1,1.7c-0.7,0-1-0.7-1.9-0.7c0.2-0.4,0.1-0.9-0.2-1.2
								c-0.2,0.3-0.4,0.6-0.5,0.9c-0.2,0-0.3-0.2-0.4-0.2c-0.4,0-0.7,0.4-0.9,1.1c0.3,0.1,0.6,0.2,0.9,0.2c-0.5,0.2-0.8,0.6-1.1,1
								c1.4,0,1.9-0.9,3.4-1.2c-0.5,1.8-1.6,3.3-3.1,4.4c-1.2,0.6-2.2,1.7-2.7,2.9c0,0.1-0.6,1.6-0.6,1.6c-0.4,0-0.3,2.2-1,2.8
								c-1.7,1.7-2.7,4.1-5.1,4.8c0.5,0.1,0.7,0.3,1.4,0.5c-2-0.3-2.3,1.4-3.3,1.7c-1.1,0.4-2.1,1.3-2.6,2.4
								c-0.3,0.6-1.2,0.6-1.2,1.6c0,1.9,0.1,3.7,1,4.9c-0.3,0.5-0.9,1.3-0.9,1.8c0.4-0.3,1-0.4,1.5-0.3v1c-0.2,0.2-1,0.5-1,1
								c0.7,0.8,1.6,1.5,2.6,1.9c2.4,0,4.2-2.6,5.4-4.7c0.4,0.7,0.5,1.2,1.1,1.7c-0.2,0.3-0.3,0.6-0.3,1c0,1.2,0.9,1.5,1.1,2.6
								c0.4,1.5,0.3,2.5,1.2,3.7c0,0.2-0.1,0.5-0.1,0.7s0.8,3.2,1.2,3.2c1.4,0,1.8-2.2,2.7-2.2h1.2c0.2-1.3,1.6-1.4,1.8-3.3
								c-0.5-0.1-0.9-0.6-0.9-1.2c0-1.5,0.5-3.5,1.6-3.5c1.2-0.5,2-1.5,2.3-2.8c0-1.3-1.6-2.6-2.6-2.8c0-0.5-0.1-0.9-0.5-1.2v-1.4
								c0.9-0.5,0.3-1.8,0.8-2.8c0.6-1.2,1.6-1.5,2.6-2.2c1.2-0.8,3.9-2.2,3.9-3.8c0.2-0.4,0-0.8,0-1.6c0-1.9,1.6-2.8,3.5-2.8
								c1.5,0,3.4,0.3,3.4,2.1c0,1.2-1.4,1.5-2.2,2.1c-1.5,1-2.8,4.8-5.2,4.8c0.1,0.5,0.1,0.9,0,1.4c0,0.8,0.5,2.4,1.1,2.6
								c-0.2,0.3-0.8,0.8-0.8,1.5c0,1.4,1.1,2.4,2.5,2.4c0,0.8,0.5,0.9,1.3,0.9c1.2-0.2,2.4-0.5,3.5-1c1.1,0.2,3.8,0,4.4-1.4
								c0.6,0.7,1.1,1.5,1.5,2.4c-0.9,0.7-2,1.3-3.2,1.5c-1,0-1.6-0.5-2.9-0.5s-4.3,1.4-3.4,2.4c2.9,3.3,1.4,4.5,0.7,4.5
								c-1.2,0-1.3-1.7-2.3-1.7s-2.3,3.2-2.3,4.9c0,2.7-1.9,2.3-2,4.8c-0.7,0.1-1.4,0.1-2.1,0.2c0-0.3,0.1-0.5,0.2-0.8
								c-0.6-0.2-1.3-0.3-2-0.3c-0.7,0-1.6,1-2.2,1.3c-0.9,0.5-1.6,0.3-2.6,0.8c-0.3,0.1-0.4,0.6-1,0.6c0,0-1-0.8-1-1
								s0.3-0.4,0.3-0.8c-1.3-0.2-2.4,1.4-4,1.4c-0.2,0-0.3-0.5-0.4-0.8c-0.5,0-0.8-0.3-1.4-0.3c0-0.3,0-0.5,0-0.8
								c-0.4-0.1-0.6-0.6-0.6-1.2c0.1-1,0.5-1.9,1.3-2.6c0.2-0.2,0.7-0.3,0.7-0.7v-0.6c0,0-1.1-0.1-1.1-0.8s0.1-1.1,0.1-1.8v-0.8
								c-1.2,1.2-3.4,1.5-3.4,4.4c0,1.7,0.9,2.2,1.2,4.1c0.2,0.6,0.3,1.2,0.4,1.7c0,0.6-0.9,1.2-1.3,1.2c-0.5,0-1-0.4-1.4,0.1
								c-0.1,0.1-0.3,0.7-0.5,0.5c-0.4,0.2-0.1,0-0.8,0c-1.3,0-2.1,1.1-2.9,2.1c-0.1,0.1-0.6,0.5-0.6,0.8c0,0.8,0.2,1.7-0.3,2.2
								c-0.9,0.6-1.9,1.1-2.9,1.5c-0.3,0.1-0.5,0.1-0.8,0.1c-0.4,1.7-0.8,3.2-2.6,3.2c-0.1,0.6-0.5,1-1,1c-0.6-0.1-1.2-0.2-1.7-0.5
								H193v0.2c0.8,0.2,0.6,1.2,1,1.4v0.5c-0.4,0.2-0.8,0.3-1.3,0.3c-0.5,0-1.4-0.3-1.6-0.7c-0.6,0.2-2.2,0.6-2.2,1.2
								c0,0.1,0,0.3,0.1,0.3c0,1,2.6,1.6,3.5,2c0.3,0.1,0.3,0.4,0.7,0.5c0,1.1,0.4,2.4,1.5,2.4c0,0.6,0.4,0.4,0.4,1.1
								c0,0.3-0.1,0.7-0.2,1l0.1-0.1c0,0.4,0.1,1.6,0.1,1.9c0,1.3-0.8,1.7-0.8,3.1c-0.5,0.1-1,0.3-1.4,0.3c-0.6,0-1.6-1.3-1.6-1.3
								h-2.8c-0.3,0.4-0.6,0.7-1,1h-2.6c-0.4-0.2-0.6-0.6-0.9-0.6s-2.3,1.5-2.3,1.9c0,0.6,0.6,1.6,0.6,2.6c0,1.8-0.5,3.6-0.5,5.3
								c0,0.5-0.6,0.7-0.6,1.6c0,0.5,0.4,0.9,0.9,1v2.8c0,0.2,0.1,0.6,0.5,0.6c0.9,0,1.5-0.5,2.5-0.5c1.3,0,1.4,2.6,2.3,2.6
								c1.3,0,2-1.4,3.4-1.4c0.3,0,1.4-0.1,1.4-0.1v0.1c1.2,0.4,1.3-1.3,2-1.8c1.2-0.7,1.6-1.6,2.3-3c-0.4-0.1-0.6-0.5-0.6-0.9
								c0-1.5,1.7-4.4,2.7-4.7c1.2-0.4,2.5-0.8,2.9-2.2l-0.4-1.5c0-1,0.8-1.8,1.8-1.8c1.2,0,2,0.8,3.3,0.8s2-1.3,3.2-1.9
								c0.5-0.3,0.6-1.2,1.6-1.2c2.2,0,2.6,2.9,3.6,4.5c0.1,0.5,1,0.8,1.4,1.3c0.7,1.2,1.9,2,3.2,2.3c0,0.4,0.9,0.7,1.1,0.7
								c0.4,0.8,1,1.5,1.6,2.1c0.1,0.6,0.6,0.9,0.6,2c0,0.8-0.3,1.9-1,1.9c0,0.3,0.2,0.5,0.6,0.5c0.8,0,0.7-1.5,1.2-2.1
								c0,0,0.8,0,0.8-0.4c0-0.9-1.1-1.1-1.1-2c0-0.6,0.6-1.2,1.2-1.1c0,0,0.1,0,0.1,0c0.9,0,1.3,0.9,1.9,1c0.2-1.5-1.2-2-2.4-2.7
								c-0.4-0.2-1.8-0.6-1.5-1.4c0.1-0.2,0.1-0.4,0.1-0.6c-0.9,0-1.4,0.4-2.3-0.1c-0.6-0.7-1-1.5-1.1-2.4c-0.2-0.6-0.6-1.8-1.5-2.2
								c-0.8-0.2-1.3-1-1.2-1.8c0-0.4,0.1-0.9,0.2-1.3c-0.1,0-0.3-0.3-0.3-0.4c0-0.8,1.3-0.8,1.9-1.3c0.4,0.4,0,1.9,0.8,1.9h1.8
								c0,1.6,1.4,4,2.7,4h0.8c0,1,0.9,1.1,1.8,1.5s2.1,2,2.1,3v2.2c0,1.3,0.8,1.9,1.5,2.6c0.5,0.6,0.9,1.3,1.1,2
								c0,0.1,0.1,0.7,0.3,0.7h0.9c-0.1,0.3-0.7,0.5-0.7,0.9c0,1.1,0.7,2.1,1.6,2.1h1.4v-1.1c0-0.6-0.2-0.8-1.1-1.2V149
								c1,0.4,1.6,0.9,2.2,0.8h0.1c0.1-0.2,0.7,0,1-0.2c-0.1-0.2-0.2-0.4-0.2-0.6c-0.5,0-2-1.7-2-1.9s0.2-0.4,0.2-0.8l-1.1-1.5
								c0-0.3,0.3-0.8,0.6-0.8c0.5,0,0.6,1,1.5,1c0.1-0.5,0.1-1,0-1.5c0.8-0.3,1-0.9,1.9-0.9s1.6,1.4,2.4,1.4s0.9-0.9,1.7-1.3
								c0.5-0.3,0.9,0,1.4-0.2c0.3-0.1,0.5,0,0.8-0.3c-0.4-0.6-1.9-1.6-1.9-3c0-1,1.4-3,1.4-3v-1.8c0,0,0.4,0.1,0.6-1
								c0-0.7,0.6-1,1.2-1.2c-0.1-0.4,0-0.7-0.1-1c1.3-0.4,1.4-2.2,2.7-2.2c1.1,0,3.7,5.2,4.5,5.2c1.5-0.4,2.9-1.1,4.1-2.1
								c-0.1,0-1.6-0.3-1.6-0.3c-0.6,0-1-0.4-1-1c0-0.6,4.2-2.4,5.8-3.1c-0.3,0.4-0.6,0.8-1,1.2c0.1,0.4,1.6,2.3-1.7,3.3
								c1.5,4.1,8.1,3.4,8.1,8.9h0.2h0.1c-1,0.5-1.7,1.6-2.9,1h-3.3c-0.6,0.5-2.9,0.1-2.9-0.8c-1.3,0-1.3-1-2.8-1
								c-1.2-0.1-2.3,0.1-3.4,0.6c-0.8,0.5-1.6,0.9-2.4,1.2h-1.9c-0.3,0-1.3-0.3-1.3,0.3s0.3,0.3,0.4,0.8c-1,0.6-5,0.2-5,2.2
								c0,0.4,0.6,0.3,0.9,0.3c-0.1,0.3,0,0.3,0,0.8c0,1.2-0.6,1.1-1.2,1.8c0.8,0.5,1.4,0.4,1.9,1.2c-0.6,0.7,1,1.7,1.4,2.1
								c-0.1,0.2-0.3,0.3-0.4,0.4h1c1.1-0.6,1.7,1.3,2.8,1.3s0.8-1.6,2.1-1.6s1.7,1.8,2.9,1.8c1.7,0,2-0.9,2.9-1.8
								c0.3,0.4,0.7,0.6,1.2,0.6c0.5,0,0.6-0.4,1.1-0.6v0.7c-0.2,0.2-0.4,0.4-0.4,0.7c0,0.9,0.3,1.9,0.3,3.1c0,1.7-1.2,2-1.5,3.5
								s-0.5,2.2-0.9,3.8c-0.1,0.3-0.5,0.3-0.5,0.8l0.3,0.9c-0.1-0.2-0.1-0.3-0.2-0.5c-0.8,0.2-0.8,0.6-1.6,0.6
								c-1.3,0-1.9-0.9-3.1-0.9c-1.8,0-2.4,1.1-4.3,1.1c-2.1,0-4.7-1.1-6.6-1.9c-0.9-0.4-2.3,0.1-2.8-0.7c-0.2-0.4-0.9-0.6-0.9-1.6
								h-1.3l-0.2-0.1c-1.8,0.7-3.2,0.7-3.2,3v1.6c0,0-0.7,1-1.3,1c-4.3,0-5.6-5.6-9.4-5.5h-1.6c-1.1,0-2.6-1.5-2.6-3.3
								c0-1,0.8-1.6,0.8-2.6c0-0.6-0.8-0.9-0.8-1.5c0-0.9,0.8-0.8,0.9-1.8c-0.4,0.1-0.5,0.4-0.9,0.4c-0.9,0-0.6-1.2-1.7-1.2
								s-1.2,1-2.3,1c-0.6,0-1-0.5-1.7-0.5s-1.8,1-2.4,1c-0.5,0-1.2-0.7-2-0.7c-2.6,0-6.9,1.9-9.1,3.3c-0.7,0.4-0.9,1.2-2.1,1.2
								c-1.8,0.1-3.6-0.5-4.9-1.7c-0.4,0.4-0.8,0.9-1.2,1.4h0.2c-1.5,2.2-3.5,4.4-5,6.7c-1.2,1.8-0.3,2.9-1,5.5
								c-0.6,1.3-1.5,2.4-2.6,3.2c-1.1,0.7-2.6,0.6-3.4,1.9c-1.6,2.8-3,5.7-3.9,8.8c-0.3,1.1-1.6,2-1.6,3.4c0,2.8,1.2,4.8,1.2,7.8
								c0,1.8-1.2,5.5-2.4,6.3c0.4,1,0.9,1.3,0.9,2.3c0,0.6,0.3,1.2,0.3,2.2h1.1c0.3,0.4,0.5,0.5,0.7,0.9c1,1.3,2.2,2.6,3.4,3.8
								c1.4,1.3,1.8,2.9,2.8,4.9c1.2,2.1,4.5,4.4,6.1,5.9c0.5,0.3,1.1,0.5,1.7,0.5c2.2,0,3.2-1.3,5.4-1.3c1.1,0,2.6,1,3.4,1
								s1.1-0.9,2-1.2c2.2-0.8,4.3-2.4,7.1-2.4c2.3,0,2.7,3.9,4.4,3.9h2.4c1.9,0,2.9,1.4,3.6,2.8c-0.6,0.5-0.6,2.6-0.6,3.4
								c0,0.3-0.2,0.4,0,1c-0.7,0.8-1.1,1.7-1.3,2.7c0,3.2,3.2,5.5,4.7,7.7c0.7,1.1,0.5,2.7,1,4c0.7,1.8,1.2,3.7,1.4,5.6
								c0.2,1.5,0.7,2.1,0.7,3.8c0,3.6-3.6,4.7-3.6,9.4c0,4.4,1.7,6.9,3.3,10.1c0.4,0.9,1.1,1.3,1.1,2.2v1.8c0,5.9,2.6,9.9,4.7,14
								c0.3,0.6,1.9,2.6,1.9,3.7c0,0.7-0.3,1.3-0.7,1.8c0.6,1,1,2.2,1,3.4c0.2-0.2,0.4-0.3,0.6-0.3c0.2,0.8,1,1.3,1.8,1.4
								c2.1,0,3.6-2,6-2c0.6,0,1,0.7,1.6,0.7s1-0.4,1.7-0.5c0.2-1.2,1.6-0.7,2.6-1.2c2.3-1.3,3-3.2,4.4-5.4c0.9-1.4,1-2.9,2.3-4.4
								c0.7-0.8,2.3-2.3,2.3-4.2c0-0.6-0.3-1.1-0.9-1.4c0.5-1.4,1.5-2.5,2.8-3.2c0.4-0.2,1.4,0.1,1.7-0.5c0.4-1.3,0.5-2.6,0.5-3.9
								c0-2-1.6-3-1.6-4.5c0.1-0.9,0.8-1.7,1.7-2c0.6-4.4,8.1-3.8,8.1-9.1c0-0.5-0.1-1-0.5-1.4c0-1.9,0.2-3.2,0.2-4.2V251
								c0.2-0.3,0.3-0.7,0.4-1.1c0-1.3-2-2.5-2-4.9c0-2.1-0.4-3.1-0.4-5.2c0-2,1.4-2.4,1.7-4.2c1.3-6.2,5.1-7.3,8.5-10.9
								c2-2,2.6-4.5,4.2-7.3c1.3-2.4,3.7-7.5,3.7-11.4c0-0.4-0.2-0.6-0.4-1c-1.9,0.8-3.8,1.5-5.8,2.1c-0.8,0.1-1.3-0.4-2.1,0
								s-0.7,1.2-1.6,1.2s-1.6-2.2-2.3-2.9c0.5-0.8,0-1,0-2.2c-1.7,0-2.2-2.9-3-3.7s-1.5-1-2.4-2.1s-0.4-3-1.3-4.7
								c-0.8-1.4-1.8-1.4-2.4-3.3V186c-0.9-0.8-2.7-4-2.4-5.5l-5.6-12v-1.2c1,1.2,2,4.3,3.3,4.5c0.2-0.7,0.8-2.4,1.1-3.4
								c-0.1,0.9-0.3,1.7-0.3,2.2c0.3,0.6,0.6,1.1,1,1.7c0.6,1.2,1.2,2.2,1.9,3.5c0.4,0.5,0.6,1.1,0.8,1.7c0.1,0.4,0,1.4,0.4,1.9
								c0.2,0.2,1,0.1,1.2,0.4s0.5,0.6,0.8,0.9c0.2,1.3,1,1.7,1,3.3c0,2.6,0.5,4.1,2.6,4.6c0,1.7,1.6,4.1,2.4,4.9s1.6,1.4,1.4,2.9
								c-0.1,0.6-0.6,1.9,0.1,2c0,1.3,0.4,2.5,1,3.6c0.4,0.7-0.1,0.7,0.1,0.8c0.6,0.4,1.2,0.7,1.9,0.9l0.4-0.3
								c1.2,0,1.4-0.6,2.4-1.4h1.9c0.8-0.4,3.1-2.4,3.8-2.6c1.6-0.4,3.1-0.9,4.6-1.7c-0.1-0.2-0.2-0.4-0.2-0.6
								c0-1.5,3.6-2.3,5.2-2.6c0.1-0.9,0.8-1.7,1.6-2c0.9,0,0.8-2,1.7-2c0.7,0,0.6-1.2,0.9-2c0.2-0.8,0.9-1.2,1.7-1.1
								c0-1.7,1.7-2.2,1.7-3.8c0-0.6-0.8-0.5-1.1-1.1v0.5c-0.4-0.3-0.5-1.4-1.2-1.6c-1.8-0.6-3-1-3.8-2.9v-2.5
								c-2.2,1.8-2.5,4.6-6.7,4.6c-0.9,0-2.5-0.5-2.5-1.4s0.4-1.4,0.4-2.2c0-0.3,0-0.5-0.1-0.8c-0.6,0.1-0.5,1-1.2,1.2
								c-0.1-0.6-0.4-0.8-0.4-1.6c-1.4-0.4-3.1-3.3-3.5-4.9c-0.1-0.5-0.2-1-0.1-1.6c0-1,0.4-2.2,1.2-2.2c1.7,0,3.1,2.1,3.8,3.6
								c0.1,0.3-0.1,0.8,0.3,1.2c0.7,0.8,1.7,0.3,2.4,1.2c0.6,0.7,1.1,1.6,2.1,1.9h3.1c0.4-0.4,0.6-1,1.3-1c1.3,0,1.3,2.1,1.9,2.7
								c0.7,0.3,1.4,0.5,2.2,0.6c1.7,0,4.4,0.8,5.6,0.8c0.1,0,0.3,0.1,0.3,0l2.2-0.1c0.2-0.2,0.3-0.3,0.5-0.5l1.6,0.5
								c0.6,0,0.8-0.5,1.5-0.5c0.6-0.1,1.2-0.1,1.9,0.1c0.7,0.3,1.1,1.8,1.6,2.7c0.8,1.3,2.2,2.1,3.6,2.4c0.5,0,1,0,1.4,0.1
								c-0.2,0.3-0.3,0.9-0.8,1s-1-0.1-1.5,0.3c0.9,1,1.7,3.1,3.6,3.1c1.6,0,1.7-2.3,2.5-3.2h-2c0,0.3-0.4,0.8-0.4,1
								c0,0.9,0.6,1.8,0.6,2.9c0,0.9-0.3,1.1-0.3,2l0,0c0,0.2,0.1,0.8,0.1,1c0.2,1.4,0.5,2.8,1,4.1c0.4,1.6,1.5,3.9,1.8,4.9
								c0.1,0.8,0.4,1.5,0.7,2.2c0.5,0.8,0.2,1.8,0.6,2.9c0.2,0.6,1.1,1.3,1.3,2.2c0.4,1.5,1,2.9,1.5,4.6c0.1,0.2,0.2,0.7,0.5,0.7
								c0,0.4,0.3,0.7,0.8,0.7c0,0,0.1,0,0.1,0c0.5,0,0.5-0.9,0.8-1.4s0.4-0.4,1.1-0.9c0.5-0.3,0.3-2.1,1.1-2.4
								c0.2-0.1,0.6-0.1,0.6-0.3l0.3-0.1l-0.3-1.8c0-1.3,0.7-2.5,0.7-4.2c0-1.1-0.4-1.8-0.4-3.1c0-1.5,1.2-1.7,2.3-2.1
								c0.4-0.1,1.1-1,1.5-1.6c1.1-1.3,2.2-2.8,3.4-4.1c0.9-1.1,2.6-1.5,3.7-2.8c0.5-0.6,0.5-1.4,0.7-2.4c0.2-0.6,1.4-0.7,1.8-1.8
								c0.5,0.4,0.5,0.7,1.4,0.7c1.5,0,3.2-0.4,3.2-2.5c1,0.1,1.8,0.7,2.1,1.6c0.1,1,0.3,1.9,0.6,2.8c0.5,0.9,1.2,1.6,1.9,2.2
								c0.7,1.2,1.3,2.4,1.7,3.7c0.1,0.4,0.4,0.6,0.4,0.9c0,0.8-0.3,1.2-0.3,2.1s0.1,1.8,0.9,1.8c1.6,0,2.1-2,3.1-3.2
								c0.4,0.4,0.2,0.7,0.5,1.1c0.1,0.1,0.6,0,0.8,0.4c0.6,1.1-0.4,3.2,0.4,3.2c0,2.3,1.5,4.1,1.5,7.2c0,0.8-0.5,2.4,0,2.7h-0.6
								c-0.2,0.7-0.3,1.4-0.3,2.1c0,0.1-0.1,0.4,0,0.4c0.5,0.4,0.2,0,0.8,0c0.9,0,1.3,2.5,1.7,3.5c0.5,1.7,1,3.4,1.3,5.1
								c0.5,2.2,2,4,4,5.1c0.4,0.1,0.4,0.6,1,0.6c0.2,0,0.2-0.3,0.4-0.3c0.3,0,0.5,0,0.8-0.1c-0.2-0.7-0.4-1.3-0.5-2
								c-0.2-0.8-1.1-1.2-1.1-2.5c0-0.6,0.2-0.6,0.2-1.3c0-3.5-3.4-3.9-5-5.8c-0.4-0.5-0.5-1.7-0.7-1.8h0.2c0-2.4-2-1.6-2-3.7
								c0-1.9,1.7-2.4,1.7-4.5c0-0.6-0.2-0.7-0.2-1.3c0-0.3-0.1-0.8,0.4-0.8c0.6,0,1.3,0.1,1.5,0.9c0,0,0.2,0.9,0.3,0.9
								c1,0.2,1.9,0.7,2.5,1.4c0.7,0.9,0.1,1.9,1.3,1.9c0,1,1.2,1.4,2,1.4c0.1,0.4,0.2,0.9,0.4,1.1c-0.2,0.1-0.2,0.4-0.2,1
								s0.2,1.4,0.5,1.4s1.4-1,0.8-1.7V209c0.6,0.2,0.6,0.6,0.8,0.6c0.7,0,0.6-1.1,1.3-1.5c1.5-0.9,1.7-1.6,3.5-2.2
								c0-1.2,0.7-1.9,0.7-3.5c0-2.3-0.9-5.3-2.3-6.4s-2-2.9-3.4-4.5c-0.2-0.3-0.5-0.4-0.5-1c0-3,2.8-3.5,4-5.6
								c1,0.6,1.7,0.1,2.8,0.8c-0.1,0.4-0.2,1.7,0.3,1.7s0.3-0.9,0.8-1.4s1.6-0.7,2-1l0,0c0.1,2,0.1,4,0.1,5.9
								c0,11.9-1.1,23.7-3.3,35.4c-0.6-0.1-1.1,0-1.1,0.8c0.1,0.8,0.3,1.6,0.5,2.3c-0.8,3.7-1.6,7.4-2.6,11
								c-0.3-0.1-0.5-0.2-0.8-0.2c-0.4,0-0.6,0.4-0.9,0.4c-0.2,0-0.3-0.3-0.5-0.3c-0.4,0-1.4,1.2-1.5,1.5c0.9,0,1.3,0.8,1.9,1.5
								c0.2,0.3,0.5,0.4,0.9,0.3C348.9,324.7,274.5,380.6,190,380.6L190,380.6z M52.8,124.8h0.7c1.1,0.7,2,1.6,2.9,2.6
								c0.3,0.8,0,1.5,0.5,2.1c1.3,1.6,3.1,1.2,4.5,2.3h1.5c0.7,0.6,1.6,1.2,1.6,2.3c0,0.5-0.2,0.8-0.6,0.8c-0.7,0-1.4-0.9-1.6-1.2
								c-0.2,1.1-0.7,4.4-1.5,4.4l0,0c-0.6-0.6-0.6-1-0.8-2.1c-0.6,0.2-0.5,0.5-1.1,0.5c0.3-0.8,0.5-1.7,0.6-2.5
								c0-0.8-2.1-2.1-2.6-2.1c-0.9,0,0,1.7-2.1,1.8c-0.6,0.1-0.6,2.1-0.6,3v1.9c0,0-0.3,3-1.2,3c-0.7-0.1-1.3-0.7-1.3-1.4
								c0-1.8,0.5-5.3,1.5-6.9c-0.6,0-0.8,0.6-1.4,1c0.1-1.4,2.4-3.3,3.7-3.3c0.9,0.2,1.8,0.2,2.7,0v-0.8c-1.3,0-2-0.9-3.4-0.9
								c-0.6,0-0.9,0.7-1.6,0.7c-0.4,0-0.9-0.4-1-0.1h-1.1c0.2-1.3,0.6-1.5,0.6-2.4c-0.9,0.2-1.9,1.5-2.5,1.5s-0.6,0.9-1.6,0.9
								c-0.5,0-0.6-0.1-0.9-0.7c-0.4,0.2-0.7,0.4-1,0.7h-0.7c1.3-1.9,2.8-2.6,4.3-3.8c-2.1,0-3.5,0-4.6-1.3c1.1,1.3,2.6,1.3,4.6,1.3
								c0.7-0.3,0.8,0,1.4-0.3s0.3-1.4,0.9-1.4s1.1,1.2,1.3,1.5C52.8,125.4,52.8,125.1,52.8,124.8z M64.6,140
								c-1.3,0.8-3.3,1.9-4.5,1.9c-0.6,0-0.8-1-0.8-1.7c0.2,0.4,0.5,0.8,0.9,0.8c0.5,0,0.6-0.4,0.8-0.7c0.5-0.6,1.4-0.6,2.2-0.6
								C64.1,139.7,64.3,140.2,64.6,140z M40.3,122.9c0.2,0.3,0.4,0.6,0.6,0.9C40.7,123.5,40.6,123.2,40.3,122.9z M65.2,138.2
								c-0.1-0.2-0.3-0.4-0.3-0.6s0.6-0.5,0.8-0.6c1.7-0.7,3.6-1.1,5.4-1.3l0.1-0.1l-0.1,0.1c0,2.6-3.7,1.9-5.4,1.9
								c-0.3,0-0.3,0.1-0.7,0.1C65.1,137.9,65.1,138.1,65.2,138.2z M65.6,139.5L65.6,139.5l-0.9,0.6L65.6,139.5z M72.9,133.6
								c0.3-0.4,0.6-0.7,0.7-0.8l0,0l0,0C73.6,132.9,73.3,133.3,72.9,133.6z M84.6,127.2c0.2,0,0.3,0.2,0.4,0.3
								c0.1,0.2,0.2,0.5,0.3,0.7c-0.1-0.3-0.2-0.5-0.3-0.7C84.9,127.3,84.7,127.2,84.6,127.2z M314.5,151.8L314.5,151.8
								c-0.3,0-0.5-0.2-0.6-0.6C314,151.5,314.2,151.8,314.5,151.8z M311.9,149c-0.2,0.3-0.4,0.6-0.6,0.6c-0.1,0-0.1,0-0.2,0h0.2
								C311.5,149.6,311.7,149.3,311.9,149z M308.5,151.8L308.5,151.8c-0.5,0-0.6-0.8-1.1-0.8s-1.7,0.5-1.9-0.3
								c0.1,0.8,1.5,0.3,1.9,0.3S308,151.8,308.5,151.8z M304.6,149.8c-0.5,0-0.9,0.2-1.1,0.6C303.7,150,304.1,149.8,304.6,149.8
								L304.6,149.8z M297.7,154.6c-0.2,0-0.2,0.3-0.3,0.4c-0.5,0.8-0.9,1.6-1.2,2.4c0.3-0.9,0.7-1.7,1.2-2.4
								c-0.2-0.5-0.2-1-0.2-1.4c0,0.4,0.1,0.9,0.2,1.3c0.6-0.9,1.1,0.3,1.7,0.3C298.5,155.2,298.2,154.6,297.7,154.6z M296.1,158.5
								c0,0,0,0.1-0.1,0.1l0,0C296,158.6,296.1,158.6,296.1,158.5z M289.9,148c-0.3,0.3-0.8,0.5-1.2,0.6
								C289.1,148.5,289.5,148.3,289.9,148z M287.2,149c-0.2,0.1-0.3,0.2-0.4,0.3C286.9,149.1,287.1,149,287.2,149z M280.1,135.3
								c1.1,2.3,2.6,3.2,2.6,5.9c0.6-0.4,1.3-0.7,2-1c0.1,1,1,1.6,1,2.6H284c-0.5,0-1,0.7-1.2,1.7c1.3,0.4,2.1,1.6,2,2.9
								c0,0.8-0.4,1-0.4,1.6c0.1,0.5,0.3,1,0.6,1.5v1.2c-0.9,0.3-1.8,0.4-2.7,0.4c-0.8,0-2.2,0.1-2.7-0.4c-0.3-0.4-0.5-1.1-1-1.2
								s-1.4,0.3-1.7-0.5s0.2-1.4-0.3-2.2c-0.3-0.6-0.8-0.5-0.8-1.2c0-0.1,0-0.3,0-0.4c-0.2-0.3-0.3-0.6-0.3-0.9
								c0,0.3,0.1,0.6,0.3,0.9c-0.1,0.1,0,0.3,0,0.4l0.8,0.1c0.7-1.1,0.7-2.8,1.6-3.3c-1.6-1-3.9-5.2-3.9-7.6c0-0.7-1.3-1.7-1.3-2.8
								c0.4-1.2,0.8-2.3,1.4-3.3c0.3,0.2,2-1,2.2-1c1.3-0.8,2.8-1.2,4.3-1.2c3.1,0,3.6,1.8,4.8,3.9c-0.9,0.8-2,0.1-3.1,0.1
								c-1.6,0-3.9,1.8-4.1,1.7C278.8,134.6,279.7,134.5,280.1,135.3L280.1,135.3z M275.4,145.1c-0.3,0-0.6,0.1-0.8,0.2
								c-0.9,0.3-0.8,1.6-2.1,1.6l0,0c1.3,0,1.2-1.2,2.1-1.6C274.9,145.2,275.1,145.1,275.4,145.1L275.4,145.1z M243.2,64.6
								c0,1.3,2,1.3,2,2.8c0,1.2-1,1.7-1,2.9s1.2,2.1,1.2,3.5c0-1.4-1.2-2.2-1.2-3.5s1-1.7,1-2.9C245.3,65.8,243.2,65.9,243.2,64.6z
								 M234.6,119.3c0.4-0.3,1.2-0.6,1.2-1.4c0-1.2-0.8-2-1-3.2c0.2,1.2,1,2,1,3.2C235.8,118.7,234.9,119,234.6,119.3z
								 M235.3,125.1c-0.8,0-1.3-0.2-1.3-1.6l0,0C234,124.8,234.5,125,235.3,125.1z M235.5,111.3c0,0.2,0,0.5,0,0.7l0,0
								C235.5,111.8,235.5,111.5,235.5,111.3L235.5,111.3z M253.7,167.8C253.7,167.8,253.7,167.8,253.7,167.8
								C253.7,167.8,253.7,167.7,253.7,167.8L253.7,167.8z"/>
							<path class="st7" d="M491,56.6c0.6,0,5.2-0.3,5.2-1.2s-2.2-1.7-3.1-1.7s-2.7,1.2-2.7,2.3C490.4,56.2,490.7,56.5,491,56.6z"/>
							<path class="st7" d="M474.6,61.3c0.3-0.1,0.6-0.3,0.6-0.7c0-0.4-0.3-0.5-0.4-0.8h-1.9C473.2,60.6,473.8,61.3,474.6,61.3z"/>
							<path class="st7" d="M215,24c0.2,0,0.3,0.2,0.5,0.3c-0.2,1.1,0.6,1.7,1.6,2.3c-0.2,0-0.3,0.1-0.5,0.1
								c0.3,0.7,1.1,1.2,1.9,1.1c1.2,0,1.7-2,1.7-2h0.5l0.9,1h1.5c0,0-2.2,1.2-3,1.5c-0.3,0.1-1.6,0.1-1.6,0.7
								c0,1.7,1.5,0.9,2.2,0.9c0.9,0,1.8,0.1,2.6,0.4c-0.7,0.2-1.3,0-1.9,0.6c-0.7-0.1-1.4-0.1-2.1-0.1c0,2.4,3.1,3.3,4.5,4.4
								c0.8-1,0.7-2.9,1.7-3.8c0.3-0.3,0.8-0.1,0.9-0.5c0.6-1.8,1.2-4.9,3.2-4.9c0.3,0.5,0.8,0.9,1.4,1c-0.3,0-0.5,0.1-0.8,0.1
								c0.2,0.5,0.8,1.8,1.1,1.9c-0.1,1-0.7,0.7-0.9,1.9c0.8,0.1,2,0,2.7,0.1c-0.2,0.4-0.2,0.8-0.1,1.2c1.4-0.5,2.1-1.7,3.6-2.4
								c-0.6-0.8-1.4-1.6-2.2-2.2h-1.9c0.1-0.4,0.1-0.9,0-1.3c-0.3,0.1-0.7,0.1-1,0c0.2,0,0.4,0,0.6-0.1c-0.6-0.8-3.6-2.9-4.6-2.9
								c-0.2,0-0.4-0.1-0.6-0.1c0.1-0.5,0.2-1.7-0.7-1.7c-0.5,0-0.6,0.6-1,0.9c0-0.5,0.2-0.9,0.2-1.4c0-0.7-1.6-1.4-2.3-1.4
								s-1.2,0-1.2,1c0,1.1,0.3,2.1,0.7,3c-1.4-0.6-1-3-2.6-3c-0.6,0.1-1,0.6-1,1.2c0,0.3,0.1,0.7,0.4,0.9c-0.4-0.5-1-0.5-1.6-1
								c0.2-0.3,0.4-0.7,0.7-1c-0.9-0.2-1.9-0.3-2.9-0.3c-0.6,0-1.8,1.3-2,1.6C214,22.8,214.6,24,215,24z"/>
							<path class="st7" d="M228.8,21.1c0.1,0,2.4,0.2,2.6,0.2c-0.3,0.1-0.9,0.1-1.4,0.3c-0.4,0-0.7,0-1.1,0.1
								c0,0.5,0.3,0.9,0.7,1.1h3.2c0.3,0.8,1.1,1.3,1.9,1.2c1.6,0,4.4-2.3,5.7-3.4c-0.5-1-1.4-1.7-2.5-1.8h-1.9
								c-0.6,0.2-1.1,0.4-1.7,0.5c-0.1-0.8-0.1-1.7,0-2.5h-0.7c0,0-0.8,2.4-1.4,2.4c-0.8-0.4-1.6-0.9-2.3-1.4h-1.6l0.3,1H228V19
								c-0.4,0.2-0.8,0.1-1.1-0.2h-0.8c0.1,0.6,0.4,1.2,0.8,1.6C226.8,21.9,227.9,21.1,228.8,21.1z"/>
							<path class="st7" d="M215.5,27.8c-0.4-1.5-1.2-1.8-1.9-2.9C212.8,25.6,214.4,27.5,215.5,27.8z"/>
							<path class="st7" d="M214,24.8c-0.1,0-0.1,0.1-0.1,0.1L214,25V24.8z"/>
							<path class="st7" d="M213.6,24.8c0,0,0.1,0.1,0.1,0.1l0,0L213.6,24.8z"/>
							<path class="st7" d="M181.2,116.1c0.4,0,0.8-0.1,1.1-0.3c0.5-0.3,1.2-1.5,2.1-1.5c0.6,0,1.1,0.1,1.5-0.3s0.1-1.4,0.1-1.9
								v-2.4c0-0.6,1-0.5,1-1c0-1.2-0.6-2.8-2-2.8h-1c-0.6,0-1.7,0.8-1.7,1.3s0.1,0.5,0.4,0.9c-0.4,0.4-1,0.7-1.6,0.7
								c-0.2,0-0.6-0.1-0.6,0.8c0,0.7,0.5,1.1,1.1,1.5c-0.2,1.7-1.7,1.8-1.7,3.5C179.8,115.3,180.4,116,181.2,116.1z"/>
							<path class="st7" d="M185.1,99c0.6,0,1.1-0.8,1.1-1.6c-0.5,0-1.4,0.3-1.4,0.8C184.8,98.5,185,99,185.1,99z"/>
							<path class="st7" d="M187,101v0.6c0,0.1-0.4,0.6-0.4,0.9s0.4,0.6,0.4,0.6v0.6l1,0.5v1.6h-0.3c-0.1-0.8-0.3-1,0-1.5
								c0.3,0.2,0.6,0.3,1,0.3c-0.2,0.6,0,0.7,0,1.3s-0.6,0.9-0.6,1.5s0.4,0.6,0.9,0.6s0.8-0.3,1.3-0.3c0.2,0,0.4,0.1,0.5,0.1
								c-0.1,0.3-0.4,0.4-0.4,1c0,0.7,1.5,0.8,1.5,0.8v1c-0.8,0.6-1.7,1.1-2.8,1.3c0,0.8,0.5,1.1,0.5,2s-1.6,1.1-1.6,2.2
								c0,0.1,0.2,0.3,0.3,0.3c0.3,0,0.2-0.3,0.6-0.3c0.6,0,0.9,0.8,1.6,0.8c0.4,0,0.8-0.3,1-0.7c0,0.1,0.1,0.3,0.1,0.5
								c0,1-1.2,0.6-2,0.9c-0.2,0.1-1.9,2.3-1.8,2.6v0.8h0.1c0.2-0.4,0.4-0.8,0.8-1h0.8c0,0,0.3-1.1,0.9-1.1c0.4,0,0.6,0.4,1.1,0.4
								c0.9,0,2.4-0.6,3-0.3h2.3c0.7-0.4,1.3-0.8,1.9-1.4v-0.5c-0.5,0-1-0.1-1.5-0.3c0.5-0.9,1.9-1.5,1.9-2.8c0-0.7-0.5-1.3-1.2-1.3
								c-0.5,0-0.4-0.1-0.8,0.3l0.3-0.3c-0.2,0.1-0.3,0.3-0.7,0.5v-0.5c0.2-0.1,0.3-0.3,0.3-0.5c0-0.5-0.6-0.9-0.6-1.4
								c0-1.7-1.5-2.2-2.4-3.3c-0.7-0.8-0.5-2.5-1.6-2.9c-0.5-0.1-0.8,0.1-1.3-0.1c0-0.3,0.2-0.5,0.5-0.6c0-1.5,1.8-2.3,1.6-4h-3.4
								c-0.1-0.2-0.1-0.5-0.2-0.7c0.2-1,1.4-0.8,1.4-1.8c0-0.1-0.6-0.5-0.6-0.5h-1.7c0,0-0.9,0.4-0.9,0.7s-0.2,0.6-0.2,1.2
								c-0.4,0-0.8,0.3-0.8,0.8c0,0,0,0,0,0.1c0,0.2,0.1,0.3,0.3,0.4c0,0.1-0.1,0.4-0.2,0.4c-0.3-0.1-0.4-0.3-0.4-0.6h-0.9
								C185.7,100.6,186.1,100.8,187,101z"/>
							<path class="st7" d="M189,108.8c-0.3,0.2-0.4,0.6-0.4,1h0.6c0-0.4,0.1-0.7,0.1-1H189z"/>
							<path class="st7" d="M173.5,76.6l0.1-0.1c0-1.9-2.1-1.4-2.1-3.5c0-0.2,0.2-0.5,0.4-0.6c-0.5,0-0.9,0.3-1.4,0.3s-1-0.1-1-0.9
								c-0.2,0.2-0.2,0.1-0.6,0c-0.2,0.3-0.2,0.7-0.2,1c-0.5-0.6-1.2,0.2-2,0.2c-0.5,0-1-0.2-1.9-0.2c0,0.2,0,0.5,0,0.7
								c-0.2-0.2-0.5-0.4-0.8-0.5l-1.4,0.4c-0.3,0-0.5-0.3-0.8-0.6c-0.2,0.3-0.1,0.4,0,0.9c-0.3,0.1-0.6,0.4-1,0.4s-0.9-0.9-0.9-1.4
								s-0.3-0.6-0.3-1H159c-0.5,0-0.6,0.8-1,0.8v0.6c-0.3-0.3-0.8-0.3-1.2-0.1c0.1,0.8,2.3,1.5,2.9,1.5c0,0.2,0.1,0.4,0.2,0.6
								c-1,0.4-2,0.6-3,0.6c0.6,0.7,1.6,0,2.5,0.3c-0.2,0.7-0.3,1.4-0.3,2.1c-0.2,0-0.3,0.2-0.5,0.3c1.3,0,1.7,1,2.6,1.3
								c1.6,0.8,3.4,1.2,5.2,1.2c2,0,3.1-1.2,4.5-1.7C172,78.5,172.9,77.7,173.5,76.6z"/>
							<path class="st7" d="M72.8,187.4l-0.9-0.1c0-0.2,0-0.3,0-0.5c-1.4-0.1-2.7-0.7-3.6-1.7c-0.1-0.1-0.6-0.8-1-0.8
								c-1.9,0-3.1-1.7-5.7-1.7s-3.8,1.2-4.7,3.2h0.5c0.8-1,2-1.6,3.2-1.8c0.3,0,0.6-0.1,0.8,0.2c-0.2,0.2-0.2,0.5,0.1,0.6h1.7
								c0.8,0.2,1.2,1.2,2,1.2c0.5,0,0.8-0.2,1.2,0.1c0.2,0.1,0.2,0.6,0.6,0.6c0.2,1,1.1,1,2,1.5c-0.1,0.3-0.3,0.6-0.2,0.6v0.4
								c1,0.2,1.9,0.4,2.9,0.5c0.7,0,1.8,0,2.2-0.8C73.7,188.6,73.4,187.7,72.8,187.4z"/>
							<path class="st7" d="M60.1,184.8H60v0.5c-0.3,0-0.5,0.3-0.5,0.6c0,0,0,0,0,0c0,0.1,0.8,0,0.8,0c0.1-0.3,0.1-0.7,0-1
								L60.1,184.8z"/>
							<path class="st7" d="M70.3,192.6l0.1,0.1c-0.6-0.3-1.2-0.5-1.8-0.6c-0.2,0-0.6,0.1-0.6,0.4c0,0.5,0.4,1,0.9,1
								c0.7-0.1,1.3-0.2,1.9-0.4C70.7,193,70.5,192.7,70.3,192.6z"/>
							<path class="st7" d="M86.8,192.1c-0.2,0-0.6,0.1-0.6,0.4c0,0.7,0.8,0.8,1.4,0.8c0.3,0,0.8,0,0.9-0.4
								C88.4,192.4,87,192.1,86.8,192.1z"/>
							<path class="st7" d="M82.5,191.2l0.3,0.3c-1-0.6-1.4-1.8-3.2-1.8c-0.6,0-1,0.3-1.7,0.3c-0.5,0-0.9-0.5-1.4-0.5
								c-0.2,0.1-0.4,0.2-0.5,0.5c0,0.4,0.4,0.7,0.8,0.8c0,0.5,0.1,1,0.4,1.5c-0.7,0.4-1.3,0.1-2.6,0.1c-0.1,0.1-0.2,0.3-0.3,0.3
								c0,0.4,0.3,1,0.7,1.1c0-0.2,0.1-0.3,0.1-0.6c0.3,0.2,0.3,0,0.7,0c0.7,0,2.1-0.2,2.6,0.2c0.3,0.2,0.2,0.9,0.7,0.9
								s0.6-1.2,1.3-1.2c0.3,0,0.2,0.4,0.6,0.4s0.6-0.3,1-0.6H84C83.6,192.2,83.1,191.7,82.5,191.2z"/>
							<path class="st7" d="M94.8,209.1c0,0.2,0.3,0,0.5,0c0.3,0,0.6-0.6,0.7-0.9v-0.5h-0.5C95.1,207.8,94.8,208.4,94.8,209.1z"/>
							<path class="st7" d="M116.7,229.8c-0.3,0-0.8,0.8-0.9-0.1c-0.5-0.1-0.9-0.3-1.2-0.6c0,0.1-0.2,0-0.2,0
								c-0.7,0-1.2,0.7-1.2,1.7c0,0.6,1.5,1.9,2.4,1.9c0.7,0,1.6-1.6,1.6-2.2C117.1,230.3,116.9,229.8,116.7,229.8z"/>
							<path class="st7" d="M75.2,322.8H76v-2.6c-0.2-0.2,0-0.4,0-0.8s-0.2-1.1-0.7-1.1c-0.3,0-0.7,2.1-0.3,2.1v0.9
								C74.6,321.6,74.9,322.2,75.2,322.8z"/>
							<path class="st7" d="M67.7,178.8c-0.1,0-0.2-0.1-0.2,0c0,0.6,0,1.3,0.6,1.3c0.1,0,0.3-0.2,0.3-0.4
								C68.3,179.3,68.1,178.8,67.7,178.8z"/>
							<path class="st7" d="M68.1,175.4c-0.1-0.2-0.3-0.6-0.7-0.6c-0.3,0-0.7,0.2-0.8,0.6C67.1,175.4,67.6,175.4,68.1,175.4z"/>
							<path class="st7" d="M69.4,176.2l-0.3-0.6C69.1,175.9,69.3,176.3,69.4,176.2z"/>
							<path class="st7" d="M75.2,187.1c0.3,0,0.7-0.1,0.8-0.4v-0.6c-0.1,0.4-0.5,0.7-1,0.6c0,0,0,0,0,0v0.4
								C75,187.2,75.2,187.1,75.2,187.1z"/>
							<path class="st7" d="M60.8,81.8h1.6c0.7,0,1.4-0.3,1.9-0.8c-0.5-0.8-1.6-0.5-2.5-1.3c-0.3-0.3-0.1-0.8-0.4-1.2
								c-1-1.7-2.9-1-4.1-2.8c-0.2,0.2-0.4,0.3-0.5,0.6c-0.4-0.6-0.6-1.3-0.9-1.9c-1.6,0.2-1.9,3-1.9,4.2v1c0,0.4-0.3,0.6-0.6,0.9
								c-0.1,0.3-0.8,0.2-0.9,1.4c0.8-0.2,1.6-0.1,2.4,0c-0.1,0.7-0.3,1.4,0.4,1.4c0.3,0,0.3-0.2,0.5-0.6c0.8,0.4,2.7-1,2.7-2.6
								C59.4,80.6,60.1,81.1,60.8,81.8z"/>
							<path class="st7" d="M70.5,70.2c0.7,0,2.1-0.6,2.1-1.5c0-2.3-3.6-2.8-3.6,0C69,69.5,69.6,70.2,70.5,70.2
								C70.4,70.2,70.5,70.2,70.5,70.2z"/>
							<path class="st7" d="M59.3,84.1c-0.1,0.4-0.8,1-1.3,1.7v0.9c1.2-0.5,2.2-1.3,2.9-2.4C60.2,84,60.4,84,59.3,84.1z"/>
							<path class="st7" d="M63.7,87.1c0.3,0.4,0.5,0.7,0.9,1c0.6,0,0.7-1,1-1.5C65,85.8,63.7,85.8,63.7,87.1z"/>
							<path class="st7" d="M74,68.4c0.4,0,0.8,0,1.2-0.2C75,68,74.5,67.1,74,67.1c-0.1,0-0.8,0.5-0.8,0.7
								C73.2,68.2,73.6,68.4,74,68.4z"/>
							<path class="st7" d="M65.7,64.7c0.7,0,1.2-0.8,1.3-1.6C66.3,63.1,65,64.7,65.7,64.7z"/>
							<path class="st7" d="M67.1,82.9c0.6,0.6,0.8,0.6,1.3,0C67.8,82.4,67.7,82,67.1,82.9z"/>
							<path class="st7" d="M58.6,75.5c-0.4-0.6-0.4-1.5-1.2-1.1C57.4,74.9,57.9,75.4,58.6,75.5z"/>
							<path class="st7" d="M107.2,62.8h1.3c1,0,2.2-0.2,2.3-1.4c-1.5-0.5-2-2.4-3.5-2.4c-0.7,0-1.3,0.6-1.3,1.3c0,0,0,0.1,0,0.1
								C106.1,61.2,106.7,62.7,107.2,62.8z"/>
							<path class="st7" d="M166,41.7c0.6,0,1.6-0.8,1.9-0.9H167v-1h-1.2c-0.2,0.2-0.6,0.5-0.6,0.9S165.6,41.7,166,41.7z"/>
							<path class="st7" d="M108.9,126.1c0-0.5-0.4-0.8-0.4-1.1s0.5-0.4,0.6-1c-0.2,0-0.5,0.1-0.7,0.2c0-1,0.1-1.7,0.1-2.3
								c-0.6,0.2-1.2,0.2-1.7,0l-0.7,0.3v-0.4h-1v-0.3v-0.3c-0.2-0.3-0.6-0.4-0.9-0.3c-0.4,0.1-0.8,0.3-1.1,0.6v-0.6
								c0.3-1.2,1.4-1.8,1.4-3.3c0-0.2-0.2-0.6-0.4-0.6c-0.9,0-1.2,1.1-1.6,1.9c-0.8,1.5-1.4,4.4-2.9,5.3c0.1,0.2,0.2,0.3,0.4,0.3
								v0.4c0,0.1-1.1,1-1.1,1.3s0.3,0.7,0.6,0.7c0.7,0,1-0.4,1.9-0.4c0.7,0,1,0.5,1.8,0.5c0.4,0,0.8-0.1,1.2-0.3
								c0.3,0.7,1.1,0.3,1.7,0.3c-0.2,0.4-0.7,0.4-0.7,1.1c0,0.1,0.2,0,0.4,0c0.7,0,1.3-1,1.7-1.9c0.5,0.6,0.1,1.9,0.6,1.9
								c0.2,0,0.3,0.1,0.5,0.1c0,0.3,0.1,0.8,0.5,0.8c0.6,0,1-0.8,1-1.7s-0.4-0.6-0.4-1.5C109.3,125.9,109.5,126.1,108.9,126.1z"/>
							<path class="st7" d="M61.4,112.5c0.1,0.2,0.1,0.3,0,0.5c0.5,0.4,1.1,0.7,1.7,0.7c0.1,0,0.3,0.1,0.3,0
								C63.4,112.8,62.4,112.5,61.4,112.5z"/>
							<path class="st7" d="M217.8,150.5c0.9,0.4,1.7,1.5,2.7,1.8c0,0.2,0.3,0.3,0.5,0.3s0.3-0.3,0.3-0.5c0-0.6-0.3-0.6-0.3-1.1
								c0-0.3,0.1-0.5,0.3-0.8l0.2-0.8c-0.9-0.2-1.2,0.4-2,0.4s-1.3-0.9-2.6-0.2v0.5C217.2,150.5,217.6,150.4,217.8,150.5z"/>
							<path class="st7" d="M211.5,141.7c0.2-0.4,0.3-1.9,0.5-2.8c-0.2-0.1-0.2-0.4-0.2-0.8c-0.3,0.1-0.5,0.7-0.9,0.7
								c-0.1,0-0.3,0.1-0.4,0.1C210.7,139.5,210.9,141.5,211.5,141.7z"/>
							<path class="st7" d="M210.3,145.9c0,0.6,0,1.4,0.6,1.4c0.8-0.3,1.4-1,1.5-1.9c0.1-1,0-1.9-0.4-2.8c-0.2,0-0.4-0.4-0.8-0.4
								s-0.6,0.7-1.2,0.9c0.1,0.6,0.6,0.9,0.6,1.5S210.3,145.3,210.3,145.9z"/>
							<path class="st7" d="M201.5,146.4c0.2,0,0.5-0.1,0.5-0.3s-0.3-0.6-0.3-0.8c-0.3,0.1-0.7,0.3-0.9,0.5
								C200.8,145.8,201.2,146.4,201.5,146.4z"/>
							<path class="st7" d="M213,105.8v0.3c-0.3,0.7,0.3,0.9,1,0.9v0.6c0.1-0.3,0.2-0.2,0.2-0.8c0-0.7-0.4-0.6-0.4-1L213,105.8z"/>
							<path class="st7" d="M214.9,107.5l-0.1-0.3c-0.1,0.1-0.2,0.2-0.3,0.3c0.2,0.2,0.5,0.4,0.8,0.4c1.3,0,0.8-2.4,1.8-2.8
								c-0.3-1.2-0.3-1.8-1.5-1.8c-0.4,0-1.1,1.8-1.1,2.1s0.6,1,1.2,1.1C215.6,107,215.3,107.4,214.9,107.5z"/>
							<path class="st7" d="M226.9,99.2c0-0.4,0.3-0.6,0.5-0.9c-1,0.1-1.3,1.3-1.3,1.7s-0.2,0.6,0,0.9
								C226.4,100.3,226.9,100,226.9,99.2z"/>
							<path class="st7" d="M233,98c0.2,0,1-0.5,1-0.7v-0.8c0.2-0.3,0.4-0.6,0.5-0.9c-0.3-0.2-0.5-0.4-0.6-0.7c0,0-0.5,0.3-0.5,0.7
								s0.2,0.6,0.4,0.8c-0.5,0.1-0.8,0.5-1.3,0.6C232.4,97.4,232.5,98,233,98z"/>
							<path class="st7" d="M239.2,156.1c-1.2-0.5-2.4-0.6-3.6-0.4c0.7,0.4,1.4,0.5,2.2,0.6C238.2,156.2,238.4,156.6,239.2,156.1z"
								/>
							<path class="st7" d="M249.8,156.6c0,0.2,0.2,0.4,0.4,0.4c0.5,0,1.6-0.4,1.8-0.8c0.1-0.2-0.1-0.6,0.1-0.7
								c0.4-0.2,0.6,0.1,0.8-0.6c-1.2,0.3-2.3,0.8-3.4,1.4C249.5,156.4,249.7,156.6,249.8,156.6z"/>
							<path class="st7" d="M284.5,204.6c0.5,0,0.9-0.6,1-0.8c-0.6,0-1.2,0.1-1.7,0.3C283.9,204.4,284.1,204.6,284.5,204.6z"/>
							<path class="st7" d="M275.6,64.7c0.9-0.1,1.8-0.6,2.4-1.2v-0.9c-0.8-0.1-1.2-1-2-1c-0.3,0-0.4,0.7-0.7,0.7
								c-0.3,0.5-0.6,1-0.8,1.6C274.5,64.6,274.9,64.7,275.6,64.7z"/>
							<path class="st7" d="M294.3,61.1c0,0,0.8,0.1,0.8-0.4c0-1.4-2.8-2.8-2.8-1.4C292.3,60.2,293.5,61.1,294.3,61.1z"/>
							<path class="st7" d="M313.6,48.2c-0.6-0.5-0.8-1.3-1.4-1.3c-0.5,0-0.9,0.8-0.9,1.4c0,0.2-0.2,0.7,0,0.7
								C312.1,48.9,312.9,48.6,313.6,48.2z"/>
							<path class="st7" d="M90.5,121.1c0.7,0.6,2.4,2.1,3.3,2.1c0.5,0,0.6-0.1,0.8-0.4C93.4,122,92.3,120.7,90.5,121.1z"/>
							<path class="st7" d="M91,128.6c-0.1,0.1-0.2,0.3-0.2,0.5c0,0.5,2.1,1.8,2.6,1.8c0.1,0,0.7-0.4,0.7-0.8v-0.4h-1.8
								C91.7,129.6,91.2,129.2,91,128.6z"/>
							<path class="st7" d="M97.5,129.4c0-0.3-0.3-0.4-0.4-0.7c-0.7,0.6-1.1,1.5-1.3,2.4c0,0.5,0.4,0.8,0.9,0.8c0,0,0,0,0.1,0
								c0.6,0,1.3-0.4,1.3-0.9v-0.5C96.7,130.4,97.5,130,97.5,129.4z"/>
							<path class="st7" d="M-77.1,92.6c-0.5,0-0.6-0.1-0.9,0.1h-0.9c0.1,0.4,0.3,0.8,0.7,1h1.9C-76.3,93.1-76.4,92.6-77.1,92.6z"/>
						</g>
					</g>
				</g>
			</g>
		</g>
	</g>
</g>
</svg>
