<svg xmlns="http://www.w3.org/2000/svg" viewBox="0 0 61.91 115.71"><defs><style>.cls-1{fill:#8fc73e;}</style></defs><g id="Layer_2" data-name="Layer 2"><g id="Layer_2-2" data-name="Layer 2"><path class="cls-1" d="M23,15.52C23.9,31.32,6.13,56,5.07,55.14c3.1,5.7,15.12,28.12,18.86,31.43C16.71,85.11,7.17,62.81.89,60.74c-5,23.62,12.41,36.59,15.19,55,17.76-15.14,23.17-47,13.64-66.88,16,26,6.57,40.74-2.08,65.08C40.52,103.72,53.33,91.8,61.91,72c-5.13,5.82-9.53,10.81-13.59,9.57C60,69.66,60.71,51.14,55.75,36.25c-3,4.23-3.33,9.2-6.21,13.75C53.36,28,33.75.14,9.35,0,19.62,5.11,22.64,8.72,23,15.52Z"/></g></g></svg>