<svg xmlns="http://www.w3.org/2000/svg" viewBox="0 0 97.54 90.99"><defs><style>.cls-1{fill:#6d9d31;fill-rule:evenodd;}</style></defs><g id="Layer_2" data-name="Layer 2"><g id="Layer_2-2" data-name="Layer 2"><path class="cls-1" d="M11.54,48C5.81,46.41,2,44.85,1.77,41.07S7,35.2,12.58,34.81C21.83,34.16,33.42,39,45,45.76,34.34,53.83,23.65,62,14.4,62.69c-5.73.26-11.46-3-11.72-6.77S6.07,50.19,11.54,48ZM32.38,80.15h0c-1.56,5.6-1.43,7.43,2.35,9.12s9.38-.65,10.81-6.25C50.75,75.2,48,62.3,47.1,49.27,36.29,55.66,25.48,61.91,20.53,71.55c-1.57,3.91-1.31,9.38,2.6,11C25.09,84.32,28.86,84.06,32.38,80.15Zm37.13-2.47C71.73,81.32,72,85,68.34,87.06s-7.56.52-11.6-4.83C50.62,73.38,51.66,62,50.88,49c11.6,5,23.06,9.78,29.18,18.63,4,3.52,2.61,9.25.79,11.21C77.2,80.93,75.37,81.06,69.51,77.68ZM86.06,43.15h0c5.47-2.34,9-4.43,8.85-8.08s-6.12-7.16-11.72-6.77c-9.38.65-20.06,8.86-30.75,16.94C64.17,51.88,75.63,56.7,85,56.18c5.6-.39,11.08-2.61,10.81-6.25S91.79,44.59,86.06,43.15ZM65.21,10.84c3.52-3.91,7.17-4.16,9.25-2.34,3.78,1.56,4.17,7.16,2.48,10.94-5,9.64-15.64,15.9-26.58,22.28-.78-13-3.52-25.93,1.56-33.61,1.57-5.74,7-7.95,10.81-6.39C66.65,3.42,66.77,5.24,65.21,10.84ZM28,13.32h0c-5.86-3.26-7.68-3.26-11.33-1.18-1.7,2-3.26,7.69.78,11.21C23.52,32.21,35.12,37,46.58,42,45.8,29,47,17.75,40.72,8.76c-4-5.34-7.95-6.91-11.47-4.82S25.87,9.8,28,13.32Z"/><path class="cls-1" d="M10.11,45.5a24.53,24.53,0,0,0-7.17,3.65A4.57,4.57,0,0,0,2,55.79c3.52,3.91,9.25,5,14.2,3.65,10.16-2.74,19-9.39,28-15.12v2.35H44v-.13l-.26-.13-.39-.26-.79-.52-1.69-1.18c-1.17-.65-2.35-1.43-3.39-2.08-2.21-1.3-4.56-2.48-6.9-3.78A54.41,54.41,0,0,0,16,33.38c-4.82-.78-10.69-.78-14.2,2.48C.33,37.68,1.25,40.55,3.33,42s4.43,2.47,6.78,3.52c-2.48-.79-5-1.44-7.17-3C.6,41.2-1.1,37.81.86,35.2,5,30.91,11,30.78,16.36,31.43a49,49,0,0,1,15.37,4.82,73.5,73.5,0,0,1,7,3.91c1.17.65,2.34,1.3,3.51,2.08l1.7,1,.91.52.39.26.13.13.13.13h.13v2.35c-9,5.73-18,12.24-28.92,14.72-5.47,1.17-12-.26-15.63-5a5.35,5.35,0,0,1,1.43-7.69A24.12,24.12,0,0,1,10.11,45.5ZM29.52,11c-2.22-1.56-4.43-3.25-7-3.51s-6,1-6.64,3.9a9.09,9.09,0,0,0,.26,8.21c1.56,1.83,2.73,4.43,4.69,6.25A48.81,48.81,0,0,0,32.9,35.73c2.22,1.3,4.56,2.6,6.78,3.77l3.51,1.83,1.7.91.78.39.52.13v.13c.91-.52-1.95,1.17,2-1.17v-.13l.13-.26c-.26-10,1.43-20.59-2.35-30.49C43.85,6.28,40.85,1.07,35.12,0a6.79,6.79,0,0,0-6.65,3.65c-1,2.47-.13,5.08,1.05,7.16-1.05-2.21-1.7-4.82-.39-6.9A5.9,5.9,0,0,1,35,1.2c4.56,1.17,7.29,6,9,10.29,3.12,9.39,1.3,19.55,1.43,29.84v.39c4-2.48,1.17-.78,2-1.31l-.52-.25-.78-.4-1.69-.91L41,37.16c-2.34-1.17-4.56-2.35-6.64-3.65a51,51,0,0,1-12.12-9c-3.13-3.64-7.56-7.69-5.34-12.77.52-2.47,3-3.64,5.47-3.64S27.3,9.67,29.52,11Zm38.56-.13c.65-2.34,1.69-5.21.52-7.29A7,7,0,0,0,62.08,1.2c-5.2.52-6.9,6.65-8.85,10.68-1.57,4.7-1.57,9.78-1.57,14.86l.26,7.55.13,3.78v3.65c-3.9-2.48-1-.78-1.95-1.31l.26-.12c8.86-4.56,18.24-8.73,24.88-15.77,3.52-3.39,6.13-7.81,4.43-12.5a6.37,6.37,0,0,0-5.08-3.91C72.25,8,69.9,9.28,68.08,11a9.57,9.57,0,0,1,6.51-3.51,7.29,7.29,0,0,1,6.26,4.17c2.34,5.08-.66,10.68-4,14.19C70,33.77,60.52,38.2,51.53,42.76l-.13.13c-.91-.52,1.83,1.17-2.08-1.17V38.2l-.13-3.91-.13-7.55c.13-5.08.39-10.43,2.34-15.51.91-2.73,2.48-4.43,3.65-6.9A9.82,9.82,0,0,1,61.82,0,8.26,8.26,0,0,1,69,3.16C70.29,5.89,68.86,8.5,68.08,10.84ZM87.36,45.5c2.6-.79,5.34-1.57,7.55-3.26a5.38,5.38,0,0,0,1.44-7.82c-3.52-4.56-10-6-15.5-4.69-11.08,2.35-20.07,9-28.93,14.59v2.35l.13.13.26.13.4.26.91.52,1.69,1a28.25,28.25,0,0,0,3.39,2.09,55.15,55.15,0,0,0,7.16,3.78A48.94,48.94,0,0,0,81.24,59.7c5.21.39,11.33.39,15.5-3.91,1.82-2.61.26-6-2.09-7.3-2.21-1.56-4.82-2.21-7.29-3A26.56,26.56,0,0,1,94.26,49c2.09,1.44,3,4.3,1.44,6-3.52,3.25-9.39,3.38-14.2,2.6A51.9,51.9,0,0,1,67,52.4c-2.47-1.17-4.68-2.47-6.9-3.78-1.17-.78-2.35-1.43-3.39-2.21l-1.69-.91L54.14,45l-.39-.38-.13-.14h-.13v-.13h-.13v2.35c9-5.73,17.71-12.51,27.88-15,4.94-1.44,10.68-.39,14.19,3.51a4.65,4.65,0,0,1-.78,6.65C92.57,43.54,90,44.45,87.36,45.5ZM68.08,80.15c2.21,1.17,4.56,2.74,7.16,2.87,2.48-.13,5-1.31,5.47-3.78,2.22-4.95-2.34-9.12-5.34-12.77a51.24,51.24,0,0,0-12.11-9c-2.22-1.3-4.43-2.6-6.65-3.65l-3.38-1.69-1.7-.91-.91-.39-.39-.26H50.1c.91-.53-2,1.17,1.95-1.31v.4C52.19,60,50.36,70.12,53.62,79.5c1.56,4.3,4.43,9.12,8.86,10.29a5.89,5.89,0,0,0,6-2.73c1.17-2,.52-4.69-.39-6.91,1.17,2.08,2.08,4.82.91,7.17A6.67,6.67,0,0,1,62.35,91c-5.61-1-8.6-6.12-10.69-10.81-3.9-9.9-2.08-20.45-2.34-30.48v-.4c3.91-2.34,1.17-.52,2.08-1.17l.39.26.92.52,1.69.79,3.38,1.82c2.35,1.17,4.57,2.47,6.78,3.78a49.19,49.19,0,0,1,12.25,9.9c1.82,1.82,3,4.43,4.69,6.38a9.29,9.29,0,0,1,.26,8.08c-.79,2.74-4,4.17-6.65,3.91S70.29,81.58,68.08,80.15Zm-38.56,0c-.79,2.35-2.22,4.95-1.05,7.56a7.68,7.68,0,0,0,7.17,3.12,9.5,9.5,0,0,0,6.9-4.17c1.18-2.6,2.74-4.16,3.65-6.9,2-5.08,2.09-10.29,2.21-15.5l-.12-7.69v-7l-.13-.14v-.13c-3.91-2.34-1-.52-2-1.17l-.13.13c-9,4.56-18.5,9.12-25.27,16.81-3.39,3.65-6.52,9.25-4,14.46a7.25,7.25,0,0,0,6.25,4c2.61,0,4.82-1.7,6.52-3.39A10.64,10.64,0,0,1,23,83a7.12,7.12,0,0,1-5.21-4.17c-1.69-4.43,1-9,4.43-12.38,6.78-7,16-11.2,25-15.76l.13-.13c-.78-.53,2.09,1.17-2-1.31v.78l.13.92v2l.13,3.78.26,7.56c0,5.08,0,10.16-1.56,14.72-2,4.17-3.65,10.29-8.86,10.81A7.37,7.37,0,0,1,29,87.45C27.82,85.36,28.86,82.5,29.52,80.15Z"/></g></g></svg>