<svg xmlns="http://www.w3.org/2000/svg" xmlns:xlink="http://www.w3.org/1999/xlink" viewBox="0 0 91.97 88.95"><defs><style>.cls-1{fill:#8fc73e;}.cls-2{fill:url(#linear-gradient);}.cls-3{fill:url(#linear-gradient-2);}.cls-4{fill:url(#linear-gradient-3);}.cls-5{fill:url(#linear-gradient-4);}.cls-6{fill:url(#linear-gradient-5);}.cls-7{fill:url(#linear-gradient-6);}</style><linearGradient id="linear-gradient" x1="-473.31" y1="492.01" x2="-472.31" y2="492.01" gradientTransform="matrix(0.7, 44.98, 44.98, -0.7, -21745.96, 21636.68)" gradientUnits="userSpaceOnUse"><stop offset="0" stop-color="#a8d15e"/><stop offset="0.12" stop-color="#a8d15e"/><stop offset="0.27" stop-color="#cfe28e"/><stop offset="0.48" stop-color="#8cc641"/><stop offset="1" stop-color="#8cc641"/></linearGradient><linearGradient id="linear-gradient-2" x1="-473.31" y1="491.99" x2="-472.31" y2="491.99" gradientTransform="matrix(0.72, 46.4, 46.4, -0.72, -22448.34, 22320.61)" gradientUnits="userSpaceOnUse"><stop offset="0" stop-color="#a8d15e"/><stop offset="0.18" stop-color="#a8d15e"/><stop offset="0.36" stop-color="#cfe28e"/><stop offset="0.59" stop-color="#8cc641"/><stop offset="1" stop-color="#8cc641"/></linearGradient><linearGradient id="linear-gradient-3" x1="-473.31" y1="491.99" x2="-472.31" y2="491.99" gradientTransform="matrix(38.95, 22.51, 22.51, -38.95, 7366.97, 29850.53)" xlink:href="#linear-gradient"/><linearGradient id="linear-gradient-4" x1="-473.31" y1="492" x2="-472.31" y2="492" gradientTransform="matrix(40.18, 23.22, 23.22, -40.18, 7592.46, 30806.77)" xlink:href="#linear-gradient-2"/><linearGradient id="linear-gradient-5" x1="-473.31" y1="492" x2="-472.31" y2="492" gradientTransform="translate(-7274.19 29848.65) rotate(149.98) scale(44.98)" xlink:href="#linear-gradient"/><linearGradient id="linear-gradient-6" x1="-473.31" y1="492" x2="-472.31" y2="492" gradientTransform="matrix(-40.18, 23.22, -23.22, -40.18, -7500.47, 30806.77)" xlink:href="#linear-gradient-2"/></defs><g id="Layer_2" data-name="Layer 2"><g id="Layer_2-2" data-name="Layer 2"><path class="cls-1" d="M46,0S59.7,15.79,59.57,28.27,46.75,47.35,46.75,47.35s-12.9-6.2-13.41-18.67S46,0,46,0Z"/><path class="cls-2" d="M47.19,1.43C51.25,8.12,57.53,19.85,57.44,28.3c-.07,7.36-5,14-9.13,18.11C51.7,44.18,59.47,38,59.57,28.27,59.68,18,50.51,5.6,47.19,1.43Z"/><path class="cls-3" d="M36.32,29.11C35.88,18.36,42.39,5.92,45.43.74,42.88,4.06,32.89,17.79,33.34,28.68c.46,11.16,10.85,17.3,13,18.46C42,43.39,36.65,37.22,36.32,29.11Z"/><path class="cls-1" d="M0,39.78s20.58-3.63,31.22,2.89S41,63.48,41,63.48s-11.95,7.88-22.91,1.91S0,39.78,0,39.78Z"/><path class="cls-4" d="M1.83,39.51c7.84,0,21.12.6,28.32,5C36.43,48.37,39.52,56,41,61.66c-.16-4.06-1.45-13.89-9.77-19C22.5,37.33,7.11,38.8,1.83,39.51Z"/><path class="cls-5" d="M20,63.05C10.54,57.91,3.22,45.93.34,40.67c1.53,3.88,8.18,19.51,17.75,24.72,9.82,5.34,20.42-.42,22.53-1.68C35.14,65.55,27.12,66.93,20,63.05Z"/><path class="cls-1" d="M60.76,42.67C50.11,49.2,51,63.48,51,63.48L49.48,89h2.79s-.75-17.81,2.22-19.48,9.36-1.87,9.36-1.87h0a18.82,18.82,0,0,0,10-2.21c11-6,18.09-25.61,18.09-25.61S71.4,36.15,60.76,42.67Z"/><path class="cls-6" d="M90.14,39.51c-7.83,0-21.11.6-28.32,5C55.55,48.37,52.46,56,51,61.66c.17-4.06,1.46-13.89,9.78-19C69.48,37.33,84.87,38.8,90.14,39.51Z"/><path class="cls-7" d="M72,63.05c9.45-5.14,16.77-17.12,19.66-22.38-1.54,3.88-8.18,19.51-17.76,24.72-9.81,5.34-20.42-.42-22.53-1.68C56.84,65.55,64.85,66.93,72,63.05Z"/></g></g></svg>