<svg xmlns="http://www.w3.org/2000/svg" viewBox="0 0 76.23 32.85"><defs><style>.cls-1{fill:#8fc73e;}</style></defs><g id="Layer_2" data-name="Layer 2"><g id="Layer_2-2" data-name="Layer 2"><path class="cls-1" d="M22.53,1.5C10.9,8.14,10,25,0,32.85"/><path class="cls-1" d="M7,27.06C14.88,18.34,10.12,9.18,25.13.31c1.08-.63-2-.19-3.11.37C11,6.39,9.34,20.41,1.8,29.23"/><path class="cls-1" d="M75.4,19.83a8.36,8.36,0,0,0-1-1.79c-1.63-2.36-1.3-2.64-3.87-3.1-2.1-.37-8.92-.49-5-4C68.25,8.46,56.58,7.58,54.74,8c-4,.93-7,1.09-5-1.83,2.14-3.17-8.83-.39-10.52.47C36,8.34,30.28,10.54,31.1,8.57s3.58-5.24-2.61-3C24,7.15,23,12.17,18.68,14.06A23,23,0,0,0,9.27,22.4c.14.42-1.45.58-1.3,1,3.71,1.07,8.6-3.28,13.15,1.45,3,3.12,6.17,3.79,10.35,4.09,5.28.39,2.49-2,1.42-3.66s3.78.42,6.53,1.61c1.95.83,10.38,1.64,9.18-1.32s1.3-2.81,4.44-1.37c2.05.94,10.81,2.41,9.74-.39-1.58-4.18,3.82-2.34,5.83-1.74C70.27,22.58,78.92,22.9,75.4,19.83Z"/></g></g></svg>