<svg xmlns="http://www.w3.org/2000/svg" viewBox="0 0 37.96 80.45"><defs><style>.cls-1{fill:#8dc63f;}.cls-2{fill:#fff;}</style></defs><g id="Layer_2" data-name="Layer 2"><g id="Layer_2-2" data-name="Layer 2"><path class="cls-1" d="M.2,43c-.94,6.9,1.34,14.39,9.19,22.73A73,73,0,0,0,23,77c.73-5.75,6.73-9.14,9.68-13.27a26.84,26.84,0,0,0,4.7-21.31C36,35.69,31.3,30.24,27.12,24.33,23.62,19.42,19.77,10.6,19.38,0c.15,4.19-4,9.39-5.77,12.76C8.24,23.22,1.57,32.85.2,43Z"/><path class="cls-2" d="M25.35,80.45a77.64,77.64,0,0,1-6-24.27,78,78,0,0,1,1.35-25,19.93,19.93,0,0,0-4.23,5.86,36.46,36.46,0,0,0-3.35,19.69,36.53,36.53,0,0,0,7,18.73A20,20,0,0,0,25.35,80.45Z"/></g></g></svg>