<svg xmlns="http://www.w3.org/2000/svg" viewBox="0 0 65.33 92.58"><defs><style>.cls-1{fill:#8fc73e;}</style></defs><g id="Layer_2" data-name="Layer 2"><g id="Layer_2-2" data-name="Layer 2"><path class="cls-1" d="M11.07,92.14A3.11,3.11,0,0,1,8.4,92c-.26-.21,2.33-7.43,2.87-8l2.93-7.76A34,34,0,0,1,16.41,71c1.38-3.06,3.11-7.26,5.68-9.58-9.31,8.07-12.74,20-15.69,31.17-1.07-.21-2.88-.67-3.66-1.64a21.1,21.1,0,0,1-1.17-2.68c-3-5.83-1.34-12.14,2.05-19A54.45,54.45,0,0,1,9,60.49L12.74,56a40.81,40.81,0,0,1,3.75-3.49c5.18-4.41,10.93-7.2,16.18-10.65,12-7.75,22-18.25,28-30.53a42.72,42.72,0,0,0,3.22-7.92l1-3.44c.87.67.08,2.38-.06,3.55C64,12,60.36,20.29,55.59,27.81,51.09,35,46.42,41.1,42.26,48.28l-1.38,2.34C35.06,60.55,29.24,70.93,24.21,79.1a43.07,43.07,0,0,1-6.33,8.42,26.81,26.81,0,0,1-5.61,4.14Z"/></g></g></svg>