<svg xmlns="http://www.w3.org/2000/svg" xmlns:xlink="http://www.w3.org/1999/xlink" viewBox="0 0 76.21 91.15"><defs><style>.cls-1{fill:url(#linear-gradient);}.cls-2{fill:url(#linear-gradient-2);}.cls-3{fill:url(#linear-gradient-3);}</style><linearGradient id="linear-gradient" x1="-49.34" y1="766.04" x2="-48.34" y2="766.04" gradientTransform="matrix(74.82, 62.78, -62.78, 74.82, 51777.85, -54200.12)" gradientUnits="userSpaceOnUse"><stop offset="0" stop-color="#cfe28e"/><stop offset="0.02" stop-color="#c1dc7e"/><stop offset="0.06" stop-color="#aad263"/><stop offset="0.11" stop-color="#99cc50"/><stop offset="0.15" stop-color="#8fc745"/><stop offset="0.2" stop-color="#8cc641"/><stop offset="1" stop-color="#8cc641"/></linearGradient><linearGradient id="linear-gradient-2" x1="-49.34" y1="766.04" x2="-48.34" y2="766.04" gradientTransform="matrix(74.82, 62.78, -62.78, 74.82, 51787.03, -54211.12)" gradientUnits="userSpaceOnUse"><stop offset="0" stop-color="#a8d15e"/><stop offset="0.12" stop-color="#a8d15e"/><stop offset="0.49" stop-color="#cfe28e"/><stop offset="0.83" stop-color="#8cc641"/><stop offset="1" stop-color="#8cc641"/></linearGradient><linearGradient id="linear-gradient-3" x1="-49.34" y1="766.04" x2="-48.34" y2="766.04" gradientTransform="matrix(0, -87.07, 87.07, 0, -66672.48, -4205.02)" xlink:href="#linear-gradient-2"/></defs><g id="Layer_2" data-name="Layer 2"><g id="Layer_2-2" data-name="Layer 2"><path class="cls-1" d="M0,41.83A33.21,33.21,0,0,0,4.3,43c1.26.15,3.23.24,3.23.24A77.73,77.73,0,0,1,4.3,35.74C3.23,32.56,1.68,25.46,1.68,25.46A11.3,11.3,0,0,0,4.54,27a9.26,9.26,0,0,0,2.63.72S5.53,23,4.78,20.08,3,12.31,3,12.31a6.45,6.45,0,0,0,2.75,1.55,4,4,0,0,0,2.75,0A38.84,38.84,0,0,1,6.93,6.57C6.77,3.69,6.93,0,6.93,0a59.22,59.22,0,0,1,9.68,4.06,56.59,56.59,0,0,1,7.54,6.1,14,14,0,0,0,1-3.23,38.11,38.11,0,0,0,0-5.26S30,5.23,32,7.17,36.82,14,36.82,14a4,4,0,0,0,1.07-2.39A22.81,22.81,0,0,0,38,8.13s6.15,4.73,9.32,7.53,6.81,8.72,6.81,8.72.5-2.49.72-4.06.36-3.59.36-3.59S58.7,21,60.84,24.14a78.42,78.42,0,0,1,4.66,8.61s.42-1.11,1.08-2.51,1.31-2.75,1.31-2.75a95.4,95.4,0,0,1,3.23,9.56c.51,2.59,1.19,8.61,1.19,8.61a10,10,0,0,0,2.39-2.87,24.76,24.76,0,0,0,1.44-3.23s1.76,33.14-11.6,43a31.74,31.74,0,0,1-4.8,2.93q-.5-2.51-1.2-5c4-5.64,5.8-9.34,6.8-12.73,1.09-3.69,2.7-10.46,2-13.36a40,40,0,0,1-4.22,15c-2.47,4.6-3,5.84-5.44,8.53a92.06,92.06,0,0,0-4.35-10.67c-.3-.64-.61-1.27-.93-1.91,2.5-4.17,4.78-8.82,5.22-13.09.51-4.92.73-10.83-.23-13.64a53.49,53.49,0,0,1-2.22,16.17,28.72,28.72,0,0,1-4.17,7.83c-2.38-4.5-5-8.85-7.79-13.09,1.88-3.85,3.59-8.15,3.64-12,.05-4.22-.22-9.26-1.25-11.58A45.85,45.85,0,0,1,45,40a26.65,26.65,0,0,1-3.25,7.55A242.25,242.25,0,0,0,19.59,22.18a240.83,240.83,0,0,1,17,23.32A17.56,17.56,0,0,1,30.39,45,30.9,30.9,0,0,1,20.77,40c1.09,1.75,4.36,4,7.21,5.63,2.63,1.52,6.38,1.87,9.87,1.92q1.44,2.29,2.82,4.63c1.62,2.5,3.19,5,4.67,7.61-3.3.57-5.38,1.23-9.41.86a45.82,45.82,0,0,1-14.44-4.4c1.93,2,7,4.12,11.27,5.61,4,1.37,9.19,1,14,.36,1.34,2.44,2.62,4.91,3.79,7.42.86,1.85,1.68,3.73,2.42,5.62-4.51.78-5,1-9.65.49-5.21-.57-12.76-2.42-15.44-3.6,2.29,2,8.86,4.33,12,5.34a29.4,29.4,0,0,0,14,.42A57.81,57.81,0,0,1,56.37,87c-12.6,5-27.08,4-27.08,4a9.84,9.84,0,0,0,3-2.75c1.44-1.94,1.08-2,1.08-2s-3.05.77-8.61-.24a20.39,20.39,0,0,1-9.32-4.54,6,6,0,0,0,2.51-.72,3.15,3.15,0,0,0,1.43-1.44,33.44,33.44,0,0,1-5.61-2.63A64.92,64.92,0,0,1,6.7,71a12.59,12.59,0,0,0,3.58-.12,2.67,2.67,0,0,0,1.44-1.32,24.65,24.65,0,0,1-5.63-5.37,28.32,28.32,0,0,1-3.22-7.3,5,5,0,0,0,2.51.36c1.53-.13,1.68-1,1.68-1a42.5,42.5,0,0,1-4.43-6.22A42.56,42.56,0,0,1,0,41.83Z"/><path class="cls-2" d="M62.65,83.88A35.88,35.88,0,0,0,69.8,73.73C72,68.8,72.61,62.51,73.31,57.17c.49-3.79.71-7.4.8-10.35l-.53.46-2.89,2.24-.41-3.63c0-.06-.69-6-1.18-8.44a40.36,40.36,0,0,0-1.42-4.62c-.17.39-.26.64-.26.65L65.69,38l-2-4.42a77.29,77.29,0,0,0-4.5-8.32c-.72-1.07-1.61-2.27-2.45-3.38-.24,1.38-.52,2.79-.54,2.87l-1,5.13L52.4,25.46c0-.06-3.53-5.7-6.43-8.27-1.63-1.45-4.12-3.45-6.1-5a5.91,5.91,0,0,1-1.7,3.34L36.26,17.2,35,15a33.82,33.82,0,0,0-4.39-6.31c-.82-.77-2.14-1.84-3.4-2.81a11.58,11.58,0,0,1-.1,1.36A15.92,15.92,0,0,1,26,11l-1.19,2.68-2.11-2s-4.13-4.26-6.66-6.25A82.7,82.7,0,0,0,6.93,0a59.22,59.22,0,0,1,9.68,4.06,56.59,56.59,0,0,1,7.54,6.1,14,14,0,0,0,1-3.23,38.11,38.11,0,0,0,0-5.26S30,5.23,32,7.17,36.82,14,36.82,14a4,4,0,0,0,1.07-2.39A22.81,22.81,0,0,0,38,8.13s6.15,4.73,9.32,7.53,6.81,8.72,6.81,8.72.5-2.49.72-4.06.36-3.59.36-3.59S58.7,21,60.84,24.14a78.42,78.42,0,0,1,4.66,8.61s.42-1.11,1.08-2.51,1.31-2.75,1.31-2.75a95.4,95.4,0,0,1,3.23,9.56c.51,2.59,1.19,8.61,1.19,8.61a10,10,0,0,0,2.39-2.87,24.76,24.76,0,0,0,1.44-3.23s1.76,33.14-11.6,43C63.93,83.05,63.3,83.47,62.65,83.88Z"/><path class="cls-3" d="M0,41.83A33.21,33.21,0,0,0,4.3,43c1.26.15,3.23.24,3.23.24A77.73,77.73,0,0,1,4.3,35.74C3.23,32.56,1.68,25.46,1.68,25.46A11.3,11.3,0,0,0,4.54,27a9.26,9.26,0,0,0,2.63.72S5.53,23,4.78,20.08,3,12.31,3,12.31a6.45,6.45,0,0,0,2.75,1.55,4,4,0,0,0,2.75,0A38.84,38.84,0,0,1,6.93,6.57c0-.8-.06-1.66-.07-2.49a44.88,44.88,0,0,0,1.58,6.26,23.66,23.66,0,0,0,2,4.22s-1.26,2-4.51,1.44c.28,1.23.59,2.53.86,3.57.71,2.78,2.32,7.44,2.34,7.49l1,2.78-2.94-.06a9.11,9.11,0,0,1-2.48-.55c.5,2.06,1.11,4.4,1.6,5.85a73.47,73.47,0,0,0,3.12,7.28l1.54,3.11-3.47-.15c-.09,0-2.06-.1-3.38-.26a9.82,9.82,0,0,1-1.18-.22,25.54,25.54,0,0,0,1.56,4.28A40.07,40.07,0,0,0,8.61,55l.64.74-.18,1a3.47,3.47,0,0,1-3.22,2.6A20,20,0,0,0,7.78,63a22.5,22.5,0,0,0,5.08,4.84l1.42,1-.68,1.57a4.79,4.79,0,0,1-2,2.15A31,31,0,0,0,14.82,75,32.25,32.25,0,0,0,20,77.43l1.95.68-.7,1.94a4.68,4.68,0,0,1-1.56,2,24.47,24.47,0,0,0,6.38,2.47,19.1,19.1,0,0,0,8.83-.44s-.09,4.18-.66,5c1.94-.06,5.63.38,9.22.25s4.86-.54,10.16-1.31a74,74,0,0,1-24.37,3.07,9.84,9.84,0,0,0,3-2.75c1.44-1.94,1.08-2,1.08-2s-3.05.77-8.61-.24a20.39,20.39,0,0,1-9.32-4.54,6,6,0,0,0,2.51-.72,3.15,3.15,0,0,0,1.43-1.44,33.44,33.44,0,0,1-5.61-2.63A64.92,64.92,0,0,1,6.7,71a12.59,12.59,0,0,0,3.58-.12,2.67,2.67,0,0,0,1.44-1.32,24.65,24.65,0,0,1-5.63-5.37,28.32,28.32,0,0,1-3.22-7.3,5,5,0,0,0,2.51.36c1.53-.13,1.68-1,1.68-1a42.5,42.5,0,0,1-4.43-6.22A42.56,42.56,0,0,1,0,41.83Z"/></g></g></svg>