<svg xmlns="http://www.w3.org/2000/svg" xmlns:xlink="http://www.w3.org/1999/xlink" viewBox="0 0 80.75 88.49"><defs><style>.cls-1{fill:url(#linear-gradient);}.cls-2{fill:#8cc640;}.cls-3{fill:url(#linear-gradient-2);}.cls-4{fill:url(#linear-gradient-3);}.cls-5{fill:url(#linear-gradient-4);}.cls-6{fill:url(#linear-gradient-5);}.cls-7{fill:url(#linear-gradient-6);}</style><linearGradient id="linear-gradient" x1="-483.95" y1="762.93" x2="-482.95" y2="762.93" gradientTransform="matrix(0, 33.66, 33.66, 0, -25626.27, 16337)" gradientUnits="userSpaceOnUse"><stop offset="0" stop-color="#8cc640"/><stop offset="0.14" stop-color="#8cc640"/><stop offset="0.43" stop-color="#8cc641"/><stop offset="0.84" stop-color="#cfe28e"/><stop offset="1" stop-color="#dcb67e"/></linearGradient><linearGradient id="linear-gradient-2" x1="-483.95" y1="762.93" x2="-482.95" y2="762.93" gradientTransform="matrix(29.3, -5.39, -5.39, -29.3, 18304.48, 19782.49)" gradientUnits="userSpaceOnUse"><stop offset="0" stop-color="#a8d15e"/><stop offset="0.11" stop-color="#a8d15e"/><stop offset="0.43" stop-color="#cfe28e"/><stop offset="0.9" stop-color="#8cc641"/><stop offset="1" stop-color="#8cc641"/></linearGradient><linearGradient id="linear-gradient-3" x1="-483.95" y1="762.93" x2="-482.95" y2="762.93" gradientTransform="matrix(40.13, 3.21, 3.21, -40.13, 16966.87, 32201.12)" gradientUnits="userSpaceOnUse"><stop offset="0" stop-color="#a8d15e"/><stop offset="0.09" stop-color="#a8d15e"/><stop offset="0.31" stop-color="#cfe28e"/><stop offset="0.67" stop-color="#8cc641"/><stop offset="1" stop-color="#8cc641"/></linearGradient><linearGradient id="linear-gradient-4" x1="-483.95" y1="762.94" x2="-482.95" y2="762.94" gradientTransform="matrix(0, 49.44, 49.44, 0, -37654.31, 23964.58)" gradientUnits="userSpaceOnUse"><stop offset="0" stop-color="#8cc640"/><stop offset="0.14" stop-color="#8cc640"/><stop offset="0.43" stop-color="#8cc641"/><stop offset="0.74" stop-color="#cfe28e"/><stop offset="0.9" stop-color="#e0e88d"/><stop offset="1" stop-color="#b05e54"/></linearGradient><linearGradient id="linear-gradient-5" x1="-483.95" y1="762.94" x2="-482.95" y2="762.94" gradientTransform="matrix(26.58, 2.31, 2.31, -26.58, 11153.13, 21418.42)" xlink:href="#linear-gradient-2"/><linearGradient id="linear-gradient-6" x1="-483.95" y1="762.93" x2="-482.95" y2="762.93" gradientTransform="matrix(33.89, 12.31, 12.31, -33.89, 7048.54, 31825.61)" xlink:href="#linear-gradient-3"/></defs><g id="Layer_2" data-name="Layer 2"><g id="Layer_2-2" data-name="Layer 2"><path class="cls-1" d="M24.59,78.61c0-.1,5.39.59,13.56,1.59,8.14.81,19.26,2.39,30.33,1.09,2.6-.44,5.75-1.12,6.85-3.2.89-2.16-1.23-4.59-3-6.31A67.64,67.64,0,0,0,60.1,63.36c-7.85-4.43-13.91-7.19-15.38-8-5.95-2.89-10.63-5.68-10.3-6.29s5.29,1.37,11.28,4.29c1.48.76,7.51,3.66,15.35,8.32a68.43,68.43,0,0,1,12.33,9,15.87,15.87,0,0,1,2.67,3.36,5,5,0,0,1,.48,4.61,6.24,6.24,0,0,1-3.65,2.79,20,20,0,0,1-4.24.94c-11.39,1-22.38-.83-30.53-1.85C30,79.34,24.6,78.51,24.59,78.61Z"/><path class="cls-2" d="M0,13.69a13.65,13.65,0,0,0,7.32,5.72c5.4,2,17,1.87,27,8s9.51,15.75,8.62,18.89-4.56,3.49-4.56,3.49.92,5.49-7.42,5.32C1.72,50.14,0,13.69,0,13.69Z"/><path class="cls-3" d="M34.29,27.42c-8.93-5.52-19.24-6-25.16-7.46,5.47,2.33,16.45,3.27,25.27,10.09a18.12,18.12,0,0,1,7.08,18.43,4.37,4.37,0,0,0,1.43-2.18C43.8,43.17,44.21,33.57,34.29,27.42Z"/><path class="cls-4" d="M33.31,52.51C6.65,49.57,1,19.55.12,13.9L0,13.69S1.54,52.33,30.93,55.12c3.42.07,5.28-.82,6.29-1.89v-.68C35.92,52.52,34.55,52.46,33.31,52.51Z"/><path class="cls-5" d="M54.38,88.49s-.77-.69-2.06-2a25.23,25.23,0,0,1-4.7-6c-.76-1.33-1.13-3.77.52-5.09a11.15,11.15,0,0,1,5.26-2,101.87,101.87,0,0,1,12.07-.86c2.06-.09,4.13-.19,6.13-.46s4-.59,5.12-2.07c2.8-2.84,2.66-7,1.47-10.15-2.43-6.38-5.67-10.6-6.18-11.77-2.71-4.43-4-8.77-3.31-9s2.52,3.32,5.2,7.71c.32.56,1.14,1.95,2.28,4A44.52,44.52,0,0,1,80,59.17a15,15,0,0,1,.71,6.06,10.18,10.18,0,0,1-2.9,5.93c-1.62,1.89-4.06,2.06-6,2.32s-4.17.22-6.25.23a101.3,101.3,0,0,0-12,.42,10.58,10.58,0,0,0-5,1.7c-1.44,1.07-1.22,3.11-.54,4.49a25.2,25.2,0,0,0,4.46,6.12C53.64,87.77,54.39,88.48,54.38,88.49Z"/><path class="cls-2" d="M45.73,0a12.25,12.25,0,0,0,5,6.68C54.88,9.69,65,12.34,72.07,20s4.47,15.86,3,18.36-4.77,1.92-4.77,1.92-.51,5-7.67,2.84C38.55,31.88,45.73,0,45.73,0Z"/><path class="cls-6" d="M72.07,20c-6.39-6.89-15.2-9.72-19.95-12.42,4.17,3.31,13.43,6.73,19.42,14.72a16.24,16.24,0,0,1,1.74,17.59A3.86,3.86,0,0,0,75,38.35C76.54,35.86,79.18,27.67,72.07,20Z"/><path class="cls-7" d="M65.27,41.43C42.94,32.56,45.16,5.29,45.78.21A1.79,1.79,0,0,1,45.73,0S37.88,33.73,62.59,43.12c2.94.87,4.76.55,5.88-.13,0-.2.11-.39.17-.6C67.52,42.06,66.35,41.69,65.27,41.43Z"/></g></g></svg>