<svg xmlns="http://www.w3.org/2000/svg" viewBox="0 0 33.59 85.69"><defs><style>.cls-1{fill:#8dc63f;}.cls-2{fill:#fff;}</style></defs><g id="Layer_2" data-name="Layer 2"><g id="Layer_2-2" data-name="Layer 2"><path class="cls-1" d="M13.87,85.68a9.37,9.37,0,0,0,2.81-.55C44.61,64.92,34.28,25.55,12.15,0,20.57,11.86,1,33.8.24,47.51-.84,57.86,1.45,86,13.78,85.68"/><path class="cls-2" d="M30.6,46.36,30,47.94l-2,5.11-2.27,5L25,59.47c-.09.15-.34.56-.39.51s.08-.49.14-.65l.59-1.53,2.29-5,2.22-5,.71-1.54a5.6,5.6,0,0,1,.24-.51S30.67,46.19,30.6,46.36Z"/><path class="cls-1" d="M27.62,31.66l-.41,1.45c-.4,1.58-1,3.1-1.52,4.64a34.19,34.19,0,0,1-2.08,4.41l-.74,1.23c-.08.14-.32.47-.37.43a1.85,1.85,0,0,1,.16-.57l.59-1.3c.77-1.41,1.36-2.93,2.07-4.36s1.25-3,1.74-4.53l.5-1.43.18-.47Z"/><path class="cls-1" d="M19.25,50.75,18.07,48.6l-3.7-7.53c-1.28-2.43-2.41-5-3.83-7.37L9.27,31.44c-.15-.24-.41-.77-.41-.77l.49.71,1.4,2.16c1.57,2.27,2.86,4.75,4.23,7.14s2.64,5,3.73,7.54l.94,2.31c.09.25.32.95.23,1S19.39,51,19.25,50.75Z"/><path class="cls-2" d="M17.32,81.05a27.88,27.88,0,0,0,2.09-5.65l.66-3.93A15.51,15.51,0,0,0,17.35,66a48.31,48.31,0,0,0-5.2-5.6l-1.68-1.65-.55-.57s.42.33.6.49l1.8,1.52a42.23,42.23,0,0,1,5.53,5.35,15.83,15.83,0,0,1,2.46,4.06A148.28,148.28,0,0,0,21,54.54c0-7-.49-14.09-1-21.12l-.67-6.54c-.09-.72-.28-2.21-.27-2.21s.31,1.45.43,2.17c.38,2.16.67,4.35.94,6.52.75,7,1.45,14.06,1.68,21.14.11,6.41.17,12.94-1.14,19.32a5.88,5.88,0,0,1-.31,1.51l-.06.19-.05.21a21,21,0,0,1-2.62,5.8c-.49.49-1.8,1.72-1.88,1.57A11.3,11.3,0,0,1,17.32,81.05Z"/></g></g></svg>