<svg xmlns="http://www.w3.org/2000/svg" xmlns:xlink="http://www.w3.org/1999/xlink" viewBox="0 0 58.99 106.4"><defs><style>.cls-1{fill:#8fc73e;}.cls-2{fill:url(#linear-gradient);}.cls-3{fill:url(#linear-gradient-2);}</style><linearGradient id="linear-gradient" x1="-61.56" y1="379.86" x2="-60.56" y2="379.86" gradientTransform="matrix(1.58, 101.08, 101.08, -1.58, -38254.51, 6824.78)" gradientUnits="userSpaceOnUse"><stop offset="0" stop-color="#a8d15e"/><stop offset="0.12" stop-color="#a8d15e"/><stop offset="0.27" stop-color="#cfe28e"/><stop offset="0.48" stop-color="#8cc641"/><stop offset="1" stop-color="#8cc641"/></linearGradient><linearGradient id="linear-gradient-2" x1="-61.56" y1="379.87" x2="-60.56" y2="379.87" gradientTransform="matrix(1.63, 104.28, 104.28, -1.63, -39499.18, 7039.47)" gradientUnits="userSpaceOnUse"><stop offset="0" stop-color="#a8d15e"/><stop offset="0.18" stop-color="#a8d15e"/><stop offset="0.36" stop-color="#cfe28e"/><stop offset="0.59" stop-color="#8cc641"/><stop offset="1" stop-color="#8cc641"/></linearGradient></defs><g id="Layer_2" data-name="Layer 2"><g id="Layer_2-2" data-name="Layer 2"><path class="cls-1" d="M28.52,0S59.28,35.48,59,63.52,30.17,106.4,30.17,106.4,1.19,92.47,0,64.44,28.52,0,28.52,0Z"/><path class="cls-2" d="M31.17,3.22c9.13,15,23.22,41.39,23,60.38C54,80.14,42.83,94.93,33.68,104.28c7.62-5,25.09-18.84,25.31-40.76C59.22,40.54,38.62,12.58,31.17,3.22Z"/><path class="cls-3" d="M6.73,65.4c-1-24.15,13.65-52.09,20.48-63.73C21.49,9.11-1,40,0,64.44c1,25.1,24.39,38.89,29.25,41.5C19.4,97.5,7.49,83.63,6.73,65.4Z"/></g></g></svg>