<svg xmlns="http://www.w3.org/2000/svg" xmlns:xlink="http://www.w3.org/1999/xlink" viewBox="0 0 85.62 59.3"><defs><style>.cls-1{fill:#8cc640;}.cls-2{fill:url(#linear-gradient);}.cls-3{fill:url(#linear-gradient-2);}.cls-4{fill:#5a4017;}.cls-5{fill:url(#linear-gradient-3);}.cls-6{fill:url(#linear-gradient-4);}</style><linearGradient id="linear-gradient" x1="-479.79" y1="353.75" x2="-478.79" y2="353.75" gradientTransform="matrix(32.43, -8.69, -8.69, -32.43, 18647.49, 7327.29)" gradientUnits="userSpaceOnUse"><stop offset="0" stop-color="#a8d15e"/><stop offset="0.11" stop-color="#a8d15e"/><stop offset="0.43" stop-color="#cfe28e"/><stop offset="0.9" stop-color="#8cc641"/><stop offset="1" stop-color="#8cc641"/></linearGradient><linearGradient id="linear-gradient-2" x1="-479.79" y1="353.75" x2="-478.79" y2="353.75" gradientTransform="matrix(45.36, 0, 0, -45.36, 21761.69, 16066.99)" gradientUnits="userSpaceOnUse"><stop offset="0" stop-color="#a8d15e"/><stop offset="0.09" stop-color="#a8d15e"/><stop offset="0.31" stop-color="#cfe28e"/><stop offset="0.67" stop-color="#8cc641"/><stop offset="1" stop-color="#8cc641"/></linearGradient><linearGradient id="linear-gradient-3" x1="-479.79" y1="353.75" x2="-478.79" y2="353.75" gradientTransform="translate(-10292.94 4103.56) rotate(-165) scale(18.68)" xlink:href="#linear-gradient"/><linearGradient id="linear-gradient-4" x1="-479.79" y1="353.75" x2="-478.79" y2="353.75" gradientTransform="translate(-12028.34 8969.69) rotate(180) scale(25.25)" xlink:href="#linear-gradient-2"/></defs><g id="Layer_2" data-name="Layer 2"><g id="Layer_2-2" data-name="Layer 2"><path class="cls-1" d="M0,0S2.48,4,8.73,5.77s19.32.56,31,6.57,12.1,16.83,11.38,20.44-4.81,4.33-4.81,4.33,1.52,6.09-7.85,6.65C5.21,40.79,0,0,0,0Z"/><path class="cls-2" d="M39.74,12.34c-10.52-5.4-22.14-5-28.92-6.12,6.35,2.12,18.77,2.19,29.29,9.07,9.49,6.2,10.28,15.47,9.61,20.06a5,5,0,0,0,1.41-2.57C51.85,29.17,51.45,18.35,39.74,12.34Z"/><path class="cls-3" d="M40.9,40.61C10.69,39.71,1.6,6.5.15.22L0,0S5.21,43.26,38.46,43.76c3.85-.23,5.87-1.4,6.9-2.69,0-.25,0-.51-.06-.77C43.84,40.38,42.29,40.45,40.9,40.61Z"/><path class="cls-4" d="M22.62,19.82s15,9.21,22.61,18.42S52.56,59.3,52.56,59.3s3.23-14.1-3.8-22.62S22.62,19.82,22.62,19.82Z"/><path class="cls-1" d="M85.62,25.61a8.56,8.56,0,0,1-4.86,3.21c-3.48,1-10.76.31-17.27,3.66s-6.73,9.37-6.33,11.37a3.4,3.4,0,0,0,2.67,2.41S59,49.65,64.21,50C82.72,48.31,85.62,25.61,85.62,25.61Z"/><path class="cls-5" d="M63.49,32.48c5.86-3,12.33-2.77,16.11-3.41-3.54,1.18-10.45,1.22-16.31,5a11.38,11.38,0,0,0-5.35,11.16,2.72,2.72,0,0,1-.78-1.43C56.76,41.85,57,35.83,63.49,32.48Z"/><path class="cls-6" d="M62.85,48.22c16.82-.51,21.88-19,22.68-22.49l.09-.12S82.72,49.69,64.21,50c-2.14-.12-3.26-.77-3.84-1.49l0-.43C61.21,48.08,62.08,48.12,62.85,48.22Z"/><path class="cls-4" d="M71.22,37.91a51.05,51.05,0,0,0-10.77,8.82c-4.36,5-4.4,11.85-4.4,11.85s-1.58-8.14,2.46-12.78S71.22,37.91,71.22,37.91Z"/></g></g></svg>