<svg xmlns="http://www.w3.org/2000/svg" xmlns:xlink="http://www.w3.org/1999/xlink" viewBox="0 0 29.76 70.11"><defs><style>.cls-1{fill:#5a4017;}.cls-2{fill:url(#linear-gradient);}</style><linearGradient id="linear-gradient" x1="-77.58" y1="220.86" x2="-76.58" y2="220.86" gradientTransform="matrix(29.06, 29.74, 26.28, -24.73, -3549.99, 7781.11)" gradientUnits="userSpaceOnUse"><stop offset="0" stop-color="#cfe28e"/><stop offset="0.31" stop-color="#cfe28e"/><stop offset="0.67" stop-color="#8cc641"/><stop offset="1" stop-color="#8cc641"/></linearGradient></defs><g id="Layer_2" data-name="Layer 2"><g id="Layer_2-2" data-name="Layer 2"><path class="cls-1" d="M20.84,56.29c-.06-.74-.12-1.43-.19-2-.58-4.86-4.53-13.2-4.53-13.2s2.2,10,1.65,16a58.3,58.3,0,0,1-2.44,11.72l5.45,1.28A129.19,129.19,0,0,0,20.84,56.29Z"/><path class="cls-2" d="M29.52,31.34A13.53,13.53,0,0,1,23,45.52a6.63,6.63,0,0,0,.14-3c-.94-5-9-15.45-9-15.45S7.38,37.15,8.77,43a16.71,16.71,0,0,0,1,3.08C5.8,44.49,2.44,41,.39,32.37-2.45,20.51,11.16,0,11.16,0S27.62,21.27,29.52,31.34Z"/></g></g></svg>