<svg xmlns="http://www.w3.org/2000/svg" viewBox="0 0 97.01 74.68"><defs><style>.cls-1{fill:#8fc73e;}.cls-2{fill:#fff;}</style></defs><g id="Layer_2" data-name="Layer 2"><g id="Layer_2-2" data-name="Layer 2"><path class="cls-1" d="M14.23,0c1.42-.6,4.23,5.85,5.31,4.64.84-1,2.11,3,2.5,2.26s.07-1.86.42-2.63,1.65,1.18,1.81,1.88C24.55,7.46,26,9.85,27,9.86c.55,0,.7-.5.53-2.17s.22-2.95.61-2.85c.64.18,1.06,1.86,1.69,3.29S32.2,12.51,33,12.55s.86-4.19,2.62-3.49c1.15.45,2.33,7.08,4,7.67.94.33,1.12-5.22,3.44-4.48,1.43.46,2.72,3,2.59,7.35-.08,2.47-1,6.23.27,6.93q.77.42,2-2.22c.52-1.13.86-3,1.71-3.29s2.73,1.29,2.13,6.77c-.06.57.28,3.31,1.73,3.55s1.89-2.59,2.28-4c.57-2,1.4-3.86,2.75-3.87,1.13,0,.57,4.13,1.83,3.81,1-.25,1.25-10.82,3.7-10.66S65.47,21,66.29,21s.85-.87,1-1.31a17.32,17.32,0,0,1,.79-3.35c1.18-3.64,4.16-7.34,4.7-5.89.62,1.67-.51,4.13.6,4.89,1.43,1,4.27-2.05,6.47-3.43C83.38,9.72,88.17,10,87.62,11c-.64,1.22-3.19,3.56-2.12,3.8,1.54.33,4-1.23,5.86-2.23,2.69-1.47,5.85.39,5.64,1-.88,2.72-5.16,1.35-5.58,2.57s2.11.6,2.09,1.78-2.59,1.27-3.61,1.55-2.49,1.31-1.86,2.1c.38.47,3.93,1.17,3.42,1.62a10.08,10.08,0,0,1-5.57,1.31c-1.91-.21-4.22.05-4.53.73s6,3.39,4.84,4.38-3.66.9-6.43,1.52a8.73,8.73,0,0,0-4.91,3.7c-1.5,2.69,4.48.55,3.66,2.58-1.08,2.68-8.49,6-7.67,8s5.62.28,5.06,2.17-3.29,3.26-6.07,4.56c-3,1.39-4,2.82-4.11,4.4-.1,1.31,4.07-.4,3.65,1.3-.6,2.45-6.15,8-3.93,16.82-2.07-2.84-5.21-6.37-6.88-6.74-2.43-.54-5.09,1-6.2.2s2.46-3.41-3.34-3.76c-2.15-.14-6.25,2.26-7.87,1.89s3-2.88,1.73-3.45c-1.54-.7-4.46.48-6.68,2.37s-5,6.63-6.31,6.46,1-3.61.5-4.44-2.19-.7-3.16-.06c-1.28.86-2.11,1.37-3,1.3-1.58-.1,1.67-2.66,1-3.39s-1.66-.51-2.79,0-2.87,3-5,3.27c-1,.12.45-3.79-.83-3-.71.47-3.91,4.31-5.82,4.9-2.28.7-.2-4.12-1.72-4.37S6.25,69.4,5.5,69.18C4.21,68.8,5.36,66.86,4.18,67s-3,5-3.76,5.27S-.1,69,1.65,66.32c2.2-3.43,6-4.08,5.8-4.83S5.37,61,5.28,60.37c-.33-2.52,8.6-1.91,8.85-2.72s-3.46-2.58-3-3.29c1.26-1.8,6.22.89,6.79.14.76-1-.59-1.18-.09-2.06.8-1.42,3.57.81,3.81-.31.36-1.65-5.16-1.8-4.82-3.5.49-2.45,9.16,1.45,9.63,0,.32-.94-3.63-1.77-3.66-2.67s.66-1.08,3.44-.56c1.73.33,3,0,3.06-.68s-1-.74-1.27-2,6.17,0,6.66-1.31-6.3-2.5-6.58-3.62,1.74-2.28,1.19-3S22,32.23,21.51,30.45c-.56-2.24,6.54-.17,5.87-2-.88-2.38-5.46-3.35-6-5.05s2.94-.14,3-1.19-5.31-3.68-5.6-4.66,3.32.43,3.29-.37c0-1.32-7.22-3.08-6.93-4.48.36-1.67,4.69,0,4.64-1-.08-1.34-3.21-2-3.18-2.7,0-1.17,1.86-1.68.22-2.43-1-.48-2.44-1.17-2.34-1.72.16-.84,1.84.48,2.07,0S13.26.45,14.23,0Z"/><path class="cls-2" d="M71,26.69a7.51,7.51,0,0,0,1.4-4.93,12.34,12.34,0,0,1-3.13,6.31h0a23.29,23.29,0,0,0-1.9,1.81c-2.74,3-10.82,12.06-9.76,20.77a42.45,42.45,0,0,0-3.24-6.31C52.88,42,48,36.61,42.41,30.78h0l-.08-.07L41.1,29.42c-1.73-2.15-3-5.28-2.69-7-.52.86-.42,2.86.72,5-2.66-2.75-5.36-5.49-7.82-8a14.55,14.55,0,0,1-2.61-7.19,10.21,10.21,0,0,0,1,5.95,25.13,25.13,0,0,1-6-6.64c1.14,3.86,13.7,14.88,17,18.28a10.11,10.11,0,0,0,1.2,1.24c1.61,1.68,3.16,3.33,4.6,4.88-5.27-3.35-10.48-3.79-13-3,4.17-.61,12.19,2.56,15,5.76,5.6,4.88,9,13.21,10,16.55.42,1.61.84,3,1.3,4.36-1.94-2.66-5.51-4.25-11-4.94a18.23,18.23,0,0,0-6.1.26h0c-3.42.32-7.9-.78-9.79-2.39,1.52,1.61,4.77,2.74,7.6,2.95-1.37.42-2.7.91-4,1.42-3.35,1.31-6.67,2.69-11.31,2.69,4.45.51,8-.86,11.5-2.19s7.29-2.79,12-2.19c5.34.67,8.8,2.2,10.65,4.77A9.45,9.45,0,0,0,55.58,58a8.26,8.26,0,0,0-7.87,1.82c1.56-.84,4.65-2.1,7.73-1.29a7.08,7.08,0,0,1,4.88,3.68c.61,2.05,2,6.58,3.09,9.87.73.86,1.43,1.74,2,2.58a16.58,16.58,0,0,1-.4-2.3C63.4,67.22,60,57,59.39,55c-.22-.85-.65-1.72-.9-2.63-.09-.35-.16-.7-.23-1.06.34-4.62,4.08-8.77,6.22-9.53-2.43.41-5.54,4.12-6.42,7.48.08-5,3.13-10.16,4.5-12.09a15.61,15.61,0,0,1,8.36-5.95,11.07,11.07,0,0,0-5.76,2.35,30.41,30.41,0,0,1,2.61-3.33,38.38,38.38,0,0,1,6.63-5.32,35.17,35.17,0,0,0,6.35-5.1C76.21,23.33,72.28,25.72,71,26.69Z"/></g></g></svg>