<svg xmlns="http://www.w3.org/2000/svg" xmlns:xlink="http://www.w3.org/1999/xlink" viewBox="0 0 89.68 87.35"><defs><style>.cls-1{fill:url(#linear-gradient);}.cls-2{fill:#8cc640;}.cls-3{fill:url(#linear-gradient-2);}.cls-4{fill:url(#linear-gradient-3);}</style><linearGradient id="linear-gradient" x1="-43.75" y1="621.98" x2="-42.75" y2="621.98" gradientTransform="matrix(0, 38.51, 38.51, 0, -23894.03, 1733.58)" gradientUnits="userSpaceOnUse"><stop offset="0" stop-color="#8cc640"/><stop offset="0.14" stop-color="#8cc640"/><stop offset="0.43" stop-color="#8cc641"/><stop offset="0.84" stop-color="#cfe28e"/><stop offset="1" stop-color="#dcb67e"/></linearGradient><linearGradient id="linear-gradient-2" x1="-43.75" y1="621.98" x2="-42.75" y2="621.98" gradientTransform="matrix(45.26, -8.33, -8.33, -45.26, 7177.2, 27824.17)" gradientUnits="userSpaceOnUse"><stop offset="0" stop-color="#a8d15e"/><stop offset="0.11" stop-color="#a8d15e"/><stop offset="0.43" stop-color="#cfe28e"/><stop offset="0.9" stop-color="#8cc641"/><stop offset="1" stop-color="#8cc641"/></linearGradient><linearGradient id="linear-gradient-3" x1="-43.75" y1="621.98" x2="-42.75" y2="621.98" gradientTransform="matrix(61.99, 4.96, 4.96, -61.99, -377.37, 38801.99)" gradientUnits="userSpaceOnUse"><stop offset="0" stop-color="#a8d15e"/><stop offset="0.09" stop-color="#a8d15e"/><stop offset="0.31" stop-color="#cfe28e"/><stop offset="0.67" stop-color="#8cc641"/><stop offset="1" stop-color="#8cc641"/></linearGradient></defs><g id="Layer_2" data-name="Layer 2"><g id="Layer_2-2" data-name="Layer 2"><path class="cls-1" d="M29.8,82.66c0-.11,6.17.68,15.52,1.82,9.32.94,22,2.75,34.71,1.25,3-.49,6.59-1.28,7.84-3.65,1-2.47-1.4-5.26-3.45-7.22-4.44-4.09-9.54-7.07-14-9.65-9-5.06-15.92-8.22-17.6-9.08-6.8-3.31-12.16-6.51-11.79-7.21.3-.54,6.05,1.58,12.92,4.91,1.69.87,8.59,4.19,17.57,9.52,4.44,2.73,9.51,5.83,14.1,10.26a18.27,18.27,0,0,1,3.06,3.84,5.74,5.74,0,0,1,.54,5.28,7.08,7.08,0,0,1-4.18,3.19A23.7,23.7,0,0,1,80.21,87c-13,1.2-25.61-1-34.94-2.12C36,83.5,29.82,82.55,29.8,82.66Z"/><path class="cls-2" d="M0,0S3,5.75,11.31,8.84,37.64,11.72,53,21.21s14.7,24.32,13.31,29.17-7,5.39-7,5.39S60.66,64.26,47.78,64C2.66,56.31,0,0,0,0Z"/><path class="cls-3" d="M53,21.21C39.18,12.67,23.24,12,14.11,9.68c8.44,3.6,25.4,5.05,39,15.59,12.3,9.52,12.36,22.28,10.94,28.47a6.64,6.64,0,0,0,2.2-3.36C67.66,45.53,68.3,30.7,53,21.21Z"/><path class="cls-4" d="M51.46,60C10.27,55.43,1.48,9.06.18.32L0,0S2.39,59.69,47.78,64c5.29.1,8.16-1.27,9.72-2.91V60C55.5,60,53.37,59.89,51.46,60Z"/></g></g></svg>