<svg xmlns="http://www.w3.org/2000/svg" viewBox="0 0 46.05 77.92"><defs><style>.cls-1{fill:#8dc63f;}.cls-2{fill:#fff;}</style></defs><g id="Layer_2" data-name="Layer 2"><g id="Layer_2-2" data-name="Layer 2"><path class="cls-1" d="M7.9,77.92c5.75-7.08,10.18-15.71,11.58-24.68a25.76,25.76,0,0,1,5.64-2c-.2,1.94.3,4.1,2.28,4.9.75-1.13,3-.1,4.25-.07.64-1,3.48-.83,4.89-1.36-.69-.92,3-2,4.14-2.63C39.61,51.63,42.49,49,43.26,48c-1.37.09,2-7.1,2.79-8.29-1.53.42-9-1.48-8.51-2.22-1.24.13-5.1,1-4.9-.12-1.16.57-4.09,3-4.48,2-1.21.86-2.67,3.31-3.81,3.28-.61,1-1,3.58-2.41,3.46-.4,2,1.12,3.6,2.86,4.46-1.76.68-3.5,1.39-5.23,2.17.13-.88.22-1.76.29-2.65l.27.12.51-.13-.75-.3a34.15,34.15,0,0,0-1.67-13.12c.17-.14.35-.27.51-.41l1.19-.06c2.73,1.36,6.15,1.86,8.42-.52-1.24-1.7,1.5-4.26,2.26-6.07-1.12-1.47.73-5.4.74-7.7-1.72.46-1.19-5.4-1.52-7.35-1.29,1.26-3.59-4.33-4.57-5.95-.62,2-9.23-6.8-10.53-8.59-.24,2.42-7.19,12-8,10.87-.49,1.81-1.41,7.78-2.91,6.88.18,2,2.19,7.51.44,7.48a7.45,7.45,0,0,0,.54,1.39l-.06,0c-2.08.93.26,2.09.4,3.13l1.68,1.06a2.46,2.46,0,0,1,.1,1.65c1.15,1.43,4.65,3.41,3.69,5.33,2.21,1.38,4.65.81,6.69-.5a34.57,34.57,0,0,1,1.54,12A15.86,15.86,0,0,1,16.42,48c1.13-.86,2-2.18,1.47-3.59-1,.17-1.51-1.49-2.12-2.16-.85.17-2.15-1.39-3.13-1.85-.15.8-2.53-.6-3.42-.85.27.78-2.57.62-3.45.69C6.49,40.88,1,42.68,0,42.86c1,.58,3.66,5.39,3,5.49.67.57,3,2.15,2.34,2.58.87.33,3.63.6,3.26,1.33,1.06.2,3.07-.26,3.62.36.84-.2,2.38-1.25,3-.47,1.28-.79,1.36-2.34,1-3.67.87.41,1.74.8,2.62,1.17-.56,10-5.29,19.75-12.12,27.95Z"/><path class="cls-2" d="M15.75,48.13h0a4.16,4.16,0,0,1-1.23-.29,10.87,10.87,0,0,1-6.1,2.68c-.14,0-.2-.14-.09-.18,1.07-.45,2.24-.76,3.34-1.17a8.27,8.27,0,0,0,1.85-1c.28-.19.79-.46.19-.65l-.91-.31a6.75,6.75,0,0,1-1-.32,1.4,1.4,0,0,0-1.2,0,6.47,6.47,0,0,1-1.19.55,18.8,18.8,0,0,1-3.66,1.14.1.1,0,0,1-.08-.18,48.65,48.65,0,0,0,4.94-1.92l-2-.66a3.51,3.51,0,0,0-1.34-.35c-.13,0-.27.2-.38.27a7,7,0,0,1-1.42.46,5.92,5.92,0,0,1-1.65.37c-.12,0-.21-.14-.09-.18a10.36,10.36,0,0,0,3.15-1.15L1.4,43.46c-.13-.05-.09-.19,0-.18C3.34,43.41,5.22,44.39,7,45a5.54,5.54,0,0,0-1.85-2.7c-.1-.09,0-.18.14-.13A3.35,3.35,0,0,1,6.6,43.42a6.94,6.94,0,0,1,.58.91,2.68,2.68,0,0,0,.34.8,1.86,1.86,0,0,0,.58.37l.34.13.29.09.59.17c.46.14.93.24,1.39.38-.62-1.59-1.9-3-2.59-4.58l.19-.06a14.3,14.3,0,0,1,2.23,3.22c.25.49.33,1.16.78,1.58a1.88,1.88,0,0,0,.43.28,14.05,14.05,0,0,1,1.35.43l.18,0,.77.2c.36.09.08-.46,0-.67A7.41,7.41,0,0,0,13.31,45c-.6-1-1.39-2-1.93-3.07-.05-.09.09-.18.18-.09a10.48,10.48,0,0,1,2.32,3.25c.36.9.3,2.66,1.85,2.88C15.86,48,15.89,48.13,15.75,48.13Z"/><path class="cls-2" d="M16.64,10.74c.12,1.6.19,3.19.36,4.73a12.53,12.53,0,0,0,2.21-2.73l1.36-3.31c.07-.28.38-.11.38.15a5.59,5.59,0,0,1-.63,2.48l-.58,1.1a13.81,13.81,0,0,1-1.25,1.95c-.39.48-1,.76-1.24,1.4a3.78,3.78,0,0,0-.2,1.43c0,.3,0,.58.07.77s.05.44.08.66c.07.46.16.91.22,1.29.17,1,.38,2,.54,3,2.56-2.66,4.14-6.43,6.59-9.21.13-.16.39.1.3.31A31,31,0,0,1,20.6,22c-.74.93-2,1.7-2.38,2.95a3.9,3.9,0,0,0-.15,1.1,28,28,0,0,1,.4,3c0,.13.05.25.08.37.11.56.22,1.11.32,1.66.15.78,1-.26,1.33-.55a15,15,0,0,0,2.7-3.1c1.49-2.11,2.68-4.52,4.25-6.55.14-.18.44,0,.34.27a22,22,0,0,1-4.22,7.44c-1.45,1.55-4.94,3-3.94,6.23.08.25-.21.47-.34.22L19,35h0a8.25,8.25,0,0,1-.58-2.64A23,23,0,0,1,7.47,23.16c-.16-.24.09-.49.27-.34,1.87,1.65,3.57,3.59,5.4,5.32a18.67,18.67,0,0,0,3.58,2.66c.62.35,1.62,1.07,1.46-.24-.08-.68-.16-1.36-.25-2a13.23,13.23,0,0,1-.24-2.13,3,3,0,0,0-1.18-2.29,13.71,13.71,0,0,1-2.18-1.75,41.46,41.46,0,0,1-5.65-5.94c-.16-.22.1-.47.28-.32,2.87,2.44,5.31,5.6,8.38,7.65l-.54-4.38c-.1-.77-.1-2.27-.56-2.87-.18-.23-.65-.34-.88-.48a16.26,16.26,0,0,1-2.23-2.3,13.08,13.08,0,0,1-2.26-2.81c-.13-.23.1-.53.28-.33,1.64,1.86,3.16,3.82,5.18,4.95-.49-4.09-1-8.19-1.49-12.27,0-.3.28-.36.38-.11a24.27,24.27,0,0,1,1.39,7.18Z"/><path class="cls-2" d="M25.59,50.44l0,0h0a5.71,5.71,0,0,1,1.48-1,14.61,14.61,0,0,1,3.07-8.66c.11-.15.32-.06.27.08-.57,1.5-1.37,3-2,4.47a11.76,11.76,0,0,0-.8,2.75c-.07.45-.27,1.22.49.82l1.19-.63a8.69,8.69,0,0,1,1.25-.64,1.93,1.93,0,0,0,1.12-1.24,8.58,8.58,0,0,1,.57-1.71,26.65,26.65,0,0,1,2.31-4.75c.1-.15.32,0,.27.08-.83,2.29-2.19,4.48-2.73,6.79l2.55-1.34c.46-.24,1.37-.59,1.63-1,.1-.16.06-.47.09-.64A10.49,10.49,0,0,1,37.29,42a8.31,8.31,0,0,1,1.19-2c.1-.13.35-.06.27.09a14,14,0,0,0-1.82,4.25l7.17-3.76c.17-.09.28.09.15.21-2,1.78-4.76,2.73-7.13,3.93a7.92,7.92,0,0,0,4.52.72c.2,0,.16.2,0,.27a4.74,4.74,0,0,1-2.47.11,8.81,8.81,0,0,1-1.48-.29c-.39-.12-.7-.41-1.15-.41a2.45,2.45,0,0,0-.92.21l-.46.23-.38.2-.75.43c-.57.33-1.13.69-1.7,1,2.22.91,4.9,1,7.18,1.78.12.05,0,.26-.12.25A20.43,20.43,0,0,1,34,48.35a6.81,6.81,0,0,0-2.37-.72,2.28,2.28,0,0,0-.7.16,18,18,0,0,1-1.74.94l-.21.13-.94.58c-.45.27.39.53.65.67a10.1,10.1,0,0,0,2.53.89c1.64.39,3.39.53,5,1,.14,0,.1.26-.09.26a14.71,14.71,0,0,1-5.54-.78c-1.28-.5-3-2.23-4.73-.89C25.67,50.7,25.47,50.58,25.59,50.44Z"/></g></g></svg>