<svg xmlns="http://www.w3.org/2000/svg" viewBox="0 0 38.96 63.03"><defs><style>.cls-1{fill:#8dc63f;}</style></defs><g id="Layer_2" data-name="Layer 2"><g id="Layer_2-2" data-name="Layer 2"><path class="cls-1" d="M13.34,62.23c-1.05-.2-2.14-.43-3.26-.7-.36.14-16.58-17-7.12-31.92C7.49,22.2,11.14,19,13.64,15.28c2.14-3.64,2.79-8-1.92-15.28A127.28,127.28,0,0,1,24,13.66c5.7,7.5,10.51,16.63,10,19q-4.76,5.48-10.26,10.79c4-2.23,8-4.5,11.77-7-.08,0,4.36,7.18,3.29,14.42-.82,7.19-7.4,14.56-25.31,11.33"/></g></g></svg>