<svg xmlns="http://www.w3.org/2000/svg" xmlns:xlink="http://www.w3.org/1999/xlink" viewBox="0 0 75.73 64.53"><defs><style>.cls-1{fill:url(#linear-gradient);}.cls-2{fill:url(#linear-gradient-2);}.cls-3{fill:url(#linear-gradient-3);}</style><linearGradient id="linear-gradient" x1="-333.34" y1="362.38" x2="-332.34" y2="362.38" gradientTransform="matrix(81.4, 14.35, 14.35, -81.4, 21928.4, 34310.05)" gradientUnits="userSpaceOnUse"><stop offset="0" stop-color="#cfe28e"/><stop offset="0.02" stop-color="#c1dc7e"/><stop offset="0.06" stop-color="#aad263"/><stop offset="0.11" stop-color="#99cc50"/><stop offset="0.15" stop-color="#8fc745"/><stop offset="0.2" stop-color="#8cc641"/><stop offset="1" stop-color="#8cc641"/></linearGradient><linearGradient id="linear-gradient-2" x1="-333.34" y1="362.39" x2="-332.34" y2="362.39" gradientTransform="matrix(47.83, -12.81, -12.81, -47.83, 20609.83, 13096.04)" gradientUnits="userSpaceOnUse"><stop offset="0" stop-color="#a8d15e"/><stop offset="0.11" stop-color="#a8d15e"/><stop offset="0.43" stop-color="#cfe28e"/><stop offset="0.9" stop-color="#8cc641"/><stop offset="1" stop-color="#8cc641"/></linearGradient><linearGradient id="linear-gradient-3" x1="-333.34" y1="362.38" x2="-332.34" y2="362.38" gradientTransform="matrix(66.9, 0, 0, -66.9, 22301.5, 24275.87)" gradientUnits="userSpaceOnUse"><stop offset="0" stop-color="#a8d15e"/><stop offset="0.09" stop-color="#a8d15e"/><stop offset="0.31" stop-color="#cfe28e"/><stop offset="0.67" stop-color="#8cc641"/><stop offset="1" stop-color="#8cc641"/></linearGradient></defs><g id="Layer_2" data-name="Layer 2"><g id="Layer_2-2" data-name="Layer 2"><path class="cls-1" d="M58.62,18.2C41.37,9.34,22.1,11.11,12.88,8.51S0,0,0,0,7.68,60.16,56.73,64.53c5.68-.34,8.64-2.05,10.17-4a45.22,45.22,0,0,0-3.52-15.64,22.06,22.06,0,0,0-5.67-7.71A51.68,51.68,0,0,0,50.3,31.5,47.56,47.56,0,0,0,40,26.8c-1.34-.43-3.74-1.25-6.65-2.15A59.15,59.15,0,0,1,24,21.14a108.81,108.81,0,0,1-11.22-6A121.09,121.09,0,0,0,24.5,19.78,65,65,0,0,0,34,22.26c3,.64,5.53,1.3,6.92,1.75,2.6.91,18.21,5.1,26.18,19.12a44.19,44.19,0,0,1,3.66,10.76,7.92,7.92,0,0,0,4.66-5.55C76.47,43,75.88,27.07,58.62,18.2Z"/><path class="cls-2" d="M58.62,18.2C43.1,10.23,26,10.86,16,9.17c9.37,3.14,27.68,3.24,43.2,13.37,14,9.15,15.16,22.83,14.17,29.59a7.15,7.15,0,0,0,2.08-3.79C76.47,43,75.88,27.07,58.62,18.2Z"/><path class="cls-3" d="M60.33,59.9C15.77,58.56,2.36,9.59.22.32L0,0S7.68,63.8,56.73,64.53c5.68-.34,8.64-2.05,10.17-4,0-.37-.05-.75-.08-1.13C64.66,59.56,62.38,59.65,60.33,59.9Z"/></g></g></svg>