<svg xmlns="http://www.w3.org/2000/svg" viewBox="0 0 86.12 84.58"><defs><style>.cls-1{fill:#8fc73e;fill-rule:evenodd;}</style></defs><g id="Layer_2" data-name="Layer 2"><g id="Layer_2-2" data-name="Layer 2"><path class="cls-1" d="M17.54,18.29c-5-2.25-8.7-3.43-11.07-.93s.26,7.39,4.09,11.08c6.32,5.94,17.54,9.37,30.06,11.47-2.9-12.26-5.8-24.52-12.26-30.59C24.53,5.76,18.34,4.7,16,7.21S14.91,13.41,17.54,18.29ZM51.83,7.47h0c2.24-5,3.43-6.33,7.26-5.27s6.32,6.06,4.08,11.08c-1.05,8.7-10.68,16.35-19,25.18C40.09,27.52,36,16.57,38.12,6.55,39.3,2.86,42.86-1,46.56.22,49.06.09,51.7,2.46,51.83,7.47ZM77.28,31.34C81,30,83.35,27.52,82,23.83S76.89,19,70.82,20.4C61.06,23.17,55.13,32,46.69,41,58,44.27,69.24,47.7,79,44.93c5-.27,7.25-5.15,7.12-7.65C84.8,33.58,83.61,32.4,77.28,31.34Zm-8.7,34.82h0c2.64,4.88,4.09,8.57,1.58,11.07s-8.57,1.59-12.39-2c-6.33-6.07-9.23-18.33-12.14-30.6C58,46.77,69.24,50.2,75.7,56.14c3.83,3.56,6.46,8.43,4.09,10.94S73.59,68.53,68.58,66.16ZM34.42,77.1h0c-2.37,5-3.56,6.33-7.25,5.15s-6.46-5.94-4.09-11.08C24,62.6,33.63,54.82,41.94,46,46.16,57.06,50.12,68,48,77.89c-1.06,3.83-4.75,7.65-8.44,6.47C37.06,84.36,34.56,82,34.42,77.1ZM8.84,53.23h0C2.64,52.05,1.46,50.86,0,47.17c-.14-2.38,2.24-7.39,7.12-7.52,9.75-2.77,21.1.53,32.31,4-8.31,8.83-14.25,17.67-24,20.44-6.19,1.45-9.89.26-11.21-3.3S5.28,54.42,8.84,53.23Z"/></g></g></svg>