<svg xmlns="http://www.w3.org/2000/svg" viewBox="0 0 74.82 80.76"><defs><style>.cls-1{fill:#8dc63f;}</style></defs><g id="Layer_2" data-name="Layer 2"><g id="Layer_2-2" data-name="Layer 2"><path class="cls-1" d="M20.48,41.1a9.06,9.06,0,0,0,8.92,3.12A4,4,0,0,1,28,43.1c-1.71-2.27-2.65-9.28-2.65-9.28s7.27,1.47,9.15,4.25a7.87,7.87,0,0,1,.87,1.56c1.07-2.07,1-4.66-1.74-8.73-3.83-5.62-18.56-8.6-18.56-8.6S17,36.52,20.48,41.1Z"/><path class="cls-1" d="M10.19,74.54c4.22,5.56,11.23,6.94,16.91,5.91a7.41,7.41,0,0,1-2.57-2.13c-3.25-4.29-5-17.59-5-17.59s13.78,2.79,17.36,8.05a15.93,15.93,0,0,1,1.64,3c2-3.93,2-8.84-3.3-16.56C27.94,44.53,0,38.88,0,38.88S3.59,65.85,10.19,74.54Z"/><path class="cls-1" d="M66.6,75.61C63.2,80.09,57.54,81.2,53,80.37A6,6,0,0,0,55,78.65c2.62-3.46,4-14.19,4-14.19S48,66.71,45.07,71a12.66,12.66,0,0,0-1.33,2.4C42.1,70.18,42.16,66.22,46.41,60c5.87-8.6,28.41-13.17,28.41-13.17S71.92,68.59,66.6,75.61Z"/><path class="cls-1" d="M62.33,45.83c-3.08,4.05-8.19,5.06-12.33,4.3a5.38,5.38,0,0,0,1.87-1.55c2.37-3.13,3.66-12.82,3.66-12.82s-10,2-12.66,5.86a11.84,11.84,0,0,0-1.2,2.17c-1.48-2.87-1.43-6.45,2.41-12.08,5.3-7.77,25.68-11.89,25.68-11.89S67.14,39.48,62.33,45.83Z"/><path class="cls-1" d="M47.66,17.07A8.67,8.67,0,0,1,43,24.83a3.93,3.93,0,0,0,.31-1.66c-.14-2.7-3.77-8.41-3.77-8.41s-4.41,5.54-4.09,8.73a8.18,8.18,0,0,0,.33,1.68c-2.06-.86-3.62-2.77-4.09-7.46C31.08,11.24,40,0,40,0S47.38,11.57,47.66,17.07Z"/></g></g></svg>