<svg xmlns="http://www.w3.org/2000/svg" viewBox="0 0 60.55 54.18"><defs><style>.cls-1{fill:#bcd231;}</style></defs><g id="Layer_2" data-name="Layer 2"><g id="Layer_2-2" data-name="Layer 2"><path class="cls-1" d="M14.62,34.19C10.32,30.51,5.16,29.43,3,23.32,1,17.87,2.8,12.08,0,6.23c2.61,6.57,9.13,4.2,14.14,7.29,5.9,3.64,5.24,11.05,3.63,17.32.53-6.67-4.42-12.45-10.38-14.93a22.72,22.72,0,0,1,8,19.79Z"/><path class="cls-1" d="M22.58,30.76c-.88-5.59-4.1-9.76-1.79-15.83C22.85,9.53,28,6.27,29.63,0c-2.28,6.7,4.21,9.13,6,14.73,2.12,6.6-3.19,11.8-8.49,15.53,4.74-4.73,4.73-12.34,1.81-18.1a22.74,22.74,0,0,1-6.8,20.22Z"/><path class="cls-1" d="M30.12,32c3.78-4.21,5-9.34,11.15-11.38,5.49-1.81,11.24.08,17.16-2.57-6.63,2.45-4.42,9-7.63,14C47,37.79,39.63,37,33.4,35.19c6.67.7,12.55-4.12,15.18-10a22.79,22.79,0,0,1-20,7.49Z"/><path class="cls-1" d="M31,43.25C35.15,47,36.88,52,43.22,53.41c5.64,1.23,11.17-1.25,17.33.77-6.85-1.75-5.33-8.51-9-13.09-4.35-5.38-11.62-3.79-17.63-1.39,6.55-1.39,12.91,2.79,16.13,8.38a22.8,22.8,0,0,0-20.64-5.37Z"/></g></g></svg>