<svg xmlns="http://www.w3.org/2000/svg" viewBox="0 0 51.43 86.03"><defs><style>.cls-1{fill:#8dc63f;}.cls-2{fill:#fff;}</style></defs><g id="Layer_2" data-name="Layer 2"><g id="Layer_2-2" data-name="Layer 2"><path class="cls-1" d="M32,85.6l.41.43c-.81-6.23-1.44-12.67-.69-18.78,5.19,2.25,11.58,2.82,15.56-1.87-2.48-3,2.33-8.16,3.56-11.63-2.23-2.63.77-10.2.56-14.5-3.14,1-2.77-10-3.59-13.62-2.26,2.51-7.11-7.74-9.08-10.67-1,3.8-17.82-11.76-20.41-15C18.15,4.55,6.25,23.27,4.67,21.22,3.94,24.68,2.87,36,0,34.41c.54,3.69,4.83,13.84,1.57,14,1.32,4.07,6.8,10.21,5.7,13.31,2.29,2.53,9,5.88,7.41,9.59,5.28,2.92,10.94.17,14.85-3.81.35,5.68.79,11.36,1.46,17l.71.75"/><path class="cls-2" d="M7.29,44.16c-.31-.42.13-.92.48-.65,3.64,2.89,7,6.36,10.56,9.39a34.12,34.12,0,0,0,6.92,4.6c1.19.59,3.12,1.83,2.67-.6-.22-1.26-.44-2.54-.67-3.8a25.65,25.65,0,0,1-.68-4c-.34-1.75-.91-3.32-2.4-4.17a25.05,25.05,0,0,1-4.25-3.06c-3.84-3.28-7.73-6.31-11.07-10.5-.32-.43.14-.92.48-.65C14.9,35,19.76,40.68,25.65,44.21c-.49-2.72-1-5.43-1.44-8.16-.27-1.43-.43-4.23-1.34-5.31-.36-.41-1.25-.57-1.7-.8-1.5-.82-3-2.86-4.37-4.07a24.41,24.41,0,0,1-4.47-5c-.28-.41.13-1,.47-.65,3.25,3.3,6.26,6.82,10.12,8.71q-2-11.41-4-22.83c-.09-.55.48-.7.69-.23,3.21,6.89,3.37,15.36,4.57,22.9a22.69,22.69,0,0,0,6-11.7c.1-.54.69-.24.72.25C31,19.93,30,22,29,24.1a25.86,25.86,0,0,1-2.13,3.81c-.68.94-1.74,1.54-2.16,2.76a7.3,7.3,0,0,0-.21,2.69c.08.57.14,1.09.2,1.45s.14.82.22,1.22c.19.86.4,1.69.55,2.41.41,1.84.91,3.68,1.31,5.54,4.47-5.24,7-12.48,11.25-18,.25-.3.73.16.6.56a58.89,58.89,0,0,1-7.13,14c-1.27,1.83-3.5,3.42-4.09,5.8a7.68,7.68,0,0,0-.19,2.06,49.42,49.42,0,0,1,1.07,5.57c.06.23.12.46.17.7.27,1,.53,2,.77,3.07.36,1.46,1.8-.59,2.43-1.18a28.47,28.47,0,0,0,4.69-6.1c2.51-4.12,4.48-8.78,7.17-12.72.25-.36.83,0,.67.47-1.59,5.28-3.84,10.51-7.06,14.41-2.51,3-8.84,6.23-6.65,12.07.18.47-.34.91-.6.46l0-.11h0a16.44,16.44,0,0,1-1.35-4.88C20.38,57.64,13.14,52.11,7.29,44.16Z"/></g></g></svg>