<svg xmlns="http://www.w3.org/2000/svg" viewBox="0 0 50.51 91.7"><defs><style>.cls-1{fill:#8dc63f;}</style></defs><g id="Layer_2" data-name="Layer 2"><g id="Layer_2-2" data-name="Layer 2"><path class="cls-1" d="M.31,91.7c7.55-.08,13.48-2.85,17.27-8.54l.06.1c4.42-9.41,28.85-9.52,30.82-17.61-2.29-.09-5.11-1.65-7.65-.94,4.5-7.29,8.13-15,9.7-24.16-1.91,2.55-4.44,4.65-6.62,6.88,1.09-6.71,2.18-13.68,2.89-20.75C45,28,41.29,29.44,39.38,31c.17-10.8-2.11-20-4.14-30.62L35.13,0C31.05,9.43,27,16.76,23.54,26.45,22.29,24.11,19.41,21,18.11,19c-1.28,6.56-3,13-4.4,19.17-1.12-3-2.61-6.08-3.41-9.17A97.5,97.5,0,0,0,8.85,53.86C7,51.85,3.92,51.43,2,50.2.06,56.91,18,71,17.54,81.58,13.62,87.11,7.64,89.42,0,88.7Z"/></g></g></svg>