<svg xmlns="http://www.w3.org/2000/svg" xmlns:xlink="http://www.w3.org/1999/xlink" viewBox="0 0 70.28 102.77"><defs><style>.cls-1{fill:url(#linear-gradient);}.cls-2{fill:url(#linear-gradient-2);}</style><linearGradient id="linear-gradient" x1="-331.78" y1="639.53" x2="-330.78" y2="639.53" gradientTransform="matrix(-84.56, 56.8, 56.8, 84.56, -64297.51, -35204.29)" gradientUnits="userSpaceOnUse"><stop offset="0" stop-color="#cfe28e"/><stop offset="0.02" stop-color="#c1dc7e"/><stop offset="0.06" stop-color="#aad263"/><stop offset="0.11" stop-color="#99cc50"/><stop offset="0.15" stop-color="#8fc745"/><stop offset="0.2" stop-color="#8cc641"/><stop offset="1" stop-color="#8cc641"/></linearGradient><linearGradient id="linear-gradient-2" x1="-331.78" y1="639.53" x2="-330.78" y2="639.53" gradientTransform="translate(-13911.63 41735.89) rotate(171.11) scale(61.02)" gradientUnits="userSpaceOnUse"><stop offset="0" stop-color="#a8d15e"/><stop offset="0.11" stop-color="#a8d15e"/><stop offset="0.43" stop-color="#cfe28e"/><stop offset="0.9" stop-color="#8cc641"/><stop offset="1" stop-color="#8cc641"/></linearGradient></defs><g id="Layer_2" data-name="Layer 2"><g id="Layer_2-2" data-name="Layer 2"><path class="cls-1" d="M66,0S64.86,8.48,55.77,16,24.09,31.16,9.07,49.77,1.35,86.64,5.2,92.1a9.72,9.72,0,0,0,8,3.94,54.12,54.12,0,0,1-1.24-14c2-19.78,17.47-32.28,20-34.61,1.35-1.2,3.86-3.2,6.92-5.42a81.12,81.12,0,0,0,9.46-7.54A148.52,148.52,0,0,0,59.24,23.43a135.19,135.19,0,0,1-9.65,12.36,74.69,74.69,0,0,1-8.85,8.64c-2.82,2.47-5.12,4.59-6.42,5.74a58.28,58.28,0,0,0-9.23,10.44A61.07,61.07,0,0,0,19.6,70.75a26.88,26.88,0,0,0-2.55,11.52c-.06,7.08,1.86,14,3.84,19.37,2.67,1.39,6.87,1.84,13.43-.61A68.76,68.76,0,0,0,47.94,91.2L41.74,83l11.59,2.49a66.05,66.05,0,0,0,9.3-14.69L51.36,67.44l14.1-3.66A89.86,89.86,0,0,0,69.87,42.3l-11.19,2-.12,0,.07,0-1.22.21L70.23,36A127.09,127.09,0,0,0,66,0Z"/><path class="cls-2" d="M9.07,49.77C22.58,33,42.21,25.19,52.64,18.3c-9,8.2-29.58,17.46-42,36.63C-.58,72.23,4.94,88.22,9.43,95.34A8.88,8.88,0,0,1,5.2,92.1C1.35,86.64-5.95,68.37,9.07,49.77Z"/></g></g></svg>