<svg xmlns="http://www.w3.org/2000/svg" xmlns:xlink="http://www.w3.org/1999/xlink" viewBox="0 0 30.83 69.57"><defs><style>.cls-1{fill:#8cc640;}.cls-2{fill:url(#linear-gradient);}.cls-3{fill:url(#linear-gradient-2);}.cls-4{fill:#5a4017;}</style><linearGradient id="linear-gradient" x1="-75.61" y1="89.29" x2="-74.61" y2="89.29" gradientTransform="matrix(-22, 14.65, -14.65, -22, -330.01, 3094.32)" gradientUnits="userSpaceOnUse"><stop offset="0" stop-color="#a8d15e"/><stop offset="0.11" stop-color="#a8d15e"/><stop offset="0.43" stop-color="#cfe28e"/><stop offset="0.9" stop-color="#8cc641"/><stop offset="1" stop-color="#8cc641"/></linearGradient><linearGradient id="linear-gradient-2" x1="-75.61" y1="89.29" x2="-74.61" y2="89.29" gradientTransform="translate(642.74 4144.37) rotate(131.34) scale(35.71)" gradientUnits="userSpaceOnUse"><stop offset="0" stop-color="#a8d15e"/><stop offset="0.09" stop-color="#a8d15e"/><stop offset="0.31" stop-color="#cfe28e"/><stop offset="0.67" stop-color="#8cc641"/><stop offset="1" stop-color="#8cc641"/></linearGradient></defs><g id="Layer_2" data-name="Layer 2"><g id="Layer_2-2" data-name="Layer 2"><path class="cls-1" d="M18.68,0a12.21,12.21,0,0,1-1.13,8.17C15.34,12.78,7.83,19.88,5.3,29.91S9,45.82,11.46,47.27s5.06-.59,5.06-.59,2.81,4.06,8-1.19C40.08,24.29,18.68,0,18.68,0Z"/><path class="cls-2" d="M5.31,29.91c2.27-9,8.57-15.67,11.42-20.28-2.05,4.86-8.47,12.24-9.88,22a16.11,16.11,0,0,0,6.86,16.12,3.77,3.77,0,0,1-2.25-.51C9,45.82,2.77,40,5.31,29.91Z"/><path class="cls-3" d="M21.41,45.3C36.58,27,21.68,4.32,18.73.2L18.68,0s22.86,25.58,5.86,45.49c-2.14,2.16-3.87,2.75-5.17,2.68l-.43-.43C19.75,46.92,20.6,46,21.41,45.3Z"/><path class="cls-4" d="M7.63,69.57S15.19,54,17.9,47s2-21.89,2-21.89-3.11,17-8.21,24.79A87.47,87.47,0,0,1,0,63.81Z"/></g></g></svg>