<svg xmlns="http://www.w3.org/2000/svg" xmlns:xlink="http://www.w3.org/1999/xlink" viewBox="0 0 83.74 91.19"><defs><style>.cls-1{fill:url(#linear-gradient);}.cls-2{fill:url(#linear-gradient-2);}.cls-3{fill:#8fc73e;}</style><linearGradient id="linear-gradient" x1="-602.58" y1="487.52" x2="-601.58" y2="487.52" gradientTransform="matrix(0, 0.52, 0.52, 0, -184.89, 406.66)" gradientUnits="userSpaceOnUse"><stop offset="0" stop-color="#9eac3a"/><stop offset="1" stop-color="#23381a"/></linearGradient><linearGradient id="linear-gradient-2" x1="-602.58" y1="487.53" x2="-601.58" y2="487.53" gradientTransform="matrix(0, 0.14, 0.14, 0, 4.34, 172.32)" xlink:href="#linear-gradient"/></defs><g id="Layer_2" data-name="Layer 2"><g id="Layer_2-2" data-name="Layer 2"><path class="cls-1" d="M71,91.19c-.13-.18-.26-.36-.41-.53C70.72,90.83,70.85,91,71,91.19Z"/><polygon class="cls-2" points="70.49 90.56 70.46 90.53 70.57 90.66 70.49 90.56"/><path class="cls-3" d="M22.92,46a10.15,10.15,0,0,0,10,3.49,4.33,4.33,0,0,1-1.52-1.26c-1.92-2.53-3-10.37-3-10.37s8.12,1.64,10.24,4.74a9.62,9.62,0,0,1,1,1.75c1.2-2.31,1.16-5.21-2-9.76C33.39,28.3,16.91,25,16.91,25S19,40.87,22.92,46Z"/><path class="cls-3" d="M11.4,83.43C16.12,89.65,24,91.19,30.33,90a8.35,8.35,0,0,1-2.87-2.39C23.82,82.86,21.83,68,21.83,68s15.42,3.12,19.43,9A17.81,17.81,0,0,1,43.1,80.3c2.28-4.4,2.2-9.89-3.69-18.53C31.27,49.84,0,43.51,0,43.51S4,73.7,11.4,83.43Z"/><path class="cls-3" d="M74.54,84.62c-3.81,5-10.15,6.26-15.27,5.33A6.68,6.68,0,0,0,61.58,88c2.94-3.87,4.54-15.88,4.54-15.88s-12.44,2.51-15.68,7.26A13.94,13.94,0,0,0,49,82.09c-1.84-3.55-1.78-8,3-15,6.57-9.63,31.8-14.73,31.8-14.73S80.5,76.76,74.54,84.62Z"/><path class="cls-3" d="M69.76,51.29C66.32,55.83,60.59,57,56,56.11a6.15,6.15,0,0,0,2.09-1.74c2.66-3.5,4.1-14.35,4.1-14.35S50.91,42.29,48,46.58A13.85,13.85,0,0,0,46.64,49C45,45.8,45,41.79,49.33,35.5c5.94-8.71,28.74-13.32,28.74-13.32S75.14,44.19,69.76,51.29Z"/><path class="cls-3" d="M53.34,19.1a9.71,9.71,0,0,1-5.17,8.69,4.18,4.18,0,0,0,.34-1.85c-.15-3-4.21-9.42-4.21-9.42s-4.94,6.2-4.58,9.77a8.44,8.44,0,0,0,.37,1.88c-2.31-1-4.06-3.1-4.58-8.35C34.78,12.58,44.8,0,44.8,0S53,13,53.34,19.1Z"/></g></g></svg>