<svg xmlns="http://www.w3.org/2000/svg" xmlns:xlink="http://www.w3.org/1999/xlink" viewBox="0 0 99.06 63.22"><defs><style>.cls-1{fill:#8cc640;}.cls-2{fill:url(#linear-gradient);}.cls-3{fill:url(#linear-gradient-2);}.cls-4{fill:#5a4017;}.cls-5{fill:url(#linear-gradient-3);}.cls-6{fill:url(#linear-gradient-4);}</style><linearGradient id="linear-gradient" x1="-331.83" y1="756.99" x2="-330.83" y2="756.99" gradientTransform="matrix(-34.58, -9.26, 9.26, -34.58, -18403.58, 23125.42)" gradientUnits="userSpaceOnUse"><stop offset="0" stop-color="#a8d15e"/><stop offset="0.11" stop-color="#a8d15e"/><stop offset="0.43" stop-color="#cfe28e"/><stop offset="0.9" stop-color="#8cc641"/><stop offset="1" stop-color="#8cc641"/></linearGradient><linearGradient id="linear-gradient-2" x1="-331.83" y1="756.99" x2="-330.83" y2="756.99" gradientTransform="translate(-15948.97 36633.1) rotate(180) scale(48.36)" gradientUnits="userSpaceOnUse"><stop offset="0" stop-color="#a8d15e"/><stop offset="0.09" stop-color="#a8d15e"/><stop offset="0.31" stop-color="#cfe28e"/><stop offset="0.67" stop-color="#8cc641"/><stop offset="1" stop-color="#8cc641"/></linearGradient><linearGradient id="linear-gradient-3" x1="-331.83" y1="757" x2="-330.83" y2="757" gradientTransform="matrix(23.54, -6.31, -6.31, -23.54, 12599.52, 15767)" xlink:href="#linear-gradient"/><linearGradient id="linear-gradient-4" x1="-331.83" y1="757" x2="-330.83" y2="757" gradientTransform="matrix(32.94, 0, 0, -32.94, 10929.13, 24967.95)" xlink:href="#linear-gradient-2"/></defs><g id="Layer_2" data-name="Layer 2"><g id="Layer_2-2" data-name="Layer 2"><path class="cls-1" d="M99.06,0s-2.65,4.27-9.31,6.15-20.6.6-33.07,7S43.77,31.1,44.54,35s5.13,4.61,5.13,4.61-1.62,6.5,8.37,7.09C93.5,43.49,99.06,0,99.06,0Z"/><path class="cls-2" d="M56.68,13.16C67.9,7.39,80.3,7.85,87.53,6.63,80.75,8.9,67.51,9,56.29,16.3,46.17,22.91,45.33,32.8,46,37.69a5.24,5.24,0,0,1-1.49-2.75C43.78,31.1,44.21,19.57,56.68,13.16Z"/><path class="cls-3" d="M55.44,43.3C87.66,42.34,97.35,6.93,98.9.24A2.56,2.56,0,0,0,99.06,0s-5.55,46.12-41,46.65c-4.11-.25-6.25-1.48-7.35-2.86,0-.27,0-.54.06-.82C52.31,43.05,54,43.12,55.44,43.3Z"/><path class="cls-4" d="M74.94,21.13s-16,9.82-24.1,19.64S43,63.22,43,63.22s-3.45-15,4-24.11S74.94,21.13,74.94,21.13Z"/><path class="cls-1" d="M0,19.28a11.22,11.22,0,0,0,6.34,4.19c4.54,1.28,14,.41,22.52,4.77s8.79,12.22,8.27,14.84-3.5,3.14-3.5,3.14,1.11,4.42-5.7,4.83C3.78,48.9,0,19.28,0,19.28Z"/><path class="cls-5" d="M28.86,28.24c-7.64-3.93-16.08-3.61-21-4.44,4.61,1.54,13.62,1.59,21.26,6.58a14.81,14.81,0,0,1,7,14.56,3.48,3.48,0,0,0,1-1.86C37.65,40.46,37.36,32.6,28.86,28.24Z"/><path class="cls-6" d="M29.7,48.77C7.77,48.11,1.16,24,.11,19.44L0,19.28S3.78,50.69,27.93,51.05c2.79-.17,4.26-1,5-1.95,0-.18,0-.37,0-.56C31.83,48.6,30.71,48.65,29.7,48.77Z"/><path class="cls-4" d="M18.78,35.33s8.36,5,14,11.5,5.74,15.46,5.74,15.46,2.07-10.62-3.21-16.67S18.78,35.33,18.78,35.33Z"/></g></g></svg>