<svg xmlns="http://www.w3.org/2000/svg" viewBox="0 0 34.43 57.52"><defs><style>.cls-1{fill:#8dc63f;}</style></defs><g id="Layer_2" data-name="Layer 2"><g id="Layer_2-2" data-name="Layer 2"><path class="cls-1" d="M21.79,15.24c-1.25,2.29-2.59,4.52-4,6.71C18.7,14.33,20.33,7,25.13,1.53,23.16,5.32,22.28,10.09,21.79,15.24Z"/><path class="cls-1" d="M7.52,57.23c16-3.15,20.39-15.8,26-29.89-1.11.27-1.61-.1-3.08.15,1.48-2,2.54-4.16,3.95-6.15-1,.2-1.89,0-3.08.15,1.77-2.14,2.19-3.47-.66-3.79.53-3.58-1.85-7.45-3.17-11.2l-.64-2.34A7.27,7.27,0,0,1,27.18,0C20.86.72,16.76,7.69,14.81,13.46c-.1-1.4-.51-2.5-.67-3.78a58.1,58.1,0,0,1-2.94,7.53c-.64-.94-1.47-1.78-2-2.76-.46,2-1.64,4.8-1.58,6.51C6.82,20.28,5,19.9,4.18,19.22c-2,8-4.85,16.86-4,25.14l.19,1.49A21.81,21.81,0,0,0,5.9,57.52c10.15-6.87,10.29-20,11.57-32.72q2.13-3.11,4.05-6.33C20.43,34.21,21.46,52.34,5.9,57.52l.14,0"/></g></g></svg>