<svg xmlns="http://www.w3.org/2000/svg" viewBox="0 0 1386.07 1432.15"><defs><style>.cls-1{fill:#78bf35;fill-rule:evenodd;}</style></defs><g id="Layer_2" data-name="Layer 2"><g id="Layer_1-2" data-name="Layer 1"><path class="cls-1" d="M523.2,325.88Q195.19,202,48.39,0C-116.06,502.54,153.83,953.59,627.92,976.69,660.85,806.48,526.68,599.36,217.6,366.27,767.34,601,853.83,915.68,505.13,1303.5c357-201.87,502.71-785.87,18.07-977.62Z"/><path class="cls-1" d="M1024.09,755.75Q1251,670,1352.61,530.29c113.73,347.7-73,659.76-401,675.79-22.82-117.82,70-261.11,283.82-422.37-380.31,162.42-440.16,380.15-198.89,648.44-247.07-139.64-347.81-543.77-12.48-676.4Z"/></g></g></svg>